<svg xmlns="http://www.w3.org/2000/svg" width="869" height="328" viewBox="0 0 869 328">
  <g id="Grupo_115954" data-name="Grupo 115954" transform="translate(2211 9551)">
    <path id="Trazado_170445" data-name="Trazado 170445" d="M28,0H841a28,28,0,0,1,28,28V300a28,28,0,0,1-28,28H28A28,28,0,0,1,0,300V28A28,28,0,0,1,28,0Z" transform="translate(-2211 -9551)" fill="#fff"/>
    <path id="Trazado_170446" data-name="Trazado 170446" d="M0,32.61V0" transform="translate(-1776.819 -9479.635)" fill="none" stroke="#3e4bbf" stroke-width="2"/>
    <path id="Trazado_170447" data-name="Trazado 170447" d="M0,24.737V0" transform="translate(-1776.819 -9411.98)" fill="none" stroke="#3e4bbf" stroke-width="2"/>
    <path id="Trazado_170448" data-name="Trazado 170448" d="M0,135.59V0" transform="translate(-2013.36 -9387.848)" fill="none" stroke="#3e4bbf" stroke-width="2"/>
    <path id="Trazado_170449" data-name="Trazado 170449" d="M0,84.273V0" transform="translate(-1855.57 -9387.848)" fill="none" stroke="#3e4bbf" stroke-width="2"/>
    <path id="Trazado_170450" data-name="Trazado 170450" d="M0,84.273V0" transform="translate(-1697.78 -9387.848)" fill="none" stroke="#3e4bbf" stroke-width="2"/>
    <path id="Trazado_170451" data-name="Trazado 170451" d="M0,135.59V0" transform="translate(-1539.983 -9387.848)" fill="none" stroke="#3e4bbf" stroke-width="2"/>
    <path id="Rectángulo_40598" data-name="Rectángulo 40598" d="M374.734,0h130.5a5.136,5.136,0,0,1,5.394,4.829V43.334a5.136,5.136,0,0,1-5.394,4.829h-130.5a5.136,5.136,0,0,1-5.394-4.829V4.829A5.136,5.136,0,0,1,374.734,0Z" transform="translate(-2216.799 -9521.742)" fill="#3d46c2"/>
    <path id="Trazado_170452" data-name="Trazado 170452" d="M3.851-7.82H5.462v5.414a2.589,2.589,0,0,1-.33,1.319A2.242,2.242,0,0,1,4.2-.2,2.911,2.911,0,0,1,2.841.107,2.767,2.767,0,0,1,.908-.524,2.293,2.293,0,0,1,.215-2.31H1.837a1.257,1.257,0,0,0,.242.849.967.967,0,0,0,.763.274A.923.923,0,0,0,3.577-1.5a1.339,1.339,0,0,0,.274-.9Zm6.37,7.229a1.947,1.947,0,0,1-1.59.7A1.836,1.836,0,0,1,7.205-.43,2.293,2.293,0,0,1,6.7-2V-5.812H8.255v3.759q0,.909.827.909a1.121,1.121,0,0,0,1.085-.549V-5.812h1.558V0H10.264Zm4.1-5.221.048.671a2.029,2.029,0,0,1,1.67-.779,1.686,1.686,0,0,1,1.375.542,2.531,2.531,0,0,1,.462,1.622V0H16.328V-3.717a1.007,1.007,0,0,0-.215-.717.962.962,0,0,0-.714-.223,1.068,1.068,0,0,0-.983.559V0H12.864V-5.812Zm6.59-1.429v1.429h.994v1.139h-.994v2.9a.693.693,0,0,0,.124.462.62.62,0,0,0,.473.14,2.475,2.475,0,0,0,.457-.038V-.032a3.2,3.2,0,0,1-.94.14,1.482,1.482,0,0,1-1.665-1.649V-4.673h-.849V-5.812h.849V-7.24ZM26.141,0a1.724,1.724,0,0,1-.156-.521,1.878,1.878,0,0,1-1.466.628A2.063,2.063,0,0,1,23.1-.387a1.589,1.589,0,0,1-.561-1.246,1.642,1.642,0,0,1,.685-1.418,3.379,3.379,0,0,1,1.979-.5h.714v-.333a.958.958,0,0,0-.207-.645.813.813,0,0,0-.653-.242.925.925,0,0,0-.615.188.639.639,0,0,0-.223.516H22.671A1.559,1.559,0,0,1,22.983-5a2.059,2.059,0,0,1,.881-.674,3.21,3.21,0,0,1,1.278-.244,2.536,2.536,0,0,1,1.705.54,1.888,1.888,0,0,1,.631,1.517v2.519a2.778,2.778,0,0,0,.231,1.251V0ZM24.857-1.08a1.337,1.337,0,0,0,.634-.153,1,1,0,0,0,.43-.411v-1h-.58q-1.166,0-1.241.806l-.005.091a.621.621,0,0,0,.2.478A.793.793,0,0,0,24.857-1.08Zm6.311-1.869a3.5,3.5,0,0,1,.61-2.165,1.978,1.978,0,0,1,1.668-.806,1.78,1.78,0,0,1,1.4.634V-8.25h1.558V0H35l-.075-.618a1.827,1.827,0,0,1-1.493.725A1.973,1.973,0,0,1,31.789-.7,3.615,3.615,0,0,1,31.168-2.949Zm1.552.116a2.294,2.294,0,0,0,.285,1.253.927.927,0,0,0,.827.436,1.039,1.039,0,0,0,1.015-.608v-2.3a1.024,1.024,0,0,0-1-.608Q32.721-4.657,32.721-2.833ZM39.247,0H37.689V-5.812h1.558ZM37.6-7.315a.764.764,0,0,1,.234-.575.878.878,0,0,1,.636-.226.88.88,0,0,1,.634.226.76.76,0,0,1,.236.575.762.762,0,0,1-.239.58.882.882,0,0,1-.631.226.882.882,0,0,1-.631-.226A.762.762,0,0,1,37.6-7.315Zm6.193,2.959a4.217,4.217,0,0,0-.559-.043,1.137,1.137,0,0,0-1.155.6V0H40.525V-5.812h1.466l.043.693a1.438,1.438,0,0,1,1.294-.8,1.626,1.626,0,0,1,.483.07ZM47.212.107a2.853,2.853,0,0,1-2.081-.784,2.787,2.787,0,0,1-.8-2.089v-.15a3.511,3.511,0,0,1,.338-1.566,2.483,2.483,0,0,1,.959-1.063,2.691,2.691,0,0,1,1.415-.373,2.412,2.412,0,0,1,1.877.752A3.056,3.056,0,0,1,49.6-3.035V-2.4H45.9a1.442,1.442,0,0,0,.454.913,1.372,1.372,0,0,0,.959.344,1.675,1.675,0,0,0,1.4-.65l.763.854a2.33,2.33,0,0,1-.945.771A3.1,3.1,0,0,1,47.212.107Zm-.177-4.775a.97.97,0,0,0-.749.313,1.62,1.62,0,0,0-.368.9h2.159v-.124a1.156,1.156,0,0,0-.279-.8A1,1,0,0,0,47.035-4.667ZM52.9-1.144a1.018,1.018,0,0,0,.7-.236.828.828,0,0,0,.279-.628h1.456a1.991,1.991,0,0,1-.322,1.082,2.126,2.126,0,0,1-.867.763,2.715,2.715,0,0,1-1.217.271,2.523,2.523,0,0,1-1.966-.792,3.135,3.135,0,0,1-.72-2.189v-.1a3.1,3.1,0,0,1,.714-2.143,2.494,2.494,0,0,1,1.96-.8,2.444,2.444,0,0,1,1.748.62,2.2,2.2,0,0,1,.669,1.652H53.877a1.067,1.067,0,0,0-.279-.737.931.931,0,0,0-.709-.283.935.935,0,0,0-.819.4,2.291,2.291,0,0,0-.277,1.283v.161a2.32,2.32,0,0,0,.274,1.291A.947.947,0,0,0,52.9-1.144Zm5.178-6.1v1.429h.994v1.139h-.994v2.9a.693.693,0,0,0,.124.462.62.62,0,0,0,.473.14,2.475,2.475,0,0,0,.457-.038V-.032a3.2,3.2,0,0,1-.94.14,1.482,1.482,0,0,1-1.665-1.649V-4.673h-.849V-5.812h.849V-7.24ZM61.574,0H60.017V-5.812h1.558ZM59.925-7.315a.764.764,0,0,1,.234-.575.878.878,0,0,1,.636-.226.88.88,0,0,1,.634.226.76.76,0,0,1,.236.575.762.762,0,0,1-.239.58.882.882,0,0,1-.631.226.882.882,0,0,1-.631-.226A.762.762,0,0,1,59.925-7.315Zm5.1,5.419,1.08-3.916h1.622L65.769,0H64.287l-1.96-5.812h1.622ZM71.7,0a1.724,1.724,0,0,1-.156-.521,1.878,1.878,0,0,1-1.466.628,2.063,2.063,0,0,1-1.415-.494A1.589,1.589,0,0,1,68.1-1.633a1.642,1.642,0,0,1,.685-1.418,3.379,3.379,0,0,1,1.979-.5h.714v-.333a.958.958,0,0,0-.207-.645.813.813,0,0,0-.653-.242A.925.925,0,0,0,70-4.582a.639.639,0,0,0-.223.516H68.229A1.559,1.559,0,0,1,68.541-5a2.059,2.059,0,0,1,.881-.674A3.21,3.21,0,0,1,70.7-5.919a2.536,2.536,0,0,1,1.705.54,1.888,1.888,0,0,1,.631,1.517v2.519a2.778,2.778,0,0,0,.231,1.251V0ZM70.415-1.08a1.337,1.337,0,0,0,.634-.153,1,1,0,0,0,.43-.411v-1H70.9q-1.166,0-1.241.806l-.005.091a.621.621,0,0,0,.2.478A.793.793,0,0,0,70.415-1.08Z" transform="translate(-1815.093 -9494.301)" fill="#fff"/>
    <path id="Trazado_170453" data-name="Trazado 170453" d="M473.377,0H0" transform="translate(-2013.36 -9387.244)" fill="none" stroke="#3e4bbf" stroke-width="2"/>
    <path id="Trazado_170454" data-name="Trazado 170454" d="M473.377,0H0" transform="translate(-2013.36 -9252.899)" fill="none" stroke="#3e4bbf" stroke-width="2"/>
    <path id="Rectángulo_40621" data-name="Rectángulo 40621" d="M373.835,107.58h132.3a4.284,4.284,0,0,1,4.5,4.026v40.117a4.28,4.28,0,0,1-4.5,4.026h-132.3a4.284,4.284,0,0,1-4.5-4.026V111.606a4.28,4.28,0,0,1,4.5-4.026Z" transform="translate(-2216.799 -9560.236)" fill="#d1d5fc" stroke="#3e4bbf" stroke-width="2"/>
    <path id="Trazado_170455" data-name="Trazado 170455" d="M1.939-3.062V0H.908V-7.82H3.792A2.9,2.9,0,0,1,5.8-7.165,2.222,2.222,0,0,1,6.531-5.43,2.192,2.192,0,0,1,5.82-3.677a3.027,3.027,0,0,1-2.038.615Zm0-.843H3.792a1.853,1.853,0,0,0,1.268-.39A1.426,1.426,0,0,0,5.5-5.422a1.474,1.474,0,0,0-.44-1.119,1.736,1.736,0,0,0-1.208-.436H1.939ZM10.5-4.92a2.978,2.978,0,0,0-.489-.038,1.309,1.309,0,0,0-1.327.833V0H7.691V-5.812h.967l.016.671a1.547,1.547,0,0,1,1.386-.779,1.015,1.015,0,0,1,.44.075ZM13.825.107A2.539,2.539,0,0,1,11.9-.669a2.881,2.881,0,0,1-.741-2.076v-.183a3.487,3.487,0,0,1,.33-1.544,2.577,2.577,0,0,1,.924-1.063A2.323,2.323,0,0,1,13.7-5.919a2.177,2.177,0,0,1,1.762.747,3.232,3.232,0,0,1,.628,2.138v.414H12.155a2.066,2.066,0,0,0,.5,1.388A1.579,1.579,0,0,0,13.879-.7a1.731,1.731,0,0,0,.892-.215,2.24,2.24,0,0,0,.639-.569l.607.473A2.44,2.44,0,0,1,13.825.107ZM13.7-5.1a1.325,1.325,0,0,0-1.01.438,2.128,2.128,0,0,0-.5,1.227H15.1v-.075a1.893,1.893,0,0,0-.408-1.174A1.248,1.248,0,0,0,13.7-5.1Zm6.923,3.561a.732.732,0,0,0-.3-.626,2.921,2.921,0,0,0-1.058-.384,5,5,0,0,1-1.2-.387,1.7,1.7,0,0,1-.655-.537,1.285,1.285,0,0,1-.212-.741,1.508,1.508,0,0,1,.6-1.208,2.36,2.36,0,0,1,1.544-.494,2.428,2.428,0,0,1,1.6.51A1.621,1.621,0,0,1,21.565-4.1h-1a.9.9,0,0,0-.346-.7,1.3,1.3,0,0,0-.873-.3,1.358,1.358,0,0,0-.849.236.744.744,0,0,0-.306.618.6.6,0,0,0,.285.542,3.5,3.5,0,0,0,1.029.349,5.359,5.359,0,0,1,1.206.4A1.759,1.759,0,0,1,21.4-2.4a1.367,1.367,0,0,1,.223.792A1.487,1.487,0,0,1,21-.363a2.613,2.613,0,0,1-1.617.47A2.926,2.926,0,0,1,18.144-.14,2.009,2.009,0,0,1,17.3-.83a1.664,1.664,0,0,1-.3-.959h.994a1.029,1.029,0,0,0,.4.792,1.552,1.552,0,0,0,.986.293,1.6,1.6,0,0,0,.905-.228A.7.7,0,0,0,20.625-1.542ZM23.993,0H23V-5.812h.994ZM22.918-7.353a.593.593,0,0,1,.148-.408.555.555,0,0,1,.438-.167.563.563,0,0,1,.44.167.587.587,0,0,1,.15.408.568.568,0,0,1-.15.4.573.573,0,0,1-.44.161.565.565,0,0,1-.438-.161A.573.573,0,0,1,22.918-7.353Zm2.422,4.4a3.4,3.4,0,0,1,.634-2.151,2,2,0,0,1,1.66-.814,2.016,2.016,0,0,1,1.617.7V-8.25h.994V0h-.913l-.048-.623a2.024,2.024,0,0,1-1.66.73A1.985,1.985,0,0,1,25.977-.72a3.443,3.443,0,0,1-.636-2.159Zm.994.113a2.578,2.578,0,0,0,.408,1.547,1.32,1.32,0,0,0,1.128.559,1.45,1.45,0,0,0,1.38-.849V-4.254a1.461,1.461,0,0,0-1.37-.822,1.326,1.326,0,0,0-1.139.564A2.838,2.838,0,0,0,26.334-2.841ZM34.2.107a2.539,2.539,0,0,1-1.923-.776,2.881,2.881,0,0,1-.741-2.076v-.183a3.487,3.487,0,0,1,.33-1.544,2.577,2.577,0,0,1,.924-1.063,2.323,2.323,0,0,1,1.286-.384,2.177,2.177,0,0,1,1.762.747,3.232,3.232,0,0,1,.628,2.138v.414H32.527a2.066,2.066,0,0,0,.5,1.388A1.579,1.579,0,0,0,34.251-.7a1.731,1.731,0,0,0,.892-.215,2.24,2.24,0,0,0,.639-.569l.607.473A2.44,2.44,0,0,1,34.2.107ZM34.074-5.1a1.325,1.325,0,0,0-1.01.438,2.128,2.128,0,0,0-.5,1.227h2.911v-.075a1.893,1.893,0,0,0-.408-1.174A1.248,1.248,0,0,0,34.074-5.1Zm4.479-.709.032.73a2.118,2.118,0,0,1,1.74-.838q1.842,0,1.858,2.079V0h-.994V-3.846a1.338,1.338,0,0,0-.287-.929,1.152,1.152,0,0,0-.878-.3,1.434,1.434,0,0,0-.849.258,1.751,1.751,0,0,0-.569.677V0h-.994V-5.812ZM46.014-.7a1.431,1.431,0,0,0,.929-.322,1.134,1.134,0,0,0,.44-.806h.94a1.8,1.8,0,0,1-.344.951,2.264,2.264,0,0,1-.846.72,2.441,2.441,0,0,1-1.12.269,2.394,2.394,0,0,1-1.888-.792,3.155,3.155,0,0,1-.7-2.167v-.167a3.5,3.5,0,0,1,.312-1.509,2.373,2.373,0,0,1,.894-1.026,2.54,2.54,0,0,1,1.378-.365,2.331,2.331,0,0,1,1.625.585,2.092,2.092,0,0,1,.69,1.52h-.94a1.369,1.369,0,0,0-.427-.927,1.328,1.328,0,0,0-.948-.363,1.391,1.391,0,0,0-1.174.545,2.56,2.56,0,0,0-.416,1.576v.188a2.509,2.509,0,0,0,.414,1.547A1.4,1.4,0,0,0,46.014-.7Zm4.506.7h-.994V-5.812h.994ZM49.446-7.353a.593.593,0,0,1,.148-.408.555.555,0,0,1,.438-.167.563.563,0,0,1,.44.167.587.587,0,0,1,.15.408.568.568,0,0,1-.15.4.573.573,0,0,1-.44.161.565.565,0,0,1-.438-.161A.573.573,0,0,1,49.446-7.353ZM55.7,0a2.087,2.087,0,0,1-.14-.612A2.217,2.217,0,0,1,53.9.107a2.051,2.051,0,0,1-1.41-.486,1.573,1.573,0,0,1-.551-1.233,1.643,1.643,0,0,1,.69-1.41,3.254,3.254,0,0,1,1.942-.5h.967V-3.98a1.116,1.116,0,0,0-.312-.83,1.252,1.252,0,0,0-.918-.309,1.449,1.449,0,0,0-.892.269.791.791,0,0,0-.36.65h-1a1.371,1.371,0,0,1,.309-.841,2.108,2.108,0,0,1,.838-.642,2.819,2.819,0,0,1,1.163-.236,2.3,2.3,0,0,1,1.574.5,1.812,1.812,0,0,1,.591,1.383v2.675a3.27,3.27,0,0,0,.2,1.273V0ZM54.049-.757A1.746,1.746,0,0,0,54.936-1a1.462,1.462,0,0,0,.607-.628V-2.82h-.779q-1.826,0-1.826,1.069a.9.9,0,0,0,.312.73A1.2,1.2,0,0,0,54.049-.757Z" transform="translate(-1807.111 -9425.215)" fill="#14263e"/>
    <path id="Rectángulo_40599" data-name="Rectángulo 40599" d="M251.205,234.17H383.5A4.284,4.284,0,0,1,388,238.2v40.117a4.28,4.28,0,0,1-4.5,4.026h-132.3a4.284,4.284,0,0,1-4.5-4.026V238.2A4.28,4.28,0,0,1,251.205,234.17Z" transform="translate(-2172.92 -9605.532)" fill="#bae887" stroke="#77b43a" stroke-width="2"/>
    <path id="Trazado_170456" data-name="Trazado 170456" d="M6.682-1.026a2.382,2.382,0,0,1-1.109.851A4.48,4.48,0,0,1,3.916.107a3.213,3.213,0,0,1-1.7-.448A2.988,2.988,0,0,1,1.072-1.617,4.406,4.406,0,0,1,.655-3.534v-.682A4.113,4.113,0,0,1,1.48-6.956,2.873,2.873,0,0,1,3.8-7.928,2.967,2.967,0,0,1,5.769-7.3a2.726,2.726,0,0,1,.913,1.775H5.65A1.705,1.705,0,0,0,3.8-7.084a1.826,1.826,0,0,0-1.571.728,3.556,3.556,0,0,0-.54,2.11v.64a3.333,3.333,0,0,0,.6,2.094,1.95,1.95,0,0,0,1.627.777A3.6,3.6,0,0,0,4.936-.864a1.57,1.57,0,0,0,.72-.434V-3.051H3.846v-.843H6.682ZM10.656.107A2.539,2.539,0,0,1,8.733-.669a2.881,2.881,0,0,1-.741-2.076v-.183a3.487,3.487,0,0,1,.33-1.544,2.577,2.577,0,0,1,.924-1.063,2.323,2.323,0,0,1,1.286-.384,2.177,2.177,0,0,1,1.762.747,3.232,3.232,0,0,1,.628,2.138v.414H8.986a2.066,2.066,0,0,0,.5,1.388A1.579,1.579,0,0,0,10.71-.7,1.731,1.731,0,0,0,11.6-.918a2.24,2.24,0,0,0,.639-.569l.607.473A2.44,2.44,0,0,1,10.656.107ZM10.533-5.1a1.325,1.325,0,0,0-1.01.438,2.128,2.128,0,0,0-.5,1.227h2.911v-.075a1.893,1.893,0,0,0-.408-1.174A1.248,1.248,0,0,0,10.533-5.1Zm6.349.183a2.978,2.978,0,0,0-.489-.038,1.309,1.309,0,0,0-1.327.833V0h-.994V-5.812h.967l.016.671a1.547,1.547,0,0,1,1.386-.779,1.015,1.015,0,0,1,.44.075ZM20.206.107a2.539,2.539,0,0,1-1.923-.776,2.881,2.881,0,0,1-.741-2.076v-.183a3.487,3.487,0,0,1,.33-1.544A2.577,2.577,0,0,1,18.8-5.535a2.323,2.323,0,0,1,1.286-.384,2.177,2.177,0,0,1,1.762.747,3.232,3.232,0,0,1,.628,2.138v.414H18.536a2.066,2.066,0,0,0,.5,1.388A1.579,1.579,0,0,0,20.26-.7a1.731,1.731,0,0,0,.892-.215,2.24,2.24,0,0,0,.639-.569l.607.473A2.44,2.44,0,0,1,20.206.107ZM20.083-5.1a1.325,1.325,0,0,0-1.01.438,2.128,2.128,0,0,0-.5,1.227h2.911v-.075a1.893,1.893,0,0,0-.408-1.174A1.248,1.248,0,0,0,20.083-5.1Zm4.479-.709.032.73a2.118,2.118,0,0,1,1.74-.838q1.842,0,1.858,2.079V0H27.2V-3.846a1.338,1.338,0,0,0-.287-.929,1.152,1.152,0,0,0-.878-.3,1.434,1.434,0,0,0-.849.258,1.751,1.751,0,0,0-.569.677V0h-.994V-5.812ZM31.04-7.219v1.407h1.085v.768H31.04v3.609a.807.807,0,0,0,.145.524.61.61,0,0,0,.494.175A2.406,2.406,0,0,0,32.151-.8V0a2.9,2.9,0,0,1-.763.107,1.237,1.237,0,0,1-1-.4,1.731,1.731,0,0,1-.338-1.144v-3.6H28.988v-.768h1.058V-7.219ZM35.7.107a2.539,2.539,0,0,1-1.923-.776,2.881,2.881,0,0,1-.741-2.076v-.183a3.487,3.487,0,0,1,.33-1.544,2.577,2.577,0,0,1,.924-1.063,2.323,2.323,0,0,1,1.286-.384,2.177,2.177,0,0,1,1.762.747,3.232,3.232,0,0,1,.628,2.138v.414H34.026a2.066,2.066,0,0,0,.5,1.388A1.579,1.579,0,0,0,35.75-.7a1.731,1.731,0,0,0,.892-.215,2.24,2.24,0,0,0,.639-.569l.607.473A2.44,2.44,0,0,1,35.7.107ZM35.573-5.1a1.325,1.325,0,0,0-1.01.438,2.128,2.128,0,0,0-.5,1.227h2.911v-.075a1.893,1.893,0,0,0-.408-1.174A1.248,1.248,0,0,0,35.573-5.1Zm6.6,5.1V-5.043H41.25v-.768h.918v-.494a2.019,2.019,0,0,1,.556-1.515A2.156,2.156,0,0,1,44.3-8.363a4.731,4.731,0,0,1,1.52.328l-.167.838a3.443,3.443,0,0,0-1.278-.269,1.251,1.251,0,0,0-.921.287,1.185,1.185,0,0,0-.282.862v.5h1.187v.768H43.167V0ZM46.31,0h-1V-5.812h1Zm2.557-5.812.032.73a2.118,2.118,0,0,1,1.74-.838q1.842,0,1.858,2.079V0H51.5V-3.846a1.338,1.338,0,0,0-.287-.929,1.152,1.152,0,0,0-.878-.3,1.434,1.434,0,0,0-.849.258,1.751,1.751,0,0,0-.569.677V0h-.994V-5.812ZM57.583,0a2.087,2.087,0,0,1-.14-.612,2.217,2.217,0,0,1-1.654.72,2.051,2.051,0,0,1-1.41-.486,1.573,1.573,0,0,1-.551-1.233,1.643,1.643,0,0,1,.69-1.41,3.254,3.254,0,0,1,1.942-.5h.967V-3.98a1.116,1.116,0,0,0-.312-.83,1.252,1.252,0,0,0-.918-.309,1.449,1.449,0,0,0-.892.269.791.791,0,0,0-.36.65h-1a1.371,1.371,0,0,1,.309-.841,2.108,2.108,0,0,1,.838-.642,2.819,2.819,0,0,1,1.163-.236,2.3,2.3,0,0,1,1.574.5,1.812,1.812,0,0,1,.591,1.383v2.675a3.27,3.27,0,0,0,.2,1.273V0ZM55.935-.757A1.746,1.746,0,0,0,56.821-1a1.462,1.462,0,0,0,.607-.628V-2.82h-.779q-1.826,0-1.826,1.069a.9.9,0,0,0,.312.73A1.2,1.2,0,0,0,55.935-.757Zm4.984-5.054.032.73a2.118,2.118,0,0,1,1.74-.838q1.842,0,1.858,2.079V0h-.994V-3.846a1.338,1.338,0,0,0-.287-.929,1.152,1.152,0,0,0-.878-.3,1.434,1.434,0,0,0-.849.258,1.751,1.751,0,0,0-.569.677V0h-.994V-5.812ZM68.379-.7a1.431,1.431,0,0,0,.929-.322,1.134,1.134,0,0,0,.44-.806h.94a1.8,1.8,0,0,1-.344.951,2.264,2.264,0,0,1-.846.72,2.441,2.441,0,0,1-1.12.269,2.394,2.394,0,0,1-1.888-.792,3.155,3.155,0,0,1-.7-2.167v-.167A3.5,3.5,0,0,1,66.1-4.528,2.373,2.373,0,0,1,67-5.554a2.54,2.54,0,0,1,1.378-.365A2.331,2.331,0,0,1,70-5.333a2.092,2.092,0,0,1,.69,1.52h-.94a1.369,1.369,0,0,0-.427-.927,1.328,1.328,0,0,0-.948-.363,1.391,1.391,0,0,0-1.174.545,2.56,2.56,0,0,0-.416,1.576v.188A2.509,2.509,0,0,0,67.2-1.246,1.4,1.4,0,0,0,68.379-.7Zm4.506.7h-.994V-5.812h.994ZM71.812-7.353a.593.593,0,0,1,.148-.408.555.555,0,0,1,.438-.167.563.563,0,0,1,.44.167.587.587,0,0,1,.15.408.568.568,0,0,1-.15.4.573.573,0,0,1-.44.161.565.565,0,0,1-.438-.161A.573.573,0,0,1,71.812-7.353ZM76.887.107a2.539,2.539,0,0,1-1.923-.776,2.881,2.881,0,0,1-.741-2.076v-.183a3.487,3.487,0,0,1,.33-1.544,2.577,2.577,0,0,1,.924-1.063,2.323,2.323,0,0,1,1.286-.384,2.177,2.177,0,0,1,1.762.747,3.232,3.232,0,0,1,.628,2.138v.414H75.217a2.066,2.066,0,0,0,.5,1.388A1.579,1.579,0,0,0,76.941-.7a1.731,1.731,0,0,0,.892-.215,2.24,2.24,0,0,0,.639-.569l.607.473A2.44,2.44,0,0,1,76.887.107ZM76.764-5.1a1.325,1.325,0,0,0-1.01.438,2.128,2.128,0,0,0-.5,1.227H78.16v-.075a1.893,1.893,0,0,0-.408-1.174A1.248,1.248,0,0,0,76.764-5.1Zm6.349.183a2.978,2.978,0,0,0-.489-.038,1.309,1.309,0,0,0-1.327.833V0H80.3V-5.812h.967l.016.671a1.547,1.547,0,0,1,1.386-.779,1.015,1.015,0,0,1,.44.075Zm.542,1.96A3.433,3.433,0,0,1,83.99-4.5a2.5,2.5,0,0,1,.935-1.053,2.544,2.544,0,0,1,1.367-.371,2.451,2.451,0,0,1,1.92.822,3.162,3.162,0,0,1,.733,2.186v.07a3.462,3.462,0,0,1-.325,1.523,2.467,2.467,0,0,1-.929,1.05A2.573,2.573,0,0,1,86.3.107a2.445,2.445,0,0,1-1.915-.822,3.146,3.146,0,0,1-.733-2.175Zm1,.118A2.486,2.486,0,0,0,85.1-1.289,1.435,1.435,0,0,0,86.3-.7a1.427,1.427,0,0,0,1.2-.594,2.719,2.719,0,0,0,.446-1.662,2.482,2.482,0,0,0-.454-1.55A1.443,1.443,0,0,0,86.292-5.1a1.427,1.427,0,0,0-1.187.585A2.7,2.7,0,0,0,84.654-2.841Z" transform="translate(-1902.911 -9343.863)" fill="#14263e"/>
    <path id="Rectángulo_40599-2" data-name="Rectángulo 40599" d="M5.5,234.17H137.785a4.284,4.284,0,0,1,4.5,4.026v40.117a4.28,4.28,0,0,1-4.5,4.026H5.5A4.284,4.284,0,0,1,1,278.314V238.2A4.28,4.28,0,0,1,5.5,234.17Z" transform="translate(-2085 -9605.532)" fill="#bae887" stroke="#77b43a" stroke-width="2"/>
    <path id="Trazado_170457" data-name="Trazado 170457" d="M6.682-1.026a2.382,2.382,0,0,1-1.109.851A4.48,4.48,0,0,1,3.916.107a3.213,3.213,0,0,1-1.7-.448A2.988,2.988,0,0,1,1.072-1.617,4.406,4.406,0,0,1,.655-3.534v-.682A4.113,4.113,0,0,1,1.48-6.956,2.873,2.873,0,0,1,3.8-7.928,2.967,2.967,0,0,1,5.769-7.3a2.726,2.726,0,0,1,.913,1.775H5.65A1.705,1.705,0,0,0,3.8-7.084a1.826,1.826,0,0,0-1.571.728,3.556,3.556,0,0,0-.54,2.11v.64a3.333,3.333,0,0,0,.6,2.094,1.95,1.95,0,0,0,1.627.777A3.6,3.6,0,0,0,4.936-.864a1.57,1.57,0,0,0,.72-.434V-3.051H3.846v-.843H6.682ZM10.656.107A2.539,2.539,0,0,1,8.733-.669a2.881,2.881,0,0,1-.741-2.076v-.183a3.487,3.487,0,0,1,.33-1.544,2.577,2.577,0,0,1,.924-1.063,2.323,2.323,0,0,1,1.286-.384,2.177,2.177,0,0,1,1.762.747,3.232,3.232,0,0,1,.628,2.138v.414H8.986a2.066,2.066,0,0,0,.5,1.388A1.579,1.579,0,0,0,10.71-.7,1.731,1.731,0,0,0,11.6-.918a2.24,2.24,0,0,0,.639-.569l.607.473A2.44,2.44,0,0,1,10.656.107ZM10.533-5.1a1.325,1.325,0,0,0-1.01.438,2.128,2.128,0,0,0-.5,1.227h2.911v-.075a1.893,1.893,0,0,0-.408-1.174A1.248,1.248,0,0,0,10.533-5.1Zm6.349.183a2.978,2.978,0,0,0-.489-.038,1.309,1.309,0,0,0-1.327.833V0h-.994V-5.812h.967l.016.671a1.547,1.547,0,0,1,1.386-.779,1.015,1.015,0,0,1,.44.075ZM20.206.107a2.539,2.539,0,0,1-1.923-.776,2.881,2.881,0,0,1-.741-2.076v-.183a3.487,3.487,0,0,1,.33-1.544A2.577,2.577,0,0,1,18.8-5.535a2.323,2.323,0,0,1,1.286-.384,2.177,2.177,0,0,1,1.762.747,3.232,3.232,0,0,1,.628,2.138v.414H18.536a2.066,2.066,0,0,0,.5,1.388A1.579,1.579,0,0,0,20.26-.7a1.731,1.731,0,0,0,.892-.215,2.24,2.24,0,0,0,.639-.569l.607.473A2.44,2.44,0,0,1,20.206.107ZM20.083-5.1a1.325,1.325,0,0,0-1.01.438,2.128,2.128,0,0,0-.5,1.227h2.911v-.075a1.893,1.893,0,0,0-.408-1.174A1.248,1.248,0,0,0,20.083-5.1Zm4.479-.709.032.73a2.118,2.118,0,0,1,1.74-.838q1.842,0,1.858,2.079V0H27.2V-3.846a1.338,1.338,0,0,0-.287-.929,1.152,1.152,0,0,0-.878-.3,1.434,1.434,0,0,0-.849.258,1.751,1.751,0,0,0-.569.677V0h-.994V-5.812ZM31.04-7.219v1.407h1.085v.768H31.04v3.609a.807.807,0,0,0,.145.524.61.61,0,0,0,.494.175A2.406,2.406,0,0,0,32.151-.8V0a2.9,2.9,0,0,1-.763.107,1.237,1.237,0,0,1-1-.4,1.731,1.731,0,0,1-.338-1.144v-3.6H28.988v-.768h1.058V-7.219ZM35.7.107a2.539,2.539,0,0,1-1.923-.776,2.881,2.881,0,0,1-.741-2.076v-.183a3.487,3.487,0,0,1,.33-1.544,2.577,2.577,0,0,1,.924-1.063,2.323,2.323,0,0,1,1.286-.384,2.177,2.177,0,0,1,1.762.747,3.232,3.232,0,0,1,.628,2.138v.414H34.026a2.066,2.066,0,0,0,.5,1.388A1.579,1.579,0,0,0,35.75-.7a1.731,1.731,0,0,0,.892-.215,2.24,2.24,0,0,0,.639-.569l.607.473A2.44,2.44,0,0,1,35.7.107ZM35.573-5.1a1.325,1.325,0,0,0-1.01.438,2.128,2.128,0,0,0-.5,1.227h2.911v-.075a1.893,1.893,0,0,0-.408-1.174A1.248,1.248,0,0,0,35.573-5.1ZM44.167-.7a1.431,1.431,0,0,0,.929-.322,1.134,1.134,0,0,0,.44-.806h.94a1.8,1.8,0,0,1-.344.951,2.264,2.264,0,0,1-.846.72,2.441,2.441,0,0,1-1.12.269,2.394,2.394,0,0,1-1.888-.792,3.155,3.155,0,0,1-.7-2.167v-.167a3.5,3.5,0,0,1,.312-1.509,2.373,2.373,0,0,1,.894-1.026,2.54,2.54,0,0,1,1.378-.365,2.331,2.331,0,0,1,1.625.585,2.092,2.092,0,0,1,.69,1.52h-.94a1.369,1.369,0,0,0-.427-.927,1.328,1.328,0,0,0-.948-.363,1.391,1.391,0,0,0-1.174.545,2.56,2.56,0,0,0-.416,1.576v.188a2.509,2.509,0,0,0,.414,1.547A1.4,1.4,0,0,0,44.167-.7ZM47.33-2.959A3.433,3.433,0,0,1,47.666-4.5,2.5,2.5,0,0,1,48.6-5.548a2.544,2.544,0,0,1,1.367-.371,2.451,2.451,0,0,1,1.92.822,3.162,3.162,0,0,1,.733,2.186v.07A3.463,3.463,0,0,1,52.3-1.319a2.467,2.467,0,0,1-.929,1.05,2.573,2.573,0,0,1-1.388.376,2.445,2.445,0,0,1-1.915-.822A3.146,3.146,0,0,1,47.33-2.89Zm1,.118a2.486,2.486,0,0,0,.448,1.552,1.435,1.435,0,0,0,1.2.585,1.427,1.427,0,0,0,1.2-.594,2.719,2.719,0,0,0,.446-1.662,2.482,2.482,0,0,0-.454-1.55A1.443,1.443,0,0,0,49.967-5.1a1.427,1.427,0,0,0-1.187.585A2.7,2.7,0,0,0,48.329-2.841ZM54.8-5.812l.027.645a2.146,2.146,0,0,1,1.724-.752,1.662,1.662,0,0,1,1.66.935,2.2,2.2,0,0,1,.755-.677,2.229,2.229,0,0,1,1.1-.258q1.912,0,1.944,2.025V0h-.994V-3.835a1.334,1.334,0,0,0-.285-.932,1.254,1.254,0,0,0-.956-.309,1.318,1.318,0,0,0-.918.33,1.34,1.34,0,0,0-.424.889V0h-1V-3.808a1.109,1.109,0,0,0-1.241-1.268,1.329,1.329,0,0,0-1.337.833V0h-.994V-5.812ZM65.919.107A2.539,2.539,0,0,1,64-.669a2.881,2.881,0,0,1-.741-2.076v-.183a3.487,3.487,0,0,1,.33-1.544,2.577,2.577,0,0,1,.924-1.063A2.323,2.323,0,0,1,65.8-5.919a2.177,2.177,0,0,1,1.762.747,3.232,3.232,0,0,1,.628,2.138v.414H64.249a2.066,2.066,0,0,0,.5,1.388A1.579,1.579,0,0,0,65.973-.7a1.731,1.731,0,0,0,.892-.215,2.24,2.24,0,0,0,.639-.569l.607.473A2.44,2.44,0,0,1,65.919.107ZM65.8-5.1a1.325,1.325,0,0,0-1.01.438,2.128,2.128,0,0,0-.5,1.227h2.911v-.075a1.893,1.893,0,0,0-.408-1.174A1.248,1.248,0,0,0,65.8-5.1Zm6.349.183a2.978,2.978,0,0,0-.489-.038,1.309,1.309,0,0,0-1.327.833V0h-.994V-5.812H70.3l.016.671A1.547,1.547,0,0,1,71.7-5.919a1.015,1.015,0,0,1,.44.075ZM75.287-.7a1.431,1.431,0,0,0,.929-.322,1.134,1.134,0,0,0,.44-.806h.94a1.8,1.8,0,0,1-.344.951,2.264,2.264,0,0,1-.846.72,2.441,2.441,0,0,1-1.12.269A2.394,2.394,0,0,1,73.4-.685a3.155,3.155,0,0,1-.7-2.167v-.167a3.5,3.5,0,0,1,.312-1.509A2.373,2.373,0,0,1,73.9-5.554a2.54,2.54,0,0,1,1.378-.365,2.331,2.331,0,0,1,1.625.585,2.092,2.092,0,0,1,.69,1.52h-.94a1.369,1.369,0,0,0-.427-.927,1.328,1.328,0,0,0-.948-.363,1.391,1.391,0,0,0-1.174.545,2.56,2.56,0,0,0-.416,1.576v.188A2.509,2.509,0,0,0,74.1-1.246,1.4,1.4,0,0,0,75.287-.7Zm4.506.7H78.8V-5.812h.994ZM78.719-7.353a.593.593,0,0,1,.148-.408.555.555,0,0,1,.438-.167.563.563,0,0,1,.44.167.587.587,0,0,1,.15.408.568.568,0,0,1-.15.4.573.573,0,0,1-.44.161.565.565,0,0,1-.438-.161A.573.573,0,0,1,78.719-7.353ZM84.971,0a2.087,2.087,0,0,1-.14-.612,2.217,2.217,0,0,1-1.654.72,2.051,2.051,0,0,1-1.41-.486,1.573,1.573,0,0,1-.551-1.233,1.643,1.643,0,0,1,.69-1.41,3.254,3.254,0,0,1,1.942-.5h.967V-3.98a1.116,1.116,0,0,0-.312-.83,1.252,1.252,0,0,0-.918-.309,1.449,1.449,0,0,0-.892.269.791.791,0,0,0-.36.65h-1a1.371,1.371,0,0,1,.309-.841,2.108,2.108,0,0,1,.838-.642,2.819,2.819,0,0,1,1.163-.236,2.3,2.3,0,0,1,1.574.5,1.812,1.812,0,0,1,.591,1.383v2.675a3.27,3.27,0,0,0,.2,1.273V0ZM83.322-.757A1.746,1.746,0,0,0,84.208-1a1.462,1.462,0,0,0,.607-.628V-2.82h-.779q-1.826,0-1.826,1.069a.9.9,0,0,0,.312.73A1.2,1.2,0,0,0,83.322-.757ZM88.446,0h-.994V-8.25h.994Z" transform="translate(-2060.227 -9343.921)" fill="#14263e"/>
    <path id="Rectángulo_40599-3" data-name="Rectángulo 40599" d="M496.915,234.17h132.3a4.284,4.284,0,0,1,4.5,4.026v40.117a4.28,4.28,0,0,1-4.5,4.026h-132.3a4.284,4.284,0,0,1-4.5-4.026V238.2a4.28,4.28,0,0,1,4.5-4.026Z" transform="translate(-2260.84 -9605.532)" fill="#bae887" stroke="#77b43a" stroke-width="2"/>
    <path id="Trazado_170458" data-name="Trazado 170458" d="M6.682-1.026a2.382,2.382,0,0,1-1.109.851A4.48,4.48,0,0,1,3.916.107a3.213,3.213,0,0,1-1.7-.448A2.988,2.988,0,0,1,1.072-1.617,4.406,4.406,0,0,1,.655-3.534v-.682A4.113,4.113,0,0,1,1.48-6.956,2.873,2.873,0,0,1,3.8-7.928,2.967,2.967,0,0,1,5.769-7.3a2.726,2.726,0,0,1,.913,1.775H5.65A1.705,1.705,0,0,0,3.8-7.084a1.826,1.826,0,0,0-1.571.728,3.556,3.556,0,0,0-.54,2.11v.64a3.333,3.333,0,0,0,.6,2.094,1.95,1.95,0,0,0,1.627.777A3.6,3.6,0,0,0,4.936-.864a1.57,1.57,0,0,0,.72-.434V-3.051H3.846v-.843H6.682ZM10.656.107A2.539,2.539,0,0,1,8.733-.669a2.881,2.881,0,0,1-.741-2.076v-.183a3.487,3.487,0,0,1,.33-1.544,2.577,2.577,0,0,1,.924-1.063,2.323,2.323,0,0,1,1.286-.384,2.177,2.177,0,0,1,1.762.747,3.232,3.232,0,0,1,.628,2.138v.414H8.986a2.066,2.066,0,0,0,.5,1.388A1.579,1.579,0,0,0,10.71-.7,1.731,1.731,0,0,0,11.6-.918a2.24,2.24,0,0,0,.639-.569l.607.473A2.44,2.44,0,0,1,10.656.107ZM10.533-5.1a1.325,1.325,0,0,0-1.01.438,2.128,2.128,0,0,0-.5,1.227h2.911v-.075a1.893,1.893,0,0,0-.408-1.174A1.248,1.248,0,0,0,10.533-5.1Zm6.349.183a2.978,2.978,0,0,0-.489-.038,1.309,1.309,0,0,0-1.327.833V0h-.994V-5.812h.967l.016.671a1.547,1.547,0,0,1,1.386-.779,1.015,1.015,0,0,1,.44.075ZM20.206.107a2.539,2.539,0,0,1-1.923-.776,2.881,2.881,0,0,1-.741-2.076v-.183a3.487,3.487,0,0,1,.33-1.544A2.577,2.577,0,0,1,18.8-5.535a2.323,2.323,0,0,1,1.286-.384,2.177,2.177,0,0,1,1.762.747,3.232,3.232,0,0,1,.628,2.138v.414H18.536a2.066,2.066,0,0,0,.5,1.388A1.579,1.579,0,0,0,20.26-.7a1.731,1.731,0,0,0,.892-.215,2.24,2.24,0,0,0,.639-.569l.607.473A2.44,2.44,0,0,1,20.206.107ZM20.083-5.1a1.325,1.325,0,0,0-1.01.438,2.128,2.128,0,0,0-.5,1.227h2.911v-.075a1.893,1.893,0,0,0-.408-1.174A1.248,1.248,0,0,0,20.083-5.1Zm4.479-.709.032.73a2.118,2.118,0,0,1,1.74-.838q1.842,0,1.858,2.079V0H27.2V-3.846a1.338,1.338,0,0,0-.287-.929,1.152,1.152,0,0,0-.878-.3,1.434,1.434,0,0,0-.849.258,1.751,1.751,0,0,0-.569.677V0h-.994V-5.812ZM31.04-7.219v1.407h1.085v.768H31.04v3.609a.807.807,0,0,0,.145.524.61.61,0,0,0,.494.175A2.406,2.406,0,0,0,32.151-.8V0a2.9,2.9,0,0,1-.763.107,1.237,1.237,0,0,1-1-.4,1.731,1.731,0,0,1-.338-1.144v-3.6H28.988v-.768h1.058V-7.219ZM35.7.107a2.539,2.539,0,0,1-1.923-.776,2.881,2.881,0,0,1-.741-2.076v-.183a3.487,3.487,0,0,1,.33-1.544,2.577,2.577,0,0,1,.924-1.063,2.323,2.323,0,0,1,1.286-.384,2.177,2.177,0,0,1,1.762.747,3.232,3.232,0,0,1,.628,2.138v.414H34.026a2.066,2.066,0,0,0,.5,1.388A1.579,1.579,0,0,0,35.75-.7a1.731,1.731,0,0,0,.892-.215,2.24,2.24,0,0,0,.639-.569l.607.473A2.44,2.44,0,0,1,35.7.107ZM35.573-5.1a1.325,1.325,0,0,0-1.01.438,2.128,2.128,0,0,0-.5,1.227h2.911v-.075a1.893,1.893,0,0,0-.408-1.174A1.248,1.248,0,0,0,35.573-5.1Zm6.021,2.148a3.4,3.4,0,0,1,.634-2.151,2,2,0,0,1,1.66-.814,2.016,2.016,0,0,1,1.617.7V-8.25H46.5V0h-.913l-.048-.623a2.024,2.024,0,0,1-1.66.73A1.985,1.985,0,0,1,42.23-.72a3.443,3.443,0,0,1-.636-2.159Zm.994.113A2.578,2.578,0,0,0,43-1.294a1.32,1.32,0,0,0,1.128.559,1.45,1.45,0,0,0,1.38-.849V-4.254a1.461,1.461,0,0,0-1.37-.822A1.326,1.326,0,0,0,43-4.512,2.838,2.838,0,0,0,42.587-2.841ZM50.451.107a2.539,2.539,0,0,1-1.923-.776,2.881,2.881,0,0,1-.741-2.076v-.183a3.487,3.487,0,0,1,.33-1.544,2.577,2.577,0,0,1,.924-1.063,2.323,2.323,0,0,1,1.286-.384,2.177,2.177,0,0,1,1.762.747,3.232,3.232,0,0,1,.628,2.138v.414H48.78a2.066,2.066,0,0,0,.5,1.388A1.579,1.579,0,0,0,50.5-.7,1.731,1.731,0,0,0,51.4-.918a2.24,2.24,0,0,0,.639-.569l.607.473A2.44,2.44,0,0,1,50.451.107ZM50.327-5.1a1.325,1.325,0,0,0-1.01.438,2.128,2.128,0,0,0-.5,1.227h2.911v-.075a1.893,1.893,0,0,0-.408-1.174A1.248,1.248,0,0,0,50.327-5.1Z" transform="translate(-1725.657 -9351.974)" fill="#14263e"/>
    <path id="Trazado_170459" data-name="Trazado 170459" d="M.489-2.959A3.433,3.433,0,0,1,.824-4.5a2.5,2.5,0,0,1,.935-1.053,2.544,2.544,0,0,1,1.367-.371,2.451,2.451,0,0,1,1.92.822,3.162,3.162,0,0,1,.733,2.186v.07a3.462,3.462,0,0,1-.325,1.523,2.467,2.467,0,0,1-.929,1.05A2.573,2.573,0,0,1,3.137.107,2.445,2.445,0,0,1,1.222-.714,3.146,3.146,0,0,1,.489-2.89Zm1,.118a2.486,2.486,0,0,0,.448,1.552,1.435,1.435,0,0,0,1.2.585A1.427,1.427,0,0,0,4.34-1.3a2.719,2.719,0,0,0,.446-1.662,2.482,2.482,0,0,0-.454-1.55A1.443,1.443,0,0,0,3.126-5.1a1.427,1.427,0,0,0-1.187.585A2.7,2.7,0,0,0,1.488-2.841Zm10.447,0A3.48,3.48,0,0,1,11.328-.7,1.945,1.945,0,0,1,9.684.107,2.131,2.131,0,0,1,8.019-.564v2.8H7.025V-5.812h.908l.048.645a2.047,2.047,0,0,1,1.687-.752,1.982,1.982,0,0,1,1.657.79,3.518,3.518,0,0,1,.61,2.2Zm-.994-.113a2.568,2.568,0,0,0-.419-1.552,1.35,1.35,0,0,0-1.149-.569,1.461,1.461,0,0,0-1.354.8V-1.5A1.464,1.464,0,0,0,9.383-.7a1.343,1.343,0,0,0,1.136-.567A2.8,2.8,0,0,0,10.941-2.954ZM15.608.107a2.539,2.539,0,0,1-1.923-.776,2.881,2.881,0,0,1-.741-2.076v-.183a3.487,3.487,0,0,1,.33-1.544A2.577,2.577,0,0,1,14.2-5.535a2.323,2.323,0,0,1,1.286-.384,2.177,2.177,0,0,1,1.762.747,3.232,3.232,0,0,1,.628,2.138v.414H13.938a2.066,2.066,0,0,0,.5,1.388A1.579,1.579,0,0,0,15.662-.7a1.731,1.731,0,0,0,.892-.215,2.24,2.24,0,0,0,.639-.569l.607.473A2.44,2.44,0,0,1,15.608.107ZM15.485-5.1a1.325,1.325,0,0,0-1.01.438,2.128,2.128,0,0,0-.5,1.227h2.911v-.075a1.893,1.893,0,0,0-.408-1.174A1.248,1.248,0,0,0,15.485-5.1Zm6.349.183a2.978,2.978,0,0,0-.489-.038,1.309,1.309,0,0,0-1.327.833V0h-.994V-5.812h.967l.016.671a1.547,1.547,0,0,1,1.386-.779,1.015,1.015,0,0,1,.44.075ZM26.12,0a2.087,2.087,0,0,1-.14-.612,2.217,2.217,0,0,1-1.654.72,2.051,2.051,0,0,1-1.41-.486,1.573,1.573,0,0,1-.551-1.233,1.643,1.643,0,0,1,.69-1.41A3.254,3.254,0,0,1,25-3.523h.967V-3.98a1.116,1.116,0,0,0-.312-.83,1.252,1.252,0,0,0-.918-.309,1.449,1.449,0,0,0-.892.269.791.791,0,0,0-.36.65h-1a1.371,1.371,0,0,1,.309-.841,2.108,2.108,0,0,1,.838-.642,2.819,2.819,0,0,1,1.163-.236,2.3,2.3,0,0,1,1.574.5,1.812,1.812,0,0,1,.591,1.383v2.675a3.27,3.27,0,0,0,.2,1.273V0ZM24.471-.757A1.746,1.746,0,0,0,25.357-1a1.462,1.462,0,0,0,.607-.628V-2.82h-.779q-1.826,0-1.826,1.069a.9.9,0,0,0,.312.73A1.2,1.2,0,0,0,24.471-.757ZM30.846-.7a1.431,1.431,0,0,0,.929-.322,1.134,1.134,0,0,0,.44-.806h.94a1.8,1.8,0,0,1-.344.951,2.264,2.264,0,0,1-.846.72,2.441,2.441,0,0,1-1.12.269,2.394,2.394,0,0,1-1.888-.792,3.155,3.155,0,0,1-.7-2.167v-.167a3.5,3.5,0,0,1,.312-1.509,2.373,2.373,0,0,1,.894-1.026,2.54,2.54,0,0,1,1.378-.365,2.331,2.331,0,0,1,1.625.585,2.092,2.092,0,0,1,.69,1.52h-.94a1.369,1.369,0,0,0-.427-.927,1.328,1.328,0,0,0-.948-.363,1.391,1.391,0,0,0-1.174.545,2.56,2.56,0,0,0-.416,1.576v.188a2.509,2.509,0,0,0,.414,1.547A1.4,1.4,0,0,0,30.846-.7Zm4.506.7h-.994V-5.812h.994ZM34.278-7.353a.593.593,0,0,1,.148-.408.555.555,0,0,1,.438-.167.563.563,0,0,1,.44.167.587.587,0,0,1,.15.408.568.568,0,0,1-.15.4.573.573,0,0,1-.44.161.565.565,0,0,1-.438-.161A.573.573,0,0,1,34.278-7.353Zm2.4,4.394A3.433,3.433,0,0,1,37.015-4.5a2.5,2.5,0,0,1,.935-1.053,2.544,2.544,0,0,1,1.367-.371,2.451,2.451,0,0,1,1.92.822,3.162,3.162,0,0,1,.733,2.186v.07a3.463,3.463,0,0,1-.325,1.523,2.467,2.467,0,0,1-.929,1.05,2.573,2.573,0,0,1-1.388.376,2.445,2.445,0,0,1-1.915-.822,3.146,3.146,0,0,1-.733-2.175Zm1,.118a2.486,2.486,0,0,0,.448,1.552,1.435,1.435,0,0,0,1.2.585,1.427,1.427,0,0,0,1.2-.594,2.719,2.719,0,0,0,.446-1.662,2.482,2.482,0,0,0-.454-1.55A1.443,1.443,0,0,0,39.316-5.1a1.427,1.427,0,0,0-1.187.585A2.7,2.7,0,0,0,37.678-2.841Zm6.478-2.97.032.73a2.118,2.118,0,0,1,1.74-.838q1.842,0,1.858,2.079V0h-.994V-3.846a1.338,1.338,0,0,0-.287-.929,1.152,1.152,0,0,0-.878-.3,1.434,1.434,0,0,0-.849.258,1.751,1.751,0,0,0-.569.677V0h-.994V-5.812ZM51.7.107a2.539,2.539,0,0,1-1.923-.776,2.881,2.881,0,0,1-.741-2.076v-.183a3.487,3.487,0,0,1,.33-1.544,2.577,2.577,0,0,1,.924-1.063,2.323,2.323,0,0,1,1.286-.384,2.177,2.177,0,0,1,1.762.747,3.232,3.232,0,0,1,.628,2.138v.414H50.026a2.066,2.066,0,0,0,.5,1.388A1.579,1.579,0,0,0,51.75-.7a1.731,1.731,0,0,0,.892-.215,2.24,2.24,0,0,0,.639-.569l.607.473A2.44,2.44,0,0,1,51.7.107ZM51.573-5.1a1.325,1.325,0,0,0-1.01.438,2.128,2.128,0,0,0-.5,1.227H52.97v-.075a1.893,1.893,0,0,0-.408-1.174A1.248,1.248,0,0,0,51.573-5.1ZM58.5-1.542a.731.731,0,0,0-.3-.626,2.921,2.921,0,0,0-1.058-.384,5,5,0,0,1-1.2-.387,1.7,1.7,0,0,1-.655-.537,1.285,1.285,0,0,1-.212-.741,1.508,1.508,0,0,1,.6-1.208,2.36,2.36,0,0,1,1.544-.494,2.428,2.428,0,0,1,1.6.51A1.621,1.621,0,0,1,59.437-4.1h-1a.9.9,0,0,0-.346-.7,1.3,1.3,0,0,0-.873-.3,1.359,1.359,0,0,0-.849.236.744.744,0,0,0-.306.618.6.6,0,0,0,.285.542,3.5,3.5,0,0,0,1.029.349,5.359,5.359,0,0,1,1.206.4,1.759,1.759,0,0,1,.685.556,1.367,1.367,0,0,1,.223.792,1.487,1.487,0,0,1-.623,1.249,2.613,2.613,0,0,1-1.617.47A2.926,2.926,0,0,1,56.015-.14a2.009,2.009,0,0,1-.841-.69,1.663,1.663,0,0,1-.3-.959h.994a1.029,1.029,0,0,0,.4.792A1.552,1.552,0,0,0,57.25-.7a1.6,1.6,0,0,0,.905-.228A.7.7,0,0,0,58.5-1.542Z" transform="translate(-1729.407 -9338.103)" fill="#14263e"/>
    <path id="Rectángulo_40621-2" data-name="Rectángulo 40621" d="M5.5,335.58H137.785c2.479,0,4.5,1.438,4.5,3.217v32.09c0,1.779-2.01,3.217-4.5,3.217H5.5c-2.479,0-4.5-1.438-4.5-3.217V338.8C1,337.018,3.01,335.58,5.5,335.58Z" transform="translate(-2085 -9641.819)" fill="#f9f69d" stroke="#dbe636" stroke-miterlimit="10" stroke-width="1"/>
    <path id="Trazado_170460" data-name="Trazado 170460" d="M5.328-3.615H1.939V-.843H5.876V0H.908V-7.82H5.822v.843H1.939v2.519H5.328Zm1.434.661a3.411,3.411,0,0,1,.628-2.167,2.036,2.036,0,0,1,1.687-.8,2.035,2.035,0,0,1,1.627.693l.043-.585h.913V2.234h-.994V-.537a2.085,2.085,0,0,1-1.6.645A2,2,0,0,1,7.388-.712a3.487,3.487,0,0,1-.626-2.173Zm.994.113a2.586,2.586,0,0,0,.422,1.568A1.341,1.341,0,0,0,9.313-.7a1.488,1.488,0,0,0,1.354-.784V-4.334A1.493,1.493,0,0,0,9.324-5.1a1.351,1.351,0,0,0-1.144.572A2.815,2.815,0,0,0,7.756-2.841ZM16.844-.575a2.111,2.111,0,0,1-1.7.682,1.807,1.807,0,0,1-1.415-.54,2.336,2.336,0,0,1-.491-1.6V-5.812h.994v3.754q0,1.321,1.074,1.321a1.487,1.487,0,0,0,1.515-.849V-5.812h.994V0h-.945ZM20.4,0h-.994V-5.812H20.4ZM19.325-7.353a.593.593,0,0,1,.148-.408.555.555,0,0,1,.438-.167.563.563,0,0,1,.44.167.587.587,0,0,1,.15.408.568.568,0,0,1-.15.4.573.573,0,0,1-.44.161.565.565,0,0,1-.438-.161A.573.573,0,0,1,19.325-7.353ZM26.9-2.841A3.48,3.48,0,0,1,26.292-.7a1.945,1.945,0,0,1-1.644.811,2.131,2.131,0,0,1-1.665-.671v2.8h-.994V-5.812H22.9l.048.645a2.047,2.047,0,0,1,1.687-.752,1.982,1.982,0,0,1,1.657.79,3.518,3.518,0,0,1,.61,2.2ZM25.9-2.954a2.568,2.568,0,0,0-.419-1.552,1.35,1.35,0,0,0-1.149-.569,1.461,1.461,0,0,0-1.354.8V-1.5A1.464,1.464,0,0,0,24.347-.7a1.343,1.343,0,0,0,1.136-.567A2.8,2.8,0,0,0,25.9-2.954ZM27.9-2.959A3.433,3.433,0,0,1,28.233-4.5a2.5,2.5,0,0,1,.935-1.053,2.544,2.544,0,0,1,1.367-.371,2.451,2.451,0,0,1,1.92.822,3.162,3.162,0,0,1,.733,2.186v.07a3.463,3.463,0,0,1-.325,1.523,2.467,2.467,0,0,1-.929,1.05,2.573,2.573,0,0,1-1.388.376,2.445,2.445,0,0,1-1.915-.822A3.146,3.146,0,0,1,27.9-2.89Zm1,.118a2.486,2.486,0,0,0,.448,1.552,1.435,1.435,0,0,0,1.2.585,1.427,1.427,0,0,0,1.2-.594,2.719,2.719,0,0,0,.446-1.662,2.482,2.482,0,0,0-.454-1.55A1.443,1.443,0,0,0,30.535-5.1a1.427,1.427,0,0,0-1.187.585A2.7,2.7,0,0,0,28.9-2.841Zm8.019-.113a3.4,3.4,0,0,1,.634-2.151,2,2,0,0,1,1.66-.814,2.016,2.016,0,0,1,1.617.7V-8.25h.994V0h-.913l-.048-.623a2.024,2.024,0,0,1-1.66.73A1.985,1.985,0,0,1,37.552-.72a3.443,3.443,0,0,1-.636-2.159Zm.994.113a2.578,2.578,0,0,0,.408,1.547,1.32,1.32,0,0,0,1.128.559,1.45,1.45,0,0,0,1.38-.849V-4.254a1.461,1.461,0,0,0-1.37-.822,1.326,1.326,0,0,0-1.139.564A2.838,2.838,0,0,0,37.909-2.841ZM45.772.107A2.539,2.539,0,0,1,43.85-.669a2.881,2.881,0,0,1-.741-2.076v-.183a3.487,3.487,0,0,1,.33-1.544,2.577,2.577,0,0,1,.924-1.063,2.323,2.323,0,0,1,1.286-.384,2.177,2.177,0,0,1,1.762.747,3.232,3.232,0,0,1,.628,2.138v.414H44.1a2.066,2.066,0,0,0,.5,1.388A1.579,1.579,0,0,0,45.826-.7a1.731,1.731,0,0,0,.892-.215,2.24,2.24,0,0,0,.639-.569l.607.473A2.44,2.44,0,0,1,45.772.107ZM45.649-5.1a1.325,1.325,0,0,0-1.01.438,2.128,2.128,0,0,0-.5,1.227h2.911v-.075a1.893,1.893,0,0,0-.408-1.174A1.248,1.248,0,0,0,45.649-5.1Zm8.18,3.754,1.439-4.463h1.015L54.2,0h-.757L51.337-5.812h1.015ZM59.651.107a2.539,2.539,0,0,1-1.923-.776,2.881,2.881,0,0,1-.741-2.076v-.183a3.487,3.487,0,0,1,.33-1.544,2.577,2.577,0,0,1,.924-1.063,2.323,2.323,0,0,1,1.286-.384,2.177,2.177,0,0,1,1.762.747,3.232,3.232,0,0,1,.628,2.138v.414H57.981a2.066,2.066,0,0,0,.5,1.388A1.579,1.579,0,0,0,59.705-.7,1.731,1.731,0,0,0,60.6-.918a2.24,2.24,0,0,0,.639-.569l.607.473A2.44,2.44,0,0,1,59.651.107ZM59.528-5.1a1.325,1.325,0,0,0-1.01.438,2.128,2.128,0,0,0-.5,1.227h2.911v-.075a1.893,1.893,0,0,0-.408-1.174A1.248,1.248,0,0,0,59.528-5.1Zm4.479-.709.032.73a2.118,2.118,0,0,1,1.74-.838q1.842,0,1.858,2.079V0h-.994V-3.846a1.338,1.338,0,0,0-.287-.929,1.152,1.152,0,0,0-.878-.3,1.434,1.434,0,0,0-.849.258,1.751,1.751,0,0,0-.569.677V0h-.994V-5.812Zm6.478-1.407v1.407H71.57v.768H70.485v3.609a.807.807,0,0,0,.145.524.61.61,0,0,0,.494.175A2.406,2.406,0,0,0,71.6-.8V0a2.9,2.9,0,0,1-.763.107,1.237,1.237,0,0,1-1-.4,1.731,1.731,0,0,1-.338-1.144v-3.6H68.433v-.768h1.058V-7.219ZM76.318,0a2.087,2.087,0,0,1-.14-.612,2.217,2.217,0,0,1-1.654.72,2.051,2.051,0,0,1-1.41-.486,1.573,1.573,0,0,1-.551-1.233,1.643,1.643,0,0,1,.69-1.41,3.254,3.254,0,0,1,1.942-.5h.967V-3.98a1.116,1.116,0,0,0-.312-.83,1.252,1.252,0,0,0-.918-.309,1.449,1.449,0,0,0-.892.269.791.791,0,0,0-.36.65h-1a1.371,1.371,0,0,1,.309-.841,2.108,2.108,0,0,1,.838-.642,2.819,2.819,0,0,1,1.163-.236,2.3,2.3,0,0,1,1.574.5,1.812,1.812,0,0,1,.591,1.383v2.675a3.27,3.27,0,0,0,.2,1.273V0ZM74.669-.757A1.746,1.746,0,0,0,75.555-1a1.462,1.462,0,0,0,.607-.628V-2.82h-.779q-1.826,0-1.826,1.069a.9.9,0,0,0,.312.73A1.2,1.2,0,0,0,74.669-.757ZM82.1-1.542a.732.732,0,0,0-.3-.626,2.921,2.921,0,0,0-1.058-.384,5,5,0,0,1-1.2-.387,1.7,1.7,0,0,1-.655-.537,1.285,1.285,0,0,1-.212-.741,1.508,1.508,0,0,1,.6-1.208,2.36,2.36,0,0,1,1.544-.494,2.428,2.428,0,0,1,1.6.51A1.621,1.621,0,0,1,83.037-4.1h-1a.9.9,0,0,0-.346-.7,1.3,1.3,0,0,0-.873-.3,1.358,1.358,0,0,0-.849.236.744.744,0,0,0-.306.618.6.6,0,0,0,.285.542,3.5,3.5,0,0,0,1.029.349,5.359,5.359,0,0,1,1.206.4,1.759,1.759,0,0,1,.685.556,1.367,1.367,0,0,1,.223.792,1.487,1.487,0,0,1-.623,1.249,2.613,2.613,0,0,1-1.617.47A2.926,2.926,0,0,1,79.616-.14a2.009,2.009,0,0,1-.841-.69,1.664,1.664,0,0,1-.3-.959h.994a1.029,1.029,0,0,0,.4.792,1.552,1.552,0,0,0,.986.293,1.6,1.6,0,0,0,.905-.228A.7.7,0,0,0,82.1-1.542Z" transform="translate(-2057.497 -9284.731)" fill="#14263e"/>
    <path id="Rectángulo_40621-3" data-name="Rectángulo 40621" d="M251.205,335.58H383.5c2.479,0,4.5,1.438,4.5,3.217v32.09c0,1.779-2.01,3.217-4.5,3.217h-132.3c-2.479,0-4.5-1.438-4.5-3.217V338.8C246.71,337.018,248.72,335.58,251.205,335.58Z" transform="translate(-2172.92 -9641.819)" fill="#f9f69d" stroke="#dbe636" stroke-miterlimit="10" stroke-width="1"/>
    <path id="Trazado_170461" data-name="Trazado 170461" d="M6.66-2.481A2.877,2.877,0,0,1,5.744-.567,3,3,0,0,1,3.7.107,2.756,2.756,0,0,1,1.474-.886,4,4,0,0,1,.639-3.545V-4.3a4.456,4.456,0,0,1,.389-1.917,2.909,2.909,0,0,1,1.1-1.27,3.073,3.073,0,0,1,1.654-.443,2.826,2.826,0,0,1,2,.7A2.912,2.912,0,0,1,6.66-5.307H5.624a2.247,2.247,0,0,0-.583-1.358,1.763,1.763,0,0,0-1.254-.42,1.845,1.845,0,0,0-1.55.731,3.356,3.356,0,0,0-.561,2.08v.758a3.45,3.45,0,0,0,.532,2.027A1.718,1.718,0,0,0,3.7-.736a1.984,1.984,0,0,0,1.319-.389,2.161,2.161,0,0,0,.61-1.356Zm.988-.478A3.433,3.433,0,0,1,7.984-4.5a2.5,2.5,0,0,1,.935-1.053,2.544,2.544,0,0,1,1.367-.371,2.451,2.451,0,0,1,1.92.822,3.162,3.162,0,0,1,.733,2.186v.07a3.462,3.462,0,0,1-.325,1.523,2.467,2.467,0,0,1-.929,1.05A2.573,2.573,0,0,1,10.3.107,2.445,2.445,0,0,1,8.382-.714,3.146,3.146,0,0,1,7.648-2.89Zm1,.118A2.486,2.486,0,0,0,9.1-1.289,1.435,1.435,0,0,0,10.3-.7,1.427,1.427,0,0,0,11.5-1.3a2.719,2.719,0,0,0,.446-1.662,2.482,2.482,0,0,0-.454-1.55A1.443,1.443,0,0,0,10.286-5.1,1.427,1.427,0,0,0,9.1-4.517,2.7,2.7,0,0,0,8.647-2.841Zm6.478-2.97.032.73a2.118,2.118,0,0,1,1.74-.838q1.842,0,1.858,2.079V0h-.994V-3.846a1.338,1.338,0,0,0-.287-.929,1.152,1.152,0,0,0-.878-.3,1.434,1.434,0,0,0-.849.258,1.751,1.751,0,0,0-.569.677V0h-.994V-5.812ZM21.6-7.219v1.407h1.085v.768H21.6v3.609a.807.807,0,0,0,.145.524.61.61,0,0,0,.494.175A2.406,2.406,0,0,0,22.714-.8V0a2.9,2.9,0,0,1-.763.107,1.237,1.237,0,0,1-1-.4,1.731,1.731,0,0,1-.338-1.144v-3.6H19.551v-.768h1.058V-7.219ZM27.436,0a2.087,2.087,0,0,1-.14-.612,2.217,2.217,0,0,1-1.654.72,2.051,2.051,0,0,1-1.41-.486,1.573,1.573,0,0,1-.551-1.233,1.643,1.643,0,0,1,.69-1.41,3.254,3.254,0,0,1,1.942-.5h.967V-3.98a1.116,1.116,0,0,0-.312-.83,1.252,1.252,0,0,0-.918-.309,1.449,1.449,0,0,0-.892.269.791.791,0,0,0-.36.65h-1a1.371,1.371,0,0,1,.309-.841,2.108,2.108,0,0,1,.838-.642,2.819,2.819,0,0,1,1.163-.236,2.3,2.3,0,0,1,1.574.5,1.812,1.812,0,0,1,.591,1.383v2.675a3.27,3.27,0,0,0,.2,1.273V0ZM25.787-.757A1.746,1.746,0,0,0,26.673-1a1.462,1.462,0,0,0,.607-.628V-2.82H26.5q-1.826,0-1.826,1.069a.9.9,0,0,0,.312.73A1.2,1.2,0,0,0,25.787-.757Zm8.964-2.084A3.455,3.455,0,0,1,34.139-.7,1.956,1.956,0,0,1,32.5.107a2.026,2.026,0,0,1-1.7-.779L30.744,0h-.913V-8.25h.994v3.078a2.014,2.014,0,0,1,1.66-.747,1.968,1.968,0,0,1,1.662.8,3.559,3.559,0,0,1,.6,2.191Zm-.994-.113a2.685,2.685,0,0,0-.392-1.568,1.3,1.3,0,0,0-1.128-.553,1.459,1.459,0,0,0-1.413.913v2.514a1.5,1.5,0,0,0,1.423.913,1.291,1.291,0,0,0,1.112-.553A2.855,2.855,0,0,0,33.757-2.954ZM37.082,0h-.994V-5.812h.994ZM36.008-7.353a.593.593,0,0,1,.148-.408.555.555,0,0,1,.438-.167.563.563,0,0,1,.44.167.587.587,0,0,1,.15.408.568.568,0,0,1-.15.4.573.573,0,0,1-.44.161.565.565,0,0,1-.438-.161A.573.573,0,0,1,36.008-7.353ZM39.751,0h-.994V-8.25h.994Zm2.669,0h-.994V-5.812h.994ZM41.347-7.353a.593.593,0,0,1,.148-.408.555.555,0,0,1,.438-.167.563.563,0,0,1,.44.167.587.587,0,0,1,.15.408.568.568,0,0,1-.15.4.573.573,0,0,1-.44.161.565.565,0,0,1-.438-.161A.573.573,0,0,1,41.347-7.353Zm2.422,4.4A3.4,3.4,0,0,1,44.4-5.105a2,2,0,0,1,1.66-.814,2.016,2.016,0,0,1,1.617.7V-8.25h.994V0H47.76l-.048-.623a2.024,2.024,0,0,1-1.66.73A1.985,1.985,0,0,1,44.406-.72a3.443,3.443,0,0,1-.636-2.159Zm.994.113a2.578,2.578,0,0,0,.408,1.547A1.32,1.32,0,0,0,46.3-.736a1.45,1.45,0,0,0,1.38-.849V-4.254a1.461,1.461,0,0,0-1.37-.822,1.326,1.326,0,0,0-1.139.564A2.838,2.838,0,0,0,44.763-2.841ZM53.8,0a2.087,2.087,0,0,1-.14-.612,2.217,2.217,0,0,1-1.654.72A2.051,2.051,0,0,1,50.6-.379a1.573,1.573,0,0,1-.551-1.233,1.643,1.643,0,0,1,.69-1.41,3.254,3.254,0,0,1,1.942-.5h.967V-3.98a1.116,1.116,0,0,0-.312-.83,1.252,1.252,0,0,0-.918-.309,1.449,1.449,0,0,0-.892.269.791.791,0,0,0-.36.65h-1a1.371,1.371,0,0,1,.309-.841,2.108,2.108,0,0,1,.838-.642,2.819,2.819,0,0,1,1.163-.236,2.3,2.3,0,0,1,1.574.5,1.812,1.812,0,0,1,.591,1.383v2.675a3.27,3.27,0,0,0,.2,1.273V0ZM52.153-.757A1.746,1.746,0,0,0,53.04-1a1.462,1.462,0,0,0,.607-.628V-2.82h-.779q-1.826,0-1.826,1.069a.9.9,0,0,0,.312.73A1.2,1.2,0,0,0,52.153-.757Zm3.8-2.2a3.4,3.4,0,0,1,.634-2.151,2,2,0,0,1,1.66-.814,2.016,2.016,0,0,1,1.617.7V-8.25h.994V0h-.913L59.9-.623a2.024,2.024,0,0,1-1.66.73A1.985,1.985,0,0,1,56.593-.72a3.443,3.443,0,0,1-.636-2.159Zm.994.113a2.578,2.578,0,0,0,.408,1.547,1.32,1.32,0,0,0,1.128.559,1.45,1.45,0,0,0,1.38-.849V-4.254a1.461,1.461,0,0,0-1.37-.822,1.326,1.326,0,0,0-1.139.564A2.838,2.838,0,0,0,56.95-2.841ZM67.026-1.456l1.354-4.356h1.063L67.106.9q-.542,1.45-1.724,1.45l-.188-.016-.371-.07V1.456l.269.021a1.322,1.322,0,0,0,.787-.2,1.477,1.477,0,0,0,.465-.747l.22-.591L64.491-5.812h1.085ZM73.385,0V-5.043h-.918v-.768h.918v-.494a2.019,2.019,0,0,1,.556-1.515,2.156,2.156,0,0,1,1.571-.542,4.731,4.731,0,0,1,1.52.328l-.167.838a3.443,3.443,0,0,0-1.278-.269,1.251,1.251,0,0,0-.921.287,1.185,1.185,0,0,0-.282.862v.5h1.187v.768H74.384V0Zm4.141,0h-1V-5.812h1Zm2.557-5.812.032.73a2.118,2.118,0,0,1,1.74-.838q1.842,0,1.858,2.079V0H82.72V-3.846a1.338,1.338,0,0,0-.287-.929,1.152,1.152,0,0,0-.878-.3,1.434,1.434,0,0,0-.849.258,1.751,1.751,0,0,0-.569.677V0h-.994V-5.812ZM88.8,0a2.087,2.087,0,0,1-.14-.612,2.217,2.217,0,0,1-1.654.72A2.051,2.051,0,0,1,85.6-.379a1.573,1.573,0,0,1-.551-1.233,1.643,1.643,0,0,1,.69-1.41,3.254,3.254,0,0,1,1.942-.5h.967V-3.98a1.116,1.116,0,0,0-.312-.83,1.252,1.252,0,0,0-.918-.309,1.449,1.449,0,0,0-.892.269.791.791,0,0,0-.36.65h-1a1.371,1.371,0,0,1,.309-.841,2.108,2.108,0,0,1,.838-.642,2.819,2.819,0,0,1,1.163-.236,2.3,2.3,0,0,1,1.574.5,1.812,1.812,0,0,1,.591,1.383v2.675a3.27,3.27,0,0,0,.2,1.273V0ZM87.151-.757A1.746,1.746,0,0,0,88.038-1a1.462,1.462,0,0,0,.607-.628V-2.82h-.779q-1.826,0-1.826,1.069a.9.9,0,0,0,.312.73A1.2,1.2,0,0,0,87.151-.757Zm4.984-5.054.032.73a2.118,2.118,0,0,1,1.74-.838q1.842,0,1.858,2.079V0h-.994V-3.846a1.338,1.338,0,0,0-.287-.929,1.152,1.152,0,0,0-.878-.3,1.434,1.434,0,0,0-.849.258,1.751,1.751,0,0,0-.569.677V0H91.2V-5.812Zm6.064,5h3.4V0H96.986V-.73l3.207-4.259H97.034v-.822h4.4v.7ZM106.3,0a2.087,2.087,0,0,1-.14-.612,2.217,2.217,0,0,1-1.654.72,2.051,2.051,0,0,1-1.41-.486,1.573,1.573,0,0,1-.551-1.233,1.643,1.643,0,0,1,.69-1.41,3.254,3.254,0,0,1,1.942-.5h.967V-3.98a1.116,1.116,0,0,0-.312-.83,1.252,1.252,0,0,0-.918-.309,1.449,1.449,0,0,0-.892.269.791.791,0,0,0-.36.65h-1a1.371,1.371,0,0,1,.309-.841,2.108,2.108,0,0,1,.838-.642,2.819,2.819,0,0,1,1.163-.236,2.3,2.3,0,0,1,1.574.5,1.812,1.812,0,0,1,.591,1.383v2.675a3.27,3.27,0,0,0,.2,1.273V0Zm-1.649-.757A1.746,1.746,0,0,0,105.542-1a1.462,1.462,0,0,0,.607-.628V-2.82h-.779q-1.826,0-1.826,1.069a.9.9,0,0,0,.312.73A1.2,1.2,0,0,0,104.656-.757Zm7.428-.784a.732.732,0,0,0-.3-.626,2.921,2.921,0,0,0-1.058-.384,5,5,0,0,1-1.2-.387,1.7,1.7,0,0,1-.655-.537,1.285,1.285,0,0,1-.212-.741,1.508,1.508,0,0,1,.6-1.208,2.36,2.36,0,0,1,1.544-.494,2.428,2.428,0,0,1,1.6.51,1.621,1.621,0,0,1,.615,1.305h-1a.9.9,0,0,0-.346-.7,1.3,1.3,0,0,0-.873-.3,1.358,1.358,0,0,0-.849.236.744.744,0,0,0-.306.618.6.6,0,0,0,.285.542,3.5,3.5,0,0,0,1.029.349,5.359,5.359,0,0,1,1.206.4,1.759,1.759,0,0,1,.685.556,1.367,1.367,0,0,1,.223.792,1.487,1.487,0,0,1-.623,1.249,2.613,2.613,0,0,1-1.617.47A2.926,2.926,0,0,1,109.6-.14a2.009,2.009,0,0,1-.841-.69,1.664,1.664,0,0,1-.3-.959h.994a1.029,1.029,0,0,0,.4.792,1.552,1.552,0,0,0,.986.293,1.6,1.6,0,0,0,.905-.228A.7.7,0,0,0,112.084-1.542Z" transform="translate(-1915.53 -9284.731)" fill="#14263e"/>
    <path id="Rectángulo_40621-4" data-name="Rectángulo 40621" d="M496.915,335.58h132.3c2.479,0,4.5,1.438,4.5,3.217v32.09c0,1.779-2.01,3.217-4.5,3.217h-132.3c-2.479,0-4.5-1.438-4.5-3.217V338.8c0-1.779,2.01-3.217,4.5-3.217Z" transform="translate(-2260.84 -9641.819)" fill="#f9f69d" stroke="#dbe636" stroke-miterlimit="10" stroke-width="1"/>
    <path id="Trazado_170462" data-name="Trazado 170462" d="M6.923-3.658a4.838,4.838,0,0,1-.387,2.006,2.929,2.929,0,0,1-1.1,1.308A3.015,3.015,0,0,1,3.787.107,2.989,2.989,0,0,1,2.148-.346,3,3,0,0,1,1.039-1.641,4.642,4.642,0,0,1,.634-3.588v-.564a4.78,4.78,0,0,1,.392-1.993A2.989,2.989,0,0,1,2.135-7.469a2.976,2.976,0,0,1,1.641-.459,3.032,3.032,0,0,1,1.657.454,2.924,2.924,0,0,1,1.1,1.316,4.861,4.861,0,0,1,.387,2.006ZM5.9-4.163A3.506,3.506,0,0,0,5.339-6.3a1.842,1.842,0,0,0-1.563-.744A1.823,1.823,0,0,0,2.237-6.3,3.434,3.434,0,0,0,1.66-4.232v.575a3.511,3.511,0,0,0,.567,2.119,1.83,1.83,0,0,0,1.56.771A1.823,1.823,0,0,0,5.333-1.5,3.492,3.492,0,0,0,5.9-3.583Zm7.326,1.321A3.48,3.48,0,0,1,12.617-.7a1.945,1.945,0,0,1-1.644.811A2.131,2.131,0,0,1,9.308-.564v2.8H8.314V-5.812h.908l.048.645a2.047,2.047,0,0,1,1.687-.752,1.982,1.982,0,0,1,1.657.79,3.518,3.518,0,0,1,.61,2.2Zm-.994-.113a2.568,2.568,0,0,0-.419-1.552,1.35,1.35,0,0,0-1.149-.569,1.461,1.461,0,0,0-1.354.8V-1.5A1.464,1.464,0,0,0,10.672-.7a1.343,1.343,0,0,0,1.136-.567A2.8,2.8,0,0,0,12.23-2.954ZM16.9.107a2.539,2.539,0,0,1-1.923-.776,2.881,2.881,0,0,1-.741-2.076v-.183a3.487,3.487,0,0,1,.33-1.544,2.577,2.577,0,0,1,.924-1.063,2.323,2.323,0,0,1,1.286-.384,2.177,2.177,0,0,1,1.762.747,3.232,3.232,0,0,1,.628,2.138v.414H15.227a2.066,2.066,0,0,0,.5,1.388A1.579,1.579,0,0,0,16.951-.7a1.731,1.731,0,0,0,.892-.215,2.24,2.24,0,0,0,.639-.569l.607.473A2.44,2.44,0,0,1,16.9.107ZM16.774-5.1a1.325,1.325,0,0,0-1.01.438,2.128,2.128,0,0,0-.5,1.227H18.17v-.075a1.893,1.893,0,0,0-.408-1.174A1.248,1.248,0,0,0,16.774-5.1Zm6.349.183a2.978,2.978,0,0,0-.489-.038,1.309,1.309,0,0,0-1.327.833V0h-.994V-5.812h.967l.016.671a1.547,1.547,0,0,1,1.386-.779,1.015,1.015,0,0,1,.44.075ZM27.409,0a2.087,2.087,0,0,1-.14-.612,2.217,2.217,0,0,1-1.654.72A2.051,2.051,0,0,1,24.2-.379a1.573,1.573,0,0,1-.551-1.233,1.643,1.643,0,0,1,.69-1.41,3.254,3.254,0,0,1,1.942-.5h.967V-3.98a1.116,1.116,0,0,0-.312-.83,1.252,1.252,0,0,0-.918-.309,1.449,1.449,0,0,0-.892.269.791.791,0,0,0-.36.65h-1a1.371,1.371,0,0,1,.309-.841,2.108,2.108,0,0,1,.838-.642,2.819,2.819,0,0,1,1.163-.236,2.3,2.3,0,0,1,1.574.5,1.812,1.812,0,0,1,.591,1.383v2.675a3.27,3.27,0,0,0,.2,1.273V0ZM25.76-.757A1.746,1.746,0,0,0,26.646-1a1.462,1.462,0,0,0,.607-.628V-2.82h-.779q-1.826,0-1.826,1.069a.9.9,0,0,0,.312.73A1.2,1.2,0,0,0,25.76-.757ZM32.613-4.92a2.978,2.978,0,0,0-.489-.038,1.309,1.309,0,0,0-1.327.833V0H29.8V-5.812h.967l.016.671a1.547,1.547,0,0,1,1.386-.779,1.015,1.015,0,0,1,.44.075ZM34.606,0h-.994V-5.812h.994ZM33.532-7.353a.593.593,0,0,1,.148-.408.555.555,0,0,1,.438-.167.563.563,0,0,1,.44.167.587.587,0,0,1,.15.408.568.568,0,0,1-.15.4.573.573,0,0,1-.44.161.565.565,0,0,1-.438-.161A.573.573,0,0,1,33.532-7.353Zm2.4,4.394A3.433,3.433,0,0,1,36.268-4.5,2.5,2.5,0,0,1,37.2-5.548a2.544,2.544,0,0,1,1.367-.371,2.451,2.451,0,0,1,1.92.822,3.162,3.162,0,0,1,.733,2.186v.07A3.463,3.463,0,0,1,40.9-1.319a2.467,2.467,0,0,1-.929,1.05,2.573,2.573,0,0,1-1.388.376,2.445,2.445,0,0,1-1.915-.822,3.146,3.146,0,0,1-.733-2.175Zm1,.118a2.486,2.486,0,0,0,.448,1.552,1.435,1.435,0,0,0,1.2.585,1.427,1.427,0,0,0,1.2-.594,2.719,2.719,0,0,0,.446-1.662,2.482,2.482,0,0,0-.454-1.55A1.443,1.443,0,0,0,38.57-5.1a1.427,1.427,0,0,0-1.187.585A2.7,2.7,0,0,0,36.932-2.841Zm8.921,1.3a.731.731,0,0,0-.3-.626,2.921,2.921,0,0,0-1.058-.384,5,5,0,0,1-1.2-.387,1.7,1.7,0,0,1-.655-.537,1.285,1.285,0,0,1-.212-.741,1.508,1.508,0,0,1,.6-1.208,2.36,2.36,0,0,1,1.544-.494,2.428,2.428,0,0,1,1.6.51A1.621,1.621,0,0,1,46.793-4.1h-1a.9.9,0,0,0-.346-.7,1.3,1.3,0,0,0-.873-.3,1.359,1.359,0,0,0-.849.236.744.744,0,0,0-.306.618.6.6,0,0,0,.285.542,3.5,3.5,0,0,0,1.029.349,5.359,5.359,0,0,1,1.206.4,1.759,1.759,0,0,1,.685.556,1.367,1.367,0,0,1,.223.792,1.487,1.487,0,0,1-.623,1.249,2.613,2.613,0,0,1-1.617.47A2.926,2.926,0,0,1,43.372-.14a2.009,2.009,0,0,1-.841-.69,1.663,1.663,0,0,1-.3-.959h.994a1.029,1.029,0,0,0,.4.792,1.552,1.552,0,0,0,.986.293,1.6,1.6,0,0,0,.905-.228A.7.7,0,0,0,45.853-1.542Z" transform="translate(-1722.844 -9284.898)" fill="#14263e"/>
    <path id="Rectángulo_40599-4" data-name="Rectángulo 40599" d="M742.625,234.17h132.3a4.284,4.284,0,0,1,4.5,4.026v40.117a4.28,4.28,0,0,1-4.5,4.026h-132.3a4.284,4.284,0,0,1-4.5-4.026V238.2A4.28,4.28,0,0,1,742.625,234.17Z" transform="translate(-2348.759 -9605.532)" fill="#bae887" stroke="#77b43a" stroke-width="2"/>
    <path id="Trazado_170463" data-name="Trazado 170463" d="M6.682-1.026a2.382,2.382,0,0,1-1.109.851A4.48,4.48,0,0,1,3.916.107a3.213,3.213,0,0,1-1.7-.448A2.988,2.988,0,0,1,1.072-1.617,4.406,4.406,0,0,1,.655-3.534v-.682A4.113,4.113,0,0,1,1.48-6.956,2.873,2.873,0,0,1,3.8-7.928,2.967,2.967,0,0,1,5.769-7.3a2.726,2.726,0,0,1,.913,1.775H5.65A1.705,1.705,0,0,0,3.8-7.084a1.826,1.826,0,0,0-1.571.728,3.556,3.556,0,0,0-.54,2.11v.64a3.333,3.333,0,0,0,.6,2.094,1.95,1.95,0,0,0,1.627.777A3.6,3.6,0,0,0,4.936-.864a1.57,1.57,0,0,0,.72-.434V-3.051H3.846v-.843H6.682ZM10.656.107A2.539,2.539,0,0,1,8.733-.669a2.881,2.881,0,0,1-.741-2.076v-.183a3.487,3.487,0,0,1,.33-1.544,2.577,2.577,0,0,1,.924-1.063,2.323,2.323,0,0,1,1.286-.384,2.177,2.177,0,0,1,1.762.747,3.232,3.232,0,0,1,.628,2.138v.414H8.986a2.066,2.066,0,0,0,.5,1.388A1.579,1.579,0,0,0,10.71-.7,1.731,1.731,0,0,0,11.6-.918a2.24,2.24,0,0,0,.639-.569l.607.473A2.44,2.44,0,0,1,10.656.107ZM10.533-5.1a1.325,1.325,0,0,0-1.01.438,2.128,2.128,0,0,0-.5,1.227h2.911v-.075a1.893,1.893,0,0,0-.408-1.174A1.248,1.248,0,0,0,10.533-5.1Zm6.349.183a2.978,2.978,0,0,0-.489-.038,1.309,1.309,0,0,0-1.327.833V0h-.994V-5.812h.967l.016.671a1.547,1.547,0,0,1,1.386-.779,1.015,1.015,0,0,1,.44.075ZM20.206.107a2.539,2.539,0,0,1-1.923-.776,2.881,2.881,0,0,1-.741-2.076v-.183a3.487,3.487,0,0,1,.33-1.544A2.577,2.577,0,0,1,18.8-5.535a2.323,2.323,0,0,1,1.286-.384,2.177,2.177,0,0,1,1.762.747,3.232,3.232,0,0,1,.628,2.138v.414H18.536a2.066,2.066,0,0,0,.5,1.388A1.579,1.579,0,0,0,20.26-.7a1.731,1.731,0,0,0,.892-.215,2.24,2.24,0,0,0,.639-.569l.607.473A2.44,2.44,0,0,1,20.206.107ZM20.083-5.1a1.325,1.325,0,0,0-1.01.438,2.128,2.128,0,0,0-.5,1.227h2.911v-.075a1.893,1.893,0,0,0-.408-1.174A1.248,1.248,0,0,0,20.083-5.1Zm4.479-.709.032.73a2.118,2.118,0,0,1,1.74-.838q1.842,0,1.858,2.079V0H27.2V-3.846a1.338,1.338,0,0,0-.287-.929,1.152,1.152,0,0,0-.878-.3,1.434,1.434,0,0,0-.849.258,1.751,1.751,0,0,0-.569.677V0h-.994V-5.812ZM31.04-7.219v1.407h1.085v.768H31.04v3.609a.807.807,0,0,0,.145.524.61.61,0,0,0,.494.175A2.406,2.406,0,0,0,32.151-.8V0a2.9,2.9,0,0,1-.763.107,1.237,1.237,0,0,1-1-.4,1.731,1.731,0,0,1-.338-1.144v-3.6H28.988v-.768h1.058V-7.219ZM35.7.107a2.539,2.539,0,0,1-1.923-.776,2.881,2.881,0,0,1-.741-2.076v-.183a3.487,3.487,0,0,1,.33-1.544,2.577,2.577,0,0,1,.924-1.063,2.323,2.323,0,0,1,1.286-.384,2.177,2.177,0,0,1,1.762.747,3.232,3.232,0,0,1,.628,2.138v.414H34.026a2.066,2.066,0,0,0,.5,1.388A1.579,1.579,0,0,0,35.75-.7a1.731,1.731,0,0,0,.892-.215,2.24,2.24,0,0,0,.639-.569l.607.473A2.44,2.44,0,0,1,35.7.107ZM35.573-5.1a1.325,1.325,0,0,0-1.01.438,2.128,2.128,0,0,0-.5,1.227h2.911v-.075a1.893,1.893,0,0,0-.408-1.174A1.248,1.248,0,0,0,35.573-5.1Zm6.021,2.148a3.4,3.4,0,0,1,.634-2.151,2,2,0,0,1,1.66-.814,2.016,2.016,0,0,1,1.617.7V-8.25H46.5V0h-.913l-.048-.623a2.024,2.024,0,0,1-1.66.73A1.985,1.985,0,0,1,42.23-.72a3.443,3.443,0,0,1-.636-2.159Zm.994.113A2.578,2.578,0,0,0,43-1.294a1.32,1.32,0,0,0,1.128.559,1.45,1.45,0,0,0,1.38-.849V-4.254a1.461,1.461,0,0,0-1.37-.822A1.326,1.326,0,0,0,43-4.512,2.838,2.838,0,0,0,42.587-2.841ZM50.451.107a2.539,2.539,0,0,1-1.923-.776,2.881,2.881,0,0,1-.741-2.076v-.183a3.487,3.487,0,0,1,.33-1.544,2.577,2.577,0,0,1,.924-1.063,2.323,2.323,0,0,1,1.286-.384,2.177,2.177,0,0,1,1.762.747,3.232,3.232,0,0,1,.628,2.138v.414H48.78a2.066,2.066,0,0,0,.5,1.388A1.579,1.579,0,0,0,50.5-.7,1.731,1.731,0,0,0,51.4-.918a2.24,2.24,0,0,0,.639-.569l.607.473A2.44,2.44,0,0,1,50.451.107ZM50.327-5.1a1.325,1.325,0,0,0-1.01.438,2.128,2.128,0,0,0-.5,1.227h2.911v-.075a1.893,1.893,0,0,0-.408-1.174A1.248,1.248,0,0,0,50.327-5.1Z" transform="translate(-1568.008 -9350.856)" fill="#14263e"/>
    <path id="Trazado_170464" data-name="Trazado 170464" d="M3.561-4.92a2.978,2.978,0,0,0-.489-.038,1.309,1.309,0,0,0-1.327.833V0H.752V-5.812h.967l.016.671a1.547,1.547,0,0,1,1.386-.779,1.015,1.015,0,0,1,.44.075ZM6.886.107A2.539,2.539,0,0,1,4.963-.669a2.881,2.881,0,0,1-.741-2.076v-.183a3.487,3.487,0,0,1,.33-1.544,2.577,2.577,0,0,1,.924-1.063,2.323,2.323,0,0,1,1.286-.384,2.177,2.177,0,0,1,1.762.747,3.232,3.232,0,0,1,.628,2.138v.414H5.215a2.066,2.066,0,0,0,.5,1.388A1.579,1.579,0,0,0,6.939-.7a1.731,1.731,0,0,0,.892-.215,2.24,2.24,0,0,0,.639-.569l.607.473A2.44,2.44,0,0,1,6.886.107ZM6.762-5.1a1.325,1.325,0,0,0-1.01.438,2.128,2.128,0,0,0-.5,1.227H8.159v-.075A1.893,1.893,0,0,0,7.75-4.686,1.248,1.248,0,0,0,6.762-5.1ZM12.633-.7a1.431,1.431,0,0,0,.929-.322A1.134,1.134,0,0,0,14-1.832h.94a1.8,1.8,0,0,1-.344.951,2.264,2.264,0,0,1-.846.72,2.441,2.441,0,0,1-1.12.269,2.394,2.394,0,0,1-1.888-.792,3.155,3.155,0,0,1-.7-2.167v-.167a3.5,3.5,0,0,1,.312-1.509,2.373,2.373,0,0,1,.894-1.026,2.54,2.54,0,0,1,1.378-.365,2.331,2.331,0,0,1,1.625.585,2.092,2.092,0,0,1,.69,1.52H14a1.369,1.369,0,0,0-.427-.927,1.328,1.328,0,0,0-.948-.363,1.391,1.391,0,0,0-1.174.545,2.56,2.56,0,0,0-.416,1.576v.188a2.509,2.509,0,0,0,.414,1.547A1.4,1.4,0,0,0,12.633-.7Zm7.015.129a2.111,2.111,0,0,1-1.7.682,1.807,1.807,0,0,1-1.415-.54,2.336,2.336,0,0,1-.491-1.6V-5.812h.994v3.754q0,1.321,1.074,1.321a1.487,1.487,0,0,0,1.515-.849V-5.812h.994V0h-.945ZM24.933-4.92a2.978,2.978,0,0,0-.489-.038,1.309,1.309,0,0,0-1.327.833V0h-.994V-5.812h.967l.016.671a1.547,1.547,0,0,1,1.386-.779,1.015,1.015,0,0,1,.44.075Zm4.3,3.378a.732.732,0,0,0-.3-.626,2.921,2.921,0,0,0-1.058-.384,5,5,0,0,1-1.2-.387,1.7,1.7,0,0,1-.655-.537,1.285,1.285,0,0,1-.212-.741,1.508,1.508,0,0,1,.6-1.208,2.36,2.36,0,0,1,1.544-.494,2.428,2.428,0,0,1,1.6.51A1.621,1.621,0,0,1,30.169-4.1h-1a.9.9,0,0,0-.346-.7,1.3,1.3,0,0,0-.873-.3,1.358,1.358,0,0,0-.849.236.744.744,0,0,0-.306.618.6.6,0,0,0,.285.542,3.5,3.5,0,0,0,1.029.349,5.359,5.359,0,0,1,1.206.4A1.759,1.759,0,0,1,30-2.4a1.367,1.367,0,0,1,.223.792A1.487,1.487,0,0,1,29.6-.363a2.613,2.613,0,0,1-1.617.47A2.926,2.926,0,0,1,26.748-.14a2.009,2.009,0,0,1-.841-.69,1.664,1.664,0,0,1-.3-.959H26.6A1.029,1.029,0,0,0,27-1a1.552,1.552,0,0,0,.986.293,1.6,1.6,0,0,0,.905-.228A.7.7,0,0,0,29.229-1.542Zm2.025-1.418A3.433,3.433,0,0,1,31.59-4.5a2.5,2.5,0,0,1,.935-1.053,2.544,2.544,0,0,1,1.367-.371,2.451,2.451,0,0,1,1.92.822,3.162,3.162,0,0,1,.733,2.186v.07a3.463,3.463,0,0,1-.325,1.523,2.467,2.467,0,0,1-.929,1.05A2.573,2.573,0,0,1,33.9.107a2.445,2.445,0,0,1-1.915-.822,3.146,3.146,0,0,1-.733-2.175Zm1,.118A2.486,2.486,0,0,0,32.7-1.289,1.435,1.435,0,0,0,33.9-.7a1.427,1.427,0,0,0,1.2-.594,2.719,2.719,0,0,0,.446-1.662,2.482,2.482,0,0,0-.454-1.55A1.443,1.443,0,0,0,33.892-5.1a1.427,1.427,0,0,0-1.187.585A2.7,2.7,0,0,0,32.253-2.841Zm8.921,1.3a.731.731,0,0,0-.3-.626,2.921,2.921,0,0,0-1.058-.384,5,5,0,0,1-1.2-.387,1.7,1.7,0,0,1-.655-.537,1.285,1.285,0,0,1-.212-.741,1.508,1.508,0,0,1,.6-1.208A2.36,2.36,0,0,1,39.9-5.919a2.428,2.428,0,0,1,1.6.51A1.621,1.621,0,0,1,42.115-4.1h-1a.9.9,0,0,0-.346-.7,1.3,1.3,0,0,0-.873-.3,1.359,1.359,0,0,0-.849.236.744.744,0,0,0-.306.618.6.6,0,0,0,.285.542,3.5,3.5,0,0,0,1.029.349,5.359,5.359,0,0,1,1.206.4,1.759,1.759,0,0,1,.685.556,1.367,1.367,0,0,1,.223.792,1.487,1.487,0,0,1-.623,1.249,2.613,2.613,0,0,1-1.617.47A2.926,2.926,0,0,1,38.693-.14a2.009,2.009,0,0,1-.841-.69,1.663,1.663,0,0,1-.3-.959h.994a1.029,1.029,0,0,0,.4.792,1.552,1.552,0,0,0,.986.293,1.6,1.6,0,0,0,.905-.228A.7.7,0,0,0,41.175-1.542Zm6-3.566A2.113,2.113,0,0,1,48.9-5.919q1.842,0,1.858,2.079V0h-.994V-3.846a1.338,1.338,0,0,0-.287-.929,1.152,1.152,0,0,0-.878-.3,1.434,1.434,0,0,0-.849.258,1.751,1.751,0,0,0-.569.677V0h-.994V-8.25h.994ZM55.833-.575a2.111,2.111,0,0,1-1.7.682,1.807,1.807,0,0,1-1.415-.54,2.336,2.336,0,0,1-.491-1.6V-5.812h.994v3.754q0,1.321,1.074,1.321a1.487,1.487,0,0,0,1.515-.849V-5.812H56.8V0h-.945Zm3.411-5.237.027.645a2.146,2.146,0,0,1,1.724-.752,1.662,1.662,0,0,1,1.66.935,2.2,2.2,0,0,1,.755-.677,2.229,2.229,0,0,1,1.1-.258q1.912,0,1.944,2.025V0h-.994V-3.835a1.334,1.334,0,0,0-.285-.932,1.254,1.254,0,0,0-.956-.309,1.318,1.318,0,0,0-.918.33,1.34,1.34,0,0,0-.424.889V0h-1V-3.808a1.109,1.109,0,0,0-1.241-1.268,1.329,1.329,0,0,0-1.337.833V0H58.3V-5.812ZM71.538,0a2.087,2.087,0,0,1-.14-.612,2.217,2.217,0,0,1-1.654.72,2.051,2.051,0,0,1-1.41-.486,1.573,1.573,0,0,1-.551-1.233,1.643,1.643,0,0,1,.69-1.41,3.254,3.254,0,0,1,1.942-.5h.967V-3.98a1.116,1.116,0,0,0-.312-.83,1.252,1.252,0,0,0-.918-.309,1.449,1.449,0,0,0-.892.269.791.791,0,0,0-.36.65h-1a1.371,1.371,0,0,1,.309-.841,2.108,2.108,0,0,1,.838-.642,2.819,2.819,0,0,1,1.163-.236,2.3,2.3,0,0,1,1.574.5,1.812,1.812,0,0,1,.591,1.383v2.675a3.27,3.27,0,0,0,.2,1.273V0ZM69.889-.757A1.746,1.746,0,0,0,70.775-1a1.462,1.462,0,0,0,.607-.628V-2.82H70.6q-1.826,0-1.826,1.069a.9.9,0,0,0,.312.73A1.2,1.2,0,0,0,69.889-.757Zm4.984-5.054.032.73a2.118,2.118,0,0,1,1.74-.838q1.842,0,1.858,2.079V0H77.51V-3.846a1.338,1.338,0,0,0-.287-.929,1.152,1.152,0,0,0-.878-.3,1.434,1.434,0,0,0-.849.258,1.751,1.751,0,0,0-.569.677V0h-.994V-5.812Zm4.866,2.852A3.433,3.433,0,0,1,80.075-4.5a2.5,2.5,0,0,1,.935-1.053,2.544,2.544,0,0,1,1.367-.371A2.451,2.451,0,0,1,84.3-5.1a3.162,3.162,0,0,1,.733,2.186v.07A3.462,3.462,0,0,1,84.7-1.319a2.467,2.467,0,0,1-.929,1.05,2.573,2.573,0,0,1-1.388.376,2.445,2.445,0,0,1-1.915-.822,3.146,3.146,0,0,1-.733-2.175Zm1,.118a2.486,2.486,0,0,0,.448,1.552,1.435,1.435,0,0,0,1.2.585,1.427,1.427,0,0,0,1.2-.594,2.719,2.719,0,0,0,.446-1.662,2.482,2.482,0,0,0-.454-1.55A1.443,1.443,0,0,0,82.376-5.1a1.427,1.427,0,0,0-1.187.585A2.7,2.7,0,0,0,80.738-2.841Zm8.921,1.3a.732.732,0,0,0-.3-.626A2.921,2.921,0,0,0,88.3-2.551a5,5,0,0,1-1.2-.387,1.7,1.7,0,0,1-.655-.537,1.285,1.285,0,0,1-.212-.741,1.508,1.508,0,0,1,.6-1.208,2.36,2.36,0,0,1,1.544-.494,2.428,2.428,0,0,1,1.6.51A1.621,1.621,0,0,1,90.6-4.1h-1a.9.9,0,0,0-.346-.7,1.3,1.3,0,0,0-.873-.3,1.358,1.358,0,0,0-.849.236.744.744,0,0,0-.306.618.6.6,0,0,0,.285.542,3.5,3.5,0,0,0,1.029.349,5.359,5.359,0,0,1,1.206.4,1.759,1.759,0,0,1,.685.556,1.367,1.367,0,0,1,.223.792A1.487,1.487,0,0,1,90.03-.363a2.613,2.613,0,0,1-1.617.47A2.926,2.926,0,0,1,87.178-.14a2.009,2.009,0,0,1-.841-.69,1.664,1.664,0,0,1-.3-.959h.994a1.029,1.029,0,0,0,.4.792,1.552,1.552,0,0,0,.986.293,1.6,1.6,0,0,0,.905-.228A.7.7,0,0,0,89.66-1.542Z" transform="translate(-1588.018 -9336.985)" fill="#14263e"/>
  </g>
</svg>
