<svg xmlns="http://www.w3.org/2000/svg" width="150" height="150" viewBox="0 0 150 150">
  <g id="Grupo_115956" data-name="Grupo 115956" transform="translate(1154 10654)">
    <g id="Trazado_169922" data-name="Trazado 169922" transform="translate(-1154 -10654)" fill="#fff">
      <path d="M 75 148 C 65.14418029785156 148 55.5842399597168 146.0701751708984 46.58572006225586 142.2641143798828 C 42.26060104370117 140.4347381591797 38.08885955810547 138.1703796386719 34.1864013671875 135.533935546875 C 30.32049942016602 132.9221801757813 26.68510055541992 129.9226989746094 23.38120079040527 126.6187973022461 C 20.07729911804199 123.3149032592773 17.07781982421875 119.6794967651367 14.46605968475342 115.8135986328125 C 11.82962036132813 111.9111404418945 9.56525993347168 107.7394027709961 7.735879898071289 103.4142837524414 C 3.92982006072998 94.41575622558594 2 84.85581970214844 2 75 C 2 65.14418029785156 3.92982006072998 55.5842399597168 7.735879898071289 46.58572006225586 C 9.56525993347168 42.26060104370117 11.82962036132813 38.08885955810547 14.46605968475342 34.1864013671875 C 17.07781982421875 30.32049942016602 20.07729911804199 26.68510055541992 23.38120079040527 23.38120079040527 C 26.68510055541992 20.07729911804199 30.32049942016602 17.07781982421875 34.1864013671875 14.46605968475342 C 38.08885955810547 11.82962036132813 42.26060104370117 9.56525993347168 46.58572006225586 7.735879898071289 C 55.5842399597168 3.92982006072998 65.14418029785156 2 75 2 C 84.85581970214844 2 94.41575622558594 3.92982006072998 103.4142837524414 7.735879898071289 C 107.7394027709961 9.56525993347168 111.9111404418945 11.82962036132813 115.8135986328125 14.46605968475342 C 119.6794967651367 17.07781982421875 123.3149032592773 20.07729911804199 126.6187973022461 23.38120079040527 C 129.9226989746094 26.68510055541992 132.9221801757813 30.32049942016602 135.533935546875 34.1864013671875 C 138.1703796386719 38.08885955810547 140.4347381591797 42.26060104370117 142.2641143798828 46.58572006225586 C 146.0701751708984 55.5842399597168 148 65.14418029785156 148 75 C 148 84.85581970214844 146.0701751708984 94.41575622558594 142.2641143798828 103.4142837524414 C 140.4347381591797 107.7394027709961 138.1703796386719 111.9111404418945 135.533935546875 115.8135986328125 C 132.9221801757813 119.6794967651367 129.9226989746094 123.3149032592773 126.6187973022461 126.6187973022461 C 123.3149032592773 129.9226989746094 119.6794967651367 132.9221801757813 115.8135986328125 135.533935546875 C 111.9111404418945 138.1703796386719 107.7394027709961 140.4347381591797 103.4142837524414 142.2641143798828 C 94.41575622558594 146.0701751708984 84.85581970214844 148 75 148 Z" stroke="none"/>
      <path d="M 75 4 C 65.41329193115234 4 56.115478515625 5.876678466796875 47.36481475830078 9.577880859375 C 43.15863800048828 11.35694885253906 39.10147857666016 13.55915832519531 35.30599975585938 16.12332153320313 C 31.54559326171875 18.663818359375 28.00929260253906 21.58152770996094 24.79541015625 24.79541015625 C 21.58152770996094 28.00929260253906 18.663818359375 31.54559326171875 16.12332153320313 35.30599975585938 C 13.55915832519531 39.10147857666016 11.35694885253906 43.15863800048828 9.577880859375 47.36481475830078 C 5.876678466796875 56.115478515625 4 65.41329193115234 4 75 C 4 84.58670806884766 5.876678466796875 93.884521484375 9.577880859375 102.6351776123047 C 11.35694885253906 106.8413619995117 13.55915832519531 110.8985214233398 16.12332153320313 114.6940002441406 C 18.663818359375 118.4544067382813 21.58152770996094 121.9907073974609 24.79541015625 125.20458984375 C 28.00929260253906 128.4184722900391 31.54559326171875 131.336181640625 35.30599975585938 133.8766784667969 C 39.10147857666016 136.4408416748047 43.15863800048828 138.6430511474609 47.36481475830078 140.422119140625 C 56.115478515625 144.1233215332031 65.41329193115234 146 75 146 C 84.58670806884766 146 93.884521484375 144.1233215332031 102.6351776123047 140.422119140625 C 106.8413619995117 138.6430511474609 110.8985214233398 136.4408416748047 114.6940002441406 133.8766784667969 C 118.4544067382813 131.336181640625 121.9907073974609 128.4184722900391 125.20458984375 125.20458984375 C 128.4184722900391 121.9907073974609 131.336181640625 118.4544067382813 133.8766784667969 114.6940002441406 C 136.4408416748047 110.8985214233398 138.6430511474609 106.8413619995117 140.422119140625 102.6351776123047 C 144.1233215332031 93.884521484375 146 84.58670806884766 146 75 C 146 65.41329193115234 144.1233215332031 56.115478515625 140.422119140625 47.36481475830078 C 138.6430511474609 43.15863800048828 136.4408416748047 39.10147857666016 133.8766784667969 35.30599975585938 C 131.336181640625 31.54559326171875 128.4184722900391 28.00929260253906 125.20458984375 24.79541015625 C 121.9907073974609 21.58152770996094 118.4544067382813 18.663818359375 114.6940002441406 16.12332153320313 C 110.8985214233398 13.55915832519531 106.8413619995117 11.35694885253906 102.6351776123047 9.577880859375 C 93.884521484375 5.876678466796875 84.58670806884766 4 75 4 M 75 0 C 116.4213638305664 0 150 33.57863616943359 150 75 C 150 116.4213638305664 116.4213638305664 150 75 150 C 33.57863616943359 150 0 116.4213638305664 0 75 C 0 33.57863616943359 33.57863616943359 0 75 0 Z" stroke="none" fill="#77b43a"/>
    </g>
    <g id="Grupo_114851" data-name="Grupo 114851" transform="translate(13.002 232.123)">
      <g id="Grupo_114091" data-name="Grupo 114091" transform="translate(-1133.982 -10836.949)">
        <path id="Trazado_167620" data-name="Trazado 167620" d="M24.14,106.893v-3.059a7.409,7.409,0,0,1,3.526-6.309l8.439-5.191h4.455L49,97.525a7.406,7.406,0,0,1,3.526,6.309v3.059H24.14Z" transform="translate(-23.14 -54.961)" fill="#dbe636"/>
        <path id="Trazado_167621" data-name="Trazado 167621" d="M59.375,79.04V75.982A7.409,7.409,0,0,1,62.9,69.673l8.439-5.191H75.8l8.439,5.191a7.406,7.406,0,0,1,3.526,6.309V79.04H59.378Z" transform="translate(-32.054 -47.914)" fill="#3d46c1"/>
        <path id="Trazado_167622" data-name="Trazado 167622" d="M52.185,107.554H23.8a1,1,0,0,1-1-1V103.5a8.462,8.462,0,0,1,4-7.161l8.439-5.191a1.009,1.009,0,0,1,.523-.149h4.455a.981.981,0,0,1,.523.149l8.439,5.191a8.464,8.464,0,0,1,4,7.161v3.059A1,1,0,0,1,52.185,107.554Zm-27.386-2H51.185V103.5a6.445,6.445,0,0,0-3.051-5.458L39.936,93H36.048l-8.2,5.043A6.453,6.453,0,0,0,24.8,103.5v2.058Z" transform="translate(-22.801 -54.622)"/>
        <path id="Trazado_167623" data-name="Trazado 167623" d="M40.768,90.276h0a7,7,0,0,1-7-7V78.5a7,7,0,0,1,7-7h0a7,7,0,0,1,7,7v4.781a7,7,0,0,1-7,7Z" transform="translate(-25.575 -49.689)" fill="#ffd4a2"/>
        <path id="Trazado_167624" data-name="Trazado 167624" d="M40.429,90.935a8.009,8.009,0,0,1-8-8V78.153a8,8,0,0,1,16,0v4.781a8.009,8.009,0,0,1-8,8Zm0-18.784a6.009,6.009,0,0,0-6,6v4.781a6,6,0,0,0,12,0V78.153A6.009,6.009,0,0,0,40.429,72.151Z" transform="translate(-25.237 -49.349)"/>
        <path id="Trazado_167625" data-name="Trazado 167625" d="M95.863,106.893v-3.059a7.409,7.409,0,0,1,3.526-6.309l8.439-5.191h4.455l8.439,5.191a7.406,7.406,0,0,1,3.526,6.309v3.059H95.865Z" transform="translate(-41.285 -54.961)" fill="#f75316"/>
        <path id="Trazado_167626" data-name="Trazado 167626" d="M123.908,107.554H95.524a1,1,0,0,1-1-1V103.5a8.462,8.462,0,0,1,4-7.161l8.439-5.191a1.009,1.009,0,0,1,.523-.149h4.455a.981.981,0,0,1,.523.149l8.439,5.191a8.462,8.462,0,0,1,4,7.161v3.059a1,1,0,0,1-1,1Zm-27.386-2h26.386V103.5a6.445,6.445,0,0,0-3.051-5.458L111.659,93h-3.889l-8.2,5.043a6.453,6.453,0,0,0-3.051,5.458v2.058Z" transform="translate(-40.946 -54.622)"/>
        <path id="Trazado_167627" data-name="Trazado 167627" d="M112.491,90.276h0a7,7,0,0,1-7-7V78.5a7,7,0,0,1,7-7h0a7,7,0,0,1,7,7v4.781A7,7,0,0,1,112.491,90.276Z" transform="translate(-43.72 -49.689)" fill="#ffd4a2"/>
        <path id="Trazado_167628" data-name="Trazado 167628" d="M112.152,90.935a8.009,8.009,0,0,1-8-8V78.153a8,8,0,0,1,16,0v4.781A8.009,8.009,0,0,1,112.152,90.935Zm0-18.784a6.009,6.009,0,0,0-6,6v4.781a6,6,0,1,0,12,0V78.153A6.009,6.009,0,0,0,112.152,72.151Z" transform="translate(-43.382 -49.349)"/>
        <path id="Trazado_167629" data-name="Trazado 167629" d="M87.421,79.7H59.036a1,1,0,0,1-1-1V75.643a8.459,8.459,0,0,1,4-7.161l8.439-5.191A1.009,1.009,0,0,1,71,63.142h4.455a.981.981,0,0,1,.523.149l8.439,5.191a8.464,8.464,0,0,1,4,7.161V78.7a1,1,0,0,1-1,1Zm-27.386-2H86.42V75.645a6.445,6.445,0,0,0-3.051-5.458l-8.2-5.043H71.283l-8.2,5.043a6.453,6.453,0,0,0-3.051,5.458V77.7Z" transform="translate(-31.715 -47.576)"/>
        <path id="Trazado_167630" data-name="Trazado 167630" d="M76,62.424h0a7,7,0,0,1-7-7V50.643a7,7,0,0,1,7-7h0a7,7,0,0,1,7,7v4.781a7,7,0,0,1-7,7Z" transform="translate(-34.489 -42.642)" fill="#ffd4a2"/>
        <path id="Trazado_167631" data-name="Trazado 167631" d="M75.664,63.086a8.009,8.009,0,0,1-8-8V50.3a8,8,0,0,1,16,0v4.781a8.009,8.009,0,0,1-8,8Zm0-18.784a6.009,6.009,0,0,0-6,6v4.781a6,6,0,0,0,12,0V50.3a6.009,6.009,0,0,0-6-6Z" transform="translate(-34.151 -42.304)"/>
        <path id="Trazado_167632" data-name="Trazado 167632" d="M59.375,136.438v-3.059A7.409,7.409,0,0,1,62.9,127.07l8.439-5.191H75.8l8.439,5.191a7.406,7.406,0,0,1,3.526,6.309v3.059H59.378Z" transform="translate(-32.054 -62.435)" fill="#75b52f"/>
        <path id="Trazado_167633" data-name="Trazado 167633" d="M87.421,137.1H59.036a1,1,0,0,1-1-1V133.04a8.459,8.459,0,0,1,4-7.161l8.439-5.191a1.009,1.009,0,0,1,.523-.149h4.455a.981.981,0,0,1,.523.149l8.439,5.191a8.464,8.464,0,0,1,4,7.161V136.1a1,1,0,0,1-1,1Zm-27.386-2H86.42v-2.058a6.445,6.445,0,0,0-3.051-5.458l-8.2-5.043H71.283l-8.2,5.043a6.453,6.453,0,0,0-3.051,5.458V135.1Z" transform="translate(-31.715 -62.096)"/>
        <path id="Trazado_167634" data-name="Trazado 167634" d="M76,119.821h0a7,7,0,0,1-7-7V108.04a7,7,0,0,1,7-7h0a7,7,0,0,1,7,7v4.781a7,7,0,0,1-7,7Z" transform="translate(-34.489 -57.163)" fill="#ffd4a2"/>
        <path id="Trazado_167635" data-name="Trazado 167635" d="M75.664,120.483a8.009,8.009,0,0,1-8-8V107.7a8,8,0,1,1,16,0v4.781a8.009,8.009,0,0,1-8,8Zm0-18.784a6.009,6.009,0,0,0-6,6v4.781a6,6,0,0,0,12,0V107.7A6.009,6.009,0,0,0,75.664,101.7Z" transform="translate(-34.151 -56.824)"/>
      </g>
      <g id="Grupo_114096" data-name="Grupo 114096" transform="translate(-1115.16 -10860.299)">
        <g id="Grupo_114093" data-name="Grupo 114093" transform="translate(16.073 0)">
          <path id="Trazado_167636" data-name="Trazado 167636" d="M76.936,21.841l-3.61,1.9.691-4.018L71.1,16.875l4.033-.585,1.806-3.656,1.8,3.656,4.033.585-2.92,2.845.691,4.018Z" transform="translate(-69.914 -11.449)" fill="#dbe636"/>
          <path id="Trazado_167637" data-name="Trazado 167637" d="M80.143,24.522a1.189,1.189,0,0,1-.552-.137l-3.056-1.607-3.056,1.607a1.184,1.184,0,0,1-1.718-1.25l.583-3.4L69.871,17.32a1.184,1.184,0,0,1,.657-2.02l3.418-.5,1.528-3.1a1.186,1.186,0,0,1,2.125,0l1.528,3.1,3.418.5a1.184,1.184,0,0,1,.655,2.02l-2.473,2.411.583,3.4a1.182,1.182,0,0,1-1.166,1.384Zm-3.608-4.265a1.181,1.181,0,0,1,.552.137l1.485.78-.283-1.653a1.189,1.189,0,0,1,.341-1.048l1.2-1.171-1.66-.242a1.181,1.181,0,0,1-.892-.648l-.741-1.5-.741,1.5a1.181,1.181,0,0,1-.892.648l-1.66.242,1.2,1.171a1.189,1.189,0,0,1,.341,1.048L74.5,21.173l1.485-.78a1.181,1.181,0,0,1,.552-.137Z" transform="translate(-69.513 -11.047)"/>
        </g>
        <g id="Grupo_114094" data-name="Grupo 114094" transform="translate(0 6.717)">
          <path id="Trazado_167638" data-name="Trazado 167638" d="M55.42,30.833l-3.61,1.9.691-4.018-2.92-2.845,4.033-.585,1.806-3.656,1.8,3.656,4.033.585-2.92,2.845.691,4.018Z" transform="translate(-48.397 -20.44)" fill="#dbe636"/>
          <path id="Trazado_167639" data-name="Trazado 167639" d="M58.627,33.514a1.189,1.189,0,0,1-.552-.137L55.019,31.77l-3.056,1.607a1.184,1.184,0,0,1-1.718-1.25l.583-3.4-2.473-2.411a1.184,1.184,0,0,1,.657-2.02l3.418-.5,1.528-3.1a1.186,1.186,0,0,1,2.125,0l1.528,3.1,3.418.5a1.184,1.184,0,0,1,.655,2.02l-2.473,2.411.583,3.4a1.182,1.182,0,0,1-1.166,1.384Zm-3.608-4.265a1.181,1.181,0,0,1,.552.137l1.485.78-.283-1.653a1.189,1.189,0,0,1,.341-1.048l1.2-1.171-1.66-.242a1.181,1.181,0,0,1-.892-.648l-.741-1.5-.741,1.5a1.181,1.181,0,0,1-.892.648l-1.66.242,1.2,1.171a1.189,1.189,0,0,1,.341,1.048l-.283,1.653,1.485-.78a1.181,1.181,0,0,1,.552-.137Z" transform="translate(-47.997 -20.039)"/>
        </g>
        <g id="Grupo_114095" data-name="Grupo 114095" transform="translate(31.666 6.957)">
          <path id="Trazado_167640" data-name="Trazado 167640" d="M97.81,31.154l-3.61,1.9.691-4.018-2.92-2.845L96,25.6l1.806-3.656,1.8,3.656,4.033.585-2.919,2.845.691,4.018Z" transform="translate(-90.788 -20.762)" fill="#dbe636"/>
          <path id="Trazado_167641" data-name="Trazado 167641" d="M101.017,33.835a1.189,1.189,0,0,1-.552-.137l-3.056-1.607L94.353,33.7a1.184,1.184,0,0,1-1.718-1.25l.583-3.4-2.473-2.411a1.184,1.184,0,0,1,.657-2.02l3.418-.5,1.528-3.1a1.186,1.186,0,0,1,2.125,0l1.528,3.1,3.418.5a1.184,1.184,0,0,1,.655,2.02L101.6,29.044l.583,3.4a1.182,1.182,0,0,1-1.166,1.384ZM97.409,29.57a1.181,1.181,0,0,1,.552.137l1.485.78-.283-1.653a1.189,1.189,0,0,1,.341-1.048l1.2-1.171-1.66-.242a1.181,1.181,0,0,1-.892-.648l-.741-1.5-.741,1.5a1.181,1.181,0,0,1-.892.648l-1.66.242,1.2,1.171a1.189,1.189,0,0,1,.341,1.048l-.283,1.653,1.485-.78a1.181,1.181,0,0,1,.552-.137Z" transform="translate(-90.387 -20.36)"/>
        </g>
      </g>
    </g>
  </g>
</svg>
