<svg xmlns="http://www.w3.org/2000/svg" width="150" height="150" viewBox="0 0 150 150">
  <g id="Grupo_115957" data-name="Grupo 115957" transform="translate(-1077.63 -5114)">
    <g id="Elipse_5925" data-name="Elipse 5925" transform="translate(1077.63 5114)" fill="#fff" stroke="#77b43a" stroke-width="4">
      <circle cx="75" cy="75" r="75" stroke="none"/>
      <circle cx="75" cy="75" r="73" fill="none"/>
    </g>
    <g id="Grupo_114483" data-name="Grupo 114483" transform="translate(1083.427 5109.152)">
      <g id="Grupo_114481" data-name="Grupo 114481" transform="translate(56.225 38.082)">
        <rect id="Rectángulo_42482" data-name="Rectángulo 42482" width="12.982" height="29.582" transform="translate(1.381 24.479)" fill="#f75316"/>
        <rect id="Rectángulo_42483" data-name="Rectángulo 42483" width="12.982" height="41.143" transform="translate(21.183 12.915)" fill="#3d46c1"/>
        <rect id="Rectángulo_42484" data-name="Rectángulo 42484" width="12.982" height="52.707" transform="translate(40.986 1.354)" fill="#75b52f"/>
        <path id="Trazado_169151" data-name="Trazado 169151" d="M83.236,101.94H70.256a1.369,1.369,0,0,1-1.381-1.354V71a1.369,1.369,0,0,1,1.381-1.354H83.236A1.369,1.369,0,0,1,84.617,71v29.582A1.369,1.369,0,0,1,83.236,101.94Zm-11.6-2.711H81.854V72.358H71.635Z" transform="translate(-68.875 -46.525)" fill="#151515"/>
        <path id="Trazado_169152" data-name="Trazado 169152" d="M110.269,97.718H97.288a1.369,1.369,0,0,1-1.381-1.354V55.218a1.369,1.369,0,0,1,1.381-1.354h12.982a1.369,1.369,0,0,1,1.381,1.354V96.362a1.369,1.369,0,0,1-1.381,1.354Zm-11.6-2.711h10.222V56.575H98.669Z" transform="translate(-76.104 -42.303)"/>
        <path id="Trazado_169153" data-name="Trazado 169153" d="M137.3,93.5H124.322a1.369,1.369,0,0,1-1.381-1.354V39.437a1.369,1.369,0,0,1,1.381-1.354H137.3a1.369,1.369,0,0,1,1.381,1.354V92.144A1.369,1.369,0,0,1,137.3,93.5Zm-11.6-2.711H135.92v-50H125.7Z" transform="translate(-83.334 -38.082)"/>
      </g>
      <g id="Grupo_114482" data-name="Grupo 114482" transform="translate(21.573 58.259)">
        <path id="Trazado_169154" data-name="Trazado 169154" d="M23.509,118.432v-4.344a10.521,10.521,0,0,1,5.007-8.964L40.5,97.751h6.324l11.98,7.373a10.526,10.526,0,0,1,5.007,8.964v4.344Z" transform="translate(-22.091 -74.217)" fill="#dbe636"/>
        <path id="Trazado_169155" data-name="Trazado 169155" d="M63.286,119.335H22.992a1.419,1.419,0,0,1-1.418-1.421V113.57A12.022,12.022,0,0,1,27.256,103.4l11.98-7.373a1.414,1.414,0,0,1,.742-.21H46.3a1.431,1.431,0,0,1,.742.21l11.98,7.373A12.025,12.025,0,0,1,64.71,113.57v4.344a1.421,1.421,0,0,1-1.418,1.421ZM24.41,116.5H61.868v-2.923a9.169,9.169,0,0,0-4.331-7.755L45.9,98.654h-5.52l-11.638,7.163a9.166,9.166,0,0,0-4.331,7.755V116.5Z" transform="translate(-21.573 -73.7)"/>
        <path id="Trazado_169156" data-name="Trazado 169156" d="M47.384,94.243h0A9.942,9.942,0,0,1,37.446,84.3V77.507a9.942,9.942,0,0,1,9.938-9.945h0a9.942,9.942,0,0,1,9.938,9.945V84.3A9.942,9.942,0,0,1,47.384,94.243Z" transform="translate(-25.818 -66.143)" fill="#ffd4a2"/>
        <path id="Trazado_169157" data-name="Trazado 169157" d="M46.866,95.144A11.373,11.373,0,0,1,35.51,83.78V76.989a11.356,11.356,0,1,1,22.713,0V83.78A11.374,11.374,0,0,1,46.866,95.144Zm0-26.682a8.531,8.531,0,0,0-8.52,8.525v6.791a8.52,8.52,0,1,0,17.039,0V76.987a8.531,8.531,0,0,0-8.52-8.525Z" transform="translate(-25.3 -65.626)"/>
      </g>
    </g>
  </g>
</svg>
