<svg xmlns="http://www.w3.org/2000/svg" width="150" height="150" viewBox="0 0 150 150">
  <g id="Grupo_115955" data-name="Grupo 115955" transform="translate(-373 -5114)">
    <g id="Elipse_5923" data-name="Elipse 5923" transform="translate(373 5114)" fill="#fff" stroke="#77b43a" stroke-width="4">
      <circle cx="75" cy="75" r="75" stroke="none"/>
      <circle cx="75" cy="75" r="73" fill="none"/>
    </g>
    <g id="Grupo_114473" data-name="Grupo 114473" transform="translate(377.975 5114.235)">
      <g id="Grupo_114471" data-name="Grupo 114471" transform="translate(28.594 33.766)">
        <g id="Grupo_114467" data-name="Grupo 114467" transform="translate(48.459 0.878)">
          <rect id="Rectángulo_42475" data-name="Rectángulo 42475" width="39.588" height="57.219" rx="8.371" transform="translate(0.975 0.978)" fill="#fff"/>
          <rect id="Rectángulo_42476" data-name="Rectángulo 42476" width="11.196" height="2.698" transform="translate(5.306 13.143)" fill="#dbe636"/>
          <rect id="Rectángulo_42477" data-name="Rectángulo 42477" width="11.196" height="2.698" transform="translate(5.306 19.441)" fill="#dbe636"/>
          <rect id="Rectángulo_42478" data-name="Rectángulo 42478" width="11.196" height="2.698" transform="translate(5.306 6.849)" fill="#dbe636"/>
          <rect id="Rectángulo_42479" data-name="Rectángulo 42479" width="6.331" height="2.698" transform="translate(10.173 6.849)" fill="#7babf1"/>
          <rect id="Rectángulo_42480" data-name="Rectángulo 42480" width="1.959" height="2.698" transform="translate(14.542 13.143)" fill="#7babf1"/>
          <rect id="Rectángulo_42481" data-name="Rectángulo 42481" width="3.715" height="2.698" transform="translate(12.786 19.441)" fill="#7babf1"/>
          <path id="Trazado_169104" data-name="Trazado 169104" d="M122.876,94.006H93.642a6.161,6.161,0,0,1-6.153-6.153V40.986a6.161,6.161,0,0,1,6.153-6.153h29.234a6.161,6.161,0,0,1,6.153,6.153V87.852A6.161,6.161,0,0,1,122.876,94.006ZM93.642,36.786a4.2,4.2,0,0,0-4.2,4.2V87.852a4.2,4.2,0,0,0,4.2,4.2h29.234a4.2,4.2,0,0,0,4.2-4.2V40.986a4.2,4.2,0,0,0-4.2-4.2Z" transform="translate(-87.488 -34.833)"/>
          <path id="Trazado_169105" data-name="Trazado 169105" d="M104.514,47.189H94.41a.88.88,0,0,1-.881-.881V43.873a.88.88,0,0,1,.881-.881h10.1a.88.88,0,0,1,.881.881v2.435A.88.88,0,0,1,104.514,47.189Zm-9.223-1.762h8.342v-.673H95.291Z" transform="translate(-88.559 -36.279)" fill="#12263f"/>
          <path id="Trazado_169106" data-name="Trazado 169106" d="M104.514,54.095H94.41a.88.88,0,0,1-.881-.881V50.779a.88.88,0,0,1,.881-.881h10.1a.88.88,0,0,1,.881.881v2.435A.88.88,0,0,1,104.514,54.095Zm-9.223-1.762h8.342V51.66H95.291Z" transform="translate(-88.559 -37.502)" fill="#12263f"/>
          <path id="Trazado_169107" data-name="Trazado 169107" d="M104.514,61H94.41a.88.88,0,0,1-.881-.881V57.685a.88.88,0,0,1,.881-.881h10.1a.88.88,0,0,1,.881.881V60.12A.88.88,0,0,1,104.514,61Zm-9.223-1.762h8.342v-.673H95.291Z" transform="translate(-88.559 -38.726)" fill="#12263f"/>
          <g id="Grupo_114465" data-name="Grupo 114465" transform="translate(28.06 23.394)">
            <path id="Trazado_169108" data-name="Trazado 169108" d="M122.566,81.793a.975.975,0,0,1-.975-.975V75.881a.975.975,0,1,1,1.95,0v4.937a.975.975,0,0,1-.975.975Z" transform="translate(-121.591 -65.328)" fill="#12263f"/>
            <path id="Trazado_169109" data-name="Trazado 169109" d="M122.566,75.719a.975.975,0,0,1-.975-.975V69.806a.975.975,0,0,1,1.95,0v4.937a.975.975,0,0,1-.975.975Z" transform="translate(-121.591 -64.251)" fill="#12263f"/>
            <path id="Trazado_169110" data-name="Trazado 169110" d="M122.566,70.153a.975.975,0,0,1-.975-.975V64.24a.975.975,0,1,1,1.95,0v4.937a.975.975,0,0,1-.975.975Z" transform="translate(-121.591 -63.265)" fill="#12263f"/>
          </g>
          <g id="Grupo_114466" data-name="Grupo 114466" transform="translate(28.06 10.281)">
            <path id="Trazado_169111" data-name="Trazado 169111" d="M122.566,65.853a.975.975,0,0,1-.975-.975V59.941a.975.975,0,1,1,1.95,0v4.937A.975.975,0,0,1,122.566,65.853Z" transform="translate(-121.591 -49.39)"/>
            <path id="Trazado_169112" data-name="Trazado 169112" d="M122.566,59.782a.975.975,0,0,1-.975-.975V53.87a.975.975,0,1,1,1.95,0v4.937A.975.975,0,0,1,122.566,59.782Z" transform="translate(-121.591 -48.315)"/>
            <path id="Trazado_169113" data-name="Trazado 169113" d="M122.566,54.216a.975.975,0,0,1-.975-.975V48.3a.975.975,0,1,1,1.95,0v4.937A.975.975,0,0,1,122.566,54.216Z" transform="translate(-121.591 -47.329)"/>
          </g>
          <path id="Trazado_169114" data-name="Trazado 169114" d="M126.068,90.806H111.614l3.031-7.453H129.1Z" transform="translate(-91.763 -43.431)" fill="#75b52f"/>
          <path id="Trazado_169115" data-name="Trazado 169115" d="M125.858,91.574H111.4a.977.977,0,0,1-.9-1.344l3.031-7.453a.976.976,0,0,1,.9-.61h14.454a.977.977,0,0,1,.9,1.344l-3.031,7.453a.976.976,0,0,1-.9.61Zm-13-1.953H125.2l2.239-5.5H115.091Z" transform="translate(-91.553 -43.22)" fill="#12263f"/>
        </g>
        <g id="Grupo_114468" data-name="Grupo 114468" transform="translate(0.376 20.446)">
          <path id="Trazado_169116" data-name="Trazado 169116" d="M95.286,73.485h0a2.97,2.97,0,0,0-4,1.1L86.536,82.7a3.616,3.616,0,0,1-3.12,1.79H73.1L62.909,78.222H59.117l-9.979,6.137-8.511-2.82a3.615,3.615,0,0,1-2.4-2.679l-1.956-9.2a2.97,2.97,0,0,0-3.455-2.3h0a2.971,2.971,0,0,0-2.36,3.524l2.2,10.633a5.947,5.947,0,0,0,3.956,4.441l12.307,4.075.006-.017v37.687H73.1V89.944H85.838a5.945,5.945,0,0,0,5.15-2.973l5.43-9.4a2.97,2.97,0,0,0-1.136-4.087Z" transform="translate(-29.289 -60.156)" fill="#3d46c1"/>
          <path id="Trazado_169117" data-name="Trazado 169117" d="M67.369,139.34a1.1,1.1,0,0,1-1.1-1.1V127.859a1.1,1.1,0,1,1,2.2,0V138.24A1.1,1.1,0,0,1,67.369,139.34Z" transform="translate(-35.646 -70.69)" fill="#12263f"/>
          <path id="Trazado_169118" data-name="Trazado 169118" d="M76.45,118.481H53.621a1.1,1.1,0,1,1,0-2.2H76.45a1.1,1.1,0,1,1,0,2.2Z" transform="translate(-33.21 -68.833)" fill="#12263f"/>
          <path id="Trazado_169119" data-name="Trazado 169119" d="M72.862,128.569H48.683a1.1,1.1,0,0,1-1.1-1.1V90.6L36.025,86.768A7.074,7.074,0,0,1,31.337,81.5l-2.2-10.633A4.073,4.073,0,0,1,37.111,69.2l1.956,9.2a2.529,2.529,0,0,0,1.668,1.865l8.026,2.657L58.3,77.049a1.119,1.119,0,0,1,.576-.163h3.793a1.086,1.086,0,0,1,.576.163l9.921,6.1H83.176a2.522,2.522,0,0,0,2.169-1.244l4.746-8.115a4.045,4.045,0,0,1,5.486-1.507h0a4.069,4.069,0,0,1,1.554,5.6l-5.43,9.4a7.074,7.074,0,0,1-6.1,3.524H73.962v36.659a1.1,1.1,0,0,1-1.1,1.1Zm-23.076-2.2H71.762V89.707a1.1,1.1,0,0,1,1.1-1.1H85.6a4.856,4.856,0,0,0,4.2-2.424l5.43-9.4a1.868,1.868,0,0,0-.715-2.571h0a1.861,1.861,0,0,0-2.521.693l-4.746,8.115a4.732,4.732,0,0,1-4.07,2.336H72.853a1.086,1.086,0,0,1-.576-.163l-9.921-6.1H59.184L49.47,85.061a1.1,1.1,0,0,1-.923.108l-8.511-2.82a4.735,4.735,0,0,1-3.131-3.5l-1.956-9.2a1.87,1.87,0,0,0-3.66.77l2.2,10.633a4.862,4.862,0,0,0,3.225,3.621l12.174,4.031a1.093,1.093,0,0,1,.892,1.072v36.587Z" transform="translate(-29.051 -59.919)"/>
          <circle id="Elipse_5903" data-name="Elipse 5903" cx="1.887" cy="1.887" r="1.887" transform="translate(29.255 26.429) rotate(-22.38)" fill="#12263f"/>
          <path id="Trazado_169120" data-name="Trazado 169120" d="M69.082,99.443A1.887,1.887,0,1,1,67.2,97.556,1.887,1.887,0,0,1,69.082,99.443Z" transform="translate(-35.476 -65.515)" fill="#12263f"/>
          <path id="Trazado_169121" data-name="Trazado 169121" d="M66.144,78.159h0a6.788,6.788,0,0,1-6.788-6.788V66.736a6.788,6.788,0,0,1,6.788-6.788h0a6.788,6.788,0,0,1,6.788,6.788v4.635A6.788,6.788,0,0,1,66.144,78.159Z" transform="translate(-34.421 -58.851)" fill="#ffd4a2"/>
          <path id="Trazado_169122" data-name="Trazado 169122" d="M66.144,59.952a6.788,6.788,0,0,0-6.788,6.788v4.635a6.768,6.768,0,0,0,2.4,5.173,6.762,6.762,0,0,0,1.684.211h0a6.918,6.918,0,0,0,5.652-3.027,6.514,6.514,0,0,0,1.136-3.76V65.335a6.768,6.768,0,0,0-2.4-5.173,6.762,6.762,0,0,0-1.684-.211Z" transform="translate(-34.421 -58.852)" fill="#ffd4a2"/>
          <path id="Trazado_169123" data-name="Trazado 169123" d="M65.907,79.026a7.9,7.9,0,0,1-7.888-7.888V66.5a7.888,7.888,0,0,1,15.775,0v4.635A7.9,7.9,0,0,1,65.907,79.026Zm0-18.211A5.694,5.694,0,0,0,60.219,66.5v4.635a5.688,5.688,0,0,0,11.376,0V66.5A5.694,5.694,0,0,0,65.907,60.815Z" transform="translate(-34.184 -58.615)"/>
        </g>
        <g id="Grupo_114470" data-name="Grupo 114470">
          <path id="Trazado_169124" data-name="Trazado 169124" d="M33.61,35.1H54.186a3.679,3.679,0,0,1,3.679,3.679V50.146a3.679,3.679,0,0,1-3.679,3.679H42.705V59.9L37.242,54.18l-.205-.355H33.61a3.679,3.679,0,0,1-3.679-3.679V38.782A3.679,3.679,0,0,1,33.61,35.1Z" transform="translate(-28.831 -34.003)" fill="#75b52f"/>
          <path id="Trazado_169125" data-name="Trazado 169125" d="M41.665,60.41l-5.342-5.721H33.373a4.785,4.785,0,0,1-4.779-4.779V38.545a4.785,4.785,0,0,1,4.779-4.779H53.949a4.785,4.785,0,0,1,4.779,4.779V49.909a4.785,4.785,0,0,1-4.779,4.779H43.568v4.97a1.1,1.1,0,0,1-.7,1.025,1.082,1.082,0,0,1-.4.078,1.106,1.106,0,0,1-.806-.349ZM33.373,35.965A2.579,2.579,0,0,0,30.8,38.545V49.909a2.579,2.579,0,0,0,2.577,2.577H36.8a1.1,1.1,0,0,1,.8.349l3.762,4.031v-3.28a1.1,1.1,0,0,1,1.1-1.1H53.947a2.579,2.579,0,0,0,2.577-2.577V38.545a2.581,2.581,0,0,0-2.577-2.579Z" transform="translate(-28.594 -33.766)"/>
          <g id="Grupo_114469" data-name="Grupo 114469" transform="translate(5.051 7.522)">
            <path id="Trazado_169126" data-name="Trazado 169126" d="M35.869,45.107H53.645a1.1,1.1,0,1,0,0-2.2H35.869a1.1,1.1,0,1,0,0,2.2Z" transform="translate(-34.739 -42.907)"/>
            <path id="Trazado_169127" data-name="Trazado 169127" d="M35.832,51.033H44.72a1.1,1.1,0,0,0,0-2.2H35.832a1.1,1.1,0,1,0,0,2.2Z" transform="translate(-34.732 -43.958)"/>
          </g>
        </g>
      </g>
      <g id="Grupo_114472" data-name="Grupo 114472" transform="translate(96.003 39.165)">
        <path id="Trazado_169128" data-name="Trazado 169128" d="M118.207,40.776h4.067a7.24,7.24,0,0,1,7.237,7.237v4.951H110.967V48.013a7.24,7.24,0,0,1,7.237-7.237Z" transform="translate(-110.599 -40.408)" fill="#fff"/>
        <path id="Trazado_169129" data-name="Trazado 169129" d="M129.434,53.255H110.891a.371.371,0,0,1-.371-.371V42.309a1.982,1.982,0,0,1,1.981-1.981h15.321a1.984,1.984,0,0,1,1.981,1.981V52.884a.371.371,0,0,1-.371.371Zm-18.175-.74h17.8V42.309a1.243,1.243,0,0,0-1.241-1.241H112.5a1.243,1.243,0,0,0-1.241,1.241Z" transform="translate(-110.52 -40.328)" fill="#12263f"/>
        <path id="Trazado_169130" data-name="Trazado 169130" d="M116.341,54.478V53.431a2.534,2.534,0,0,1,1.205-2.158L120.43,49.5h1.524l2.884,1.776a2.534,2.534,0,0,1,1.205,2.158v1.047h-9.705Z" transform="translate(-111.551 -41.953)" fill="#f75316"/>
        <path id="Trazado_169131" data-name="Trazado 169131" d="M125.967,54.77h-9.705a.371.371,0,0,1-.371-.371V53.351a2.923,2.923,0,0,1,1.382-2.474l2.884-1.776a.367.367,0,0,1,.194-.055h1.524a.367.367,0,0,1,.194.055l2.884,1.776a2.923,2.923,0,0,1,1.382,2.474V54.4a.371.371,0,0,1-.371.371Zm-9.334-.74H125.6v-.676a2.174,2.174,0,0,0-1.031-1.842l-2.8-1.72h-1.313l-2.8,1.72a2.18,2.18,0,0,0-1.031,1.842Z" transform="translate(-111.471 -41.873)" fill="#12263f"/>
        <path id="Trazado_169132" data-name="Trazado 169132" d="M121.722,49.454h0a2.394,2.394,0,0,1-2.394-2.394V45.426a2.394,2.394,0,0,1,2.394-2.394h0a2.394,2.394,0,0,1,2.394,2.394V47.06A2.394,2.394,0,0,1,121.722,49.454Z" transform="translate(-112.08 -40.807)" fill="#ffd4a2"/>
        <path id="Trazado_169133" data-name="Trazado 169133" d="M121.642,49.742a2.767,2.767,0,0,1-2.762-2.765V45.342a2.762,2.762,0,1,1,5.524,0v1.635A2.767,2.767,0,0,1,121.642,49.742Zm0-6.425a2.025,2.025,0,0,0-2.022,2.025v1.635a2.022,2.022,0,1,0,4.045,0V45.342A2.027,2.027,0,0,0,121.642,43.317Z" transform="translate(-112.001 -40.727)" fill="#12263f"/>
      </g>
    </g>
  </g>
</svg>
