<svg xmlns="http://www.w3.org/2000/svg" width="306" height="233.608" viewBox="0 0 306 233.608">
  <g id="Capa_1" data-name="Capa 1" transform="translate(20 15.269)">
    <g id="Focus_groups" data-name="Focus groups" transform="translate(-20 -15.269)">
      <path id="Trazado_168936" data-name="Trazado 168936" d="M303.543,178.419C283.964,225.758,136.1,258.229,55.324,207.97,30.984,192.829,5.96,165.875.9,131.689c-3.936-26.645,5.862-48.07,12.484-59.256A121.07,121.07,0,0,1,44,38.553c12.578-9.677,27.512-17.568,43.375-23.8a200.946,200.946,0,0,1,45.09-11.711A302.677,302.677,0,0,1,175.678,0a259.622,259.622,0,0,1,42.845,3.308c12.376,2.076,24.71,5.253,35.427,10.506,6.607,3.238,12.587,7.334,16.87,12.39,11.786,13.927-16.9,17.353-4.3,48.675,13.847,34.42,34.434,44.054,38.342,76.473,1.232,10.192,2.231,18.477-1.321,27.062Z" transform="translate(0 0)" fill="#dce736" opacity="0.503"/>
      <g id="Grupo_114361" data-name="Grupo 114361" transform="translate(147.219 81.599)">
        <path id="Trazado_168937" data-name="Trazado 168937" d="M114.968,55.333v7.549c0,10.82-8.505,19.6-18.993,19.6s-19,8.772-19,19.6a1.743,1.743,0,0,0,1.739,1.748H129c15.727,0,28.478-13.154,28.478-29.377v-20.1a11.508,11.508,0,0,0-11.326-11.683h-18.9a12.48,12.48,0,0,0-12.282,12.667Z" transform="translate(-76.977 -42.666)" fill="#75b62f"/>
        <rect id="Rectángulo_42471" data-name="Rectángulo 42471" width="5.291" height="57.419" transform="translate(32.62 64.237)" fill="#99b9ff"/>
        <path id="Trazado_168938" data-name="Trazado 168938" d="M82.449,106.815l23.421-2.062h2.146l23.909,2.062V109.3H82.449Z" transform="translate(-71.985 13.988)" fill="#99b9ff"/>
      </g>
      <g id="Grupo_114382" data-name="Grupo 114382" transform="translate(72.255 49.863)">
        <g id="Grupo_114362" data-name="Grupo 114362" transform="translate(0 17.158)">
          <path id="Trazado_168939" data-name="Trazado 168939" d="M95.5,52.171V67.134c0,14.635,11.551,26.5,25.8,26.5s25.8,11.861,25.8,26.5a2.36,2.36,0,0,1-2.357,2.362H76.455c-21.359,0-38.675-17.784-38.675-39.72V50.841a15.594,15.594,0,0,1,15.38-15.8H78.826A16.908,16.908,0,0,1,95.5,52.171Z" transform="translate(-37.781 -35.044)" fill="#75b62f"/>
          <rect id="Rectángulo_42472" data-name="Rectángulo 42472" width="6.186" height="72.077" transform="translate(49.846 60.474)" fill="#99b9ff"/>
          <path id="Trazado_168940" data-name="Trazado 168940" d="M108.23,106.721l-27.386-2.4H78.332l-27.957,2.4v1.912H108.23Z" transform="translate(-26.288 28.169)" fill="#99b9ff"/>
        </g>
        <g id="Grupo_114381" data-name="Grupo 114381" transform="translate(11.792)">
          <g id="Grupo_114367" data-name="Grupo 114367" transform="translate(0 74.381)">
            <g id="Grupo_114363" data-name="Grupo 114363" transform="translate(48.131 52.611)">
              <path id="Trazado_168941" data-name="Trazado 168941" d="M69.333,104.753c.633-.642,4.307-12.062,4.307-12.062l7.249,5.173-7.948,10.689-3.6-3.8Z" transform="translate(-68.912 -92.275)" fill="#ffd4a2"/>
              <path id="Trazado_168942" data-name="Trazado 168942" d="M73.137,109.178a.415.415,0,0,1-.3-.131l-3.6-3.8a.422.422,0,0,1,0-.581c.469-.59,2.83-7.61,4.208-11.9A.428.428,0,0,1,73.7,92.5a.423.423,0,0,1,.38.056l7.249,5.174a.418.418,0,0,1,.173.276.412.412,0,0,1-.08.319l-7.948,10.689a.416.416,0,0,1-.314.169h-.023Zm-3.083-4.283,3.041,3.21,7.395-9.939L74.06,93.578c-.933,2.887-3.14,9.616-4.007,11.322Z" transform="translate(-69.113 -92.474)"/>
            </g>
            <g id="Grupo_114364" data-name="Grupo 114364" transform="translate(43.477 59.576)">
              <path id="Trazado_168943" data-name="Trazado 168943" d="M84.819,116.071,80,116.042a9.481,9.481,0,0,1-7.9-4.316l-4.766-7.554a4.246,4.246,0,0,1,1.6-6.012c1.992-1.059,4.077-2.09,4.564-2.043.993.094,1.392,4.789,1.392,4.789l4.3.164s2.123,8.829,3.988,9.831a8.2,8.2,0,0,1,2.948,2.784,1.537,1.537,0,0,1-1.3,2.376Z" transform="translate(-66.679 -96.116)" fill="#5479f7"/>
              <path id="Trazado_168944" data-name="Trazado 168944" d="M83.735,112.446h-.066l-6.6-.993a5.407,5.407,0,0,1-3.847-2.582l-5.83-9.742a.424.424,0,0,1,.726-.436l5.83,9.742a4.577,4.577,0,0,0,3.252,2.179l6.6.993a.422.422,0,0,1-.061.839Z" transform="translate(-66.083 -93.953)" fill="#caddff"/>
              <path id="Trazado_168945" data-name="Trazado 168945" d="M71.855,102.837a.422.422,0,0,1-.112-.829l3.674-1a.423.423,0,1,1,.225.815l-3.674,1A.463.463,0,0,1,71.855,102.837Z" transform="translate(-62.343 -91.668)" fill="#caddff"/>
              <path id="Trazado_168946" data-name="Trazado 168946" d="M72.853,103.633a.423.423,0,0,1-.1-.834l2.465-.6a.422.422,0,0,1,.2.82l-2.465.6a.357.357,0,0,1-.1.014Z" transform="translate(-61.429 -90.58)" fill="#caddff"/>
            </g>
            <g id="Grupo_114365" data-name="Grupo 114365" transform="translate(72.874 58.487)">
              <path id="Trazado_168947" data-name="Trazado 168947" d="M82.268,99.768,92.633,111.4l4.92-2.371L87.389,95.766Z" transform="translate(-81.852 -95.345)" fill="#ffd4a2"/>
              <path id="Trazado_168948" data-name="Trazado 168948" d="M92.831,112.026a.427.427,0,0,1-.314-.141L82.156,100.25a.4.4,0,0,1-.1-.319.423.423,0,0,1,.159-.3l5.122-4a.419.419,0,0,1,.314-.084.409.409,0,0,1,.281.164L98.094,108.98a.434.434,0,0,1,.075.356.424.424,0,0,1-.225.281l-4.92,2.371a.417.417,0,0,1-.183.042Zm-9.747-12,9.85,11.059,4.166-2.01L87.513,96.557l-4.428,3.463Z" transform="translate(-82.05 -95.546)"/>
            </g>
            <g id="Grupo_114366" data-name="Grupo 114366" transform="translate(79.155 67.76)">
              <path id="Trazado_168949" data-name="Trazado 168949" d="M86.395,104.078a7.183,7.183,0,0,0-.886,5.384,3.7,3.7,0,0,0,3.627,2.887H109.8a1.58,1.58,0,0,0,1.012-2.793c-3.674-3.079-10.431-7.779-18.74-9.161l.253,4.541-5.928-.862Z" transform="translate(-85.335 -100.395)" fill="#5479f7"/>
              <path id="Trazado_168950" data-name="Trazado 168950" d="M108.03,105.783H86.619a.422.422,0,1,1,0-.844H108.03a.422.422,0,1,1,0,.844Z" transform="translate(-84.547 -96.247)" fill="#caddff"/>
              <path id="Trazado_168951" data-name="Trazado 168951" d="M91.566,105.108a.388.388,0,0,1-.159-.033.424.424,0,0,1-.23-.553l1.134-2.751a.423.423,0,0,1,.783.323l-1.134,2.751a.42.42,0,0,1-.389.262Z" transform="translate(-80.033 -99.377)" fill="#caddff"/>
              <path id="Trazado_168952" data-name="Trazado 168952" d="M93.516,105.358a.325.325,0,0,1-.131-.023.423.423,0,0,1-.267-.534l.82-2.479a.422.422,0,1,1,.8.267l-.82,2.479a.42.42,0,0,1-.4.291Z" transform="translate(-78.253 -98.9)" fill="#caddff"/>
            </g>
            <path id="Trazado_168953" data-name="Trazado 168953" d="M60.969,67.382s38.473-4.48,49.912,5.426-18.06,52.513-18.06,52.513l-9.33-6.921,8.847-30.113-35.563-10.1,4.189-10.8Z" transform="translate(-32.24 -63.681)" fill="#5479f7"/>
            <path id="Trazado_168954" data-name="Trazado 168954" d="M51.5,88.276c5.591,1.776,15.586,4.068,29.565,3.875a10.432,10.432,0,0,1,9.443,5.68c4.138,8.121,13.1,22.746,27.695,32.222l6.973-3.758L107.385,86.229a14.777,14.777,0,0,0-8.421-7.877L63.706,65.418s-10.933-3.055-16.294,6.706c-.956,1.743-2.737-1.373-3.158.033C42.8,76.978,46.7,86.749,51.5,88.272Z" transform="translate(-43.946 -64.965)" fill="#5479f7"/>
            <path id="Trazado_168955" data-name="Trazado 168955" d="M98.191,103.614a.423.423,0,0,1-.389-.253L89,83.173a14.453,14.453,0,0,0-8.177-7.652l-16.884-6.2a.424.424,0,0,1,.291-.8l16.884,6.2a15.3,15.3,0,0,1,8.66,8.1l8.8,20.188a.419.419,0,0,1-.22.558.439.439,0,0,1-.169.037Z" transform="translate(-25.956 -61.736)"/>
            <path id="Trazado_168956" data-name="Trazado 168956" d="M78.862,96.869a.412.412,0,0,1-.3-.131c-1.621-1.687-3.215-3.5-4.738-5.38a.423.423,0,0,1,.656-.534c1.509,1.865,3.088,3.66,4.691,5.323a.422.422,0,0,1-.014.6.411.411,0,0,1-.291.117Z" transform="translate(-16.772 -41.509)" fill="#fff"/>
            <path id="Trazado_168957" data-name="Trazado 168957" d="M75.6,93.389a.422.422,0,0,1-.328-.155c-.759-.937-2.329-2.962-3.06-3.941a.422.422,0,0,1,.675-.506c.726.975,2.287,2.985,3.037,3.913a.428.428,0,0,1-.061.6.441.441,0,0,1-.267.094Z" transform="translate(-18.228 -43.38)"/>
          </g>
          <g id="Grupo_114371" data-name="Grupo 114371" transform="translate(20.069)">
            <g id="Grupo_114368" data-name="Grupo 114368" transform="translate(0 12.126)">
              <path id="Trazado_168958" data-name="Trazado 168958" d="M64.623,36.044l.6,8.28a2.651,2.651,0,0,0,1.954,2.24c-4.452,2.6-11.083,2.769-12.512-.216,1.036-.23,1.837-1.71,2.024-2.755l1.593-10.956,6.345,3.411Z" transform="translate(-54.239 -32.208)" fill="#ffd4a2"/>
              <path id="Trazado_168959" data-name="Trazado 168959" d="M60,49.173a9.636,9.636,0,0,1-2.816-.38,4.194,4.194,0,0,1-2.7-2.062.417.417,0,0,1,0-.366.426.426,0,0,1,.286-.23c.778-.173,1.518-1.415,1.7-2.423l1.593-10.942a.409.409,0,0,1,.23-.314.422.422,0,0,1,.389,0l6.345,3.412a.423.423,0,0,1,.22.342l.6,8.28a2.2,2.2,0,0,0,1.64,1.86.422.422,0,0,1,.1.773,15.744,15.744,0,0,1-7.591,2.043ZM55.48,46.755a3.75,3.75,0,0,0,1.949,1.232c2.451.75,6.1.253,8.983-1.181A3.052,3.052,0,0,1,65,44.581l-.581-8.069-5.609-3.018L57.3,43.855A4.472,4.472,0,0,1,55.48,46.76Z" transform="translate(-54.44 -32.413)"/>
            </g>
            <g id="Grupo_114370" data-name="Grupo 114370" transform="translate(2.157)">
              <path id="Trazado_168960" data-name="Trazado 168960" d="M73.2,30.512c-1.992-1.054-.389,2.226-6.931-3.44-2.605-2.254-2.7,1.954-3.379,1.373-2.5-2.156-2.413-2.085-3.993-2.357-1.045-.183-2.446,1.261-2.859,2.629-.548,1.8.651,2.882.239,7.034-.286,2.915-1.2,4.349-.366,5.178s2.231-.187,3.229.656c1.289,1.092-.183,3.524.769,5.248.6,1.087,2.573,2.366,6.72,2.268a1.4,1.4,0,0,0,1.35-1.176c.141-.853.314-1.931.389-2.976.37-4.977-.7-6.631.356-7.484,1.617-1.3,4.363,1.125,5.53-.019,1.209-1.19,1.664-5.487-1.059-6.926Z" transform="translate(-55.568 -26.072)"/>
              <g id="Grupo_114369" data-name="Grupo 114369" transform="translate(7.144 6.285)">
                <path id="Trazado_168961" data-name="Trazado 168961" d="M59.689,30.106l.084,1.359a14.6,14.6,0,0,1-.014,1.921c-.094,1.2-.239,3.266-.23,4.428.009,1.71,5.291,2.043,5.291,2.043l.67-.745.619.028a.661.661,0,0,0,.7-.773,23.963,23.963,0,0,1-.2-7.432,7.212,7.212,0,0,0-6.912-.834Z" transform="translate(-59.098 -29.159)" fill="#ffd4a2"/>
                <path id="Trazado_168962" data-name="Trazado 168962" d="M65.016,40.484h-.028c-.947-.061-5.67-.459-5.684-2.46-.009-1.195.141-3.308.23-4.466a13.762,13.762,0,0,0,.014-1.865l-.084-1.359a.424.424,0,0,1,.267-.417,7.591,7.591,0,0,1,7.334.9.418.418,0,0,1,.15.4A23.763,23.763,0,0,0,67.42,38.5a1.1,1.1,0,0,1-.572,1.143,1.125,1.125,0,0,1-.562.117l-.422-.019-.539.6a.427.427,0,0,1-.314.141ZM60.33,30.6l.066,1.045a13.991,13.991,0,0,1-.019,1.982c-.089,1.143-.234,3.233-.23,4.4,0,.867,2.732,1.457,4.691,1.607l.534-.59a.426.426,0,0,1,.333-.141l.619.028a.3.3,0,0,0,.136-.023.239.239,0,0,0,.131-.258,24.781,24.781,0,0,1-.248-7.315A6.749,6.749,0,0,0,60.33,30.6Z" transform="translate(-59.303 -29.359)"/>
              </g>
              <path id="Trazado_168963" data-name="Trazado 168963" d="M60.331,33.426s-.2-3.271-1.659-2.859S57.51,34.574,60.331,33.426Z" transform="translate(-53.524 -22.004)" fill="#ffd4a2"/>
            </g>
          </g>
          <g id="Grupo_114380" data-name="Grupo 114380" transform="translate(0.48 23.918)">
            <g id="Grupo_114374" data-name="Grupo 114374" transform="translate(4.271 2.644)">
              <g id="Grupo_114372" data-name="Grupo 114372" transform="translate(33.475 19.838)">
                <path id="Trazado_168964" data-name="Trazado 168964" d="M74.226,50.725s3.383,30.741,26.106,32.751l-26.106.37s-9.667-19.6-10.061-27.226S74.226,50.725,74.226,50.725Z" transform="translate(-63.732 -50.131)" fill="#fff"/>
                <path id="Trazado_168965" data-name="Trazado 168965" d="M74.428,84.471a.421.421,0,0,1-.38-.234c-.4-.8-9.71-19.761-10.1-27.39a5.51,5.51,0,0,1,1.715-4.635c2.952-2.638,8.594-1.739,8.833-1.7a.428.428,0,0,1,.351.37,56.343,56.343,0,0,0,4.5,15.511c4.822,10.375,11.964,16.05,21.219,16.865a.419.419,0,0,1,.384.436.426.426,0,0,1-.417.408l-26.106.37h0Zm-2.409-33.29c-1.814,0-4.264.291-5.792,1.659a4.7,4.7,0,0,0-1.434,3.96c.361,7.006,8.8,24.565,9.9,26.823l21.476-.3C88.725,81.252,82.7,75.591,78.58,66.725A57.677,57.677,0,0,1,74.053,51.3a17.618,17.618,0,0,0-2.034-.117Z" transform="translate(-63.933 -50.334)"/>
              </g>
              <g id="Grupo_114373" data-name="Grupo 114373">
                <path id="Trazado_168966" data-name="Trazado 168966" d="M57.86,40.655c4.41-1.036,6.251.262,22.268-.469,2.521-.117,4.564,1.912,5.8,3.557a7.755,7.755,0,0,1,1.143,2.127S82.176,71.312,92.2,85.717a31.107,31.107,0,0,0,6.012,6.434,20.069,20.069,0,0,1-6.926,3.7c-5.169,1.537-7.77-.127-11.936,0-11.022.328-15.061,12.606-22.179,11.064-1.9-.412-4.419-1.893-6.781-6.87A76.3,76.3,0,0,1,47.2,85.6a79.2,79.2,0,0,1,3.772-34.949c.783-2.446,1.687-8.777,6.884-10Z" transform="translate(-46.229 -39.76)" fill="#fff"/>
                <path id="Trazado_168967" data-name="Trazado 168967" d="M58.632,107.681a6.372,6.372,0,0,1-1.34-.145c-2.737-.6-5.117-2.98-7.071-7.1l-.019-.052a77.3,77.3,0,0,1-3.21-14.522,79.015,79.015,0,0,1,3.791-35.137c.1-.323.211-.726.337-1.195.8-2.98,2.132-7.971,6.851-9.082a23.025,23.025,0,0,1,6.715-.366c2.98.1,7.479.258,15.628-.117,2.69-.122,4.831,1.959,6.153,3.725a8.255,8.255,0,0,1,1.209,2.254l.033.1-.019.1c-.047.253-4.742,25.436,5.07,39.527a30.769,30.769,0,0,0,5.933,6.35l.408.328-.408.328a20.573,20.573,0,0,1-7.071,3.782A16.769,16.769,0,0,1,83.6,96.8a22.455,22.455,0,0,0-4.016-.323c-5.614.169-9.4,3.547-12.737,6.532-2.779,2.484-5.23,4.672-8.2,4.672Zm-7.643-7.587c1.837,3.857,4.016,6.078,6.476,6.612,3.187.689,5.787-1.635,8.8-4.33,3.449-3.079,7.357-6.57,13.276-6.748a22.936,22.936,0,0,1,4.161.333,15.857,15.857,0,0,0,7.666-.314,19.583,19.583,0,0,0,6.373-3.3,31.83,31.83,0,0,1-5.689-6.186C86.81,78.627,85.676,68.1,85.648,60.59A85.5,85.5,0,0,1,86.829,46.1a7.54,7.54,0,0,0-1.045-1.907c-1.2-1.6-3.121-3.491-5.441-3.388-8.182.375-12.7.22-15.7.117a22.07,22.07,0,0,0-6.495.342c-4.232.993-5.483,5.68-6.228,8.477-.127.478-.239.89-.351,1.237A78.221,78.221,0,0,0,47.817,85.75a76.17,76.17,0,0,0,3.168,14.34Z" transform="translate(-46.43 -39.961)"/>
              </g>
              <path id="Trazado_168968" data-name="Trazado 168968" d="M75.784,63.209S71.89,43.143,65.723,40.65a74.465,74.465,0,0,1,3.121,26.167c-.014.384,1.115.394,1.443.183l5.5-3.8Z" transform="translate(-28.825 -39.333)" fill="#fff"/>
              <path id="Trazado_168969" data-name="Trazado 168969" d="M69.208,68.865l-.042-.726c0-.08-.455-8.2-.5-14.255a.426.426,0,0,1,.417-.426h0a.422.422,0,0,1,.422.417c.033,4.977.347,11.354.459,13.487l6-3.894c-.558-2.474-4.775-20.319-10.694-22.493a.418.418,0,0,1-.248-.544.424.424,0,0,1,.544-.253c6.762,2.484,11.106,22.54,11.289,23.393l.061.286-7.709,5Z" transform="translate(-29.489 -39.788)"/>
            </g>
            <g id="Grupo_114377" data-name="Grupo 114377" transform="translate(0 2.738)">
              <g id="Grupo_114375" data-name="Grupo 114375" transform="translate(0.975 22.386)">
                <path id="Trazado_168970" data-name="Trazado 168970" d="M97.1,79.731a7.717,7.717,0,0,0-5.97-3.571c-7.123.4-21.561-3.758-31.8-8.594-1.771-2.573-1.279-8.876-2.085-15.633l-11.5.094A46.714,46.714,0,0,0,46.873,74.1a67.868,67.868,0,0,0,23.154,8.243c7.249,1.12,19.021,1.617,19.162,1.626,0,0,8.73,4.616,12.5-.4A12.318,12.318,0,0,1,97.1,79.727Z" transform="translate(-44.51 -51.516)" fill="#ffd4a2"/>
                <path id="Trazado_168971" data-name="Trazado 168971" d="M96.658,86.547a18.193,18.193,0,0,1-7.381-1.959H89.2c-2.868-.136-12.723-.651-19.035-1.626a69.021,69.021,0,0,1-23.3-8.29.42.42,0,0,1-.2-.248,47.231,47.231,0,0,1-1.139-22.273.422.422,0,0,1,.412-.342l11.5-.094h0a.417.417,0,0,1,.417.37c.276,2.31.4,4.606.515,6.631.211,3.8.389,7.085,1.439,8.721,10.783,5.066,24.888,8.876,31.5,8.5,1.832-.1,4.775,1.307,6.35,3.768a12.028,12.028,0,0,0,4.41,3.683.4.4,0,0,1,.23.281.439.439,0,0,1-.07.356,6.6,6.6,0,0,1-5.567,2.521ZM47.431,74.021a68.225,68.225,0,0,0,22.864,8.112c6.27.97,16.087,1.476,18.946,1.612l.183.009a.348.348,0,0,1,.164.047c.08.042,7.971,4.138,11.645.108a12.152,12.152,0,0,1-4.283-3.749,7.324,7.324,0,0,0-5.591-3.379c-7.568.426-22.5-4.147-32.011-8.632a.446.446,0,0,1-.169-.141c-1.237-1.8-1.415-5.084-1.645-9.246-.1-1.9-.225-4.044-.464-6.2L46.3,52.652a46.322,46.322,0,0,0,1.134,21.373Z" transform="translate(-44.707 -51.715)"/>
              </g>
              <g id="Grupo_114376" data-name="Grupo 114376" transform="translate(48.735 51.096)">
                <path id="Trazado_168972" data-name="Trazado 168972" d="M76.846,70.717c-.59,0-2.905-.216-6.251-3.257a.418.418,0,0,1-.028-.6.422.422,0,0,1,.6-.028c3.5,3.182,5.731,3.037,5.75,3.037a.422.422,0,0,1,.084.839c-.014,0-.061,0-.145,0Z" transform="translate(-68.972 -66.727)"/>
                <path id="Trazado_168973" data-name="Trazado 168973" d="M75.286,71.052c-.7,0-2.685-.248-5.459-2.657a.422.422,0,0,1,.553-.637c3.069,2.671,5.028,2.446,5.047,2.446a.422.422,0,1,1,.131.834C75.539,71.038,75.45,71.052,75.286,71.052Z" transform="translate(-69.68 -65.882)"/>
              </g>
              <path id="Trazado_168974" data-name="Trazado 168974" d="M44.576,67.387a.139.139,0,0,1-.155-.15c.089-1.476.792-12.507,1.785-16.954,2.245-10.038,16.083-10.052,16.083-10.052a63.857,63.857,0,0,0-2.563,24.757.878.878,0,0,1-.787.97L44.571,67.382Z" transform="translate(-43.994 -39.809)" fill="#fff"/>
              <path id="Trazado_168975" data-name="Trazado 168975" d="M44.761,68.01a.55.55,0,0,1-.389-.159.572.572,0,0,1-.173-.441c.08-1.27.787-12.517,1.795-17.02,2.292-10.249,16.355-10.38,16.5-10.38h0a.422.422,0,0,1,0,.843c-.136,0-13.529.136-15.675,9.724-.933,4.175-1.612,14.311-1.757,16.556L59.1,65.742a.46.46,0,0,0,.408-.506c-.183-1.776-.281-3.594-.3-5.394a.426.426,0,0,1,.417-.426h0a.422.422,0,0,1,.422.417c.014,1.776.112,3.566.3,5.319a1.3,1.3,0,0,1-1.162,1.429L44.807,68.005h-.056Z" transform="translate(-44.197 -40.01)"/>
            </g>
            <g id="Grupo_114378" data-name="Grupo 114378" transform="translate(22.541 3.582)">
              <path id="Trazado_168976" data-name="Trazado 168976" d="M62.586,40.451l-6.6.511,2.709,4.574,3.388-.169Z" transform="translate(-55.984 -40.451)" fill="#3d46c2"/>
              <path id="Trazado_168977" data-name="Trazado 168977" d="M67.564,69.8l-3.219,4.236L59.6,70.984,57.4,43.19l3.388-.169Z" transform="translate(-54.691 -38.106)" fill="#3d46c2"/>
            </g>
            <g id="Grupo_114379" data-name="Grupo 114379" transform="translate(17.714)">
              <path id="Trazado_168978" data-name="Trazado 168978" d="M66.328,39.25l3.163,2.484-4.742,2.938L62.04,41.621,59.1,45.464a13.133,13.133,0,0,0-5.422-4.292L57.406,38.8c3.875,2.788,6.621,2.273,8.922.45Z" transform="translate(-53.258 -38.377)" fill="#fff"/>
              <path id="Trazado_168979" data-name="Trazado 168979" d="M59.3,46.087H59.29a.408.408,0,0,1-.337-.183A12.9,12.9,0,0,0,53.7,41.752a.42.42,0,0,1-.042-.736l3.725-2.371a.417.417,0,0,1,.473.014c3.257,2.343,5.853,2.488,8.412.464a.422.422,0,0,1,.525,0l3.163,2.484a.415.415,0,0,1,.159.356.439.439,0,0,1-.2.337l-4.742,2.938a.423.423,0,0,1-.539-.08l-2.371-2.666-2.624,3.435a.429.429,0,0,1-.337.164Zm-4.564-4.761a13.656,13.656,0,0,1,4.574,3.632L61.9,41.565a.42.42,0,0,1,.319-.164.443.443,0,0,1,.333.141l2.474,2.784,3.927-2.432L66.52,39.981c-2.723,2.006-5.576,1.851-8.932-.478L54.73,41.321Z" transform="translate(-53.459 -38.579)"/>
            </g>
          </g>
        </g>
      </g>
      <g id="Grupo_114404" data-name="Grupo 114404" transform="translate(51.837 51.102)">
        <g id="Grupo_114394" data-name="Grupo 114394" transform="translate(85.212 82.013)">
          <g id="Grupo_114386" data-name="Grupo 114386" transform="translate(38.706 50.221)">
            <g id="Grupo_114383" data-name="Grupo 114383" transform="translate(0.176)">
              <path id="Trazado_168980" data-name="Trazado 168980" d="M103.162,107.514c-.6-.609-4.082-11.429-4.082-11.429l-6.87,4.906,7.535,10.127,3.416-3.6Z" transform="translate(-91.79 -95.66)" fill="#ffd4a2"/>
              <path id="Trazado_168981" data-name="Trazado 168981" d="M99.947,111.737h-.023a.431.431,0,0,1-.314-.169l-7.535-10.127a.449.449,0,0,1-.08-.319.418.418,0,0,1,.173-.276l6.87-4.906a.422.422,0,0,1,.647.216c1.307,4.063,3.543,10.717,3.988,11.27a.412.412,0,0,1,0,.576l-3.416,3.6a.422.422,0,0,1-.3.131Zm-6.94-10.455,6.978,9.382,2.859-3.008c-.825-1.64-2.9-7.948-3.782-10.689l-6.05,4.321Z" transform="translate(-91.991 -95.862)" fill="#ffd4a2"/>
            </g>
            <g id="Grupo_114385" data-name="Grupo 114385" transform="translate(0 5.932)">
              <g id="Grupo_114384" data-name="Grupo 114384">
                <path id="Trazado_168982" data-name="Trazado 168982" d="M102.179,99.187l4.513,4.888a2.714,2.714,0,0,1,.084,3.59c-3.468,4.133-11.767,13.754-13.444,13.238-3.95-1.214,2.962-16.181,2.962-16.181a3.089,3.089,0,0,0,4-1.528l1.879-4Z" transform="translate(-91.704 -98.761)" fill="#5479f7"/>
                <path id="Trazado_168983" data-name="Trazado 168983" d="M93.681,121.55a.957.957,0,0,1-.276-.047,1.9,1.9,0,0,1-1.2-1.111c-1.617-3.618,3.679-15.164,3.908-15.656a.422.422,0,0,1,.548-.211,2.656,2.656,0,0,0,3.454-1.321l1.879-4a.423.423,0,0,1,.694-.108l4.513,4.888a3.146,3.146,0,0,1,.1,4.147C97.046,120.351,94.515,121.55,93.686,121.55Zm3.037-16.106c-1.575,3.5-4.911,11.982-3.74,14.607a1.086,1.086,0,0,0,.679.647c.614.15,4.049-2.441,12.995-13.107a2.3,2.3,0,0,0-.07-3.032l-4.086-4.424-1.612,3.43a3.5,3.5,0,0,1-4.161,1.879Z" transform="translate(-91.898 -98.964)"/>
              </g>
              <path id="Trazado_168984" data-name="Trazado 168984" d="M92.674,116.456a.419.419,0,0,1-.319-.694l10.033-11.847a.423.423,0,0,1,.6-.052.418.418,0,0,1,.047.6L93,116.306a.423.423,0,0,1-.323.15Z" transform="translate(-91.575 -94.582)"/>
            </g>
          </g>
          <g id="Grupo_114390" data-name="Grupo 114390" transform="translate(0 55.797)">
            <g id="Grupo_114387" data-name="Grupo 114387" transform="translate(12.72)">
              <path id="Trazado_168985" data-name="Trazado 168985" d="M92.2,102.791,88.011,107a4.69,4.69,0,0,0-1.331,2.784l-.426,3.932-7.723-2.924L87.341,99l4.855,3.8Z" transform="translate(-78.11 -98.58)" fill="#ffd4a2"/>
              <path id="Trazado_168986" data-name="Trazado 168986" d="M86.459,114.339a.406.406,0,0,1-.15-.028l-7.723-2.924a.432.432,0,0,1-.258-.276.419.419,0,0,1,.066-.37L87.2,98.945a.427.427,0,0,1,.281-.164.419.419,0,0,1,.314.084l4.855,3.8a.419.419,0,0,1,.159.3.413.413,0,0,1-.122.323L88.507,107.5a4.26,4.26,0,0,0-1.209,2.535l-.426,3.932a.422.422,0,0,1-.2.314.411.411,0,0,1-.22.061ZM79.411,110.8l6.687,2.531.366-3.393a5.088,5.088,0,0,1,1.448-3.037l3.852-3.871-4.138-3.233Z" transform="translate(-78.311 -98.778)" fill="#ffd4a2"/>
            </g>
            <g id="Grupo_114389" data-name="Grupo 114389" transform="translate(0 8.167)">
              <g id="Grupo_114388" data-name="Grupo 114388">
                <path id="Trazado_168987" data-name="Trazado 168987" d="M93.6,104.583l1.35,6.5a2.9,2.9,0,0,1-2.793,2.629c-5.764.187-19.349.45-20.132-1.251-1.851-4.011,15-9.194,15-9.194a3.245,3.245,0,0,0,3.964,2.067l2.615-.75Z" transform="translate(-71.457 -102.85)" fill="#5479f7"/>
                <path id="Trazado_168988" data-name="Trazado 168988" d="M84.533,114.477c-1.387,0-2.784-.014-4.119-.056-7.006-.206-8.262-.914-8.571-1.579a2.005,2.005,0,0,1,.023-1.724c1.72-3.857,14.677-7.882,15.225-8.051a.425.425,0,0,1,.525.267,2.822,2.822,0,0,0,3.449,1.8l2.615-.75a.433.433,0,0,1,.333.042.428.428,0,0,1,.2.276l1.35,6.5a.383.383,0,0,1,0,.127,3.331,3.331,0,0,1-3.2,3.013c-2.151.07-4.972.141-7.84.141Zm2.441-10.488c-3.894,1.232-13.079,4.653-14.335,7.474a1.166,1.166,0,0,0-.028,1.026c.281.6,4.752,1.5,19.738,1.008a2.488,2.488,0,0,0,2.381-2.188l-1.242-5.989-2.179.628a3.663,3.663,0,0,1-4.325-1.954Z" transform="translate(-71.66 -103.048)"/>
              </g>
              <path id="Trazado_168989" data-name="Trazado 168989" d="M89.978,108.123h0l-17.807-.061a.422.422,0,1,1,0-.843h0l17.807.061a.422.422,0,0,1,0,.843Z" transform="translate(-71.579 -99.243)"/>
            </g>
          </g>
          <g id="Grupo_114393" data-name="Grupo 114393" transform="translate(18.82)">
            <g id="Grupo_114391" data-name="Grupo 114391" transform="translate(0 2.501)">
              <path id="Trazado_168990" data-name="Trazado 168990" d="M131.521,72.1s-36.463-4.246-47.306,5.141S101.333,127,101.333,127l8.843-6.561L101.787,91.9l33.707-9.574L131.525,72.1Z" transform="translate(-81.304 -70.699)" fill="#99b9ff"/>
              <path id="Trazado_168991" data-name="Trazado 168991" d="M101.529,127.636a.5.5,0,0,1-.07,0,.424.424,0,0,1-.276-.178c-1.148-1.659-28.046-40.788-17.043-50.315,10.858-9.4,46.135-5.417,47.63-5.244a.435.435,0,0,1,.347.267L136.084,82.4a.434.434,0,0,1-.014.342.4.4,0,0,1-.262.216l-33.295,9.457,8.266,28.126a.419.419,0,0,1-.155.459l-8.843,6.561a.411.411,0,0,1-.253.084ZM113.722,71.8c-10.778,0-23.454,1.148-29.035,5.979-9.9,8.571,14.213,44.813,16.94,48.839l8.252-6.12-8.3-28.248a.411.411,0,0,1,.037-.323.417.417,0,0,1,.253-.2l33.262-9.447-3.711-9.564c-1.453-.155-8.95-.909-17.695-.909Z" transform="translate(-81.501 -70.91)" fill="#5479f7"/>
            </g>
            <g id="Grupo_114392" data-name="Grupo 114392" transform="translate(0.039)">
              <path id="Trazado_168992" data-name="Trazado 168992" d="M151.149,88.566c-5.3,1.682-14.663,5.281-27.554,6.209a11.438,11.438,0,0,0-9,6.176c-3.922,7.695-12.414,21.551-26.247,30.535l-6.607-3.561L98.6,89.962a14,14,0,0,1,7.98-7.465L140,70.238s10.361-2.9,15.441,6.354c.909,1.654,2.591-1.3,2.994.033,1.378,4.569-2.741,10.492-7.287,11.936Z" transform="translate(-81.319 -69.415)" fill="#99b9ff"/>
              <path id="Trazado_168993" data-name="Trazado 168993" d="M88.553,132.1a.444.444,0,0,1-.2-.052l-6.607-3.561a.426.426,0,0,1-.187-.544L98.417,89.981a14.5,14.5,0,0,1,8.219-7.69l33.417-12.254a.146.146,0,0,1,.033-.009c.108-.028,10.745-2.877,15.928,6.561.094.169.187.267.286.291.23.061.628-.2.951-.4.441-.281.858-.544,1.284-.389a.852.852,0,0,1,.506.609c1.49,4.944-2.915,10.984-7.563,12.46l-.127-.4.127.4c-.684.216-1.434.464-2.254.736a99.231,99.231,0,0,1-25.4,5.492,11.041,11.041,0,0,0-8.651,5.947c-3.857,7.568-12.418,21.622-26.392,30.694A.413.413,0,0,1,88.553,132.1Zm-6.064-4.166,6.04,3.257c13.683-8.969,22.09-22.779,25.891-30.235a11.911,11.911,0,0,1,9.344-6.406A98.611,98.611,0,0,0,148.957,89.1q1.23-.408,2.263-.74c4.2-1.336,8.351-6.978,7.015-11.415a.218.218,0,0,0-.014-.042,3.147,3.147,0,0,0-.515.291,2.169,2.169,0,0,1-1.612.506,1.314,1.314,0,0,1-.815-.7c-4.78-8.7-14.513-6.27-14.944-6.158l-33.4,12.25a13.647,13.647,0,0,0-7.737,7.24L82.5,127.93Z" transform="translate(-81.521 -69.603)" fill="#5479f7"/>
            </g>
          </g>
        </g>
        <g id="Grupo_114397" data-name="Grupo 114397" transform="translate(0 76.398)">
          <g id="Grupo_114395" data-name="Grupo 114395" transform="translate(0 19.733)">
            <path id="Trazado_168994" data-name="Trazado 168994" d="M27.382,89.188,27.325,77.6a.4.4,0,0,1,.4-.4l183.766.862a.4.4,0,0,1,.319.628L203.43,90.434a.4.4,0,0,1-.323.164L29.5,91.3a2.128,2.128,0,0,1-2.127-2.109Z" transform="translate(-26.904 -76.784)" fill="#99b9ff"/>
            <path id="Trazado_168995" data-name="Trazado 168995" d="M29.7,91.919a2.546,2.546,0,0,1-2.54-2.53L27.1,77.8a.816.816,0,0,1,.815-.82h0l183.766.862a.819.819,0,0,1,.665,1.293l-8.379,11.739a.811.811,0,0,1-.661.342l-173.607.7H29.7ZM28,89.384a1.7,1.7,0,0,0,1.7,1.692h0l173.607-.7,8.332-11.692L27.953,77.824l.056,11.561Z" transform="translate(-27.105 -76.985)" fill="#5479f7"/>
          </g>
          <g id="Grupo_114396" data-name="Grupo 114396" transform="translate(0.112)">
            <path id="Trazado_168996" data-name="Trazado 168996" d="M214.566,96.084l-185.017.558a2.162,2.162,0,0,1-2.165-2.16V69.434a2.159,2.159,0,0,1,2.151-2.16l185.017-.389a2.158,2.158,0,0,1,2.16,2.16V93.924a2.159,2.159,0,0,1-2.151,2.16Z" transform="translate(-26.962 -66.468)" fill="#fff"/>
            <path id="Trazado_168997" data-name="Trazado 168997" d="M29.741,97.262a2.576,2.576,0,0,1-2.577-2.577V69.638a2.585,2.585,0,0,1,2.573-2.582l185.017-.389h0a2.548,2.548,0,0,1,1.818.754,2.574,2.574,0,0,1,.759,1.828V94.127a2.585,2.585,0,0,1-2.573,2.582l-185.017.558h-.009ZM214.758,67.51h0L29.741,67.9a1.736,1.736,0,0,0-1.729,1.739V94.685a1.737,1.737,0,0,0,.511,1.232,1.711,1.711,0,0,0,1.223.506h0l185.017-.558a1.739,1.739,0,0,0,1.729-1.739V69.249a1.737,1.737,0,0,0-.511-1.232,1.719,1.719,0,0,0-1.223-.506Z" transform="translate(-27.164 -66.667)"/>
          </g>
        </g>
        <g id="Grupo_114401" data-name="Grupo 114401" transform="translate(80.759 27.307)">
          <g id="Grupo_114398" data-name="Grupo 114398" transform="translate(0 14.246)">
            <path id="Trazado_168998" data-name="Trazado 168998" d="M81.594,49.7s-4.152-.75-5.53-1.022a.444.444,0,0,0-.431.722,15.9,15.9,0,0,0,1.617,1.678c.375.323.8.989.473,1.359a1.347,1.347,0,0,1-.4.3,4.412,4.412,0,0,1-2.671.38c-.9-.155-2.02-.333-2.395-.337a4.271,4.271,0,0,0-2.226.3l-.019.014a.963.963,0,0,0,.164,1.715l2,.759a18.451,18.451,0,0,0,7.17,1.209,13.172,13.172,0,0,0,2.6-.45,2.476,2.476,0,0,1,1.814.441c2.76,1.795,10.3,6.659,10.3,6.659l1.354-6.308s-8.219-2.118-10.933-5.89A3.9,3.9,0,0,0,81.6,49.705Z" transform="translate(-69.126 -48.244)" fill="#ffd4a2"/>
            <path id="Trazado_168999" data-name="Trazado 168999" d="M94.254,64.056a.449.449,0,0,1-.23-.066c-.075-.047-7.577-4.888-10.3-6.664a2.1,2.1,0,0,0-1.471-.389,13.4,13.4,0,0,1-2.695.464,18.893,18.893,0,0,1-7.338-1.237l-2-.759a1.367,1.367,0,0,1-.881-1.157,1.382,1.382,0,0,1,.642-1.307,3.9,3.9,0,0,1,2.188-.384c.1,0,.192,0,.281,0a21.579,21.579,0,0,1,2.465.342,4.036,4.036,0,0,0,2.413-.342.969.969,0,0,0,.276-.206s.014-.014.009-.061a1.3,1.3,0,0,0-.44-.7,15.731,15.731,0,0,1-1.664-1.724.847.847,0,0,1-.084-.993.863.863,0,0,1,.923-.412c1.359.272,5.483,1.012,5.525,1.022h.014l.267.056a4.007,4.007,0,0,1,2.863,1.64c2.6,3.608,10.614,5.708,10.694,5.731a.423.423,0,0,1,.309.5l-1.354,6.308a.41.41,0,0,1-.253.3.4.4,0,0,1-.164.033ZM82.5,56.066a3.3,3.3,0,0,1,1.687.553c2.31,1.5,8.041,5.2,9.789,6.331l1.143-5.319c-1.7-.478-8.318-2.526-10.778-5.947a3.211,3.211,0,0,0-2.348-1.3l-.267-.056c-.173-.033-4.189-.754-5.534-1.022l-.033.023a15.506,15.506,0,0,0,1.579,1.64,2.052,2.052,0,0,1,.731,1.279.889.889,0,0,1-.22.675,1.842,1.842,0,0,1-.53.4,4.831,4.831,0,0,1-2.934.422,21.287,21.287,0,0,0-2.329-.333c-.094,0-.192,0-.3,0a3.26,3.26,0,0,0-1.7.244.539.539,0,0,0,.075.97l2,.759a18.07,18.07,0,0,0,7,1.181,12.929,12.929,0,0,0,2.5-.431,1.8,1.8,0,0,1,.473-.061Z" transform="translate(-69.332 -48.447)"/>
          </g>
          <g id="Grupo_114399" data-name="Grupo 114399" transform="translate(14.505)">
            <path id="Trazado_169000" data-name="Trazado 169000" d="M149.139,49.292c-1.471-3.243-5.394-5.337-8.44-6.528a20.262,20.262,0,0,0-6.6-1.359l-7.99-.314a42.871,42.871,0,0,0-10.455.614c-5.155.914-8.149,3.069-11.434,7.146-1.485,1.842-6.045,11.893-9.241,14.054-2.048,1.382-5.3-1.012-8.327-2.634a10.57,10.57,0,0,0-4.761-1.317c-3.074,0-4.143,2.816-4.7,4.077-.665,1.514-.019,3.365.567,4.55a5.373,5.373,0,0,0,1.8,1.673c2.779,2.128,14.19,10.436,20.291,6.978,5.2-2.948,8.566-8.187,10.3-12.114-.3,6.589-6.045,16.092-7.882,18.585a1.8,1.8,0,0,1-1.246.722L88.983,84.8a1.369,1.369,0,0,0-.525.178,2.8,2.8,0,0,0-1.42,2.113,12.274,12.274,0,0,0,.366,4.934l.412.811a1.971,1.971,0,0,0,1.734,1.082c6.4.1,33.435.248,41.116-.211,7.151-.426,12-3.294,15.825-13.28,1.518-3.969,6.579-22.479,2.648-31.135Z" transform="translate(-76.916 -40.998)" fill="#f85316"/>
            <path id="Trazado_169001" data-name="Trazado 169001" d="M85.492,71a.423.423,0,0,1-.417-.366.419.419,0,0,1,.361-.473c1.05-.141,2.779-.192,4.967-.258,10.328-.309,31.819-.956,36.95-13.323a.423.423,0,0,1,.783.323c-5.337,12.868-27.2,13.524-37.7,13.843-2.165.066-3.875.117-4.883.253h-.056Z" transform="translate(-69.474 -27.022)" fill="#f85316"/>
            <path id="Trazado_169002" data-name="Trazado 169002" d="M102.714,70.661a.425.425,0,0,1-.351-.661c2.2-3.233,5.759-9.625,6.509-14.864-1.917,3.346-4.953,8.215-9.836,10.8-4.691,2.479-17.3-4.049-21.2-7.6a.421.421,0,0,1,.567-.623c4.053,3.688,16.233,9.593,20.235,7.474,5.108-2.7,8.163-8.107,9.991-11.336l.436-.769a.419.419,0,0,1,.473-.2.426.426,0,0,1,.314.408c-.009,7.01-6.106,16.167-6.8,17.189a.415.415,0,0,1-.351.183Z" transform="translate(-76.2 -30.164)" fill="#f85316"/>
            <path id="Trazado_169003" data-name="Trazado 169003" d="M94.4,58.522h-.056a.421.421,0,0,1-.361-.473,30.759,30.759,0,0,1,2.179-8.711.421.421,0,1,1,.787.3,30.154,30.154,0,0,0-2.127,8.519.423.423,0,0,1-.417.366Z" transform="translate(-61.345 -33.635)" fill="#f85316"/>
          </g>
          <g id="Grupo_114400" data-name="Grupo 114400" transform="translate(9.298 42.069)">
            <path id="Trazado_169004" data-name="Trazado 169004" d="M92.615,67.377a2.144,2.144,0,0,0-1.172-1.05,8.127,8.127,0,0,1-1.068-.487l-4.756-2.521c-.89-.436-2.165.581-3.088.886-2.793.914-8.571,3.074-8.093,5.1.515,2.188,5.478,1.153,7.245.712.4-.1,4.053,1.218,5.206,1.307a3.764,3.764,0,0,0,2.741-.694,2.49,2.49,0,0,1,1.181-.272,2.154,2.154,0,0,0,1.692-.792l.009-.014a1.836,1.836,0,0,0,.2-1.992l-.094-.183Z" transform="translate(-73.996 -62.797)" fill="#fff"/>
            <path id="Trazado_169005" data-name="Trazado 169005" d="M87.606,71.966c-.169,0-.356-.009-.553-.023a19.865,19.865,0,0,1-3.093-.778,17.742,17.742,0,0,0-2.006-.534c-1.889.469-5.263,1.1-6.86.127a1.805,1.805,0,0,1-.862-1.157c-.515-2.188,4.269-4.25,8.374-5.6a6.279,6.279,0,0,0,.844-.38c.82-.412,1.748-.876,2.559-.478l4.77,2.526a8.465,8.465,0,0,0,1.012.464A2.543,2.543,0,0,1,93.2,67.393l.094.183a2.268,2.268,0,0,1-.248,2.446,2.588,2.588,0,0,1-2.029.961,2.08,2.08,0,0,0-.989.225c-.117.061-.23.127-.333.183a3.6,3.6,0,0,1-2.081.576Zm-5.675-2.179a11.493,11.493,0,0,1,2.263.567,21.33,21.33,0,0,0,2.919.745,3.043,3.043,0,0,0,2.156-.445c.112-.066.23-.131.361-.2A2.968,2.968,0,0,1,91,70.129a1.746,1.746,0,0,0,1.368-.633,1.424,1.424,0,0,0,.164-1.546l-.094-.183h0a1.692,1.692,0,0,0-.942-.844,9.181,9.181,0,0,1-1.125-.511l-4.756-2.521c-.426-.206-1.153.159-1.8.483a7.955,7.955,0,0,1-.961.431c-5.019,1.645-8.084,3.454-7.816,4.6a.98.98,0,0,0,.483.628c.97.59,3.3.5,6.247-.234a.735.735,0,0,1,.155-.019Z" transform="translate(-74.193 -62.995)"/>
          </g>
        </g>
        <g id="Grupo_114403" data-name="Grupo 114403" transform="translate(138.952)">
          <path id="Trazado_169006" data-name="Trazado 169006" d="M110.117,47.934c1.045.961,3.088,2.127,4.686,1.321,1.19-.6,1.856-2.156,1.814-3.941a2.382,2.382,0,0,0,1.79-.45c.792-.7.647-2,.614-2.849-.145-3.922,2.132-4.527,1.575-7.189a6.315,6.315,0,0,0-2.385-3.576c-1.551-1.176-2.6-.8-5.2-1.481-4.382-1.148-4.522-3.041-7.409-3.051-.169,0-4.1.042-5.431,2.765-1.083,2.212.183,4.9,1.49,6.312,1.7,1.828,2.915.923,4.616,2.46,2.99,2.695.731,6.828,3.838,9.672Z" transform="translate(-99.759 -26.72)"/>
          <g id="Grupo_114402" data-name="Grupo 114402" transform="translate(0.96 6.25)">
            <path id="Trazado_169007" data-name="Trazado 169007" d="M100.708,37.748l.173-.15a5.355,5.355,0,0,0,2-2.741c.979-4.775,5.347-6.509,5.548-2.123.052,1.106,4.086,1.05,3.608,2.212-1.247,3.027-1.275,2.212.487,3.332a1.513,1.513,0,0,1,.586.141,2.024,2.024,0,0,1,.712,2.746,2.346,2.346,0,0,1-1.434,1.289v4.785a4.408,4.408,0,0,0,2.741,4.086l1.612.661s-7.521,4.916-15.15-.483l1.017-.459a5.145,5.145,0,0,0,3.032-4.536l.009-.937a4.023,4.023,0,0,1-1.471-.122c-2.137-.623-2.844-3.088-2.479-6.153l-.867-.469a.656.656,0,0,1-.117-1.078Z" transform="translate(-100.055 -29.785)" fill="#ffd4a2"/>
            <path id="Trazado_169008" data-name="Trazado 169008" d="M109.5,54.638a13.54,13.54,0,0,1-7.957-2.591.429.429,0,0,1-.178-.384.414.414,0,0,1,.248-.342l1.017-.459a4.757,4.757,0,0,0,2.784-4.166v-.483a4.04,4.04,0,0,1-1.157-.159c-2.132-.623-3.149-2.915-2.812-6.322l-.619-.333a1.072,1.072,0,0,1-.562-.834,1.1,1.1,0,0,1,.366-.937l.173-.15a5.059,5.059,0,0,0,1.865-2.507c.661-3.233,2.788-5.1,4.372-4.977,1.176.094,1.931,1.186,2.01,2.919.009.225,1.143.544,1.57.665.928.262,1.729.487,1.992,1.026a.819.819,0,0,1,.009.7c-.183.44-.337.8-.469,1.1a5.823,5.823,0,0,0-.394,1.026,2.684,2.684,0,0,0,.38.225c.192.1.426.225.708.4a2.043,2.043,0,0,1,.628.169,2.448,2.448,0,0,1,.918,3.3,2.8,2.8,0,0,1-1.4,1.406v4.489a3.978,3.978,0,0,0,2.479,3.7l1.612.661a.43.43,0,0,1,.262.351.409.409,0,0,1-.187.394,15.47,15.47,0,0,1-7.666,2.1Zm-6.846-2.863a13.437,13.437,0,0,0,13.313.464l-.8-.328a4.824,4.824,0,0,1-3-4.48V42.647a.427.427,0,0,1,.3-.408,1.928,1.928,0,0,0,1.167-1.059A1.613,1.613,0,0,0,113.126,39a1.052,1.052,0,0,0-.422-.1.359.359,0,0,1-.206-.066c-.3-.192-.548-.323-.745-.431-1.115-.6-.956-.965-.366-2.334.127-.3.281-.651.459-1.087-.08-.211-.97-.459-1.453-.6-1.054-.3-2.146-.6-2.188-1.439-.061-1.289-.506-2.062-1.232-2.118-1.078-.089-2.877,1.368-3.482,4.307a5.71,5.71,0,0,1-2.137,2.976l-.173.15h0a.236.236,0,0,0-.08.206.221.221,0,0,0,.122.183l.867.469a.424.424,0,0,1,.22.422c-.173,1.471-.309,4.972,2.179,5.7a3.612,3.612,0,0,0,1.312.108.426.426,0,0,1,.459.426l-.009.937a5.6,5.6,0,0,1-3.28,4.916l-.323.145Zm-1.743-13.824Z" transform="translate(-100.261 -29.988)"/>
          </g>
          <path id="Trazado_169009" data-name="Trazado 169009" d="M103.385,40.186a.422.422,0,0,1-.066-.839,5.89,5.89,0,0,0,3.993-2.563.422.422,0,0,1,.731.422,6.65,6.65,0,0,1-4.592,2.98c-.023,0-.042,0-.066,0Z" transform="translate(-96.837 -17.73)"/>
        </g>
      </g>
      <g id="Grupo_114405" data-name="Grupo 114405" transform="translate(112.593 159.642)">
        <path id="Trazado_169010" data-name="Trazado 169010" d="M80.548,138.544H73.7V83.473l6.846.319Z" transform="translate(-45.341 -83.473)" fill="#99b9ff"/>
        <path id="Trazado_169011" data-name="Trazado 169011" d="M116.006,108.858H65.742a6.868,6.868,0,0,0-6.87,6.87h64a6.868,6.868,0,0,0-6.87-6.87Z" transform="translate(-58.872 -60.31)" fill="#99b9ff"/>
      </g>
      <g id="Grupo_114427" data-name="Grupo 114427" transform="translate(167.95 65.628)">
        <g id="Grupo_114406" data-name="Grupo 114406" transform="translate(36.584 101.685)">
          <rect id="Rectángulo_42473" data-name="Rectángulo 42473" width="7.47" height="60.962" transform="translate(21.008)" fill="#99b9ff"/>
          <path id="Trazado_169012" data-name="Trazado 169012" d="M121.874,122.548a.42.42,0,0,1-.422-.422V93.218a.422.422,0,0,1,.844,0v28.909A.42.42,0,0,1,121.874,122.548Z" transform="translate(-93.71 -82.637)"/>
          <path id="Trazado_169013" data-name="Trazado 169013" d="M106.947,119.859l23.421-3.28h2.151l23.909,3.28v2.6H106.947Z" transform="translate(-106.947 -60.936)" fill="#99b9ff"/>
        </g>
        <g id="Grupo_114425" data-name="Grupo 114425">
          <g id="Grupo_114419" data-name="Grupo 114419" transform="translate(7.589 77.66)">
            <g id="Grupo_114411" data-name="Grupo 114411" transform="translate(0 65.285)">
              <g id="Grupo_114407" data-name="Grupo 114407" transform="translate(16.067)">
                <path id="Trazado_169014" data-name="Trazado 169014" d="M109.133,109.83l-1.968,9.794a.575.575,0,0,1-.661.483l-5.745-1.462a.509.509,0,0,1-.342-.609l1.654-8.754,7.062.548Z" transform="translate(-99.986 -108.854)" fill="#ffd4a2"/>
                <path id="Trazado_169015" data-name="Trazado 169015" d="M106.817,120.742a.823.823,0,0,1-.216-.028l-5.745-1.462a.922.922,0,0,1-.651-1.1l1.654-8.754a.422.422,0,0,1,.445-.342l7.062.548a.431.431,0,0,1,.3.164.4.4,0,0,1,.075.337l-1.968,9.794a1.059,1.059,0,0,1-.469.689.914.914,0,0,1-.5.145Zm-4.2-10.811-1.584,8.379c-.014.07.014.117.028.122l5.745,1.462a.1.1,0,0,0,.052-.014.217.217,0,0,0,.094-.141l1.874-9.325-6.209-.483Z" transform="translate(-100.187 -109.058)"/>
              </g>
              <g id="Grupo_114410" data-name="Grupo 114410" transform="translate(0 5.437)">
                <g id="Grupo_114408" data-name="Grupo 114408">
                  <path id="Trazado_169016" data-name="Trazado 169016" d="M116.877,112.723c.394,1.411,1.223,5.375,1.57,7.765a2.993,2.993,0,0,1-2.179,3.308c-4.1,1.106-13.885,1.059-22.034,1.42a2.1,2.1,0,0,1-2.043-1.6c-1.551-4.588,7.015-6.008,15.483-10.67a.485.485,0,0,1,.525.028c.1.07.22.155.366.248a5.669,5.669,0,0,0,5.417.037l1.687-1.017a.819.819,0,0,1,1.209.483Z" transform="translate(-91.583 -111.697)" fill="#3d46c2"/>
                  <path id="Trazado_169017" data-name="Trazado 169017" d="M94.365,125.842a2.539,2.539,0,0,1-2.371-1.889c-1.2-3.566,2.976-5.375,8.266-7.666,2.277-.989,4.86-2.1,7.409-3.51a.916.916,0,0,1,.975.052c.094.066.211.145.347.234a5.252,5.252,0,0,0,4.972.033l1.687-1.017a1.238,1.238,0,0,1,1.832.736c.408,1.462,1.232,5.436,1.579,7.816a3.409,3.409,0,0,1-2.484,3.777c-3.093.839-9.2,1.017-15.67,1.214-2.151.066-4.372.131-6.457.22H94.36ZM108.114,113.5s-.028,0-.037.009c-2.587,1.425-5.188,2.549-7.484,3.543-5.6,2.423-8.716,3.927-7.8,6.621a1.668,1.668,0,0,0,1.626,1.312c2.09-.094,4.316-.159,6.467-.225,6.134-.183,12.474-.37,15.474-1.181a2.563,2.563,0,0,0,1.87-2.84c-.333-2.287-1.157-6.284-1.556-7.713a.405.405,0,0,0-.234-.267.393.393,0,0,0-.347.028l-1.687,1.017a6.112,6.112,0,0,1-5.862-.042c-.155-.1-.281-.187-.384-.258a.053.053,0,0,0-.037-.014Z" transform="translate(-91.786 -111.901)"/>
                </g>
                <g id="Grupo_114409" data-name="Grupo 114409" transform="translate(0.102 8.051)">
                  <path id="Trazado_169018" data-name="Trazado 169018" d="M118.639,117.726a.5.5,0,0,1,.014.084c.216,1.5-1.2,2.418-2.563,3.055-4.035,1.893-20.328.811-20.956.764H95.1c-.2,0-2.273,0-2.868-1.284a2.015,2.015,0,0,1-.145-.6,2.936,2.936,0,0,1,.052-1.031.5.5,0,0,1,.6-.38c3.023.773,10.117,1.279,17.142.253A32.729,32.729,0,0,0,117.7,116.4a.5.5,0,0,1,.745.337C118.5,117.027,118.573,117.374,118.639,117.726Z" transform="translate(-91.634 -115.907)" fill="#fff"/>
                  <path id="Trazado_169019" data-name="Trazado 169019" d="M105.6,122.615c-4.78,0-9.382-.3-10.291-.356-.258,0-2.549,0-3.257-1.528a2.555,2.555,0,0,1-.183-.717,3.373,3.373,0,0,1,.061-1.181.925.925,0,0,1,.422-.59.9.9,0,0,1,.7-.108,50.646,50.646,0,0,0,16.978.244,32.233,32.233,0,0,0,7.662-2.137.918.918,0,0,1,1.373.614l.192.984c.009.052.019.089.019.1.267,1.832-1.471,2.877-2.8,3.5-1.945.914-6.481,1.162-10.876,1.162Zm-10.286-1.2h.056c5.8.394,17.6.75,20.745-.726,1.753-.82,2.47-1.631,2.324-2.615l-.009-.061h0l-.192-.984a.083.083,0,0,0-.047-.061.08.08,0,0,0-.066,0,32.478,32.478,0,0,1-7.971,2.245c-6.734.984-13.941.6-17.311-.262a.065.065,0,0,0-.052.009.1.1,0,0,0-.037.056,2.483,2.483,0,0,0-.047.886,1.636,1.636,0,0,0,.112.473c.492,1.059,2.4,1.04,2.479,1.04h.019Z" transform="translate(-91.839 -116.111)"/>
                </g>
                <path id="Trazado_169020" data-name="Trazado 169020" d="M101.273,116.012a.445.445,0,0,1-.258-.084l-2.47-1.884a.421.421,0,0,1,.511-.67l2.47,1.884a.42.42,0,0,1,.08.59.433.433,0,0,1-.337.169Z" transform="translate(-85.769 -110.636)"/>
                <path id="Trazado_169021" data-name="Trazado 169021" d="M99.409,116.591a.421.421,0,0,1-.253-.084L97,114.885a.422.422,0,0,1,.506-.675l2.16,1.621a.422.422,0,0,1-.253.759Z" transform="translate(-87.186 -109.871)"/>
              </g>
            </g>
            <g id="Grupo_114416" data-name="Grupo 114416" transform="translate(37.498 57.442)">
              <g id="Grupo_114412" data-name="Grupo 114412" transform="translate(0.146)">
                <path id="Trazado_169022" data-name="Trazado 169022" d="M117.36,105.175l4.841,7.962-5.534,2.933-4.977-7.123Z" transform="translate(-111.267 -104.758)" fill="#ffd4a2"/>
                <path id="Trazado_169023" data-name="Trazado 169023" d="M116.874,116.691a.433.433,0,0,1-.347-.178l-4.981-7.123a.432.432,0,0,1-.07-.319.4.4,0,0,1,.183-.272l5.67-3.772a.414.414,0,0,1,.323-.061.4.4,0,0,1,.267.192l4.841,7.962a.423.423,0,0,1-.164.6l-5.534,2.934a.419.419,0,0,1-.2.047Zm-4.386-7.432L117,115.721l4.808-2.549-4.382-7.2-4.944,3.29Z" transform="translate(-111.469 -104.957)"/>
              </g>
              <g id="Grupo_114415" data-name="Grupo 114415" transform="translate(0 6.542)">
                <g id="Grupo_114413" data-name="Grupo 114413">
                  <path id="Trazado_169024" data-name="Trazado 169024" d="M116.734,112.9l4.831-4.241,7.5,4.635a2.8,2.8,0,0,1,1.04,3.444,27.407,27.407,0,0,1-3.547,5.8c-3.126,3.843-4.7,10.056-9.269,10.473s-4.428.141-5.394-.979.829-5.726,2.076-8.8c1.017-2.512,2.765-10.333,2.765-10.333Z" transform="translate(-111.187 -108.125)" fill="#3d46c2"/>
                  <path id="Trazado_169025" data-name="Trazado 169025" d="M114.568,133.865a2.673,2.673,0,0,1-2.605-1.092c-.056-.07-.122-.141-.187-.22-.989-1.139.033-4.377,2-9.232.993-2.451,2.727-10.192,2.746-10.267l.028-.136,5.174-4.541,7.76,4.8a3.24,3.24,0,0,1,1.2,3.979,28.094,28.094,0,0,1-3.6,5.89,30.683,30.683,0,0,0-2.6,4.035c-1.776,3.093-3.613,6.289-6.954,6.593-1.312.122-2.254.187-2.962.187Zm2.751-20.492a104.724,104.724,0,0,1-2.755,10.267c-.74,1.828-2.994,7.385-2.146,8.365.07.08.136.155.2.23.679.806.82.975,4.845.6,2.905-.267,4.555-3.135,6.3-6.176a30.938,30.938,0,0,1,2.68-4.147,27.135,27.135,0,0,0,3.491-5.708,2.373,2.373,0,0,0-.881-2.91l-7.226-4.471-4.494,3.946Z" transform="translate(-111.392 -108.377)" fill="#3d46c2"/>
                </g>
                <path id="Trazado_169026" data-name="Trazado 169026" d="M117.069,114.945h-3.426a.422.422,0,0,1,0-.843h3.426a.422.422,0,0,1,0,.843Z" transform="translate(-109.723 -103.154)"/>
                <path id="Trazado_169027" data-name="Trazado 169027" d="M116.785,116.464h-3.426a.422.422,0,1,1,0-.843h3.426a.422.422,0,0,1,0,.843Z" transform="translate(-109.982 -101.768)"/>
                <g id="Grupo_114414" data-name="Grupo 114414" transform="translate(1.115 4.664)">
                  <path id="Trazado_169028" data-name="Trazado 169028" d="M112.2,130.624s3.941.211,6.223-2.723,10.066-16.865,10.066-16.865l1.481.942a1.72,1.72,0,0,1,.6,2.249c-1.87,3.58-6.982,12.929-10.9,15.872-4.878,3.665-7.47.525-7.47.525Z" transform="translate(-111.777 -110.616)" fill="#fff"/>
                  <path id="Trazado_169029" data-name="Trazado 169029" d="M115.441,132.488a4.592,4.592,0,0,1-3.369-1.4.422.422,0,0,1-.052-.459.416.416,0,0,1,.4-.23c.056,0,3.758.15,5.872-2.563,2.235-2.873,9.949-16.673,10.028-16.809a.416.416,0,0,1,.267-.2.425.425,0,0,1,.328.052l1.481.942a2.16,2.16,0,0,1,.745,2.8c-2,3.824-7.067,13.046-11.017,16.012A7.839,7.839,0,0,1,115.441,132.488Zm-1.893-1.3c1.045.576,3.074,1.017,6.069-1.228,3.815-2.868,8.805-11.954,10.778-15.731a1.306,1.306,0,0,0-.45-1.7l-1.106-.7c-1.3,2.32-7.793,13.843-9.883,16.528a7.9,7.9,0,0,1-5.408,2.835Z" transform="translate(-111.975 -110.816)"/>
                </g>
              </g>
            </g>
            <g id="Grupo_114418" data-name="Grupo 114418" transform="translate(7.308)">
              <g id="Grupo_114417" data-name="Grupo 114417">
                <path id="Trazado_169030" data-name="Trazado 169030" d="M126.736,77.136s-21.922,8.918-30.01,18.716c-7.727,9.363,27.081,43.365,27.081,43.365.042.159,11.828-6.5,11.828-6.706l-9.025-19.691c-3.561-7.681-10.689-12.071-7.784-14.771,2.643-2.456,17.343-1.186,24.888-1.448,13.4-.469,13.276-20.01,13.276-20.01l-30.254.544Z" transform="translate(-95.607 -73.397)"/>
                <path id="Trazado_169031" data-name="Trazado 169031" d="M104.078,102.935c-1.893,7.081-3.693,28.379-4.105,40.291,0,.164,12.062.281,12.085.066.122-1.05,9.044-33.3,14.026-41.833,2.648-4.531,19.719-3.233,23.529-3.988,10.169-2.02,9.5-22.55,9.5-22.55L111.51,93.938c-4.068.619-6.359,4.991-7.432,9Z" transform="translate(-91.623 -74.922)"/>
              </g>
              <path id="Trazado_169032" data-name="Trazado 169032" d="M112.1,112.538a.42.42,0,0,1-.328-.159l-9.546-11.94a.423.423,0,0,1,.661-.53l9.546,11.94a.424.424,0,0,1-.066.6.428.428,0,0,1-.262.094Z" transform="translate(-89.655 -52.265)" fill="#caddff"/>
            </g>
          </g>
          <g id="Grupo_114421" data-name="Grupo 114421" transform="translate(56.711)">
            <g id="Grupo_114420" data-name="Grupo 114420" transform="translate(0.907 8.063)">
              <path id="Trazado_169033" data-name="Trazado 169033" d="M121.488,57.611a.261.261,0,0,1-.084-.483c.708-.408,1.71-1.153,1.645-2.048l.15-3.468a.981.981,0,0,0-.689-.914l-2.493-.759a.9.9,0,0,1-.637-.881l.08-3.674-1.209-.975a.222.222,0,0,1-.037-.309l1.748-2.306c.567-.867,1.087-2.91,1.584-2.793,0,0,10.324-1.626,11.158,3.505a3.206,3.206,0,0,1-.5,2.249l-.876,1.34a6.644,6.644,0,0,0-1.068,4.564c.075.5,1.242,5.113,1.242,5.113a30.644,30.644,0,0,0,3.341,1.289.294.294,0,0,1,.023.558l-2.315.553a17.3,17.3,0,0,1-7.057.178l-4-.731Z" transform="translate(-117.742 -38.324)" fill="#ffd4a2"/>
              <path id="Trazado_169034" data-name="Trazado 169034" d="M128.8,59.256a17.833,17.833,0,0,1-3.187-.291l-4-.731a.686.686,0,0,1-.22-1.265c.947-.548,1.471-1.153,1.439-1.654v-.047l.15-3.449a.554.554,0,0,0-.389-.506l-2.493-.759a1.336,1.336,0,0,1-.937-1.3l.075-3.468-1.05-.848a.644.644,0,0,1-.108-.9l1.739-2.292a8.8,8.8,0,0,0,.581-1.232c.417-1,.759-1.795,1.35-1.743.979-.145,10.712-1.457,11.575,3.861a3.6,3.6,0,0,1-.562,2.549l-.876,1.34a6.2,6.2,0,0,0-1,4.269c.052.337.717,3.027,1.181,4.869a27.844,27.844,0,0,0,3.093,1.186.706.706,0,0,1,.52.661.716.716,0,0,1-.469.7l-.047.014-2.315.553A17.688,17.688,0,0,1,128.8,59.256Zm-6.631-1.781,3.594.656a16.709,16.709,0,0,0,6.884-.173l1.818-.436c-1.256-.412-2.863-1.139-2.938-1.172a.417.417,0,0,1-.234-.281c-.122-.473-1.176-4.644-1.251-5.155a7.064,7.064,0,0,1,1.134-4.855l.876-1.34a2.765,2.765,0,0,0,.436-1.954c-.754-4.663-10.577-3.173-10.675-3.154h-.037a6.594,6.594,0,0,0-.6,1.223,9.482,9.482,0,0,1-.661,1.378.082.082,0,0,1-.019.023l-1.631,2.156,1.059.858a.413.413,0,0,1,.155.337L120,49.261a.485.485,0,0,0,.337.469l2.493.759a1.392,1.392,0,0,1,.989,1.307v.028l-.15,3.444a2.734,2.734,0,0,1-1.5,2.2Zm-.408-.075Z" transform="translate(-117.944 -38.531)"/>
            </g>
            <path id="Trazado_169035" data-name="Trazado 169035" d="M121.491,35.066c2.385-.225-.534,2.352,8.215-.548,3.482-1.157,1.846,3.032,2.751,2.732,3.341-1.1,3.224-1.064,4.888-.689,1.1.248,1.879,2.245,1.725,3.758-.2,2-2.315,5.248-4.185,8.669-.97,1.771-2.8,2.006-5.141-.473-.248-.262.9-1.926.234-2.6-1.72-1.739-2.338,1.022-3.7.234a19.96,19.96,0,0,1-3.257-2.423c-1.692-1.411-4.33,1.008-5.417-2.282-.567-1.715.619-6.083,3.885-6.387Z" transform="translate(-117.47 -34.315)"/>
          </g>
          <g id="Grupo_114424" data-name="Grupo 114424" transform="translate(0 24.261)">
            <g id="Grupo_114422" data-name="Grupo 114422" transform="translate(12.49)">
              <path id="Trazado_169036" data-name="Trazado 169036" d="M166.91,67.637s-.412-16.458-10.085-19.654a9.208,9.208,0,0,0-2.549-.44l-8.538-.323a19.91,19.91,0,0,0-7.343,1.584,21.1,21.1,0,0,0-6.261,3.711c-6.495,5.9-6.05,26.533-11.561,27.728-3.81.825-9.55-3.805-13.552-6.973C103.9,70.8,99.134,66.7,99.134,66.7l-4.569,7.549c3.055,5.661,16.111,15.408,21.753,20.291l.825.576c1.879,1.626,5.469,1.542,7.685.436a30.331,30.331,0,0,0,9.344-7.765,12.771,12.771,0,0,1-2.9,12.189,19.3,19.3,0,0,1-2.938,2.629,2.343,2.343,0,0,0-.562,3.205c1.129,1.682,3.393,3.618,7.7,3.168,5.666-.6,21.8-.53,28.927-.469a3.368,3.368,0,0,0,3.374-3.458l-.867-37.409Z" transform="translate(-94.15 -46.802)" fill="#fff"/>
              <path id="Trazado_169037" data-name="Trazado 169037" d="M134.422,109.664a7.743,7.743,0,0,1-6.809-3.421,2.774,2.774,0,0,1,.67-3.786,18.751,18.751,0,0,0,2.873-2.573,12.4,12.4,0,0,0,3.008-10.994,30.322,30.322,0,0,1-8.946,7.235c-2.306,1.153-6.069,1.293-8.135-.478l-.806-.562s-.023-.019-.033-.028c-1.275-1.1-2.966-2.488-4.761-3.955-6.2-5.066-14.686-12-17.086-16.453a.426.426,0,0,1,.009-.417l4.569-7.549a.423.423,0,0,1,.637-.1c.047.042,4.8,4.128,7.877,6.561l.286.225c3.964,3.135,9.391,7.427,12.92,6.664,2.5-.544,3.768-6.04,5.108-11.865,1.373-5.97,2.929-12.737,6.256-15.759a21.275,21.275,0,0,1,6.4-3.8A20.422,20.422,0,0,1,145.955,47l8.547.323a9.8,9.8,0,0,1,2.666.459c9.846,3.252,10.356,19.358,10.375,20.043h0l.867,37.409a3.788,3.788,0,0,1-1.1,2.77,3.683,3.683,0,0,1-2.7,1.12c-6.79-.056-23.2-.131-28.881.469a12.5,12.5,0,0,1-1.293.07Zm-.056-22.1a.259.259,0,0,1,.084.009.431.431,0,0,1,.323.3,13.236,13.236,0,0,1-3,12.592,19.7,19.7,0,0,1-3,2.685,1.927,1.927,0,0,0-.459,2.629c1.073,1.6,3.215,3.411,7.31,2.98,5.722-.6,22.17-.53,28.974-.473a2.837,2.837,0,0,0,2.095-.867,2.958,2.958,0,0,0,.853-2.156l-.867-37.409c0-.178-.52-16.2-9.8-19.265a8.829,8.829,0,0,0-2.432-.417l-8.538-.323a19.335,19.335,0,0,0-7.184,1.56,20.728,20.728,0,0,0-6.125,3.632c-3.135,2.849-4.658,9.475-6,15.324-1.462,6.354-2.723,11.847-5.75,12.5-3.913.848-9.522-3.59-13.618-6.828l-.286-.225c-2.582-2.038-6.331-5.239-7.526-6.261l-4.185,6.912c2.474,4.316,10.717,11.055,16.762,15.994,1.87,1.528,3.486,2.849,4.766,3.955l.806.562s.023.019.033.028c1.743,1.509,5.145,1.411,7.221.375a29.792,29.792,0,0,0,9.2-7.652.423.423,0,0,1,.328-.155Z" transform="translate(-94.348 -47.001)"/>
            </g>
            <path id="Trazado_169038" data-name="Trazado 169038" d="M115.418,72a.424.424,0,0,1-.262-.754,25.449,25.449,0,0,0,3.219-4.316c.38-.572.754-1.143,1.115-1.668a.422.422,0,0,1,.7.473c-.356.525-.731,1.087-1.106,1.659a24.106,24.106,0,0,1-3.4,4.517.41.41,0,0,1-.258.089Z" transform="translate(-63.018 -30.508)"/>
            <g id="Grupo_114423" data-name="Grupo 114423" transform="translate(0 11.545)">
              <path id="Trazado_169039" data-name="Trazado 169039" d="M103.952,62.979l-4.2-4.714S96.487,54.7,95.179,54.76c-.961.042-.53,1.837.773,3.641a.326.326,0,0,1-.445.464,14.54,14.54,0,0,1-3-2.479c-.909-1.293-2.868-3.922-3.95-2.9s-.689,6.7,3.243,9.358,9.93,3.7,9.93,3.7l2.226-3.566Z" transform="translate(-87.616 -52.836)" fill="#ffd4a2"/>
              <path id="Trazado_169040" data-name="Trazado 169040" d="M101.932,67.168a.355.355,0,0,1-.07,0c-.248-.042-6.129-1.082-10.094-3.763a9.612,9.612,0,0,1-3.922-7.039,3.945,3.945,0,0,1,.623-2.976,1.235,1.235,0,0,1,1-.342c.937.094,2.076,1.143,3.59,3.3a11.813,11.813,0,0,0,2.465,2.081c-.74-1.139-1.354-2.563-.965-3.369a.9.9,0,0,1,.806-.511c1.434-.066,4.33,3.023,4.9,3.641l4.2,4.714a.423.423,0,0,1,.042.506l-2.226,3.566a.42.42,0,0,1-.356.2Zm-12.6-13.29a.38.38,0,0,0-.276.117,3.363,3.363,0,0,0-.366,2.292A8.738,8.738,0,0,0,92.241,62.7c3.337,2.259,8.271,3.337,9.485,3.58l1.9-3.055-3.993-4.475c-1.284-1.4-3.435-3.365-4.217-3.365H95.4c-.066,0-.07.014-.084.037-.159.328.164,1.528,1.181,2.934a.748.748,0,0,1-1.026,1.059,13.681,13.681,0,0,1-3.107-2.587c-1.65-2.352-2.535-2.9-2.985-2.943h-.052Z" transform="translate(-87.818 -53.037)"/>
            </g>
          </g>
        </g>
        <g id="Grupo_114426" data-name="Grupo 114426" transform="translate(29.335 46.305)">
          <path id="Trazado_169041" data-name="Trazado 169041" d="M157.449,58.532h-3.758a21.37,21.37,0,0,0-20.83,16.926l-4.372,20.183a10.212,10.212,0,0,1-9.953,8.088h-7.9a7.55,7.55,0,0,0,0,15.1h12.831l-.009.033h22.573a16.852,16.852,0,0,0,16.425-13.346L169.39,73.5a12.31,12.31,0,0,0-11.94-14.977Z" transform="translate(-103.156 -58.527)" fill="#75b62f"/>
          <path id="Trazado_169042" data-name="Trazado 169042" d="M136.547,112.341H113.974a.422.422,0,0,1,0-.843h22.573A16.529,16.529,0,0,0,152.56,98.484L159.5,66.473a.422.422,0,0,1,.825.178l-6.935,32.011a17.483,17.483,0,0,1-6.026,9.831,17.193,17.193,0,0,1-10.806,3.847Z" transform="translate(-93.669 -51.581)"/>
        </g>
      </g>
      <g id="Grupo_114431" data-name="Grupo 114431" transform="translate(104.978 103.23)">
        <g id="Grupo_114428" data-name="Grupo 114428" transform="translate(0 27.072)">
          <path id="Trazado_169043" data-name="Trazado 169043" d="M55.111,68.352h48.178v.642a1.951,1.951,0,0,1-1.949,1.949H57.056a1.951,1.951,0,0,1-1.949-1.949v-.642h0Z" transform="translate(-54.694 -67.931)" fill="#99b9ff"/>
          <path id="Trazado_169044" data-name="Trazado 169044" d="M101.461,71.567H57.342a2.453,2.453,0,0,1-2.451-2.451v-.562a.42.42,0,0,1,.422-.422H103.49a.42.42,0,0,1,.422.422v.562a2.456,2.456,0,0,1-2.451,2.451ZM55.734,68.975v.141a1.61,1.61,0,0,0,1.607,1.607h44.12a1.61,1.61,0,0,0,1.607-1.607v-.141H55.734Z" transform="translate(-54.891 -68.132)"/>
        </g>
        <g id="Grupo_114430" data-name="Grupo 114430" transform="translate(20.611)">
          <g id="Grupo_114429" data-name="Grupo 114429">
            <path id="Trazado_169045" data-name="Trazado 169045" d="M93.456,81.316H65.887L74.646,55.5a2.887,2.887,0,0,1,2.418-1.3h23.3a1.446,1.446,0,0,1,1.392,1.935c-.136.361-.286.717-.408,1.083l-7.9,24.1Z" transform="translate(-65.467 -53.776)" fill="#99b9ff"/>
            <path id="Trazado_169046" data-name="Trazado 169046" d="M93.656,81.939H66.088a.418.418,0,0,1-.342-.178.423.423,0,0,1-.056-.38l8.758-25.821a.351.351,0,0,1,.047-.094,3.284,3.284,0,0,1,2.774-1.49h23.3a1.882,1.882,0,0,1,1.575.82,1.825,1.825,0,0,1,.211,1.687c-.037.1-.08.206-.122.309-.1.258-.2.5-.281.754l-7.9,24.1a.424.424,0,0,1-.4.291ZM66.678,81.1H93.352l7.807-23.81c.089-.272.192-.539.3-.8.037-.1.08-.2.117-.3a.973.973,0,0,0-.117-.909,1.045,1.045,0,0,0-.881-.455h-23.3a2.458,2.458,0,0,0-2.038,1.064Z" transform="translate(-65.668 -53.977)"/>
          </g>
          <path id="Trazado_169047" data-name="Trazado 169047" d="M75,61.834a1.81,1.81,0,1,0,2.31-1.462A1.944,1.944,0,0,0,75,61.834Z" transform="translate(-57.243 -48.202)" fill="#fff"/>
        </g>
        <path id="Trazado_169048" data-name="Trazado 169048" d="M83.42,69H68.233a.422.422,0,0,1,0-.844H83.42a.422.422,0,0,1,0,.844Z" transform="translate(-43.101 -41.038)" fill="#fff"/>
        <path id="Trazado_169049" data-name="Trazado 169049" d="M81.5,69H78.81a.422.422,0,0,1,0-.844H81.5a.422.422,0,0,1,0,.844Z" transform="translate(-33.449 -41.038)" fill="#fff"/>
      </g>
      <g id="Grupo_114434" data-name="Grupo 114434" transform="translate(148.243 117.945)">
        <g id="Grupo_114432" data-name="Grupo 114432" transform="translate(8.409 27.348)">
          <path id="Trazado_169050" data-name="Trazado 169050" d="M2.109,0H49.818a2.112,2.112,0,0,1,2.109,2.109V2.8H0V2.109A2.112,2.112,0,0,1,2.109,0Z" transform="translate(52.349 3.224) rotate(180)" fill="#99b9ff"/>
          <path id="Trazado_169051" data-name="Trazado 169051" d="M132.365,79.616H84.225A2.32,2.32,0,0,1,81.91,77.3v-.909a.42.42,0,0,1,.422-.422h51.927a.42.42,0,0,1,.422.422V77.3a2.32,2.32,0,0,1-2.315,2.315Zm-49.612-2.8V77.3a1.474,1.474,0,0,0,1.471,1.471h48.141a1.474,1.474,0,0,0,1.471-1.471v-.487H82.753Z" transform="translate(-81.91 -75.97)"/>
        </g>
        <g id="Grupo_114433" data-name="Grupo 114433">
          <path id="Trazado_169052" data-name="Trazado 169052" d="M86.137,89.291h29.715L107.061,63.3a3.1,3.1,0,0,0-2.605-1.406H79.337a1.564,1.564,0,0,0-1.5,2.095c.15.389,8.3,25.305,8.3,25.305Z" transform="translate(-77.306 -61.469)" fill="#99b9ff"/>
          <path id="Trazado_169053" data-name="Trazado 169053" d="M116.054,89.914H86.339a.428.428,0,0,1-.4-.291c-2.807-8.58-8.159-24.907-8.3-25.286a1.946,1.946,0,0,1,.23-1.8,1.991,1.991,0,0,1,1.668-.867h25.118a3.5,3.5,0,0,1,2.962,1.6.582.582,0,0,1,.047.094l8.791,25.994a.423.423,0,0,1-.4.558ZM86.648,89.07h28.82l-8.585-25.385a2.671,2.671,0,0,0-2.226-1.172H79.539a1.166,1.166,0,0,0-.975.5,1.107,1.107,0,0,0-.131,1.022c.141.375,7.259,22.1,8.215,25.029Z" transform="translate(-77.513 -61.671)"/>
        </g>
        <path id="Trazado_169054" data-name="Trazado 169054" d="M86.675,85.7h24.452L103.592,63.2,79.214,63.17Z" transform="translate(-75.96 -60.302)" fill="#fff"/>
      </g>
      <g id="Grupo_114443" data-name="Grupo 114443" transform="translate(108.648 137.887)">
        <g id="Grupo_114437" data-name="Grupo 114437">
          <g id="Grupo_114435" data-name="Grupo 114435" transform="translate(6.102 9.389)">
            <path id="Trazado_169055" data-name="Trazado 169055" d="M60.22,77.333l3.313,4.353c.033.056.061.136.173.131,2.559-.136,24.818-2.727,35.169-3.561.052,0,.042-.037,0-.066l-1.434-.961-37.217.1Z" transform="translate(-59.801 -76.804)" fill="#fff"/>
            <path id="Trazado_169056" data-name="Trazado 169056" d="M63.9,82.442a.564.564,0,0,1-.515-.323l-3.294-4.33a.421.421,0,1,1,.67-.511l3.28,4.307c1.275-.084,5.562-.548,10.937-1.125,7.549-.811,16.833-1.809,22.953-2.334l-.52-.347a.422.422,0,0,1,.469-.7l1.434.961a.447.447,0,0,1,.211.5.451.451,0,0,1-.408.337c-6.05.487-16.031,1.56-24.049,2.423-5.619.6-10.056,1.082-11.13,1.139H63.9Zm34.94-3.7h0Z" transform="translate(-60.001 -77.007)"/>
          </g>
          <g id="Grupo_114436" data-name="Grupo 114436">
            <path id="Trazado_169057" data-name="Trazado 169057" d="M100.92,81.682c-.717-.333-8.758-5.08-15.3-9.363-.675.112-14.494,1.092-28.585,2.034l7.488,10.436s16.608-1.5,36.425-3.023c.066,0,.056-.047-.019-.084Z" transform="translate(-56.609 -71.896)" fill="#fff"/>
            <path id="Trazado_169058" data-name="Trazado 169058" d="M64.719,85.413a.418.418,0,0,1-.342-.178L56.888,74.8a.422.422,0,0,1-.037-.426.415.415,0,0,1,.351-.239c14.293-.956,27.9-1.921,28.543-2.029a.424.424,0,0,1,.3.061c6.537,4.274,14.588,9.025,15.253,9.33a.476.476,0,0,1,.3.52.463.463,0,0,1-.426.37c-19.583,1.5-36.252,3.009-36.416,3.023h-.037Zm-6.7-10.488,6.907,9.621c2.067-.187,17.147-1.532,34.9-2.905-2.582-1.485-8.88-5.277-14.105-8.688-1.809.187-15.5,1.148-27.7,1.968Zm42.93,7.338Z" transform="translate(-56.81 -72.098)"/>
          </g>
        </g>
        <g id="Grupo_114442" data-name="Grupo 114442" transform="translate(8.387 1.707)">
          <g id="Grupo_114439" data-name="Grupo 114439" transform="translate(0 0.855)">
            <path id="Trazado_169059" data-name="Trazado 169059" d="M70.939,81.318a.425.425,0,0,1-.3-.127c-.047-.047-4.588-4.752-6.771-7.043a.421.421,0,0,1,.609-.581c2.179,2.287,6.725,6.992,6.767,7.039a.419.419,0,0,1-.3.712Z" transform="translate(-58.867 -73.437)"/>
            <g id="Grupo_114438" data-name="Grupo 114438" transform="translate(2.312 0.174)">
              <path id="Trazado_169060" data-name="Trazado 169060" d="M67.229,79.047a.438.438,0,0,1-.3-.122c-.993-.993-1.963-2.053-2.821-2.985-.581-.633-1.129-1.228-1.584-1.7a.421.421,0,0,1,.6-.586c.464.473,1.017,1.078,1.6,1.715.853.928,1.818,1.978,2.8,2.962a.419.419,0,0,1-.3.717Z" transform="translate(-62.404 -73.528)"/>
              <path id="Trazado_169061" data-name="Trazado 169061" d="M67.074,78.879a.427.427,0,0,1-.309-.136s-.562-.6-1.439-1.556a.421.421,0,1,1,.619-.572c.872.947,1.434,1.551,1.434,1.551a.422.422,0,0,1-.309.708Z" transform="translate(-59.84 -70.835)"/>
            </g>
            <path id="Trazado_169062" data-name="Trazado 169062" d="M67.934,81.541a.441.441,0,0,1-.309-.131c-.042-.047-4.344-4.621-6.331-7.01a.423.423,0,0,1,.651-.539c1.973,2.371,6.256,6.926,6.3,6.973a.422.422,0,0,1-.019.6A.427.427,0,0,1,67.934,81.541Z" transform="translate(-61.195 -73.192)"/>
          </g>
          <g id="Grupo_114440" data-name="Grupo 114440" transform="translate(14.978)">
            <path id="Trazado_169063" data-name="Trazado 169063" d="M79.228,80.02a.421.421,0,0,1-.253-.084L70.746,73.75a.422.422,0,0,1,.506-.675l8.229,6.186a.422.422,0,0,1-.253.759Z" transform="translate(-67.613 -72.99)"/>
            <path id="Trazado_169064" data-name="Trazado 169064" d="M77.329,80.445a.41.41,0,0,1-.267-.1L69.18,73.828a.423.423,0,1,1,.539-.651L77.6,79.7a.424.424,0,0,1-.267.75Z" transform="translate(-69.027 -72.909)"/>
          </g>
          <g id="Grupo_114441" data-name="Grupo 114441" transform="translate(7.176 0.299)">
            <path id="Trazado_169065" data-name="Trazado 169065" d="M74.06,79.453a.416.416,0,0,1-.286-.112c-.019-.014-1.668-1.537-4.035-3.6a.422.422,0,1,1,.553-.637c2.381,2.076,4.035,3.608,4.053,3.622a.418.418,0,0,1,.023.6.427.427,0,0,1-.309.136Z" transform="translate(-60.706 -71.457)"/>
            <path id="Trazado_169066" data-name="Trazado 169066" d="M71.552,78.778a.422.422,0,0,1-.3-.117l-4.967-4.808.586-.6s3.083,2.99,4.967,4.808a.417.417,0,0,1,.009.6.425.425,0,0,1-.3.127Z" transform="translate(-63.723 -73.055)"/>
            <path id="Trazado_169067" data-name="Trazado 169067" d="M71.324,78.537a.419.419,0,0,1-.3-.122s-.684-.675-1.56-1.523a.421.421,0,1,1,.586-.6c.886.853,1.57,1.528,1.57,1.528a.417.417,0,0,1,0,.6A.423.423,0,0,1,71.324,78.537Z" transform="translate(-60.941 -70.391)"/>
            <path id="Trazado_169068" data-name="Trazado 169068" d="M72.776,81.338a.427.427,0,0,1-.3-.122c-.052-.047-5.052-4.92-7.4-7.188a.421.421,0,0,1,.586-.6c2.352,2.268,7.357,7.142,7.409,7.193a.419.419,0,0,1-.291.722Z" transform="translate(-64.947 -73.005)"/>
            <path id="Trazado_169069" data-name="Trazado 169069" d="M70.912,76.752a.436.436,0,0,1-.291-.112l-2.943-2.765a.421.421,0,1,1,.576-.614L71.2,76.026a.42.42,0,0,1-.291.726Z" transform="translate(-62.577 -73.147)"/>
          </g>
        </g>
      </g>
      <g id="Grupo_114458" data-name="Grupo 114458" transform="translate(30.947 70.371)">
        <g id="Grupo_114456" data-name="Grupo 114456" transform="translate(6.476)">
          <g id="Grupo_114449" data-name="Grupo 114449" transform="translate(21.661 76.646)">
            <g id="Grupo_114445" data-name="Grupo 114445" transform="translate(1.631 3.998)">
              <g id="Grupo_114444" data-name="Grupo 114444">
                <path id="Trazado_169070" data-name="Trazado 169070" d="M51.435,79.185,66.561,93.792c1.71,1.326,5.066,5.047,5.68,6.992,1.087,3.449.5,6.593.136,10.192L63.642,142.49l2.666,11.125c.9.619-12.334-5.689-12.334-5.689s2.085-34.457,2.085-34.49c-.281-4.325-.38-12.048-4.621-12.9-.862-.173-4-.216-4.513-.267-4.452-.473-8.908-.562-13.243-6.968-1.945-2.873-1.706-11.448-1.706-11.448l19.461-2.671Z" transform="translate(-31.544 -78.759)" fill="#ffd4a2"/>
                <path id="Trazado_169071" data-name="Trazado 169071" d="M66.581,154.287a2.281,2.281,0,0,1-.75-.244c-.347-.15-.834-.37-1.42-.637-1.031-.469-2.465-1.134-4.255-1.978-3.051-1.434-6.134-2.9-6.162-2.915a.425.425,0,0,1-.239-.408c.019-.337,2.024-33.468,2.081-34.462-.019-.328-.042-.67-.061-1.031-.248-4.274-.623-10.736-4.218-11.458-.539-.108-2.156-.164-3.224-.206-.619-.023-1.064-.037-1.251-.056-.253-.028-.511-.052-.764-.08-4.222-.426-8.585-.872-12.784-7.071-2-2.952-1.79-11.34-1.776-11.7a.422.422,0,0,1,.366-.408l19.461-2.671a.419.419,0,0,1,.351.112L67.045,93.672c1.621,1.265,5.127,5.028,5.806,7.189.965,3.06.647,5.9.309,8.913-.052.478-.108.961-.159,1.448a.188.188,0,0,1-.014.07L64.281,142.7,66.9,153.607a.437.437,0,0,1,.023.464.368.368,0,0,1-.333.216Zm-11.973-6.415c3.894,1.856,9.339,4.424,11.3,5.286l-2.488-10.366a.458.458,0,0,1,0-.211L72.148,111.1c.047-.483.1-.956.155-1.425.342-3.046.633-5.675-.276-8.566-.562-1.79-3.8-5.441-5.534-6.786a.2.2,0,0,1-.033-.028L51.483,79.834l-18.9,2.591c-.019,1.635.014,8.44,1.64,10.844,3.974,5.872,7.952,6.279,12.17,6.706.258.028.511.052.769.08.159.019.637.033,1.195.056a30.748,30.748,0,0,1,3.355.22c4.236.843,4.635,7.7,4.9,12.235.023.366.042.717.061,1.05q0,.037-2.067,34.26Z" transform="translate(-31.746 -78.962)"/>
              </g>
              <path id="Trazado_169072" data-name="Trazado 169072" d="M44.327,110.409H55.855a.3.3,0,0,1,.309.337l-.665,4.667c-.22,1.537-.075,3.96,1.19,4.878l1.195.722,6.275,4.25a3.337,3.337,0,0,1-.112,5.441,1.39,1.39,0,0,1-.679.286l-2.024.141a29.644,29.644,0,0,1-8.412-.619,80.284,80.284,0,0,1-9.147-2.015,2.361,2.361,0,0,1-1.247-2.554c.872-5.319.633-14.457.633-14.457a1.147,1.147,0,0,1,1.162-1.078Z" transform="translate(-21.925 -50.267)"/>
            </g>
            <g id="Grupo_114448" data-name="Grupo 114448" transform="translate(21.09 4.494)">
              <g id="Grupo_114446" data-name="Grupo 114446">
                <path id="Trazado_169073" data-name="Trazado 169073" d="M46.458,79.447S71.234,84.738,75.4,85.881c5.234,1.439,6.72,4.63,7.929,7.353a20.9,20.9,0,0,1-.206,16.467L68.033,150.568l10.839,8.871-20.164-2.568,10.755-46.777c1.195-4.6,1.036-8.2-2.474-9.649C60.826,97.906,42.147,94.2,42.147,94.2l4.311-14.757Z" transform="translate(-41.715 -79.016)" fill="#ffd4a2"/>
                <path id="Trazado_169074" data-name="Trazado 169074" d="M79.073,160.062h-.052l-20.164-2.568a.429.429,0,0,1-.3-.178.412.412,0,0,1-.066-.337L69.251,110.2c1.34-5.155.651-7.98-2.226-9.166-6.054-2.5-24.574-6.181-24.761-6.218a.432.432,0,0,1-.281-.2.409.409,0,0,1-.042-.337l4.311-14.757a.422.422,0,0,1,.492-.3c.248.052,24.832,5.3,28.97,6.439,5.506,1.509,7.062,5.024,8.2,7.587a21.147,21.147,0,0,1-.2,16.8L68.731,150.624l10.6,8.679a.419.419,0,0,1-.267.745Zm-19.649-3.346,18.243,2.32-9.7-7.943a.414.414,0,0,1-.127-.473l15.094-40.868A20.323,20.323,0,0,0,83.15,93.6c-1.129-2.545-2.535-5.712-7.652-7.118-3.829-1.05-25.385-5.67-28.538-6.345L42.887,94.077c2.952.6,18.8,3.838,24.466,6.176,4.339,1.79,3.632,6.645,2.723,10.145L59.429,156.711Z" transform="translate(-41.921 -79.222)"/>
              </g>
              <g id="Grupo_114447" data-name="Grupo 114447" transform="translate(14.883 61.866)">
                <path id="Trazado_169075" data-name="Trazado 169075" d="M59.553,130.7H72.248a2.385,2.385,0,0,0,2.446-2.69,3.3,3.3,0,0,0-.811-1.6l-9.443-4.55a1.846,1.846,0,0,1-.806-2.638l3.875-6.3a.9.9,0,0,0-.8-1.354H53.836a1.447,1.447,0,0,0-1.448,1.209l-1.626,10.853-.811,4.363a1.948,1.948,0,0,0,1.851,2.263l7.746.45Z" transform="translate(-49.506 -111.57)"/>
                <path id="Trazado_169076" data-name="Trazado 169076" d="M51.653,126.644a.3.3,0,0,1-.094-.009,2.354,2.354,0,0,1-1.818-2.7l.811-4.363.492-3.28a.421.421,0,0,1,.834.122l-.492,3.294-.811,4.377a1.512,1.512,0,0,0,1.176,1.725.42.42,0,0,1,.314.506.424.424,0,0,1-.412.328Z" transform="translate(-49.703 -107.59)" fill="#fff"/>
              </g>
            </g>
            <path id="Trazado_169077" data-name="Trazado 169077" d="M31.033,83.868c-.586,4.288.478,13.744,7.043,16.908s13.871.548,15.67,4.25c1.5,3.083.047,15.558-.253,18.416a.985.985,0,0,0,.815,1.078,61.149,61.149,0,0,0,18.356-.173,66.172,66.172,0,0,1,19.222-.155.98.98,0,0,0,1.111-.75c.872-3.7,4.119-17.681,4.269-21.359.173-4.25-1.087-14.785-11.125-17.835a36.067,36.067,0,0,0-6.176-1.439,232.647,232.647,0,0,1-27.559-5.937l-21.378,7Z" transform="translate(-30.894 -76.872)" fill="#f85316"/>
          </g>
          <g id="Grupo_114452" data-name="Grupo 114452" transform="translate(13.659 33.464)">
            <g id="Grupo_114450" data-name="Grupo 114450" transform="translate(50.356 25.721)">
              <path id="Trazado_169078" data-name="Trazado 169078" d="M54.164,69.253c.178-.033,4.119.478,4.5.384,1.917-.487,5.961-1.6,7.812-1.462a26.985,26.985,0,0,0,5.314-.192c.736-.094,1.232.239,1.331.717a1.327,1.327,0,0,1-1.209,1.523c-1.261.183-2.516.4-3.594.562-.337.052-.679.037-.38.173.708.314,1.467.792,1.467,1.387,0,1.12-2.938,3.43-5.965,3.379-2.6-.047-3.21-1.378-4.185-1.645-.164-.042-4.475-.281-4.658-.337-1.917-.562-1.514-4.292-.44-4.485Z" transform="translate(-52.84 -67.537)" fill="#ffd4a2"/>
              <path id="Trazado_169079" data-name="Trazado 169079" d="M63.754,76.346h-.117a5.485,5.485,0,0,1-3.5-1.2,2.7,2.7,0,0,0-.773-.455c-.178-.023-1.218-.089-2.062-.145-2.188-.141-2.507-.169-2.624-.2-1.312-.384-1.7-1.888-1.635-3.06.056-1.017.459-2.1,1.242-2.245a8.517,8.517,0,0,1,1.537.131c.937.1,2.685.291,2.952.253.183-.047.412-.108.656-.169,2.212-.567,5.548-1.429,7.273-1.3a26.651,26.651,0,0,0,5.23-.192,1.5,1.5,0,0,1,1.8,1.054,1.741,1.741,0,0,1-.3,1.289,1.791,1.791,0,0,1-1.265.736c-.792.112-1.579.244-2.324.361-.2.033-.4.066-.6.094a1.6,1.6,0,0,1,.783,1.247,2.529,2.529,0,0,1-.872,1.57,8.2,8.2,0,0,1-5.408,2.231ZM54.9,73.53c.206.028,1.5.112,2.456.173,1.9.122,2.118.141,2.212.169a3.42,3.42,0,0,1,1.059.586A4.671,4.671,0,0,0,63.647,75.5a7.422,7.422,0,0,0,4.916-1.987,1.781,1.781,0,0,0,.623-.965c0-.291-.459-.665-1.218-1-.347-.155-.389-.375-.361-.534.056-.351.389-.389.637-.412a1.738,1.738,0,0,0,.211-.028c.4-.061.82-.131,1.256-.2.75-.122,1.542-.248,2.338-.361a.989.989,0,0,0,.7-.384.9.9,0,0,0,.159-.637c-.061-.291-.4-.445-.862-.384a27.6,27.6,0,0,1-5.4.2c-1.589-.117-4.977.759-7,1.279-.248.066-.473.122-.679.173a17.216,17.216,0,0,1-3.233-.239c-.544-.061-1.153-.127-1.317-.131-.169.066-.478.586-.525,1.453s.192,1.945,1.012,2.2Z" transform="translate(-53.04 -67.742)"/>
            </g>
            <g id="Grupo_114451" data-name="Grupo 114451">
              <path id="Trazado_169080" data-name="Trazado 169080" d="M53.265,58.023c5.492,4.316,7.287,16.8,10.8,19.621,3.046,2.446,13.965,3.219,13.965,3.219l.084,7.006-9.527.37c-5.731.216-11.219-2.113-13.248-4.025C48.593,77.859,34.558,64.424,31.02,55.459l9.85-1.036a16.6,16.6,0,0,1,12.395,3.594Z" transform="translate(-22.776 -54.293)"/>
              <path id="Trazado_169081" data-name="Trazado 169081" d="M56.022,79.766a11.99,11.99,0,0,1-.473,5.708c-1.275,3.913.262,8.187,3.2,11.069a9.567,9.567,0,0,0,4.78,2.709s-2.057,4.513-8.547,5.117c-2.638.244-9.611.834-14.818.787a73.208,73.208,0,0,1-12.409-1.129L26.744,71.041S25.7,57.193,35.23,55.3l13.74-.862,7.057,25.324Z" transform="translate(-26.71 -54.157)"/>
              <path id="Trazado_169082" data-name="Trazado 169082" d="M45.922,74.431a.427.427,0,0,1-.309-.136,37.6,37.6,0,0,1-6.837-10.042.423.423,0,0,1,.773-.342,36.82,36.82,0,0,0,6.687,9.808.421.421,0,0,1-.023.6.416.416,0,0,1-.286.112Z" transform="translate(-15.733 -45.748)" fill="#caddff"/>
            </g>
          </g>
          <g id="Grupo_114455" data-name="Grupo 114455">
            <g id="Grupo_114453" data-name="Grupo 114453" transform="translate(21.387 8.754)">
              <path id="Trazado_169083" data-name="Trazado 169083" d="M50.235,50.942c-.042-.469-2.306-1.453-2.816-2.053s-.426-1.495-.726-2.31a6.123,6.123,0,0,0-1.42-1.8c-6.279-7.6-13.351.8-13.351.8-1.5,2.095-.961,5.178-.216,6.926,1.443,3.388,5.408,5.773,5.408,5.773.042.173.075.342.108.506.567,3.187-2,7.666-5.136,8.43-.028.009-.056.014-.084.023,2.034,2.427,4.963,3.472,8.374,3.472,2.8,0,4.719-1.228,6.673-2.948-.792-.684-1.321-.965-1.963-1.593-2.1-2.043-.689-6.673,0-7.231s3.885.394,4.583-.515c1.031-1.34-.487-5.342-.487-5.726,0-.183.248-.483.511-.8.286-.347.581-.712.558-.961Z" transform="translate(-30.552 -41.172)" fill="#ffd4a2"/>
              <path id="Trazado_169084" data-name="Trazado 169084" d="M40.573,71.331c-3.758,0-6.682-1.218-8.7-3.622a.423.423,0,0,1,.225-.679l.084-.023c2.844-.689,5.37-4.845,4.817-7.943-.019-.1-.037-.211-.061-.314-.769-.487-4.091-2.746-5.427-5.876-.689-1.621-1.415-5,.262-7.338,0-.009.014-.019.019-.028.141-.169,3.529-4.133,7.816-4.133h.033c2.254.009,4.316,1.125,6.129,3.313a6.193,6.193,0,0,1,1.514,1.949,6.007,6.007,0,0,1,.248,1.012,2.425,2.425,0,0,0,.4,1.167,7.062,7.062,0,0,0,1.279.867c1.045.623,1.593.97,1.635,1.42.037.426-.314.853-.651,1.265l-.019.023a3.8,3.8,0,0,0-.389.52c.019.084.089.337.155.562.412,1.462,1.181,4.18.244,5.4-.525.684-1.781.609-3,.534a4.827,4.827,0,0,0-1.654.052,6.741,6.741,0,0,0-.942,3.393,4.205,4.205,0,0,0,.975,3.205,9.2,9.2,0,0,0,.989.815c.281.211.6.445.961.764a.422.422,0,0,1,0,.637c-2.081,1.832-4.058,3.055-6.95,3.055Zm-7.615-3.683a10.155,10.155,0,0,0,7.615,2.84,8.845,8.845,0,0,0,6.017-2.521c-.187-.15-.366-.281-.539-.412a10.584,10.584,0,0,1-1.068-.881,5.013,5.013,0,0,1-1.228-3.847c.075-1.776.722-3.585,1.251-4.011.431-.351,1.228-.3,2.24-.239.806.047,2.024.122,2.277-.206.679-.881-.07-3.529-.384-4.658a3.721,3.721,0,0,1-.187-.811c0-.328.258-.642.586-1.04l.019-.023a4.292,4.292,0,0,0,.45-.619,8.135,8.135,0,0,0-1.209-.8,6.564,6.564,0,0,1-1.49-1.045,3.105,3.105,0,0,1-.59-1.565,4.831,4.831,0,0,0-.211-.872A5.547,5.547,0,0,0,45.2,45.3a.444.444,0,0,1-.047-.047A7.2,7.2,0,0,0,39.65,42.23h-.028c-3.791,0-6.959,3.59-7.16,3.824-1.443,2.038-.783,5.047-.159,6.5,1.373,3.224,5.2,5.553,5.239,5.576a.421.421,0,0,1,.192.262c.042.183.08.356.112.53.59,3.327-1.856,7.582-4.878,8.735Z" transform="translate(-30.75 -41.373)"/>
            </g>
            <g id="Grupo_114454" data-name="Grupo 114454">
              <path id="Trazado_169085" data-name="Trazado 169085" d="M19.568,50.685c0-5.562,2.582-9.475,7.3-11.692,1.785-.839,4.461-2.2,6.561-2.2a13.885,13.885,0,0,1,0,27.77c-3.552,0-5.642-2.062-8.093-4.264-2.83-2.545-5.764-5.516-5.764-9.621Z" transform="translate(-19.568 -36.796)"/>
              <path id="Trazado_169086" data-name="Trazado 169086" d="M46.371,44.343a5.752,5.752,0,0,0-2.113-2.184c-4.7-2.924-9.428.23-11.265,2.071a7.479,7.479,0,0,0-1.926,3.158,10.919,10.919,0,0,0,.253,6.556c1.2,2.816,3.833,4.269,5.53,5.066a.8.8,0,0,0,.9-.066,19.988,19.988,0,0,0,1.7-1.743.548.548,0,0,0-.141-.834,2.354,2.354,0,0,1-.239-.159,2.079,2.079,0,1,1,2.451-3.313c.07.052.141.112.206.169.52-1.907.337-3.472,1.05-4.934a4.09,4.09,0,0,1,3.7-2.4c.37-.44-.108-1.382-.108-1.382Z" transform="translate(-9.425 -32.988)"/>
            </g>
          </g>
        </g>
        <g id="Grupo_114457" data-name="Grupo 114457" transform="translate(0 43.501)">
          <path id="Trazado_169087" data-name="Trazado 169087" d="M56.295,72.325v7.624c0,10.923,8.027,19.78,17.924,19.78s17.924,8.857,17.924,19.78a1.7,1.7,0,0,1-1.64,1.762H43.056c-14.841,0-26.875-13.276-26.875-29.649V71.336c0-6.514,4.785-11.795,10.689-11.795H44.706c6.4,0,11.589,5.726,11.589,12.788Z" transform="translate(-16.182 -59.541)" fill="#75b62f"/>
          <path id="Trazado_169088" data-name="Trazado 169088" d="M71.282,109.837a.413.413,0,0,1-.351-.192c-2.4-3.665-6.106-5.684-11.326-6.167a22.038,22.038,0,0,1-8.843-2.62c-5.708-3.36-13.3-9.316-13.3-22.193V77.231c0-12.367-3.922-12.367-9.86-12.367a.422.422,0,0,1,0-.844c6.636,0,10.7.637,10.7,13.21v1.434c0,12.446,7.353,18.21,12.882,21.467a21.208,21.208,0,0,0,8.491,2.5c5.412.5,9.433,2.7,11.954,6.542a.424.424,0,0,1-.122.586.413.413,0,0,1-.23.07Z" transform="translate(-6.145 -55.454)" fill="#caddff"/>
          <rect id="Rectángulo_42474" data-name="Rectángulo 42474" width="4.995" height="57.958" transform="translate(32.859 60.146)" fill="#99b9ff"/>
          <path id="Trazado_169089" data-name="Trazado 169089" d="M69.183,121.842l-22.1-2.085H45.055l-22.564,2.085V123.5H69.183Z" transform="translate(-10.424 -4.595)" fill="#99b9ff"/>
        </g>
      </g>
      <g id="Grupo_114464" data-name="Grupo 114464" transform="translate(48.726 2.919)">
        <g id="Grupo_114459" data-name="Grupo 114459" transform="translate(27.598)">
          <path id="Trazado_169090" data-name="Trazado 169090" d="M67.625,24.312a.369.369,0,0,0-.328-.323l-2.423-.206a.368.368,0,0,1-.309-.253,12.091,12.091,0,0,0-.553-1.368.381.381,0,0,1,.042-.4l1.537-1.968a.38.38,0,0,0,0-.469l-1.312-1.753a.346.346,0,0,0-.436-.108l-2.2,1.087a.336.336,0,0,1-.384-.056,10.892,10.892,0,0,0-1.134-.89.378.378,0,0,1-.159-.37l.389-2.512a.377.377,0,0,0-.22-.408l-1.973-.834a.353.353,0,0,0-.431.136L56.35,15.7a.356.356,0,0,1-.361.155,10.844,10.844,0,0,0-1.411-.178.364.364,0,0,1-.319-.239L53.4,13.06a.36.36,0,0,0-.384-.239l-2.109.314a.37.37,0,0,0-.309.342l-.2,2.535a.374.374,0,0,1-.239.323,11.643,11.643,0,0,0-1.307.576.349.349,0,0,1-.389-.042L46.58,15.263a.348.348,0,0,0-.45,0l-1.678,1.373a.389.389,0,0,0-.1.455l1.04,2.3a.391.391,0,0,1-.052.4,11.875,11.875,0,0,0-.853,1.186.355.355,0,0,1-.356.164l-2.4-.408a.353.353,0,0,0-.389.23l-.8,2.067a.385.385,0,0,0,.131.45l2,1.443a.372.372,0,0,1,.145.375,12.7,12.7,0,0,0-.169,1.476.371.371,0,0,1-.23.328l-2.277.9a.375.375,0,0,0-.23.4l.3,2.207a.369.369,0,0,0,.328.323l2.423.206a.368.368,0,0,1,.309.253,12.094,12.094,0,0,0,.553,1.368.381.381,0,0,1-.042.4l-1.537,1.968a.38.38,0,0,0,0,.469l1.312,1.753a.346.346,0,0,0,.436.108l2.2-1.087a.336.336,0,0,1,.384.056,10.89,10.89,0,0,0,1.134.89.378.378,0,0,1,.159.37l-.389,2.512a.377.377,0,0,0,.22.408l1.973.834a.353.353,0,0,0,.431-.136l1.382-2.09a.356.356,0,0,1,.361-.155,10.844,10.844,0,0,0,1.411.178.352.352,0,0,1,.314.239l.862,2.381a.36.36,0,0,0,.384.239l2.109-.314a.37.37,0,0,0,.309-.342l.2-2.535a.374.374,0,0,1,.239-.323,10.849,10.849,0,0,0,1.307-.576.349.349,0,0,1,.389.042l1.884,1.607a.348.348,0,0,0,.45,0L63.38,38.3a.389.389,0,0,0,.1-.455l-1.04-2.3a.391.391,0,0,1,.052-.4,11.878,11.878,0,0,0,.853-1.186.355.355,0,0,1,.356-.164l2.4.408a.353.353,0,0,0,.389-.23l.8-2.067a.385.385,0,0,0-.131-.45l-2-1.443a.372.372,0,0,1-.145-.375,12.7,12.7,0,0,0,.169-1.476.371.371,0,0,1,.23-.328l2.277-.9a.375.375,0,0,0,.23-.4l-.3-2.207Zm-13.7,10.6A7.287,7.287,0,0,1,46.8,27.461a7.13,7.13,0,1,1,14.246,0A7.29,7.29,0,0,1,53.923,34.907Z" transform="translate(-39.908 8.778)" fill="#3d46c2"/>
          <path id="Trazado_169091" data-name="Trazado 169091" d="M126.41,26.241a.639.639,0,0,0-.445-.661L121.916,24.4a.628.628,0,0,1-.436-.534,20.3,20.3,0,0,0-.473-2.512.682.682,0,0,1,.206-.675l3.285-2.816a.682.682,0,0,0,.169-.8l-1.631-3.43a.606.606,0,0,0-.708-.333l-4.11,1.1a.6.6,0,0,1-.637-.225,19.625,19.625,0,0,0-1.621-1.9.654.654,0,0,1-.141-.684l1.523-4.133a.655.655,0,0,0-.234-.769L114.038,4.6a.612.612,0,0,0-.778.08L110.2,7.755a.608.608,0,0,1-.665.136,18.684,18.684,0,0,0-2.334-.783.618.618,0,0,1-.455-.515l-.651-4.335a.623.623,0,0,0-.576-.539l-3.688-.192a.646.646,0,0,0-.642.473l-1.2,4.241a.639.639,0,0,1-.52.464,18.991,18.991,0,0,0-2.418.534.594.594,0,0,1-.642-.206L93.752,3.659a.6.6,0,0,0-.759-.164L89.675,5.252a.674.674,0,0,0-.333.74l.984,4.264a.666.666,0,0,1-.23.665,20.731,20.731,0,0,0-1.856,1.72.607.607,0,0,1-.661.159L83.64,11.283a.621.621,0,0,0-.745.258l-2.062,3.238a.662.662,0,0,0,.066.806l2.9,3.14a.658.658,0,0,1,.122.689,21.29,21.29,0,0,0-.792,2.446.644.644,0,0,1-.5.483l-4.175.754a.655.655,0,0,0-.525.609l-.248,3.847a.639.639,0,0,0,.445.661L82.173,29.4a.628.628,0,0,1,.436.534,20.3,20.3,0,0,0,.473,2.512.682.682,0,0,1-.206.675l-3.285,2.816a.682.682,0,0,0-.169.8l1.631,3.43a.606.606,0,0,0,.708.333l4.11-1.1a.6.6,0,0,1,.637.225,20.26,20.26,0,0,0,1.617,1.9.654.654,0,0,1,.141.684L86.742,46.34a.655.655,0,0,0,.234.769l3.069,2.09a.612.612,0,0,0,.778-.08l3.065-3.079a.608.608,0,0,1,.665-.136,18.683,18.683,0,0,0,2.334.783.618.618,0,0,1,.455.515l.651,4.335a.623.623,0,0,0,.576.539l3.688.192a.646.646,0,0,0,.642-.473l1.2-4.241a.639.639,0,0,1,.52-.464,18.991,18.991,0,0,0,2.418-.534.594.594,0,0,1,.642.206l2.648,3.374a.6.6,0,0,0,.759.164l3.318-1.757a.674.674,0,0,0,.333-.74l-.984-4.264a.666.666,0,0,1,.23-.665,20.058,20.058,0,0,0,1.851-1.72.607.607,0,0,1,.661-.159l3.941,1.518a.621.621,0,0,0,.745-.258l2.062-3.238a.662.662,0,0,0-.066-.806l-2.9-3.14a.658.658,0,0,1-.122-.689,21.288,21.288,0,0,0,.792-2.446.644.644,0,0,1,.5-.483l4.175-.754a.655.655,0,0,0,.525-.609l.248-3.847Zm-26.9,13.3a12.631,12.631,0,0,1-9.55-15.085,12.355,12.355,0,1,1,24.2,4.883C112.745,36.326,106.189,40.895,99.507,39.545Z" transform="translate(-5.443 -1.526)" fill="#f85316"/>
        </g>
        <g id="Grupo_114462" data-name="Grupo 114462" transform="translate(0 6.313)">
          <g id="Grupo_114460" data-name="Grupo 114460" transform="translate(0 32.554)">
            <path id="Trazado_169092" data-name="Trazado 169092" d="M27.652,22.069H64.71a1.956,1.956,0,0,1,1.954,1.954V37.473a1.956,1.956,0,0,1-1.954,1.954H27.652A1.956,1.956,0,0,1,25.7,37.473V24.024a1.956,1.956,0,0,1,1.954-1.954Z" transform="translate(-25.277 -21.648)" fill="#fff"/>
            <path id="Trazado_169093" data-name="Trazado 169093" d="M64.911,40.05H27.854a2.376,2.376,0,0,1-2.376-2.376V24.225a2.376,2.376,0,0,1,2.376-2.376h7.31a.422.422,0,0,1,0,.844h-7.31a1.536,1.536,0,0,0-1.532,1.532V37.674a1.536,1.536,0,0,0,1.532,1.532H64.916a1.536,1.536,0,0,0,1.532-1.532V24.225a1.536,1.536,0,0,0-1.532-1.532H40.094a.422.422,0,0,1,0-.844H64.916a2.379,2.379,0,0,1,2.376,2.376V37.674a2.376,2.376,0,0,1-2.376,2.376Z" transform="translate(-25.478 -21.849)"/>
            <path id="Trazado_169094" data-name="Trazado 169094" d="M58.544,26.04H29.092a.422.422,0,1,1,0-.843H58.544a.422.422,0,1,1,0,.843Z" transform="translate(-22.564 -18.795)"/>
            <path id="Trazado_169095" data-name="Trazado 169095" d="M47.43,28.1H41.272a.422.422,0,0,1,0-.844H47.43a.422.422,0,0,1,0,.844Z" transform="translate(-11.45 -16.917)"/>
            <path id="Trazado_169096" data-name="Trazado 169096" d="M48.451,28.1H29.092a.422.422,0,0,1,0-.844H48.451a.422.422,0,0,1,0,.844Z" transform="translate(-22.564 -16.917)"/>
          </g>
          <g id="Grupo_114461" data-name="Grupo 114461" transform="translate(156.385 0)">
            <path id="Trazado_169097" data-name="Trazado 169097" d="M110.3,5.136h52.044a2.747,2.747,0,0,1,2.746,2.746v18.89a2.742,2.742,0,0,1-2.741,2.741H110.305a2.747,2.747,0,0,1-2.746-2.746V7.882A2.742,2.742,0,0,1,110.3,5.14Z" transform="translate(-106.964 -4.545)" fill="#fff"/>
            <path id="Trazado_169098" data-name="Trazado 169098" d="M162.628,30.385h-34.86a.59.59,0,1,1,0-1.181h34.86a2.154,2.154,0,0,0,2.151-2.151V8.164a2.154,2.154,0,0,0-2.151-2.151H110.584a2.154,2.154,0,0,0-2.151,2.151v18.89a2.154,2.154,0,0,0,2.151,2.151h10.267a.59.59,0,0,1,0,1.181H110.584a3.338,3.338,0,0,1-3.336-3.337V8.164a3.338,3.338,0,0,1,3.336-3.337h52.044a3.338,3.338,0,0,1,3.337,3.337v18.89a3.338,3.338,0,0,1-3.337,3.337Z" transform="translate(-107.248 -4.827)"/>
            <path id="Trazado_169099" data-name="Trazado 169099" d="M153.687,14.055H112.322a.59.59,0,1,1,0-1.181h41.364a.59.59,0,0,1,0,1.181Z" transform="translate(-103.156 2.516)"/>
            <path id="Trazado_169100" data-name="Trazado 169100" d="M138.078,11.163h-8.651a.59.59,0,0,1,0-1.181h8.651a.59.59,0,0,1,0,1.181Z" transform="translate(-87.548 -0.123)"/>
            <path id="Trazado_169101" data-name="Trazado 169101" d="M139.509,11.163H112.32a.59.59,0,0,1,0-1.181h27.189a.59.59,0,1,1,0,1.181Z" transform="translate(-103.159 -0.123)"/>
          </g>
        </g>
        <g id="Grupo_114463" data-name="Grupo 114463" transform="translate(44.226 1.473)">
          <path id="Trazado_169102" data-name="Trazado 169102" d="M77.124,14.2a.448.448,0,0,1-.272,0,.419.419,0,0,1-.258-.539,21.251,21.251,0,0,1,1.19-2.634.423.423,0,0,1,.75.394A20.377,20.377,0,0,0,77.4,13.941a.424.424,0,0,1-.267.262Zm2.605-5a.441.441,0,0,1-.366-.047.422.422,0,0,1-.117-.586,25.294,25.294,0,0,1,1.715-2.3.422.422,0,1,1,.647.544A25.189,25.189,0,0,0,79.95,9.034a.409.409,0,0,1-.22.169Zm3.627-4.311a.424.424,0,0,1-.44-.112.418.418,0,0,1,.023-.6,20.57,20.57,0,0,1,2.24-1.809.421.421,0,1,1,.478.694A19,19,0,0,0,83.512,4.8a.442.442,0,0,1-.155.094Z" transform="translate(-23.083 -2.296)" fill="#fff"/>
          <path id="Trazado_169103" data-name="Trazado 169103" d="M49.04,11.333a.516.516,0,0,1,.084.009,16.986,16.986,0,0,1,2.034.623.421.421,0,0,1-.3.787,16.114,16.114,0,0,0-1.931-.59.42.42,0,0,1,.112-.829Zm4.522,1.828a.431.431,0,0,1,.2.056,17.615,17.615,0,0,1,2.357,1.668.422.422,0,0,1-.544.647,16.372,16.372,0,0,0-2.245-1.589.421.421,0,0,1-.15-.576.416.416,0,0,1,.38-.206Zm4.311,3.6a.4.4,0,0,1,.3.145,14.368,14.368,0,0,1,1.71,2.366.422.422,0,1,1-.745.4,14.063,14.063,0,0,0-1.6-2.212.418.418,0,0,1,.042-.6.409.409,0,0,1,.3-.1Z" transform="translate(-48.603 5.949)" fill="#fff"/>
        </g>
      </g>
    </g>
  </g>
</svg>
