<svg xmlns="http://www.w3.org/2000/svg" width="150" height="150" viewBox="0 0 150 150">
  <g id="Grupo_115955" data-name="Grupo 115955" transform="translate(5779.685 9795.291)">
    <g id="Elipse_5924" data-name="Elipse 5924" transform="translate(-5779.685 -9795.291)" fill="#fff" stroke="#77b43a" stroke-width="4">
      <circle cx="75" cy="75" r="75" stroke="none"/>
      <circle cx="75" cy="75" r="73" fill="none"/>
    </g>
    <g id="evaluacion" transform="translate(-5749.559 -9767.598)">
      <g id="Grupo_114689" data-name="Grupo 114689" transform="translate(1.437 2.32)">
        <g id="Grupo_114670" data-name="Grupo 114670" transform="translate(2.875 8.624)">
          <g id="Grupo_114669" data-name="Grupo 114669">
            <path id="Trazado_169437" data-name="Trazado 169437" d="M54.746,67.984v-.129a4.851,4.851,0,0,0-3.018-4.5c-.014-.014-.029-.014-.057-.029a4.844,4.844,0,0,0-5.3,1.049l-.1.1L38.13,56.341l.1-.1a4.844,4.844,0,0,0,1.049-5.3c-.014-.029-.014-.043-.029-.057a4.851,4.851,0,0,0-4.5-3.018h-.129v-11.5h.129a4.853,4.853,0,0,0,4.5-3l.029-.086a4.821,4.821,0,0,0-1.049-5.29l-.1-.1,7.288-7.288-.949-1.9a11.679,11.679,0,0,1-1.222-5.2,11.507,11.507,0,0,1,1.6-5.879H4.437A1.438,1.438,0,0,0,3,9.051V73.733H60.5v-5.75Z" transform="translate(-3 -7.614)" fill="#e6e9ed"/>
          </g>
        </g>
        <g id="Grupo_114671" data-name="Grupo 114671" transform="translate(8.624 40.247)">
          <path id="Trazado_169438" data-name="Trazado 169438" d="M18.5,31.051v8.624a1.442,1.442,0,0,1-1.437,1.437H8.437A1.442,1.442,0,0,1,7,39.676V31.051a1.442,1.442,0,0,1,1.437-1.437h8.624A1.442,1.442,0,0,1,18.5,31.051Z" transform="translate(-7 -29.614)" fill="#f85316"/>
        </g>
        <g id="Grupo_114672" data-name="Grupo 114672" transform="translate(8.624 14.374)">
          <path id="Trazado_169439" data-name="Trazado 169439" d="M37.185,20.238H8.437A1.438,1.438,0,0,1,7,18.8v-5.75a1.438,1.438,0,0,1,1.437-1.437H37.185Z" transform="translate(-7 -11.614)" fill="#75b62f"/>
        </g>
        <g id="Grupo_114673" data-name="Grupo 114673" transform="translate(8.624 57.495)">
          <path id="Trazado_169440" data-name="Trazado 169440" d="M18.5,43.051v8.624a1.442,1.442,0,0,1-1.437,1.437H8.437A1.442,1.442,0,0,1,7,51.676V43.051a1.442,1.442,0,0,1,1.437-1.437h8.624A1.442,1.442,0,0,1,18.5,43.051Z" transform="translate(-7 -41.614)" fill="#f85316"/>
        </g>
        <g id="Grupo_114674" data-name="Grupo 114674" transform="translate(17.249 74.744)">
          <path id="Trazado_169441" data-name="Trazado 169441" d="M56.121,53.671V65.056a2.476,2.476,0,0,1-.561.057H13v-11.5H55.561A2.476,2.476,0,0,1,56.121,53.671Z" transform="translate(-13 -53.614)" fill="#3d46c2"/>
        </g>
        <g id="Grupo_114675" data-name="Grupo 114675" transform="translate(11.499 74.744)">
          <path id="Trazado_169442" data-name="Trazado 169442" d="M9,53.614h5.75v11.5H9Z" transform="translate(-9 -53.614)" fill="#dce736"/>
        </g>
        <g id="Grupo_114676" data-name="Grupo 114676" transform="translate(0 74.744)">
          <path id="Trazado_169443" data-name="Trazado 169443" d="M3.875,54.39a5.734,5.734,0,0,1,2.875-.776H12.5v11.5H6.75A5.753,5.753,0,0,1,2.682,55.3a6.073,6.073,0,0,1,1.193-.906Z" transform="translate(-1 -53.614)" fill="#3d46c2"/>
        </g>
        <g id="Grupo_114677" data-name="Grupo 114677" transform="translate(60.37 74.801)">
          <path id="Trazado_169444" data-name="Trazado 169444" d="M55.994,57.506a1.917,1.917,0,0,1,0,3.68L43.517,64.894a3.474,3.474,0,0,1-.517.144V53.654a3.476,3.476,0,0,1,.517.144Z" transform="translate(-43 -53.654)" fill="#3d46c2"/>
        </g>
        <g id="Grupo_114678" data-name="Grupo 114678" transform="translate(56.59 51.746)">
          <path id="Trazado_169445" data-name="Trazado 169445" d="M45.588,37.614l2.343,8.207a17.35,17.35,0,0,1-7.561,0l2.343-8.207Z" transform="translate(-40.37 -37.614)" fill="#e6e9ed"/>
        </g>
        <g id="Grupo_114679" data-name="Grupo 114679" transform="translate(57.596 44.559)">
          <path id="Trazado_169446" data-name="Trazado 169446" d="M43.844,32.614l2.774,1.854L45.282,39.8H42.407L41.07,34.468Z" transform="translate(-41.07 -32.614)" fill="#ccd1d9"/>
        </g>
        <g id="Grupo_114680" data-name="Grupo 114680" transform="translate(61.807 41.08)">
          <path id="Trazado_169447" data-name="Trazado 169447" d="M55.657,37.956l.949,4.3a17.242,17.242,0,0,1-10.263,6.813L44,40.859l1.337-5.333,1.538,1.021,2.544-6.353a10.908,10.908,0,0,1,3.119,2.156,11.3,11.3,0,0,1,3.119,5.606Z" transform="translate(-44 -30.194)" fill="#3d46c2"/>
        </g>
        <g id="Grupo_114681" data-name="Grupo 114681" transform="translate(46.327 41.08)">
          <path id="Trazado_169448" data-name="Trazado 169448" d="M44.5,35.527l1.337,5.333-2.343,8.207A17.242,17.242,0,0,1,33.23,42.254l.949-4.3A11.3,11.3,0,0,1,37.3,32.35a10.908,10.908,0,0,1,3.119-2.156l2.544,6.353Z" transform="translate(-33.23 -30.194)" fill="#3d46c2"/>
        </g>
        <g id="Grupo_114682" data-name="Grupo 114682" transform="translate(53.514 40.247)">
          <path id="Trazado_169449" data-name="Trazado 169449" d="M51.943,30.448,49.4,36.8,47.86,35.78l-2.774-1.854L42.312,35.78,40.774,36.8,38.23,30.448a11,11,0,0,1,2.544-.834l4.312,2.875L49.4,29.614a11,11,0,0,1,2.544.834Z" transform="translate(-38.23 -29.614)" fill="#3d46c2"/>
        </g>
        <g id="Grupo_114683" data-name="Grupo 114683" transform="translate(71.51 22.998)">
          <path id="Trazado_169450" data-name="Trazado 169450" d="M53.984,17.614a2.883,2.883,0,0,1,2.875,2.875,2.9,2.9,0,0,1-2.875,2.875H50.75a11.842,11.842,0,0,0,.359-2.875V17.614Z" transform="translate(-50.75 -17.614)" fill="#f0d0b4"/>
        </g>
        <g id="Grupo_114684" data-name="Grupo 114684" transform="translate(48.871 14.374)">
          <path id="Trazado_169451" data-name="Trazado 169451" d="M58,20.238v2.875a11.842,11.842,0,0,1-.359,2.875c-.086.331-.187.647-.3.963a11.446,11.446,0,0,1-7.632,7.2,11.4,11.4,0,0,1-6.411,0,11.422,11.422,0,0,1-7.632-7.2c-.115-.316-.216-.632-.3-.963A11.842,11.842,0,0,1,35,23.113V17.249a5.625,5.625,0,0,1,5.635-5.635,5.546,5.546,0,0,1,2.889.8l5.85,3.507V14.244a8.848,8.848,0,0,0-.287-2.3H49.1a16.684,16.684,0,0,1,8.136,5.85L58,18.8Z" transform="translate(-35 -11.614)" fill="#f0d0b4"/>
        </g>
        <g id="Grupo_114685" data-name="Grupo 114685" transform="translate(56.058 36.912)">
          <path id="Trazado_169452" data-name="Trazado 169452" d="M47.517,27.308l1.107,3.32L44.312,33.5,40,30.629l1.107-3.32v-.014a11.4,11.4,0,0,0,6.411,0Z" transform="translate(-40 -27.294)" fill="#f0d0b4"/>
        </g>
        <g id="Grupo_114686" data-name="Grupo 114686" transform="translate(34.497 21.201)">
          <path id="Trazado_169453" data-name="Trazado 169453" d="M76.746,32.535v11.5h-.129a4.851,4.851,0,0,0-4.5,3.018c-.014.014-.014.029-.029.057a4.844,4.844,0,0,0,1.049,5.3l.1.1L65.1,60.65l-.1-.1A4.844,4.844,0,0,0,59.7,59.5c-.029.014-.043.014-.057.029a4.851,4.851,0,0,0-3.018,4.5v.129h-11.5v-.129a4.851,4.851,0,0,0-3.018-4.5c-.014-.014-.029-.014-.057-.029a4.844,4.844,0,0,0-5.3,1.049l-.1.1-8.136-8.136.1-.1a4.844,4.844,0,0,0,1.049-5.3c-.014-.029-.014-.043-.029-.057a4.851,4.851,0,0,0-4.5-3.018H25v-11.5h.129a4.853,4.853,0,0,0,4.5-3l.029-.086a4.821,4.821,0,0,0-1.049-5.29l-.1-.1,7.288-7.288.7,1.394a2.883,2.883,0,0,0-2.875,2.875A2.9,2.9,0,0,0,36.5,23.91h3.234c.086.331.187.647.3.963a17.249,17.249,0,1,0,21.676,0c.115-.316.216-.632.3-.963h3.234a2.9,2.9,0,0,0,2.875-2.875,2.883,2.883,0,0,0-2.875-2.875l.259-1.538.043-.259,7.69,7.69-.1.1a4.844,4.844,0,0,0-1.049,5.3c.014.029.014.043.029.057a4.851,4.851,0,0,0,4.5,3.018Z" transform="translate(-25 -16.364)" fill="#dce736"/>
        </g>
        <g id="Grupo_114687" data-name="Grupo 114687" transform="translate(43.121)">
          <path id="Trazado_169454" data-name="Trazado 169454" d="M59.748,23.175l-.762-1.006a16.684,16.684,0,0,0-8.136-5.85h-.014a8.848,8.848,0,0,1,.287,2.3V20.3l-5.85-3.507a5.546,5.546,0,0,0-2.889-.8,5.625,5.625,0,0,0-5.635,5.635v2.99H33.875l-.7-1.394-.949-1.9A11.679,11.679,0,0,1,31,16.117a11.507,11.507,0,0,1,1.6-5.879A10.987,10.987,0,0,1,34.407,7.9a11.555,11.555,0,0,1,8.222-3.407h7.934A40.233,40.233,0,0,0,65.5,1.614L64.06,8.8l4.312,1.437a29.608,29.608,0,0,0-5.448,12.577l-.043.259-.259,1.538H59.748Z" transform="translate(-31 -1.614)" fill="#b27946"/>
        </g>
        <g id="Grupo_114688" data-name="Grupo 114688" transform="translate(43.121 22.998)">
          <path id="Trazado_169455" data-name="Trazado 169455" d="M37.109,23.364H33.875A2.9,2.9,0,0,1,31,20.489a2.883,2.883,0,0,1,2.875-2.875H36.75v2.875A11.842,11.842,0,0,0,37.109,23.364Z" transform="translate(-31 -17.614)" fill="#f0d0b4"/>
        </g>
      </g>
      <g id="Grupo_114690" data-name="Grupo 114690" transform="translate(0 0)">
        <circle id="Elipse_5934" data-name="Elipse 5934" cx="1.437" cy="1.437" r="1.437" transform="translate(66.119 23.881)"/>
        <circle id="Elipse_5935" data-name="Elipse 5935" cx="1.437" cy="1.437" r="1.437" transform="translate(54.62 23.881)"/>
        <path id="Trazado_169456" data-name="Trazado 169456" d="M47.578,21.471a3.214,3.214,0,0,1-5.75,0l-.151-.3-2.571,1.286.151.3a6.089,6.089,0,0,0,10.892,0l.151-.3-2.571-1.286Z" transform="translate(17.104 9.258)"/>
        <path id="Trazado_169457" data-name="Trazado 169457" d="M88.982,38.254H87.545a3.495,3.495,0,0,1-2.362-6.027L86.2,31.211l-8.156-8.156a28.183,28.183,0,0,1,5.035-11.25l1.2-1.6-5-1.667L80.986,0,78.523.986A38.6,38.6,0,0,1,64.129,3.757H56.187a13.064,13.064,0,0,0-10.819,5.75H5.75a2.878,2.878,0,0,0-2.875,2.875V77.1A7.162,7.162,0,0,0,7.187,90H61.254a3.994,3.994,0,0,0,1.475-.264l12.482-3.7a3.362,3.362,0,0,0,0-6.448L62.855,75.935a4.266,4.266,0,0,0-1.6-.309H7.187a7.18,7.18,0,0,0-1.437.145V12.382H43.915a12.981,12.981,0,0,0-.793,4.443,13.115,13.115,0,0,0,1.38,5.843l.486.973L38.43,30.2l-.921,1.111,1.016,1.016a3.494,3.494,0,0,1-2.592,5.931H34.5V44H25.871v2.875H34.5v4.312l.135,1.437h1.437a3.495,3.495,0,0,1,2.362,6.027l-1.016,1.016,9.147,9.147,1.111.921,1.016-1.016a3.495,3.495,0,0,1,5.932,2.59v1.437H67.557l1.437-.135V71.179a3.494,3.494,0,0,1,6.025-2.362l1.016,1.016,9.147-9.147.921-1.111-1.016-1.016a3.494,3.494,0,0,1,2.592-5.931h1.437V39.692ZM63.245,79.043l2.875.852v5.843l-2.875.854ZM60.37,87.125H20.123V78.5H60.37Zm-43.121,0H14.374V78.5h2.875Zm57.5-4.312a.485.485,0,0,1-.349.467l-5.4,1.6V80.746l5.4,1.6A.485.485,0,0,1,74.744,82.813ZM11.5,78.5v8.624H7.187a4.312,4.312,0,1,1,0-8.624ZM70.853,50.175a6.3,6.3,0,0,0-1.859,4.486v4.847a15.738,15.738,0,0,1-2.412,1l-1.85-6.474.746-2.984,1.317.878,2.584-6.457a9.8,9.8,0,0,1,4.114,6L74.3,55.1a15.993,15.993,0,0,1-2.429,2.53V54.661a3.447,3.447,0,0,1,1.016-2.454Zm-18.091,0-2.032,2.034a3.441,3.441,0,0,1,1.016,2.452v2.968a15.929,15.929,0,0,1-2.429-2.53l.806-3.628a9.8,9.8,0,0,1,4.114-6l2.584,6.457,1.317-.878.746,2.984-1.85,6.474a15.547,15.547,0,0,1-2.413-1V54.661a6.3,6.3,0,0,0-1.859-4.486ZM47.433,26.755h1.437v1.437a12.842,12.842,0,0,0,.085,1.437H47.433a1.437,1.437,0,0,1,0-2.875Zm18.684-7.463A15.169,15.169,0,0,1,71.4,23.735l.469.625v3.833a10.062,10.062,0,0,1-20.123,0V22.322a4.189,4.189,0,0,1,6.346-3.593l8.028,4.815V19.321C66.119,19.313,66.118,19.3,66.118,19.292ZM62.123,52.628h-.632l-.816-3.267,1.133-.755,1.133.755Zm-4.883-8.5,3.053,2.035-2.123,1.414-1.335-3.338c.135-.04.27-.076.405-.112Zm8.2,3.451-2.123-1.414,3.053-2.035c.137.036.272.072.405.112Zm-1.033-5.6-2.6,1.735-2.6-1.735.352-1.059a12.883,12.883,0,0,0,2.248.208,13.023,13.023,0,0,0,2.248-.208ZM56.8,40.119l-.411,1.233a12.7,12.7,0,0,0-9.071,9.5l-.131.588a15.773,15.773,0,0,1,3.292-17.014A13.015,13.015,0,0,0,56.8,40.119ZM61.455,55.5h.706l1.6,5.616a15.71,15.71,0,0,1-1.958.134,16.01,16.01,0,0,1-1.958-.134Zm14.976-4.068-.131-.588a12.7,12.7,0,0,0-9.071-9.494l-.411-1.233a13.015,13.015,0,0,0,6.322-5.7,15.771,15.771,0,0,1,3.292,17.013ZM74.659,29.63a12.844,12.844,0,0,0,.085-1.437V26.755h1.437a1.437,1.437,0,0,1,0,2.875Zm-18.472-23h7.942A41.415,41.415,0,0,0,77.146,4.546L75.961,10.47,79.648,11.7a31.082,31.082,0,0,0-4.63,11.848l-.056.333h-.218V19.323a11.179,11.179,0,0,0-3.3-7.957L69.415,13.4a8.324,8.324,0,0,1,2.454,5.925v.6a18.022,18.022,0,0,0-6.263-3.961,11.189,11.189,0,0,0-2.783-4.592L60.791,13.4A8.326,8.326,0,0,1,63.2,18.442l-3.628-2.176a7.064,7.064,0,0,0-10.7,6.059v1.558h-.549l-1.249-2.5A10.188,10.188,0,0,1,56.187,6.632ZM86.243,49.889a6.369,6.369,0,0,0-4,9.675l-6.3,6.3a6.323,6.323,0,0,0-5.919-.51,6.256,6.256,0,0,0-3.752,4.522H57.361a6.327,6.327,0,0,0-3.823-4.546,6.258,6.258,0,0,0-5.852.545l-6.3-6.3a6.335,6.335,0,0,0,.512-5.919A6.26,6.26,0,0,0,37.373,49.9V40.993a6.346,6.346,0,0,0,4.554-3.841,6.251,6.251,0,0,0-.553-5.834l1.936-1.936A4.3,4.3,0,0,0,47.433,32.5h.9a18.686,18.686,0,1,0,26.939,0h.9A4.3,4.3,0,0,0,80.3,29.38l1.926,1.926a6.335,6.335,0,0,0-.512,5.919,6.26,6.26,0,0,0,4.523,3.753Z" transform="translate(0 0)"/>
        <path id="Trazado_169458" data-name="Trazado 169458" d="M16,56.614h2.875v2.875H16Z" transform="translate(6.998 24.762)"/>
        <path id="Trazado_169459" data-name="Trazado 169459" d="M20,56.614h2.875v2.875H20Z" transform="translate(8.748 24.762)"/>
        <path id="Trazado_169460" data-name="Trazado 169460" d="M24,56.614h2.875v2.875H24Z" transform="translate(10.497 24.762)"/>
        <path id="Trazado_169461" data-name="Trazado 169461" d="M28,56.614h2.875v2.875H28Z" transform="translate(12.247 24.762)"/>
        <path id="Trazado_169462" data-name="Trazado 169462" d="M17.5,40.923H8.875A2.878,2.878,0,0,0,6,43.8v8.624A2.878,2.878,0,0,0,8.875,55.3H17.5a2.878,2.878,0,0,0,2.875-2.875V44.393l2.454-2.454-2.032-2.032-1.59,1.59A2.853,2.853,0,0,0,17.5,40.923Zm0,11.5H8.875V43.8H16.9l-3.717,3.717-1.859-1.859L9.3,47.689l3.891,3.891L17.5,47.268Z" transform="translate(2.624 17.454)"/>
        <path id="Trazado_169463" data-name="Trazado 169463" d="M18,42.614H29.5v2.875H18Z" transform="translate(7.873 18.638)"/>
        <path id="Trazado_169464" data-name="Trazado 169464" d="M18,46.614h5.75v2.875H18Z" transform="translate(7.873 20.388)"/>
        <path id="Trazado_169465" data-name="Trazado 169465" d="M24,46.614h2.875v2.875H24Z" transform="translate(10.497 20.388)"/>
        <path id="Trazado_169466" data-name="Trazado 169466" d="M20.795,27.907l-1.59,1.59a2.844,2.844,0,0,0-1.706-.574H8.875A2.878,2.878,0,0,0,6,31.8v8.624A2.878,2.878,0,0,0,8.875,43.3H17.5a2.878,2.878,0,0,0,2.875-2.875V32.393l2.454-2.454ZM17.5,40.422H8.875V31.8H16.9l-3.717,3.717-1.859-1.859L9.3,35.689l3.891,3.891L17.5,35.268Z" transform="translate(2.624 12.206)"/>
        <path id="Trazado_169467" data-name="Trazado 169467" d="M18,34.614h5.75v2.875H18Z" transform="translate(7.873 15.139)"/>
        <path id="Trazado_169468" data-name="Trazado 169468" d="M6,24.614H29v2.875H6Z" transform="translate(2.624 10.766)"/>
        <path id="Trazado_169469" data-name="Trazado 169469" d="M6,20.614h5.75v2.875H6Z" transform="translate(2.624 9.016)"/>
        <path id="Trazado_169470" data-name="Trazado 169470" d="M12,20.614H29.249v2.875H12Z" transform="translate(5.249 9.016)"/>
        <path id="Trazado_169471" data-name="Trazado 169471" d="M37.622,13.489V10.614H8.875A2.878,2.878,0,0,0,6,13.489v5.75a2.878,2.878,0,0,0,2.875,2.875H37.622V19.238H8.875v-5.75Z" transform="translate(2.624 4.642)"/>
      </g>
    </g>
  </g>
</svg>
