<svg xmlns="http://www.w3.org/2000/svg" width="150" height="150" viewBox="0 0 150 150">
  <g id="Grupo_115957" data-name="Grupo 115957" transform="translate(-370 -1094)">
    <g id="Elipse_5958" data-name="Elipse 5958" transform="translate(370 1094)" fill="#fff" stroke="#77b43a" stroke-width="4">
      <circle cx="75" cy="75" r="75" stroke="none"/>
      <circle cx="75" cy="75" r="73" fill="none"/>
    </g>
    <g id="Grupo_114844" data-name="Grupo 114844" transform="translate(381.187 1094.83)">
      <path id="Trazado_169882" data-name="Trazado 169882" d="M75.911,50.58l-7.152,3.761,1.365-7.968-5.785-5.642,8-1.164,3.576-7.249,3.576,7.249,8,1.164L81.7,46.374l1.365,7.968Z" transform="translate(-10.098 -0.349)" fill="#dbe636"/>
      <path id="Trazado_169883" data-name="Trazado 169883" d="M17.491,73.043H32.044a3.212,3.212,0,0,1,3.21,3.21v26.452a3.212,3.212,0,0,1-3.21,3.21H17.491V73.043Z" transform="translate(-0.349 -8.824)" fill="#75b52f"/>
      <path id="Trazado_169884" data-name="Trazado 169884" d="M0,0H14.555a3.212,3.212,0,0,1,3.21,3.21V29.662a3.212,3.212,0,0,1-3.21,3.21H0V0H0Z" transform="translate(114.484 97.094) rotate(180)" fill="#f75316"/>
      <path id="Trazado_169885" data-name="Trazado 169885" d="M32.109,106.9H17.142a1.329,1.329,0,0,1-1.329-1.329V72.694a1.329,1.329,0,0,1,1.329-1.329H32.107a4.133,4.133,0,0,1,4.127,4.13v27.271a4.134,4.134,0,0,1-4.127,4.13Zm-13.635-2.661H32.109a1.47,1.47,0,0,0,1.469-1.469V75.5a1.47,1.47,0,0,0-1.469-1.469H18.474V104.24Z" transform="translate(0 -8.475)"/>
      <path id="Trazado_169886" data-name="Trazado 169886" d="M60.8,102.661H39.735a1.172,1.172,0,0,1-1.235-1.233V76.376a1.338,1.338,0,0,1,1.235-1.426h6.941a7.637,7.637,0,0,1,7.307-5.322H70.775a1.4,1.4,0,0,1,1.263,1.817L62.06,101.784a1.3,1.3,0,0,1-1.263.879ZM41.159,100H59.837l9.1-27.713H53.986a4.934,4.934,0,0,0-4.938,4.188,1.329,1.329,0,0,1-1.314,1.131H41.159V100Z" transform="translate(-4.721 -8.113)" fill="#4c4372"/>
      <path id="Trazado_169887" data-name="Trazado 169887" d="M135.4,106.9H120.431a4.133,4.133,0,0,1-4.127-4.13V75.5a4.134,4.134,0,0,1,4.127-4.13H135.4a1.329,1.329,0,0,1,1.329,1.329V105.57A1.329,1.329,0,0,1,135.4,106.9ZM120.431,74.026a1.47,1.47,0,0,0-1.469,1.469v27.271a1.47,1.47,0,0,0,1.469,1.469h13.635V74.024H120.431Z" transform="translate(-20.912 -8.475)"/>
      <path id="Trazado_169888" data-name="Trazado 169888" d="M82.473,112.556a3.75,3.75,0,1,0,6.372-3.955L69.207,77.129,71.131,71.3H54.338a6.235,6.235,0,0,0-6.252,5.322h-7.9v25.052h8.969l6.755,10.888a3.744,3.744,0,0,0,5.162,1.2l3.185-1.97-6.28-10.123h.036l6.755,10.888a3.744,3.744,0,0,0,5.162,1.2l3.185-1.98-5.917-9.546,6.425,10.311a3.745,3.745,0,0,0,5.162,1.21l3.185-1.977-6.311-10.131" transform="translate(-5.071 -8.462)" fill="#ffd7be"/>
      <path id="Trazado_169889" data-name="Trazado 169889" d="M67.573,115.348a5.02,5.02,0,0,1-4.064-2.043L61.4,114.583a5.038,5.038,0,0,1-6.979-1.665l-6.362-10.258H39.735a1.172,1.172,0,0,1-1.235-1.233V76.376a1.338,1.338,0,0,1,1.235-1.426h6.941a7.637,7.637,0,0,1,7.307-5.322H70.775a1.4,1.4,0,0,1,1.261,1.822L70.31,76.646l19.308,30.9a5.071,5.071,0,0,1-4.31,7.754h0a5.041,5.041,0,0,1-4.089-2.056l-2.094,1.3a5.072,5.072,0,0,1-6.753-1.286l-2.1,1.311a5.114,5.114,0,0,1-2.7.775ZM57.62,100h.036a1.378,1.378,0,0,1,1.128.674l6.755,10.863a2.384,2.384,0,0,0,2.036,1.139,2.446,2.446,0,0,0,1.3-.366l2.059-1.283L65.713,102.6a1.329,1.329,0,0,1,2.257-1.4h0l6.425,10.309a2.4,2.4,0,0,0,2.059,1.146,2.434,2.434,0,0,0,1.273-.363l3.185-1.977a1.328,1.328,0,0,1,1.807.391l.511.765s.015.025.023.036a2.41,2.41,0,0,0,2.059,1.146h0a2.42,2.42,0,0,0,2.051-3.7L67.726,77.538a1.441,1.441,0,0,1-.135-1.174l1.339-4.074H53.983a4.934,4.934,0,0,0-4.938,4.188,1.329,1.329,0,0,1-1.314,1.131H41.156V100H48.8a1.378,1.378,0,0,1,1.128.674l6.755,10.863a2.384,2.384,0,0,0,2.036,1.139,2.44,2.44,0,0,0,1.3-.366l2.046-1.24-5.569-8.944a1.415,1.415,0,0,1-.033-1.4A1.378,1.378,0,0,1,57.618,100Z" transform="translate(-4.721 -8.113)"/>
      <path id="Trazado_169890" data-name="Trazado 169890" d="M88.929,68.123H77.321a6.6,6.6,0,0,0-4.92,2.2L60.984,83.057a2.123,2.123,0,0,0,.208,3.037l.229.193a7.17,7.17,0,0,0,9.521-.221l5.37-5.007L88.73,101h17.277V75.916l-9.754-5.785a14.366,14.366,0,0,0-7.325-2.008Z" transform="translate(-9.287 -7.8)" fill="#ffd7be"/>
      <path id="Trazado_169891" data-name="Trazado 169891" d="M105.655,101.978H88.378a1.327,1.327,0,0,1-1.128-.628L75.685,82.784,71.5,86.691a8.5,8.5,0,0,1-11.287.262l-.229-.193a3.454,3.454,0,0,1-.338-4.941L71.06,69.083a7.946,7.946,0,0,1,5.909-2.638H88.576a15.711,15.711,0,0,1,8,2.193l9.754,5.785a1.327,1.327,0,0,1,.651,1.144v25.08a1.329,1.329,0,0,1-1.329,1.329Zm-16.54-2.661h15.211V76.324l-9.1-5.4A13.037,13.037,0,0,0,88.579,69.1H76.971a5.282,5.282,0,0,0-3.929,1.756L61.626,83.6a.78.78,0,0,0-.2.582.8.8,0,0,0,.277.552l.229.193a5.842,5.842,0,0,0,7.757-.18l5.368-5a1.327,1.327,0,0,1,2.033.269L89.118,99.317Z" transform="translate(-8.937 -7.451)"/>
      <path id="Trazado_169892" data-name="Trazado 169892" d="M90.43,120.32a1.331,1.331,0,0,1-1.09-.567L81.1,108a1.33,1.33,0,1,1,2.178-1.527l8.24,11.755a1.331,1.331,0,0,1-1.088,2.094Z" transform="translate(-13.536 -15.662)" fill="#13263c"/>
      <path id="Trazado_169893" data-name="Trazado 169893" d="M82.713,55.306a1.318,1.318,0,0,1-.618-.142l-6.534-3.431-6.534,3.439a1.328,1.328,0,0,1-1.929-1.4l1.248-7.279-5.286-5.154a1.331,1.331,0,0,1,.737-2.27l7.3-1.062,3.266-6.623a1.328,1.328,0,0,1,2.384,0l3.266,6.623,7.3,1.062a1.331,1.331,0,0,1,.737,2.27l-5.286,5.154L84,53.662a1.241,1.241,0,0,1,.043.325,1.322,1.322,0,0,1-1.329,1.322h-.005Zm-7.152-6.4a1.322,1.322,0,0,1,.618.152l4.768,2.509-.91-5.312a1.33,1.33,0,0,1,.381-1.177l3.858-3.761-5.33-.775a1.334,1.334,0,0,1-1-.727l-2.384-4.834L73.177,39.81a1.324,1.324,0,0,1-1,.727l-5.33.775L70.7,45.074a1.323,1.323,0,0,1,.381,1.177l-.91,5.312,4.768-2.509a1.329,1.329,0,0,1,.618-.152Z" transform="translate(-9.748 0)"/>
    </g>
  </g>
</svg>
