<svg xmlns="http://www.w3.org/2000/svg" width="150" height="150" viewBox="0 0 150 150">
  <g id="Grupo_115956" data-name="Grupo 115956" transform="translate(-1077.63 -2060.709)">
    <g id="Elipse_5922" data-name="Elipse 5922" transform="translate(1077.63 2060.709)" fill="#fff" stroke="#77b43a" stroke-width="4">
      <circle cx="75" cy="75" r="75" stroke="none"/>
      <circle cx="75" cy="75" r="73" fill="none"/>
    </g>
    <g id="carrera" transform="translate(1104 2088)">
      <path id="Trazado_169416" data-name="Trazado 169416" d="M16,2H82.774V45.548H16Z" transform="translate(6.774 0.452)" fill="#e6e9ed"/>
      <path id="Trazado_169417" data-name="Trazado 169417" d="M28.71,8.9v2.9H22.9A2.912,2.912,0,0,1,20,8.9,2.924,2.924,0,0,1,22.9,6h2.9A2.912,2.912,0,0,1,28.71,8.9Z" transform="translate(8.581 2.258)" fill="#ffeaa7"/>
      <path id="Trazado_169418" data-name="Trazado 169418" d="M57.806,24a2.912,2.912,0,0,1,2.9,2.9,2.924,2.924,0,0,1-2.9,2.9H54.9A2.912,2.912,0,0,1,52,26.9V24Z" transform="translate(23.032 10.387)" fill="#ffeaa7"/>
      <path id="Trazado_169419" data-name="Trazado 169419" d="M54.968,21.968H39V6A15.959,15.959,0,0,1,54.968,21.968Z" transform="translate(17.161 2.258)" fill="#dce736"/>
      <path id="Trazado_169420" data-name="Trazado 169420" d="M39,17H54.968a15.918,15.918,0,0,1-4.674,11.294Z" transform="translate(17.161 7.226)" fill="#75b62f"/>
      <path id="Trazado_169421" data-name="Trazado 169421" d="M43.968,21.968,55.261,33.261A15.967,15.967,0,0,1,31.31,31.694l6.75-4.369a3.379,3.379,0,0,0,1.553-2.845v-.566a3.4,3.4,0,0,0-3.4-3.4,3.308,3.308,0,0,0-1.771.508l-6.184,3.8A15.523,15.523,0,0,1,28,21.968,15.959,15.959,0,0,1,43.968,6Z" transform="translate(12.194 2.258)" fill="#f85316"/>
      <path id="Trazado_169422" data-name="Trazado 169422" d="M56.516,48A14.521,14.521,0,0,1,71.032,62.516v5.806H42V62.516A14.521,14.521,0,0,1,56.516,48Z" transform="translate(18.516 21.226)" fill="#f85316"/>
      <path id="Trazado_169423" data-name="Trazado 169423" d="M43.774,68.323H22V62.516a14.516,14.516,0,1,1,29.032,0v5.806Z" transform="translate(9.484 21.226)" fill="#3d46c2"/>
      <path id="Trazado_169424" data-name="Trazado 169424" d="M15.71,41V67.129a4.355,4.355,0,0,1-8.71,0V41Z" transform="translate(2.71 18.065)" fill="#cf9e76"/>
      <path id="Trazado_169425" data-name="Trazado 169425" d="M21.71,41V67.129a4.355,4.355,0,0,1-8.71,0V41Z" transform="translate(5.419 18.065)" fill="#cf9e76"/>
      <path id="Trazado_169426" data-name="Trazado 169426" d="M27.331,39.226a8.589,8.589,0,0,0-.653,3.281V52.29H9.258v4.355h-2.9A4.349,4.349,0,0,1,2,52.29V42.129a14.5,14.5,0,0,1,14.153-14.5l-1.089,13.05,2.9,2.9,2.9-2.9L19.782,27.613h5.879a8.781,8.781,0,0,0,4.573-1.292L40,20.311l6.184-3.8A3.308,3.308,0,0,1,47.958,16a3.4,3.4,0,0,1,3.4,3.4v.566A3.379,3.379,0,0,1,49.8,22.808l-6.75,4.369L30.655,35.2a8.546,8.546,0,0,0-3.324,4.021Z" transform="translate(0.452 6.774)" fill="#dce736"/>
      <path id="Trazado_169427" data-name="Trazado 169427" d="M15.718,24l1.089,13.065-2.9,2.9-2.9-2.9,1.089-13.05V24h3.629Z" transform="translate(4.516 10.387)" fill="#e6e9ed"/>
      <g id="Grupo_114668" data-name="Grupo 114668" transform="translate(9.71 16.968)">
        <circle id="Elipse_5932" data-name="Elipse 5932" cx="8.71" cy="8.71" r="8.71" transform="translate(56.613 34.839)" fill="#f0d0b4"/>
        <circle id="Elipse_5933" data-name="Elipse 5933" cx="8.71" cy="8.71" r="8.71" transform="translate(27.581 34.839)" fill="#f0d0b4"/>
        <path id="Trazado_169428" data-name="Trazado 169428" d="M24.419,20.71A8.71,8.71,0,1,1,15.71,12a8.5,8.5,0,0,1,4.355,1.176A8.687,8.687,0,0,1,24.419,20.71Z" transform="translate(-7 -12)" fill="#f0d0b4"/>
      </g>
      <path id="Trazado_169429" data-name="Trazado 169429" d="M21.323,1V15.944a10.15,10.15,0,0,0-9.151,17.73A15.994,15.994,0,0,0,1,48.9V59.065a5.812,5.812,0,0,0,5.806,5.806H8.258V85.194a5.782,5.782,0,0,0,10.161,3.8,5.782,5.782,0,0,0,10.161-3.8V49.288a7.3,7.3,0,0,1,.235-1.836H91V1ZM11.161,25.677a7.258,7.258,0,1,1,7.258,7.258A7.266,7.266,0,0,1,11.161,25.677ZM19.82,46.9l-1.4,1.4-1.4-1.4.922-11.063H18.9ZM6.806,61.968a2.906,2.906,0,0,1-2.9-2.9V48.9A13.073,13.073,0,0,1,15.014,36l-1,12,4.407,4.406L22.825,48,21.81,35.839h4.3A10.146,10.146,0,0,0,31.44,34.33l15.953-9.817a1.944,1.944,0,0,1,2.961,1.655v.566a1.941,1.941,0,0,1-.887,1.632L30.318,40.757a10.122,10.122,0,0,0-4.641,8.531v8.325H11.161V46h-2.9V61.968ZM41.645,24.226A14.534,14.534,0,0,1,54.71,9.784V24.827L65.341,35.458A14.49,14.49,0,0,1,45.686,34.27L51.044,30.8a4.829,4.829,0,0,0,2.214-4.069v-.566a4.846,4.846,0,0,0-7.386-4.127l-4.21,2.59c0-.135-.017-.27-.017-.4Zm25.749,9.18-7.728-7.728H70.6A14.442,14.442,0,0,1,67.394,33.406ZM57.613,22.774V9.784A14.54,14.54,0,0,1,70.6,22.774ZM14.065,88.1a2.906,2.906,0,0,1-2.9-2.9V60.516h5.806V85.194A2.906,2.906,0,0,1,14.065,88.1Zm8.71,0a2.906,2.906,0,0,1-2.9-2.9V60.516h5.806V85.194A2.906,2.906,0,0,1,22.774,88.1ZM88.1,44.548H30.352a7.277,7.277,0,0,1,1.543-1.356l11.333-7.334a17.394,17.394,0,1,0-4.485-11.633,17.466,17.466,0,0,0,.144,2.115l-8.967,5.518a7.239,7.239,0,0,1-3.8,1.077h-.6a10.135,10.135,0,0,0-1.292-15.585V3.9H88.1Z"/>
      <path id="Trazado_169430" data-name="Trazado 169430" d="M71.77,53.515a10.161,10.161,0,1,0-11.54,0,16.038,16.038,0,0,0-8.746,8.258,16.033,16.033,0,0,0-8.746-8.258,10.161,10.161,0,1,0-11.54,0A15.98,15.98,0,0,0,21,68.387v7.258H81.968V68.387A15.98,15.98,0,0,0,71.77,53.515ZM58.742,45.161A7.258,7.258,0,1,1,66,52.419,7.266,7.266,0,0,1,58.742,45.161Zm-29.032,0a7.258,7.258,0,1,1,7.258,7.258A7.266,7.266,0,0,1,29.71,45.161ZM50.032,72.742H45.677V61.129h-2.9V72.742H31.161V61.129h-2.9V72.742H23.9V68.387a13.065,13.065,0,0,1,26.129,0Zm29.032,0H74.71V61.129h-2.9V72.742H60.194V61.129h-2.9V72.742H52.935V68.387a13.065,13.065,0,0,1,26.129,0Z" transform="translate(9.032 15.355)"/>
      <path id="Trazado_169431" data-name="Trazado 169431" d="M58.258,23H51v4.355a4.36,4.36,0,0,0,4.355,4.355h2.9a4.355,4.355,0,0,0,0-8.71Zm0,5.806h-2.9A1.453,1.453,0,0,1,53.9,27.355V25.9h4.355a1.452,1.452,0,0,1,0,2.9Z" transform="translate(22.581 9.935)"/>
      <path id="Trazado_169432" data-name="Trazado 169432" d="M23.355,13.71h7.258V9.355A4.36,4.36,0,0,0,26.258,5h-2.9a4.355,4.355,0,1,0,0,8.71Zm0-5.806h2.9A1.453,1.453,0,0,1,27.71,9.355v1.452H23.355a1.452,1.452,0,1,1,0-2.9Z" transform="translate(8.129 1.806)"/>
      <path id="Trazado_169433" data-name="Trazado 169433" d="M53,5h8.71V7.9H53Z" transform="translate(23.484 1.806)"/>
      <path id="Trazado_169434" data-name="Trazado 169434" d="M53,9h8.71v2.9H53Z" transform="translate(23.484 3.613)"/>
      <path id="Trazado_169435" data-name="Trazado 169435" d="M53,13h8.71v2.9H53Z" transform="translate(23.484 5.419)"/>
      <path id="Trazado_169436" data-name="Trazado 169436" d="M53,17h8.71v2.9H53Z" transform="translate(23.484 7.226)"/>
    </g>
  </g>
</svg>
