<svg xmlns="http://www.w3.org/2000/svg" width="150" height="150" viewBox="0 0 150 150">
  <g id="Grupo_115956" data-name="Grupo 115956" transform="translate(-935 -7135)">
    <g id="Elipse_5972" data-name="Elipse 5972" transform="translate(935 7135)" fill="#fff" stroke="#77b43a" stroke-width="4">
      <circle cx="75" cy="75" r="75" stroke="none"/>
      <circle cx="75" cy="75" r="73" fill="none"/>
    </g>
    <g id="ajuste" transform="translate(944.996 7143.996)">
      <path id="Trazado_170251" data-name="Trazado 170251" d="M134.876,166.752a31.876,31.876,0,1,1,31.876-31.876A31.912,31.912,0,0,1,134.876,166.752Z" transform="translate(-68.871 -68.871)" fill="#d2e1f1"/>
      <g id="Grupo_115752" data-name="Grupo 115752" transform="translate(17.67 17.67)">
        <path id="Trazado_170271" data-name="Trazado 170271" d="M5,0A5,5,0,1,1,0,5,5,5,0,0,1,5,0Z" transform="translate(43.334 0)" fill="#dce736"/>
        <path id="Trazado_170267" data-name="Trazado 170267" d="M5,0A5,5,0,1,1,0,5,5,5,0,0,1,5,0Z" transform="translate(43.334 86.669)" fill="#dce736"/>
        <path id="Trazado_170265" data-name="Trazado 170265" d="M5,0A5,5,0,1,1,0,5,5,5,0,0,1,5,0Z" transform="translate(0 43.334)" fill="#3d46c2"/>
        <path id="Trazado_170269" data-name="Trazado 170269" d="M5,0A5,5,0,1,1,0,5,5,5,0,0,1,5,0Z" transform="translate(86.669 43.334)" fill="#3d46c2"/>
        <path id="Trazado_170264" data-name="Trazado 170264" d="M5,0A5,5,0,1,1,0,5,5,5,0,0,1,5,0Z" transform="translate(12.692 12.692)" fill="#f85316"/>
        <path id="Trazado_170268" data-name="Trazado 170268" d="M5,0A5,5,0,1,1,0,5,5,5,0,0,1,5,0Z" transform="translate(73.976 73.976)" fill="#f85316"/>
        <path id="Trazado_170266" data-name="Trazado 170266" d="M5,0A5,5,0,1,1,0,5,5,5,0,0,1,5,0Z" transform="translate(12.692 73.976)" fill="#75b62f"/>
        <path id="Trazado_170270" data-name="Trazado 170270" d="M5,0A5,5,0,1,1,0,5,5,5,0,0,1,5,0Z" transform="translate(73.976 12.692)" fill="#75b62f"/>
        <path id="Trazado_170252" data-name="Trazado 170252" d="M195.334,178.667v-10h-5.763a16.549,16.549,0,0,0-1.123-2.708l4.076-4.076-7.071-7.072-4.077,4.076a16.55,16.55,0,0,0-2.708-1.123V152h-10v5.763a16.55,16.55,0,0,0-2.708,1.123l-4.077-4.076-7.071,7.071,4.076,4.077a16.55,16.55,0,0,0-1.123,2.708H152v10h5.763a16.548,16.548,0,0,0,1.123,2.708l-4.076,4.077,7.071,7.071,4.077-4.076a16.549,16.549,0,0,0,2.708,1.123v5.763h10v-5.763a16.548,16.548,0,0,0,2.708-1.123l4.076,4.076,7.071-7.071-4.075-4.077a16.548,16.548,0,0,0,1.123-2.708Z" transform="translate(-125.333 -125.333)" fill="#dce736"/>
      </g>
      <circle id="Elipse_5981" data-name="Elipse 5981" cx="10" cy="10" r="10" transform="translate(56.004 56.004)" fill="#fcfeff"/>
      <g id="Grupo_115753" data-name="Grupo 115753" transform="translate(16.004 16.004)">
        <path id="Trazado_170253" data-name="Trazado 170253" d="M32.712,184.33a33.078,33.078,0,0,0,6.112,17.633l2.716-1.932a29.762,29.762,0,0,1-5.491-15.7h3.288V181H36.049a29.762,29.762,0,0,1,5.49-15.7l-2.716-1.932A33.078,33.078,0,0,0,32.712,181H29.126a6.667,6.667,0,1,0,0,3.333ZM22.67,186A3.333,3.333,0,1,1,26,182.663,3.333,3.333,0,0,1,22.67,186Z" transform="translate(-16.004 -132.662)"/>
        <path id="Trazado_170254" data-name="Trazado 170254" d="M392.3,176a6.679,6.679,0,0,0-6.456,5h-3.586a33.078,33.078,0,0,0-6.112-17.633l-2.716,1.932a29.762,29.762,0,0,1,5.491,15.7H375.63v3.333h3.288a29.762,29.762,0,0,1-5.49,15.7l2.716,1.932a33.078,33.078,0,0,0,6.111-17.633h3.585A6.667,6.667,0,1,0,392.3,176Zm0,10a3.333,3.333,0,1,1,3.333-3.333A3.333,3.333,0,0,1,392.3,186Z" transform="translate(-298.962 -132.662)"/>
        <path id="Trazado_170255" data-name="Trazado 170255" d="M83.575,90.24a6.67,6.67,0,0,0,3.387-.92l7.22,7.22,2.357-2.357-7.22-7.22a6.671,6.671,0,1,0-5.744,3.277Zm-2.357-9.021a3.323,3.323,0,1,1-.981,2.357,3.333,3.333,0,0,1,.981-2.357Z" transform="translate(-64.216 -64.218)"/>
        <path id="Trazado_170256" data-name="Trazado 170256" d="M358.531,349.1a6.679,6.679,0,0,0-8.1-1.029l-7.22-7.22-2.357,2.357,7.22,7.22a6.667,6.667,0,1,0,10.459-1.328Zm-2.357,7.071a3.332,3.332,0,1,1,0-4.714A3.332,3.332,0,0,1,356.174,356.174Z" transform="translate(-273.174 -273.174)"/>
        <path id="Trazado_170257" data-name="Trazado 170257" d="M96.577,343.21l-2.357-2.357L87,348.073a6.668,6.668,0,1,0,2.357,2.358ZM85.97,356.174a3.332,3.332,0,1,1,0-4.714A3.332,3.332,0,0,1,85.97,356.174Z" transform="translate(-64.254 -273.174)"/>
        <path id="Trazado_170258" data-name="Trazado 170258" d="M340.853,94.2l2.357,2.357,7.22-7.22a6.666,6.666,0,1,0-2.358-2.357ZM351.46,81.235a3.323,3.323,0,1,1-.981,2.357A3.333,3.333,0,0,1,351.46,81.235Z" transform="translate(-273.174 -64.234)"/>
        <path id="Trazado_170259" data-name="Trazado 170259" d="M201.963,376.147l-1.932-2.716a29.762,29.762,0,0,1-15.7,5.49v-3.288H181v3.288a29.762,29.762,0,0,1-15.7-5.49l-1.932,2.716A33.078,33.078,0,0,0,181,382.258v3.585a6.667,6.667,0,1,0,3.333,0v-3.585A33.078,33.078,0,0,0,201.963,376.147ZM186,392.3a3.333,3.333,0,1,1-3.333-3.333A3.333,3.333,0,0,1,186,392.3Z" transform="translate(-132.662 -298.965)"/>
        <path id="Trazado_170260" data-name="Trazado 170260" d="M163.363,38.823l1.932,2.716a29.762,29.762,0,0,1,15.7-5.49v3.288h3.333V36.049a29.762,29.762,0,0,1,15.7,5.49l1.932-2.716a33.078,33.078,0,0,0-17.633-6.111V29.126a6.667,6.667,0,1,0-3.333,0v3.586A33.078,33.078,0,0,0,163.363,38.823ZM179.329,22.67A3.333,3.333,0,1,1,182.663,26,3.333,3.333,0,0,1,179.329,22.67Z" transform="translate(-132.662 -16.004)"/>
        <path id="Trazado_170261" data-name="Trazado 170261" d="M189,174a1.667,1.667,0,0,0,1.667-1.667v-10A1.667,1.667,0,0,0,189,160.667h-4.583q-.138-.352-.29-.7l3.242-3.242a1.667,1.667,0,0,0,0-2.357L180.3,147.3a1.667,1.667,0,0,0-2.357,0L174.7,150.54q-.346-.152-.7-.29v-4.584A1.667,1.667,0,0,0,172.334,144h-10a1.667,1.667,0,0,0-1.667,1.667v4.583q-.352.138-.7.29l-3.242-3.242a1.667,1.667,0,0,0-2.357,0L147.3,154.37a1.667,1.667,0,0,0,0,2.357l3.242,3.242q-.152.346-.29.7h-4.584A1.667,1.667,0,0,0,144,162.333v10A1.667,1.667,0,0,0,145.667,174h4.583q.137.352.29.7L147.3,177.94a1.667,1.667,0,0,0,0,2.357l7.071,7.071a1.667,1.667,0,0,0,2.357,0l3.242-3.242q.346.152.7.29V189a1.667,1.667,0,0,0,1.667,1.667h10A1.667,1.667,0,0,0,174,189v-4.583q.352-.138.7-.29l3.242,3.242a1.667,1.667,0,0,0,2.357,0l7.071-7.071a1.667,1.667,0,0,0,0-2.357l-3.242-3.242q.152-.346.29-.7Zm-8.065,2.221,2.9,2.9-4.715,4.715-2.9-2.9a1.667,1.667,0,0,0-1.951-.3,14.924,14.924,0,0,1-2.437,1.01,1.667,1.667,0,0,0-1.167,1.59v4.1H164v-4.1a1.667,1.667,0,0,0-1.167-1.59,14.93,14.93,0,0,1-2.437-1.01,1.667,1.667,0,0,0-1.95.3l-2.9,2.9-4.715-4.715,2.9-2.9a1.667,1.667,0,0,0,.3-1.95,14.916,14.916,0,0,1-1.01-2.438,1.667,1.667,0,0,0-1.59-1.167h-4.1V164h4.1a1.667,1.667,0,0,0,1.59-1.167,14.917,14.917,0,0,1,1.01-2.437,1.667,1.667,0,0,0-.3-1.95l-2.9-2.9,4.715-4.715,2.9,2.9a1.667,1.667,0,0,0,1.95.3,14.928,14.928,0,0,1,2.438-1.01,1.667,1.667,0,0,0,1.167-1.59v-4.1h6.667v4.1a1.667,1.667,0,0,0,1.167,1.59,14.924,14.924,0,0,1,2.436,1.01,1.667,1.667,0,0,0,1.951-.3l2.9-2.9,4.715,4.715-2.9,2.9a1.667,1.667,0,0,0-.3,1.95,14.928,14.928,0,0,1,1.01,2.438,1.667,1.667,0,0,0,1.59,1.167h4.1v6.667h-4.1a1.667,1.667,0,0,0-1.59,1.167,14.929,14.929,0,0,1-1.01,2.437,1.667,1.667,0,0,0,.3,1.95Z" transform="translate(-117.334 -117.333)"/>
        <path id="Trazado_170262" data-name="Trazado 170262" d="M211.667,200a11.667,11.667,0,1,0,11.667,11.667A11.667,11.667,0,0,0,211.667,200Zm0,20A8.334,8.334,0,1,1,220,211.667,8.334,8.334,0,0,1,211.667,220Z" transform="translate(-161.667 -161.667)"/>
        <path id="Trazado_170263" data-name="Trazado 170263" d="M230.855,239.831l-2.155-2.155-2.357,2.357,3.333,3.333a1.667,1.667,0,0,0,2.357,0L238.7,236.7l-2.357-2.357Z" transform="translate(-182.521 -188.855)"/>
      </g>
    </g>
  </g>
</svg>
