<svg xmlns="http://www.w3.org/2000/svg" width="150" height="150" viewBox="0 0 150 150">
  <g id="Grupo_115954" data-name="Grupo 115954" transform="translate(1864 10654)">
    <g id="Elipse_5960" data-name="Elipse 5960" transform="translate(-1864 -10654)" fill="#fff" stroke="#77b43a" stroke-width="4">
      <circle cx="75" cy="75" r="75" stroke="none"/>
      <circle cx="75" cy="75" r="73" fill="none"/>
    </g>
    <g id="Grupo_114087" data-name="Grupo 114087" transform="translate(-1857.584 -10651.161)">
      <circle id="Elipse_5817" data-name="Elipse 5817" cx="39.928" cy="39.928" r="39.928" transform="translate(28.667 28.839)" fill="#3d46c2" opacity="0.296"/>
      <path id="Trazado_167594" data-name="Trazado 167594" d="M70.892,54.9c-13.936,0-26.777-2.36-34.345-6.313a1.383,1.383,0,0,1-.527-1.969,41.317,41.317,0,0,1,69.743,0,1.383,1.383,0,0,1-.527,1.969C97.668,52.536,84.828,54.9,70.889,54.9ZM39.212,46.807c7.333,3.348,19,5.322,31.679,5.322s24.346-1.977,31.679-5.322a38.551,38.551,0,0,0-63.359,0Z" transform="translate(-2.297 0)" fill="#12263f"/>
      <path id="Trazado_167595" data-name="Trazado 167595" d="M70.892,122.849A41.152,41.152,0,0,1,36.02,103.693a1.383,1.383,0,0,1,.527-1.969c7.568-3.953,20.409-6.313,34.345-6.313s26.777,2.36,34.347,6.313a1.383,1.383,0,0,1,.527,1.969,41.152,41.152,0,0,1-34.871,19.157ZM39.212,103.5a38.551,38.551,0,0,0,63.359,0c-7.333-3.348-19-5.322-31.679-5.322s-24.346,1.974-31.679,5.322Z" transform="translate(-2.297 -12.772)" fill="#12263f"/>
      <path id="Trazado_167596" data-name="Trazado 167596" d="M69.451,110.077a41.31,41.31,0,1,1,41.31-41.31,41.356,41.356,0,0,1-41.31,41.31Zm0-79.853a38.543,38.543,0,1,0,38.543,38.543A38.586,38.586,0,0,0,69.451,30.224Z" transform="translate(-0.857 0)" fill="#12263f"/>
      <path id="Trazado_167597" data-name="Trazado 167597" d="M74.072,110.077c-5.883,0-11.336-4.425-15.355-12.46-3.865-7.729-5.993-17.975-5.993-28.85s2.128-21.12,5.993-28.85c4.016-8.035,9.469-12.46,15.355-12.46s11.336,4.425,15.355,12.46c3.865,7.729,5.993,17.975,5.993,28.85s-2.128,21.12-5.993,28.85c-4.016,8.035-9.469,12.46-15.355,12.46Zm0-79.853c-4.78,0-9.354,3.88-12.877,10.929-3.677,7.354-5.7,17.159-5.7,27.614s2.024,20.26,5.7,27.614c3.523,7.049,8.1,10.929,12.877,10.929s9.354-3.88,12.88-10.929c3.677-7.354,5.7-17.159,5.7-27.614s-2.024-20.26-5.7-27.614C83.429,34.1,78.855,30.224,74.072,30.224Z" transform="translate(-5.477 0)" fill="#12263f"/>
      <path id="Trazado_167598" data-name="Trazado 167598" d="M109.348,80.777H29.555a1.385,1.385,0,1,1,0-2.769h79.793a1.385,1.385,0,0,1,0,2.769Z" transform="translate(-0.862 -9.501)" fill="#12263f"/>
      <path id="Trazado_167599" data-name="Trazado 167599" d="M78.808,110.3a1.386,1.386,0,0,1-1.385-1.385v-79.1a1.385,1.385,0,0,1,2.769,0v79.1A1.386,1.386,0,0,1,78.808,110.3Z" transform="translate(-10.119 -0.183)" fill="#12263f"/>
      <path id="Trazado_167600" data-name="Trazado 167600" d="M25.29,125.383v-3.137a7.6,7.6,0,0,1,3.62-6.475l6.712-4.128a8.083,8.083,0,0,1,4.232-1.2h0a8.083,8.083,0,0,1,4.232,1.2l6.712,4.128a7.6,7.6,0,0,1,3.62,6.475v3.137Z" transform="translate(-0.321 -15.598)" fill="#dbe636"/>
      <path id="Trazado_167601" data-name="Trazado 167601" d="M54.093,126.444H24.969a1.386,1.386,0,0,1-1.385-1.385v-3.137a9.05,9.05,0,0,1,4.277-7.654l6.712-4.128a9.46,9.46,0,0,1,9.915,0l6.712,4.128a9.041,9.041,0,0,1,4.277,7.654v3.137A1.386,1.386,0,0,1,54.093,126.444Zm-27.742-2.767H52.708v-1.752a6.261,6.261,0,0,0-2.96-5.3L43.036,112.5a6.7,6.7,0,0,0-7.015,0l-6.712,4.128a6.261,6.261,0,0,0-2.96,5.3v1.752Z" transform="translate(0 -15.277)" fill="#12263f"/>
      <path id="Trazado_167602" data-name="Trazado 167602" d="M61.068,125.383v-3.137a7.6,7.6,0,0,1,3.62-6.475l6.712-4.128a8.083,8.083,0,0,1,4.232-1.2h0a8.083,8.083,0,0,1,4.232,1.2l6.712,4.128a7.6,7.6,0,0,1,3.62,6.475v3.137H61.073Z" transform="translate(-7.045 -15.598)" fill="#f75316"/>
      <path id="Trazado_167603" data-name="Trazado 167603" d="M89.871,126.444H60.747a1.386,1.386,0,0,1-1.385-1.385v-3.137a9.05,9.05,0,0,1,4.277-7.654l6.712-4.128a9.46,9.46,0,0,1,9.915,0l6.712,4.128a9.041,9.041,0,0,1,4.277,7.654v3.137A1.386,1.386,0,0,1,89.871,126.444Zm-27.739-2.767H88.489v-1.752a6.261,6.261,0,0,0-2.96-5.3L78.817,112.5a6.7,6.7,0,0,0-7.015,0l-6.712,4.128a6.261,6.261,0,0,0-2.96,5.3v1.752Z" transform="translate(-6.725 -15.277)" fill="#12263f"/>
      <path id="Trazado_167604" data-name="Trazado 167604" d="M96.846,125.383v-3.137a7.6,7.6,0,0,1,3.62-6.475l6.712-4.128a8.083,8.083,0,0,1,4.232-1.2h0a8.083,8.083,0,0,1,4.232,1.2l6.712,4.128a7.6,7.6,0,0,1,3.62,6.475v3.137H96.851Z" transform="translate(-13.77 -15.598)" fill="#3d46c1"/>
      <path id="Trazado_167605" data-name="Trazado 167605" d="M125.649,126.444H96.525a1.386,1.386,0,0,1-1.385-1.385v-3.137a9.05,9.05,0,0,1,4.277-7.654l6.712-4.128a9.46,9.46,0,0,1,9.915,0l6.712,4.128a9.041,9.041,0,0,1,4.277,7.654v3.137A1.386,1.386,0,0,1,125.649,126.444Zm-27.742-2.767h26.357v-1.752a6.261,6.261,0,0,0-2.96-5.3l-6.712-4.128a6.7,6.7,0,0,0-7.015,0l-6.712,4.128a6.261,6.261,0,0,0-2.96,5.3v1.752Z" transform="translate(-13.449 -15.277)" fill="#12263f"/>
      <path id="Trazado_167606" data-name="Trazado 167606" d="M41.56,110.044h0a7.182,7.182,0,0,1-7.182-7.182V97.957a7.184,7.184,0,0,1,7.182-7.184h0a7.182,7.182,0,0,1,7.182,7.184v4.905A7.182,7.182,0,0,1,41.56,110.044Z" transform="translate(-2.029 -11.9)" fill="#ffd4a2"/>
      <path id="Trazado_167607" data-name="Trazado 167607" d="M41.239,111.109a8.577,8.577,0,0,1-8.567-8.567V97.637a8.567,8.567,0,1,1,17.133,0v4.905A8.577,8.577,0,0,1,41.239,111.109Zm0-19.272a5.807,5.807,0,0,0-5.8,5.8v4.905a5.8,5.8,0,0,0,11.6,0V97.637A5.807,5.807,0,0,0,41.239,91.838Z" transform="translate(-1.708 -11.581)" fill="#12263f"/>
      <path id="Trazado_167608" data-name="Trazado 167608" d="M77.338,110.044h0a7.182,7.182,0,0,1-7.182-7.182V97.957a7.184,7.184,0,0,1,7.182-7.184h0a7.182,7.182,0,0,1,7.182,7.184v4.905A7.182,7.182,0,0,1,77.338,110.044Z" transform="translate(-8.753 -11.9)" fill="#ffd4a2"/>
      <path id="Trazado_167609" data-name="Trazado 167609" d="M77.017,111.109a8.577,8.577,0,0,1-8.567-8.567V97.637a8.567,8.567,0,0,1,17.133,0v4.905A8.577,8.577,0,0,1,77.017,111.109Zm0-19.272a5.807,5.807,0,0,0-5.8,5.8v4.905a5.8,5.8,0,1,0,11.6,0V97.637A5.807,5.807,0,0,0,77.017,91.838Z" transform="translate(-8.433 -11.581)" fill="#12263f"/>
      <path id="Trazado_167610" data-name="Trazado 167610" d="M113.116,110.044h0a7.182,7.182,0,0,1-7.182-7.182V97.957a7.184,7.184,0,0,1,7.182-7.184h0a7.182,7.182,0,0,1,7.182,7.184v4.905A7.182,7.182,0,0,1,113.116,110.044Z" transform="translate(-15.478 -11.9)" fill="#ffd4a2"/>
      <path id="Trazado_167611" data-name="Trazado 167611" d="M112.8,111.109a8.577,8.577,0,0,1-8.567-8.567V97.637a8.567,8.567,0,1,1,17.133,0v4.905A8.577,8.577,0,0,1,112.8,111.109Zm0-19.272a5.807,5.807,0,0,0-5.8,5.8v4.905a5.8,5.8,0,1,0,11.6,0V97.637A5.807,5.807,0,0,0,112.8,91.838Z" transform="translate(-15.157 -11.581)" fill="#12263f"/>
    </g>
  </g>
</svg>
