<svg xmlns="http://www.w3.org/2000/svg" width="150" height="150" viewBox="0 0 150 150">
  <g id="Grupo_115957" data-name="Grupo 115957" transform="translate(9545.037 9308.854)">
    <circle id="Elipse_5683" data-name="Elipse 5683" cx="75" cy="75" r="75" transform="translate(-9545.037 -9308.854)" fill="#fff"/>
    <g id="estilo-de-vida" transform="translate(-9520 -9284)">
      <g id="Grupo_114833" data-name="Grupo 114833" transform="translate(1.465 1.465)">
        <circle id="Elipse_5956" data-name="Elipse 5956" cx="44.876" cy="44.876" r="44.876" transform="translate(3.659 3.659)" fill="#f9f8f9"/>
        <g id="Grupo_114820" data-name="Grupo 114820" transform="translate(52.156 13.048)">
          <ellipse id="Elipse_5957" data-name="Elipse 5957" cx="4.225" cy="5.176" rx="4.225" ry="5.176" fill="#75b62f"/>
        </g>
        <g id="Grupo_114825" data-name="Grupo 114825" transform="translate(35.449 65.746)">
          <g id="Grupo_114821" data-name="Grupo 114821" transform="translate(0 2.614)">
            <path id="Trazado_169847" data-name="Trazado 169847" d="M215.172,372.148H203.551l-1.465-.781-1.465.781H189V357.5h26.172Z" transform="translate(-189 -357.5)" fill="#3d46c2"/>
          </g>
          <g id="Grupo_114824" data-name="Grupo 114824" transform="translate(4.277)">
            <g id="Grupo_114823" data-name="Grupo 114823">
              <g id="Grupo_114822" data-name="Grupo 114822">
                <path id="Trazado_169848" data-name="Trazado 169848" d="M218.543,347.057c.42-.445.915-2.07,1.465-2.352a5.339,5.339,0,0,1,2.442-.588h5.566a.2.2,0,0,1,.2.2v11.523l-.821.879c-.934,0-7.148-.731-8.71,2.045a.2.2,0,0,1-.273,0,5.449,5.449,0,0,0-2.3-1.352,5.284,5.284,0,0,0-1.471-.2l-3.7-.089-.037-8.458.908-4.538h2.832a5.339,5.339,0,0,1,2.442.588C217.627,344.987,218.543,347.057,218.543,347.057Z" transform="translate(-210.897 -344.117)" fill="#e8e8e8"/>
              </g>
            </g>
          </g>
        </g>
        <g id="Grupo_114829" data-name="Grupo 114829" transform="translate(62.434 37.467)">
          <g id="Grupo_114826" data-name="Grupo 114826" transform="translate(5.61 5.485)">
            <path id="Trazado_169849" data-name="Trazado 169849" d="M0,0H4.563V11.776H0Z" transform="translate(8.326 0.115) rotate(45)" fill="#857e87"/>
            <path id="Trazado_169850" data-name="Trazado 169850" d="M0,0H10.063V2.762H0Z" transform="translate(0.051 7.115) rotate(-45)" fill="#766e7a"/>
          </g>
          <g id="Grupo_114827" data-name="Grupo 114827" transform="translate(10.358)">
            <path id="Trazado_169851" data-name="Trazado 169851" d="M393.4,208.156l-6.2-6.2c-.763-.763-1.906-1.124-2.669-.361l-1.1,1.1c-.763.763-1.076,1.436-.313,2.2l6.767,6.767a2.242,2.242,0,0,0,2.981-.219l.533-.533a1.953,1.953,0,0,0,0-2.762Z" transform="translate(-382.199 -200.817)" fill="#766e7a"/>
            <path id="Trazado_169852" data-name="Trazado 169852" d="M383.709,202.8a.586.586,0,0,1,0-.829l1.5-1.5-.572-.572a1.953,1.953,0,0,0-2.762,0l-1.1,1.1a1.953,1.953,0,0,0,0,2.762l6.767,6.767a1.953,1.953,0,0,0,2.762,0l.572-.572Z" transform="translate(-380.197 -199.33)" fill="#665f6d"/>
          </g>
          <g id="Grupo_114828" data-name="Grupo 114828" transform="translate(0 10.358)">
            <path id="Trazado_169853" data-name="Trazado 169853" d="M340.469,261.415l-6.2-6.2a1.945,1.945,0,0,0-2.737-.276l-1.1,1.1c-.763.763-.925,1.456-.162,2.219l6.657,6.521a2.267,2.267,0,0,0,3.009-.079l.533-.533A1.953,1.953,0,0,0,340.469,261.415Z" transform="translate(-329.263 -254.076)" fill="#766e7a"/>
            <path id="Trazado_169854" data-name="Trazado 169854" d="M330.676,255.836a.586.586,0,0,1,0-.829l1.5-1.5-.572-.572a1.953,1.953,0,0,0-2.762,0l-1.1,1.1a1.953,1.953,0,0,0,0,2.762l6.767,6.767a1.953,1.953,0,0,0,2.762,0l.572-.572Z" transform="translate(-327.164 -252.363)" fill="#665f6d"/>
          </g>
        </g>
        <g id="Grupo_114830" data-name="Grupo 114830" transform="translate(13.281 37.5)">
          <path id="Trazado_169855" data-name="Trazado 169855" d="M93.434,220.7l-12.107-.075a1.953,1.953,0,0,1-1.953-1.953l-.033-17.214c0-1.079,2.078-1.953,3.156-1.953h4l.69,1.276,6.9,6.947,1.3.664v9.277C95.387,218.743,94.512,220.7,93.434,220.7Z" transform="translate(-78.59 -199.5)" fill="#dce736"/>
          <path id="Trazado_169856" data-name="Trazado 169856" d="M79.992,217.664a.586.586,0,0,1-.586-.586V199.5H77.453a1.953,1.953,0,0,0-1.953,1.953v18.164a1.953,1.953,0,0,0,1.953,1.953H90.344a1.953,1.953,0,0,0,1.953-1.953v-1.953Z" transform="translate(-75.5 -199.5)" fill="#dce736"/>
          <path id="Trazado_169857" data-name="Trazado 169857" d="M124.887,208.387h-6.934A1.953,1.953,0,0,1,116,206.434V199.5Z" transform="translate(-108.09 -199.5)" fill="#dce736"/>
        </g>
        <g id="Grupo_114831" data-name="Grupo 114831">
          <path id="Trazado_169858" data-name="Trazado 169858" d="M60.769,7.5A48.352,48.352,0,0,0,28.527,19.757s-3.112,3.311-4.622,5.1C16.793,33.3,13.383,44.132,13.383,56.035c0,26.8,20.581,47.544,47.386,47.544,12.026,0,22.958-3.445,31.437-10.688.887-.758,1.819-1.486,2.649-2.3A48.535,48.535,0,0,0,60.769,7.5Zm0,91.211a42.676,42.676,0,1,1,42.676-42.676A42.677,42.677,0,0,1,60.769,98.711Z" transform="translate(-12.234 -7.5)" fill="#f85316"/>
          <path id="Trazado_169859" data-name="Trazado 169859" d="M90.406,138.624A48.535,48.535,0,1,1,24.4,67.55a48.535,48.535,0,0,0,66.008,71.074Z" transform="translate(-7.5 -55.821)" fill="#f85316"/>
        </g>
        <g id="Grupo_114832" data-name="Grupo 114832" transform="translate(43.652 43.652)">
          <path id="Trazado_169860" data-name="Trazado 169860" d="M243.23,235.883a4.886,4.886,0,0,0-6.686-4.539c-1.8.717-2.481,4.177-2.481,4.539a3.98,3.98,0,0,0,4.284,4.359c.3,0,3.821-.752,4.538-2.556a4.865,4.865,0,0,0,.345-1.8Z" transform="translate(-233.465 -231)" fill="#75b62f"/>
          <path id="Trazado_169861" data-name="Trazado 169861" d="M238.617,239.454a4.883,4.883,0,0,1-4.538-6.686,4.883,4.883,0,1,0,6.342,6.341A4.873,4.873,0,0,1,238.617,239.454Z" transform="translate(-231 -232.423)" fill="#75b62f"/>
        </g>
      </g>
      <g id="Grupo_114834" data-name="Grupo 114834" transform="translate(0)">
        <path id="Trazado_169862" data-name="Trazado 169862" d="M85.355,14.645A50,50,0,0,0,0,50c0,1.671.083,3.357.248,5.009a1.465,1.465,0,0,0,2.915-.29C3.008,53.163,2.93,51.575,2.93,50A47.018,47.018,0,1,1,4.285,61.259a1.465,1.465,0,0,0-2.845.7,50.246,50.246,0,0,0,17.48,27.211,50,50,0,0,0,66.436-3.813,50,50,0,0,0,0-70.711Z" transform="translate(0)"/>
        <path id="Trazado_169863" data-name="Trazado 169863" d="M75.554,30.022c-.469-.015-.945-.022-1.413-.022a44.141,44.141,0,1,0,26.691,79.3A44.473,44.473,0,0,0,116.5,86.577a1.465,1.465,0,1,0-2.812-.824,40.582,40.582,0,0,1-3.152,7.712l-3.531-2.039a1.465,1.465,0,0,0-1.465,2.537L109.067,96a41.6,41.6,0,0,1-13.089,13.038l-2.014-3.489a1.465,1.465,0,0,0-2.537,1.465l2.016,3.492a40.991,40.991,0,0,1-38.622.03l2.034-3.522a1.465,1.465,0,0,0-2.537-1.465l-2.031,3.518A41.534,41.534,0,0,1,39.218,95.995l3.518-2.031a1.465,1.465,0,1,0-1.465-2.537L37.748,93.46a41.138,41.138,0,0,1,0-38.639l3.522,2.034a1.465,1.465,0,0,0,1.465-2.537l-3.518-2.031A41.534,41.534,0,0,1,52.286,39.218l2.031,3.518a1.465,1.465,0,1,0,2.537-1.465l-2.034-3.523a40.954,40.954,0,0,1,19.32-4.819c.438,0,.883.007,1.321.021a1.465,1.465,0,1,0,.092-2.928Z" transform="translate(-24.141 -24.141)"/>
        <path id="Trazado_169864" data-name="Trazado 169864" d="M325.781,84.137a1.485,1.485,0,0,0,.183.012,1.465,1.465,0,0,0,1.452-1.284,44.759,44.759,0,0,0,.34-5.507,44.188,44.188,0,0,0-35.694-43.333A1.465,1.465,0,1,0,291.5,36.9a40.9,40.9,0,0,1,11.44,4.048L300.9,44.488a1.465,1.465,0,1,0,2.537,1.465l2.042-3.537A41.39,41.39,0,0,1,318.542,55.5l-3.522,2.034a1.465,1.465,0,1,0,1.465,2.537l3.523-2.034a41.08,41.08,0,0,1,4.819,19.319,41.811,41.811,0,0,1-.318,5.145,1.465,1.465,0,0,0,1.273,1.635Z" transform="translate(-233.615 -27.358)"/>
        <path id="Trazado_169865" data-name="Trazado 169865" d="M268.5,74.25a6.194,6.194,0,0,0,3.906,6.012V88.8a1.465,1.465,0,0,0,2.93,0V80.262a6.194,6.194,0,0,0,3.906-6.012c0-3.446-2.41-6.25-5.371-6.25S268.5,70.8,268.5,74.25Zm5.371-3.32c1.323,0,2.441,1.521,2.441,3.32s-1.118,3.32-2.441,3.32-2.441-1.521-2.441-3.32S272.548,70.93,273.871,70.93Z" transform="translate(-216.059 -54.719)"/>
        <path id="Trazado_169866" data-name="Trazado 169866" d="M189.965,68.333A1.465,1.465,0,0,0,188.5,69.8v5.6a5.378,5.378,0,0,0,4.883,5.348v8.324a1.465,1.465,0,0,0,2.93,0V80.745A5.378,5.378,0,0,0,201.2,75.4V69.8a1.465,1.465,0,0,0-2.93,0v5.6a2.445,2.445,0,0,1-1.953,2.392V69.8a1.465,1.465,0,0,0-2.93,0v7.991A2.445,2.445,0,0,1,191.43,75.4V69.8A1.465,1.465,0,0,0,189.965,68.333Z" transform="translate(-151.684 -54.987)"/>
        <path id="Trazado_169867" data-name="Trazado 169867" d="M184.918,358.324h22.266a3.422,3.422,0,0,0,3.418-3.418V344.164a3.422,3.422,0,0,0-3.418-3.418h-1.465v-.781a1.465,1.465,0,0,0-1.465-1.465h-4.3a5.356,5.356,0,0,0-3.906,1.688,5.357,5.357,0,0,0-3.906-1.688h-4.3a1.465,1.465,0,0,0-1.465,1.465v.781h-1.465a3.422,3.422,0,0,0-3.418,3.418v10.742A3.422,3.422,0,0,0,184.918,358.324Zm22.266-14.648a.489.489,0,0,1,.488.488v10.742a.489.489,0,0,1-.488.488h-9.663a2.345,2.345,0,0,1,2.339-2.246h4.395a1.465,1.465,0,0,0,1.465-1.465v-8.008Zm-7.227-2.246h2.832v8.789h-2.93a5.242,5.242,0,0,0-2.344.55v-6.9A2.444,2.444,0,0,1,199.957,341.43Zm-10.645,0h2.832a2.444,2.444,0,0,1,2.441,2.441v6.9a5.242,5.242,0,0,0-2.344-.55h-2.93Zm-4.883,2.734a.489.489,0,0,1,.488-.488h1.465v8.008a1.465,1.465,0,0,0,1.465,1.465h4.395a2.345,2.345,0,0,1,2.339,2.246h-9.663a.489.489,0,0,1-.488-.488Z" transform="translate(-146.051 -272.387)"/>
        <path id="Trazado_169868" data-name="Trazado 169868" d="M337.791,205.539a3.418,3.418,0,0,0,4.834,0l1.1-1.1a3.418,3.418,0,0,0,0-4.834l-6.767-6.767a3.418,3.418,0,0,0-4.834,0l-1.1,1.1a3.418,3.418,0,0,0,0,4.834l.414.414-4.419,4.419-.414-.414a3.423,3.423,0,0,0-4.834,0l-1.1,1.1a3.418,3.418,0,0,0,0,4.834l6.767,6.767a3.418,3.418,0,0,0,4.834,0l1.1-1.1a3.418,3.418,0,0,0,0-4.834l-.414-.414,4.419-4.419Zm-4.7-9.529,1.1-1.1a.488.488,0,0,1,.69,0l6.767,6.767a.488.488,0,0,1,0,.691l-1.1,1.1a.489.489,0,0,1-.691,0L333.1,196.7a.488.488,0,0,1,0-.69Zm-1.8,16.711-1.1,1.1a.488.488,0,0,1-.691,0l-6.767-6.767a.488.488,0,0,1,0-.69l1.1-1.1a.489.489,0,0,1,.691,0l6.767,6.767h0a.488.488,0,0,1,0,.691Zm-.414-5.248-1.8-1.8,4.419-4.419,1.8,1.8Z" transform="translate(-257.23 -154.365)"/>
        <path id="Trazado_169869" data-name="Trazado 169869" d="M87.3,201.315l-8.887-8.887A1.5,1.5,0,0,0,77.375,192H71.418A3.422,3.422,0,0,0,68,195.417v18.164A3.422,3.422,0,0,0,71.418,217H84.309a3.422,3.422,0,0,0,3.418-3.418V202.358A1.478,1.478,0,0,0,87.3,201.315ZM78.84,197l3.886,3.886h-3.4a.489.489,0,0,1-.488-.488Zm5.469,17.069H71.418a.489.489,0,0,1-.488-.488V195.417a.489.489,0,0,1,.488-.488H75.91V200.4a3.422,3.422,0,0,0,3.418,3.418H84.8v9.766A.489.489,0,0,1,84.309,214.07Z" transform="translate(-54.719 -154.499)"/>
        <path id="Trazado_169870" data-name="Trazado 169870" d="M158.068,174.969h-5.423a1.465,1.465,0,0,0,0,2.93h5.469a6.352,6.352,0,1,0,2.615-6.83l-16.321-13.724a1.465,1.465,0,1,0-1.886,2.242l16.215,13.636A6.3,6.3,0,0,0,158.068,174.969Zm9.616,1.367a3.418,3.418,0,1,1-3.418-3.418A3.422,3.422,0,0,1,167.684,176.336Z" transform="translate(-114.266 -126.336)"/>
      </g>
    </g>
  </g>
</svg>
