<svg xmlns="http://www.w3.org/2000/svg" width="150" height="150" viewBox="0 0 150 150">
  <g id="Grupo_115955" data-name="Grupo 115955" transform="translate(10266.664 9308)">
    <circle id="Elipse_5680" data-name="Elipse 5680" cx="75" cy="75" r="75" transform="translate(-10266.664 -9308)" fill="#fff"/>
    <g id="_9-productivity" data-name="9-productivity" transform="translate(-10247 -9283)">
      <path id="Trazado_169813" data-name="Trazado 169813" d="M5,33H23.75V81.438H5Z" transform="translate(2.813 18.563)" fill="#3d46c2"/>
      <path id="Trazado_169814" data-name="Trazado 169814" d="M26,21H44.75V88.188H26Z" transform="translate(14.625 11.813)" fill="#75b62f"/>
      <path id="Trazado_169815" data-name="Trazado 169815" d="M47,1H65.75V99.438H47Z" transform="translate(26.438 0.563)" fill="#dce736"/>
      <path id="Trazado_169816" data-name="Trazado 169816" d="M10.938,87.625l25-29.956L50.268,72a6.252,6.252,0,0,0,8.839,0L87.628,43.479,92.9,48.755,98.438,22,73.512,29.363l5.277,5.277-24.1,24.1L40.357,44.411a6.252,6.252,0,0,0-8.839,0L0,76.687V87.625Z" transform="translate(0 12.375)" fill="#f85316"/>
      <path id="Trazado_169817" data-name="Trazado 169817" d="M99.5,21.413a1.558,1.558,0,0,0-1.5-.349L73.07,28.427a1.562,1.562,0,0,0-.662,2.6L76.579,35.2,54.687,57.095,41.462,43.868a7.834,7.834,0,0,0-11.089.043L.417,76.187a1.562,1.562,0,0,0,2.29,2.126L32.623,46.079a4.7,4.7,0,0,1,6.63,0l14.33,14.331a1.608,1.608,0,0,0,2.209,0l24.1-24.1a1.562,1.562,0,0,0,0-2.209L76.475,30.68l19.9-5.88L91.961,46.165l-3.228-3.228a1.562,1.562,0,0,0-2.209,0L58,71.457a4.7,4.7,0,0,1-6.63,0L37.042,57.127a1.562,1.562,0,0,0-2.277.072l-25,28.394a1.562,1.562,0,0,0,2.345,2.065l23.9-27.144L49.163,73.668a7.825,7.825,0,0,0,11.049,0L87.628,46.251,91.8,50.423a1.563,1.563,0,0,0,2.635-.788l5.533-26.756a1.565,1.565,0,0,0-.472-1.466Z" transform="translate(0 11.812)"/>
      <path id="Trazado_169818" data-name="Trazado 169818" d="M17.563,56A1.563,1.563,0,0,0,16,57.563v9.375a1.563,1.563,0,0,0,3.125,0V57.563A1.563,1.563,0,0,0,17.563,56Z" transform="translate(9 31.5)"/>
      <path id="Trazado_169819" data-name="Trazado 169819" d="M5.563,58.563A1.562,1.562,0,0,0,7.125,57V35.125H22.75v1.563a1.563,1.563,0,0,0,3.125,0V33.563A1.563,1.563,0,0,0,24.313,32H5.563A1.562,1.562,0,0,0,4,33.563V57A1.562,1.562,0,0,0,5.563,58.563Z" transform="translate(2.25 18)"/>
      <path id="Trazado_169820" data-name="Trazado 169820" d="M47.563,48A1.562,1.562,0,0,0,46,49.563V71.438a1.563,1.563,0,0,0,3.125,0V49.563A1.562,1.562,0,0,0,47.563,48Z" transform="translate(25.875 27)"/>
      <path id="Trazado_169821" data-name="Trazado 169821" d="M47.563,37.5a1.562,1.562,0,0,0,1.563-1.562V3.125H64.75V29.688a1.563,1.563,0,0,0,3.125,0V1.563A1.562,1.562,0,0,0,66.313,0H47.563A1.562,1.562,0,0,0,46,1.563V35.938A1.562,1.562,0,0,0,47.563,37.5Z" transform="translate(25.875)"/>
      <path id="Trazado_169822" data-name="Trazado 169822" d="M59.563,42A1.562,1.562,0,0,0,58,43.563v31.25a1.563,1.563,0,0,0,3.125,0V43.563A1.562,1.562,0,0,0,59.563,42Z" transform="translate(32.625 23.625)"/>
      <path id="Trazado_169823" data-name="Trazado 169823" d="M38.563,57A1.562,1.562,0,0,0,37,58.563v7.813a1.563,1.563,0,0,0,3.125,0V58.563A1.562,1.562,0,0,0,38.563,57Z" transform="translate(20.813 32.063)"/>
      <path id="Trazado_169824" data-name="Trazado 169824" d="M26.563,40.313a1.562,1.562,0,0,0,1.563-1.562V23.125H43.75v25a1.563,1.563,0,0,0,3.125,0V21.563A1.563,1.563,0,0,0,45.313,20H26.563A1.563,1.563,0,0,0,25,21.563V38.75A1.562,1.562,0,0,0,26.563,40.313Z" transform="translate(14.063 11.25)"/>
      <path id="Trazado_169825" data-name="Trazado 169825" d="M26.563,51A1.562,1.562,0,0,0,25,52.563V69.75a1.563,1.563,0,0,0,3.125,0V52.563A1.562,1.562,0,0,0,26.563,51Z" transform="translate(14.063 28.688)"/>
    </g>
  </g>
</svg>
