<svg xmlns="http://www.w3.org/2000/svg" width="100" height="91.039" viewBox="0 0 100 91.039">
  <g id="seguro" transform="translate(0 -22.939)">
    <g id="Grupo_114866" data-name="Grupo 114866" transform="translate(17.24 24.404)">
      <g id="Grupo_114865" data-name="Grupo 114865">
        <g id="Grupo_114856" data-name="Grupo 114856" transform="translate(5.53 0)">
          <g id="Grupo_114855" data-name="Grupo 114855">
            <path id="Trazado_169939" data-name="Trazado 169939" d="M177.894,37.611a.391.391,0,0,1,.391.391v6.586h5.725V31.025a.586.586,0,0,0-.586-.586H117.167a.586.586,0,0,0-.586.586v6.586Z" transform="translate(-116.581 -30.439)" fill="#f3f9ff"/>
          </g>
        </g>
        <g id="Grupo_114858" data-name="Grupo 114858" transform="translate(5.53)">
          <g id="Grupo_114857" data-name="Grupo 114857">
            <path id="Trazado_169940" data-name="Trazado 169940" d="M123.694,30.439h-6.527a.586.586,0,0,0-.586.586v6.586h6.527V31.025A.586.586,0,0,1,123.694,30.439Z" transform="translate(-116.581 -30.439)" fill="#f3f9ff"/>
          </g>
        </g>
        <g id="Grupo_114860" data-name="Grupo 114860" transform="translate(0 6.977)">
          <g id="Grupo_114859" data-name="Grupo 114859">
            <path id="Trazado_169941" data-name="Trazado 169941" d="M97.96,79.84V73.723a.391.391,0,0,1,.391-.391H155.7V66.746a.586.586,0,0,0-.586-.586H88.854a.586.586,0,0,0-.586.586V79.84Z" transform="translate(-88.268 -66.16)" fill="#f3f9ff"/>
          </g>
        </g>
        <g id="Grupo_114861" data-name="Grupo 114861" transform="translate(0 6.977)">
          <path id="Trazado_169942" data-name="Trazado 169942" d="M95.442,66.16H88.854a.586.586,0,0,0-.586.586V79.84h6.588V66.746A.586.586,0,0,1,95.442,66.16Z" transform="translate(-88.268 -66.16)" fill="#f3f9ff"/>
        </g>
        <g id="Grupo_114862" data-name="Grupo 114862" transform="translate(9.496 13.954)">
          <path id="Trazado_169943" data-name="Trazado 169943" d="M155.641,108.584a1.75,1.75,0,0,1,1.566.96l5.594,10.983h41.516V102.467a.586.586,0,0,0-.586-.586H137.475a.586.586,0,0,0-.586.586v6.117Z" transform="translate(-136.889 -101.881)" fill="#f3f9ff"/>
        </g>
        <g id="Grupo_114864" data-name="Grupo 114864" transform="translate(9.496 13.954)">
          <g id="Grupo_114863" data-name="Grupo 114863">
            <path id="Trazado_169944" data-name="Trazado 169944" d="M144.918,101.882h-7.444a.586.586,0,0,0-.586.586v6.117h7.444v-6.117A.586.586,0,0,1,144.918,101.882Z" transform="translate(-136.889 -101.882)" fill="#f3f9ff"/>
          </g>
        </g>
      </g>
    </g>
    <g id="Grupo_114882" data-name="Grupo 114882" transform="translate(1.465 44.865)">
      <g id="Grupo_114871" data-name="Grupo 114871" transform="translate(11.405)">
        <g id="Grupo_114870" data-name="Grupo 114870">
          <g id="Grupo_114867" data-name="Grupo 114867">
            <path id="Trazado_169945" data-name="Trazado 169945" d="M98.51,135.2H67.845a1.953,1.953,0,0,0-1.953,1.953v9.99h39.9l-5.54-10.877A1.954,1.954,0,0,0,98.51,135.2Z" transform="translate(-65.892 -135.201)" fill="#dce736"/>
          </g>
          <path id="Trazado_169947" data-name="Trazado 169947" d="M149.6,196.352H65.892v27.557H90.177a1.953,1.953,0,0,1,1.953,1.953v23.2H149.6a1.953,1.953,0,0,0,1.953-1.953V198.305a1.953,1.953,0,0,0-1.953-1.953Z" transform="translate(-65.892 -184.408)" fill="#dce736"/>
        </g>
      </g>
      <g id="Grupo_114872" data-name="Grupo 114872" transform="translate(61.426 47.307)">
        <path id="Trazado_169950" data-name="Trazado 169950" d="M347.487,385.6H322.977a.977.977,0,0,1-.977-.977v-6.231a.977.977,0,0,1,.977-.977h24.511a.977.977,0,0,1,.977.977v6.231A.977.977,0,0,1,347.487,385.6Z" transform="translate(-322 -377.412)" fill="#75b62f"/>
      </g>
      <g id="Grupo_114881" data-name="Grupo 114881" transform="translate(0 20.51)">
        <g id="Grupo_114874" data-name="Grupo 114874" transform="translate(5.765 0)">
          <path id="Trazado_169952" data-name="Trazado 169952" d="M42.878,259.4v-6.13a7.2,7.2,0,0,1,14.394,0v6.13h5.859v-6.13a13.056,13.056,0,0,0-26.113,0v6.13Z" transform="translate(-37.019 -240.212)" fill="#afafaf"/>
        </g>
        <g id="Grupo_114877" data-name="Grupo 114877" transform="translate(0 18.991)">
          <path id="Trazado_169954" data-name="Trazado 169954" d="M43.19,365.594H9.453A1.953,1.953,0,0,1,7.5,363.64V339.4a1.953,1.953,0,0,1,1.953-1.953H43.19a1.953,1.953,0,0,1,1.953,1.953V363.64A1.953,1.953,0,0,1,43.19,365.594Z" transform="translate(-7.5 -337.446)" fill="#f85316"/>
        </g>
        <g id="Grupo_114879" data-name="Grupo 114879" transform="translate(0 27.13)">
          <path id="Trazado_169956" data-name="Trazado 169956" d="M7.5,379.118H45.143v11.869H7.5Z" transform="translate(-7.5 -379.118)" fill="#fff"/>
        </g>
      </g>
    </g>
    <g id="Grupo_114883" data-name="Grupo 114883" transform="translate(0 22.939)">
      <path id="Trazado_169958" data-name="Trazado 169958" d="M98.535,77.345A1.465,1.465,0,0,0,100,75.881V58.762a3.422,3.422,0,0,0-3.418-3.418H95.63v-16.4a2.053,2.053,0,0,0-2.051-2.051H91.663V24.99a2.053,2.053,0,0,0-2.051-2.051H23.356A2.053,2.053,0,0,0,21.3,24.99v4.926H17.826a2.053,2.053,0,0,0-2.051,2.051V43.4h-.952A3.422,3.422,0,0,0,11.4,46.818V66.955A14.5,14.5,0,0,0,5.765,78.431V82.9H3.418A3.422,3.422,0,0,0,0,86.319V110.56a3.422,3.422,0,0,0,3.418,3.418H37.155a3.421,3.421,0,0,0,3.388-2.99H96.582A3.422,3.422,0,0,0,100,107.57V82.717a1.465,1.465,0,0,0-2.93,0V107.57a.489.489,0,0,1-.488.488H40.573V86.319A3.422,3.422,0,0,0,37.155,82.9H34.808v-4.47a14.512,14.512,0,0,0-20.473-13.24V58.273H96.582a.489.489,0,0,1,.488.488V75.881A1.465,1.465,0,0,0,98.535,77.345ZM37.643,110.56a.489.489,0,0,1-.488.488H3.418a.489.489,0,0,1-.488-.488v-4.721H37.643Zm-.488-24.729a.489.489,0,0,1,.488.488V91.04h-6.2a1.465,1.465,0,0,0,0,2.93h6.2v8.94H2.93V93.97h21.68a1.465,1.465,0,0,0,0-2.93H2.93V86.319a.489.489,0,0,1,.488-.488Zm-22.6-2.93v-4.47a5.732,5.732,0,0,1,11.464,0V82.9ZM20.286,66.84A11.6,11.6,0,0,1,31.878,78.431V82.9h-2.93v-4.47a8.662,8.662,0,0,0-17.324,0V82.9H8.695v-4.47A11.6,11.6,0,0,1,20.286,66.84ZM18.7,32.845H69.727a1.465,1.465,0,0,0,0-2.93H24.235V25.869h64.5V36.893h-2.6V31.967a2.053,2.053,0,0,0-2.051-2.051h-7.52a1.465,1.465,0,1,0,0,2.93H83.2v4.047H27.322a2.053,2.053,0,0,0-2.051,2.051V43.4H18.7Zm-4.37,22.5V46.818a.489.489,0,0,1,.488-.488H45.488a.486.486,0,0,1,.435.267l4.455,8.747Zm78.366,0H53.666L48.533,45.267A3.4,3.4,0,0,0,45.488,43.4H28.2V39.822H92.7V55.344Z" transform="translate(0 -22.939)"/>
      <path id="Trazado_169959" data-name="Trazado 169959" d="M315.479,139.012H337.3a1.465,1.465,0,0,0,0-2.93H315.479a1.465,1.465,0,0,0,0,2.93Z" transform="translate(-252.683 -113.984)"/>
      <path id="Trazado_169960" data-name="Trazado 169960" d="M316.941,369.912a2.444,2.444,0,0,0-2.441,2.441v6.231a2.444,2.444,0,0,0,2.441,2.441h24.511a2.444,2.444,0,0,0,2.441-2.441v-6.231a2.444,2.444,0,0,0-2.441-2.441Zm24.022,8.185H317.43v-5.255h23.534Z" transform="translate(-253.074 -302.144)"/>
    </g>
  </g>
</svg>
