<svg xmlns="http://www.w3.org/2000/svg" width="100" height="100" viewBox="0 0 100 100">
  <g id="investigacion" transform="translate(0 -0.001)">
    <path id="Trazado_169923" data-name="Trazado 169923" d="M403.946,276.477a2.931,2.931,0,0,1-4.144,0l-19.2-19.2,4.144-4.144,19.2,19.2A2.931,2.931,0,0,1,403.946,276.477Zm0,0" transform="translate(-306.268 -203.695)" fill="#3d46c2"/>
    <path id="Trazado_169924" data-name="Trazado 169924" d="M7.5,62.5H69.024v86.328H7.5Zm0,0" transform="translate(-6.035 -50.292)" fill="#dce736" opacity="0.171"/>
    <path id="Trazado_169925" data-name="Trazado 169925" d="M40,307.727H51.719v31.641H40Zm0,0" transform="translate(-32.187 -247.623)" fill="#3d46c2"/>
    <path id="Trazado_169926" data-name="Trazado 169926" d="M134,247.727h11.719v43.359H134Zm0,0" transform="translate(-107.828 -199.342)" fill="#f85316"/>
    <path id="Trazado_169927" data-name="Trazado 169927" d="M230,269.727h11.719v39.063H230Zm0,0" transform="translate(-185.078 -217.045)" fill="#75b62f"/>
    <path id="Trazado_169931" data-name="Trazado 169931" d="M189.926,16.6a31.054,31.054,0,1,0,0,43.917A31.054,31.054,0,0,0,189.926,16.6Zm0,0" transform="translate(-110.172 -6.038)" fill="#3d46c2"/>
    <path id="Trazado_169932" data-name="Trazado 169932" d="M209.972,80.561a25.2,25.2,0,1,1,0-35.632A25.224,25.224,0,0,1,209.972,80.561Zm0,0" transform="translate(-134.361 -30.224)" fill="#f3f9ff"/>
    <path id="Trazado_169933" data-name="Trazado 169933" d="M301.659,80.564Zm0-35.632" transform="translate(-226.048 -30.227)" fill="#71f6fc"/>
    <path id="Trazado_169934" data-name="Trazado 169934" d="M98.716,67.218,83.688,52.187a32.53,32.53,0,0,0,1.3-37.526,1.465,1.465,0,1,0-2.448,1.611,29.617,29.617,0,1,1-3.826-4.692l.08.081A1.465,1.465,0,0,0,80.876,9.6l-.084-.085a32.555,32.555,0,0,0-45.991,0q-.6.6-1.157,1.218H1.465A1.465,1.465,0,0,0,0,12.194v6.479a1.465,1.465,0,1,0,2.93,0V13.66H31.3a32.268,32.268,0,0,0-2.888,4.929H10.156a1.465,1.465,0,1,0,0,2.93H27.194A32.452,32.452,0,0,0,26.143,25.1H10.156a1.465,1.465,0,1,0,0,2.93H25.6a32.733,32.733,0,0,0-.3,3.58H10.156a1.465,1.465,0,0,0,0,2.93h15.2a32.553,32.553,0,0,0,3.279,12.373H26.173a1.465,1.465,0,0,0-1.465,1.466V91.744a1.465,1.465,0,0,0,1.465,1.466H37.891a1.465,1.465,0,0,0,1.465-1.466V59.3a32.276,32.276,0,0,0,4.1,2.4V91.744a1.465,1.465,0,0,0,1.465,1.466H56.641a1.465,1.465,0,0,0,1.465-1.466V65.016a33.05,33.05,0,0,0,3.419-.211V87.434a1.465,1.465,0,1,0,2.93,0v-23.1a32.3,32.3,0,0,0,13.019-5.929L92.5,73.433a4.4,4.4,0,0,0,6.217-6.215ZM36.427,90.279H27.638V49.843h2.639A32.54,32.54,0,0,0,34.8,55.509q.792.792,1.625,1.516Zm9.962,0V62.965a32.608,32.608,0,0,0,8.789,1.948V90.279ZM96.645,71.361a1.465,1.465,0,0,1-2.073,0L79.732,56.52c.359-.329.713-.665,1.06-1.012s.684-.7,1.012-1.06L96.643,69.29A1.466,1.466,0,0,1,96.645,71.361Zm0,0"/>
    <path id="Trazado_169935" data-name="Trazado 169935" d="M62.99,189.337a1.465,1.465,0,0,0-1.465,1.465v3.321H2.93V122.074a1.465,1.465,0,0,0-2.93,0v73.514a1.465,1.465,0,0,0,1.465,1.465H62.99a1.464,1.464,0,0,0,1.465-1.465V190.8A1.464,1.464,0,0,0,62.99,189.337Zm0,0" transform="translate(0 -97.052)"/>
    <path id="Trazado_169936" data-name="Trazado 169936" d="M32.5,301.66v31.646a1.465,1.465,0,0,0,1.465,1.465h11.72a1.465,1.465,0,0,0,1.465-1.465V301.66a1.465,1.465,0,0,0-1.465-1.465H33.965A1.465,1.465,0,0,0,32.5,301.66Zm2.93,1.466h8.79v28.715H35.43Zm0,0" transform="translate(-26.152 -241.563)"/>
    <path id="Trazado_169937" data-name="Trazado 169937" d="M56.918,198.11a1.465,1.465,0,0,0,0-2.93H45.965a1.465,1.465,0,0,0,0,2.93Zm0,0" transform="translate(-35.809 -157.058)"/>
    <path id="Trazado_169938" data-name="Trazado 169938" d="M186.126,29.988a26.622,26.622,0,1,0,18.852,7.8A26.479,26.479,0,0,0,186.126,29.988Zm16.78,43.435a23.765,23.765,0,1,1,6.939-16.782A23.567,23.567,0,0,1,202.906,73.423Zm0,0" transform="translate(-128.329 -24.13)"/>
  </g>
</svg>
