<svg xmlns="http://www.w3.org/2000/svg" width="100" height="100" viewBox="0 0 100 100">
  <g id="rol" transform="translate(-1 -1)">
    <path id="Trazado_170004" data-name="Trazado 170004" d="M6,27H25.355V46.355H6Z" transform="translate(3.065 15.935)" fill="#cf9e76"/>
    <path id="Trazado_170005" data-name="Trazado 170005" d="M38.984,31.555l-2.29,2.274.677,3.742-3.113,2.161v6.452l3.113,2.161-.677,3.742,2.29,2.29L37.726,55.62,11.532,71.8a48.39,48.39,0,0,1,0-57.677L37.726,30.3Z" transform="translate(0.613 8.041)" fill="#e6e9ed"/>
    <path id="Trazado_170006" data-name="Trazado 170006" d="M6,27H25.355V46.355H6Z" transform="translate(3.065 15.935)" fill="#f85316"/>
    <g id="Grupo_114898" data-name="Grupo 114898" transform="translate(22.161 2.613)">
      <path id="Trazado_170007" data-name="Trazado 170007" d="M55.62,37.726l-1.242,1.258-2.29-2.29-3.742.677-2.161-3.113H39.733l-2.161,3.113-3.742-.677-2.274,2.29L30.3,37.726,14.12,11.532a48.39,48.39,0,0,1,57.677,0Z" transform="translate(-14.12 -2)" fill="#e6e9ed"/>
      <path id="Trazado_170008" data-name="Trazado 170008" d="M55.62,40.322,54.378,39.08l-2.29,2.274-3.742-.677L46.185,43.79H39.733l-2.161-3.113-3.742.677L31.555,39.08,30.3,40.322,14.12,66.515a47.972,47.972,0,0,0,22.387,9.1h12.9a47.972,47.972,0,0,0,22.387-9.1Z" transform="translate(-14.12 20.726)" fill="#e6e9ed"/>
      <path id="Trazado_170009" data-name="Trazado 170009" d="M41.354,52.088l-.677-3.742,3.113-2.161V39.733l-3.113-2.161.677-3.742L39.08,31.555,40.322,30.3,66.515,14.12a48.39,48.39,0,0,1,0,57.677L40.322,55.62,39.08,54.378Z" transform="translate(1.178 5.428)" fill="#e6e9ed"/>
    </g>
    <path id="Trazado_170010" data-name="Trazado 170010" d="M49,36h9.677v6.452H49Z" transform="translate(29.419 21.452)" fill="#b27946"/>
    <path id="Trazado_170011" data-name="Trazado 170011" d="M40.9,58v6.016a48.007,48.007,0,0,1-12.9,0V58Z" transform="translate(16.548 34.935)" fill="#aab2bd"/>
    <path id="Trazado_170012" data-name="Trazado 170012" d="M49.806,54v3.226a3.235,3.235,0,0,1-3.226,3.226H27.226A3.235,3.235,0,0,1,24,57.226V54Z" transform="translate(14.097 32.484)" fill="#ccd1d9"/>
    <path id="Trazado_170013" data-name="Trazado 170013" d="M49.806,49.226V58.9H24V49.226A3.235,3.235,0,0,1,27.226,46H46.581A3.235,3.235,0,0,1,49.806,49.226Z" transform="translate(14.097 27.581)" fill="#69d6f4"/>
    <path id="Trazado_170014" data-name="Trazado 170014" d="M10,35h6.452v6.452H10Z" transform="translate(5.516 20.839)" fill="#dce736"/>
    <path id="Trazado_170015" data-name="Trazado 170015" d="M10,27h6.452v6.452H10Z" transform="translate(5.516 15.935)" fill="#dce736"/>
    <path id="Trazado_170016" data-name="Trazado 170016" d="M45.355,25.357H26A5.178,5.178,0,0,1,28.887,20.7l3.565-1.79V17.648a4.816,4.816,0,0,1-1.613-3.581V10.841A4.844,4.844,0,0,1,35.935,6a5.045,5.045,0,0,1,4.581,5.113v2.952A4.816,4.816,0,0,1,38.9,17.648v1.258l3.565,1.79A5.178,5.178,0,0,1,45.355,25.357Z" transform="translate(15.323 3.062)" fill="#75b62f"/>
    <path id="Trazado_170017" data-name="Trazado 170017" d="M56.29,43.968H51.452A10.547,10.547,0,0,1,45,34.29a11.29,11.29,0,0,1,22.581,0,10.547,10.547,0,0,1-6.452,9.677Z" transform="translate(26.968 13.484)" fill="#dce736"/>
    <circle id="Elipse_5963" data-name="Elipse 5963" cx="3.226" cy="3.226" r="3.226" transform="translate(80.032 44.548)" fill="#ffc729"/>
    <path id="Trazado_170018" data-name="Trazado 170018" d="M54.258,34.9v6.452l-3.113,2.161.677,3.742-2.274,2.29-2.29,2.274-3.742-.677-2.161,3.113H34.9l-2.161-3.113L29,51.823l-2.274-2.274-2.29-2.29.677-3.742L22,41.355V34.9l3.113-2.161L24.435,29l2.29-2.274L29,24.435l3.742.677L34.9,22h6.452l2.161,3.113,3.742-.677,2.29,2.29L51.823,29l-.677,3.742Zm-9.677,3.226a6.452,6.452,0,1,0-6.452,6.452A6.45,6.45,0,0,0,44.581,38.129Z" transform="translate(12.871 12.871)" fill="#dce736"/>
    <path id="Trazado_170019" data-name="Trazado 170019" d="M47.581,27.58V25.967A6.794,6.794,0,0,0,43.8,19.856l-2.44-1.219a6.426,6.426,0,0,0,1.379-3.96V11.726a6.594,6.594,0,0,0-6.106-6.716A6.392,6.392,0,0,0,31.85,6.771a6.478,6.478,0,0,0-2.011,4.681v3.226a6.435,6.435,0,0,0,1.377,3.96l-2.44,1.219A6.8,6.8,0,0,0,25,25.967V27.58ZM30.219,22.742l4.458-2.229V17.542l-.534-.481a3.179,3.179,0,0,1-1.079-2.384V11.451a3.227,3.227,0,0,1,3.4-3.221,3.418,3.418,0,0,1,3.052,3.5v2.952a3.179,3.179,0,0,1-1.079,2.384l-.534.481v2.971l4.458,2.229a3.6,3.6,0,0,1,1.618,1.613H28.6a3.588,3.588,0,0,1,1.616-1.613Z" transform="translate(14.71 2.452)"/>
    <path id="Trazado_170020" data-name="Trazado 170020" d="M91.15,21.2l-.884-1.187L68.613,33.387,81.987,11.734,80.8,10.85a50,50,0,0,0-59.6,0l-1.187.884L33.387,33.387,11.734,20.013,10.85,21.2a50,50,0,0,0,0,59.6l.884,1.187L33.387,68.613,20.013,90.266l1.187.884a50,50,0,0,0,59.6,0l1.187-.884L68.613,68.613,90.266,81.987,91.15,80.8a50,50,0,0,0,0-59.6ZM24.326,12.576a46.781,46.781,0,0,1,53.348,0L62.4,37.308l-1.731-1.731-3.544.635-2.058-2.955H46.931l-2.056,2.955-3.544-.635L39.6,37.308Zm38.624,47L59.579,62.95l-3.923-.7-2.273,3.271H48.618l-2.274-3.269-3.923.7L39.05,59.581l.7-3.923-3.271-2.274V48.618l3.269-2.276-.7-3.921,3.371-3.369,3.923.7,2.274-3.271h4.766l2.274,3.269,3.923-.7,3.371,3.369-.7,3.921,3.271,2.276v4.766l-3.269,2.274Zm-50.373,18.1a46.776,46.776,0,0,1,0-53.35L37.31,39.6l-1.731,1.732.635,3.544-2.956,2.056v8.137l2.955,2.056-.635,3.544L37.308,62.4ZM46.161,97.5v-2.95h9.677V97.5A47.688,47.688,0,0,1,51,97.774,47.688,47.688,0,0,1,46.161,97.5ZM62.29,84.871H39.71V76.806a1.613,1.613,0,0,1,1.613-1.613H60.677a1.613,1.613,0,0,1,1.613,1.613ZM39.71,88.1H62.29V89.71a1.613,1.613,0,0,1-1.613,1.613H41.323A1.613,1.613,0,0,1,39.71,89.71Zm37.965,1.326a46.216,46.216,0,0,1-18.61,7.635v-2.51h1.613a4.845,4.845,0,0,0,4.839-4.839v-12.9a4.845,4.845,0,0,0-4.839-4.839H41.323a4.845,4.845,0,0,0-4.839,4.839v12.9a4.845,4.845,0,0,0,4.839,4.839h1.613V97.06a46.261,46.261,0,0,1-18.61-7.635L39.6,64.694l1.731,1.731,3.544-.635,2.058,2.953h8.137l2.056-2.955,3.544.635L62.4,64.692ZM89.423,77.674,64.692,62.4l1.731-1.731-.635-3.544,2.955-2.058V46.931l-2.955-2.056.635-3.544L64.692,39.6,89.424,24.323a46.782,46.782,0,0,1,0,53.352Z"/>
    <path id="Trazado_170021" data-name="Trazado 170021" d="M35.065,27a8.065,8.065,0,1,0,8.065,8.065A8.074,8.074,0,0,0,35.065,27Zm0,12.9A4.839,4.839,0,1,1,39.9,35.065,4.845,4.845,0,0,1,35.065,39.9Z" transform="translate(15.935 15.935)"/>
    <path id="Trazado_170022" data-name="Trazado 170022" d="M56.9,22A12.918,12.918,0,0,0,44,34.9a11.955,11.955,0,0,0,6.452,10.658v7.084h12.9V45.561A11.957,11.957,0,0,0,69.806,34.9,12.918,12.918,0,0,0,56.9,22ZM53.677,49.419V46.194h6.452v3.226ZM55.29,34.9A1.613,1.613,0,1,1,56.9,36.516,1.615,1.615,0,0,1,55.29,34.9Zm6.056,8.065H58.516V39.445a4.839,4.839,0,1,0-3.226,0v3.523H52.46A8.871,8.871,0,0,1,47.226,34.9a9.677,9.677,0,1,1,19.355,0A8.871,8.871,0,0,1,61.347,42.968Z" transform="translate(26.355 12.871)"/>
    <path id="Trazado_170023" data-name="Trazado 170023" d="M5,48.581H27.581V26H5Zm12.9-3.226H14.677V42.129H17.9ZM14.677,29.226H17.9v3.226H14.677Zm-6.452,0h3.226v6.452h9.677V29.226h3.226V45.355H21.129V38.9H11.452v6.452H8.226Z" transform="translate(2.452 15.323)"/>
  </g>
</svg>
