<svg xmlns="http://www.w3.org/2000/svg" width="100" height="100" viewBox="0 0 100 100">
  <g id="descripcion-del-trabajo" transform="translate(-1 -1)">
    <g id="Grupo_114896" data-name="Grupo 114896" transform="translate(2.613 2.613)">
      <g id="Grupo_114884" data-name="Grupo 114884" transform="translate(32.258 12.903)">
        <path id="Trazado_169961" data-name="Trazado 169961" d="M86.516,11.613V92.258A1.618,1.618,0,0,1,84.9,93.871H23.613A1.618,1.618,0,0,1,22,92.258V11.613A1.618,1.618,0,0,1,23.613,10H84.9A1.618,1.618,0,0,1,86.516,11.613Z" transform="translate(-22 -10)" fill="#e6e9ed"/>
      </g>
      <g id="Grupo_114885" data-name="Grupo 114885" transform="translate(41.935 80.645)">
        <path id="Trazado_169962" data-name="Trazado 169962" d="M28,52h9.677v9.677H28Z" transform="translate(-28 -52)" fill="#75b62f"/>
      </g>
      <g id="Grupo_114886" data-name="Grupo 114886" transform="translate(41.935 64.516)">
        <path id="Trazado_169963" data-name="Trazado 169963" d="M28,42h9.677v9.677H28Z" transform="translate(-28 -42)" fill="#75b62f"/>
      </g>
      <g id="Grupo_114887" data-name="Grupo 114887" transform="translate(41.935 48.387)">
        <path id="Trazado_169964" data-name="Trazado 169964" d="M28,32h9.677v9.677H28Z" transform="translate(-28 -32)" fill="#75b62f"/>
      </g>
      <g id="Grupo_114888" data-name="Grupo 114888" transform="translate(41.935 22.581)">
        <path id="Trazado_169965" data-name="Trazado 169965" d="M28,16H73.161V28.9H28Z" transform="translate(-28 -16)" fill="#3d46c2"/>
      </g>
      <g id="Grupo_114889" data-name="Grupo 114889" transform="translate(0 22.581)">
        <path id="Trazado_169966" data-name="Trazado 169966" d="M34.258,70.839v9.677H27.806l-.323-.952a7.4,7.4,0,0,0-4.306-4.484c-.016-.016-.048-.016-.065-.032a7.514,7.514,0,0,0-6.21.129l-.887.452L6.887,66.5l.452-.887a7.514,7.514,0,0,0,.129-6.21c-.016-.016-.016-.048-.032-.065a7.4,7.4,0,0,0-4.484-4.306L2,54.71v-12.9l.952-.323a7.4,7.4,0,0,0,4.484-4.306c.016-.016.016-.048.032-.065a7.514,7.514,0,0,0-.129-6.21l-.452-.887,9.129-9.129.887.452a7.514,7.514,0,0,0,6.21.129c.016-.016.048-.016.065-.032a7.4,7.4,0,0,0,4.306-4.484L27.806,16h6.452v9.677a22.581,22.581,0,0,0,0,45.161Z" transform="translate(-2 -16)" fill="#dce736"/>
      </g>
      <g id="Grupo_114890" data-name="Grupo 114890" transform="translate(9.677 32.258)">
        <path id="Trazado_169967" data-name="Trazado 169967" d="M30.581,60.71v6.452a22.581,22.581,0,1,1,0-45.161v6.452a16.129,16.129,0,1,0,0,32.258Z" transform="translate(-8 -22)" fill="#dce736"/>
      </g>
      <g id="Grupo_114891" data-name="Grupo 114891" transform="translate(48.387)">
        <path id="Trazado_169968" data-name="Trazado 169968" d="M32,2H67.484V8.452H32Z" transform="translate(-32 -2)" fill="#75b62f"/>
      </g>
      <g id="Grupo_114892" data-name="Grupo 114892" transform="translate(48.387 6.452)">
        <path id="Trazado_169969" data-name="Trazado 169969" d="M32,6H67.484v6.452H32Z" transform="translate(-32 -6)" fill="#75b62f"/>
      </g>
      <g id="Grupo_114893" data-name="Grupo 114893" transform="translate(83.871)">
        <path id="Trazado_169970" data-name="Trazado 169970" d="M65.387,6.274a2.322,2.322,0,0,1,0,4.355L54,14.9V2Z" transform="translate(-54 -2)" fill="#aab2bd"/>
      </g>
      <g id="Grupo_114894" data-name="Grupo 114894" transform="translate(32.258)">
        <path id="Trazado_169971" data-name="Trazado 169971" d="M31.677,2V14.9H26.839A4.832,4.832,0,0,1,22,10.065V6.839A4.832,4.832,0,0,1,26.839,2Z" transform="translate(-22 -2)" fill="#f85316"/>
      </g>
      <g id="Grupo_114895" data-name="Grupo 114895" transform="translate(41.935)">
        <path id="Trazado_169972" data-name="Trazado 169972" d="M34.452,8.452V14.9H28V2h6.452Z" transform="translate(-28 -2)" fill="#dce736"/>
      </g>
    </g>
    <g id="Grupo_114897" data-name="Grupo 114897" transform="translate(1 1)">
      <path id="Trazado_169973" data-name="Trazado 169973" d="M97.774,13.9h-2.4l3.063-1.148a3.941,3.941,0,0,0,0-7.381L86.777,1H39.71a6.458,6.458,0,0,0-6.452,6.452v3.226a6.387,6.387,0,0,0,1.318,3.865,3.214,3.214,0,0,0-1.318,2.587v6.452h-6l-.684,2.053a5.915,5.915,0,0,1-3.463,3.535,5.875,5.875,0,0,1-4.871-.085L16.3,28.116,5.535,38.884,6.5,40.818a5.926,5.926,0,0,1,.058,4.937,5.863,5.863,0,0,1-3.51,3.4L1,49.837V65.065l2.052.684a5.9,5.9,0,0,1,3.535,3.465A5.878,5.878,0,0,1,6.5,74.082l-.968,1.934L16.3,86.785l1.934-.968a5.929,5.929,0,0,1,4.935-.056,5.853,5.853,0,0,1,3.4,3.506l.687,2.055h6v6.452A3.229,3.229,0,0,0,36.484,101h61.29A3.229,3.229,0,0,0,101,97.774V17.129A3.229,3.229,0,0,0,97.774,13.9ZM88.1,13.189V4.94l3.226,1.21v5.827ZM84.871,7.452H52.613V4.226H84.871ZM49.387,13.9H46.161V4.226h3.226Zm3.226-3.226H84.871V13.9H52.613ZM97.774,9.065a.717.717,0,0,1-.465.669l-2.761,1.035V7.36L97.311,8.4A.718.718,0,0,1,97.774,9.065ZM36.484,7.452A3.229,3.229,0,0,1,39.71,4.226h3.226V13.9H39.71a3.229,3.229,0,0,1-3.226-3.226ZM29.581,88.1a9.135,9.135,0,0,0-5.239-5.344,9.117,9.117,0,0,0-7.4.11L9.46,75.379a9.159,9.159,0,0,0,.085-7.458,9.1,9.1,0,0,0-5.319-5.179V52.161a9.14,9.14,0,0,0,5.344-5.239,9.1,9.1,0,0,0-.108-7.4l7.484-7.482a9.148,9.148,0,0,0,7.456.085,9.1,9.1,0,0,0,5.181-5.319h3.676v6.534a24.162,24.162,0,0,0,0,48.221V88.1ZM17.129,57.452a17.759,17.759,0,0,0,16.129,17.66v3.226a20.946,20.946,0,0,1,0-41.771v3.226A17.759,17.759,0,0,0,17.129,57.452ZM33.258,43.031V71.873a14.51,14.51,0,0,1,0-28.842Zm3.226,54.744V17.129h61.29l0,80.645Z" transform="translate(-1 -1)"/>
      <path id="Trazado_169974" data-name="Trazado 169974" d="M75.387,15H27V31.129H75.387ZM72.161,27.9H30.226V18.226H72.161Z" transform="translate(14.935 7.581)"/>
      <path id="Trazado_169975" data-name="Trazado 169975" d="M31,19h3.226v3.226H31Z" transform="translate(17.387 10.032)"/>
      <path id="Trazado_169976" data-name="Trazado 169976" d="M35,19h3.226v3.226H35Z" transform="translate(19.839 10.032)"/>
      <path id="Trazado_169977" data-name="Trazado 169977" d="M39,19h3.226v3.226H39Z" transform="translate(22.29 10.032)"/>
      <path id="Trazado_169978" data-name="Trazado 169978" d="M43,19h3.226v3.226H43Z" transform="translate(24.742 10.032)"/>
      <path id="Trazado_169979" data-name="Trazado 169979" d="M47,19h3.226v3.226H47Z" transform="translate(27.194 10.032)"/>
      <path id="Trazado_169980" data-name="Trazado 169980" d="M51,19h3.226v3.226H51Z" transform="translate(29.645 10.032)"/>
      <path id="Trazado_169981" data-name="Trazado 169981" d="M27,27H43.129v3.226H27Z" transform="translate(14.935 14.935)"/>
      <path id="Trazado_169982" data-name="Trazado 169982" d="M39,27h6.452v3.226H39Z" transform="translate(22.29 14.935)"/>
      <path id="Trazado_169983" data-name="Trazado 169983" d="M45,27H64.355v3.226H45Z" transform="translate(25.968 14.935)"/>
      <path id="Trazado_169984" data-name="Trazado 169984" d="M27,43.9H39.9V31H27Zm5.506-3.226,4.171-4.171v4.171Zm1.89-6.452L30.226,38.4V34.226Z" transform="translate(14.935 17.387)"/>
      <path id="Trazado_169985" data-name="Trazado 169985" d="M37,33H62.806v3.226H37Z" transform="translate(21.065 18.613)"/>
      <path id="Trazado_169986" data-name="Trazado 169986" d="M27,53.9H39.9V41H27Zm5.506-3.226,4.171-4.171v4.171Zm1.89-6.452L30.226,48.4V44.226Z" transform="translate(14.935 23.516)"/>
      <path id="Trazado_169987" data-name="Trazado 169987" d="M37,43H56.355v3.226H37Z" transform="translate(21.065 24.742)"/>
      <path id="Trazado_169988" data-name="Trazado 169988" d="M27,63.9H39.9V51H27Zm5.506-3.226,4.171-4.171v4.171Zm1.89-6.452L30.226,58.4V54.226Z" transform="translate(14.935 29.645)"/>
      <path id="Trazado_169989" data-name="Trazado 169989" d="M37,53h9.677v3.226H37Z" transform="translate(21.065 30.871)"/>
      <path id="Trazado_169990" data-name="Trazado 169990" d="M64.355,58.544c0,.135-.242.161-.265.021l-1.11-6.66a3.478,3.478,0,0,0-6.882.142l-1.2,9.637a.261.261,0,0,1-.5.011l-.987-5.932a4.233,4.233,0,0,0-8.408.7V61.9h3.226V56.458a1.007,1.007,0,0,1,2-.166l.987,5.931a3.478,3.478,0,0,0,6.882-.14l1.2-9.637a.261.261,0,0,1,.5-.01l1.11,6.66a3.359,3.359,0,0,0,6.673-.552V52.226H64.355Z" transform="translate(25.968 28.419)"/>
    </g>
  </g>
</svg>
