<svg xmlns="http://www.w3.org/2000/svg" width="1237.008" height="240.221" viewBox="0 0 1237.008 240.221">
  <g id="Grupo_115955" data-name="Grupo 115955" transform="translate(-182.992 -4344.1)">
    <path id="Rectángulo_40599" data-name="Rectángulo 40599" d="M319.524,4H536.957c4.077,0,7.384,3.019,7.384,6.752v67.3c0,3.725-3.307,6.752-7.384,6.752H319.524c-4.077,0-7.384-3.019-7.384-6.752v-67.3c0-3.725,3.307-6.752,7.384-6.752Z" transform="translate(182.86 4400.019)" fill="#bae887" stroke="#77b43a" stroke-width="2"/>
    <text id="Aspectos_intrínsecos" data-name="Aspectos intrínsecos" transform="translate(528.948 4448.533)" fill="#13263c" font-size="16" font-family="Roboto-Regular, Roboto"><tspan x="0" y="0">Aspectos intrínsecos</tspan></text>
    <path id="Rectángulo_40598" data-name="Rectángulo 40598" d="M9.861,4H224.34c4.895,0,8.861,3.622,8.861,8.1V76.707c0,4.477-3.966,8.1-8.861,8.1H9.861C4.966,84.806,1,81.184,1,76.707V12.1C1,7.622,4.966,4,9.861,4Z" transform="translate(182.992 4400.019)" fill="#d1d5fc" stroke="#3e4bbf" stroke-width="2"/>
    <text id="Diarias_Semanales_Mensuales_Anuales_Esporádicas" data-name="Diarias
Semanales
Mensuales
Anuales 
Esporádicas" transform="translate(1210.47 4500.321)" fill="#13263c" font-size="16" font-family="Roboto-Regular, Roboto"><tspan x="0" y="0">Diarias</tspan><tspan x="0" y="20">Semanales</tspan><tspan x="0" y="40">Mensuales</tspan><tspan x="0" y="60">Anuales </tspan><tspan x="0" y="80">Esporádicas</tspan></text>
    <text id="Nivel_del_puesto_Subordinación_Supervisión_Comunicaciones_colaterales" data-name="Nivel del puesto
Subordinación
Supervisión
Comunicaciones colaterales" transform="translate(1219 4388.604)" fill="#13263c" font-size="16" font-family="Roboto-Regular, Roboto"><tspan x="0" y="0">Nivel del puesto</tspan><tspan x="0" y="20">Subordinación</tspan><tspan x="0" y="40">Supervisión</tspan><tspan x="0" y="60">Comunicaciones colate</tspan><tspan y="60" letter-spacing="-0.02em">r</tspan><tspan y="60">ales</tspan></text>
    <text id="Tareas_o_atribuciones" data-name="Tareas o atribuciones" transform="translate(1020 4500.321)" fill="#13263c" font-size="16" font-family="Roboto-Regular, Roboto"><tspan x="0" y="0" letter-spacing="-0.06em">T</tspan><tspan y="0">areas o atribuciones</tspan></text>
    <path id="Trazado_164135" data-name="Trazado 164135" d="M864.61,167.024c1.077,0,1.895.669,2.433,2.016a9.166,9.166,0,0,1,.7,3.557v7.338a7.068,7.068,0,0,0,1.059,3.836,3.233,3.233,0,0,0,2.87,1.69h2.582v-2.786h-1.7q-1.811,0-1.811-4.635l.037-3.734q0-7.384-3.4-8.629a4.5,4.5,0,0,0,2.415-2.359,7.918,7.918,0,0,0,.947-3.65l.037-2.443v-4.848c0-2.341.594-3.52,1.774-3.52h1.7V146.07h-2.582q-2.7,0-3.585,3.214a11.183,11.183,0,0,0-.344,2.294c-.056.873-.074,1.978-.074,3.325l.037,1.848c0,1.115-.028,2.09-.074,2.916a12.4,12.4,0,0,1-.232,1.885q-.7,2.87-2.777,2.87V167Z" transform="translate(135.39 4330.904)" fill="#3d46c2"/>
    <path id="Trazado_170066" data-name="Trazado 170066" d="M864.61,250.174c5.353,0,9.414,3.322,12.09,10.014a45.538,45.538,0,0,1,3.461,17.674v36.455a35.111,35.111,0,0,0,5.26,19.058c3.507,5.63,8.26,8.4,14.259,8.4h12.828V327.928h-8.445q-9,0-9-23.027l.184-18.55q0-36.685-16.889-42.869c4.845-1.707,8.86-5.63,12-11.721a39.339,39.339,0,0,0,4.707-18.135l.184-12.136V177.4c0-11.629,2.954-17.489,8.814-17.489h8.445V146.07H899.68q-13.428,0-17.812,15.966a55.545,55.545,0,0,0-1.707,11.4c-.277,4.338-.37,9.829-.37,16.52l.185,9.183c0,5.537-.139,10.383-.369,14.49a61.631,61.631,0,0,1-1.154,9.367q-3.461,14.259-13.8,14.259v12.782Z" transform="translate(-122.509 4198.03)" fill="#3d46c2"/>
    <text id="_" data-name="=" transform="translate(449.419 4453.951)" fill="#13263c" font-size="36" font-family="Roboto-Bold, Roboto" font-weight="700"><tspan x="0" y="0">=</tspan></text>
    <circle id="Elipse_5623" data-name="Elipse 5623" cx="15.91" cy="15.91" r="15.91" transform="translate(788.377 4368.369)" fill="#dce736" stroke="#dbe636" stroke-miterlimit="10" stroke-width="1"/>
    <text id="_1" data-name="1" transform="translate(798.417 4390.54)" fill="#13263c" font-size="19" font-family="Roboto-Bold, Roboto" font-weight="700"><tspan x="0" y="0">1</tspan></text>
    <circle id="Elipse_5624" data-name="Elipse 5624" cx="15.91" cy="15.91" r="15.91" transform="translate(788.377 4425.481)" fill="#dce736" stroke="#dbe636" stroke-miterlimit="10" stroke-width="1"/>
    <text id="_2" data-name="2" transform="translate(798.12 4448.088)" fill="#13263c" font-size="19" font-family="Roboto-Bold, Roboto" font-weight="700"><tspan x="0" y="0">2</tspan></text>
    <text id="Título_del_puesto" data-name="Título del puesto" transform="translate(831.808 4388.382)" fill="#13263c" font-size="16" font-family="Roboto-Regular, Roboto"><tspan x="0" y="0">Título del puesto</tspan></text>
    <text id="Ubicación_del_puesto_en_el_organigrama" data-name="Ubicación del puesto en el organigrama" transform="translate(831.028 4444.305)" fill="#13263c" font-size="16" font-family="Roboto-Regular, Roboto"><tspan x="0" y="0">Ubicación del puesto en el organig</tspan><tspan y="0" letter-spacing="-0.02em">r</tspan><tspan y="0">ama</tspan></text>
    <text id="Contenido_del_puesto" data-name="Contenido del puesto" transform="translate(831.204 4500.321)" fill="#13263c" font-size="16" font-family="Roboto-Regular, Roboto"><tspan x="0" y="0">Contenido del puesto</tspan></text>
    <circle id="Elipse_5625" data-name="Elipse 5625" cx="15.91" cy="15.91" r="15.91" transform="translate(788.377 4481.451)" fill="#dce736" stroke="#dbe636" stroke-miterlimit="10" stroke-width="1"/>
    <text id="_3" data-name="3" transform="translate(798.287 4504.058)" fill="#13263c" font-size="19" font-family="Roboto-Bold, Roboto" font-weight="700"><tspan x="0" y="0">3</tspan></text>
    <text id="Descripción_y_especificación_de_puestos" data-name="Descripción y
especificación de puestos" transform="translate(300.093 4439.28)" fill="#13263c" font-size="16" font-family="Roboto-Regular, Roboto"><tspan x="-47.805" y="0">Descripción y</tspan><tspan x="-92.488" y="21">especificación de puestos</tspan></text>
    <path id="comprobado" d="M0,69.769l4.482,4.49,8.606-8.6-1.236-1.218L4.482,71.8,1.218,68.542Z" transform="translate(1195 4425.832)" fill="#f85316"/>
    <path id="comprobado-2" data-name="comprobado" d="M0,69.769l4.482,4.49,8.606-8.6-1.236-1.218L4.482,71.8,1.218,68.542Z" transform="translate(1195 4447.009)" fill="#f85316"/>
    <path id="comprobado-3" data-name="comprobado" d="M0,69.769l4.482,4.49,8.606-8.6-1.236-1.218L4.482,71.8,1.218,68.542Z" transform="translate(1195 4467.185)" fill="#f85316"/>
    <path id="comprobado-4" data-name="comprobado" d="M0,69.769l4.482,4.49,8.606-8.6-1.236-1.218L4.482,71.8,1.218,68.542Z" transform="translate(1195 4487.36)" fill="#f85316"/>
    <rect id="Rectángulo_4910" data-name="Rectángulo 4910" width="16" height="16" transform="translate(1195 4374)" fill="#3d46c2"/>
    <rect id="Rectángulo_42560" data-name="Rectángulo 42560" width="16" height="16" transform="translate(1195 4395)" fill="#3d46c2"/>
    <rect id="Rectángulo_42561" data-name="Rectángulo 42561" width="16" height="16" transform="translate(1195 4416)" fill="#3d46c2"/>
    <rect id="Rectángulo_42562" data-name="Rectángulo 42562" width="16" height="16" transform="translate(1195 4437)" fill="#3d46c2"/>
    <text id="a" transform="translate(1195 4373)" fill="#fff" font-size="14" font-family="Roboto-Bold, Roboto" font-weight="700"><tspan x="3.747" y="15">a</tspan></text>
    <text id="b" transform="translate(1195 4395)" fill="#fff" font-size="14" font-family="Roboto-Bold, Roboto" font-weight="700"><tspan x="3.559" y="15">b</tspan></text>
    <text id="c" transform="translate(1195 4415)" fill="#fff" font-size="14" font-family="Roboto-Bold, Roboto" font-weight="700"><tspan x="3.85" y="15">c</tspan></text>
    <text id="d" transform="translate(1195 4437)" fill="#fff" font-size="14" font-family="Roboto-Bold, Roboto" font-weight="700"><tspan x="3.556" y="15">d</tspan></text>
  </g>
</svg>
