<svg xmlns="http://www.w3.org/2000/svg" width="1243" height="1222.52" viewBox="0 0 1243 1222.52">
  <g id="Grupo_115954" data-name="Grupo 115954" transform="translate(-179 -9690.54)">
    <line id="Línea_481" data-name="Línea 481" y2="36.299" transform="translate(463.675 10789.204)" fill="none" stroke="#3e4bbf" stroke-miterlimit="10" stroke-width="2"/>
    <line id="Línea_482" data-name="Línea 482" y2="721.634" transform="translate(244.5 10104.866)" fill="none" stroke="#3e4bbf" stroke-miterlimit="10" stroke-width="2"/>
    <line id="Línea_483" data-name="Línea 483" y2="531.187" transform="translate(280.125 10295.313)" fill="none" stroke="#3e4bbf" stroke-miterlimit="10" stroke-width="2"/>
    <line id="Línea_484" data-name="Línea 484" y2="441.438" transform="translate(316.835 10385.062)" fill="none" stroke="#3e4bbf" stroke-miterlimit="10" stroke-width="2"/>
    <line id="Línea_485" data-name="Línea 485" y2="344.646" transform="translate(353.545 10481.854)" fill="none" stroke="#3e4bbf" stroke-miterlimit="10" stroke-width="2"/>
    <line id="Línea_486" data-name="Línea 486" y2="249.883" transform="translate(390.255 10575.617)" fill="none" stroke="#3e4bbf" stroke-miterlimit="10" stroke-width="2"/>
    <line id="Línea_487" data-name="Línea 487" y2="157.47" transform="translate(426.965 10669.03)" fill="none" stroke="#3e4bbf" stroke-miterlimit="10" stroke-width="2"/>
    <g id="Grupo_113552" data-name="Grupo 113552" transform="translate(495.634 10263.966)">
      <line id="Línea_488" data-name="Línea 488" x2="157.666" transform="translate(7.277 8.486)" fill="none" stroke="#3e4bbf" stroke-miterlimit="10" stroke-width="2"/>
      <path id="Trazado_158597" data-name="Trazado 158597" d="M474.006,738.788v16.964l-8.486-8.486,8.486-8.486Z" transform="translate(-465.52 -738.78)" fill="#3e4bbf"/>
    </g>
    <g id="Grupo_113553" data-name="Grupo 113553" transform="translate(532.6 10359.774)">
      <line id="Línea_489" data-name="Línea 489" x2="157.666" transform="translate(7.277 8.486)" fill="none" stroke="#3e4bbf" stroke-miterlimit="10" stroke-width="2"/>
      <path id="Trazado_158597-2" data-name="Trazado 158597" d="M521.706,862.418v16.964L513.22,870.9l8.486-8.486Z" transform="translate(-513.22 -862.41)" fill="#3e4bbf"/>
    </g>
    <g id="Grupo_113554" data-name="Grupo 113554" transform="translate(570.224 10457.9)">
      <line id="Línea_490" data-name="Línea 490" x2="157.666" transform="translate(7.277 8.494)" fill="none" stroke="#3e4bbf" stroke-miterlimit="10" stroke-width="2"/>
      <path id="Trazado_158597-3" data-name="Trazado 158597" d="M570.256,989.038V1006l-8.486-8.486,8.486-8.486Z" transform="translate(-561.77 -989.03)" fill="#3e4bbf"/>
    </g>
    <g id="Grupo_113555" data-name="Grupo 113555" transform="translate(607.042 10556.033)">
      <line id="Línea_491" data-name="Línea 491" x2="157.658" transform="translate(7.277 8.493)" fill="none" stroke="#3e4bbf" stroke-miterlimit="10" stroke-width="2"/>
      <path id="Trazado_158597-4" data-name="Trazado 158597" d="M617.766,1115.668v16.964l-8.486-8.486,8.486-8.486Z" transform="translate(-609.28 -1115.66)" fill="#3e4bbf"/>
    </g>
    <g id="Grupo_113556" data-name="Grupo 113556" transform="translate(643.915 10654.167)">
      <line id="Línea_492" data-name="Línea 492" x2="157.666" transform="translate(7.277 8.486)" fill="none" stroke="#3e4bbf" stroke-miterlimit="10" stroke-width="2"/>
      <path id="Trazado_158597-5" data-name="Trazado 158597" d="M665.346,1242.3v16.964l-8.486-8.486,8.486-8.486Z" transform="translate(-656.86 -1242.29)" fill="#3e4bbf"/>
    </g>
    <g id="Grupo_113557" data-name="Grupo 113557" transform="translate(681.384 10752.3)">
      <line id="Línea_493" data-name="Línea 493" x2="157.658" transform="translate(7.285 8.486)" fill="none" stroke="#3e4bbf" stroke-miterlimit="10" stroke-width="2"/>
      <path id="Trazado_158597-6" data-name="Trazado 158597" d="M713.7,1368.928v16.964l-8.486-8.486,8.486-8.486Z" transform="translate(-705.21 -1368.92)" fill="#3e4bbf"/>
    </g>
    <line id="Línea_494" data-name="Línea 494" x2="352.46" y2="1034.465" transform="translate(595.751 9804.662)" fill="none" stroke="#3e4bbf" stroke-miterlimit="10" stroke-width="2"/>
    <path id="Rectángulo_40598" data-name="Rectángulo 40598" d="M64.508,163.441V18.895c0-3.3,3.65-5.975,8.16-5.975h65.058c4.5,0,8.16,2.674,8.16,5.975V163.441c0,3.3-3.65,5.975-8.16,5.975H72.66c-4.5,0-8.16-2.674-8.16-5.975Z" transform="translate(120.359 9688.533)" fill="#d1d5fc" stroke="#3e4bbf" stroke-width="2"/>
    <path id="Rectángulo_40598-2" data-name="Rectángulo 40598" d="M246.96,163.441V18.895c0-3.3,3.65-5.975,8.16-5.975h65.058c4.5,0,8.16,2.674,8.16,5.975V163.441c0,3.3-3.65,5.975-8.16,5.975H255.12c-4.5,0-8.16-2.674-8.16-5.975Z" transform="translate(79.298 9688.533)" fill="#d1d5fc" stroke="#3e4bbf" stroke-width="2"/>
    <path id="Rectángulo_40621" data-name="Rectángulo 40621" d="M65.623,453.48h217.7c4.084,0,7.393,2.317,7.393,5.177v51.636c0,2.86-3.309,5.177-7.393,5.177H65.623c-4.084,0-7.393-2.317-7.393-5.177V458.657c0-2.86,3.309-5.177,7.393-5.177Z" transform="translate(121.77 9589.389)" fill="#d1d5fc" stroke="#3e4bbf" stroke-width="2"/>
    <path id="Rectángulo_40621-2" data-name="Rectángulo 40621" d="M170.7,706.73H388.4c4.084,0,7.393,2.317,7.393,5.177v51.636c0,2.86-3.309,5.177-7.393,5.177H170.7c-4.084,0-7.393-2.317-7.393-5.177V711.907C163.31,709.047,166.619,706.73,170.7,706.73Z" transform="translate(98.123 9532.398)" fill="#d1d5fc" stroke="#3e4bbf" stroke-width="2"/>
    <path id="Rectángulo_40621-3" data-name="Rectángulo 40621" d="M218.723,833.36h217.7c4.084,0,7.393,2.317,7.393,5.177v51.636c0,2.86-3.309,5.177-7.393,5.177h-217.7c-4.084,0-7.393-2.317-7.393-5.177V838.537C211.33,835.677,214.639,833.36,218.723,833.36Z" transform="translate(87.317 9503.901)" fill="#d1d5fc" stroke="#3e4bbf" stroke-width="2"/>
    <text id="Resultados_desfavorables" data-name="Resultados desfavorables" transform="translate(330.164 10372.828)" fill="#13263c" font-size="14" font-family="Roboto-Regular, Roboto"><tspan x="0" y="0">Resultados desfavo</tspan><tspan y="0" letter-spacing="-0.02em">r</tspan><tspan y="0">ables</tspan></text>
    <g id="Grupo_113562" data-name="Grupo 113562" transform="translate(335.868 10435.396)">
      <path id="Rectángulo_40621-4" data-name="Rectángulo 40621" d="M266.753,959.99h217.7c4.084,0,7.393,2.317,7.393,5.177V1016.8c0,2.86-3.309,5.177-7.393,5.177h-217.7c-4.084,0-7.393-2.317-7.393-5.177V965.167c0-2.86,3.309-5.177,7.393-5.177Z" transform="translate(-259.36 -959.99)" fill="#d1d5fc" stroke="#3e4bbf" stroke-width="2"/>
      <text id="Resultados_desfavorables-2" data-name="Resultados desfavorables" transform="translate(31.518 35.567)" fill="#13263c" font-size="14" font-family="Roboto-Regular, Roboto"><tspan x="0" y="0">Resultados desfavo</tspan><tspan y="0" letter-spacing="-0.02em">r</tspan><tspan y="0">ables</tspan></text>
    </g>
    <g id="Grupo_113563" data-name="Grupo 113563" transform="translate(373.089 10533.528)">
      <path id="Rectángulo_40621-5" data-name="Rectángulo 40621" d="M314.783,1086.62h217.7c4.084,0,7.393,2.317,7.393,5.177v51.636c0,2.859-3.309,5.177-7.393,5.177h-217.7c-4.084,0-7.393-2.317-7.393-5.177V1091.8C307.39,1088.937,310.7,1086.62,314.783,1086.62Z" transform="translate(-307.39 -1086.62)" fill="#d1d5fc" stroke="#3e4bbf" stroke-width="2"/>
      <text id="Decisión_negativa" data-name="Decisión negativa" transform="translate(58.2 34.025)" fill="#13263c" font-size="14" font-family="Roboto-Regular, Roboto"><tspan x="0" y="0">Decisión negativa</tspan></text>
    </g>
    <g id="Grupo_113564" data-name="Grupo 113564" transform="translate(410.311 10631.654)">
      <path id="Rectángulo_40621-6" data-name="Rectángulo 40621" d="M362.813,1213.24h217.7c4.084,0,7.393,2.317,7.393,5.177v51.636c0,2.86-3.309,5.177-7.393,5.177h-217.7c-4.084,0-7.393-2.317-7.393-5.177v-51.636C355.42,1215.557,358.729,1213.24,362.813,1213.24Z" transform="translate(-355.42 -1213.24)" fill="#d1d5fc" stroke="#3e4bbf" stroke-width="2"/>
      <text id="Información_desacreditora" data-name="Información desacreditora" transform="translate(29.58 35.575)" fill="#13263c" font-size="14" font-family="Roboto-Regular, Roboto"><tspan x="0" y="0">Información desacredito</tspan><tspan y="0" letter-spacing="-0.02em">r</tspan><tspan y="0">a</tspan></text>
    </g>
    <g id="Grupo_113565" data-name="Grupo 113565" transform="translate(447.532 10729.787)">
      <path id="Rectángulo_40621-7" data-name="Rectángulo 40621" d="M410.843,1339.87h217.7c4.084,0,7.393,2.317,7.393,5.177v51.636c0,2.859-3.309,5.177-7.393,5.177h-217.7c-4.084,0-7.393-2.317-7.393-5.177v-51.636C403.45,1342.187,406.759,1339.87,410.843,1339.87Z" transform="translate(-403.45 -1339.87)" fill="#d1d5fc" stroke="#3e4bbf" stroke-width="2"/>
      <text id="No_apto" data-name="No apto" transform="translate(90.035 33.792)" fill="#13263c" font-size="14" font-family="Roboto-Regular, Roboto"><tspan x="0" y="0">No apto</tspan></text>
    </g>
    <path id="Rectángulo_40621-8" data-name="Rectángulo 40621" d="M105.267,1466.5H332.723c4.268,0,7.727,2.317,7.727,5.177v51.636c0,2.86-3.459,5.177-7.727,5.177H105.267c-4.268,0-7.727-2.317-7.727-5.177v-51.636C97.54,1468.817,101,1466.5,105.267,1466.5Z" transform="translate(134.55 9372.627)" fill="#3d46c2"/>
    <text id="Presupuestos" transform="translate(240.244 9922.367)" fill="#14263e" font-size="18" font-family="Roboto-Bold, Roboto" font-weight="700"><tspan x="0" y="0">Presupuestos</tspan></text>
    <g id="Grupo_113567" data-name="Grupo 113567" transform="translate(611.56 10146.815)">
      <path id="Rectángulo_40621-9" data-name="Rectángulo 40621" d="M621.945,587.61H823.218c3.774,0,6.835,1.883,6.835,4.208v41.956c0,2.325-3.061,4.208-6.835,4.208H621.945c-3.774,0-6.835-1.883-6.835-4.208V591.818c0-2.325,3.061-4.208,6.835-4.208Z" transform="translate(-615.11 -587.61)" fill="#f9f69d" stroke="#dbe636" stroke-miterlimit="10" stroke-width="2"/>
      <g id="Grupo" transform="translate(33.695 6.502)">
        <text id="Llenado_del_formulario" data-name="Llenado del formulario" transform="translate(0.194 13)" fill="#13263c" font-size="14" font-family="Roboto-Regular, Roboto"><tspan x="0" y="0">Llenado del formulario</tspan></text>
        <text id="de_solicitud_de_empleo" data-name="de solicitud de empleo" transform="translate(0 30.669)" fill="#13263c" font-size="14" font-family="Roboto-Regular, Roboto"><tspan x="0" y="0">de solicitud de empleo</tspan></text>
      </g>
    </g>
    <g id="Grupo_113568" data-name="Grupo 113568" transform="translate(673.906 10343.074)">
      <path id="Rectángulo_40621-10" data-name="Rectángulo 40621" d="M702.4,840.86H903.668c3.774,0,6.835,1.883,6.835,4.208v41.956c0,2.325-3.061,4.208-6.835,4.208H702.4c-3.774,0-6.835-1.883-6.835-4.208V845.068C695.56,842.743,698.621,840.86,702.4,840.86Z" transform="translate(-695.56 -840.86)" fill="#f9f69d" stroke="#dbe636" stroke-miterlimit="10" stroke-width="2"/>
      <g id="Grupo-2" data-name="Grupo" transform="translate(51.984 7.85)">
        <text id="Aplicación_de_los" data-name="Aplicación de los" transform="translate(0 13)" fill="#13263c" font-size="14" font-family="Roboto-Regular, Roboto"><tspan x="0" y="0">Aplicación de los</tspan></text>
        <text id="exámenes" transform="translate(22.079 30.669)" fill="#13263c" font-size="14" font-family="Roboto-Regular, Roboto"><tspan x="0" y="0">exámenes</tspan></text>
      </g>
    </g>
    <path id="Rectángulo_40621-11" data-name="Rectángulo 40621" d="M911.615,1474h201.273c3.774,0,6.835,1.883,6.835,4.208v41.956c0,2.325-3.061,4.208-6.835,4.208H911.615c-3.774,0-6.835-1.883-6.835-4.208v-41.956C904.78,1475.883,907.841,1474,911.615,1474Z" transform="translate(-68.737 9359.733)" fill="#3d46c2"/>
    <text id="Aceptación" transform="translate(899.846 10862.435)" fill="#fff" font-size="18" font-family="Roboto-Bold, Roboto" font-weight="700"><tspan x="0" y="0">Aceptación</tspan></text>
    <path id="Trazado_165295" data-name="Trazado 165295" d="M189.731,257.166q0-5.219,8.339-7.827a47.688,47.688,0,0,1,14.724-2.24h30.34a35.769,35.769,0,0,0,15.879-3.418q7.01-3.418,7.006-9.261V226.09H254.487v5.471q0,5.847-19.157,5.843l-15.437-.124q-30.514,0-35.656,10.935-2.127-4.72-9.757-7.765A40.452,40.452,0,0,0,159.4,237.4l-10.113-.124H129.237q-14.542,0-14.546-5.719V226.09H103.16v8.331q0,8.707,13.306,11.562a58.454,58.454,0,0,0,9.493,1.116q5.417.256,13.748.248l7.626-.124q6.917,0,12.066.248a64.173,64.173,0,0,1,7.8.744q11.892,2.244,11.888,8.951h10.648Z" transform="translate(111.659 9640.562)" fill="#3d46c2" opacity="0.998"/>
    <path id="Trazado_158597-7" data-name="Trazado 158597" d="M745.6,102.648v16.964l-8.486-8.486,8.486-8.486Z" transform="translate(-31.004 9668.342)" fill="#3d46c2"/>
    <path id="Rectángulo_40621-12" data-name="Rectángulo 40621" d="M462.865,81.1H664.138c3.774,0,6.835,1.883,6.835,4.208v41.956c0,2.325-3.061,4.208-6.835,4.208H462.865c-3.774,0-6.835-1.883-6.835-4.208V85.308C456.03,82.983,459.091,81.1,462.865,81.1Z" transform="translate(32.25 9673.189)" fill="#f9f69d" stroke="#dbe636" stroke-miterlimit="10" stroke-width="2"/>
    <text id="Necesidad_de_mano_de_obra" data-name="Necesidad de mano de obra" transform="translate(503.957 9783.974)" fill="#13263c" font-size="14" font-family="Roboto-Regular, Roboto"><tspan x="0" y="0">Necesidad de mano de ob</tspan><tspan y="0" letter-spacing="-0.02em">r</tspan><tspan y="0">a</tspan></text>
    <text id="Requisitos_de_personal." data-name="Requisitos de personal." transform="translate(739.615 9782.548)" fill="#13263c" font-size="14" font-family="Roboto-Regular, Roboto"><tspan x="0" y="0">Requisitos de personal.</tspan></text>
    <path id="Trazado_165296" data-name="Trazado 165296" d="M751.43,109.145c.9,0,1.581.666,2.03,2a10.642,10.642,0,0,1,.581,3.542v7.292a8.088,8.088,0,0,0,.883,3.813,2.665,2.665,0,0,0,2.395,1.682h2.154V124.7h-1.418q-1.511,0-1.511-4.6l.031-3.712q0-7.335-2.836-8.571a4.129,4.129,0,0,0,2.015-2.34,9.124,9.124,0,0,0,.791-3.627l.031-2.433V94.6q0-3.5,1.48-3.5h1.418V88.33H757.32c-1.5,0-2.5,1.062-2.991,3.2a13.012,13.012,0,0,0-.287,2.278c-.047.868-.062,1.968-.062,3.3l.031,1.837c0,1.108-.023,2.077-.062,2.9a14.622,14.622,0,0,1-.194,1.875c-.387,1.906-1.162,2.852-2.317,2.852v2.557Z" transform="translate(-34.227 9671.563)" fill="#3d46c2"/>
    <path id="Trazado_158597-8" data-name="Trazado 158597" d="M784.116,229.278v16.964l-8.486-8.486,8.486-8.486Z" transform="translate(-39.673 9639.846)" fill="#3d46c2"/>
    <path id="Rectángulo_40621-13" data-name="Rectángulo 40621" d="M501.385,207.72H702.658c3.774,0,6.835,1.883,6.835,4.208v41.956c0,2.325-3.061,4.208-6.835,4.208H501.385c-3.774,0-6.835-1.883-6.835-4.208V211.928c0-2.325,3.061-4.208,6.835-4.208Z" transform="translate(23.581 9644.695)" fill="#f9f69d" stroke="#dbe636" stroke-miterlimit="10" stroke-width="2"/>
    <text id="Divulgación" transform="translate(587.436 9882.1)" fill="#13263c" font-size="14" font-family="Roboto-Regular, Roboto"><tspan x="0" y="0">Divulgación</tspan></text>
    <text id="A_través_de_los_medios_y_técnicas_de_reclutamiento." data-name="A través de los medios y técnicas
de reclutamiento." transform="translate(770.249 9873.266)" fill="#13263c" font-size="14" font-family="Roboto-Regular, Roboto"><tspan x="0" y="0">A t</tspan><tspan y="0" letter-spacing="-0.02em">r</tspan><tspan y="0">avés de los medios y técnicas</tspan><tspan x="0" y="17">de reclutamiento.</tspan></text>
    <path id="Trazado_165297" data-name="Trazado 165297" d="M789.95,235.775c.9,0,1.581.666,2.03,2a10.644,10.644,0,0,1,.581,3.542v7.292a8.088,8.088,0,0,0,.883,3.813,2.665,2.665,0,0,0,2.395,1.682h2.154v-2.774h-1.418q-1.511,0-1.511-4.6l.031-3.712q0-7.335-2.836-8.571a4.129,4.129,0,0,0,2.015-2.34,9.124,9.124,0,0,0,.79-3.627l.031-2.433v-4.812q0-3.5,1.48-3.5h1.418V214.96H795.84c-1.5,0-2.5,1.062-2.991,3.2a13.018,13.018,0,0,0-.287,2.278c-.047.868-.062,1.968-.062,3.3l.031,1.837c0,1.108-.023,2.077-.062,2.9a14.636,14.636,0,0,1-.194,1.875c-.388,1.906-1.162,2.852-2.317,2.852v2.557Z" transform="translate(-42.895 9643.065)" fill="#3d46c2" opacity="0.7"/>
    <path id="Trazado_158597-9" data-name="Trazado 158597" d="M823.206,355.908v16.964l-8.486-8.486,8.486-8.486Z" transform="translate(-48.47 9611.35)" fill="#3d46c2"/>
    <path id="Rectángulo_40621-14" data-name="Rectángulo 40621" d="M540.485,334.35H741.758c3.774,0,6.835,1.883,6.835,4.208v41.956c0,2.325-3.061,4.208-6.835,4.208H540.485c-3.774,0-6.835-1.883-6.835-4.208V338.558c0-2.325,3.061-4.208,6.835-4.208Z" transform="translate(14.782 9616.199)" fill="#f9f69d" stroke="#dbe636" stroke-miterlimit="10" stroke-width="2"/>
    <text id="Recepción_de_los_candidatos" data-name="Recepción de los candidatos" transform="translate(561.792 9978.815)" fill="#13263c" font-size="14" font-family="Roboto-Regular, Roboto"><tspan x="0" y="0">Recepción de los candidatos</tspan></text>
    <text id="Recepción._Atención." data-name="Recepción.
Atención." transform="translate(800.542 9971.384)" fill="#13263c" font-size="14" font-family="Roboto-Regular, Roboto"><tspan x="0" y="0">Recepción.</tspan><tspan x="0" y="17">Atención.</tspan></text>
    <path id="Trazado_165298" data-name="Trazado 165298" d="M829.04,362.406c.9,0,1.581.666,2.03,2a10.642,10.642,0,0,1,.581,3.542v7.292a8.088,8.088,0,0,0,.883,3.813,2.665,2.665,0,0,0,2.395,1.682h2.154v-2.774h-1.418q-1.511,0-1.511-4.6l.031-3.712q0-7.335-2.836-8.571a4.129,4.129,0,0,0,2.015-2.34,9.124,9.124,0,0,0,.79-3.627l.031-2.433v-4.812q0-3.5,1.48-3.5h1.418V341.59H834.93c-1.5,0-2.5,1.062-2.991,3.2a13.018,13.018,0,0,0-.287,2.278c-.047.868-.062,1.968-.062,3.3l.031,1.837c0,1.108-.023,2.077-.062,2.9a14.637,14.637,0,0,1-.194,1.875c-.388,1.906-1.162,2.852-2.317,2.852v2.557Z" transform="translate(-51.692 9614.569)" fill="#3d46c2"/>
    <path id="Trazado_158597-10" data-name="Trazado 158597" d="M863.726,482.528v16.964l-8.486-8.486,8.486-8.486Z" transform="translate(-57.588 9582.854)" fill="#3d46c2"/>
    <path id="Rectángulo_40621-15" data-name="Rectángulo 40621" d="M581.005,460.98H782.278c3.774,0,6.835,1.883,6.835,4.208v41.956c0,2.325-3.061,4.208-6.835,4.208H581.005c-3.774,0-6.835-1.883-6.835-4.208V465.188c0-2.325,3.061-4.208,6.835-4.208Z" transform="translate(5.664 9587.701)" fill="#f9f69d" stroke="#dbe636" stroke-miterlimit="10" stroke-width="2"/>
    <text id="Selección_inicial" data-name="Selección inicial" transform="translate(634.98 10078.366)" fill="#13263c" font-size="14" font-family="Roboto-Regular, Roboto"><tspan x="0" y="0">Selección inicial</tspan></text>
    <text id="Verificación_superficial_de_calificaciones_comunes_de_los_candidatos." data-name="Verificación superficial de calificaciones
comunes de los candidatos." transform="translate(831.944 10069.602)" fill="#13263c" font-size="14" font-family="Roboto-Regular, Roboto"><tspan x="0" y="0">Verificación superficial de calificaciones</tspan><tspan x="0" y="17">comunes de los candidatos.</tspan></text>
    <path id="Trazado_165299" data-name="Trazado 165299" d="M869.56,489.025c.9,0,1.581.666,2.03,2a10.644,10.644,0,0,1,.581,3.542v7.292a8.088,8.088,0,0,0,.883,3.813,2.665,2.665,0,0,0,2.395,1.682H877.6v-2.774h-1.418q-1.511,0-1.511-4.6l.031-3.712q0-7.335-2.836-8.571a4.129,4.129,0,0,0,2.015-2.34,9.124,9.124,0,0,0,.79-3.627l.031-2.433v-4.812q0-3.5,1.48-3.5H877.6V468.21H875.45c-1.5,0-2.5,1.062-2.991,3.2a13.017,13.017,0,0,0-.287,2.278c-.046.868-.062,1.968-.062,3.3l.031,1.837c0,1.108-.023,2.077-.062,2.9a14.636,14.636,0,0,1-.194,1.875c-.388,1.906-1.162,2.852-2.317,2.852v2.557Z" transform="translate(-60.811 9586.074)" fill="#3d46c2"/>
    <path id="Trazado_158597-11" data-name="Trazado 158597" d="M945.136,735.788v16.964l-8.486-8.486,8.486-8.486Z" transform="translate(-75.909 9525.861)" fill="#3d46c2"/>
    <path id="Rectángulo_40621-16" data-name="Rectángulo 40621" d="M662.415,714.23H863.688c3.774,0,6.835,1.883,6.835,4.208v41.956c0,2.325-3.061,4.208-6.835,4.208H662.415c-3.774,0-6.835-1.883-6.835-4.208V718.438C655.58,716.113,658.641,714.23,662.415,714.23Z" transform="translate(-12.657 9530.711)" fill="#f9f69d" stroke="#dbe636" stroke-miterlimit="10" stroke-width="2"/>
    <text id="Entrevista_inicial" data-name="Entrevista inicial" transform="translate(696.899 10274.625)" fill="#13263c" font-size="14" font-family="Roboto-Regular, Roboto"><tspan x="0" y="0">Entrevista inicial</tspan></text>
    <text id="Binomio:_verificación_de_las_calificaciones_del_candidato_y_de_las_especificaciones_de_puestos." data-name="Binomio: verificación de las calificaciones del
candidato y de las especificaciones de puestos." transform="translate(895.033 10268.193)" fill="#13263c" font-size="14" font-family="Roboto-Bold, Roboto" font-weight="700"><tspan x="0" y="0">Binomio:</tspan><tspan y="0" xml:space="preserve" font-family="Roboto-Regular, Roboto" font-weight="400"> verificación de las calificaciones del</tspan><tspan font-family="Roboto-Regular, Roboto" font-weight="400"><tspan x="0" y="19">candidato y de las especificaciones de puestos.</tspan></tspan></text>
    <path id="Trazado_165300" data-name="Trazado 165300" d="M950.97,745.285c.9,0,1.581.666,2.03,2a10.642,10.642,0,0,1,.581,3.542v7.292a8.088,8.088,0,0,0,.883,3.813,2.665,2.665,0,0,0,2.395,1.682h2.154v-2.774H957.6q-1.511,0-1.511-4.6l.031-3.712q0-7.335-2.836-8.571a4.129,4.129,0,0,0,2.015-2.34,9.125,9.125,0,0,0,.79-3.627l.031-2.433v-4.812q0-3.5,1.48-3.5h1.418V724.47H956.86c-1.5,0-2.5,1.062-2.991,3.2a13.011,13.011,0,0,0-.287,2.278c-.047.868-.062,1.968-.062,3.3l.031,1.837c0,1.108-.023,2.077-.062,2.9a14.623,14.623,0,0,1-.194,1.875c-.387,1.906-1.162,2.852-2.317,2.852v2.557Z" transform="translate(-79.131 9528.406)" fill="#3d46c2"/>
    <path id="Trazado_158597-12" data-name="Trazado 158597" d="M1108.836,1242.3v16.964l-8.486-8.486,8.486-8.486Z" transform="translate(-112.747 9411.877)" fill="#3d46c2"/>
    <path id="Rectángulo_40621-17" data-name="Rectángulo 40621" d="M826.445,1212.89h201.273c3.774,0,6.835,2.34,6.835,5.223v52.093c0,2.883-3.061,5.223-6.835,5.223H826.445c-3.774,0-6.835-2.34-6.835-5.223v-52.093C819.61,1215.23,822.671,1212.89,826.445,1212.89Z" transform="translate(-49.57 9418.493)" fill="#f9f69d" stroke="#dbe636" stroke-miterlimit="10" stroke-width="2"/>
    <text id="Investigación_sobre_los_antecedentes_del_candidato." data-name="Investigación sobre los antecedentes del
candidato." transform="translate(1021.895 10658.316)" fill="#13263c" font-size="14" font-family="Roboto-Regular, Roboto"><tspan x="0" y="0">Investigación sobre los antecedentes del</tspan><tspan x="0" y="17">candidato.</tspan></text>
    <path id="Trazado_165301" data-name="Trazado 165301" d="M1114.67,1248.8c.9,0,1.581.667,2.03,2a10.64,10.64,0,0,1,.581,3.542v7.292a8.089,8.089,0,0,0,.883,3.813,2.666,2.666,0,0,0,2.395,1.682h2.154v-2.774H1121.3q-1.511,0-1.511-4.6l.031-3.712q0-7.335-2.836-8.571a4.129,4.129,0,0,0,2.015-2.341,9.121,9.121,0,0,0,.791-3.627l.031-2.433v-4.812q0-3.5,1.48-3.5h1.418v-2.774h-2.154c-1.5,0-2.5,1.062-2.991,3.2a13.023,13.023,0,0,0-.287,2.278c-.047.868-.062,1.968-.062,3.3l.031,1.837c0,1.108-.023,2.077-.062,2.9a14.633,14.633,0,0,1-.194,1.875c-.387,1.906-1.162,2.852-2.317,2.852v2.557Z" transform="translate(-115.97 9415.097)" fill="#3d46c2"/>
    <path id="Trazado_158597-13" data-name="Trazado 158597" d="M1150.106,1368.928v16.964l-8.486-8.486,8.486-8.486Z" transform="translate(-122.035 9383.38)" fill="#3d46c2"/>
    <path id="Rectángulo_40621-18" data-name="Rectángulo 40621" d="M867.375,1347.37h201.273c3.774,0,6.835,1.883,6.835,4.208v41.956c0,2.325-3.061,4.208-6.835,4.208H867.375c-3.774,0-6.835-1.883-6.835-4.208v-41.956C860.54,1349.253,863.6,1347.37,867.375,1347.37Z" transform="translate(-58.781 9388.229)" fill="#f9f69d" stroke="#dbe636" stroke-miterlimit="10" stroke-width="2"/>
    <text id="Exámen_médico" data-name="Exámen médico" transform="translate(856.541 10765.284)" fill="#13263c" font-size="14" font-family="Roboto-Regular, Roboto"><tspan x="0" y="0">Exámen médico</tspan></text>
    <text id="Verificación_de_la_adecuación_biofisiológica_a_las_especificaciones_del_puesto." data-name="Verificación de la adecuación biofisiológica
a las especificaciones del puesto." transform="translate(1053.877 10758.853)" fill="#13263c" font-size="14" font-family="Roboto-Regular, Roboto"><tspan x="0" y="0">Verificación de la adecuación biofisiológica</tspan><tspan x="0" y="17">a las especificaciones del puesto.</tspan></text>
    <path id="Trazado_165302" data-name="Trazado 165302" d="M1155.94,1378.425c.9,0,1.581.667,2.03,2a10.644,10.644,0,0,1,.581,3.542v7.292a8.089,8.089,0,0,0,.883,3.813,2.665,2.665,0,0,0,2.395,1.682h2.154v-2.774h-1.418q-1.511,0-1.511-4.6l.031-3.712q0-7.335-2.836-8.571a4.128,4.128,0,0,0,2.015-2.34,9.125,9.125,0,0,0,.791-3.627l.031-2.433v-4.812q0-3.5,1.48-3.5h1.418v-2.774h-2.154c-1.5,0-2.5,1.062-2.991,3.2a13.024,13.024,0,0,0-.287,2.278c-.047.868-.062,1.968-.062,3.3l.031,1.837c0,1.108-.023,2.077-.062,2.9a14.637,14.637,0,0,1-.194,1.875c-.387,1.906-1.162,2.852-2.317,2.852v2.557Z" transform="translate(-125.257 9385.925)" fill="#3d46c2"/>
    <path id="Trazado_158597-14" data-name="Trazado 158597" d="M1027.236,989.038V1006l-8.486-8.486,8.486-8.486Z" transform="translate(-94.384 9468.869)" fill="#3d46c2"/>
    <path id="Rectángulo_40621-19" data-name="Rectángulo 40621" d="M744.515,967.49H945.788c3.774,0,6.835,1.883,6.835,4.208v41.956c0,2.325-3.061,4.208-6.835,4.208H744.515c-3.774,0-6.835-1.883-6.835-4.208V971.7C737.68,969.373,740.741,967.49,744.515,967.49Z" transform="translate(-31.133 9473.717)" fill="#f9f69d" stroke="#dbe636" stroke-miterlimit="10" stroke-width="2"/>
    <text id="Entrevista_final" data-name="Entrevista final" transform="translate(765.398 10470.962)" fill="#13263c" font-size="14" font-family="Roboto-Regular, Roboto"><tspan x="0" y="0">Entrevista final</tspan></text>
    <text id="Trinomio:_Comparación_de_las_calificaciones_del_candidato_con_las_de_los_demás_candidatos_y_con_las_especificaciones_de_puestos." data-name="Trinomio: Comparación de las calificaciones
del candidato con las de los demás candidatos
y con las especificaciones de puestos." transform="translate(958.658 10451.797)" fill="#13263c" font-size="14" font-family="Roboto-Bold, Roboto" font-weight="700"><tspan x="0" y="0" letter-spacing="-0.03em">T</tspan><tspan y="0">rinomio: </tspan><tspan y="0" font-family="Roboto-Regular, Roboto" font-weight="400">Compa</tspan><tspan y="0" font-family="Roboto-Regular, Roboto" font-weight="400" letter-spacing="-0.02em">r</tspan><tspan y="0" font-family="Roboto-Regular, Roboto" font-weight="400">ación de las calificaciones</tspan><tspan font-family="Roboto-Regular, Roboto" font-weight="400"><tspan x="0" y="19">del candidato con las de los demás candidatos</tspan><tspan x="0" y="38">y con las especificaciones de puestos.</tspan></tspan></text>
    <path id="Trazado_165303" data-name="Trazado 165303" d="M1033.07,993.909c.9,0,1.581.914,2.03,2.736a19.5,19.5,0,0,1,.581,4.836v9.966a14.46,14.46,0,0,0,.884,5.215q.883,2.3,2.395,2.3h2.154v-3.79H1039.7q-1.511,0-1.511-6.293l.031-5.068q0-10.02-2.836-11.71a5.416,5.416,0,0,0,2.015-3.208,16.391,16.391,0,0,0,.791-4.952l.031-3.325v-6.587q0-4.778,1.48-4.781h1.418v-3.79h-2.154q-2.255,0-2.991,4.371a24.094,24.094,0,0,0-.287,3.115c-.047,1.186-.062,2.689-.062,4.518l.031,2.5c0,1.511-.023,2.836-.062,3.96s-.109,1.984-.194,2.565q-.581,3.906-2.317,3.906v3.5Z" transform="translate(-97.607 9474.174)" fill="#3d46c2" opacity="0.997"/>
    <path id="Trazado_158597-15" data-name="Trazado 158597" d="M1069.026,1115.668v16.964l-8.486-8.486,8.486-8.486Z" transform="translate(-103.789 9440.373)" fill="#3d46c2"/>
    <path id="Trazado_165304" data-name="Trazado 165304" d="M1074.86,1122.165c.9,0,1.581.667,2.03,2a10.644,10.644,0,0,1,.581,3.542V1135a8.089,8.089,0,0,0,.883,3.813,2.665,2.665,0,0,0,2.395,1.682h2.154v-2.774h-1.418q-1.511,0-1.511-4.6l.031-3.712q0-7.335-2.836-8.571a4.128,4.128,0,0,0,2.015-2.34,9.123,9.123,0,0,0,.791-3.627l.031-2.433v-4.812q0-3.5,1.48-3.5h1.418v-2.774h-2.155c-1.5,0-2.5,1.062-2.991,3.2a13.023,13.023,0,0,0-.287,2.278c-.047.868-.062,1.968-.062,3.3l.031,1.837c0,1.108-.023,2.077-.062,2.9a14.655,14.655,0,0,1-.194,1.875c-.387,1.906-1.162,2.852-2.317,2.852v2.557Z" transform="translate(-107.011 9443.594)" fill="#3d46c2" opacity="0.997"/>
    <path id="Rectángulo_40621-20" data-name="Rectángulo 40621" d="M786.305,1094.12H987.578c3.774,0,6.835,1.883,6.835,4.208v41.956c0,2.325-3.061,4.208-6.835,4.208H786.305c-3.774,0-6.835-1.883-6.835-4.208v-41.956c0-2.325,3.061-4.208,6.835-4.208Z" transform="translate(-40.537 9445.221)" fill="#f9f69d" stroke="#dbe636" stroke-miterlimit="10" stroke-width="2"/>
    <text id="Recomendación_al_departamento_solicitante_de_los_candidatos_finalistas_en_la_elección." data-name="Recomendación al departamento solicitante
de los candidatos finalistas en la elección." transform="translate(991.043 10560.191)" fill="#13263c" font-size="14" font-family="Roboto-Regular, Roboto"><tspan x="0" y="0">Recomendación al depa</tspan><tspan y="0" letter-spacing="0.02em">r</tspan><tspan y="0">tamento solicitante</tspan><tspan x="0" y="17">de los candidatos finalistas en la elección.</tspan></text>
    <path id="Trazado_165305" data-name="Trazado 165305" d="M615.186,209.818l2.96-5.758-8.346,2.17Z" transform="translate(-3.355 9643.598)" fill="#3d46c2"/>
    <path id="Trazado_165306" data-name="Trazado 165306" d="M658.324,334.826l2.953-5.766-8.346,2.17Z" transform="translate(-12.061 9617.389)" fill="#3d46c2"/>
    <path id="Trazado_165307" data-name="Trazado 165307" d="M701.386,461.216l2.953-5.766L696,457.62Z" transform="translate(-21.753 9588.946)" fill="#3d46c2"/>
    <path id="Trazado_165308" data-name="Trazado 165308" d="M744.794,588.616l2.953-5.766-8.346,2.17Z" transform="translate(-31.52 9560.276)" fill="#3d46c2"/>
    <path id="Trazado_165309" data-name="Trazado 165309" d="M788.286,716.276l2.96-5.766-8.346,2.17Z" transform="translate(-41.309 9531.548)" fill="#3d46c2"/>
    <g id="Grupo_113588" data-name="Grupo 113588" transform="translate(774.659 10339.114)">
      <path id="Trazado_165310" data-name="Trazado 165310" d="M830.956,841.516l2.96-5.766-8.346,2.17Z" transform="translate(-825.57 -835.75)" fill="#3d46c2"/>
      <path id="Trazado_165311" data-name="Trazado 165311" d="M830.956,841.516l2.96-5.766-8.346,2.17Z" transform="translate(-825.57 -835.75)" fill="#3d46c2"/>
      <path id="Trazado_165312" data-name="Trazado 165312" d="M830.956,841.516l2.96-5.766-8.346,2.17Z" transform="translate(-825.57 -835.75)" fill="#3d46c2"/>
    </g>
    <g id="Grupo_113589" data-name="Grupo 113589" transform="translate(808.463 10438.324)">
      <path id="Trazado_165313" data-name="Trazado 165313" d="M874.576,969.536l2.96-5.766-8.346,2.17Z" transform="translate(-869.19 -963.77)" fill="#3d46c2"/>
      <path id="Trazado_165314" data-name="Trazado 165314" d="M874.576,969.536l2.96-5.766-8.346,2.17Z" transform="translate(-869.19 -963.77)" fill="#3d46c2"/>
      <path id="Trazado_165315" data-name="Trazado 165315" d="M874.576,969.536l2.96-5.766-8.346,2.17Z" transform="translate(-869.19 -963.77)" fill="#3d46c2"/>
    </g>
    <g id="Grupo_113590" data-name="Grupo 113590" transform="translate(841.383 10534.954)">
      <path id="Trazado_165316" data-name="Trazado 165316" d="M917.064,1094.226l2.953-5.766-8.346,2.17Z" transform="translate(-911.67 -1088.46)" fill="#75b62f"/>
      <path id="Trazado_165317" data-name="Trazado 165317" d="M917.064,1094.226l2.953-5.766-8.346,2.17Z" transform="translate(-911.67 -1088.46)" fill="#75b62f"/>
      <path id="Trazado_165318" data-name="Trazado 165318" d="M917.064,1094.226l2.953-5.766-8.346,2.17Z" transform="translate(-911.67 -1088.46)" fill="#75b62f"/>
    </g>
    <g id="Grupo_113591" data-name="Grupo 113591" transform="translate(872.451 10626.129)">
      <path id="Trazado_165319" data-name="Trazado 165319" d="M957.146,1211.876l2.953-5.766-8.339,2.17Z" transform="translate(-951.76 -1206.11)" fill="#3d46c2"/>
      <path id="Trazado_165320" data-name="Trazado 165320" d="M957.146,1211.876l2.953-5.766-8.339,2.17Z" transform="translate(-951.76 -1206.11)" fill="#3d46c2"/>
      <path id="Trazado_165321" data-name="Trazado 165321" d="M957.146,1211.876l2.953-5.766-8.339,2.17Z" transform="translate(-951.76 -1206.11)" fill="#3d46c2"/>
    </g>
    <g id="Grupo_113592" data-name="Grupo 113592" transform="translate(908.169 10730.973)">
      <path id="Trazado_165322" data-name="Trazado 165322" d="M1003.244,1347.166l2.953-5.766-8.346,2.17Z" transform="translate(-997.85 -1341.4)" fill="#3d46c2"/>
      <path id="Trazado_165323" data-name="Trazado 165323" d="M1003.244,1347.166l2.953-5.766-8.346,2.17Z" transform="translate(-997.85 -1341.4)" fill="#3d46c2"/>
      <path id="Trazado_165324" data-name="Trazado 165324" d="M1003.244,1347.166l2.953-5.766-8.346,2.17Z" transform="translate(-997.85 -1341.4)" fill="#3d46c2"/>
    </g>
    <g id="Grupo_115952" data-name="Grupo 115952" transform="translate(941.672 10827.968)">
      <path id="Trazado_165322-2" data-name="Trazado 165322" d="M1003.244,1347.166l2.953-5.766-8.346,2.17Z" transform="translate(-997.85 -1341.4)" fill="#3d46c2"/>
      <path id="Trazado_165323-2" data-name="Trazado 165323" d="M1003.244,1347.166l2.953-5.766-8.346,2.17Z" transform="translate(-997.85 -1341.4)" fill="#3d46c2"/>
      <path id="Trazado_165324-2" data-name="Trazado 165324" d="M1003.244,1347.166l2.953-5.766-8.346,2.17Z" transform="translate(-997.85 -1341.4)" fill="#3d46c2"/>
    </g>
    <g id="Grupo_113593" data-name="Grupo 113593" transform="translate(459.366 10823.891)">
      <path id="Trazado_165325" data-name="Trazado 165325" d="M423.029,1466.136l4.317-4.836H418.72Z" transform="translate(-418.72 -1461.3)" fill="#3d46c2"/>
      <path id="Trazado_165326" data-name="Trazado 165326" d="M423.029,1466.136l4.317-4.836H418.72Z" transform="translate(-418.72 -1461.3)" fill="#3d46c2"/>
      <path id="Trazado_165327" data-name="Trazado 165327" d="M423.029,1466.136l4.317-4.836H418.72Z" transform="translate(-418.72 -1461.3)" fill="#3d46c2"/>
      <path id="Trazado_165328" data-name="Trazado 165328" d="M423.029,1466.136l4.317-4.836H418.72Z" transform="translate(-418.72 -1461.3)" fill="#3d46c2"/>
      <path id="Trazado_165329" data-name="Trazado 165329" d="M423.029,1466.136l4.317-4.836H418.72Z" transform="translate(-418.72 -1461.3)" fill="#3d46c2"/>
    </g>
    <g id="Grupo_113594" data-name="Grupo 113594" transform="translate(422.656 10823.891)">
      <path id="Trazado_165330" data-name="Trazado 165330" d="M375.659,1466.136l4.317-4.836H371.35Z" transform="translate(-371.35 -1461.3)" fill="#3d46c2"/>
      <path id="Trazado_165331" data-name="Trazado 165331" d="M375.659,1466.136l4.317-4.836H371.35Z" transform="translate(-371.35 -1461.3)" fill="#3d46c2"/>
      <path id="Trazado_165332" data-name="Trazado 165332" d="M375.659,1466.136l4.317-4.836H371.35Z" transform="translate(-371.35 -1461.3)" fill="#3d46c2"/>
      <path id="Trazado_165333" data-name="Trazado 165333" d="M375.659,1466.136l4.317-4.836H371.35Z" transform="translate(-371.35 -1461.3)" fill="#3d46c2"/>
      <path id="Trazado_165334" data-name="Trazado 165334" d="M375.659,1466.136l4.317-4.836H371.35Z" transform="translate(-371.35 -1461.3)" fill="#3d46c2"/>
    </g>
    <g id="Grupo_113595" data-name="Grupo 113595" transform="translate(385.946 10823.891)">
      <path id="Trazado_165335" data-name="Trazado 165335" d="M328.289,1466.136l4.316-4.836H323.98Z" transform="translate(-323.98 -1461.3)" fill="#3d46c2"/>
      <path id="Trazado_165336" data-name="Trazado 165336" d="M328.289,1466.136l4.316-4.836H323.98Z" transform="translate(-323.98 -1461.3)" fill="#3d46c2"/>
      <path id="Trazado_165337" data-name="Trazado 165337" d="M328.289,1466.136l4.316-4.836H323.98Z" transform="translate(-323.98 -1461.3)" fill="#3d46c2"/>
      <path id="Trazado_165338" data-name="Trazado 165338" d="M328.289,1466.136l4.316-4.836H323.98Z" transform="translate(-323.98 -1461.3)" fill="#3d46c2"/>
      <path id="Trazado_165339" data-name="Trazado 165339" d="M328.289,1466.136l4.316-4.836H323.98Z" transform="translate(-323.98 -1461.3)" fill="#3d46c2"/>
    </g>
    <g id="Grupo_113596" data-name="Grupo 113596" transform="translate(349.236 10823.891)">
      <path id="Trazado_165340" data-name="Trazado 165340" d="M280.919,1466.136l4.309-4.836H276.61Z" transform="translate(-276.61 -1461.3)" fill="#3d46c2"/>
      <path id="Trazado_165341" data-name="Trazado 165341" d="M280.919,1466.136l4.309-4.836H276.61Z" transform="translate(-276.61 -1461.3)" fill="#3d46c2"/>
      <path id="Trazado_165342" data-name="Trazado 165342" d="M280.919,1466.136l4.309-4.836H276.61Z" transform="translate(-276.61 -1461.3)" fill="#3d46c2"/>
      <path id="Trazado_165343" data-name="Trazado 165343" d="M280.919,1466.136l4.309-4.836H276.61Z" transform="translate(-276.61 -1461.3)" fill="#3d46c2"/>
      <path id="Trazado_165344" data-name="Trazado 165344" d="M280.919,1466.136l4.309-4.836H276.61Z" transform="translate(-276.61 -1461.3)" fill="#3d46c2"/>
    </g>
    <g id="Grupo_113597" data-name="Grupo 113597" transform="translate(312.526 10823.891)">
      <path id="Trazado_165345" data-name="Trazado 165345" d="M233.549,1466.136l4.309-4.836H229.24Z" transform="translate(-229.24 -1461.3)" fill="#3d46c2"/>
      <path id="Trazado_165346" data-name="Trazado 165346" d="M233.549,1466.136l4.309-4.836H229.24Z" transform="translate(-229.24 -1461.3)" fill="#3d46c2"/>
      <path id="Trazado_165347" data-name="Trazado 165347" d="M233.549,1466.136l4.309-4.836H229.24Z" transform="translate(-229.24 -1461.3)" fill="#3d46c2"/>
      <path id="Trazado_165348" data-name="Trazado 165348" d="M233.549,1466.136l4.309-4.836H229.24Z" transform="translate(-229.24 -1461.3)" fill="#3d46c2"/>
      <path id="Trazado_165349" data-name="Trazado 165349" d="M233.549,1466.136l4.309-4.836H229.24Z" transform="translate(-229.24 -1461.3)" fill="#3d46c2"/>
    </g>
    <g id="Grupo_113598" data-name="Grupo 113598" transform="translate(275.816 10823.891)">
      <path id="Trazado_165350" data-name="Trazado 165350" d="M186.179,1466.136l4.309-4.836H181.87Z" transform="translate(-181.87 -1461.3)" fill="#3d46c2"/>
      <path id="Trazado_165351" data-name="Trazado 165351" d="M186.179,1466.136l4.309-4.836H181.87Z" transform="translate(-181.87 -1461.3)" fill="#3d46c2"/>
      <path id="Trazado_165352" data-name="Trazado 165352" d="M186.179,1466.136l4.309-4.836H181.87Z" transform="translate(-181.87 -1461.3)" fill="#3d46c2"/>
      <path id="Trazado_165353" data-name="Trazado 165353" d="M186.179,1466.136l4.309-4.836H181.87Z" transform="translate(-181.87 -1461.3)" fill="#3d46c2"/>
      <path id="Trazado_165354" data-name="Trazado 165354" d="M186.179,1466.136l4.309-4.836H181.87Z" transform="translate(-181.87 -1461.3)" fill="#3d46c2"/>
    </g>
    <g id="Grupo_113599" data-name="Grupo 113599" transform="translate(240.183 10823.891)">
      <path id="Trazado_165355" data-name="Trazado 165355" d="M140.207,1466.136l4.309-4.836H135.89Z" transform="translate(-135.89 -1461.3)" fill="#3d46c2"/>
      <path id="Trazado_165356" data-name="Trazado 165356" d="M140.207,1466.136l4.309-4.836H135.89Z" transform="translate(-135.89 -1461.3)" fill="#3d46c2"/>
      <path id="Trazado_165357" data-name="Trazado 165357" d="M140.207,1466.136l4.309-4.836H135.89Z" transform="translate(-135.89 -1461.3)" fill="#3d46c2"/>
      <path id="Trazado_165358" data-name="Trazado 165358" d="M140.207,1466.136l4.309-4.836H135.89Z" transform="translate(-135.89 -1461.3)" fill="#3d46c2"/>
      <path id="Trazado_165359" data-name="Trazado 165359" d="M140.207,1466.136l4.309-4.836H135.89Z" transform="translate(-135.89 -1461.3)" fill="#3d46c2"/>
    </g>
    <g id="Grupo_113600" data-name="Grupo 113600" transform="translate(414.891 10065.374)">
      <line id="Línea_495" data-name="Línea 495" x2="157.658" transform="translate(7.277 8.494)" fill="none" stroke="#3e4bbf" stroke-miterlimit="10" stroke-width="2"/>
      <path id="Trazado_158597-16" data-name="Trazado 158597" d="M369.816,482.528v16.964l-8.486-8.486,8.486-8.486Z" transform="translate(-361.33 -482.52)" fill="#3d46c2"/>
    </g>
    <text id="SELECCIÓN" transform="translate(1403 10521.346) rotate(90)" fill="#13263c" font-size="18" font-family="Roboto-Bold, Roboto" font-weight="700"><tspan x="0" y="0">SELECCIÓN</tspan></text>
    <text id="RECLUTAMIENTO" transform="translate(1403 9877.966) rotate(90)" fill="#13263c" font-size="18" font-family="Roboto-Bold, Roboto" font-weight="700"><tspan x="0" y="0">REC</tspan><tspan y="0" letter-spacing="-0.01em">L</tspan><tspan y="0">U</tspan><tspan y="0" letter-spacing="-0.06em">T</tspan><tspan y="0">AMIEN</tspan><tspan y="0" letter-spacing="-0.01em">T</tspan><tspan y="0">O</tspan></text>
    <g id="Grupo_113601" data-name="Grupo 113601" transform="translate(1300.687 9694.54)">
      <line id="Línea_496" data-name="Línea 496" x2="81.557" fill="none" stroke="#3d46c2" stroke-linecap="round" stroke-miterlimit="10" stroke-width="8"/>
      <line id="Línea_497" data-name="Línea 497" x2="81.557" transform="translate(0 515.783)" fill="none" stroke="#3d46c2" stroke-linecap="round" stroke-miterlimit="10" stroke-width="8"/>
      <line id="Línea_498" data-name="Línea 498" y2="515.783" transform="translate(81.557)" fill="none" stroke="#3d46c2" stroke-linecap="round" stroke-miterlimit="10" stroke-width="8"/>
    </g>
    <g id="Grupo_113602" data-name="Grupo 113602" transform="translate(1300.687 10231.79)" opacity="0.7">
      <line id="Línea_499" data-name="Línea 499" x2="81.557" fill="none" stroke="#3d46c2" stroke-linecap="round" stroke-miterlimit="10" stroke-width="8"/>
      <line id="Línea_500" data-name="Línea 500" x2="81.557" transform="translate(0 677.27)" fill="none" stroke="#3d46c2" stroke-linecap="round" stroke-miterlimit="10" stroke-width="8"/>
      <line id="Línea_501" data-name="Línea 501" y2="677.27" transform="translate(81.557)" fill="none" stroke="#3d46c2" stroke-linecap="round" stroke-miterlimit="10" stroke-width="8"/>
    </g>
    <text id="Requisición_de_personal" data-name="Requisición
de personal" transform="translate(344.857 9830.603) rotate(-90)" fill="#12263f" font-size="15" font-family="Roboto-Regular, Roboto"><tspan x="12.47" y="16">Requisición</tspan></text>
    <text id="Descripción_y_especificación_de_puestos" data-name="Descripción y
especificación
de puestos" transform="translate(196 9830.828) rotate(-90)" fill="#12263f" font-size="15" font-family="Roboto-Regular, Roboto"><tspan x="6.31" y="16">Descripción y</tspan><tspan x="3.04" y="37">especificación</tspan><tspan x="14.363" y="58">de puestos</tspan></text>
    <text id="Impresión_general_desfavorable_o_inferior_a_las_especificaciones" data-name="Impresión general desfavorable
o inferior a las especificaciones" transform="translate(194 10070.859)" fill="#13263c" font-size="14" font-family="Roboto-Regular, Roboto"><tspan x="0" y="0">Impresión general desfavorable</tspan><tspan x="0" y="19">o inferior a las especificaciones</tspan></text>
    <text id="Inferior_al_estándar" data-name="Inferior al estándar" transform="translate(323 10275.123)" fill="#13263c" font-size="14" font-family="Roboto-Regular, Roboto"><tspan x="0" y="0">Inferior al estándar</tspan></text>
    <text id="Rechazo" transform="translate(318.545 10875.136)" fill="#fff" stroke="rgba(0,0,0,0)" stroke-width="1" font-size="18" font-family="Roboto-Bold, Roboto" font-weight="700"><tspan x="0" y="0">Rechazo</tspan></text>
    <text id="Selección_final_por_el_departamento_solicitante" data-name="Selección final por el
departamento solicitante" transform="translate(843.491 10561.191)" fill="#13263c" font-size="14" font-family="Roboto-Regular, Roboto"><tspan x="-64.289" y="0">Selección final por el</tspan><tspan x="-77.988" y="19">departamento solicitante</tspan></text>
    <text id="Solicitud_de_documentos_e_información_sobre_el_candidato" data-name="Solicitud de documentos
e información sobre
el candidato" transform="translate(879.541 10651.653)" fill="#13263c" font-size="14" font-family="Roboto-Regular, Roboto"><tspan x="-77.109" y="0">Solicitud de documentos</tspan><tspan x="-62.292" y="19">e información sobre</tspan><tspan x="-38.086" y="38">el candidato</tspan></text>
  </g>
</svg>
