<svg xmlns="http://www.w3.org/2000/svg" width="150" height="150" viewBox="0 0 150 150">
  <g id="Grupo_115956" data-name="Grupo 115956" transform="translate(5427.37 9795.291)">
    <g id="Elipse_5925" data-name="Elipse 5925" transform="translate(-5427.37 -9795.291)" fill="#fff" stroke="#77b43a" stroke-width="4">
      <circle cx="75" cy="75" r="75" stroke="none"/>
      <circle cx="75" cy="75" r="73" fill="none"/>
    </g>
    <g id="bienestar" transform="translate(-5399.349 -9772)">
      <path id="Trazado_169491" data-name="Trazado 169491" d="M13.493,0A13.493,13.493,0,1,1,0,13.493,13.493,13.493,0,0,1,13.493,0Z" transform="translate(63.47 15.493)" fill="#dce736"/>
      <path id="Trazado_169472" data-name="Trazado 169472" d="M61.993,19.5h-4.5V15h-6v4.5H47v6h4.5v4.5h6v-4.5h4.5Z" transform="translate(22.468 6.491)" fill="#f85316"/>
      <path id="Trazado_169490" data-name="Trazado 169490" d="M13.493,0A13.493,13.493,0,1,1,0,13.493,13.493,13.493,0,0,1,13.493,0Z" transform="translate(3.499 15.493)" fill="#dce736"/>
      <path id="Trazado_169473" data-name="Trazado 169473" d="M9,19h9v7.5H9Z" transform="translate(3.495 8.488)" fill="#eaeaea"/>
      <path id="Trazado_169474" data-name="Trazado 169474" d="M14.5,15,7,21H21.993Z" transform="translate(2.497 6.491)" fill="#ff8088"/>
      <path id="Trazado_169489" data-name="Trazado 169489" d="M11.994,0A11.994,11.994,0,1,1,0,11.994,11.994,11.994,0,0,1,11.994,0Z" transform="translate(34.984 3.499)" fill="#dce736"/>
      <g id="Grupo_114691" data-name="Grupo 114691" transform="translate(3.73 33.485)">
        <path id="Trazado_169475" data-name="Trazado 169475" d="M35.266,56.942l-5.433-7.676a2.808,2.808,0,0,0-4.8,2.879l2.115,4.348-6.3-2.1L16.648,46l-1.064-4.259a2.293,2.293,0,0,0-4.487.933l.987,5.922-3.946-4.6a2.832,2.832,0,0,0-4.471,3.466l8.625,12.323a2.978,2.978,0,0,0,.481.537l5.939,5.2c2.123,1.858,5.975,4.053,5.747,7.222l13.18.252C37.314,66.638,39.251,62.551,35.266,56.942Z" transform="translate(-3.154 -14.512)" fill="#ffd6a8"/>
        <path id="Trazado_169476" data-name="Trazado 169476" d="M71.44,43.474a2.832,2.832,0,0,0-3.721.513l-3.946,4.6.987-5.922a2.293,2.293,0,0,0-4.486-.931L59.208,46l-4.2,8.393-6.3,2.1,2.115-4.348a2.808,2.808,0,0,0-4.8-2.879s-5.43,7.675-5.433,7.676c-3.985,5.609-2.05,9.7-2.373,16.042L51.4,72.732c-.228-3.169,3.624-5.364,5.747-7.222l5.939-5.2a2.978,2.978,0,0,0,.481-.537l8.625-12.323A2.83,2.83,0,0,0,71.44,43.474Z" transform="translate(14.257 -14.512)" fill="#ffd6a8"/>
        <circle id="Elipse_5939" data-name="Elipse 5939" cx="7.496" cy="7.496" r="7.496" transform="translate(35.752)" fill="#ffd6a8"/>
      </g>
      <path id="Trazado_169477" data-name="Trazado 169477" d="M41.941,30.1a7.466,7.466,0,0,0-14.915,0,11.974,11.974,0,0,1,14.915,0Z" transform="translate(12.495 10.485)" fill="#999"/>
      <path id="Trazado_169478" data-name="Trazado 169478" d="M45.99,52.491H25V42a9,9,0,0,1,9-9h3a9,9,0,0,1,9,9Z" transform="translate(11.484 15.478)" fill="#eaeaea"/>
      <path id="Trazado_169479" data-name="Trazado 169479" d="M33,33l-3,9,3,4.5L36,42Z" transform="translate(13.98 15.478)" fill="#a7dbfc"/>
      <path id="Trazado_169480" data-name="Trazado 169480" d="M42,24.993A14.993,14.993,0,1,0,56.993,10,15.01,15.01,0,0,0,42,24.993Zm26.987,0A11.994,11.994,0,1,1,56.993,13,12.008,12.008,0,0,1,68.987,24.993Z" transform="translate(19.971 3.994)"/>
      <path id="Trazado_169481" data-name="Trazado 169481" d="M16.993,39.986A14.993,14.993,0,1,0,2,24.993,15.01,15.01,0,0,0,16.993,39.986Zm0-26.987A11.994,11.994,0,1,1,5,24.993,12.008,12.008,0,0,1,16.993,13Z" transform="translate(0 3.994)"/>
      <path id="Trazado_169482" data-name="Trazado 169482" d="M9,23v6a1.5,1.5,0,0,0,1.5,1.5h9a1.5,1.5,0,0,0,1.5-1.5V23h1.5a1.5,1.5,0,0,0,.937-2.67l-7.5-6a1.5,1.5,0,0,0-1.874,0l-7.5,6A1.5,1.5,0,0,0,7.5,23Zm9,4.5H12V23h6ZM15,17.42,18.217,20H11.774Z" transform="translate(1.997 5.991)"/>
      <path id="Trazado_169483" data-name="Trazado 169483" d="M33.5,18.493a1.5,1.5,0,0,1-1.5-1.5H29a4.492,4.492,0,0,0,3,4.222v1.775h3V21.216a4.487,4.487,0,0,0-1.5-8.72A1.5,1.5,0,1,1,35,11h3a4.492,4.492,0,0,0-3-4.222V5H32V6.775a4.487,4.487,0,0,0,1.5,8.72,1.5,1.5,0,0,1,0,3Z" transform="translate(13.481 1.498)"/>
      <path id="Trazado_169484" data-name="Trazado 169484" d="M36.493,28.987A13.493,13.493,0,1,0,23,15.493,13.509,13.509,0,0,0,36.493,28.987ZM36.493,5A10.495,10.495,0,1,1,26,15.493,10.507,10.507,0,0,1,36.493,5Z" transform="translate(10.485)"/>
      <path id="Trazado_169485" data-name="Trazado 169485" d="M50.5,15.5v3h-3A1.5,1.5,0,0,0,46,20v6a1.5,1.5,0,0,0,1.5,1.5h3v3a1.5,1.5,0,0,0,1.5,1.5h6a1.5,1.5,0,0,0,1.5-1.5v-3h3a1.5,1.5,0,0,0,1.5-1.5V20a1.5,1.5,0,0,0-1.5-1.5h-3v-3a1.5,1.5,0,0,0-1.5-1.5H52A1.5,1.5,0,0,0,50.5,15.5Zm3,4.5V17h3v3a1.5,1.5,0,0,0,1.5,1.5h3v3h-3a1.5,1.5,0,0,0-1.5,1.5v3h-3v-3a1.5,1.5,0,0,0-1.5-1.5H49v-3h3A1.5,1.5,0,0,0,53.5,20Z" transform="translate(21.968 5.991)"/>
      <path id="Trazado_169486" data-name="Trazado 169486" d="M74.471,45.529a4.331,4.331,0,0,0-7.544-2.02l-.445.519.1-.615a3.792,3.792,0,0,0-7.42-1.54l-1.026,4.1-3.846,7.691-2.453.819.676-1.169a4.308,4.308,0,0,0-7.37-4.414c-5.2,7.343-5.432,7.676-5.43,7.676h0c-3.184,4.481-2.951,9.627-2.724,14.6.034.786.072,1.57.093,2.349l3-.082c-.022-.8-.058-1.6-.094-2.4-.213-4.675-.412-9.089,2.177-12.733l5.429-7.675a1.315,1.315,0,0,1,1.07-.553,1.294,1.294,0,0,1,1.114.621,1.26,1.26,0,0,1,.1,1.193l-3.213,5.556a4.513,4.513,0,0,0-.6,2.252v1.789h3V59.7a1.5,1.5,0,0,1,.2-.75l.318-.552,6.771-2.259.048.024.024-.048,4.086-1.364a4.5,4.5,0,0,0,1.835-1.283l6.861-8a1.338,1.338,0,0,1,1.753-.243,1.331,1.331,0,0,1,.351,1.873L62.679,59.42a1.533,1.533,0,0,1-.238.265l-5.939,5.2c-.4.346-.856.7-1.339,1.081-2.3,1.8-5.158,4.032-4.916,7.378l2.99-.216c-.126-1.751,1.946-3.372,3.775-4.8.528-.412,1.03-.807,1.465-1.187l5.942-5.2a4.382,4.382,0,0,0,.72-.8l8.625-12.321a4.3,4.3,0,0,0,.708-3.285Zm-11.763,2.9-2.645,3.087a1.457,1.457,0,0,1-.556.406l-1.189.4,2.577-5.155a1.479,1.479,0,0,0,.112-.307L62.072,42.6a.8.8,0,0,1,.771-.6.793.793,0,0,1,.783.925Z" transform="translate(17.411 18.473)"/>
      <path id="Trazado_169487" data-name="Trazado 169487" d="M11.407,61.132a4.5,4.5,0,0,0,.724.81l5.939,5.2c.435.381.937.775,1.465,1.187,1.829,1.429,3.9,3.048,3.775,4.8l2.99.216c.241-3.345-2.619-5.582-4.916-7.378-.481-.375-.942-.735-1.339-1.081L14.108,59.69a1.536,1.536,0,0,1-.243-.271L5.24,47.1a1.33,1.33,0,0,1,.351-1.871,1.337,1.337,0,0,1,1.753.241l6.858,8a4.53,4.53,0,0,0,1.889,1.306l4.035,1.346.024.046.046-.024L26.966,58.4l.319.552a1.5,1.5,0,0,1,.2.75v1.786h3V59.7a4.526,4.526,0,0,0-.6-2.25l-3.169-5.475a1.309,1.309,0,0,1,2.24-1.342l5.433,7.679c2.588,3.64,2.387,8.056,2.174,12.729-.036.805-.073,1.607-.094,2.4l3,.082c.021-.78.057-1.562.093-2.349.225-4.975.46-10.12-2.7-14.565L31.4,48.9a4.307,4.307,0,0,0-7.327,4.495l.63,1.088-2.45-.817-3.846-7.691-1.026-4.1a3.792,3.792,0,0,0-7.42,1.543l.1.613-.445-.519a4.331,4.331,0,0,0-6.835,5.3ZM13.1,42.279A.788.788,0,0,1,13.7,42a.8.8,0,0,1,.772.6l1.064,4.259a1.57,1.57,0,0,0,.112.307l2.577,5.156-1.138-.379a1.491,1.491,0,0,1-.61-.427l-2.643-3.084-.918-5.508a.788.788,0,0,1,.175-.645Z" transform="translate(0 18.473)"/>
      <path id="Trazado_169488" data-name="Trazado 169488" d="M25.5,59.482h20.99a1.5,1.5,0,0,0,1.5-1.5V47.488a10.5,10.5,0,0,0-6.24-9.585,9,9,0,1,0-11.508,0A10.5,10.5,0,0,0,24,47.488V57.983A1.5,1.5,0,0,0,25.5,59.482ZM35.994,25a5.97,5.97,0,0,1,4.739,2.364,13.414,13.414,0,0,0-9.478,0A5.97,5.97,0,0,1,35.994,25Zm-5.957,6.4a10.282,10.282,0,0,1,11.913,0,5.968,5.968,0,0,1-11.913,0Zm7.3,15.868-1.343,2.017-1.343-2.017,1.343-4.033ZM27,47.488a7.482,7.482,0,0,1,6.9-7.436l-2.321,6.961a1.5,1.5,0,0,0,.174,1.306l3,4.5a1.5,1.5,0,0,0,2.5,0l3-4.5a1.5,1.5,0,0,0,.174-1.306l-2.321-6.961a7.479,7.479,0,0,1,6.9,7.435v9H27Z" transform="translate(10.984 9.986)"/>
    </g>
  </g>
</svg>
