<svg xmlns="http://www.w3.org/2000/svg" width="150" height="150" viewBox="0 0 150 150">
  <g id="Grupo_115954" data-name="Grupo 115954" transform="translate(-373 -2060.709)">
    <g id="Elipse_5657" data-name="Elipse 5657" transform="translate(373 2060.709)" fill="#fff" stroke="#77b43a" stroke-width="4">
      <circle cx="75" cy="75" r="75" stroke="none"/>
      <circle cx="75" cy="75" r="73" fill="none"/>
    </g>
    <g id="analisis-de-los-datos" transform="translate(401 2084)">
      <g id="Grupo_114647" data-name="Grupo 114647" transform="translate(2.452 2.452)">
        <g id="Grupo_114623" data-name="Grupo 114623" transform="translate(29.032 0)">
          <path id="Trazado_169345" data-name="Trazado 169345" d="M22.465,21.277A15.714,15.714,0,0,1,22,17.5,15.5,15.5,0,0,1,37.5,2h3.832a15.513,15.513,0,0,1,15.5,15.5,15.714,15.714,0,0,1-.465,3.774l-.624,2.511-.015.015a4.252,4.252,0,0,0-3.252-1.481H51.032V19.434a5.808,5.808,0,0,0-5.821-5.806h-.653l-5.806.015-5.792.015h-.015a5.811,5.811,0,0,0-5.139,5.763v2.9H26.355A4.252,4.252,0,0,0,23.1,23.8l-.015-.015Z" transform="translate(-22 -2)" fill="#b27946"/>
        </g>
        <g id="Grupo_114624" data-name="Grupo 114624" transform="translate(39.774 52.258)">
          <path id="Trazado_169346" data-name="Trazado 169346" d="M37.529,38l4.4,16.142h.015a12.35,12.35,0,0,0-.058,1.277,17.571,17.571,0,0,0,.3,3.281,4.193,4.193,0,0,0-1.756-.377,4.318,4.318,0,0,0-3.89,2.41L30.271,57.6l-.871-.435L34.626,38Z" transform="translate(-29.4 -38)" fill="#e6e9ed"/>
        </g>
        <g id="Grupo_114625" data-name="Grupo 114625" transform="translate(43.04 45)">
          <path id="Trazado_169347" data-name="Trazado 169347" d="M38.473,35.047l-1.96,5.211h-2.9l-1.96-5.211L35.061,33Z" transform="translate(-31.65 -33)" fill="#ccd1d9"/>
        </g>
        <g id="Grupo_114626" data-name="Grupo 114626" transform="translate(47.903 43.026)">
          <path id="Trazado_169348" data-name="Trazado 169348" d="M43.347,31.64a23.665,23.665,0,0,1,12.281,9.276,17.375,17.375,0,0,0-16.215,16.1H39.4L35,40.872l1.96-5.211,3.847,2.308Z" transform="translate(-35 -31.64)" fill="#b4dd7f"/>
        </g>
        <g id="Grupo_114627" data-name="Grupo 114627" transform="translate(8.71 37.742)">
          <path id="Trazado_169349" data-name="Trazado 169349" d="M22.516,55.581a4.285,4.285,0,0,0,.871,2.613l-.871.653L17.2,62.839h-.3A8.89,8.89,0,0,1,8,53.94V36.71a2.924,2.924,0,0,0,2.9,2.9,2.912,2.912,0,0,0,2.9-2.9V28a2.848,2.848,0,0,0,.639,1.815l5.444,15.416,3.019,8.55a4.4,4.4,0,0,0-.392,1.8Z" transform="translate(-8 -28)" fill="#b4dd7f"/>
        </g>
        <g id="Grupo_114628" data-name="Grupo 114628" transform="translate(20.598 42.982)">
          <path id="Trazado_169350" data-name="Trazado 169350" d="M27.527,53.95a4.353,4.353,0,0,0-8.318-1.8L16.19,43.6A28.611,28.611,0,0,1,32.23,31.61l2.555,6.373,3.847-2.308,1.96,5.211L35.366,60.047l-7.839-3.919-.465-.232A4.366,4.366,0,0,0,27.527,53.95Z" transform="translate(-16.19 -31.61)" fill="#b4dd7f"/>
        </g>
        <g id="Grupo_114629" data-name="Grupo 114629" transform="translate(46.452 42.097)">
          <path id="Trazado_169351" data-name="Trazado 169351" d="M43.8,31.929l-2.54,6.329L37.411,35.95,34,33.9,39.806,31A23.859,23.859,0,0,1,43.8,31.929Z" transform="translate(-34 -31)" fill="#a0d468"/>
        </g>
        <g id="Grupo_114630" data-name="Grupo 114630" transform="translate(36.639 42.097)">
          <path id="Trazado_169352" data-name="Trazado 169352" d="M37.053,33.9,33.642,35.95l-3.847,2.308L27.24,31.885v-.015A30.219,30.219,0,0,1,31.246,31Z" transform="translate(-27.24 -31)" fill="#a0d468"/>
        </g>
        <g id="Grupo_114631" data-name="Grupo 114631" transform="translate(4.355 67.268)">
          <path id="Trazado_169353" data-name="Trazado 169353" d="M55.429,59.779,32.581,48.572l-.465-.232a4.35,4.35,0,0,1-7.374.668L8.484,61.2A4.355,4.355,0,0,1,5,68.169H70.323a17.376,17.376,0,0,1-14.894-8.39Z" transform="translate(-5 -48.34)" fill="#ffeaa7"/>
        </g>
        <g id="Grupo_114632" data-name="Grupo 114632" transform="translate(69.677 52.258)">
          <path id="Trazado_169354" data-name="Trazado 169354" d="M67.419,55.419a17.311,17.311,0,0,1-2.323,8.71h-.015L50,55.419V38A17.415,17.415,0,0,1,67.419,55.419Z" transform="translate(-50 -38)" fill="#f85316"/>
        </g>
        <g id="Grupo_114633" data-name="Grupo 114633" transform="translate(54.784 69.677)">
          <path id="Trazado_169355" data-name="Trazado 169355" d="M69.716,58.71h.015a17.426,17.426,0,0,1-29.99.319,3.361,3.361,0,0,0,.189-.537L54.634,50Z" transform="translate(-39.74 -50)" fill="#dce736"/>
        </g>
        <g id="Grupo_114634" data-name="Grupo 114634" transform="translate(52.258 52.258)">
          <path id="Trazado_169356" data-name="Trazado 169356" d="M55.419,55.419l-14.7,8.492a3.851,3.851,0,0,0,.189-1.234A4.316,4.316,0,0,0,38.3,58.7a17.572,17.572,0,0,1-.3-3.281,12.35,12.35,0,0,1,.058-1.277,17.375,17.375,0,0,1,16.215-16.1c.377-.029.755-.044,1.147-.044Z" transform="translate(-38 -38)" fill="#3d46c2"/>
        </g>
        <g id="Grupo_114635" data-name="Grupo 114635" transform="translate(46.452 72.581)">
          <path id="Trazado_169357" data-name="Trazado 169357" d="M40.111,52.377a4.316,4.316,0,0,1,2.6,3.977,3.851,3.851,0,0,1-.189,1.234,3.361,3.361,0,0,1-.189.537,4.327,4.327,0,0,1-3.977,2.584,4.024,4.024,0,0,1-1.452-.261A4.308,4.308,0,0,1,34,56.355a4.366,4.366,0,0,1,.465-1.945A4.318,4.318,0,0,1,38.355,52a4.193,4.193,0,0,1,1.756.377Z" transform="translate(-34 -52)" fill="#f85316"/>
        </g>
        <g id="Grupo_114636" data-name="Grupo 114636" transform="translate(23.226 60.968)">
          <path id="Trazado_169358" data-name="Trazado 169358" d="M22.355,44a4.355,4.355,0,1,1-3.484,6.968A4.285,4.285,0,0,1,18,48.355a4.4,4.4,0,0,1,.392-1.8A4.335,4.335,0,0,1,22.355,44Z" transform="translate(-18 -44)" fill="#f85316"/>
        </g>
        <g id="Grupo_114637" data-name="Grupo 114637" transform="translate(0 78.387)">
          <path id="Trazado_169359" data-name="Trazado 169359" d="M9.839,57.742A4.355,4.355,0,1,1,6.355,56,4.379,4.379,0,0,1,9.839,57.742Z" transform="translate(-2 -56)" fill="#f85316"/>
        </g>
        <g id="Grupo_114638" data-name="Grupo 114638" transform="translate(8.71 34.476)">
          <path id="Trazado_169360" data-name="Trazado 169360" d="M13.806,29.016v8.71a2.912,2.912,0,0,1-2.9,2.9,2.924,2.924,0,0,1-2.9-2.9V25.75a11.794,11.794,0,0,0,5.806,0Z" transform="translate(-8 -25.75)" fill="#969faa"/>
        </g>
        <g id="Grupo_114639" data-name="Grupo 114639" transform="translate(0 11.613)">
          <path id="Trazado_169361" data-name="Trazado 169361" d="M13.613,10a11.616,11.616,0,0,1,2.9,22.863,11.794,11.794,0,0,1-5.806,0A11.616,11.616,0,0,1,13.613,10Z" transform="translate(-2 -10)" fill="#dce736"/>
        </g>
        <g id="Grupo_114640" data-name="Grupo 114640" transform="translate(5.806 17.419)">
          <circle id="Elipse_5926" data-name="Elipse 5926" cx="5.806" cy="5.806" r="5.806" fill="#69d6f4"/>
        </g>
        <g id="Grupo_114641" data-name="Grupo 114641" transform="translate(2.903 34.839)">
          <path id="Trazado_169362" data-name="Trazado 169362" d="M9.806,28.9V34.71a2.924,2.924,0,0,1-2.9,2.9A2.912,2.912,0,0,1,4,34.71V28.9A2.924,2.924,0,0,1,6.9,26,2.912,2.912,0,0,1,9.806,28.9Z" transform="translate(-4 -26)" fill="#f0d0b4"/>
        </g>
        <g id="Grupo_114642" data-name="Grupo 114642" transform="translate(14.516 34.839)">
          <path id="Trazado_169363" data-name="Trazado 169363" d="M17.806,28.9a2.912,2.912,0,0,1-2.9,2.9,2.838,2.838,0,0,1-2.047-.856c-.073-.073-.145-.145-.218-.232A2.9,2.9,0,1,1,17.806,28.9Z" transform="translate(-12 -26)" fill="#f0d0b4"/>
        </g>
        <g id="Grupo_114643" data-name="Grupo 114643" transform="translate(58.065 20.323)">
          <path id="Trazado_169364" data-name="Trazado 169364" d="M43.452,16A4.252,4.252,0,0,1,46.7,17.481a4.346,4.346,0,0,1-3.252,7.229H42V16Z" transform="translate(-42 -16)" fill="#f0d0b4"/>
        </g>
        <g id="Grupo_114644" data-name="Grupo 114644" transform="translate(40.645 37.568)">
          <path id="Trazado_169365" data-name="Trazado 169365" d="M40.481,27.88l1.132,4.529-5.806,2.9L30,32.409l1.132-4.529a8.829,8.829,0,0,0,1.771.174H38.71a8.829,8.829,0,0,0,1.771-.174Z" transform="translate(-30 -27.88)" fill="#f0d0b4"/>
        </g>
        <g id="Grupo_114645" data-name="Grupo 114645" transform="translate(34.839 11.627)">
          <path id="Trazado_169366" data-name="Trazado 169366" d="M49.226,18.705v8.71a8.732,8.732,0,0,1-6.939,8.535,8.829,8.829,0,0,1-1.771.174H34.71a8.829,8.829,0,0,1-1.771-.174A8.732,8.732,0,0,1,26,27.415V15.8a5.811,5.811,0,0,1,5.139-5.763h.015l5.792-.015,5.806-.015H43.4a5.808,5.808,0,0,1,5.821,5.806Z" transform="translate(-26 -10.01)" fill="#f0d0b4"/>
        </g>
        <g id="Grupo_114646" data-name="Grupo 114646" transform="translate(29.032 20.323)">
          <path id="Trazado_169367" data-name="Trazado 169367" d="M27.806,16v8.71H26.355A4.338,4.338,0,0,1,23.1,17.481,4.252,4.252,0,0,1,26.355,16Z" transform="translate(-22 -16)" fill="#f0d0b4"/>
        </g>
      </g>
      <g id="Grupo_114648" data-name="Grupo 114648" transform="translate(1 1)">
        <circle id="Elipse_5927" data-name="Elipse 5927" cx="1.452" cy="1.452" r="1.452" transform="translate(52.258 20.323)"/>
        <circle id="Elipse_5928" data-name="Elipse 5928" cx="1.452" cy="1.452" r="1.452" transform="translate(40.645 20.323)"/>
        <path id="Trazado_169368" data-name="Trazado 169368" d="M42.613,21h-2.9a2.906,2.906,0,0,1-2.9,2.9H31v2.9h5.806A5.812,5.812,0,0,0,42.613,21Z" transform="translate(12.548 8.032)"/>
        <path id="Trazado_169369" data-name="Trazado 169369" d="M37,16.917l1.61-2.415A8.312,8.312,0,0,1,34.9,7.573V7H32v.573A11.207,11.207,0,0,0,37,16.917Z" transform="translate(13 1.71)"/>
        <path id="Trazado_169370" data-name="Trazado 169370" d="M41,16.917l1.61-2.415A8.312,8.312,0,0,1,38.9,7.573V7H36v.573A11.207,11.207,0,0,0,41,16.917Z" transform="translate(14.806 1.71)"/>
        <path id="Trazado_169371" data-name="Trazado 169371" d="M12.258,27.516A7.258,7.258,0,1,0,5,20.258,7.266,7.266,0,0,0,12.258,27.516Zm0-11.613A4.355,4.355,0,1,1,7.9,20.258,4.36,4.36,0,0,1,12.258,15.9Z" transform="translate(0.806 4.419)"/>
        <path id="Trazado_169372" data-name="Trazado 169372" d="M49,7H69.323V9.9H49Z" transform="translate(20.677 1.71)"/>
        <path id="Trazado_169373" data-name="Trazado 169373" d="M49,11H69.323v2.9H49Z" transform="translate(20.677 3.516)"/>
        <path id="Trazado_169374" data-name="Trazado 169374" d="M49,15h5.806v2.9H49Z" transform="translate(20.677 5.323)"/>
        <path id="Trazado_169375" data-name="Trazado 169375" d="M55,15H66.613v2.9H55Z" transform="translate(23.387 5.323)"/>
        <path id="Trazado_169376" data-name="Trazado 169376" d="M51,19h2.9v2.9H51Z" transform="translate(21.581 7.129)"/>
        <path id="Trazado_169377" data-name="Trazado 169377" d="M55,19h2.9v2.9H55Z" transform="translate(23.387 7.129)"/>
        <path id="Trazado_169378" data-name="Trazado 169378" d="M59,19h2.9v2.9H59Z" transform="translate(25.194 7.129)"/>
        <path id="Trazado_169379" data-name="Trazado 169379" d="M72.129,53.258c-.145,0-.287.019-.431.022A25.144,25.144,0,0,0,55.9,43.3l-.576-2.3a10.175,10.175,0,0,0,6.532-8.071h.116A5.8,5.8,0,0,0,66.8,23.927l.463-1.852A16.955,16.955,0,0,0,50.812,1H46.993A16.956,16.956,0,0,0,30.54,22.076L31,23.927a5.8,5.8,0,0,0,4.835,9.009h.116a10.177,10.177,0,0,0,6.532,8.071l-.568,2.27A30.066,30.066,0,0,0,23.491,54.312l-3.452-9.78A4.339,4.339,0,0,0,21.7,36.255a13.065,13.065,0,1,0-15.274,0A4.352,4.352,0,0,0,3.9,40.194V46a4.36,4.36,0,0,0,4.355,4.355,4.306,4.306,0,0,0,1.452-.267V66.135a10.362,10.362,0,0,0,7.032,9.794l-6.33,4.748a5.742,5.742,0,0,0-3.6-1.29A5.806,5.806,0,1,0,6.806,91H72.129a18.871,18.871,0,0,0,0-37.742ZM12.172,82.984l3.345-2.508V88.1h-3.71a5.678,5.678,0,0,0,.366-5.113ZM18.419,78.3l5.806-4.355V88.1H18.419ZM32.935,67.774a2.9,2.9,0,1,1-2.9-2.9A2.906,2.906,0,0,1,32.935,67.774Zm-5.806,5a5.625,5.625,0,0,0,5.806,0V88.1H27.129Zm8.71-.473,5.806,2.9V88.1H35.839Zm10.05-24.733-3.529,2.116-1.3-3.253c.6-.139,1.214-.266,1.83-.363Zm9.03-1.5c.615.1,1.23.21,1.83.361l-1.3,3.256-3.529-2.116ZM48.9,49.144l1.623.974-1.177,3.14h-.891l-1.177-3.14Zm-.343,7.017h.685l4.066,14.907c-.02.353-.054.7-.054,1.061,0,.488.03.974.068,1.459-.023,0-.045-.007-.068-.007A5.77,5.77,0,0,0,48.9,75.587L43.94,73.1ZM44.548,76.655l3.035,1.518a5.738,5.738,0,0,0,2.771,6.213V88.1H44.548Zm5.806,2.732a2.9,2.9,0,1,1,2.9,2.9A2.906,2.906,0,0,1,50.355,79.387Zm8.551-1.3a5.808,5.808,0,0,0-2.553-3.6A15.853,15.853,0,0,1,70.677,56.235V71.291Zm9.422-24.444A18.934,18.934,0,0,0,54.666,65L51.879,54.781l1.179-3.143,3.819,2.292,2.636-6.592a22.255,22.255,0,0,1,8.816,6.3Zm-6.361-23.61V24.226a2.9,2.9,0,0,1,0,5.806Zm-29.032-2.9a2.906,2.906,0,0,1,2.9-2.9v5.806A2.906,2.906,0,0,1,32.935,27.129Zm5.806,4.355V19.871a4.345,4.345,0,0,1,2.9-4.094,11.2,11.2,0,0,0,3.556,3.85l1.61-2.415A8.309,8.309,0,0,1,43.1,10.283V9.71h-2.9v.573a11.291,11.291,0,0,0,.36,2.815,7.237,7.237,0,0,0-4.715,6.773v1.452a5.746,5.746,0,0,0-2.368.517l-.116-.466A14.061,14.061,0,0,1,46.994,3.9h3.819a14.061,14.061,0,0,1,13.638,17.47l-.116.466a5.746,5.746,0,0,0-2.368-.517v-2.9h-2.9V31.484a7.266,7.266,0,0,1-7.258,7.258H46a7.266,7.266,0,0,1-7.258-7.258ZM46,41.645h5.806c.226,0,.45-.019.672-.033l.54,2.159L48.9,45.829,44.788,43.77l.54-2.159c.222.015.446.033.672.033Zm-7.746,5.59,2.677,6.693,3.819-2.292,1.179,3.143-4.636,17-5.586-2.793a5.738,5.738,0,0,0-2.771-6.213v-3.71h-2.9v2.9a5.757,5.757,0,0,0-3.435,1.15l-1.929-5.467A27.14,27.14,0,0,1,38.254,47.235ZM12.613,38.656a12.344,12.344,0,0,0,2.9,0V48.9a1.452,1.452,0,0,1-2.9,0Zm7.258,2.989a1.452,1.452,0,1,1,1.452-1.452A1.452,1.452,0,0,1,19.871,41.645ZM3.9,25.677A10.161,10.161,0,1,1,14.065,35.839,10.174,10.174,0,0,1,3.9,25.677ZM8.258,47.452A1.452,1.452,0,0,1,6.806,46V40.194a1.452,1.452,0,1,1,2.9,0V46A1.452,1.452,0,0,1,8.258,47.452Zm4.355,18.684V52.991a4.306,4.306,0,0,0,1.452.267A4.36,4.36,0,0,0,18.419,48.9V48.67L24.534,66a5.538,5.538,0,0,0,.134,3.988l-4.773,3.58a7.443,7.443,0,0,1-7.281-7.428ZM3.9,85.194a2.9,2.9,0,1,1,2.9,2.9A2.906,2.906,0,0,1,3.9,85.194Zm49.355,2.9v-2.9a5.772,5.772,0,0,0,3.932-1.56A18.718,18.718,0,0,0,62.1,88.1Zm18.871,0a15.825,15.825,0,0,1-13.018-6.776l13.018-7.515,13.03,7.522A15.949,15.949,0,0,1,72.129,88.1ZM86.61,78.814,73.581,71.29V56.235A15.923,15.923,0,0,1,86.61,78.814Z" transform="translate(-1 -1)"/>
      </g>
    </g>
  </g>
</svg>
