<svg xmlns="http://www.w3.org/2000/svg" width="150" height="150" viewBox="0 0 150 150">
  <g id="Grupo_115955" data-name="Grupo 115955" transform="translate(1509 10654)">
    <g id="Elipse_5961" data-name="Elipse 5961" transform="translate(-1509 -10654)" fill="#fff" stroke="#77b43a" stroke-width="4">
      <circle cx="75" cy="75" r="75" stroke="none"/>
      <circle cx="75" cy="75" r="73" fill="none"/>
    </g>
    <g id="Grupo_114089" data-name="Grupo 114089" transform="translate(-1499.238 -10653.469)">
      <path id="Trazado_167612" data-name="Trazado 167612" d="M99.83,116.264H27.281l6.475-71.257h59.6Z" transform="translate(-0.327 -3.937)" fill="#fff"/>
      <path id="Trazado_167613" data-name="Trazado 167613" d="M99.508,117.374H26.951a1.436,1.436,0,0,1-1.431-1.567L32,44.553a1.439,1.439,0,0,1,1.431-1.308h59.6a1.439,1.439,0,0,1,1.431,1.308l6.467,71.137a1.567,1.567,0,0,1,.021.249A1.437,1.437,0,0,1,99.508,117.374ZM28.526,114.5h69.4L91.714,46.12H34.742L28.526,114.5Z" transform="translate(0 -3.61)"/>
      <path id="Trazado_167614" data-name="Trazado 167614" d="M80.987,49.31a1.437,1.437,0,0,1-1.436-1.436V37.51a10.871,10.871,0,0,0-21.741,0V47.873a1.436,1.436,0,0,1-2.873,0V37.51a13.745,13.745,0,1,1,27.489,0V47.873A1.437,1.437,0,0,1,80.99,49.31Z" transform="translate(-5.453)"/>
      <circle id="Elipse_5820" data-name="Elipse 5820" cx="29.611" cy="29.611" r="29.611" transform="translate(32.748 47.499)" fill="#dbe636"/>
      <path id="Trazado_167615" data-name="Trazado 167615" d="M42.8,101.993a1.436,1.436,0,0,1-1.175-2.263l14.366-20.4a1.436,1.436,0,0,1,2.4.076l7.485,12.192L80.755,71.4a1.406,1.406,0,0,1,1.206-.583,1.439,1.439,0,0,1,1.164.665l7.94,12.482,15.24-18.442a1.436,1.436,0,0,1,2.213,1.831l-16.5,19.965a1.436,1.436,0,0,1-2.318-.144L81.825,74.795,66.92,95.013A1.418,1.418,0,0,1,65.7,95.6a1.443,1.443,0,0,1-1.164-.683L57.083,82.766,43.975,101.384a1.435,1.435,0,0,1-1.177.61Z" transform="translate(-2.936 -7.642)"/>
      <circle id="Elipse_5821" data-name="Elipse 5821" cx="4.306" cy="4.306" r="4.306" transform="matrix(0.924, -0.383, 0.383, 0.924, 48.582, 70.471)" fill="#f75316"/>
      <circle id="Elipse_5822" data-name="Elipse 5822" cx="4.306" cy="4.306" r="4.306" transform="matrix(0.924, -0.383, 0.383, 0.924, 73.012, 62.808)" fill="#f75316"/>
      <path id="Trazado_167616" data-name="Trazado 167616" d="M89.415,78.989a5.743,5.743,0,1,1,5.743-5.743A5.749,5.749,0,0,1,89.415,78.989Zm0-8.613a2.87,2.87,0,1,0,2.87,2.87A2.873,2.873,0,0,0,89.415,70.376Z" transform="translate(-10.777 -8.105)"/>
      <path id="Trazado_167617" data-name="Trazado 167617" d="M121.04,64.8l-6.14-4.79,6.444-1.928,6.444-1.931-.3,6.721-.3,6.721Z" transform="translate(-16.564 -6.002)" fill="#75b52f"/>
      <path id="Trazado_167618" data-name="Trazado 167618" d="M59.434,88.395a5.743,5.743,0,1,1,5.743-5.743A5.749,5.749,0,0,1,59.434,88.395Zm0-8.613a2.87,2.87,0,1,0,2.87,2.87,2.873,2.873,0,0,0-2.87-2.87Z" transform="translate(-5.222 -9.848)"/>
      <path id="Trazado_167619" data-name="Trazado 167619" d="M126.854,70.7a1.448,1.448,0,0,1-.884-.3l-12.281-9.581a1.437,1.437,0,0,1,.471-2.509l12.89-3.859a1.437,1.437,0,0,1,1.847,1.442l-.61,13.44a1.435,1.435,0,0,1-1.436,1.371Zm-9.2-10.439,7.893,6.159.392-8.639Z" transform="translate(-16.237 -5.675)"/>
    </g>
  </g>
</svg>
