<svg xmlns="http://www.w3.org/2000/svg" width="150" height="150" viewBox="0 0 150 150">
  <g id="Grupo_115958" data-name="Grupo 115958" transform="translate(9198.037 9308.854)">
    <circle id="Elipse_5691" data-name="Elipse 5691" cx="75" cy="75" r="75" transform="translate(-9198.037 -9308.854)" fill="#fff"/>
    <g id="_FILLED_OUTLINE" data-name="/ FILLED_OUTLINE" transform="translate(-9186 -9299)">
      <path id="Trazado_169871" data-name="Trazado 169871" d="M246.5,31.5V24H224V48h33V31.5Z" transform="translate(-169 -6.5)" fill="#3d46c2"/>
      <rect id="Rectángulo_42519" data-name="Rectángulo 42519" width="21" height="18" transform="translate(34 23.5)" fill="#3d46c2"/>
      <path id="Trazado_169872" data-name="Trazado 169872" d="M112,120v-5.8a3,3,0,0,1,1.457-2.572L119.5,108l-1.269-3.807A4.5,4.5,0,0,1,118,102.77V100.5a4.5,4.5,0,0,1,4.5-4.5h0a4.5,4.5,0,0,1,4.5,4.5v2.27a4.5,4.5,0,0,1-.231,1.423L125.5,108l6.043,3.626A3,3,0,0,1,133,114.2V120a3,3,0,0,1-3,3H115A3,3,0,0,1,112,120Z" transform="translate(-78 -65)" fill="#dce736"/>
      <path id="Trazado_169873" data-name="Trazado 169873" d="M288,120v-5.8a3,3,0,0,1,1.457-2.572L295.5,108l-1.269-3.807A4.5,4.5,0,0,1,294,102.77V100.5a4.5,4.5,0,0,1,4.5-4.5h0a4.5,4.5,0,0,1,4.5,4.5v2.27a4.5,4.5,0,0,1-.231,1.423L301.5,108l6.043,3.626A3,3,0,0,1,309,114.2V120a3,3,0,0,1-3,3H291A3,3,0,0,1,288,120Z" transform="translate(-221 -65)" fill="#dce736"/>
      <path id="Trazado_169874" data-name="Trazado 169874" d="M308.393,118.607l6.857-6.857a5.3,5.3,0,0,1,7.5,7.5l4.114-4.114a9,9,0,0,0,2.636-6.364V76.5a4.5,4.5,0,0,1,9,0v40.287a15,15,0,0,1-4.393,10.607l-8.849,8.849a6,6,0,0,0-1.757,4.243V151.5H304V129.213a15,15,0,0,1,4.393-10.607Z" transform="translate(-234 -45.5)" fill="#e8be9b"/>
      <path id="Trazado_169875" data-name="Trazado 169875" d="M1.5,0h9.728a1.5,1.5,0,0,1,1.5,1.5h0a1.5,1.5,0,0,1-1.5,1.5H1.5A1.5,1.5,0,0,1,0,1.5H0A1.5,1.5,0,0,1,1.5,0Z" transform="translate(77.939 82.439) rotate(-45)" fill="#e090b8"/>
      <path id="Trazado_169876" data-name="Trazado 169876" d="M54.107,118.607,47.25,111.75a5.3,5.3,0,0,0-7.5,7.5l-4.114-4.114A9,9,0,0,1,33,108.772V76.5a4.5,4.5,0,0,0-9,0v40.287a15,15,0,0,0,4.393,10.607l8.849,8.849A6,6,0,0,1,39,140.485V151.5H58.5V129.213a15,15,0,0,0-4.393-10.607Z" transform="translate(-6.5 -45.5)" fill="#e8be9b"/>
      <rect id="Rectángulo_42520" data-name="Rectángulo 42520" width="3" height="12.728" rx="1.5" transform="translate(32.939 75.561) rotate(-45)" fill="#e090b8"/>
      <path id="Trazado_169877" data-name="Trazado 169877" d="M200,126V114.2a3,3,0,0,1,1.457-2.572L207.5,108l-1.269-3.807A4.5,4.5,0,0,1,206,102.77V100.5a4.5,4.5,0,0,1,4.5-4.5h0a4.5,4.5,0,0,1,4.5,4.5v2.27a4.5,4.5,0,0,1-.231,1.423L213.5,108l6.043,3.626A3,3,0,0,1,221,114.2V126a3,3,0,0,1-3,3H203A3,3,0,0,1,200,126Z" transform="translate(-149.5 -65)" fill="#75b62f"/>
      <rect id="Rectángulo_42521" data-name="Rectángulo 42521" width="4.5" height="3" transform="translate(59.5 22)" fill="#59cea7"/>
      <rect id="Rectángulo_42522" data-name="Rectángulo 42522" width="4.5" height="3" transform="translate(68.5 22)" fill="#59cea7"/>
      <path id="Trazado_169878" data-name="Trazado 169878" d="M41.81,104.189A6.8,6.8,0,0,0,30.324,107.7l-.127-.127a7.45,7.45,0,0,1-2.2-5.3V70a6,6,0,0,0-12,0v40.287a16.392,16.392,0,0,0,4.833,11.667l8.849,8.849A4.472,4.472,0,0,1,31,133.985V145h3V133.985a7.452,7.452,0,0,0-2.2-5.3l-8.849-8.849A13.411,13.411,0,0,1,19,110.287V70a3,3,0,1,1,6,0v32.272a10.431,10.431,0,0,0,3.075,7.425l13.864,13.864,2.121-2.121-9.75-9.75a3.8,3.8,0,0,1,5.379-5.378l6.857,6.857a13.411,13.411,0,0,1,3.954,9.546V145h3V122.713a16.392,16.392,0,0,0-4.833-11.667Z" transform="translate(0 -39)"/>
      <path id="Trazado_169879" data-name="Trazado 169879" d="M327.5,64a6.007,6.007,0,0,0-6,6v32.272a7.451,7.451,0,0,1-2.2,5.3l-.127.127a6.8,6.8,0,0,0-11.487-3.513l-6.857,6.857A16.392,16.392,0,0,0,296,122.713V145h3V122.713a13.411,13.411,0,0,1,3.954-9.546l6.857-6.857a3.8,3.8,0,0,1,5.379,5.378l-9.75,9.75,2.121,2.121L321.424,109.7a10.431,10.431,0,0,0,3.075-7.425V70a3,3,0,0,1,6,0v40.287a13.411,13.411,0,0,1-3.954,9.546l-8.849,8.849a7.452,7.452,0,0,0-2.2,5.3V145h3V133.985a4.471,4.471,0,0,1,1.318-3.182l8.849-8.849a16.392,16.392,0,0,0,4.833-11.667V70A6.007,6.007,0,0,0,327.5,64Z" transform="translate(-227.5 -39)"/>
      <path id="Trazado_169880" data-name="Trazado 169880" d="M144.5,119.5V118h12a4.505,4.505,0,0,0,4.5-4.5v-5.8a4.523,4.523,0,0,0-2.185-3.859l-5.012-3.007.889-2.666a5.989,5.989,0,0,0,.308-1.9V94a6,6,0,0,0-12,0v2.27a5.988,5.988,0,0,0,.308,1.9l.889,2.666L140.75,102.9l-3.447-2.068.889-2.666a5.988,5.988,0,0,0,.308-1.9V94a6,6,0,1,0-12,0v2.27a5.989,5.989,0,0,0,.308,1.9l.889,2.666L124.25,102.9l-3.446-2.068.889-2.666a5.989,5.989,0,0,0,.308-1.9V94a6,6,0,0,0-12,0v2.27a5.989,5.989,0,0,0,.308,1.9l.889,2.666-5.012,3.007A4.523,4.523,0,0,0,104,107.7v5.8a4.505,4.505,0,0,0,4.5,4.5h12v1.5A4.505,4.505,0,0,0,125,124h15a4.505,4.505,0,0,0,4.5-4.5Zm3.3-17.333-1.65-4.949A2.994,2.994,0,0,1,146,96.27V94a3,3,0,0,1,6,0v2.27a3,3,0,0,1-.154.948l-1.65,4.949,7.075,4.245A1.507,1.507,0,0,1,158,107.7v5.8a1.5,1.5,0,0,1-1.5,1.5h-12v-7.3a4.52,4.52,0,0,0-1.069-2.907ZM108.5,115a1.5,1.5,0,0,1-1.5-1.5v-5.8a1.507,1.507,0,0,1,.728-1.286l7.075-4.245-1.65-4.949A3,3,0,0,1,113,96.27V94a3,3,0,0,1,6,0v2.27a3,3,0,0,1-.154.948l-1.65,4.949,4.373,2.624A4.521,4.521,0,0,0,120.5,107.7V115Zm15,4.5V107.7a1.507,1.507,0,0,1,.728-1.286l7.075-4.245-1.65-4.949a3,3,0,0,1-.154-.948V94a3,3,0,0,1,6,0v2.27a3,3,0,0,1-.154.948l-1.65,4.949,7.075,4.245a1.507,1.507,0,0,1,.728,1.286v11.8A1.5,1.5,0,0,1,140,121H125A1.5,1.5,0,0,1,123.5,119.5Z" transform="translate(-71.5 -58.5)"/>
      <path id="Trazado_169881" data-name="Trazado 169881" d="M107,25h18v3h3V19h19.5v7.5H158v15h3v-18H150.5V16H125v6H104V41.5h3Z" transform="translate(-71.5)"/>
      <rect id="Rectángulo_42523" data-name="Rectángulo 42523" width="4.5" height="3" transform="translate(59.5 22)"/>
      <rect id="Rectángulo_42524" data-name="Rectángulo 42524" width="4.5" height="3" transform="translate(68.5 22)"/>
    </g>
  </g>
</svg>
