<svg xmlns="http://www.w3.org/2000/svg" width="329.943" height="248.914" viewBox="0 0 329.943 248.914">
  <g id="Capa_1" data-name="Capa 1" transform="translate(15.39 11.429)">
    <g id="Grupo_114360" data-name="Grupo 114360" transform="translate(-15.39 -11.429)">
      <path id="Trazado_168827" data-name="Trazado 168827" d="M19.614,211.406C11.56,201.728,4.9,190.144,1.8,177.106s-2.36-27.629,3.42-39.337c7.542-15.283,22.118-23.557,32.532-36.3,15.059-18.424,21.9-46.675,41.2-58.414,13.332-8.1,29.366-6.083,44.092-2.663s29.829,8.045,44.535,4.5c11.738-2.833,22.093-10.633,32.333-17.941C212.453,18.014,225.387,9.531,239.405,4.5s29.331-6.432,43.3-1.185a44.172,44.172,0,0,1,22.168,17.857c5.367,8.657,7.691,20.172,5.063,30.427-3.027,11.8-12.1,21.162-12.789,33.463-.587,10.454,5.133,19.913,11.355,27.41s13.421,14.362,17.15,23.875c7.089,18.081-.458,39.188-9.075,56.323-3.236,6.432-6.77,12.918-11.933,17.274s-12.187,3.8-18.544,3.8H21.217l-1.608-2.35Z" transform="translate(0 0.003)" fill="#75b62f" opacity="0.499"/>
      <g id="Grupo_114353" data-name="Grupo 114353" transform="translate(272.824 184.193)">
        <rect id="Rectángulo_42465" data-name="Rectángulo 42465" width="40.826" height="8.164" rx="1.596" transform="translate(0 8.134)" fill="#172b4d"/>
        <path id="Trazado_168828" data-name="Trazado 168828" d="M168.409,99.281a2.046,2.046,0,0,1-2.046,2.046H132.034a1.011,1.011,0,1,0,0,2.021h36.351a2.046,2.046,0,0,0,2.046-2.046V97.265a2.046,2.046,0,0,0-2.046-2.046H132.034a1.011,1.011,0,1,0,0,2.021h34.329a2.046,2.046,0,0,1,2.046,2.046Z" transform="translate(-127.967 -78.915)" fill="#a5adba"/>
        <path id="Trazado_168829" data-name="Trazado 168829" d="M131.584,98.23a6.535,6.535,0,0,1-.284,2.056h36.933V96.169H131.3a6.535,6.535,0,0,1,.284,2.056Z" transform="translate(-127.661 -77.865)" fill="#fff"/>
        <path id="Trazado_168830" data-name="Trazado 168830" d="M132.491,96.722a76.308,76.308,0,0,1,7.915-.045q4.055,0,8.1.01,3.958,0,7.915.01c2.683,0,5.431-.149,8.1.09a.057.057,0,0,1,0,.115c-2.614.234-5.3.09-7.915.09q-4.055,0-8.1.01-3.958,0-7.915.01a80,80,0,0,1-8.1-.045.12.12,0,0,1,0-.239Z" transform="translate(-126.472 -77.401)" fill="#d9d9d9"/>
        <path id="Trazado_168831" data-name="Trazado 168831" d="M133.667,97.547c2.345-.2,4.719-.114,7.069-.11a51.3,51.3,0,0,1,6.721.119.078.078,0,0,1,0,.149,50.418,50.418,0,0,1-6.721.119c-2.35,0-4.729.095-7.069-.11A.085.085,0,0,1,133.667,97.547Z" transform="translate(-125.135 -76.519)" fill="#d9d9d9"/>
        <path id="Trazado_168832" data-name="Trazado 168832" d="M132.267,91.543a2.046,2.046,0,0,1,2.046-2.046h34.329a1.011,1.011,0,1,0,0-2.021H132.292a2.046,2.046,0,0,0-2.046,2.046v4.037a2.046,2.046,0,0,0,2.046,2.046h36.351a1.011,1.011,0,1,0,0-2.021H134.313a2.046,2.046,0,0,1-2.046-2.046Z" transform="translate(-128.827 -87.476)" fill="#ff5630"/>
        <path id="Trazado_168833" data-name="Trazado 168833" d="M167.793,90.489a6.533,6.533,0,0,1,.284-2.056H131.144V92.55h36.933a6.533,6.533,0,0,1-.284-2.056Z" transform="translate(-127.833 -86.417)" fill="#fff"/>
        <path id="Trazado_168834" data-name="Trazado 168834" d="M164.4,90.1a76.308,76.308,0,0,1-7.915.045q-4.055,0-8.1-.01-3.958,0-7.915-.01c-2.683,0-5.431.149-8.1-.09a.057.057,0,0,1,0-.115c2.614-.234,5.3-.09,7.915-.09q4.055,0,8.1-.01,3.958,0,7.915-.01a79.989,79.989,0,0,1,8.1.045.12.12,0,0,1,0,.239Z" transform="translate(-126.545 -84.987)" fill="#d9d9d9"/>
        <path id="Trazado_168835" data-name="Trazado 168835" d="M145.489,89.273c-2.275.075-4.565.01-6.845.01a42.087,42.087,0,0,1-6.487-.11.036.036,0,0,1,0-.07,42.077,42.077,0,0,1,6.487-.11c2.28,0,4.57-.065,6.845.01a.134.134,0,0,1,0,.269Z" transform="translate(-126.741 -85.878)" fill="#d9d9d9"/>
        <path id="Trazado_168836" data-name="Trazado 168836" d="M153.63,89.27c-2.345.2-4.719.115-7.069.11a51.291,51.291,0,0,1-6.721-.119.078.078,0,0,1,0-.149,50.42,50.42,0,0,1,6.721-.119c2.35,0,4.729-.095,7.069.11A.085.085,0,0,1,153.63,89.27Z" transform="translate(-118.28 -85.86)" fill="#d9d9d9"/>
      </g>
      <g id="Grupo_114355" data-name="Grupo 114355" transform="translate(30.308 74.001)">
        <g id="Grupo_114354" data-name="Grupo 114354">
          <rect id="Rectángulo_42466" data-name="Rectángulo 42466" width="66.16" height="53.455" rx="5.622" fill="#b2d4ff"/>
          <rect id="Rectángulo_42467" data-name="Rectángulo 42467" width="57.707" height="3.281" transform="translate(4.167 3.34)" fill="#f85316"/>
          <path id="Trazado_168837" data-name="Trazado 168837" d="M26.431,50.348h-10.2v-10.2h10.2Zm-9.613-.582h9.03v-9.03h-9.03Z" transform="translate(-12.357 -29.604)" fill="#4c9aff"/>
          <path id="Trazado_168838" data-name="Trazado 168838" d="M26.431,54.913h-10.2v-10.2h10.2Zm-9.613-.582h9.03V45.3h-9.03Z" transform="translate(-12.357 -24.556)" fill="#4c9aff"/>
          <path id="Trazado_168839" data-name="Trazado 168839" d="M26.431,59.476h-10.2v-10.2h10.2Zm-9.613-.582h9.03v-9.03h-9.03Z" transform="translate(-12.357 -19.512)" fill="#4c9aff"/>
          <path id="Trazado_168840" data-name="Trazado 168840" d="M26.431,64.042h-10.2v-10.2h10.2Zm-9.613-.582h9.03v-9.03h-9.03Z" transform="translate(-12.357 -14.464)" fill="#4c9aff"/>
          <path id="Trazado_168841" data-name="Trazado 168841" d="M31,50.348H20.8v-10.2H31v10.2Zm-9.613-.582h9.03v-9.03h-9.03Z" transform="translate(-7.31 -29.604)" fill="#4c9aff"/>
          <path id="Trazado_168842" data-name="Trazado 168842" d="M31,54.913H20.8v-10.2H31v10.2Zm-9.613-.582h9.03V45.3h-9.03Z" transform="translate(-7.31 -24.556)" fill="#4c9aff"/>
          <path id="Trazado_168843" data-name="Trazado 168843" d="M31,59.476H20.8v-10.2H31v10.2Zm-9.613-.582h9.03v-9.03h-9.03Z" transform="translate(-7.31 -19.512)" fill="#4c9aff"/>
          <path id="Trazado_168844" data-name="Trazado 168844" d="M31,64.042H20.8v-10.2H31v10.2Zm-9.613-.582h9.03v-9.03h-9.03Z" transform="translate(-7.31 -14.464)" fill="#4c9aff"/>
          <path id="Trazado_168845" data-name="Trazado 168845" d="M35.559,50.348h-10.2v-10.2h10.2Zm-9.613-.582h9.03v-9.03h-9.03Z" transform="translate(-2.265 -29.604)" fill="#4c9aff"/>
          <path id="Trazado_168846" data-name="Trazado 168846" d="M35.559,54.913h-10.2v-10.2h10.2Zm-9.613-.582h9.03V45.3h-9.03Z" transform="translate(-2.265 -24.556)" fill="#4c9aff"/>
          <path id="Trazado_168847" data-name="Trazado 168847" d="M35.559,59.476h-10.2v-10.2h10.2Zm-9.613-.582h9.03v-9.03h-9.03Z" transform="translate(-2.265 -19.512)" fill="#4c9aff"/>
          <path id="Trazado_168848" data-name="Trazado 168848" d="M35.559,64.042h-10.2v-10.2h10.2Zm-9.613-.582h9.03v-9.03h-9.03Z" transform="translate(-2.265 -14.464)" fill="#4c9aff"/>
          <path id="Trazado_168849" data-name="Trazado 168849" d="M40.125,50.348h-10.2v-10.2h10.2Zm-9.613-.582h9.03v-9.03h-9.03Z" transform="translate(2.782 -29.604)" fill="#4c9aff"/>
          <path id="Trazado_168850" data-name="Trazado 168850" d="M40.125,54.913h-10.2v-10.2h10.2Zm-9.613-.582h9.03V45.3h-9.03Z" transform="translate(2.782 -24.556)" fill="#4c9aff"/>
          <path id="Trazado_168851" data-name="Trazado 168851" d="M40.125,59.476h-10.2v-10.2h10.2Zm-9.613-.582h9.03v-9.03h-9.03Z" transform="translate(2.782 -19.512)" fill="#4c9aff"/>
          <path id="Trazado_168852" data-name="Trazado 168852" d="M40.125,64.042h-10.2v-10.2h10.2Zm-9.613-.582h9.03v-9.03h-9.03Z" transform="translate(2.782 -14.464)" fill="#4c9aff"/>
          <path id="Trazado_168853" data-name="Trazado 168853" d="M44.69,50.348h-10.2v-10.2h10.2Zm-9.613-.582h9.03v-9.03h-9.03Z" transform="translate(7.83 -29.604)" fill="#4c9aff"/>
          <path id="Trazado_168854" data-name="Trazado 168854" d="M44.69,54.913h-10.2v-10.2h10.2Zm-9.613-.582h9.03V45.3h-9.03Z" transform="translate(7.83 -24.556)" fill="#4c9aff"/>
          <path id="Trazado_168855" data-name="Trazado 168855" d="M44.69,59.476h-10.2v-10.2h10.2Zm-9.613-.582h9.03v-9.03h-9.03Z" transform="translate(7.83 -19.512)" fill="#4c9aff"/>
          <path id="Trazado_168856" data-name="Trazado 168856" d="M44.69,64.042h-10.2v-10.2h10.2Zm-9.613-.582h9.03v-9.03h-9.03Z" transform="translate(7.83 -14.464)" fill="#4c9aff"/>
          <path id="Trazado_168857" data-name="Trazado 168857" d="M49.253,50.348h-10.2v-10.2h10.2Zm-9.613-.582h9.03v-9.03H39.64Z" transform="translate(12.874 -29.604)" fill="#4c9aff"/>
          <path id="Trazado_168858" data-name="Trazado 168858" d="M49.253,54.913h-10.2v-10.2h10.2Zm-9.613-.582h9.03V45.3H39.64Z" transform="translate(12.874 -24.556)" fill="#4c9aff"/>
          <path id="Trazado_168859" data-name="Trazado 168859" d="M49.253,59.476h-10.2v-10.2h10.2Zm-9.613-.582h9.03v-9.03H39.64Z" transform="translate(12.874 -19.512)" fill="#4c9aff"/>
          <path id="Trazado_168860" data-name="Trazado 168860" d="M49.253,64.042h-10.2v-10.2h10.2Zm-9.613-.582h9.03v-9.03H39.64Z" transform="translate(12.874 -14.464)" fill="#4c9aff"/>
        </g>
        <path id="Trazado_168861" data-name="Trazado 168861" d="M30.7,50.055c.343-.488-.423-1.07-.826-.637-.916.991-1.722,2.1-2.6,3.121-.478.558-.966,1.1-1.454,1.648-.09-.085-.184-.169-.274-.259-1.3-1.25-2.494-2.609-3.744-3.908-.249-.259-.707.08-.5.388a27,27,0,0,0,3.6,4.266c.09.09.179.174.269.259-.159.179-.319.363-.478.543-.876.966-1.762,1.927-2.643,2.892-.229.254-.841.931-.264,1.185.194.085.5-.05.453-.264,0,0,0,0,.01-.01a1.1,1.1,0,0,1,.159-.144c.09-.08.179-.159.269-.244.189-.184.378-.373.572-.558.388-.363.762-.742,1.135-1.12.513-.518,1.011-1.055,1.5-1.593q1.553,1.449,3.246,2.748a.538.538,0,0,0,.732-.189.545.545,0,0,0-.189-.732c-1.07-.806-2.106-1.668-3.1-2.569.712-.782,1.414-1.578,2.106-2.38s1.424-1.588,2.031-2.449Z" transform="translate(-6.814 -19.528)" fill="#1c2139"/>
        <path id="Trazado_168862" data-name="Trazado 168862" d="M39.823,52.249c-1.384-.906-2.748-1.847-4.1-2.8q1.919-1.829,4.007-3.465a.549.549,0,1,0-.777-.777q-2.143,1.71-4.112,3.624c-.767-.548-1.528-1.1-2.295-1.658A24.782,24.782,0,0,0,30.07,45.5a.318.318,0,0,0-.383.5,19.249,19.249,0,0,0,2.23,1.991c.7.553,1.409,1.09,2.121,1.628A19.942,19.942,0,0,0,31.185,53c-.224.353.269.692.558.433.687-.612,1.3-1.3,1.941-1.961.4-.413.806-.806,1.215-1.2q2.128,1.561,4.321,3.027c.642.428,1.245-.612.6-1.03Z" transform="translate(2.417 -24.187)" fill="#1c2139"/>
      </g>
      <path id="Trazado_168863" data-name="Trazado 168863" d="M148.067,68.745s6.153-5.969,7.487-10.723l-9.6-1.185-2.972,9Z" transform="translate(158.076 62.843)" fill="#f68a73"/>
      <path id="Trazado_168864" data-name="Trazado 168864" d="M140.41,70.27s18.285,6.636,25.722,6.472c0,0,7.716-24.408,8.577-30.78L150.938,43.7S150.4,54.146,140.409,70.27Z" transform="translate(155.234 48.315)" fill="#dfe1e5"/>
      <path id="Trazado_168865" data-name="Trazado 168865" d="M155.52,46.091a2.93,2.93,0,0,0-1.389.309c-.438.144-.866.309-1.294.483a23.338,23.338,0,0,0-2.683,1.294c-.209.115-.408.239-.612.363-.363-.408-.722-.816-1.065-1.24-.224-.279-.458-.553-.687-.831a3.375,3.375,0,0,0-.707-.772.162.162,0,0,0-.239.174,2.686,2.686,0,0,0,.468.871c.2.3.4.607.622.9.319.428.652.846.986,1.259-.423.264-.836.538-1.245.821a15.786,15.786,0,0,0-2.29,1.852c-.239.249.065.727.378.508.777-.543,1.513-1.14,2.295-1.673.453-.309.916-.6,1.389-.876.423.5.871.981,1.329,1.449.264.274.538.543.811.806a2.068,2.068,0,0,0,.851.632c.214.05.488-.134.4-.383a1.944,1.944,0,0,0-.632-.762c-.264-.244-.528-.493-.782-.747-.453-.448-.891-.906-1.319-1.374.129-.075.259-.154.393-.224.821-.443,1.658-.841,2.514-1.2.428-.179.856-.358,1.289-.528.244-.095.488-.184.732-.274a1.357,1.357,0,0,0,.607-.309.316.316,0,0,0-.129-.528Z" transform="translate(160.639 50.501)" fill="#505f79"/>
      <path id="Trazado_168866" data-name="Trazado 168866" d="M151.624,52.648a2.133,2.133,0,0,0-1.04.523c-.329.214-.657.418-.991.622-.523.324-1.065.622-1.608.911-.025-.04-.055-.075-.085-.114a16.9,16.9,0,0,1-1.14-1.917c-.159-.324-.329-.642-.478-.971a3.3,3.3,0,0,0-.543-.946.077.077,0,0,0-.129.05,4.568,4.568,0,0,0,.607,2.166,16.222,16.222,0,0,0,1.11,2.071c-.851.423-1.817.687-2.638,1.16s-.6.871.184.826c.324-.015,2.922-1.319,2.972-1.245.279.383.568.762.876,1.125.259.3.533.6.816.886a1.759,1.759,0,0,0,.9.567.272.272,0,0,0,.274-.338,2.068,2.068,0,0,0-.632-.836c-.259-.254-.513-.513-.757-.777-.284-.309-.553-.632-.806-.966.513-.264,1.026-.538,1.523-.836.353-.209.7-.433,1.04-.667s.737-.433.886-.816a.377.377,0,0,0-.349-.483Z" transform="translate(159.398 56.096)" fill="#505f79"/>
      <path id="Trazado_168867" data-name="Trazado 168867" d="M158.3,48.012a2.225,2.225,0,0,0-.906-.194c-.284-.035-.568-.065-.851-.1-.587-.075-1.17-.154-1.752-.249-1.18-.189-2.355-.408-3.539-.572-.319-.045-.373.443-.09.538a23.467,23.467,0,0,0,3.495.831c.577.1,1.155.189,1.737.274.284.04.568.08.846.11a2.192,2.192,0,0,0,.951.025.373.373,0,0,0,.1-.672Z" transform="translate(166.918 51.851)" fill="#505f79"/>
      <path id="Trazado_168868" data-name="Trazado 168868" d="M155.172,49.182c-.114-.219-.329-.264-.548-.324-.194-.05-.388-.095-.582-.139-.388-.085-.782-.149-1.175-.209s-.767-.1-1.15-.134a4.036,4.036,0,0,0-1.2.01.3.3,0,0,0-.015.572,5.634,5.634,0,0,0,1.115.2c.373.05.747.11,1.115.174s.732.139,1.1.214c.184.035.368.075.548.115.219.045.448.129.652-.01a.355.355,0,0,0,.134-.473Z" transform="translate(166.164 53.444)" fill="#505f79"/>
      <path id="Trazado_168869" data-name="Trazado 168869" d="M157.4,53.742a1.645,1.645,0,0,0-.906-.378c-.358-.085-.717-.164-1.07-.239-.737-.159-1.478-.324-2.215-.483-.717-.154-1.434-.319-2.156-.453-.353-.065-.7-.154-1.06-.209a2.977,2.977,0,0,0-1.045-.07.221.221,0,0,0-.065.4,2.978,2.978,0,0,0,.951.368c.349.1.712.174,1.065.269.732.189,1.469.353,2.205.528.712.169,1.429.334,2.141.5q.538.127,1.075.239a1.648,1.648,0,0,0,1.016.025.317.317,0,0,0,.075-.493Z" transform="translate(164.496 57.367)" fill="#505f79"/>
      <path id="Trazado_168870" data-name="Trazado 168870" d="M153.367,54.255a3.191,3.191,0,0,0-1.021-.378,11.032,11.032,0,0,0-1.135-.264,11.99,11.99,0,0,0-2.235-.139.321.321,0,0,0-.02.642c.722.08,1.444.164,2.156.279.348.055.7.095,1.05.149a4.657,4.657,0,0,0,1.075.144A.236.236,0,0,0,153.367,54.255Z" transform="translate(164.35 59.118)" fill="#505f79"/>
      <path id="Trazado_168871" data-name="Trazado 168871" d="M148.264,54.127a4,4,0,0,1-.12.682,10.808,10.808,0,0,0,.543,6.765c.846,2.086.095,4.824-.717,6.8-.946,2.3-3.161,3.559-5.152,1.613-2.1-2.041-.632-5.839.234-8.164a28.267,28.267,0,0,1,1.3-3.186c.6-1.165.821-2.5,1.424-3.684a3.519,3.519,0,0,1,1.369-1.628.87.87,0,0,1,.553-.119.776.776,0,0,1,.563.682,1.387,1.387,0,0,1,.01.249Z" transform="translate(156.709 58.818)" fill="#ffb69e"/>
      <path id="Trazado_168872" data-name="Trazado 168872" d="M127.479,46.544a11.086,11.086,0,0,1,.617-6.815c1.065-2.116,3.46-3.943,5.332-5.3a1.023,1.023,0,0,1,.5-.234c.622-.04.712.9.513,1.488a20.94,20.94,0,0,1-1.464,2.887c.622-.065,5.088-2.922,8.413-8.672.528-.911,1.434-2.215,2.529-.866a3.279,3.279,0,0,1,.413,2.579c-.667,4.416-3.415,8.094-6.138,11.48s-1.633,8.045-1.563,12.027a10,10,0,0,1-.174,2.559c-1.05,4.271-7.975,5.063-8.239-.07-.07-1.354.259-2.7.314-4.052a30.113,30.113,0,0,0-1-6.691c-.02-.11-.04-.214-.06-.324Z" transform="translate(140.661 31.465)" fill="#ffb69e"/>
      <path id="Trazado_168873" data-name="Trazado 168873" d="M101.953,104.535s40.756-17.279,45.157-23,7.333-42.583,7.333-42.583,6.671-2.26,11.873-.11c0,0,6.73,39.4-5.023,54.386s-36.833,27.932-36.833,27.932-17.4-5.7-22.511-16.627Z" transform="translate(112.712 41.923)" fill="#3d46c2"/>
      <path id="Trazado_168874" data-name="Trazado 168874" d="M108.6,80.173s37.147,7.99,44.007,5.75S177.857,60.23,177.857,60.23s7.358-.418,10.444,4.286c0,0-10.937,35.549-29.1,41.3s-48.861,2.668-48.861,2.668-3.694-16.408-1.747-28.316Z" transform="translate(119.435 66.584)" fill="#283098"/>
      <path id="Trazado_168875" data-name="Trazado 168875" d="M41.369,56.227a8.021,8.021,0,0,1,4.56,1.09c1.782,1.245,2.429,3.534,2.962,5.645A44.418,44.418,0,0,1,50.7,74.144a2.043,2.043,0,0,1-.329,1.319,1.8,1.8,0,0,1-.737.483,4.738,4.738,0,0,1-4.49-.6,7.11,7.11,0,0,1-2.409-5.227c-.159-1.971.085-3.963-.11-5.934-.174-1.747-.891-3.674-2.524-4.326a7.643,7.643,0,0,0-2.479-.314,3.608,3.608,0,0,1-2.34-.757c-1.2-1.135-.348-1.971.831-2.136a34.968,34.968,0,0,1,5.252-.418Z" transform="translate(38.368 62.169)" fill="#ffb69e"/>
      <g id="Grupo_114356" data-name="Grupo 114356" transform="translate(67.281 116.514)">
        <path id="Trazado_168876" data-name="Trazado 168876" d="M56.523,70.462c.284-.468.543-.951.816-1.429L34.27,55.468l-2.315-.134L33.2,57.295l23.094,13.58c.075-.139.149-.279.234-.413Z" transform="translate(-31.951 -55.333)" fill="#1c2139"/>
        <path id="Trazado_168877" data-name="Trazado 168877" d="M34.268,55.47,33.2,57.292l-.8-1.25-.448-.707.836.045Z" transform="translate(-31.953 -55.331)" fill="#fff"/>
        <path id="Trazado_168878" data-name="Trazado 168878" d="M32.79,55.381l-.388.662-.448-.707Z" transform="translate(-31.953 -55.331)" fill="#1c2139"/>
        <path id="Trazado_168879" data-name="Trazado 168879" d="M44.427,61.755l3.226,1.9a.529.529,0,0,1,.189.727l-.538.911a.529.529,0,0,1-.727.189l-3.226-1.9,1.075-1.827Z" transform="translate(-19.352 -48.234)" fill="#fff"/>
        <rect id="Rectángulo_42468" data-name="Rectángulo 42468" width="2.116" height="1.548" transform="translate(23.814 15.222) rotate(-59.55)" fill="#8993a4"/>
      </g>
      <path id="Trazado_168880" data-name="Trazado 168880" d="M37.792,69.676a22.12,22.12,0,0,1-1.011-5.536l-.448-4.7c-.075-.8.09-1.9.886-1.941a1.22,1.22,0,0,1,.806.334c1.195.991,1.424,2.693,1.772,4.207a17.637,17.637,0,0,0,3.315,6.9,9.4,9.4,0,0,1,2.081,3.276,2.38,2.38,0,0,1-3.335,2.857c-1.827-.926-3.4-3.554-4.072-5.391Z" transform="translate(40.152 63.57)" fill="#ffb69e"/>
      <path id="Trazado_168881" data-name="Trazado 168881" d="M90.979,53.2a25.365,25.365,0,0,0-3.883,5.74,16.564,16.564,0,0,1-4.266,5.421,25.2,25.2,0,0,1-4.714,2.375A9.8,9.8,0,0,0,73.9,69.823a4.2,4.2,0,0,0-.085,4.923A4.1,4.1,0,0,0,77.4,76a9.058,9.058,0,0,0,3.649-1.434,23.217,23.217,0,0,1,6.974-3.211,26.691,26.691,0,0,0,5.337-1.6c2.051-.976,3.161-3.2,4.092-5.267A13.413,13.413,0,0,0,98.9,59.747c.07-1.429-.314-2.862-.124-4.281a12.336,12.336,0,0,0,.418-2.892c-.433-3.908-6.78-.8-8.219.622Z" transform="translate(80.773 56.031)" fill="#ffb69e"/>
      <g id="Grupo_114357" data-name="Grupo 114357" transform="translate(167.96 103.134)">
        <rect id="Rectángulo_42469" data-name="Rectángulo 42469" width="20.002" height="11.335" rx="0.605" transform="matrix(0.52, -0.854, 0.854, 0.52, 0, 17.084)" fill="#344563"/>
        <rect id="Rectángulo_42470" data-name="Rectángulo 42470" width="17.663" height="9.001" rx="0.05" transform="matrix(0.52, -0.854, 0.854, 0.52, 1.601, 16.695)" fill="#ebecf0"/>
      </g>
      <path id="Trazado_168882" data-name="Trazado 168882" d="M104.384,66.546s-.055-9.13-5.884-9.6c-.7-.055-35.514,17.379-38.86,20.669-4.221,4.152-5.75,14.81,3.8,19.39s46.143,5.282,46.143,5.282l1.03-20.49-33.005.8,26.768-16.055Z" transform="translate(62.29 62.966)" fill="#3d46c2"/>
      <path id="Trazado_168883" data-name="Trazado 168883" d="M130.912,75.342S89.27,90.366,82.156,89.161,47.836,62.906,47.836,62.906s-7.542,1.23-9.9,6.337c0,0,22.949,35.121,41.762,38.133s46-4.545,46-4.545,8.9-16,5.212-27.494Z" transform="translate(41.941 69.553)" fill="#333ba5"/>
      <path id="Trazado_168884" data-name="Trazado 168884" d="M67.489,121.922c5.426-.458,28.3-7.781,28.973-9.707,12.017-34.3,20-41.6,22.213-43.086s8.9-.329,10.977,1.339c1.887,1.518,2.325,4.2,2.35,6.626.095,9.936-4.436,19.31-9.523,27.853-3.754,6.3-12.709,22.78-17.832,24.856-12.874,5.217-46.845,4-52.092,2.37-4.455-1.379-5.854-4.187-1.941-6.566,4.132-2.509,12.1-3.684,16.871-3.684Z" transform="translate(53.426 75.677)" fill="#3d46c2"/>
      <path id="Trazado_168885" data-name="Trazado 168885" d="M116.332,68.327c-.139-1.543.174-2.882-.338-4.436a7.912,7.912,0,0,0-2.584-3.843,3.616,3.616,0,0,0-2.549-.811,2.09,2.09,0,0,0-1.852,1.732,3.4,3.4,0,0,0,1.08,2.33,9.652,9.652,0,0,1-6.516-3.385,13.079,13.079,0,0,0,1.488,8.3A16.011,16.011,0,0,1,95.1,63.921c-1.882-1.678-3.525-3.858-3.714-6.372a12.8,12.8,0,0,0-2.509,7.034c-.01.468.169,4.192-.513,4.147-.383-.025-.861-1.359-.976-1.623A22.31,22.31,0,0,1,85.622,58.2a12.861,12.861,0,0,1,9.9-13.57,12.472,12.472,0,0,1,4.147-.826,25.335,25.335,0,0,1,2.783.408c2.753.4,5.566-.174,8.333.11a13.562,13.562,0,0,1,8.353,4.112,16.739,16.739,0,0,1,4.112,10.688,51.054,51.054,0,0,1-.085,5.451,7.331,7.331,0,0,1-1.548,4.575c-1.628,1.693-5.018,2.066-5.287-.836Z" transform="translate(94.663 48.431)" fill="#1c2139"/>
      <path id="Trazado_168886" data-name="Trazado 168886" d="M143.3,140.957H81.605q.284-3.211.528-6.427c.259-3.435.5-6.875.742-10.315.045-.523.07-1.045.119-1.563h0c.319-4.475.662-8.941,1.09-13.391.373-3.873.806-7.736,1.354-11.579.04-.339.09-.682.144-1.016.5-3.415,1.09-6.825,1.807-10.21a39.126,39.126,0,0,1,3.729-11.131,17.189,17.189,0,0,1,2.066-2.977,13.389,13.389,0,0,1,3.286-2.778,15.3,15.3,0,0,1,4.575-1.782h.02c.159-.04.319-.07.493-.11h0a54.1,54.1,0,0,1,9.578-.657c2.161-.02,4.2-.035,6.108.119.015,0,.02,0,.03.01.338.02.672.055.991.09a16.285,16.285,0,0,1,4.231,1.06h0a12.659,12.659,0,0,1,4.351,3.022,16.055,16.055,0,0,1,1.409,1.712,30.683,30.683,0,0,1,2.444,4.047,37.1,37.1,0,0,1,1.927,4.51,55.219,55.219,0,0,1,1.991,7.3c.209.991.393,1.986.568,2.987.478,2.758.846,5.561,1.215,8.348.329,2.474.657,4.943,1.06,7.368.428,2.6,1.13,5.182,1.752,7.761a51.606,51.606,0,0,1,1.14,5.6c.468,3.291.373,6.412.772,9.663a26.6,26.6,0,0,0,.662,3.475c.035.144.075.289.11.433.5,1.922.921,3.863,1.289,5.8.035.2.075.413.11.617Z" transform="translate(90.222 74.09)" fill="#fff"/>
      <path id="Trazado_168887" data-name="Trazado 168887" d="M107.183,72.827s-6.984,6.825-16.328.363l.528-4.66h0l.144-1.279.582-5.516,14.168,1.215.314,3.38s.015,0,0,0l.11,1.235.488,5.257Z" transform="translate(100.447 68.259)" fill="#ffb69e"/>
      <path id="Trazado_168888" data-name="Trazado 168888" d="M91.1,68.531h0l.144-1.279.582-5.516L106,62.951S102.866,71.518,91.1,68.531Z" transform="translate(100.722 68.259)" fill="#f68a73"/>
      <path id="Trazado_168889" data-name="Trazado 168889" d="M89.712,55.747s-2.385-2.484-3.973-.9-.3,9.936,5.167,9.737Z" transform="translate(94.093 60.061)" fill="#ffb69e"/>
      <path id="Trazado_168890" data-name="Trazado 168890" d="M116.012,67.61c-1.19,6.362-4.57,14.7-14.312,14.7S88.588,73.968,87.4,67.606c-.692-3.679-.289-7.612.129-11.3.388-3.45,1.752-7.009,5.69-7.587,2.574-.378,5.128.861,7.726.787,2.225-.065,4.356-1.1,6.581-1.065a8.46,8.46,0,0,1,5.929,2.843,9.362,9.362,0,0,1,2.663,7.039c-.085,3.121.483,6.163-.1,9.284Z" transform="translate(96.213 53.559)" fill="#ffb69e"/>
      <path id="Trazado_168891" data-name="Trazado 168891" d="M93.442,57.53s-.015.025,0,.025A.013.013,0,0,0,93.442,57.53Z" transform="translate(103.301 63.609)" fill="#594e8a"/>
      <path id="Trazado_168892" data-name="Trazado 168892" d="M95.546,61.29a2.215,2.215,0,0,0-1.125-.2c-.254,0-.508-.015-.767-.02.194-1.1.388-2.2.572-3.3.1-.622.2-1.249.3-1.877a4.925,4.925,0,0,0,.139-1.8.2.2,0,0,0-.368-.05,4.966,4.966,0,0,0-.488,1.727c-.129.617-.249,1.24-.368,1.857q-.351,1.859-.687,3.729a.423.423,0,0,0,.4.528c.418.01.836.025,1.259.035a2.221,2.221,0,0,0,1.125-.144.287.287,0,0,0,0-.493Z" transform="translate(102.536 59.655)" fill="#f68a73"/>
      <path id="Trazado_168893" data-name="Trazado 168893" d="M88.391,58.262a1.622,1.622,0,0,0-.115-.4,2.285,2.285,0,0,0-.194-.339,4.67,4.67,0,0,0-.5-.627,2.832,2.832,0,0,0-1.314-.876c-.169-.04-.319.179-.179.3.358.324.762.587,1.09.946l.09.1a.8.8,0,0,0-.11,0c-.1.01-.2.02-.3.04a4.6,4.6,0,0,0-.453.1.271.271,0,0,0-.189.289.267.267,0,0,0,.259.229,3.514,3.514,0,0,0,.458,0c.075,0,.149-.015.224-.02a.789.789,0,0,0,.184-.03c.035-.01.075-.03.11-.04a.423.423,0,0,0,.164-.119c.06.095.119.194.179.289s.144.2.219.3a.2.2,0,0,0,.174.1.265.265,0,0,0,.144-.06.194.194,0,0,0,.05-.2Z" transform="translate(95.12 61.931)" fill="#f68a73"/>
      <path id="Trazado_168894" data-name="Trazado 168894" d="M104.99,67.265h0s-.01.149-.045.418c-.03.378-.1,1.016-.179,1.852l-.617,5.909h0c-.08.821-1.075,11.29-2.29,24.184-.543,5.8-1.135,12.087-1.712,18.215-.553,5.874-1.09,11.594-1.558,16.582-.219,2.315-.418,4.48-.607,6.427h-19.9c.2-1.917.433-4.077.682-6.427.4-3.719.851-7.905,1.319-12.3.966-8.956,2.031-18.808,2.977-27.474.139-1.245.269-2.459.4-3.649,1.125-10.23,2.016-18.2,2.27-20.007a2.305,2.305,0,0,1,.065-.388.513.513,0,0,0,.07-.02c.7-.174,1.742-.413,2.862-.662,1.593-.348,3.33-.717,4.421-.951.284-.065.563-.124.826-.189,2.708-.582,5.361-1.08,7.393-1.379h.01c2.056-.3,3.465-.408,3.609-.164h0a.071.071,0,0,0,.01.02Z" transform="translate(86.322 74.195)" fill="#3d46c2"/>
      <path id="Trazado_168895" data-name="Trazado 168895" d="M94.469,77.372s-.687-3.52-2.509-3.649c-.981-.07-3.654,3.3-5.128,4.072,0,0,3.664-5.76,4.445-7.582s2.036-4.147,4.445-4.849L94.464,77.372Z" transform="translate(96.001 72.272)" fill="#0065ff"/>
      <path id="Trazado_168896" data-name="Trazado 168896" d="M129.506,141.159H106.482c-.319-1.792-.627-3.564-.931-5.332-.065-.368-.139-.722-.2-1.1a.018.018,0,0,1,0-.015V134.7c-.662-3.858-1.279-7.666-1.852-11.455q-.433-2.785-.816-5.556c-.025-.2-.055-.4-.08-.6q-.523-3.674-.976-7.353c-.119-.916-.229-1.832-.338-2.753-.015-.159-.035-.329-.055-.5-.528-4.411-.986-8.841-1.369-13.337-.025-.309-.06-.607-.08-.916q-.314-3.592-.553-7.243c-.035-.388-.055-.767-.075-1.165-.174-2.524-.319-5.063-.438-7.651,0,0,0-.085-.01-.239-.01-.11-.01-.2-.02-.309,0-.06,0-.169,0-.3v-.134a50.963,50.963,0,0,1,.717-7.751,1.35,1.35,0,0,1,.259-.6,32.507,32.507,0,0,1,3.554.931c2.569.806,14.168,4.4,14.272,4.416a7.276,7.276,0,0,1,1.454.682c1.5,1.334.777,6.138,1.09,7.741q.545,2.8,1.05,5.605c.951,5.332,1.792,10.688,2.6,16.045.577,3.788,1.145,7.587,1.732,11.375.025.179.055.373.08.563,0,.055.025.11.03.164.06.373.11.747.164,1.125q.777,5,1.518,9.991c.194,1.314.383,2.623.582,3.938.025.179.055.358.08.543.055.358.1.717.159,1.075.184,1.235.368,2.474.548,3.7,0,.01,0,.02,0,.03.05.339.1.682.144,1.016.264,1.792.533,3.584.787,5.376Z" transform="translate(109.103 73.888)" fill="#3d46c2"/>
      <path id="Trazado_168897" data-name="Trazado 168897" d="M98.377,64.507c.259.373.662,14.238.662,14.238s.662-5.033,3.052-4.973,3.544,3.649,5.859,4.142c0,0-3.624-6.108-5.088-8.786-1.085-1.986-4.485-4.615-4.485-4.615Z" transform="translate(108.765 71.323)" fill="#0065ff"/>
      <path id="Trazado_168898" data-name="Trazado 168898" d="M85.794,51.455c-1.6-2.489-2.514-5.75-1.165-8.378a2.623,2.623,0,0,1,2.589-1.648,3.329,3.329,0,0,1,1.623,1.17c.876.966,1.752,1.927,2.633,2.892a2.446,2.446,0,0,1,1.862-3.081c1.782-.269,3.146,1.439,4.61,2.5,3.813,2.773,14.352.159,15.009,6.392a4.614,4.614,0,0,1-1.578,3.584c-2.111,2.121-5.292,3.136-8.4,3.739-3.6.7-6.591.747-9.941-.851a17.709,17.709,0,0,1-7.188-6.263c-.015-.025-.03-.045-.045-.07Z" transform="translate(92.843 45.77)" fill="#1c2139"/>
      <path id="Trazado_168899" data-name="Trazado 168899" d="M96.1,55.264a1.249,1.249,0,0,1,.329-.951.8.8,0,0,1,.911-.134,1.038,1.038,0,0,1,.533.682,2.2,2.2,0,0,1,.045.806,1.18,1.18,0,0,1-.373.806.885.885,0,0,1-1,.124,1.071,1.071,0,0,1-.438-.876,2.342,2.342,0,0,1,0-.458Z" transform="translate(106.238 59.812)" fill="#1c2139"/>
      <path id="Trazado_168900" data-name="Trazado 168900" d="M90.237,55.264a1.249,1.249,0,0,1,.329-.951.8.8,0,0,1,.911-.134,1.038,1.038,0,0,1,.533.682,2.2,2.2,0,0,1,.045.806,1.18,1.18,0,0,1-.373.806.885.885,0,0,1-1,.124,1.071,1.071,0,0,1-.438-.876,2.342,2.342,0,0,1,0-.458Z" transform="translate(99.755 59.812)" fill="#1c2139"/>
      <path id="Trazado_168901" data-name="Trazado 168901" d="M100.921,55.834s2.823-2.579,4.416-.991.3,9.936-5.167,9.737Z" transform="translate(110.746 60.068)" fill="#ffb69e"/>
      <path id="Trazado_168902" data-name="Trazado 168902" d="M102.945,56.573a3.373,3.373,0,0,0,.343-.309.325.325,0,0,0-.393-.508,3.413,3.413,0,0,0-.767.627,8.568,8.568,0,0,0-.652.692c-.2.249-.4.5-.582.772a4.409,4.409,0,0,0-.239.423.64.64,0,0,0-.11.488.194.194,0,0,0,.224.129c.164-.03.274-.189.363-.309s.194-.244.289-.368c.124-.159.254-.314.383-.468h.035a1.167,1.167,0,0,0,.124.095c.05.035.1.075.149.11l-.075-.06a4.545,4.545,0,0,0,.393.269,1.352,1.352,0,0,0,.174.08.649.649,0,0,0,.085.04.318.318,0,0,0,.244.02.229.229,0,0,0,.164-.164.412.412,0,0,0,0-.174.425.425,0,0,0-.065-.124c-.03-.045-.06-.095-.095-.139a.963.963,0,0,0-.169-.179c-.055-.05-.115-.095-.174-.139a1.381,1.381,0,0,0-.184-.11c-.04-.02-.085-.04-.129-.06.1-.11.2-.219.314-.324s.224-.209.343-.314Z" transform="translate(111.141 61.604)" fill="#f68a73"/>
      <path id="Trazado_168903" data-name="Trazado 168903" d="M93.1,57.289s.015.02,0,.02A.01.01,0,1,1,93.1,57.289Z" transform="translate(102.922 63.343)" fill="#594e8a"/>
      <path id="Trazado_168904" data-name="Trazado 168904" d="M106.671,87.708a3.52,3.52,0,0,0-1.454-2.006,5.358,5.358,0,0,0-4.256-.314l.259-2.838H83.707l.488,5.381,1.155,12.834H99.578l.378-4.192a7,7,0,0,0,.881.06,6.075,6.075,0,0,0,.941-.07,5.718,5.718,0,0,0,2.628-1.085c1.115-.831,2.459-2.519,2.514-5.795a6.527,6.527,0,0,0-.244-1.981Zm-3.554,6.058a3.758,3.758,0,0,1-1.817.7,4.364,4.364,0,0,1-1.15-.03l.6-6.7c.737-.3,2.419-.8,3.3-.219a.794.794,0,0,1,.129.1,2.616,2.616,0,0,1,.587,2.036c-.035,1.932-.587,3.315-1.653,4.112Z" transform="translate(92.546 91.272)" fill="#172b4d"/>
      <path id="Trazado_168905" data-name="Trazado 168905" d="M118.683,96.1q-2.472-.792-4.938-1.578c-2.051-.657-4.938-.966-6.093-2.853-1.474-2.419-4.854-2.907-6.8-4.978a11.44,11.44,0,0,1-1.922-3.31,3,3,0,0,0-.6-.991,1.017,1.017,0,0,0-1.065-.264c-.5.224-.6.891-.577,1.439A11.332,11.332,0,0,0,98,88.313a17.473,17.473,0,0,0-2.534-.219,3.382,3.382,0,0,0-2.8,1.528,4.748,4.748,0,0,0-.473,2.071c-.169,2.813-.632,5.506,1.976,7.3a12.606,12.606,0,0,0,3.3,1.474,20.056,20.056,0,0,0,6.093,1.19c.149,0,.3,0,.468-.01,1.18.886,4.953,3.664,10,6.83a62.953,62.953,0,0,1,4.64-12.381Z" transform="translate(101.771 90.732)" fill="#ffb69e"/>
      <path id="Trazado_168906" data-name="Trazado 168906" d="M100.061,60.729a7.115,7.115,0,0,0-6.3-.986,4.512,4.512,0,0,0-1.907,1.075c-.189.2,0,.6.289.493.612-.214,1.18-.508,1.807-.692a6.8,6.8,0,0,1,1.976-.279,6.191,6.191,0,0,1,3.649,1.23.489.489,0,0,0,.667-.174.5.5,0,0,0-.174-.667Z" transform="translate(101.466 65.682)" fill="#f68a73"/>
      <path id="Trazado_168907" data-name="Trazado 168907" d="M95.836,52.466a.5.5,0,0,0-.592-.339,25.335,25.335,0,0,1-2.808.368c-.468.025-.931.035-1.4.025a2.874,2.874,0,0,0-1.4.1.321.321,0,0,0-.065.5,2.364,2.364,0,0,0,1.409.319c.5.025,1.006.03,1.508,0a14.515,14.515,0,0,0,3.007-.4.5.5,0,0,0,.338-.592Z" transform="translate(98.926 57.627)" fill="#1c2139"/>
      <path id="Trazado_168908" data-name="Trazado 168908" d="M101.914,53.135a20.584,20.584,0,0,1-3.45-.358c-.553-.11-1.1-.229-1.648-.363-.274-.065-.543-.129-.816-.189a1.115,1.115,0,0,0-.811-.015.261.261,0,0,0-.119.289c.115.279.339.363.607.488a8.131,8.131,0,0,0,.777.309,14.967,14.967,0,0,0,1.8.468,22,22,0,0,0,3.659.393.511.511,0,0,0,0-1.021Z" transform="translate(105.094 57.645)" fill="#1c2139"/>
      <path id="Trazado_168909" data-name="Trazado 168909" d="M118.7,12.571H46.824a3.059,3.059,0,0,0-3.062,3.062v29.63a3.059,3.059,0,0,0,3.062,3.062h53.739c6.536,5.137,19.086,15.348,19.086,15.348L109.9,48.324h8.8a3.059,3.059,0,0,0,3.062-3.062V15.632A3.059,3.059,0,0,0,118.7,12.571Z" transform="translate(48.384 13.904)" fill="#f3f9ff" stroke="#f55427" stroke-width="2"/>
      <path id="Trazado_168910" data-name="Trazado 168910" d="M104.934,34.505a9.4,9.4,0,0,0-.533,1.852c-.159.617-.319,1.24-.478,1.857q-.485,1.889-.971,3.773c-.647,2.519-1.3,5.033-1.922,7.557-.179.722-.348,1.449-.523,2.175a7.729,7.729,0,0,0-.234.991c-.035.343.025.767-.408.891a.023.023,0,0,0,0,.045c.363-.045.553-.363.717-.652a8.68,8.68,0,0,0,.6-1.887c.383-1.329.727-2.673,1.08-4.007q1.053-3.98,2.091-7.97l.582-2.225c.095-.368.194-.742.289-1.11a5.292,5.292,0,0,0,.244-1.14.294.294,0,0,0-.543-.149Z" transform="translate(110.392 37.997)" fill="#172b4d"/>
      <path id="Trazado_168911" data-name="Trazado 168911" d="M122.872,36.772c-1.08,1.344-2.111,2.733-3.176,4.087s-2.146,2.7-3.231,4.042q-3.286,4.04-6.686,7.985c-.632.732-1.259,1.464-1.892,2.2s-1.289,1.454-1.857,2.235c-.174.239.194.483.393.3.637-.577,1.21-1.23,1.787-1.867s1.155-1.284,1.722-1.932q1.7-1.949,3.375-3.923,3.36-3.973,6.6-8.05c1.21-1.518,2.439-3.032,3.584-4.6.259-.358-.339-.826-.617-.478Z" transform="translate(117.176 40.524)" fill="#172b4d"/>
      <path id="Trazado_168912" data-name="Trazado 168912" d="M123.487,50.744a5.856,5.856,0,0,0-1.737.493c-.577.2-1.155.393-1.732.592-1.115.378-2.235.757-3.35,1.13s-2.235.752-3.35,1.125c-.558.189-1.115.388-1.668.592-.164.06-1.215.343-.976.712s.966.02,1.284-.07c.568-.159,1.13-.329,1.693-.5q1.688-.53,3.365-1.075c1.12-.363,2.24-.732,3.36-1.1l1.678-.553a5.755,5.755,0,0,0,1.628-.627.388.388,0,0,0-.194-.717Z" transform="translate(122.32 56.107)" fill="#172b4d"/>
      <g id="Grupo_114358" data-name="Grupo 114358" transform="translate(246.002 39.911)">
        <path id="Trazado_170065" data-name="Trazado 170065" d="M17.936,0A17.936,17.936,0,1,1,0,17.936,17.936,17.936,0,0,1,17.936,0Z" fill="#3d46c2"/>
        <path id="Trazado_168913" data-name="Trazado 168913" d="M133.159,50.148a14.87,14.87,0,1,1,14.87-14.87A14.887,14.887,0,0,1,133.159,50.148Z" transform="translate(-115.223 -17.342)" fill="#deebff"/>
        <circle id="Elipse_5894" data-name="Elipse 5894" cx="0.597" cy="0.597" r="0.597" transform="translate(17.339 4.007)" fill="#0049b0"/>
        <circle id="Elipse_5895" data-name="Elipse 5895" cx="0.597" cy="0.597" r="0.597" transform="translate(17.339 30.78)" fill="#0049b0"/>
        <circle id="Elipse_5896" data-name="Elipse 5896" cx="0.597" cy="0.597" r="0.597" transform="matrix(0.16, -0.987, 0.987, 0.16, 30.652, 18.486)" fill="#0049b0"/>
        <circle id="Elipse_5897" data-name="Elipse 5897" cx="0.597" cy="0.597" r="0.597" transform="matrix(0.16, -0.987, 0.987, 0.16, 3.88, 18.489)" fill="#0049b0"/>
        <path id="Trazado_168914" data-name="Trazado 168914" d="M131.428,30.558a.6.6,0,1,1-.816.2A.593.593,0,0,1,131.428,30.558Z" transform="translate(-101.694 -6.215)" fill="#0049b0"/>
        <path id="Trazado_168915" data-name="Trazado 168915" d="M120.512,24.038a.6.6,0,1,1-.816.2A.593.593,0,0,1,120.512,24.038Z" transform="translate(-113.762 -13.424)" fill="#0049b0"/>
        <path id="Trazado_168916" data-name="Trazado 168916" d="M129.433,32.963a.6.6,0,1,1-.816-.2A.6.6,0,0,1,129.433,32.963Z" transform="translate(-104.124 -3.781)" fill="#0049b0"/>
        <path id="Trazado_168917" data-name="Trazado 168917" d="M122.917,22.042a.6.6,0,1,1-.816-.2A.6.6,0,0,1,122.917,22.042Z" transform="translate(-111.328 -15.854)" fill="#0049b0"/>
        <path id="Trazado_168918" data-name="Trazado 168918" d="M122.936,33.582a.6.6,0,1,1-.209-.816A.594.594,0,0,1,122.936,33.582Z" transform="translate(-111.312 -3.773)" fill="#0049b0"/>
        <path id="Trazado_168919" data-name="Trazado 168919" d="M129.419,22.643a.6.6,0,1,1-.209-.816A.594.594,0,0,1,129.419,22.643Z" transform="translate(-104.145 -15.867)" fill="#0049b0"/>
        <path id="Trazado_168920" data-name="Trazado 168920" d="M120.522,31.6a.6.6,0,1,1,.2-.816A.593.593,0,0,1,120.522,31.6Z" transform="translate(-113.752 -6.197)" fill="#0049b0"/>
        <path id="Trazado_168921" data-name="Trazado 168921" d="M131.421,25.041a.6.6,0,1,1,.2-.816A.593.593,0,0,1,131.421,25.041Z" transform="translate(-101.702 -13.442)" fill="#0049b0"/>
        <circle id="Elipse_5898" data-name="Elipse 5898" cx="0.936" cy="0.936" r="0.936" transform="translate(16.921 17.055)" fill="#0049b0"/>
        <path id="Trazado_168922" data-name="Trazado 168922" d="M129.3,33.92a.259.259,0,0,1-.144-.045l-7.338-4.983a.256.256,0,0,1-.07-.353.261.261,0,0,1,.353-.07l7.019,4.769,2.21-11.116a.254.254,0,0,1,.5.1l-2.285,11.495a.259.259,0,0,1-.154.189.216.216,0,0,1-.095.02Z" transform="translate(-111.445 -15.675)" fill="#0049b0"/>
      </g>
      <g id="Grupo_114359" data-name="Grupo 114359" transform="translate(49.717 160.85)">
        <path id="Trazado_168923" data-name="Trazado 168923" d="M90.158,99.948v.966H58.4V97.957H88.157a2,2,0,0,1,2,1.991Z" transform="translate(14.852 -52.546)" fill="#6e859c"/>
        <path id="Trazado_168924" data-name="Trazado 168924" d="M90.158,99.948v.966H58.4V97.957H88.157a2,2,0,0,1,2,1.991Z" transform="translate(14.852 -52.546)" fill="#8993a4"/>
        <path id="Trazado_168925" data-name="Trazado 168925" d="M108.331,124.748H31.787l-8.119-44.33a3.414,3.414,0,0,1,3.355-4.027H96.637a3.411,3.411,0,0,1,3.355,2.8Z" transform="translate(-23.612 -76.39)" fill="#8993a4"/>
        <path id="Trazado_168926" data-name="Trazado 168926" d="M105.623,124.748H31.787l-8.119-44.33a3.414,3.414,0,0,1,3.355-4.027h66.9a3.411,3.411,0,0,1,3.355,2.8l8.338,45.56Z" transform="translate(-23.612 -76.39)" fill="#a5adba"/>
        <path id="Trazado_168927" data-name="Trazado 168927" d="M32.269,98.05q7.161-1.3,14.327-2.6a.4.4,0,0,0,.284-.139c.055-.085-2.673-10.1-2.877-10.051-2.892.7-13.406,2.484-13.934,3.828-.334.851,1.762,9.04,2.205,8.961Z" transform="translate(-16.512 -66.588)" fill="#8993a4"/>
        <path id="Trazado_168928" data-name="Trazado 168928" d="M32.412,94.145a4.651,4.651,0,0,1-3.385-1.693,5.257,5.257,0,0,1-.9-3.091,5.561,5.561,0,0,1,.692-2.967,5.2,5.2,0,0,1,3.5-2.235,7.315,7.315,0,0,1,4.391.518,4.051,4.051,0,0,1,1.951,1.653,4.3,4.3,0,0,1,.433,1.852,6.54,6.54,0,0,1-.6,3.276c-1.075,2.121-3.858,2.848-6.078,2.683Z" transform="translate(-18.616 -67.945)" fill="#ebecf0"/>
      </g>
      <path id="Trazado_168929" data-name="Trazado 168929" d="M134.693,28.138a9.208,9.208,0,0,0-3.131-4.207c-.224-.164-.433.2-.214.368a9.121,9.121,0,0,1,3.455,7.91,8.646,8.646,0,0,1-5.018,7.044,9.806,9.806,0,0,1-2.449.772,13.317,13.317,0,0,1-2.559.1.166.166,0,0,0-.045.324,6.375,6.375,0,0,0,2.4.095,8.748,8.748,0,0,0,2.3-.6,9.815,9.815,0,0,0,3.868-2.793,9.111,9.111,0,0,0,1.394-9.02Z" transform="translate(137.773 26.418)" fill="#fff"/>
      <path id="Trazado_168930" data-name="Trazado 168930" d="M132.238,31.223a11.381,11.381,0,0,1-1.08.757,10.767,10.767,0,0,1-1.185.568,6.436,6.436,0,0,1-2.6.4,6.1,6.1,0,0,1-4.515-2.429,6.85,6.85,0,0,1-1.225-2.638c-.02-.09-.179-.075-.164.02a5.946,5.946,0,0,0,.926,2.569,6.828,6.828,0,0,0,1.912,1.941,6.38,6.38,0,0,0,5.486.727,4.979,4.979,0,0,0,2.628-1.742.131.131,0,0,0-.179-.179Z" transform="translate(134.289 30.766)" fill="#fff"/>
      <path id="Trazado_168931" data-name="Trazado 168931" d="M129.055,27.623a5,5,0,0,0-1.668-2.544c-.134-.11-.329.075-.194.194a4.968,4.968,0,0,1,1.474,2.419,5.1,5.1,0,0,1,.114,2.106,3.027,3.027,0,0,0-.124.687c.01.129.179.234.279.114a1.445,1.445,0,0,0,.229-.657,5.154,5.154,0,0,0,.09-.782,5.526,5.526,0,0,0-.194-1.538Z" transform="translate(140.573 27.695)" fill="#fff"/>
      <path id="Trazado_168932" data-name="Trazado 168932" d="M100.527,120.6s.642-8.358,5.048-13.411l28.261,8.065L122.246,102.9s-8.722-22.287-5.357-33.209c0,0,41.164,36.614,39.85,52.455s-21.7,10.808-21.7,10.808-12.266-1.917-34.509-12.366Z" transform="translate(111.141 77.058)" fill="#3d46c2"/>
      <path id="Trazado_168933" data-name="Trazado 168933" d="M126.079,93.823a5.182,5.182,0,0,0-2.041-1.459,10.492,10.492,0,0,0-2.37-.841,11.338,11.338,0,0,0-5.058.015c-.463.11-.373.707,0,.851a15.167,15.167,0,0,1,4.226,2.524,18.4,18.4,0,0,1,1.762,1.708c.558.617,1.055,1.274,1.608,1.892.119.139.388-.005.319-.184a10.791,10.791,0,0,0-3.166-4.077,16.4,16.4,0,0,0-3.116-2.076,10.411,10.411,0,0,1,3.236.234,11.251,11.251,0,0,1,2.21.757,10.479,10.479,0,0,1,.991.528,6.581,6.581,0,0,0,1.05.587.315.315,0,0,0,.353-.458Z" transform="translate(128.575 100.884)" fill="#0065ff"/>
      <path id="Trazado_168934" data-name="Trazado 168934" d="M75.678,93.145a9.144,9.144,0,0,0-1.195-1.4,10.506,10.506,0,0,0-3.047-2.026.431.431,0,0,0-.582.582,31.935,31.935,0,0,1,1.523,3.554c.214.6.418,1.195.6,1.8.095.3.179.607.269.911a3.633,3.633,0,0,0,.334.9.249.249,0,0,0,.219.124.126.126,0,0,0,.06-.01h0a.261.261,0,0,0,.189-.244,5.352,5.352,0,0,0-.343-1.882c-.174-.652-.368-1.294-.592-1.927-.3-.846-.642-1.673-1.006-2.494a9.6,9.6,0,0,1,1.727,1.284,12.218,12.218,0,0,1,1.145,1.235c.174.219.339.448.493.682a3.131,3.131,0,0,0,.513.707c.174.144.528.07.5-.209a3.7,3.7,0,0,0-.816-1.588Z" transform="translate(78.277 99.152)" fill="#0065ff"/>
      <path id="Trazado_168935" data-name="Trazado 168935" d="M307.687,99.08H11.093c-1.673,0-3.022,8.468-3.022,18.957v2.4c0,10.459,1.349,18.927,3.022,18.927H307.687c1.668,0,3.017-8.468,3.017-18.927v-2.4C310.7,107.548,309.355,99.08,307.687,99.08Z" transform="translate(8.925 109.546)" fill="#253858"/>
    </g>
  </g>
</svg>
