<svg xmlns="http://www.w3.org/2000/svg" width="150" height="150" viewBox="0 0 150 150">
  <g id="Grupo_115954" data-name="Grupo 115954" transform="translate(-370 -2538.686)">
    <circle id="Elipse_5676" data-name="Elipse 5676" cx="75" cy="75" r="75" transform="translate(370 2538.686)" fill="#fff"/>
    <g id="ejercicio" transform="translate(388.62 2567.686)">
      <g id="Grupo_114784" data-name="Grupo 114784" transform="translate(11.934 1.465)">
        <g id="Grupo_114761" data-name="Grupo 114761" transform="translate(31.783 0.67)">
          <path id="Trazado_169636" data-name="Trazado 169636" d="M180.7,26.21h8.537a3.8,3.8,0,0,1,1.1.149l1.449-4.313-1.449-4.8V15.735a4.818,4.818,0,0,0-9.636,0V26.21Z" transform="translate(-180.7 -10.929)" fill="#ffbd86" fill-rule="evenodd"/>
        </g>
        <g id="Grupo_114762" data-name="Grupo 114762" transform="translate(34.764 0.67)">
          <path id="Trazado_169637" data-name="Trazado 169637" d="M202.617,26.36l1.465-4.368-1.465-4.745V15.736A4.825,4.825,0,0,0,197.8,10.93a4.73,4.73,0,0,0-1.837.365,4.815,4.815,0,0,1,2.986,4.44V26.211h2.57a3.783,3.783,0,0,1,1.1.149Z" transform="translate(-195.962 -10.93)" fill="#f6a96c" fill-rule="evenodd"/>
        </g>
        <g id="Grupo_114763" data-name="Grupo 114763" transform="translate(30.413 47.364)">
          <path id="Trazado_169638" data-name="Trazado 169638" d="M173.682,264.111l17.185,4.385,15.564-4.385c-.755-3.444-1.526-7.042-2.148-11.178L190.556,250l-14.338,2.929C175.48,257.013,174.581,260.612,173.682,264.111Z" transform="translate(-173.682 -250.004)" fill="#f85316" fill-rule="evenodd"/>
        </g>
        <g id="Grupo_114764" data-name="Grupo 114764" transform="translate(31.221 16.072)">
          <path id="Trazado_169639" data-name="Trazado 169639" d="M186.487,106.073l28.359-.083,9.592-.017V89.79H185.144C175.868,89.79,174.442,106.084,186.487,106.073Z" transform="translate(-177.82 -89.79)" fill="#f2fbff" fill-rule="evenodd"/>
        </g>
        <g id="Grupo_114765" data-name="Grupo 114765" transform="translate(41.42 2.181)">
          <path id="Trazado_169640" data-name="Trazado 169640" d="M231.714,36.877a4.884,4.884,0,0,0,7.954-3.106l1.543-4.064-1.543-3.045V23.474a4.815,4.815,0,0,0-9.631,0v7.048c.005,0,.017.005.022.005C232.436,31.247,232.847,34.3,231.714,36.877Z" transform="translate(-230.038 -18.668)" fill="#ffbd86" fill-rule="evenodd"/>
        </g>
        <g id="Grupo_114766" data-name="Grupo 114766" transform="translate(15.137 16.072)">
          <path id="Trazado_169641" data-name="Trazado 169641" d="M105.062,105.962V92.769a9.6,9.6,0,0,1,.372-2.979H95.47v16.183Z" transform="translate(-95.47 -89.79)" fill="#f2fbff" fill-rule="evenodd"/>
        </g>
        <g id="Grupo_114767" data-name="Grupo 114767" transform="translate(44.378 2.181)">
          <path id="Trazado_169642" data-name="Trazado 169642" d="M251.858,33.772l1.543-4.064-1.543-3.045V23.474a4.811,4.811,0,0,0-6.65-4.44,4.83,4.83,0,0,1,2.981,4.44v10.3a4.6,4.6,0,0,1-3,3.87A4.859,4.859,0,0,0,251.858,33.772Z" transform="translate(-245.186 -18.668)" fill="#f6a96c" fill-rule="evenodd"/>
        </g>
        <g id="Grupo_114768" data-name="Grupo 114768" transform="translate(52.949 48.222)">
          <path id="Trazado_169643" data-name="Trazado 169643" d="M291.214,267.646l-.649,2.453,8.715-2.453c-.755-3.444-1.526-7.042-2.148-11.178l-7.888-2.071-.178,2.071C289.693,260.6,290.459,264.2,291.214,267.646Z" transform="translate(-289.066 -254.397)" fill="#f85316" fill-rule="evenodd"/>
        </g>
        <g id="Grupo_114769" data-name="Grupo 114769" transform="translate(26.372 61.471)">
          <path id="Trazado_169644" data-name="Trazado 169644" d="M153.378,357.83h39.055c1.676-16.875-.444-25.584-2.648-35.6h-32.75C154.51,332.075,152.023,341.094,153.378,357.83Z" transform="translate(-152.995 -322.231)" fill="#ffbd86" fill-rule="evenodd"/>
        </g>
        <g id="Grupo_114770" data-name="Grupo 114770" transform="translate(55.097 61.471)">
          <path id="Trazado_169645" data-name="Trazado 169645" d="M310.779,357.83c1.676-16.875-.444-25.584-2.648-35.6h-8.065c2.2,10.015,4.324,18.724,2.648,35.6Z" transform="translate(-300.066 -322.231)" fill="#f6a96c" fill-rule="evenodd"/>
        </g>
        <g id="Grupo_114771" data-name="Grupo 114771" transform="translate(13.066 24.161)">
          <path id="Trazado_169646" data-name="Trazado 169646" d="M96.531,139.287V131.2H84.869V139.3Z" transform="translate(-84.869 -131.204)" fill="#dff6fd" fill-rule="evenodd"/>
        </g>
        <g id="Grupo_114772" data-name="Grupo 114772" transform="translate(33.016 24.161)">
          <path id="Trazado_169647" data-name="Trazado 169647" d="M187.011,131.2c3.652.614,6.117,3.986,6.872,8.188l28.359-.078h2.071l9.592-.017V131.2Z" transform="translate(-187.011 -131.203)" fill="#dff6fd" fill-rule="evenodd"/>
        </g>
        <g id="Grupo_114773" data-name="Grupo 114773" transform="translate(22.658 13.885)">
          <path id="Trazado_169648" data-name="Trazado 169648" d="M144.271,115h28.065c5.823-4.629,9.3-10.065,9.3-18.021l-28.359.083c-.755-4.2-3.22-7.519-6.872-8.133h2.526a6,6,0,0,0,5.484-3.831c1.132-2.574.722-5.63-1.654-6.35a3.921,3.921,0,0,0-1.121-.155h-14.21a2.939,2.939,0,0,0-3.081,2.187,9.767,9.767,0,0,0-.372,2.979V96.951C133.98,106.009,137.038,110.543,144.271,115Z" transform="translate(-133.98 -78.592)" fill="#ffbd86" fill-rule="evenodd"/>
        </g>
        <g id="Grupo_114774" data-name="Grupo 114774" transform="translate(32.711 32.272)">
          <path id="Trazado_169649" data-name="Trazado 169649" d="M213.751,190.752c5.823-4.629,9.3-10.065,9.3-18.021l-6.167.022c-.055,7.862-3.525,13.254-9.3,17.849H185.448c.083.05.161.1.239.149h28.065Z" transform="translate(-185.448 -172.731)" fill="#f6a96c" fill-rule="evenodd"/>
        </g>
        <g id="Grupo_114775" data-name="Grupo 114775">
          <path id="Trazado_169650" data-name="Trazado 169650" d="M33.106,39.755V10.362A2.878,2.878,0,0,0,30.231,7.5H20.839a2.877,2.877,0,0,0-2.87,2.862v42.6a2.877,2.877,0,0,0,2.87,2.862h9.392a2.878,2.878,0,0,0,2.875-2.862v-13.2Z" transform="translate(-17.969 -7.5)" fill="#3d46c2" fill-rule="evenodd"/>
        </g>
        <g id="Grupo_114776" data-name="Grupo 114776" transform="translate(77.838)">
          <path id="Trazado_169651" data-name="Trazado 169651" d="M431.643,52.96v-42.6A2.878,2.878,0,0,0,428.767,7.5h-9.392a2.878,2.878,0,0,0-2.875,2.862v42.6a2.878,2.878,0,0,0,2.875,2.862h9.392A2.878,2.878,0,0,0,431.643,52.96Z" transform="translate(-416.5 -7.5)" fill="#3d46c2" fill-rule="evenodd"/>
        </g>
        <g id="Grupo_114777" data-name="Grupo 114777" transform="translate(77.838 37.614)">
          <path id="Trazado_169652" data-name="Trazado 169652" d="M428.768,202.954h-9.392a2.879,2.879,0,0,1-2.875-2.868v7.845a2.878,2.878,0,0,0,2.875,2.862h9.392a2.878,2.878,0,0,0,2.875-2.862V200.1a2.884,2.884,0,0,1-2.875,2.851Z" transform="translate(-416.501 -200.086)" fill="#3d46c2" fill-rule="evenodd"/>
        </g>
        <g id="Grupo_114778" data-name="Grupo 114778" transform="translate(0 37.614)">
          <path id="Trazado_169653" data-name="Trazado 169653" d="M33.106,207.93V200.1a2.88,2.88,0,0,1-2.875,2.851H20.839a2.878,2.878,0,0,1-2.87-2.868v7.845a2.877,2.877,0,0,0,2.87,2.862h9.392A2.878,2.878,0,0,0,33.106,207.93Z" transform="translate(-17.969 -200.085)" fill="#3d46c2" fill-rule="evenodd"/>
        </g>
        <g id="Grupo_114779" data-name="Grupo 114779" transform="translate(51.05 5.392)">
          <path id="Trazado_169654" data-name="Trazado 169654" d="M284.165,53.03a4.824,4.824,0,0,0,4.818-4.8l1.465-2.458-1.465-1.987v-3.87a4.818,4.818,0,0,0-9.636-.022V48.23A4.824,4.824,0,0,0,284.165,53.03Z" transform="translate(-279.347 -35.109)" fill="#ffbd86" fill-rule="evenodd"/>
        </g>
        <g id="Grupo_114780" data-name="Grupo 114780" transform="translate(54.081 5.392)">
          <path id="Trazado_169655" data-name="Trazado 169655" d="M301.469,43.275V39.915a4.829,4.829,0,0,0-4.818-4.806,4.755,4.755,0,0,0-1.488.238,4.822,4.822,0,0,1,3.025,4.457V48.12a4.822,4.822,0,0,1-3.325,4.568,4.819,4.819,0,0,0,6.605-4.457l1.654-2.9Z" transform="translate(-294.863 -35.109)" fill="#f6a96c" fill-rule="evenodd"/>
        </g>
        <g id="Grupo_114781" data-name="Grupo 114781" transform="translate(60.687 9.285)">
          <path id="Trazado_169656" data-name="Trazado 169656" d="M333.5,71.879a4.82,4.82,0,0,0,4.818-4.8V59.843a4.815,4.815,0,0,0-9.63-.022v7.258A4.819,4.819,0,0,0,333.5,71.879Z" transform="translate(-328.684 -55.037)" fill="#ffbd86" fill-rule="evenodd"/>
        </g>
        <g id="Grupo_114782" data-name="Grupo 114782" transform="translate(63.678 9.285)">
          <path id="Trazado_169657" data-name="Trazado 169657" d="M345.823,71.879a4.82,4.82,0,0,0,4.818-4.8V59.843a4.825,4.825,0,0,0-4.818-4.806A4.744,4.744,0,0,0,344,55.4a4.828,4.828,0,0,1,2.986,4.446v7.236A4.815,4.815,0,0,1,344,71.519a4.748,4.748,0,0,0,1.821.36Z" transform="translate(-344.002 -55.037)" fill="#f6a96c" fill-rule="evenodd"/>
        </g>
        <g id="Grupo_114783" data-name="Grupo 114783" transform="translate(28.945 13.886)">
          <path id="Trazado_169658" data-name="Trazado 169658" d="M174.832,88.93a6,6,0,0,0,5.484-3.831c1.132-2.574.722-5.63-1.654-6.35l-.022-.005a3.8,3.8,0,0,0-1.1-.149H169c4.7.2,6.073,1.138,6.755,2.3a3.867,3.867,0,0,1,.376,3.2c-.689,1.295-2.633,2.3-6.3,2.12-4.407.011-4.552,4.523-2,5.011,6.705,1.273,7.383,3.826,7.943,8.321.378,3.034,3.636,2.4,3.636.293a16.179,16.179,0,0,0-.239-2.779c-.755-4.2-3.22-7.519-6.872-8.133h2.525Z" transform="translate(-166.165 -78.594)" fill="#f6a96c" fill-rule="evenodd"/>
        </g>
      </g>
      <g id="Grupo_114785" data-name="Grupo 114785" transform="translate(10.469 0)">
        <path id="Trazado_169659" data-name="Trazado 169659" d="M268.24,371.433a1.465,1.465,0,0,0-.959,1.836c1.933,6.16,2.572,15.993,1.554,23.912a1.465,1.465,0,1,0,2.906.373c1.066-8.295.382-18.642-1.665-25.163A1.464,1.464,0,0,0,268.24,371.433Z" transform="translate(-217.068 -298.833)"/>
        <path id="Trazado_169660" data-name="Trazado 169660" d="M104.915,23.5a1.465,1.465,0,0,0,1.465-1.465V4.327A4.339,4.339,0,0,0,102.039,0H92.648a4.339,4.339,0,0,0-4.34,4.327V16.072H83.716v-.517a6.28,6.28,0,0,0-9.771-5.212,6.285,6.285,0,0,0-9.789-3.785A6.282,6.282,0,0,0,53.968,3.793,6.284,6.284,0,0,0,42.253,6.94v6.945H38.045a4.329,4.329,0,0,0-4.026,2.187H28.536V4.327A4.339,4.339,0,0,0,24.2,0H14.8a4.336,4.336,0,0,0-4.335,4.327V22.038a1.465,1.465,0,0,0,2.93,0V4.327a1.42,1.42,0,0,1,1.4-1.4H24.2a1.406,1.406,0,0,1,1.411,1.4v42.6a1.406,1.406,0,0,1-1.411,1.4H14.8a1.42,1.42,0,0,1-1.4-1.4V28.876a1.465,1.465,0,0,0-2.93,0V46.924A4.336,4.336,0,0,0,14.8,51.252H24.2a4.339,4.339,0,0,0,4.34-4.327V35.183l4.62-.007c.3,7.919,3.157,12.781,10.106,17.29-.755,3.965-1.667,7.511-2.551,10.947-2.479,9.636-4.82,18.737-3.483,35.24A1.465,1.465,0,0,0,38.687,100c.039,0,.079,0,.12,0a1.465,1.465,0,0,0,1.342-1.578c-1.286-15.866.943-24.72,3.334-34.016H73.918c2.126,9.641,3.954,17.994,2.368,33.99a1.465,1.465,0,0,0,1.313,1.6q.074.007.146.007A1.465,1.465,0,0,0,79.2,98.679c1.636-16.5-.344-25.482-2.439-34.987-.777-3.523-1.578-7.158-2.238-11.328C80.371,47.5,83.308,41.995,83.675,35.2l4.632-.013V46.924a4.339,4.339,0,0,0,4.34,4.327h9.392a4.339,4.339,0,0,0,4.34-4.327V28.876a1.465,1.465,0,1,0-2.93,0V46.924a1.406,1.406,0,0,1-1.41,1.4H92.648a1.406,1.406,0,0,1-1.411-1.4V4.327a1.406,1.406,0,0,1,1.411-1.4h9.392a1.406,1.406,0,0,1,1.41,1.4V22.038a1.464,1.464,0,0,0,1.465,1.465ZM33.127,20.516V32.246l-4.592.007V19h4.658C33.15,19.467,33.127,19.969,33.127,20.516Zm40.958-4.961a3.351,3.351,0,0,1,6.7,0v7.236a3.351,3.351,0,0,1-6.7,0Zm-9.627-4.083a3.351,3.351,0,0,1,6.7.191v8.316a3.353,3.353,0,0,1-6.707,0s.021-8.436.01-8.507Zm-9.64-3.02a3.351,3.351,0,0,1,6.7,0V18.683a3.14,3.14,0,0,1-1.832,2.471,3.574,3.574,0,0,1-2.886.079,8.063,8.063,0,0,0,.3-2.137,5.558,5.558,0,0,0-1.147-3.559,4.363,4.363,0,0,0-1.133-.987ZM45.182,6.94a3.353,3.353,0,0,1,6.706,0v6.945H45.182Zm-.951,54.53c.655-2.6,1.3-5.3,1.868-8.248h25.6c.48,2.973,1.027,5.67,1.582,8.248Zm28.2-11.178H45.305c-6.9-4.343-9.248-8.576-9.248-16.584V20.516c0-3.7,1.149-3.7,1.988-3.7h14.21a1.711,1.711,0,0,1,1.423.57,2.733,2.733,0,0,1,.491,1.711c0,2.149-1.607,5.126-4.623,5.126H43.99a1.465,1.465,0,0,0,0,2.93h2.89c3.412.64,5.787,4.5,5.787,9.447a1.465,1.465,0,0,0,2.93,0c0-.447-.018-.886-.05-1.319l25.195-.07c-.363,6-2.972,10.715-8.312,15.083ZM88.307,32.259l-33.247.092a12.347,12.347,0,0,0-3.1-5.629,7.625,7.625,0,0,0,3.593-2.838,6.436,6.436,0,0,0,2.592.543,6.547,6.547,0,0,0,2.783-.621,6.464,6.464,0,0,0,1.345-.847A6.288,6.288,0,0,0,71.559,25a6.282,6.282,0,0,0,12.157-2.207V19h4.592V32.259Z" transform="translate(-10.469 0)"/>
      </g>
    </g>
  </g>
</svg>
