<svg xmlns="http://www.w3.org/2000/svg" width="150" height="150" viewBox="0 0 150 150">
  <g id="Grupo_115954" data-name="Grupo 115954" transform="translate(10632.352 9308.854)">
    <circle id="Elipse_5679" data-name="Elipse 5679" cx="75" cy="75" r="75" transform="translate(-10632.352 -9308.854)" fill="#fff"/>
    <g id="capacitacion" transform="translate(-10607 -9287)">
      <path id="Trazado_169693" data-name="Trazado 169693" d="M23,1V32.25h1.563a4.681,4.681,0,0,0,4.688-4.687,3.125,3.125,0,0,1,6.25,0A10.929,10.929,0,0,1,24.563,38.5H23v9.375H85.5V1Z" transform="translate(12.938 0.563)" fill="#dce736"/>
      <path id="Trazado_169694" data-name="Trazado 169694" d="M21.25,11.363V13.5C18.563,10,16.938,9.363,15,9.769V9.754L18.109,3.41A11.594,11.594,0,0,1,21.25,11.363Z" transform="translate(8.438 1.918)" fill="#f6bb42"/>
      <path id="Trazado_169695" data-name="Trazado 169695" d="M24.3,4.766l-3.109,6.344v.016c-2.922.594-6.547,3.641-15.625,2.578-.5-.062-1.031-.141-1.562-.219v-.766A11.7,11.7,0,0,1,24.3,4.766Z" transform="translate(2.25 0.563)" fill="#ffce54"/>
      <path id="Trazado_169696" data-name="Trazado 169696" d="M18.375,18.326V22.5L16.813,24.06,13.688,22.5,10.563,24.06,9,22.513v-4.2a10.857,10.857,0,0,0,9.375,0Z" transform="translate(5.063 10.299)" fill="#f5f7fa"/>
      <path id="Trazado_169697" data-name="Trazado 169697" d="M5,14.565V10.1c9.078,1.063,12.7-1.984,15.625-2.577,1.938-.408,3.563.233,6.25,3.734v3.327a10.9,10.9,0,0,1-6.25,9.859,10.857,10.857,0,0,1-9.375,0A10.9,10.9,0,0,1,5,14.581Z" transform="translate(2.813 4.169)" fill="#eac6bb"/>
      <path id="Trazado_169698" data-name="Trazado 169698" d="M20.372,7.855v6.477a10.9,10.9,0,0,1-6.25,9.859A10.643,10.643,0,0,1,11,25.13a10.594,10.594,0,0,0,6.252-.939,10.893,10.893,0,0,0,6.25-9.859V11a13.141,13.141,0,0,0-3.128-3.148Z" transform="translate(6.187 4.418)" fill="#d3b1a9"/>
      <g id="Grupo_114817" data-name="Grupo 114817" transform="translate(1.563 7.813)">
        <path id="Trazado_169699" data-name="Trazado 169699" d="M7.25,39.438H1V30.063a6.248,6.248,0,0,1,6.25-6.25H13.5l1.563,1.547L18.188,23.8l3.125,1.563L22.875,23.8l12.5.016h1.563a4.681,4.681,0,0,0,4.688-4.687,3.125,3.125,0,0,1,6.25,0A10.929,10.929,0,0,1,36.938,30.063H29.125v9.375Z" transform="translate(-1 1.188)" fill="#75b62f"/>
        <path id="Trazado_169700" data-name="Trazado 169700" d="M47.5,23a3.125,3.125,0,0,1,0,6.25H38.125a3.125,3.125,0,0,1,0-6.25H47.5Z" transform="translate(18.125 5.125)" fill="#e6e9ed"/>
        <path id="Trazado_169701" data-name="Trazado 169701" d="M47.5,5a3.125,3.125,0,0,1,0,6.25H38.125a3.125,3.125,0,0,1,0-6.25Z" transform="translate(18.125 -5)" fill="#e6e9ed"/>
      </g>
      <path id="Trazado_169702" data-name="Trazado 169702" d="M50.625,17.688l-7.812,4.688L35,17.688,42.813,13Z" transform="translate(19.688 7.313)" fill="#f85316"/>
      <path id="Trazado_169703" data-name="Trazado 169703" d="M56.813,20.25H49V14H64.625v6.25Z" transform="translate(27.563 7.875)" fill="#e6e9ed"/>
      <path id="Trazado_169704" data-name="Trazado 169704" d="M57.938,53.25A12.412,12.412,0,0,0,68.875,47a10.9,10.9,0,0,1-6.25,9.859,10.857,10.857,0,0,1-9.375,0A10.893,10.893,0,0,1,47,47,12.412,12.412,0,0,0,57.938,53.25Z" transform="translate(26.438 26.438)" fill="#eac6bb"/>
      <path id="Trazado_169705" data-name="Trazado 169705" d="M64.188,36v4.688a4.678,4.678,0,0,1,4.688,4.672v7.828a12.7,12.7,0,0,1-21.875,0V45.359A9.359,9.359,0,0,1,56.375,36Z" transform="translate(26.438 20.25)" fill="#965353"/>
      <path id="Trazado_169706" data-name="Trazado 169706" d="M61.493,51.247a10.908,10.908,0,0,1-5.372,5.613A10.563,10.563,0,0,1,53,57.8a10.584,10.584,0,0,0,6.248-.939A10.893,10.893,0,0,0,65.5,47,12.255,12.255,0,0,1,61.493,51.247Z" transform="translate(29.813 26.438)" fill="#d3b1a9"/>
      <path id="Trazado_169707" data-name="Trazado 169707" d="M59.126,40.688V36H56v4.688h0a3.128,3.128,0,0,0,3.127,3.125,1.55,1.55,0,0,1,1.559,1.547v7.828a10.843,10.843,0,0,1-.88,4.247,12.25,12.25,0,0,0,4.008-4.247V45.359A4.678,4.678,0,0,0,59.126,40.688Z" transform="translate(31.499 20.25)" fill="#844747"/>
      <path id="Trazado_169708" data-name="Trazado 169708" d="M55.688,54.373a10.673,10.673,0,0,0,4.688-1.064v5.752H51v-5.75a10.744,10.744,0,0,0,4.688,1.063Z" transform="translate(28.688 29.986)" fill="#dce736"/>
      <path id="Trazado_169709" data-name="Trazado 169709" d="M73.125,61.677v4.7H45v-4.7a4.691,4.691,0,0,1,4.688-4.687v.016h4.688V56.99H63.75v.016h4.688V56.99A4.691,4.691,0,0,1,73.125,61.677Z" transform="translate(25.313 32.057)" fill="#dce736"/>
      <path id="Trazado_169710" data-name="Trazado 169710" d="M55,56.99h3.128v.016H55Z" transform="translate(30.936 32.057)" fill="#4a89dc"/>
      <path id="Trazado_169712" data-name="Trazado 169712" d="M48.055,57.006V56.99c-.052,0-.1.014-.152.016Z" transform="translate(26.945 32.057)" fill="#4a89dc"/>
      <path id="Trazado_169713" data-name="Trazado 169713" d="M29,58.672V54h9.375v4.672l-4.687,1.563Z" transform="translate(16.313 30.375)" fill="#eac6bb"/>
      <path id="Trazado_169714" data-name="Trazado 169714" d="M51.125,49.1V64.665H23V49.1a14.063,14.063,0,0,1,28.125,0Z" transform="translate(12.938 19.71)" fill="#ffce54"/>
      <path id="Trazado_169715" data-name="Trazado 169715" d="M32.563,35.04A13.966,13.966,0,0,0,31,35.132,14.064,14.064,0,0,1,43.5,49.1V64.665h3.128V49.1A14.064,14.064,0,0,0,32.563,35.04Z" transform="translate(17.437 19.71)" fill="#f6bb42"/>
      <path id="Trazado_169716" data-name="Trazado 169716" d="M27.688,57.006h4.688V56.99l4.688,1.563L41.75,56.99v.016h4.688V56.99a4.691,4.691,0,0,1,4.688,4.688v4.7H23v-4.7a4.691,4.691,0,0,1,4.688-4.687Z" transform="translate(12.938 32.057)" fill="#f85316"/>
      <path id="Trazado_169718" data-name="Trazado 169718" d="M16.375,59.06H7V53.31a10.857,10.857,0,0,0,9.375,0v5.75Z" transform="translate(3.938 29.987)" fill="#3d46c2"/>
      <path id="Trazado_169719" data-name="Trazado 169719" d="M29.125,61.677v4.7H1v-4.7A4.691,4.691,0,0,1,5.688,56.99v.016h4.688V56.99H19.75v.016h4.688V56.99A4.691,4.691,0,0,1,29.125,61.677Z" transform="translate(0.563 32.057)" fill="#3d46c2"/>
      <path id="Trazado_169720" data-name="Trazado 169720" d="M4.055,57.006V56.99c-.052,0-.1.014-.152.016Z" transform="translate(2.195 32.057)" fill="#ccd1d9"/>
      <path id="Trazado_169722" data-name="Trazado 169722" d="M13.938,57.922A10.724,10.724,0,0,1,9.25,56.858,10.891,10.891,0,0,1,3,47a12.412,12.412,0,0,0,10.938,6.25A12.412,12.412,0,0,0,24.875,47a10.9,10.9,0,0,1-6.25,9.859A10.694,10.694,0,0,1,13.938,57.922Z" transform="translate(1.688 26.438)" fill="#eac6bb"/>
      <path id="Trazado_169723" data-name="Trazado 169723" d="M24.875,53.172v.016a12.412,12.412,0,0,1-10.937,6.25A12.412,12.412,0,0,1,3,53.188V46.922a10.938,10.938,0,0,1,21.875,0Z" transform="translate(1.688 20.25)" fill="#656d78"/>
      <path id="Trazado_169724" data-name="Trazado 169724" d="M17.493,51.247a10.908,10.908,0,0,1-5.372,5.613A10.563,10.563,0,0,1,9,57.8a10.939,10.939,0,0,0,1.561.123,10.673,10.673,0,0,0,4.688-1.064A10.893,10.893,0,0,0,21.5,47,12.237,12.237,0,0,1,17.493,51.247Z" transform="translate(5.063 26.437)" fill="#d3b1a9"/>
      <path id="Trazado_169725" data-name="Trazado 169725" d="M10.563,36a10.873,10.873,0,0,0-1.556.123H9a10.916,10.916,0,0,1,9.372,10.8v6.266a10.843,10.843,0,0,1-.88,4.247A12.25,12.25,0,0,0,21.5,53.187V46.922A10.926,10.926,0,0,0,10.563,36Z" transform="translate(5.063 20.25)" fill="#545c66"/>
      <path id="Trazado_169726" data-name="Trazado 169726" d="M86.063,50h-62.5A1.561,1.561,0,0,1,22,48.438V39.063a1.563,1.563,0,0,1,3.125,0v7.813H84.5V3.125H25.125V32.813a1.563,1.563,0,0,1-3.125,0V1.563A1.561,1.561,0,0,1,23.563,0h62.5a1.561,1.561,0,0,1,1.563,1.563V48.438A1.561,1.561,0,0,1,86.063,50Z" transform="translate(12.375)"/>
      <path id="Trazado_169727" data-name="Trazado 169727" d="M5.563,35.938A1.561,1.561,0,0,1,4,34.375V26.563a1.563,1.563,0,0,1,3.125,0v7.813A1.561,1.561,0,0,1,5.563,35.938Z" transform="translate(2.25 14.063)"/>
      <path id="Trazado_169728" data-name="Trazado 169728" d="M11.813,23.127H5.563a1.563,1.563,0,0,1,0-3.125h6.25a1.563,1.563,0,0,1,0,3.125Z" transform="translate(2.25 11.251)"/>
      <path id="Trazado_169729" data-name="Trazado 169729" d="M1.563,29.375A1.561,1.561,0,0,1,0,27.813,7.821,7.821,0,0,1,7.813,20a1.563,1.563,0,0,1,0,3.125,4.693,4.693,0,0,0-4.687,4.688A1.561,1.561,0,0,1,1.563,29.375Z" transform="translate(0 11.25)"/>
      <path id="Trazado_169730" data-name="Trazado 169730" d="M1.563,36.5A1.561,1.561,0,0,1,0,34.938V25.563a1.563,1.563,0,0,1,3.125,0v9.375A1.561,1.561,0,0,1,1.563,36.5Z" transform="translate(0 13.5)"/>
      <path id="Trazado_169731" data-name="Trazado 169731" d="M19.563,36.5A1.561,1.561,0,0,1,18,34.938V25.563a1.563,1.563,0,0,1,3.125,0v9.375A1.561,1.561,0,0,1,19.563,36.5Z" transform="translate(10.125 13.5)"/>
      <path id="Trazado_169732" data-name="Trazado 169732" d="M27.375,27.125H19.563a1.563,1.563,0,0,1,0-3.125h7.813a1.563,1.563,0,0,1,0,3.125Z" transform="translate(10.125 13.5)"/>
      <path id="Trazado_169733" data-name="Trazado 169733" d="M33.813,21.25a1.561,1.561,0,0,1-1.562-1.562,1.563,1.563,0,0,0-3.125,0,1.563,1.563,0,0,1-3.125,0,4.688,4.688,0,0,1,9.375,0A1.561,1.561,0,0,1,33.813,21.25Z" transform="translate(14.625 8.438)"/>
      <path id="Trazado_169734" data-name="Trazado 169734" d="M24.563,31.063a1.563,1.563,0,0,1,0-3.125,9.384,9.384,0,0,0,9.375-9.375,1.563,1.563,0,0,1,3.125,0A12.515,12.515,0,0,1,24.563,31.063Z" transform="translate(12.938 9.563)"/>
      <path id="Trazado_169735" data-name="Trazado 169735" d="M24.563,24.813a1.563,1.563,0,0,1,0-3.125,3.128,3.128,0,0,0,3.125-3.125,1.563,1.563,0,0,1,3.125,0A6.256,6.256,0,0,1,24.563,24.813Z" transform="translate(12.938 9.563)"/>
      <path id="Trazado_169736" data-name="Trazado 169736" d="M63.253,45.814a1.561,1.561,0,0,1-1.562-1.562,3.13,3.13,0,0,0-3.128-3.127,1.563,1.563,0,0,1,0-3.125,6.259,6.259,0,0,1,6.253,6.252A1.561,1.561,0,0,1,63.253,45.814Z" transform="translate(32.063 21.375)"/>
      <path id="Trazado_169737" data-name="Trazado 169737" d="M58.563,42.813A1.561,1.561,0,0,1,57,41.25V36.563a1.563,1.563,0,0,1,3.125,0V41.25A1.561,1.561,0,0,1,58.563,42.813Z" transform="translate(32.063 19.688)"/>
      <path id="Trazado_169738" data-name="Trazado 169738" d="M47.563,47.5A1.561,1.561,0,0,1,46,45.938,10.952,10.952,0,0,1,56.938,35a1.563,1.563,0,0,1,0,3.125,7.821,7.821,0,0,0-7.812,7.813A1.561,1.561,0,0,1,47.563,47.5Z" transform="translate(25.875 19.688)"/>
      <path id="Trazado_169739" data-name="Trazado 169739" d="M61.375,38.125H53.563a1.563,1.563,0,0,1,0-3.125h7.813a1.563,1.563,0,0,1,0,3.125Z" transform="translate(29.25 19.688)"/>
      <path id="Trazado_169740" data-name="Trazado 169740" d="M58.5,55.375a13.906,13.906,0,0,1-12.336-7.114,1.563,1.563,0,0,1,2.792-1.4,11.14,11.14,0,0,0,19.083.008,1.563,1.563,0,1,1,2.8,1.4A13.9,13.9,0,0,1,58.5,55.375Z" transform="translate(25.875 25.875)"/>
      <path id="Trazado_169741" data-name="Trazado 169741" d="M47.563,51.94A1.561,1.561,0,0,1,46,50.377V42.558a1.563,1.563,0,0,1,3.125,0v7.819A1.561,1.561,0,0,1,47.563,51.94Z" transform="translate(25.875 23.06)"/>
      <path id="Trazado_169742" data-name="Trazado 169742" d="M61.563,51.94A1.561,1.561,0,0,1,60,50.377V42.558a1.563,1.563,0,0,1,3.125,0v7.819A1.561,1.561,0,0,1,61.563,51.94Z" transform="translate(33.75 23.06)"/>
      <path id="Trazado_169743" data-name="Trazado 169743" d="M45.563,63.807A1.561,1.561,0,0,1,44,62.244,6.256,6.256,0,0,1,50.25,56a1.563,1.563,0,0,1,0,3.125,3.127,3.127,0,0,0-3.125,3.123A1.561,1.561,0,0,1,45.563,63.807Z" transform="translate(24.75 31.498)"/>
      <path id="Trazado_169744" data-name="Trazado 169744" d="M53.25,59.127H48.563a1.563,1.563,0,0,1,0-3.125H53.25a1.563,1.563,0,0,1,0,3.125Z" transform="translate(26.438 31.501)"/>
      <path id="Trazado_169745" data-name="Trazado 169745" d="M45.563,66.815A1.561,1.561,0,0,1,44,65.253v-4.7a1.563,1.563,0,1,1,3.125,0v4.7A1.561,1.561,0,0,1,45.563,66.815Z" transform="translate(24.75 33.185)"/>
      <path id="Trazado_169746" data-name="Trazado 169746" d="M65.25,63.807a1.561,1.561,0,0,1-1.562-1.562,3.127,3.127,0,0,0-3.125-3.123,1.562,1.562,0,0,1,0-3.125,6.256,6.256,0,0,1,6.25,6.248A1.561,1.561,0,0,1,65.25,63.807Z" transform="translate(33.188 31.498)"/>
      <path id="Trazado_169747" data-name="Trazado 169747" d="M62.25,59.127H57.563a1.563,1.563,0,0,1,0-3.125H62.25a1.563,1.563,0,0,1,0,3.125Z" transform="translate(31.5 31.501)"/>
      <path id="Trazado_169748" data-name="Trazado 169748" d="M63.563,66.815A1.561,1.561,0,0,1,62,65.253v-4.7a1.563,1.563,0,1,1,3.125,0v4.7A1.561,1.561,0,0,1,63.563,66.815Z" transform="translate(34.875 33.185)"/>
      <path id="Trazado_169749" data-name="Trazado 169749" d="M73.688,65.125H45.563a1.563,1.563,0,0,1,0-3.125H73.688a1.563,1.563,0,0,1,0,3.125Z" transform="translate(24.75 34.875)"/>
      <path id="Trazado_169750" data-name="Trazado 169750" d="M51.563,61.2A1.561,1.561,0,0,1,50,59.637V53.881a1.563,1.563,0,0,1,3.125,0v5.756A1.561,1.561,0,0,1,51.563,61.2Z" transform="translate(28.125 29.429)"/>
      <path id="Trazado_169751" data-name="Trazado 169751" d="M57.563,61.188A1.561,1.561,0,0,1,56,59.626V53.881a1.563,1.563,0,0,1,3.125,0v5.745a1.561,1.561,0,0,1-1.562,1.563Z" transform="translate(31.5 29.429)"/>
      <path id="Trazado_169752" data-name="Trazado 169752" d="M58.5,60.053A12.513,12.513,0,0,1,46,47.558a1.563,1.563,0,0,1,3.125,0,9.375,9.375,0,0,0,18.75,0,1.563,1.563,0,0,1,3.125,0A12.513,12.513,0,0,1,58.5,60.053Z" transform="translate(25.875 25.872)"/>
      <path id="Trazado_169753" data-name="Trazado 169753" d="M60.938,59.12H51.563a1.563,1.563,0,0,1,0-3.125h9.375a1.563,1.563,0,0,1,0,3.125Z" transform="translate(28.125 31.497)"/>
      <path id="Trazado_169754" data-name="Trazado 169754" d="M14.5,55.375A13.906,13.906,0,0,1,2.165,48.261a1.563,1.563,0,0,1,2.792-1.4A10.79,10.79,0,0,0,14.5,52.25a10.849,10.849,0,0,0,9.539-5.386,1.563,1.563,0,1,1,2.8,1.4A13.9,13.9,0,0,1,14.5,55.375Z" transform="translate(1.125 25.875)"/>
      <path id="Trazado_169755" data-name="Trazado 169755" d="M3.563,51.377A1.561,1.561,0,0,1,2,49.815V43.558a1.563,1.563,0,0,1,3.125,0v6.256A1.561,1.561,0,0,1,3.563,51.377Z" transform="translate(1.125 23.623)"/>
      <path id="Trazado_169756" data-name="Trazado 169756" d="M17.563,51.377A1.561,1.561,0,0,1,16,49.815V43.558a1.563,1.563,0,0,1,3.125,0v6.256A1.561,1.561,0,0,1,17.563,51.377Z" transform="translate(9 23.623)"/>
      <path id="Trazado_169757" data-name="Trazado 169757" d="M1.563,63.807A1.561,1.561,0,0,1,0,62.244,6.256,6.256,0,0,1,6.25,56a1.563,1.563,0,0,1,0,3.125,3.127,3.127,0,0,0-3.125,3.123A1.561,1.561,0,0,1,1.563,63.807Z" transform="translate(0 31.498)"/>
      <path id="Trazado_169758" data-name="Trazado 169758" d="M9.25,59.127H4.563a1.563,1.563,0,0,1,0-3.125H9.25a1.563,1.563,0,0,1,0,3.125Z" transform="translate(1.688 31.501)"/>
      <path id="Trazado_169759" data-name="Trazado 169759" d="M1.563,66.815A1.561,1.561,0,0,1,0,65.253v-4.7a1.563,1.563,0,0,1,3.125,0v4.7A1.561,1.561,0,0,1,1.563,66.815Z" transform="translate(0 33.185)"/>
      <path id="Trazado_169760" data-name="Trazado 169760" d="M21.25,63.807a1.561,1.561,0,0,1-1.562-1.562,3.127,3.127,0,0,0-3.125-3.123,1.562,1.562,0,0,1,0-3.125,6.256,6.256,0,0,1,6.25,6.248A1.561,1.561,0,0,1,21.25,63.807Z" transform="translate(8.438 31.498)"/>
      <path id="Trazado_169761" data-name="Trazado 169761" d="M18.25,59.127H13.563a1.563,1.563,0,0,1,0-3.125H18.25a1.563,1.563,0,0,1,0,3.125Z" transform="translate(6.75 31.501)"/>
      <path id="Trazado_169762" data-name="Trazado 169762" d="M19.563,66.815A1.561,1.561,0,0,1,18,65.253v-4.7a1.562,1.562,0,1,1,3.125,0v4.7A1.561,1.561,0,0,1,19.563,66.815Z" transform="translate(10.125 33.185)"/>
      <path id="Trazado_169763" data-name="Trazado 169763" d="M29.688,65.125H1.563a1.563,1.563,0,0,1,0-3.125H29.688a1.563,1.563,0,0,1,0,3.125Z" transform="translate(0 34.875)"/>
      <path id="Trazado_169764" data-name="Trazado 169764" d="M7.563,61.2A1.561,1.561,0,0,1,6,59.637V53.881a1.563,1.563,0,0,1,3.125,0v5.756A1.561,1.561,0,0,1,7.563,61.2Z" transform="translate(3.375 29.429)"/>
      <path id="Trazado_169765" data-name="Trazado 169765" d="M13.563,61.188A1.561,1.561,0,0,1,12,59.626V53.881a1.563,1.563,0,0,1,3.125,0v5.745a1.561,1.561,0,0,1-1.562,1.563Z" transform="translate(6.75 29.429)"/>
      <path id="Trazado_169766" data-name="Trazado 169766" d="M14.5,60.053A12.513,12.513,0,0,1,2,47.558a1.563,1.563,0,0,1,3.125,0,9.375,9.375,0,0,0,18.75,0,1.563,1.563,0,0,1,3.125,0A12.513,12.513,0,0,1,14.5,60.053Z" transform="translate(1.125 25.872)"/>
      <path id="Trazado_169767" data-name="Trazado 169767" d="M25.438,49.056a1.561,1.561,0,0,1-1.562-1.562,9.375,9.375,0,0,0-18.75,0,1.563,1.563,0,0,1-3.125,0,12.5,12.5,0,0,1,25,0A1.561,1.561,0,0,1,25.438,49.056Z" transform="translate(1.125 19.688)"/>
      <path id="Trazado_169768" data-name="Trazado 169768" d="M16.938,59.12H7.563a1.563,1.563,0,0,1,0-3.125h9.375a1.563,1.563,0,0,1,0,3.125Z" transform="translate(3.375 31.497)"/>
      <path id="Trazado_169769" data-name="Trazado 169769" d="M41.563,61.726A1.561,1.561,0,0,1,40,60.164V44.6a1.563,1.563,0,0,1,3.125,0V60.164A1.561,1.561,0,0,1,41.563,61.726Z" transform="translate(22.5 24.211)"/>
      <path id="Trazado_169770" data-name="Trazado 169770" d="M51.688,56.125H23.563a1.563,1.563,0,0,1,0-3.125H51.688a1.563,1.563,0,0,1,0,3.125Z" transform="translate(12.375 29.813)"/>
      <path id="Trazado_169771" data-name="Trazado 169771" d="M23.563,61.726A1.561,1.561,0,0,1,22,60.164V44.6a1.563,1.563,0,0,1,3.125,0V60.164A1.561,1.561,0,0,1,23.563,61.726Z" transform="translate(12.375 24.211)"/>
      <path id="Trazado_169772" data-name="Trazado 169772" d="M51.688,51.23a1.561,1.561,0,0,1-1.562-1.562,12.5,12.5,0,1,0-25,0,1.563,1.563,0,0,1-3.125,0,15.625,15.625,0,1,1,31.25,0A1.561,1.561,0,0,1,51.688,51.23Z" transform="translate(12.375 19.149)"/>
      <path id="Trazado_169773" data-name="Trazado 169773" d="M23.563,63.807A1.561,1.561,0,0,1,22,62.244,6.256,6.256,0,0,1,28.25,56a1.563,1.563,0,1,1,0,3.125,3.127,3.127,0,0,0-3.125,3.123A1.561,1.561,0,0,1,23.563,63.807Z" transform="translate(12.375 31.498)"/>
      <path id="Trazado_169774" data-name="Trazado 169774" d="M31.25,59.127H26.563a1.563,1.563,0,0,1,0-3.125H31.25a1.563,1.563,0,0,1,0,3.125Z" transform="translate(14.063 31.501)"/>
      <path id="Trazado_169775" data-name="Trazado 169775" d="M23.563,66.815A1.561,1.561,0,0,1,22,65.253v-4.7a1.562,1.562,0,1,1,3.125,0v4.7A1.561,1.561,0,0,1,23.563,66.815Z" transform="translate(12.375 33.185)"/>
      <path id="Trazado_169776" data-name="Trazado 169776" d="M43.25,63.807a1.561,1.561,0,0,1-1.562-1.562,3.127,3.127,0,0,0-3.125-3.123,1.562,1.562,0,0,1,0-3.125,6.256,6.256,0,0,1,6.25,6.248A1.561,1.561,0,0,1,43.25,63.807Z" transform="translate(20.813 31.498)"/>
      <path id="Trazado_169777" data-name="Trazado 169777" d="M40.25,59.127H35.563a1.563,1.563,0,0,1,0-3.125H40.25a1.563,1.563,0,0,1,0,3.125Z" transform="translate(19.125 31.501)"/>
      <path id="Trazado_169778" data-name="Trazado 169778" d="M41.563,66.815A1.561,1.561,0,0,1,40,65.253v-4.7a1.563,1.563,0,1,1,3.125,0v4.7A1.561,1.561,0,0,1,41.563,66.815Z" transform="translate(22.5 33.185)"/>
      <path id="Trazado_169779" data-name="Trazado 169779" d="M51.688,65.125H23.563a1.563,1.563,0,0,1,0-3.125H51.688a1.563,1.563,0,0,1,0,3.125Z" transform="translate(12.375 34.875)"/>
      <path id="Trazado_169780" data-name="Trazado 169780" d="M29.563,60.074A1.561,1.561,0,0,1,28,58.512V55.881a1.563,1.563,0,0,1,3.125,0v2.631A1.561,1.561,0,0,1,29.563,60.074Z" transform="translate(15.75 30.554)"/>
      <path id="Trazado_169781" data-name="Trazado 169781" d="M35.563,60.063A1.561,1.561,0,0,1,34,58.5v-2.62a1.563,1.563,0,0,1,3.125,0V58.5a1.561,1.561,0,0,1-1.562,1.563Z" transform="translate(19.125 30.554)"/>
      <path id="Trazado_169782" data-name="Trazado 169782" d="M34.25,60.683a1.564,1.564,0,0,1-.494-.081L29.069,59.04a1.562,1.562,0,0,1,.989-2.964l4.688,1.563a1.563,1.563,0,0,1-.5,3.045Z" transform="translate(15.75 31.496)"/>
      <path id="Trazado_169783" data-name="Trazado 169783" d="M32.562,60.683a1.563,1.563,0,0,1-.494-3.045l4.688-1.562a1.562,1.562,0,0,1,.989,2.964L33.058,60.6a1.537,1.537,0,0,1-.5.081Z" transform="translate(17.438 31.496)"/>
      <path id="Trazado_169784" data-name="Trazado 169784" d="M5.563,15.738A1.561,1.561,0,0,1,4,14.176V9.694a1.563,1.563,0,0,1,3.125,0v4.481A1.561,1.561,0,0,1,5.563,15.738Z" transform="translate(2.25 4.574)"/>
      <path id="Trazado_169785" data-name="Trazado 169785" d="M19.563,16.094A1.561,1.561,0,0,1,18,14.532V9.062a1.563,1.563,0,1,1,3.125,0v5.47A1.561,1.561,0,0,1,19.563,16.094Z" transform="translate(10.125 4.218)"/>
      <path id="Trazado_169786" data-name="Trazado 169786" d="M28,14.842a1.561,1.561,0,0,1-1.562-1.562,10.156,10.156,0,0,0-20.312,0A1.563,1.563,0,0,1,3,13.28a13.281,13.281,0,0,1,26.562,0A1.561,1.561,0,0,1,28,14.842Z" transform="translate(1.688)"/>
      <path id="Trazado_169787" data-name="Trazado 169787" d="M28,13.375a1.561,1.561,0,0,1-1.242-.613c-3.016-3.941-3.836-3.616-6.9-2.4-2.933,1.164-7.367,2.922-15.544,1.628A1.561,1.561,0,1,1,4.808,8.9c7.328,1.153,11.131-.348,13.9-1.448C22.479,5.961,25,5.332,29.24,10.863A1.562,1.562,0,0,1,28,13.375Z" transform="translate(1.688 3.609)"/>
      <path id="Trazado_169788" data-name="Trazado 169788" d="M15.561,11.891a1.563,1.563,0,0,1-1.4-2.252l3.125-6.361a1.562,1.562,0,1,1,2.8,1.377l-3.125,6.361a1.563,1.563,0,0,1-1.4.875Z" transform="translate(7.875 1.352)"/>
      <path id="Trazado_169789" data-name="Trazado 169789" d="M29.625,23.128,15.561,23.12a1.562,1.562,0,0,1,0-3.125h0L29.627,20a1.563,1.563,0,0,1,0,3.125Z" transform="translate(7.875 11.247)"/>
      <path id="Trazado_169790" data-name="Trazado 169790" d="M9.563,24.637A1.561,1.561,0,0,1,8,23.074V18.881a1.563,1.563,0,0,1,3.125,0v4.194A1.561,1.561,0,0,1,9.563,24.637Z" transform="translate(4.5 9.741)"/>
      <path id="Trazado_169791" data-name="Trazado 169791" d="M15.563,24.626A1.561,1.561,0,0,1,14,23.063V18.881a1.563,1.563,0,0,1,3.125,0v4.183A1.561,1.561,0,0,1,15.563,24.626Z" transform="translate(7.875 9.741)"/>
      <path id="Trazado_169792" data-name="Trazado 169792" d="M16.5,25.053A12.513,12.513,0,0,1,4,12.558a1.562,1.562,0,1,1,3.125,0,9.375,9.375,0,0,0,18.75,0,1.563,1.563,0,1,1,3.125,0A12.513,12.513,0,0,1,16.5,25.053Z" transform="translate(2.25 6.185)"/>
      <path id="Trazado_169793" data-name="Trazado 169793" d="M10.565,24.682a1.563,1.563,0,0,1-.7-2.961l3.125-1.562a1.563,1.563,0,0,1,1.4,2.8l-3.125,1.563a1.548,1.548,0,0,1-.7.166Z" transform="translate(5.062 11.247)"/>
      <path id="Trazado_169794" data-name="Trazado 169794" d="M14.563,24.683a1.562,1.562,0,0,1-1.1-2.667l1.563-1.563a1.562,1.562,0,1,1,2.209,2.209l-1.563,1.563a1.558,1.558,0,0,1-1.1.458Z" transform="translate(7.312 11.247)"/>
      <path id="Trazado_169795" data-name="Trazado 169795" d="M11.125,24.683a1.558,1.558,0,0,1-1.1-.458L8.458,22.662a1.562,1.562,0,1,1,2.209-2.209l1.563,1.563a1.562,1.562,0,0,1-1.1,2.667Z" transform="translate(4.5 11.247)"/>
      <path id="Trazado_169796" data-name="Trazado 169796" d="M15.686,24.682a1.567,1.567,0,0,1-.7-.164l-3.125-1.562a1.563,1.563,0,0,1,1.4-2.8l3.125,1.563a1.562,1.562,0,0,1-.7,2.959Z" transform="translate(6.188 11.248)"/>
      <path id="Trazado_169797" data-name="Trazado 169797" d="M4.563,11.4A1.561,1.561,0,0,1,3,9.837V9.061a1.563,1.563,0,0,1,3.125,0v.775A1.561,1.561,0,0,1,4.563,11.4Z" transform="translate(1.688 4.218)"/>
      <path id="Trazado_169798" data-name="Trazado 169798" d="M38.686,13.375a4.688,4.688,0,0,1,0-9.375,1.563,1.563,0,0,1,0,3.125,1.563,1.563,0,0,0,0,3.125,1.563,1.563,0,0,1,0,3.125Z" transform="translate(19.124 2.25)"/>
      <path id="Trazado_169799" data-name="Trazado 169799" d="M43.558,13.375a1.563,1.563,0,0,1,0-3.125,1.563,1.563,0,0,0,0-3.125,1.563,1.563,0,0,1,0-3.125,4.688,4.688,0,0,1,0,9.375Z" transform="translate(23.623 2.25)"/>
      <path id="Trazado_169800" data-name="Trazado 169800" d="M46.932,7.125H37.561a1.563,1.563,0,0,1,0-3.125h9.372a1.563,1.563,0,0,1,0,3.125Z" transform="translate(20.249 2.25)"/>
      <path id="Trazado_169801" data-name="Trazado 169801" d="M46.932,11.125H37.561a1.563,1.563,0,0,1,0-3.125h9.372a1.563,1.563,0,0,1,0,3.125Z" transform="translate(20.249 4.5)"/>
      <path id="Trazado_169802" data-name="Trazado 169802" d="M38.686,31.374a4.688,4.688,0,0,1,0-9.375,1.563,1.563,0,0,1,0,3.125,1.563,1.563,0,0,0,0,3.125,1.563,1.563,0,0,1,0,3.125Z" transform="translate(19.124 12.374)"/>
      <path id="Trazado_169803" data-name="Trazado 169803" d="M43.558,31.374a1.562,1.562,0,0,1,0-3.125,1.562,1.562,0,1,0,0-3.125,1.562,1.562,0,0,1,0-3.125,4.688,4.688,0,1,1,0,9.375Z" transform="translate(23.623 12.374)"/>
      <path id="Trazado_169804" data-name="Trazado 169804" d="M46.932,25.124H37.561a1.563,1.563,0,0,1,0-3.125h9.372a1.563,1.563,0,0,1,0,3.125Z" transform="translate(20.249 12.374)"/>
      <path id="Trazado_169805" data-name="Trazado 169805" d="M46.932,29.124H37.561a1.563,1.563,0,0,1,0-3.125h9.372a1.563,1.563,0,0,1,0,3.125Z" transform="translate(20.249 14.624)"/>
      <path id="Trazado_169806" data-name="Trazado 169806" d="M40.56,17.369A1.561,1.561,0,0,1,39,15.806V9.563a1.563,1.563,0,0,1,3.125,0v6.244A1.561,1.561,0,0,1,40.56,17.369Z" transform="translate(21.936 4.5)"/>
      <path id="Trazado_169807" data-name="Trazado 169807" d="M43.371,24.5a1.568,1.568,0,0,1-.8-.223l-7.811-4.687a1.562,1.562,0,0,1,0-2.678l7.811-4.687a1.57,1.57,0,0,1,1.608,0l7.811,4.687a1.562,1.562,0,0,1,0,2.678l-7.811,4.688A1.554,1.554,0,0,1,43.371,24.5ZM38.6,18.25l4.775,2.866,4.775-2.866-4.775-2.866Z" transform="translate(19.124 6.751)"/>
      <path id="Trazado_169808" data-name="Trazado 169808" d="M65.188,22.377H49.563A1.561,1.561,0,0,1,48,20.814V14.563A1.561,1.561,0,0,1,49.563,13H65.188a1.561,1.561,0,0,1,1.563,1.563v6.252A1.561,1.561,0,0,1,65.188,22.377ZM51.125,19.252h12.5V16.125h-12.5Z" transform="translate(27 7.313)"/>
      <path id="Trazado_169809" data-name="Trazado 169809" d="M40.56,27.373A1.561,1.561,0,0,1,39,25.81V19.563a1.563,1.563,0,0,1,3.125,0V25.81A1.561,1.561,0,0,1,40.56,27.373Z" transform="translate(21.936 10.126)"/>
      <path id="Trazado_169810" data-name="Trazado 169810" d="M51.815,18.126H45.558a1.563,1.563,0,0,1,0-3.125h6.256a1.563,1.563,0,0,1,0,3.125Z" transform="translate(24.748 8.438)"/>
      <path id="Trazado_169811" data-name="Trazado 169811" d="M54.563,31.062A1.561,1.561,0,0,1,53,29.5V18.563a1.563,1.563,0,0,1,3.125,0V29.5A1.561,1.561,0,0,1,54.563,31.062Z" transform="translate(29.813 9.563)"/>
      <path id="Trazado_169812" data-name="Trazado 169812" d="M59.627,27.125H45.559a1.563,1.563,0,1,1,0-3.125H59.627a1.563,1.563,0,0,1,0,3.125Z" transform="translate(24.748 13.5)"/>
    </g>
  </g>
</svg>
