<svg xmlns="http://www.w3.org/2000/svg" width="150" height="150" viewBox="0 0 150 150">
  <g id="Grupo_115955" data-name="Grupo 115955" transform="translate(-725.315 -2060.709)">
    <g id="Elipse_5921" data-name="Elipse 5921" transform="translate(725.315 2060.709)" fill="#fff" stroke="#77b43a" stroke-width="4">
      <circle cx="75" cy="75" r="75" stroke="none"/>
      <circle cx="75" cy="75" r="73" fill="none"/>
    </g>
    <g id="reclutamiento" transform="translate(753.898 2089.416)">
      <path id="Trazado_169380" data-name="Trazado 169380" d="M20.588,53.561l-6.534,7.19L7.52,53.561a14.459,14.459,0,0,1,13.068,0Z" transform="translate(3.179 23.249)" fill="#e6e9ed"/>
      <path id="Trazado_169381" data-name="Trazado 169381" d="M31.17,66.094H2A14.539,14.539,0,0,1,6.273,55.783a14.222,14.222,0,0,1,3.778-2.713l6.534,7.19,6.534-7.19A14.548,14.548,0,0,1,31.17,66.094Z" transform="translate(0.648 23.74)" fill="#f85316"/>
      <path id="Trazado_169382" data-name="Trazado 169382" d="M43.119,46.07A14.548,14.548,0,0,1,51.17,59.094H22a14.539,14.539,0,0,1,4.273-10.312,14.222,14.222,0,0,1,3.778-2.713l6.534,7.19Z" transform="translate(9.818 20.53)" fill="#dce736"/>
      <path id="Trazado_169383" data-name="Trazado 169383" d="M40.588,46.561l-6.534,7.19-6.534-7.19a14.459,14.459,0,0,1,13.068,0Z" transform="translate(12.349 20.04)" fill="#fcd770"/>
      <path id="Trazado_169384" data-name="Trazado 169384" d="M71.17,66.094H42a14.539,14.539,0,0,1,4.273-10.312,14.222,14.222,0,0,1,3.778-2.713l6.534,7.19,6.534-7.19A14.548,14.548,0,0,1,71.17,66.094Z" transform="translate(18.989 23.74)" fill="#b4dd7f"/>
      <path id="Trazado_169385" data-name="Trazado 169385" d="M60.588,53.561l-6.534,7.19-6.534-7.19a14.459,14.459,0,0,1,13.068,0Z" transform="translate(21.519 23.249)" fill="#ccd1d9"/>
      <g id="Grupo_114649" data-name="Grupo 114649" transform="translate(9.941 50.455)">
        <circle id="Elipse_5929" data-name="Elipse 5929" cx="7.293" cy="7.293" r="7.293" transform="translate(58.34 10.21)" fill="#f0d0b4"/>
        <path id="Trazado_169386" data-name="Trazado 169386" d="M34.293,35a7.306,7.306,0,0,1,5.834,2.917,7.207,7.207,0,0,1,1.459,4.376,2.472,2.472,0,0,1-.015.335A7.289,7.289,0,0,1,27,42.293a7.988,7.988,0,0,1,.19-1.677,4.813,4.813,0,0,0,1.444.219h.613a5.03,5.03,0,0,0,5.046-5.046,3.391,3.391,0,0,0-.073-.773Z" transform="translate(2.17 -35)" fill="#f0d0b4"/>
        <circle id="Elipse_5930" data-name="Elipse 5930" cx="7.293" cy="7.293" r="7.293" transform="translate(0 10.21)" fill="#f0d0b4"/>
      </g>
      <path id="Trazado_169387" data-name="Trazado 169387" d="M29.712,14.21l-2.917,2.917L13.668,30.253,12.21,31.712,2,21.5,19.5,4Z" transform="translate(0.648 1.241)" fill="#75b62f"/>
      <path id="Trazado_169388" data-name="Trazado 169388" d="M55.3,38.754a4.378,4.378,0,0,1-3.909,7.395A4.551,4.551,0,0,1,49,44.821l-7-7V23.25A23.043,23.043,0,0,1,44.275,25.6Z" transform="translate(18.989 10.067)" fill="#f0d0b4"/>
      <path id="Trazado_169389" data-name="Trazado 169389" d="M40.614,49.448a5.074,5.074,0,0,1-3.573,1.473h-.613a4.813,4.813,0,0,1-1.444-.219,4.739,4.739,0,0,1-1.517-.744L20.385,40.434a24.954,24.954,0,0,1-3.063-2.611,25.647,25.647,0,0,1-4.813-6.68L10,26.127,23.127,13l9.728,1.079a14.425,14.425,0,0,1,6.272,2.232L53.682,25.66a22.857,22.857,0,0,1,2.99,2.29V49.463a4.379,4.379,0,0,1-7.307,3.252,2.472,2.472,0,0,0,.015-.335A7.207,7.207,0,0,0,47.921,48V40.376A7.555,7.555,0,0,0,42.364,33.1L27.5,29.044V30.5L40.41,42.126a5.015,5.015,0,0,1,1.6,2.975,3.391,3.391,0,0,1,.073.773A5.074,5.074,0,0,1,40.614,49.448Z" transform="translate(4.316 5.368)" fill="#f0d0b4"/>
      <circle id="Elipse_5931" data-name="Elipse 5931" cx="2.917" cy="2.917" r="2.917" transform="translate(75.574 21.285)" fill="#fcd770"/>
      <path id="Trazado_169390" data-name="Trazado 169390" d="M81.049,74.181a8.751,8.751,0,1,0-10.95,0,16.1,16.1,0,0,0-7.651,5.866V79.032A16.055,16.055,0,0,0,51.879,63.972a8.761,8.761,0,0,0,2.882-4.219,5.79,5.79,0,0,0,7.686-5.515V50.819l4.513,4.513a6,6,0,0,0,3.161,1.725,6.185,6.185,0,0,0,1.092.1,5.834,5.834,0,0,0,5.819-5.835,5.7,5.7,0,0,0-1.623-4.031L64.384,34.141a24.791,24.791,0,0,0-5.592-4.927L44.235,19.855a16.1,16.1,0,0,0-6.9-2.449l-6.712-.745,1.8-1.8L20.15,2.586.586,22.15,12.858,34.422l1.059-1.059,1.606,3.21a27.2,27.2,0,0,0,8.318,9.82L36.926,55.91a6.581,6.581,0,0,0,.77.474c-.022.255-.044.512-.044.77a8.739,8.739,0,0,0,3.276,6.817A16.055,16.055,0,0,0,30.36,79.032v1.014a16.107,16.107,0,0,0-7.651-5.866,8.75,8.75,0,1,0-10.95,0A16.055,16.055,0,0,0,1.19,89.242V90.7H33.277V89.242a15.94,15.94,0,0,0-2.614-8.751H62.145a15.93,15.93,0,0,0-2.615,8.751V90.7H91.617V89.242A16.055,16.055,0,0,0,81.049,74.181ZM11.4,67.364A5.834,5.834,0,1,1,17.233,73.2,5.84,5.84,0,0,1,11.4,67.364Zm9.9,9.407-4.062,4.467-4.062-4.467a12.9,12.9,0,0,1,8.124,0ZM4.187,87.783a13.146,13.146,0,0,1,6.2-9.736l6.845,7.529,6.843-7.529a13.142,13.142,0,0,1,6.2,9.736ZM47.451,48.472a6.471,6.471,0,0,0-1.741-2.656l-10.678-9.61L46.3,39.279a6.077,6.077,0,0,1,4.481,5.868v4.441A8.675,8.675,0,0,0,47.451,48.472Zm25.81.786a2.919,2.919,0,0,1-2.622,4.928,3.162,3.162,0,0,1-1.615-.917l-6.576-6.575V36.369ZM4.711,22.15,20.15,6.711,28.3,14.858,12.858,30.3ZM25.557,44.035a24.458,24.458,0,0,1-2.883-2.463,24.2,24.2,0,0,1-4.542-6.3l-2.04-4.079L27.98,19.3l9.031,1a13.185,13.185,0,0,1,5.649,2L57.217,31.67A21.8,21.8,0,0,1,59.531,33.4V54.238a2.911,2.911,0,0,1-4.4,2.51A8.7,8.7,0,0,0,53.7,52.327V45.145a9,9,0,0,0-6.63-8.681L32.2,32.411a1.462,1.462,0,0,0-1.845,1.407v1.459a1.453,1.453,0,0,0,.483,1.084L43.758,47.983a3.588,3.588,0,0,1-2.4,6.254h-.607a3.569,3.569,0,0,1-2.109-.685ZM40.569,57.155s0-.009,0-.015c.061,0,.12.015.181.015h.607A6.494,6.494,0,0,0,47.777,51.5a5.827,5.827,0,1,1-7.208,5.653Zm9.9,9.407L46.4,71.029l-4.062-4.467a12.9,12.9,0,0,1,8.124,0ZM33.357,77.574a13.146,13.146,0,0,1,6.2-9.736L46.4,75.367l6.843-7.529a13.142,13.142,0,0,1,6.2,9.736ZM69.74,67.364A5.834,5.834,0,1,1,75.574,73.2,5.84,5.84,0,0,1,69.74,67.364Zm9.9,9.407-4.062,4.467-4.062-4.467a12.9,12.9,0,0,1,8.124,0ZM62.527,87.783a13.146,13.146,0,0,1,6.2-9.736l6.845,7.529,6.843-7.529a13.142,13.142,0,0,1,6.2,9.736Z" transform="translate(0 0.593)"/>
      <path id="Trazado_169391" data-name="Trazado 169391" d="M67.94,3.355,65.878,1.293,55.241,11.93l-1.886-1.886-2.062,2.062,3.948,3.948Z" transform="translate(23.249)"/>
      <path id="Trazado_169392" data-name="Trazado 169392" d="M55.376,22.751A4.376,4.376,0,1,0,51,18.376,4.381,4.381,0,0,0,55.376,22.751Zm0-5.834a1.459,1.459,0,1,1-1.459,1.459A1.461,1.461,0,0,1,55.376,16.917Z" transform="translate(23.115 5.826)"/>
      <path id="Trazado_169393" data-name="Trazado 169393" d="M37,8H54.5v2.917H37Z" transform="translate(16.696 3.075)"/>
      <path id="Trazado_169394" data-name="Trazado 169394" d="M37,16H48.668v2.917H37Z" transform="translate(16.696 6.743)"/>
      <path id="Trazado_169395" data-name="Trazado 169395" d="M47,16h2.917v2.917H47Z" transform="translate(21.281 6.743)"/>
      <path id="Trazado_169396" data-name="Trazado 169396" d="M37,12H54.5v2.917H37Z" transform="translate(16.696 4.909)"/>
    </g>
  </g>
</svg>
