<svg xmlns="http://www.w3.org/2000/svg" width="150" height="150" viewBox="0 0 150 150">
  <g id="Grupo_115958" data-name="Grupo 115958" transform="translate(-725 -1094)">
    <g id="Elipse_5959" data-name="Elipse 5959" transform="translate(725 1094)" fill="#fff" stroke="#77b43a" stroke-width="4">
      <circle cx="75" cy="75" r="75" stroke="none"/>
      <circle cx="75" cy="75" r="73" fill="none"/>
    </g>
    <g id="Grupo_114845" data-name="Grupo 114845" transform="translate(732.348 1108.688)">
      <path id="Trazado_169894" data-name="Trazado 169894" d="M19.366,114.719v-4.306a10.431,10.431,0,0,1,4.965-8.887l11.878-7.311h6.27l11.878,7.311a10.431,10.431,0,0,1,4.965,8.887v4.306Z" transform="translate(-0.307 -15.2)" fill="#3d46c1"/>
      <path id="Trazado_169895" data-name="Trazado 169895" d="M54.214,58.16V53.853a10.431,10.431,0,0,1,4.965-8.887l11.878-7.311h6.27L89.2,44.967a10.431,10.431,0,0,1,4.965,8.887V58.16Z" transform="translate(-6.539 -5.084)" fill="#f75316"/>
      <path id="Trazado_169896" data-name="Trazado 169896" d="M59.014,115.82H19.059a1.407,1.407,0,0,1-1.407-1.407v-4.306a11.916,11.916,0,0,1,5.634-10.086L35.164,92.71A1.4,1.4,0,0,1,35.9,92.5h6.27a1.4,1.4,0,0,1,.738.208l11.878,7.311a11.919,11.919,0,0,1,5.634,10.086v4.306a1.407,1.407,0,0,1-1.407,1.407Zm-38.548-2.815H57.607v-2.9a9.078,9.078,0,0,0-4.3-7.687l-11.54-7.1H36.3l-11.54,7.1a9.091,9.091,0,0,0-4.3,7.687v2.9Z" transform="translate(0 -14.893)"/>
      <path id="Trazado_169897" data-name="Trazado 169897" d="M41.547,93.964h0A9.857,9.857,0,0,1,31.693,84.1V77.369a9.859,9.859,0,0,1,9.854-9.862h0A9.857,9.857,0,0,1,51.4,77.369V84.1a9.859,9.859,0,0,1-9.854,9.862Z" transform="translate(-2.511 -10.423)" fill="#ffd4a2"/>
      <path id="Trazado_169898" data-name="Trazado 169898" d="M41.24,95.065A11.278,11.278,0,0,1,29.979,83.8V77.062a11.261,11.261,0,1,1,22.522,0V83.8A11.278,11.278,0,0,1,41.24,95.065Zm0-26.454a8.458,8.458,0,0,0-8.446,8.452V83.8a8.446,8.446,0,1,0,16.893,0V77.062A8.458,8.458,0,0,0,41.24,68.61Z" transform="translate(-2.205 -10.116)"/>
      <path id="Trazado_169899" data-name="Trazado 169899" d="M78.356,81.617a1.407,1.407,0,0,1-1.407-1.407V69.418a1.407,1.407,0,0,1,2.815,0V80.21A1.407,1.407,0,0,1,78.356,81.617Z" transform="translate(-10.606 -10.513)" fill="#75b52f"/>
      <path id="Trazado_169900" data-name="Trazado 169900" d="M65.875,91.5a1.408,1.408,0,0,1-.885-2.5l5.076-4.1,5.073-4.114a1.4,1.4,0,0,1,1.771,0L87.061,89a1.407,1.407,0,0,1-1.768,2.19l-9.266-7.5-4.19,3.4-5.078,4.1a1.4,1.4,0,0,1-.883.311Z" transform="translate(-8.373 -12.741)" fill="#75b52f"/>
      <path id="Trazado_169901" data-name="Trazado 169901" d="M89.065,114.719v-4.306a10.431,10.431,0,0,1,4.965-8.887l11.878-7.311h6.27l11.878,7.311a10.431,10.431,0,0,1,4.965,8.887v4.306Z" transform="translate(-12.773 -15.2)" fill="#dbe636"/>
      <path id="Trazado_169902" data-name="Trazado 169902" d="M128.71,115.82H88.755a1.407,1.407,0,0,1-1.407-1.407v-4.306a11.916,11.916,0,0,1,5.634-10.086L104.86,92.71a1.4,1.4,0,0,1,.738-.208h6.27a1.4,1.4,0,0,1,.738.208l11.878,7.311a11.919,11.919,0,0,1,5.634,10.086v4.306a1.407,1.407,0,0,1-1.407,1.407Zm-38.548-2.815H127.3v-2.9a9.078,9.078,0,0,0-4.3-7.687l-11.538-7.1H106l-11.54,7.1a9.091,9.091,0,0,0-4.3,7.687v2.9Z" transform="translate(-12.466 -14.893)"/>
      <path id="Trazado_169903" data-name="Trazado 169903" d="M111.246,93.964h0a9.857,9.857,0,0,1-9.854-9.862V77.369a9.859,9.859,0,0,1,9.854-9.862h0a9.857,9.857,0,0,1,9.854,9.862V84.1a9.859,9.859,0,0,1-9.854,9.862Z" transform="translate(-14.978 -10.423)" fill="#ffd4a2"/>
      <path id="Trazado_169904" data-name="Trazado 169904" d="M110.939,95.065A11.278,11.278,0,0,1,99.678,83.8V77.062a11.261,11.261,0,1,1,22.522,0V83.8A11.278,11.278,0,0,1,110.939,95.065Zm0-26.454a8.46,8.46,0,0,0-8.446,8.452V83.8a8.446,8.446,0,1,0,16.893,0V77.062A8.458,8.458,0,0,0,110.939,68.61Z" transform="translate(-14.671 -10.116)"/>
      <path id="Trazado_169905" data-name="Trazado 169905" d="M93.862,59.26H53.907A1.407,1.407,0,0,1,52.5,57.853V53.547a11.916,11.916,0,0,1,5.634-10.086l11.878-7.311a1.4,1.4,0,0,1,.738-.208h6.27a1.4,1.4,0,0,1,.738.208l11.878,7.311A11.919,11.919,0,0,1,95.27,53.547v4.306A1.407,1.407,0,0,1,93.862,59.26ZM55.314,56.446H92.455v-2.9a9.078,9.078,0,0,0-4.3-7.687l-11.538-7.1H71.148l-11.54,7.1a9.091,9.091,0,0,0-4.3,7.687v2.9Z" transform="translate(-6.233 -4.777)"/>
      <path id="Trazado_169906" data-name="Trazado 169906" d="M76.4,37.4h0a9.857,9.857,0,0,1-9.854-9.862V20.809A9.859,9.859,0,0,1,76.4,10.947h0a9.857,9.857,0,0,1,9.854,9.862v6.733A9.859,9.859,0,0,1,76.4,37.4Z" transform="translate(-8.745 -0.307)" fill="#ffd4a2"/>
      <path id="Trazado_169907" data-name="Trazado 169907" d="M76.091,38.5A11.278,11.278,0,0,1,64.83,27.236V20.5a11.261,11.261,0,1,1,22.522,0v6.733A11.278,11.278,0,0,1,76.091,38.5Zm0-26.454A8.46,8.46,0,0,0,67.645,20.5v6.733a8.446,8.446,0,1,0,16.893,0V20.5A8.458,8.458,0,0,0,76.091,12.051Z" transform="translate(-8.438 0)"/>
    </g>
  </g>
</svg>
