<svg xmlns="http://www.w3.org/2000/svg" width="150" height="150" viewBox="0 0 150 150">
  <g id="Grupo_115954" data-name="Grupo 115954" transform="translate(6132 9795.291)">
    <g id="Elipse_5923" data-name="Elipse 5923" transform="translate(-6132 -9795.291)" fill="#fff" stroke="#77b43a" stroke-width="4">
      <circle cx="75" cy="75" r="75" stroke="none"/>
      <circle cx="75" cy="75" r="73" fill="none"/>
    </g>
    <g id="salario" transform="translate(-6103 -9766)">
      <g id="Grupo_114666" data-name="Grupo 114666" transform="translate(2.452 2.452)">
        <g id="Grupo_114650" data-name="Grupo 114650" transform="translate(17.419 5.806)">
          <path id="Trazado_169397" data-name="Trazado 169397" d="M80.774,6H16.9A2.912,2.912,0,0,0,14,8.9v8.71H83.677V8.9A2.912,2.912,0,0,0,80.774,6Z" transform="translate(-14 -6)" fill="#3d46c2"/>
        </g>
        <g id="Grupo_114651" data-name="Grupo 114651" transform="translate(17.419 17.419)">
          <path id="Trazado_169398" data-name="Trazado 169398" d="M14,14V63.355H80.774a2.912,2.912,0,0,0,2.9-2.9V14Z" transform="translate(-14 -14)" fill="#e6e9ed"/>
        </g>
        <g id="Grupo_114652" data-name="Grupo 114652" transform="translate(23.226 23.226)">
          <path id="Trazado_169399" data-name="Trazado 169399" d="M76.065,18V55.742H55.742V48.948a9.935,9.935,0,0,0,4.355.987,10.161,10.161,0,1,0-9.174-14.516H18V18Z" transform="translate(-18 -18)" fill="#ffeaa7"/>
        </g>
        <g id="Grupo_114653" data-name="Grupo 114653" transform="translate(30.484 40.645)">
          <path id="Trazado_169400" data-name="Trazado 169400" d="M47.677,34.355a10.118,10.118,0,0,0,5.806,9.174v6.794a8.717,8.717,0,0,0-8.71,8.71H23A14.516,14.516,0,1,0,23,30H48.665A9.935,9.935,0,0,0,47.677,34.355Z" transform="translate(-23 -30)" fill="#dce736"/>
        </g>
        <g id="Grupo_114654" data-name="Grupo 114654" transform="translate(0 40.645)">
          <path id="Trazado_169401" data-name="Trazado 169401" d="M25.226,30h7.258A14.521,14.521,0,0,0,17.968,44.516c0,.494.029.973.073,1.452l.247.232a2.922,2.922,0,0,0-1.771,2.671V59.032H10.71A8.717,8.717,0,0,0,2,50.323V38.71A8.717,8.717,0,0,0,10.71,30H25.226Z" transform="translate(-2 -30)" fill="#dce736"/>
        </g>
        <g id="Grupo_114655" data-name="Grupo 114655" transform="translate(17.419 81.29)">
          <path id="Trazado_169402" data-name="Trazado 169402" d="M37.226,58v5.806H14V58H37.226Z" transform="translate(-14 -58)" fill="#ff826e"/>
        </g>
        <g id="Grupo_114656" data-name="Grupo 114656" transform="translate(15.968 40.645)">
          <path id="Trazado_169403" data-name="Trazado 169403" d="M27.516,59.032h-2.9l-.218.058A6.028,6.028,0,0,0,23.408,57a6.371,6.371,0,0,0-3.15-2.323v-2.9a5.8,5.8,0,0,0-5.806-5.806,2.922,2.922,0,0,0-1.132.232l-.247-.232c-.044-.479-.073-.958-.073-1.452A14.516,14.516,0,1,1,27.516,59.032Z" transform="translate(-13 -30)" fill="#fcd770"/>
        </g>
        <g id="Grupo_114657" data-name="Grupo 114657" transform="translate(14.516 56.613)">
          <path id="Trazado_169404" data-name="Trazado 169404" d="M27.968,54.065H41.032v1.306A8.689,8.689,0,0,1,39.116,60.8l-3.89,4.877H17.807L13.9,60.8A8.59,8.59,0,0,1,12,55.371V43.9A2.91,2.91,0,0,1,14.9,41a5.8,5.8,0,0,1,5.806,5.806v2.9a6.371,6.371,0,0,1,3.15,2.323,6.028,6.028,0,0,1,.987,2.09l.218-.058Z" transform="translate(-12 -41)" fill="#f0d0b4"/>
        </g>
        <g id="Grupo_114658" data-name="Grupo 114658" transform="translate(52.258 60.968)">
          <path id="Trazado_169405" data-name="Trazado 169405" d="M46.71,49.806v2.9H38A8.717,8.717,0,0,1,46.71,44Z" transform="translate(-38 -44)" fill="#a0d468"/>
        </g>
        <g id="Grupo_114659" data-name="Grupo 114659" transform="translate(0 60.968)">
          <path id="Trazado_169406" data-name="Trazado 169406" d="M10.71,52.71H2V44A8.717,8.717,0,0,1,10.71,52.71Z" transform="translate(-2 -44)" fill="#a0d468"/>
        </g>
        <g id="Grupo_114660" data-name="Grupo 114660" transform="translate(0 40.645)">
          <path id="Trazado_169407" data-name="Trazado 169407" d="M2,30h8.71A8.717,8.717,0,0,1,2,38.71Z" transform="translate(-2 -30)" fill="#a0d468"/>
        </g>
        <g id="Grupo_114661" data-name="Grupo 114661" transform="translate(55.161 34.839)">
          <path id="Trazado_169408" data-name="Trazado 169408" d="M50.161,26a10.161,10.161,0,1,1,0,20.323,9.935,9.935,0,0,1-4.355-.987A10.118,10.118,0,0,1,40,36.161a9.935,9.935,0,0,1,.987-4.355A10.118,10.118,0,0,1,50.161,26Z" transform="translate(-40 -26)" fill="#f85316"/>
        </g>
        <g id="Grupo_114662" data-name="Grupo 114662" transform="translate(69.677)">
          <path id="Trazado_169409" data-name="Trazado 169409" d="M58.71,7.806v2.9a2.912,2.912,0,0,1-2.9,2.9H52.9a2.912,2.912,0,0,1-2.9-2.9V4.9A2.912,2.912,0,0,1,52.9,2h2.9a2.912,2.912,0,0,1,2.9,2.9Z" transform="translate(-50 -2)" fill="#aab2bd"/>
        </g>
        <g id="Grupo_114663" data-name="Grupo 114663" transform="translate(55.161)">
          <path id="Trazado_169410" data-name="Trazado 169410" d="M48.71,7.806v2.9a2.912,2.912,0,0,1-2.9,2.9H42.9a2.912,2.912,0,0,1-2.9-2.9V4.9A2.912,2.912,0,0,1,42.9,2h2.9a2.912,2.912,0,0,1,2.9,2.9Z" transform="translate(-40 -2)" fill="#aab2bd"/>
        </g>
        <g id="Grupo_114664" data-name="Grupo 114664" transform="translate(40.645)">
          <path id="Trazado_169411" data-name="Trazado 169411" d="M38.71,7.806v2.9a2.912,2.912,0,0,1-2.9,2.9H32.9a2.912,2.912,0,0,1-2.9-2.9V4.9A2.912,2.912,0,0,1,32.9,2h2.9a2.912,2.912,0,0,1,2.9,2.9Z" transform="translate(-30 -2)" fill="#aab2bd"/>
        </g>
        <g id="Grupo_114665" data-name="Grupo 114665" transform="translate(26.129)">
          <path id="Trazado_169412" data-name="Trazado 169412" d="M28.71,7.806v2.9a2.912,2.912,0,0,1-2.9,2.9H22.9a2.912,2.912,0,0,1-2.9-2.9V4.9A2.912,2.912,0,0,1,22.9,2h2.9a2.912,2.912,0,0,1,2.9,2.9Z" transform="translate(-20 -2)" fill="#aab2bd"/>
        </g>
      </g>
      <g id="Grupo_114667" data-name="Grupo 114667" transform="translate(1 1)">
        <path id="Trazado_169413" data-name="Trazado 169413" d="M26.258,53.323v-2.9a4.355,4.355,0,0,0,0-8.71h-2.9a1.452,1.452,0,1,1,0-2.9h2.9a1.452,1.452,0,0,1,1.452,1.452h2.9A4.36,4.36,0,0,0,26.258,35.9V33h-2.9v2.9a4.355,4.355,0,0,0,0,8.71h2.9a1.452,1.452,0,1,1,0,2.9h-2.9A1.452,1.452,0,0,1,21.9,46.065H19a4.36,4.36,0,0,0,4.355,4.355v2.9Z" transform="translate(7.129 13.452)"/>
        <path id="Trazado_169414" data-name="Trazado 169414" d="M54.054,32.346,52,30.293l-4.779,4.78L45.346,33.2l-2.053,2.053,3.93,3.93Z" transform="translate(18.1 12.229)"/>
        <path id="Trazado_169415" data-name="Trazado 169415" d="M86.645,6.806H82.29V5.355A4.36,4.36,0,0,0,77.935,1h-2.9a4.36,4.36,0,0,0-4.355,4.355V6.806h-2.9V5.355A4.36,4.36,0,0,0,63.419,1h-2.9a4.36,4.36,0,0,0-4.355,4.355V6.806h-2.9V5.355A4.36,4.36,0,0,0,48.9,1H46a4.36,4.36,0,0,0-4.355,4.355V6.806h-2.9V5.355A4.36,4.36,0,0,0,34.387,1h-2.9a4.36,4.36,0,0,0-4.355,4.355V6.806H22.774a4.36,4.36,0,0,0-4.355,4.355V41.645H1V73.581H15.522a10.188,10.188,0,0,0,2.211,6.194l2.013,2.516H18.419V91H44.548V82.29h-1.34l2.01-2.513a10.2,10.2,0,0,0,2.212-6.2h17.44v-2.9H86.645A4.36,4.36,0,0,0,91,66.323V11.161A4.36,4.36,0,0,0,86.645,6.806ZM73.581,5.355A1.453,1.453,0,0,1,75.032,3.9h2.9a1.453,1.453,0,0,1,1.452,1.452v5.806a1.453,1.453,0,0,1-1.452,1.452h-2.9a1.453,1.453,0,0,1-1.452-1.452Zm-14.516,0A1.453,1.453,0,0,1,60.516,3.9h2.9a1.453,1.453,0,0,1,1.452,1.452v5.806a1.453,1.453,0,0,1-1.452,1.452h-2.9a1.453,1.453,0,0,1-1.452-1.452Zm-14.516,0A1.453,1.453,0,0,1,46,3.9h2.9a1.453,1.453,0,0,1,1.452,1.452v5.806A1.453,1.453,0,0,1,48.9,12.613H46a1.453,1.453,0,0,1-1.452-1.452Zm-14.516,0A1.453,1.453,0,0,1,31.484,3.9h2.9a1.453,1.453,0,0,1,1.452,1.452v5.806a1.453,1.453,0,0,1-1.452,1.452h-2.9a1.453,1.453,0,0,1-1.452-1.452ZM22.774,9.71h4.355v1.452a4.36,4.36,0,0,0,4.355,4.355h2.9a4.36,4.36,0,0,0,4.355-4.355V9.71h2.9v1.452A4.36,4.36,0,0,0,46,15.516h2.9a4.36,4.36,0,0,0,4.355-4.355V9.71h2.9v1.452a4.36,4.36,0,0,0,4.355,4.355h2.9a4.36,4.36,0,0,0,4.355-4.355V9.71h2.9v1.452a4.36,4.36,0,0,0,4.355,4.355h2.9a4.36,4.36,0,0,0,4.355-4.355V9.71h4.355A1.453,1.453,0,0,1,88.1,11.161v7.258H21.323V11.161A1.453,1.453,0,0,1,22.774,9.71Zm30.6,60.968H42.088a15.93,15.93,0,0,0,0-26.129H56.545a11.479,11.479,0,0,0-.383,2.9,11.613,11.613,0,0,0,5.806,10.042v4.59A10.168,10.168,0,0,0,53.374,70.677ZM27.129,66.8V64.871a7.266,7.266,0,0,0-7.258-7.258A13.065,13.065,0,1,1,32.935,70.677H30.825a7.813,7.813,0,0,0-3.7-3.873ZM76.484,47.452a8.71,8.71,0,1,1-8.71-8.71A8.718,8.718,0,0,1,76.484,47.452Zm-16.365-8.71a11.713,11.713,0,0,0-2.386,2.9H50.355v-2.9Zm-12.667,2.9h-8.71v-2.9h8.71ZM64.871,58.683a11.23,11.23,0,0,0,5.806,0v3.285H64.871Zm8.71-1.189A11.577,11.577,0,0,0,75.43,38.742h6.86V61.968h-8.71Zm8.71-21.655h-8.71v-8.71h8.71Zm-11.613,0h-8.71v-8.71h8.71Zm-11.613,0h-8.71v-8.71h8.71Zm-11.613,0h-8.71v-8.71h8.71Zm-11.613,0h-8.71v-8.71h8.71Zm-8.71,2.9h8.71v2.9h-8.71ZM16.968,57.613c0,.367.029.727.054,1.089a4.33,4.33,0,0,0-1.507,3.265l0,8.711H12.5A10.168,10.168,0,0,0,3.9,62.084V53.142A10.168,10.168,0,0,0,12.5,44.548H23.783A15.953,15.953,0,0,0,16.968,57.613Zm-7.4-13.065a7.281,7.281,0,0,1-5.66,5.66v-5.66ZM3.9,65.018a7.281,7.281,0,0,1,5.66,5.66H3.9ZM41.645,88.1H21.323v-2.9H41.645ZM42.95,77.963,39.488,82.29H23.465L20,77.96a7.262,7.262,0,0,1-1.59-4.529l.006-11.462a1.457,1.457,0,0,1,1.455-1.453,4.36,4.36,0,0,1,4.355,4.355v3.95l.993.331a4.911,4.911,0,0,1,3.362,4.664v1.216h2.9V73.816c0-.08-.015-.157-.016-.235H44.53a7.284,7.284,0,0,1-1.579,4.382Zm13.358-7.286a7.281,7.281,0,0,1,5.66-5.66v5.66Zm30.337-2.9H64.871v-2.9H85.194V24.226H24.226V41.645h-2.9V21.323H88.1v45A1.452,1.452,0,0,1,86.645,67.774Z" transform="translate(-1 -1)"/>
      </g>
    </g>
  </g>
</svg>
