<svg xmlns="http://www.w3.org/2000/svg" width="150" height="150" viewBox="0 0 150 150">
  <g id="Grupo_115959" data-name="Grupo 115959" transform="translate(-1080 -1094)">
    <g id="Trazado_169921" data-name="Trazado 169921" transform="translate(1080 1094)" fill="#fff">
      <path d="M 75 148 C 65.14418029785156 148 55.5842399597168 146.0701751708984 46.58572006225586 142.2641143798828 C 42.26060104370117 140.4347381591797 38.08885955810547 138.1703796386719 34.1864013671875 135.533935546875 C 30.32049942016602 132.9221801757813 26.68510055541992 129.9226989746094 23.38120079040527 126.6187973022461 C 20.07729911804199 123.3149032592773 17.07781982421875 119.6794967651367 14.46605968475342 115.8135986328125 C 11.82962036132813 111.9111404418945 9.56525993347168 107.7394027709961 7.735879898071289 103.4142837524414 C 3.92982006072998 94.41575622558594 2 84.85581970214844 2 75 C 2 65.14418029785156 3.92982006072998 55.5842399597168 7.735879898071289 46.58572006225586 C 9.56525993347168 42.26060104370117 11.82962036132813 38.08885955810547 14.46605968475342 34.1864013671875 C 17.07781982421875 30.32049942016602 20.07729911804199 26.68510055541992 23.38120079040527 23.38120079040527 C 26.68510055541992 20.07729911804199 30.32049942016602 17.07781982421875 34.1864013671875 14.46605968475342 C 38.08885955810547 11.82962036132813 42.26060104370117 9.56525993347168 46.58572006225586 7.735879898071289 C 55.5842399597168 3.92982006072998 65.14418029785156 2 75 2 C 84.85581970214844 2 94.41575622558594 3.92982006072998 103.4142837524414 7.735879898071289 C 107.7394027709961 9.56525993347168 111.9111404418945 11.82962036132813 115.8135986328125 14.46605968475342 C 119.6794967651367 17.07781982421875 123.3149032592773 20.07729911804199 126.6187973022461 23.38120079040527 C 129.9226989746094 26.68510055541992 132.9221801757813 30.32049942016602 135.533935546875 34.1864013671875 C 138.1703796386719 38.08885955810547 140.4347381591797 42.26060104370117 142.2641143798828 46.58572006225586 C 146.0701751708984 55.5842399597168 148 65.14418029785156 148 75 C 148 84.85581970214844 146.0701751708984 94.41575622558594 142.2641143798828 103.4142837524414 C 140.4347381591797 107.7394027709961 138.1703796386719 111.9111404418945 135.533935546875 115.8135986328125 C 132.9221801757813 119.6794967651367 129.9226989746094 123.3149032592773 126.6187973022461 126.6187973022461 C 123.3149032592773 129.9226989746094 119.6794967651367 132.9221801757813 115.8135986328125 135.533935546875 C 111.9111404418945 138.1703796386719 107.7394027709961 140.4347381591797 103.4142837524414 142.2641143798828 C 94.41575622558594 146.0701751708984 84.85581970214844 148 75 148 Z" stroke="none"/>
      <path d="M 75 4 C 65.41329193115234 4 56.115478515625 5.876678466796875 47.36481475830078 9.577880859375 C 43.15863800048828 11.35694885253906 39.10147857666016 13.55915832519531 35.30599975585938 16.12332153320313 C 31.54559326171875 18.663818359375 28.00929260253906 21.58152770996094 24.79541015625 24.79541015625 C 21.58152770996094 28.00929260253906 18.663818359375 31.54559326171875 16.12332153320313 35.30599975585938 C 13.55915832519531 39.10147857666016 11.35694885253906 43.15863800048828 9.577880859375 47.36481475830078 C 5.876678466796875 56.115478515625 4 65.41329193115234 4 75 C 4 84.58670806884766 5.876678466796875 93.884521484375 9.577880859375 102.6351776123047 C 11.35694885253906 106.8413619995117 13.55915832519531 110.8985214233398 16.12332153320313 114.6940002441406 C 18.663818359375 118.4544067382813 21.58152770996094 121.9907073974609 24.79541015625 125.20458984375 C 28.00929260253906 128.4184722900391 31.54559326171875 131.336181640625 35.30599975585938 133.8766784667969 C 39.10147857666016 136.4408416748047 43.15863800048828 138.6430511474609 47.36481475830078 140.422119140625 C 56.115478515625 144.1233215332031 65.41329193115234 146 75 146 C 84.58670806884766 146 93.884521484375 144.1233215332031 102.6351776123047 140.422119140625 C 106.8413619995117 138.6430511474609 110.8985214233398 136.4408416748047 114.6940002441406 133.8766784667969 C 118.4544067382813 131.336181640625 121.9907073974609 128.4184722900391 125.20458984375 125.20458984375 C 128.4184722900391 121.9907073974609 131.336181640625 118.4544067382813 133.8766784667969 114.6940002441406 C 136.4408416748047 110.8985214233398 138.6430511474609 106.8413619995117 140.422119140625 102.6351776123047 C 144.1233215332031 93.884521484375 146 84.58670806884766 146 75 C 146 65.41329193115234 144.1233215332031 56.115478515625 140.422119140625 47.36481475830078 C 138.6430511474609 43.15863800048828 136.4408416748047 39.10147857666016 133.8766784667969 35.30599975585938 C 131.336181640625 31.54559326171875 128.4184722900391 28.00929260253906 125.20458984375 24.79541015625 C 121.9907073974609 21.58152770996094 118.4544067382813 18.663818359375 114.6940002441406 16.12332153320313 C 110.8985214233398 13.55915832519531 106.8413619995117 11.35694885253906 102.6351776123047 9.577880859375 C 93.884521484375 5.876678466796875 84.58670806884766 4 75 4 M 75 0 C 116.4213638305664 0 150 33.57863616943359 150 75 C 150 116.4213638305664 116.4213638305664 150 75 150 C 33.57863616943359 150 0 116.4213638305664 0 75 C 0 33.57863616943359 33.57863616943359 0 75 0 Z" stroke="none" fill="#77b43a"/>
    </g>
    <g id="Grupo_114847" data-name="Grupo 114847" transform="translate(1082.98 1093.678)">
      <path id="Trazado_169908" data-name="Trazado 169908" d="M41.3,53.456H105.64A7.366,7.366,0,0,1,113,60.818v44.6H33.94v-44.6A7.366,7.366,0,0,1,41.3,53.456Z" transform="translate(-1.451 -2.638)" fill="#fff"/>
      <path id="Trazado_169909" data-name="Trazado 169909" d="M23.817,112.625H120.66v5.234a5.117,5.117,0,0,1-5.116,5.116H28.933a5.117,5.117,0,0,1-5.116-5.116v-5.234Z" transform="translate(-0.219 -9.842)" fill="#3d46c1"/>
      <path id="Trazado_169910" data-name="Trazado 169910" d="M112.784,106.78H33.721a1.579,1.579,0,0,1-1.578-1.578V60.109a8.46,8.46,0,0,1,8.447-8.453h65.325a8.46,8.46,0,0,1,8.447,8.453V105.2A1.579,1.579,0,0,1,112.784,106.78ZM35.3,103.623h75.909V60.109a5.3,5.3,0,0,0-5.291-5.293H40.59A5.3,5.3,0,0,0,35.3,60.109v43.514Z" transform="translate(-1.233 -2.419)"/>
      <path id="Trazado_169911" data-name="Trazado 169911" d="M115.669,124.334H28.37a6.36,6.36,0,0,1-6.35-6.356V112.4a1.579,1.579,0,0,1,1.578-1.578h96.843a1.579,1.579,0,0,1,1.578,1.578v5.575a6.362,6.362,0,0,1-6.35,6.356Zm-90.493-10.35v3.994a3.2,3.2,0,0,0,3.2,3.2h87.3a3.2,3.2,0,0,0,3.2-3.2v-3.994Z" transform="translate(0 -9.623)"/>
      <path id="Trazado_169912" data-name="Trazado 169912" d="M107.274,33.59H84.666a4.042,4.042,0,0,0-4.042,4.045v12.5a4.044,4.044,0,0,0,4.042,4.045H99.658v6.675l3.625-6.283.225-.392h3.766a4.042,4.042,0,0,0,4.042-4.045v-12.5a4.042,4.042,0,0,0-4.042-4.045Z" transform="translate(-7.136 -0.219)" fill="#dce736"/>
      <g id="Grupo_114846" data-name="Grupo 114846" transform="translate(80.724 42.261)">
        <path id="Trazado_169913" data-name="Trazado 169913" d="M92.019,45.294a1.578,1.578,0,1,1-1.578-1.581A1.58,1.58,0,0,1,92.019,45.294Z" transform="translate(-88.863 -43.712)"/>
        <path id="Trazado_169914" data-name="Trazado 169914" d="M99.459,45.294a1.578,1.578,0,1,1-1.578-1.581A1.58,1.58,0,0,1,99.459,45.294Z" transform="translate(-89.768 -43.712)"/>
        <path id="Trazado_169915" data-name="Trazado 169915" d="M106.9,45.294a1.578,1.578,0,1,1-1.578-1.581A1.58,1.58,0,0,1,106.9,45.294Z" transform="translate(-90.674 -43.712)"/>
      </g>
      <path id="Trazado_169916" data-name="Trazado 169916" d="M99.439,62.209a1.577,1.577,0,0,1-1.578-1.578v-5.1H84.447a5.629,5.629,0,0,1-5.62-5.623v-12.5a5.627,5.627,0,0,1,5.62-5.623h22.608a5.629,5.629,0,0,1,5.62,5.623v12.5a5.627,5.627,0,0,1-5.62,5.623H104.2l-3.4,5.885a1.58,1.58,0,0,1-1.367.789ZM84.447,34.949a2.467,2.467,0,0,0-2.463,2.466v12.5a2.468,2.468,0,0,0,2.463,2.466H99.439a1.579,1.579,0,0,1,1.578,1.578v.784l.908-1.573a1.58,1.58,0,0,1,1.367-.789h3.766a2.467,2.467,0,0,0,2.464-2.466v-12.5a2.468,2.468,0,0,0-2.464-2.466H84.45Z" transform="translate(-6.917 0)"/>
      <path id="Trazado_169917" data-name="Trazado 169917" d="M55.395,109.531v-4.459a10.8,10.8,0,0,1,5.141-9.2l12.3-7.571h6.494l12.3,7.571a10.812,10.812,0,0,1,5.141,9.2v4.459H55.395Z" transform="translate(-4.064 -6.88)" fill="#f75316"/>
      <path id="Trazado_169918" data-name="Trazado 169918" d="M96.554,110.89H55.176a1.579,1.579,0,0,1-1.578-1.578v-4.459a12.463,12.463,0,0,1,5.891-10.547l12.3-7.571a1.584,1.584,0,0,1,.826-.234h6.494a1.577,1.577,0,0,1,.826.234l12.3,7.571a12.471,12.471,0,0,1,5.891,10.547v4.459a1.579,1.579,0,0,1-1.578,1.578Zm-39.8-3.157H94.975v-2.881a9.284,9.284,0,0,0-4.391-7.858l-11.92-7.337h-5.6l-11.92,7.337a9.287,9.287,0,0,0-4.391,7.858v2.881Z" transform="translate(-3.845 -6.661)"/>
      <path id="Trazado_169919" data-name="Trazado 169919" d="M77.537,89.833h0A10.209,10.209,0,0,1,67.331,79.621V72.648A10.209,10.209,0,0,1,77.537,62.436h0A10.209,10.209,0,0,1,87.743,72.648v6.973A10.209,10.209,0,0,1,77.537,89.833Z" transform="translate(-5.517 -3.731)" fill="#ffd4a2"/>
      <path id="Trazado_169920" data-name="Trazado 169920" d="M77.318,91.193A11.8,11.8,0,0,1,65.536,79.4V72.429a11.782,11.782,0,1,1,23.564,0V79.4A11.8,11.8,0,0,1,77.318,91.193Zm0-27.4a8.64,8.64,0,0,0-8.628,8.634V79.4a8.628,8.628,0,1,0,17.256,0V72.429A8.64,8.64,0,0,0,77.318,63.8Z" transform="translate(-5.299 -3.512)"/>
    </g>
  </g>
</svg>
