<svg xmlns="http://www.w3.org/2000/svg" width="314.285" height="251.227" viewBox="0 0 314.285 251.227">
  <g id="Grupo_114351" data-name="Grupo 114351" transform="translate(0 0)">
    <path id="Trazado_168713" data-name="Trazado 168713" d="M291.579,251.226c8.79,0,16.845-5.592,20.795-14.482,9.755-21.964,8.965-60.866-6.1-89.411-12.75-24.162-32.575-32.948-47.832-55.966C223.813,39.117,195.536,1.045,130.829.011,70.635-.949-2.8,58.365,5.117,190.668c1.846,30.789,11.392,52.593,29.386,60.558Z" transform="translate(-4.527 0)" fill="#dce736" opacity="0.507"/>
    <path id="Trazado_168714" data-name="Trazado 168714" d="M111.352,176.658C98.4,168.146,89.229,154.739,81.4,137.138c-10.581-23.784,3.507-29.58-11.845-46.215-5.238-11.83-35.828-20.048-36.689-53.19C18.1,62.6,2.161,90.923,6.852,136.566c2.612,25.391,16.267,45.076,33.117,51.663H156.622c-13.556-2.129-42.708-9.885-45.265-11.566Z" transform="translate(-2.944 40.113)" fill="#75b62f"/>
    <g id="Grupo_114324" data-name="Grupo 114324" transform="translate(209.188 77.705)">
      <rect id="Rectángulo_42439" data-name="Rectángulo 42439" width="1.284" height="6.059" transform="translate(7.226 8.134) rotate(-45)" fill="#3d46c2"/>
      <rect id="Rectángulo_42440" data-name="Rectángulo 42440" width="1.284" height="5.607" transform="translate(0 0.909) rotate(-45)" fill="#3d46c2"/>
      <rect id="Rectángulo_42441" data-name="Rectángulo 42441" width="6.124" height="1.284" transform="translate(0.005 11.517) rotate(-45)" fill="#3d46c2"/>
      <rect id="Rectángulo_42442" data-name="Rectángulo 42442" width="6.059" height="1.284" transform="translate(7.228 4.285) rotate(-45)" fill="#3d46c2"/>
    </g>
    <g id="Grupo_114325" data-name="Grupo 114325" transform="translate(65.518 142.761)">
      <rect id="Rectángulo_42443" data-name="Rectángulo 42443" width="0.587" height="3.9" transform="translate(4.647 5.064) rotate(-45)" fill="#fff"/>
      <rect id="Rectángulo_42444" data-name="Rectángulo 42444" width="0.587" height="3.607" transform="translate(0 0.415) rotate(-45)" fill="#fff"/>
      <rect id="Rectángulo_42445" data-name="Rectángulo 42445" width="3.94" height="0.587" transform="translate(0.004 7.402) rotate(-45)" fill="#fff"/>
      <rect id="Rectángulo_42446" data-name="Rectángulo 42446" width="3.895" height="0.587" transform="translate(4.653 2.755) rotate(-45)" fill="#fff"/>
    </g>
    <g id="Grupo_114326" data-name="Grupo 114326" transform="translate(51.047 164.447)">
      <path id="Trazado_168715" data-name="Trazado 168715" d="M36.554,84.142a2.6,2.6,0,1,0-3.671,0A2.594,2.594,0,0,0,36.554,84.142Z" transform="translate(-26.24 -79.709)" fill="#fff"/>
      <ellipse id="Elipse_5883" data-name="Elipse 5883" cx="1.249" cy="1.249" rx="1.249" ry="1.249" transform="translate(0 8.387) rotate(-13.23)" fill="#fff"/>
    </g>
    <ellipse id="Elipse_5884" data-name="Elipse 5884" cx="1.065" cy="1.065" rx="1.065" ry="1.065" transform="translate(254.766 123.32)" fill="#fff"/>
    <g id="Grupo_114327" data-name="Grupo 114327" transform="translate(151.464 204.434)">
      <path id="Trazado_168716" data-name="Trazado 168716" d="M96.724,102.833c-1.293-1.254-3.1-1-4.88-.98V100.37a1.278,1.278,0,0,0-1.279-1.279H79.223a1.278,1.278,0,0,0-1.279,1.279V115.1a2.677,2.677,0,0,0,2.676,2.676h8.547a2.677,2.677,0,0,0,2.676-2.676v-.209c1.8.01,3.632.139,4.91-1.124,1-.995,1.075-2.676,1.075-5.293,0-2.89-.065-4.631-1.1-5.641Zm-4.88,10.427v-9.775c3.2-.04,4.646-.6,4.557,4.99-.085,5.084-1.383,4.811-4.557,4.791Z" transform="translate(-77.944 -99.092)" fill="#80cbc8"/>
      <path id="Trazado_168717" data-name="Trazado 168717" d="M79.251,111.288a.134.134,0,0,1-.134-.134v-9.964a.134.134,0,0,1,.269,0v9.964A.134.134,0,0,1,79.251,111.288Z" transform="translate(-76.698 -97.005)" fill="#2b2b2b"/>
    </g>
    <path id="Trazado_168718" data-name="Trazado 168718" d="M66,26.151H96.207a23.322,23.322,0,0,1,23.322,23.322v5.811A23.322,23.322,0,0,1,96.207,78.6H65.453L52.881,98.429l5.7-21.038A23.328,23.328,0,0,1,42.683,55.283V49.473A23.322,23.322,0,0,1,66,26.151Z" transform="translate(36.035 27.801)" fill="#f3f9ff" stroke="#77b43a" stroke-width="2"/>
    <g id="Grupo_114328" data-name="Grupo 114328" transform="translate(94.2 66.359)">
      <path id="Trazado_168719" data-name="Trazado 168719" d="M53.252,48.437l-.06-.871A7.633,7.633,0,0,1,55.242,42c1.288-1.537,2.159-2.736,2.159-4.044,0-1.433-.91-2.4-2.816-2.428a6.178,6.178,0,0,0-3.4,1.025l-.995-3A10.282,10.282,0,0,1,55.5,32.165c4.219,0,6.149,2.458,6.149,5.169,0,2.463-1.478,4.144-2.925,5.791a6.3,6.3,0,0,0-1.816,4.6l.025.721H53.252Zm-.821,4.731A2.575,2.575,0,1,1,55,55.81,2.491,2.491,0,0,1,52.431,53.168Z" transform="translate(-50.187 -32.165)" fill="#f85316"/>
      <rect id="Rectángulo_42447" data-name="Rectángulo 42447" width="26.729" height="1.562" transform="translate(14.805 2.89)" fill="#f85316"/>
      <rect id="Rectángulo_42448" data-name="Rectángulo 42448" width="21.267" height="1.562" transform="translate(14.805 8.86)" fill="#f85316"/>
      <rect id="Rectángulo_42449" data-name="Rectángulo 42449" width="26.729" height="1.562" transform="translate(14.805 14.83)" fill="#f85316"/>
      <rect id="Rectángulo_42450" data-name="Rectángulo 42450" width="21.267" height="1.562" transform="translate(14.805 20.804)" fill="#f85316"/>
    </g>
    <g id="Grupo_114329" data-name="Grupo 114329" transform="translate(106.035 115.908)">
      <path id="Trazado_168720" data-name="Trazado 168720" d="M55.924,56.182V105h3.91l.284-1.07H56.993V57.251H94.339V103.93h-17.4l.284,1.07H95.409V56.182Z" transform="translate(-55.924 -56.182)" fill="#3d46c2"/>
      <rect id="Rectángulo_42451" data-name="Rectángulo 42451" width="7.532" height="0.567" transform="translate(24.993 40.529)" fill="#3d46c2"/>
      <path id="Trazado_168721" data-name="Trazado 168721" d="M58.88,69.275h8.965v-10.3H58.88Zm.567-9.736h7.825v9.168H59.447Z" transform="translate(-52.781 -53.216)" fill="#3d46c2"/>
      <rect id="Rectángulo_42452" data-name="Rectángulo 42452" width="15.74" height="0.567" transform="translate(16.979 5.88)" fill="#3d46c2"/>
      <rect id="Rectángulo_42453" data-name="Rectángulo 42453" width="13.104" height="0.567" transform="translate(16.979 8.363)" fill="#3d46c2"/>
      <rect id="Rectángulo_42454" data-name="Rectángulo 42454" width="15.74" height="0.567" transform="translate(16.979 10.85)" fill="#3d46c2"/>
      <rect id="Rectángulo_42455" data-name="Rectángulo 42455" width="13.104" height="0.567" transform="translate(16.979 13.332)" fill="#3d46c2"/>
      <rect id="Rectángulo_42456" data-name="Rectángulo 42456" width="27.187" height="0.567" transform="translate(6.149 19.809)" fill="#3d46c2"/>
      <rect id="Rectángulo_42457" data-name="Rectángulo 42457" width="23.695" height="0.567" transform="translate(6.149 22.371)" fill="#3d46c2"/>
      <rect id="Rectángulo_42458" data-name="Rectángulo 42458" width="27.187" height="0.567" transform="translate(6.149 24.933)" fill="#3d46c2"/>
      <rect id="Rectángulo_42459" data-name="Rectángulo 42459" width="23.695" height="0.567" transform="translate(6.149 27.49)" fill="#3d46c2"/>
      <rect id="Rectángulo_42460" data-name="Rectángulo 42460" width="27.187" height="0.567" transform="translate(6.149 30.052)" fill="#3d46c2"/>
      <rect id="Rectángulo_42461" data-name="Rectángulo 42461" width="23.695" height="0.567" transform="translate(6.149 32.614)" fill="#3d46c2"/>
      <rect id="Rectángulo_42462" data-name="Rectángulo 42462" width="27.187" height="0.567" transform="translate(6.149 35.172)" fill="#3d46c2"/>
    </g>
    <g id="Grupo_114330" data-name="Grupo 114330" transform="translate(287.786 182.876)">
      <path id="Trazado_168722" data-name="Trazado 168722" d="M146.377,89.456a1.669,1.669,0,1,0,2.288-.577A1.669,1.669,0,0,0,146.377,89.456Z" transform="translate(-141.768 -88.642)" fill="#3d46c2"/>
      <path id="Trazado_168723" data-name="Trazado 168723" d="M144.913,95.448a1.085,1.085,0,1,0,.786-1.318A1.081,1.081,0,0,0,144.913,95.448Z" transform="translate(-143.11 -82.845)" fill="#3d46c2"/>
      <path id="Trazado_168724" data-name="Trazado 168724" d="M144.153,91.547a.936.936,0,1,0,1.284-.323A.938.938,0,0,0,144.153,91.547Z" transform="translate(-144.021 -86.038)" fill="#3d46c2"/>
    </g>
    <g id="Grupo_114331" data-name="Grupo 114331" transform="translate(164.364 126.029)">
      <ellipse id="Elipse_5885" data-name="Elipse 5885" cx="1.547" cy="1.547" rx="1.547" ry="1.547" transform="translate(10.542 11.326)" fill="#3d46c2"/>
      <ellipse id="Elipse_5886" data-name="Elipse 5886" cx="2.025" cy="2.025" rx="2.025" ry="2.025" transform="translate(9.851 3.941) rotate(-76.72)" fill="#3d46c2"/>
      <ellipse id="Elipse_5887" data-name="Elipse 5887" cx="1.035" cy="1.035" rx="1.035" ry="1.035" transform="translate(0 9.873)" fill="#3d46c2"/>
    </g>
    <g id="Grupo_114332" data-name="Grupo 114332" transform="translate(62.222 37.821)">
      <path id="Trazado_168725" data-name="Trazado 168725" d="M61.462,18.907s-.512-.02-1.408,0v-.567c.905-.01,1.408,0,1.428,0Z" transform="translate(-7.72 -18.332)" fill="#3d46c2"/>
      <path id="Trazado_168726" data-name="Trazado 168726" d="M71.824,113.039c-.945-.159-1.91-.353-2.865-.572l.129-.552c.945.219,1.9.408,2.831.562l-.095.562Zm-5.686-1.3c-.935-.274-1.871-.572-2.776-.9l.189-.537c.9.318,1.821.617,2.746.886l-.159.547Zm-5.5-1.955c-.9-.383-1.791-.8-2.647-1.224l.254-.507c.846.423,1.726.831,2.617,1.209l-.224.522Zm-5.214-2.617c-.841-.493-1.672-1.02-2.463-1.562l.318-.468c.786.537,1.6,1.055,2.433,1.542l-.289.493Zm-4.816-3.288c-.761-.6-1.507-1.244-2.219-1.9l.383-.418c.7.642,1.433,1.274,2.184,1.866l-.353.448Zm-4.288-3.95c-.662-.706-1.3-1.448-1.91-2.2l.443-.358c.6.746,1.229,1.473,1.88,2.169l-.413.388Zm-3.651-4.542c-.547-.8-1.07-1.622-1.562-2.463l.493-.289c.483.826,1,1.642,1.537,2.428Zm-2.94-5.029c-.423-.861-.826-1.756-1.194-2.657l.527-.214c.363.89.761,1.771,1.179,2.622l-.512.249Zm-2.214-5.383c-.3-.905-.592-1.841-.846-2.786l.547-.149c.254.93.532,1.856.836,2.751l-.537.184ZM35.991,79.36c-.2-.93-.373-1.9-.527-2.86l.562-.09c.149.955.328,1.91.522,2.831Zm-.91-5.741c-.1-.945-.184-1.92-.249-2.9l.567-.035c.06.965.144,1.935.249,2.87l-.567.06Zm-.373-5.8c-.01-.488-.015-.98-.02-1.473v-.214c0-.408,0-.821.01-1.219l.567.01c0,.4-.01.806-.01,1.209v.214c0,.488.01.98.02,1.463l-.567.015Zm.677-5.781L34.817,62c.06-.975.149-1.95.254-2.9l.567.065c-.1.935-.189,1.9-.254,2.87Zm.652-5.721-.562-.095c.159-.965.348-1.925.562-2.856l.552.124c-.209.92-.393,1.871-.552,2.821Zm1.274-5.607-.547-.159c.274-.935.577-1.866.905-2.766l.532.194c-.323.886-.627,1.806-.9,2.731Zm1.97-5.393-.517-.229c.393-.89.826-1.771,1.279-2.617l.5.269c-.448.836-.871,1.706-1.259,2.582Zm2.706-5.064-.483-.3c.517-.816,1.075-1.627,1.652-2.4l.458.338C43.045,38.651,42.5,39.447,41.985,40.253Zm3.423-4.607-.428-.373c.632-.726,1.3-1.448,1.99-2.134l.4.4c-.677.677-1.338,1.383-1.96,2.1Zm4.069-4.054-.373-.433c.726-.627,1.492-1.244,2.273-1.826l.343.453c-.771.577-1.522,1.184-2.239,1.8Zm4.6-3.452-.313-.478c.8-.522,1.642-1.035,2.487-1.517l.284.492c-.841.478-1.667.98-2.458,1.5Zm5-2.851-.254-.507c.856-.423,1.746-.836,2.647-1.219l.224.522c-.89.383-1.771.786-2.617,1.209Zm5.3-2.278-.2-.532c.9-.333,1.826-.652,2.756-.945l.174.542c-.925.294-1.841.607-2.731.935Zm5.5-1.746-.149-.547c.925-.249,1.88-.483,2.831-.7l.124.557c-.945.209-1.885.443-2.806.691ZM75.52,20l-.1-.557c.95-.174,1.915-.328,2.875-.463l.08.562c-.955.134-1.915.289-2.856.463Zm5.726-.811-.06-.567c.975-.1,1.95-.179,2.905-.239l.035.567c-.945.06-1.915.134-2.885.234Z" transform="translate(-34.687 -18.276)" fill="#3d46c2"/>
      <path id="Trazado_168727" data-name="Trazado 168727" d="M55.551,64.852s-.532-.015-1.438-.1l.055-.567c.886.085,1.393.1,1.4.1l-.015.567Z" transform="translate(-14.036 30.408)" fill="#3d46c2"/>
    </g>
    <g id="Grupo_114333" data-name="Grupo 114333" transform="translate(56.879 83.861)">
      <rect id="Rectángulo_42463" data-name="Rectángulo 42463" width="14.516" height="14.894" rx="1.878" fill="#3d46c2"/>
      <path id="Trazado_168728" data-name="Trazado 168728" d="M44.513,42.016l-1.084-.677-.358-.229-.229.358-5,7.955-3.059-3.9-.264-.338-.338.264-1,.791-.333.264.259.338,4,5.089.134.174.224-.015,1.045-.055.219-.01.119-.189,5.806-9.233.229-.363Z" transform="translate(-31.305 -40.156)" fill="#fff"/>
    </g>
    <path id="Trazado_168729" data-name="Trazado 168729" d="M64.731,110.251l-.408-.393c.657-.682,1.283-1.393,1.866-2.109l.443.358c-.592.731-1.229,1.453-1.9,2.149Zm3.592-4.462-.473-.313c.517-.786,1-1.6,1.433-2.423l.5.264c-.443.836-.935,1.667-1.463,2.467Zm2.671-5.069-.527-.214a27.943,27.943,0,0,0,.92-2.656l.547.159A28.616,28.616,0,0,1,70.994,100.719ZM72.6,95.212l-.557-.1c.169-.915.3-1.851.383-2.791l.567.05c-.085.955-.214,1.91-.388,2.846Zm-.06-5.706c0-.935-.055-1.88-.144-2.816l.567-.055c.09.95.139,1.915.144,2.865h-.567ZM72,83.91a20.046,20.046,0,0,0-.687-2.716L71.849,81a20.987,20.987,0,0,1,.706,2.8L72,83.915Z" transform="translate(59.039 86.114)" fill="#3d46c2"/>
    <path id="Trazado_168730" data-name="Trazado 168730" d="M104.366,92.507h-.383V91.94h.383c.8,0,1.622-.03,2.443-.085l.04.567c-.836.06-1.672.09-2.482.09Zm5.338-.4-.085-.562c.94-.139,1.871-.318,2.771-.532l.129.552c-.915.214-1.866.4-2.816.542Zm5.582-1.323-.179-.537c.9-.3,1.786-.642,2.627-1.015l.229.517C117.1,90.135,116.2,90.483,115.285,90.786Zm5.238-2.338-.284-.493a24.489,24.489,0,0,0,2.348-1.542l.338.458A25.637,25.637,0,0,1,120.524,88.448Zm4.607-3.418-.388-.413a24.161,24.161,0,0,0,1.93-2.04l.438.368a24.452,24.452,0,0,1-1.975,2.084Zm3.691-4.388-.473-.313a25.745,25.745,0,0,0,1.418-2.423l.507.259a26.821,26.821,0,0,1-1.448,2.472Zm2.637-5.084-.527-.209c.338-.851.647-1.746.92-2.657l.547.164c-.279.93-.592,1.836-.935,2.706Zm1.642-5.477-.557-.119c.194-.9.358-1.831.493-2.776l.562.08C133.463,68.226,133.294,69.171,133.1,70.081Zm.816-5.651-.567-.045c.075-.915.124-1.866.149-2.821l.567.015c-.025.965-.08,1.925-.154,2.851Zm-.408-5.7c-.02-.92-.06-1.871-.119-2.831l.567-.035c.06.965.1,1.925.119,2.851l-.567.01Zm-.378-5.641c-.124-.935-.289-1.866-.492-2.766l.557-.124c.2.915.373,1.866.5,2.816ZM131.9,47.615c-.289-.89-.622-1.771-.99-2.627l.522-.224c.378.871.716,1.771,1.01,2.676l-.542.174Zm-2.229-5.144c-.448-.811-.945-1.617-1.478-2.388l.468-.323c.542.786,1.045,1.607,1.507,2.433l-.5.274ZM126.5,37.84c-.587-.711-1.224-1.408-1.885-2.084l.4-.4c.672.687,1.318,1.4,1.915,2.119l-.438.363Zm-3.94-4.015c-.7-.607-1.438-1.2-2.2-1.776l.343-.453c.776.582,1.527,1.184,2.234,1.8l-.373.428Zm-4.517-3.393c-.771-.5-1.582-1-2.413-1.473l.284-.492c.836.478,1.657.98,2.443,1.492l-.308.478Zm-4.91-2.816c-.826-.418-1.691-.826-2.562-1.214l.229-.517c.881.393,1.751.806,2.587,1.224Zm-5.179-2.308c-.861-.338-1.751-.672-2.652-.985l.189-.537c.91.318,1.806.652,2.676.995l-.209.527Zm-5.348-1.875c-.886-.274-1.806-.542-2.726-.8l.149-.547c.925.254,1.851.522,2.741.8l-.169.542Zm-5.472-1.507c-.905-.219-1.836-.433-2.771-.627l.119-.557c.94.2,1.875.413,2.786.632l-.134.552Zm-5.557-1.184c-.92-.169-1.866-.333-2.8-.483l.09-.562c.94.149,1.89.313,2.816.483l-.1.557Zm-5.617-.9c-.935-.124-1.88-.244-2.826-.343l.065-.567c.945.1,1.9.219,2.836.348l-.075.562Zm-5.656-.627c-.95-.085-1.905-.154-2.841-.214l.035-.567c.94.06,1.9.134,2.851.214l-.05.567Zm-5.681-.358c-1.378-.05-2.323-.055-2.662-.055h-.189v-.567h.189c.343,0,1.293,0,2.681.06l-.02.567Z" transform="translate(66.963 19.391)" fill="#3d46c2"/>
    <g id="Grupo_114335" data-name="Grupo 114335" transform="translate(147.36 80.164)">
      <path id="Trazado_168731" data-name="Trazado 168731" d="M115.793,38.861H93.312A17.356,17.356,0,0,0,75.955,56.218v4.323A17.356,17.356,0,0,0,93.312,77.9H115.4l10.163,14.755-4.239-15.661a17.361,17.361,0,0,0,11.83-16.456V56.213A17.356,17.356,0,0,0,115.8,38.856Z" transform="translate(-75.955 -38.856)" fill="#fff" stroke="#77b43a" stroke-width="2"/>
      <g id="Grupo_114334" data-name="Grupo 114334" transform="translate(19.242 18.322)">
        <path id="Trazado_168732" data-name="Trazado 168732" d="M85.282,49.6a1.752,1.752,0,0,1,1.776-1.866A1.869,1.869,0,1,1,85.282,49.6Z" transform="translate(-85.282 -47.737)" fill="#3d46c2"/>
        <path id="Trazado_168733" data-name="Trazado 168733" d="M88.962,49.6a1.752,1.752,0,0,1,1.776-1.866A1.869,1.869,0,1,1,88.962,49.6Z" transform="translate(-81.37 -47.737)" fill="#3d46c2"/>
        <path id="Trazado_168734" data-name="Trazado 168734" d="M92.641,49.6a1.752,1.752,0,0,1,1.776-1.866A1.869,1.869,0,1,1,92.641,49.6Z" transform="translate(-77.458 -47.737)" fill="#3d46c2"/>
      </g>
    </g>
    <g id="Grupo_114336" data-name="Grupo 114336" transform="translate(104.229 157.249)">
      <path id="Trazado_168735" data-name="Trazado 168735" d="M73.918,77.538a9.4,9.4,0,0,0-12.865,3.268h0a9.4,9.4,0,0,0,2.477,12.342l-8.482,12.974,2.756,1.642,7.477-13.591a9.386,9.386,0,0,0,8.641-16.631Zm2.288,12.283a8.249,8.249,0,1,1-14.178-8.437h0a8.249,8.249,0,0,1,14.178,8.437Z" transform="translate(-55.049 -76.221)" fill="#3d46c2"/>
      <path id="Trazado_168736" data-name="Trazado 168736" d="M67.412,78.778a5.8,5.8,0,0,0-7.935,2.015.284.284,0,0,0,.1.388.3.3,0,0,0,.144.04.288.288,0,0,0,.244-.139,5.229,5.229,0,0,1,7.159-1.816.283.283,0,0,0,.289-.488Z" transform="translate(-50.383 -74.366)" fill="#3d46c2"/>
    </g>
    <path id="Trazado_168737" data-name="Trazado 168737" d="M132.4,142.2l-.388-.413c.692-.652,1.378-1.313,2.04-1.97l.4.4c-.662.662-1.353,1.328-2.05,1.98Zm4.039-4.025-.413-.388c.652-.691,1.293-1.4,1.91-2.094l.428.378c-.617.7-1.264,1.413-1.92,2.109Zm3.771-4.283-.438-.358c.6-.736,1.189-1.482,1.751-2.224l.453.343c-.562.746-1.159,1.5-1.766,2.244Zm3.438-4.557-.468-.323c.542-.781,1.065-1.577,1.557-2.363l.483.3C144.727,127.748,144.2,128.554,143.652,129.34Zm3.03-4.84-.5-.279c.463-.826.91-1.667,1.323-2.5l.507.254c-.418.841-.866,1.691-1.338,2.527Zm2.537-5.119-.522-.224c.373-.871.726-1.751,1.045-2.627l.532.194C149.95,117.61,149.6,118.5,149.219,119.381Zm1.955-5.373-.547-.164c.269-.9.512-1.821.721-2.731l.552.129c-.214.92-.458,1.851-.731,2.766Zm1.284-5.572-.562-.09c.154-.93.274-1.871.368-2.8l.567.055c-.09.94-.214,1.9-.368,2.836Zm.552-5.691-.567-.02c.015-.433.02-.876.02-1.3,0-.5-.01-1.015-.025-1.517l.567-.02c.02.512.025,1.03.025,1.537C153.03,101.86,153.025,102.3,153.01,102.745Zm-.771-5.656c-.095-.93-.219-1.87-.378-2.8l.562-.095c.159.94.284,1.9.383,2.836Zm-.93-5.572c-.209-.91-.453-1.826-.721-2.731l.547-.164c.274.915.517,1.846.731,2.766l-.552.129ZM149.7,86.1c-.318-.876-.667-1.761-1.04-2.632l.522-.224c.373.876.726,1.771,1.05,2.662l-.537.194Zm-2.219-5.2c-.413-.836-.856-1.681-1.318-2.5l.5-.279c.468.831.915,1.681,1.333,2.532l-.512.254Zm-2.771-4.935c-.5-.8-1.035-1.592-1.577-2.353l.463-.328c.547.771,1.085,1.572,1.592,2.378l-.482.3Zm-3.278-4.612c-1.1-1.378-1.841-2.129-1.846-2.139l.4-.4c.03.03.761.776,1.885,2.179l-.443.353Z" transform="translate(131.002 73.158)" fill="#3d46c2"/>
    <g id="Grupo_114338" data-name="Grupo 114338" transform="translate(17.041 116.465)">
      <g id="Grupo_114337" data-name="Grupo 114337" transform="translate(2.229)">
        <ellipse id="Elipse_5888" data-name="Elipse 5888" cx="1.672" cy="1.672" rx="1.672" ry="1.672" fill="#fff"/>
        <ellipse id="Elipse_5889" data-name="Elipse 5889" cx="0.935" cy="0.935" rx="0.935" ry="0.935" transform="translate(7.243 9.974)" fill="#fff"/>
      </g>
      <ellipse id="Elipse_5890" data-name="Elipse 5890" cx="1.985" cy="1.985" rx="1.985" ry="1.985" transform="translate(0 9.566)" fill="#ffc65a"/>
    </g>
    <g id="Grupo_114340" data-name="Grupo 114340" transform="translate(256.412 125.077)">
      <path id="Trazado_168738" data-name="Trazado 168738" d="M138.032,79.062a9.218,9.218,0,1,1,9.218-9.218A9.227,9.227,0,0,1,138.032,79.062Zm0-17.864a8.646,8.646,0,1,0,8.646,8.646A8.655,8.655,0,0,0,138.032,61.2Z" transform="translate(-128.814 -60.626)" fill="#3d46c2"/>
      <g id="Grupo_114339" data-name="Grupo 114339" transform="translate(3.154 5.925)">
        <path id="Trazado_168739" data-name="Trazado 168739" d="M135.467,70.065a4.3,4.3,0,0,1-1.726.3,3.147,3.147,0,0,1-3.4-3.353A3.352,3.352,0,0,1,133.9,63.5a3.76,3.76,0,0,1,1.612.294l-.264.97a3.18,3.18,0,0,0-1.3-.259,2.214,2.214,0,0,0-2.333,2.448,2.178,2.178,0,0,0,2.318,2.4,3.537,3.537,0,0,0,1.328-.244l.2.96Z" transform="translate(-130.343 -63.498)" fill="#3d46c2"/>
        <path id="Trazado_168740" data-name="Trazado 168740" d="M135.463,70.207l-2.154-6.656h1.328l.91,3.025c.259.841.478,1.617.652,2.423h.02c.174-.786.418-1.6.677-2.408l.97-3.045h1.293l-2.3,6.656h-1.393Z" transform="translate(-127.19 -63.447)" fill="#3d46c2"/>
      </g>
    </g>
    <g id="Grupo_114345" data-name="Grupo 114345" transform="translate(28.048 123.646)">
      <path id="Trazado_168741" data-name="Trazado 168741" d="M51.957,70.6c.025,3.3,10.069,15.123,5.651,23.481-3.831,6.781-23.859,17.4-23.859,17.4C34.092,90,51.932,67.293,51.957,70.6Z" transform="translate(-1.51 -48.939)" fill="#2b2b2b"/>
      <path id="Trazado_168742" data-name="Trazado 168742" d="M45.126,91.412H45.1a.113.113,0,0,1-.085-.134c1.786-7.467-1.408-15.611-2.463-18.287a3.956,3.956,0,0,1-.333-.97.113.113,0,0,1,.124-.1.111.111,0,0,1,.1.119,7.567,7.567,0,0,0,.318.866c1.055,2.691,4.273,10.885,2.467,18.422a.112.112,0,0,1-.109.085Z" transform="translate(7.494 -47.189)" fill="#525252"/>
      <path id="Trazado_168743" data-name="Trazado 168743" d="M43.122,90.779h-.03a.108.108,0,0,1-.075-.139c2.234-7.6-.244-14.964-1.06-17.382a3.293,3.293,0,0,1-.234-.811.113.113,0,0,1,.124-.1.111.111,0,0,1,.1.119,6.042,6.042,0,0,0,.224.721c.821,2.438,3.318,9.85,1.065,17.516a.112.112,0,0,1-.109.08Z" transform="translate(6.966 -46.735)" fill="#525252"/>
      <path id="Trazado_168744" data-name="Trazado 168744" d="M35.8,86.67c-1.522,12.138-37.4,33.157-2.4,57.2,5.273,3.622,20.123-40.644,25.506-41.36,3.7-.493,2.2-7.2,3.85-13.516,1.214-4.666,5.94-8.756,6.422-11.91.274-1.8.841-5.1.493-6.666-1.5-6.716-9.945-9.775-14.894-10.333C36.84,58.05,37.029,76.944,35.805,86.675Z" transform="translate(-18.123 -59.933)" fill="#2b2b2b"/>
      <path id="Trazado_168745" data-name="Trazado 168745" d="M40.9,80.9s6.243,1.985,9.646,5.661c4.532,4.9,9.487,22.371,13.82,30.56.453.856,1.517,1.383,1.955,2.01.478.687.075,1.01.532,1.363,3.1,3.189,7.895,4.532,11.805,6.512.368.184,1.771,2.144,2.1,2.323a30.555,30.555,0,0,0,3.522,1.686l-2.259,5.756s-1.234-.1-3.542-.164c-.348-.01-3.706.572-4.084.517-4.348-.632-9.084-2.98-15.671-5.93-9.328-4.179-14.909-22.058-14.909-22.058L40.9,80.9Z" transform="translate(6.088 -37.642)" fill="#f85316"/>
      <path id="Trazado_168746" data-name="Trazado 168746" d="M46.429,85.837,42.309,103.89s5.253,16.83,14.089,21.645c-3.925-8.422-1.572-9.731-2.5-14.894-1.458-8.064-7.039-17.417-7.462-24.809Z" transform="translate(7.59 -32.4)" fill="#f85316"/>
      <path id="Trazado_168747" data-name="Trazado 168747" d="M26.647,134.135c-.234,4.85-2.93,8.7-.532,11.188.6.463,2.761.831,5.781,1.249H57.426a17.454,17.454,0,0,0,6.393-2.114c2.428-2.507.03-8.293.418-10.129s5.318-13.392,6.353-20.436c.313-2.119.866-5.641-1.627-12.392-.975-2.642,0-6.681-.89-8.9a13.478,13.478,0,0,0-6.154-6.97l-1.6-.945-6.6-7.278s-5.373-1.781-8.9.652c-2.662,1.836-5.313,5.786-6.641,6.114-1.408.353-2.632.691-3.472.99-8.5,3-12.477,8.159-12.85,19.028-.333,9.736,5.159,22.207,4.791,29.943Z" transform="translate(-14.168 -42.024)" fill="#f85316"/>
      <path id="Trazado_168748" data-name="Trazado 168748" d="M41.932,122.839a97.331,97.331,0,0,1-11.5-13.5,72.515,72.515,0,0,1-7.288-12.487c-.224-.5-.448-.995-.667-1.492,1.5,6.97,3.731,13.994,3.492,19.019-.234,4.85-2.93,8.7-.532,11.188.6.463,2.761.831,5.781,1.249H45.828c-.751-.831-1.482-1.537-2.2-2.4C43.057,123.9,42.49,123.377,41.932,122.839Z" transform="translate(-13.494 -22.267)" fill="#f85316"/>
      <path id="Trazado_168749" data-name="Trazado 168749" d="M45.41,87.477h0l1.224-14.556-11.885-.209L32.018,85.726c-.328,1.169,8.5,17.491,13.029,21.929,2.079-3.726,2.691-9.527,2.443-15.138a8.7,8.7,0,0,0-2.079-5.039Z" transform="translate(-3.361 -46.348)" fill="#f9b7b7"/>
      <path id="Trazado_168750" data-name="Trazado 168750" d="M42.617,81.807l.751-8.92-8.288-.144v5a5.727,5.727,0,0,0,5.726,5.726h0a1.824,1.824,0,0,0,1.816-1.667Z" transform="translate(-0.095 -46.314)" fill="#2b2b2b"/>
      <path id="Trazado_168751" data-name="Trazado 168751" d="M33.26,78.951a17.286,17.286,0,0,0,4.084,9.671c2.423,2.637,6.7,4.373,9.144,4.2,2.264-.159,4.736-2.512,6.492-6.935,1.2-3.03.5-6.626.428-9.925-.02-1.089-.134-2.443-.119-3.482.119-6.89-5.825-10.865-10.527-10.243-10.616,1.408-10.507,9.243-9.507,16.72Z" transform="translate(-2.493 -57.552)" fill="#f9b7b7"/>
      <path id="Trazado_168752" data-name="Trazado 168752" d="M36.222,80.221c-.915.726-3.96-2.1-4.154-2.736-2.492-8.119,6.174-15.049,12.163-15.755A10.166,10.166,0,0,1,54.7,72.292c-1.343-6.019-6.741-4.477-9.3-8.731C45.117,70.809,37.307,70.461,36.222,80.221Z" transform="translate(-3.764 -58.061)" fill="#2b2b2b"/>
      <g id="Grupo_114341" data-name="Grupo 114341" transform="translate(41.054 18.817)">
        <path id="Trazado_168753" data-name="Trazado 168753" d="M41.8,69.972c-.03.527.224.97.572.99s.652-.388.682-.915-.224-.97-.572-.99S41.834,69.444,41.8,69.972Z" transform="translate(-34.004 -69.051)" fill="#2b2b2b"/>
        <path id="Trazado_168754" data-name="Trazado 168754" d="M38.022,70.093c.01.567.358,1.02.781,1.015s.756-.473.751-1.04-.358-1.02-.781-1.015S38.017,69.526,38.022,70.093Z" transform="translate(-38.022 -69.054)" fill="#2b2b2b"/>
      </g>
      <g id="Grupo_114342" data-name="Grupo 114342" transform="translate(38.561 16.613)">
        <path id="Trazado_168755" data-name="Trazado 168755" d="M43.373,75.6h-.085a2.333,2.333,0,0,1-1.856-1.219,4.737,4.737,0,0,1-.642-2.691h0a4.741,4.741,0,0,1,.881-2.627,2.17,2.17,0,0,1,3.811.169,4.737,4.737,0,0,1,.642,2.691c-.09,2.05-1.318,3.676-2.751,3.676Zm.169-7.253a2.039,2.039,0,0,0-1.6.92,4.366,4.366,0,0,0-.811,2.438h0a4.395,4.395,0,0,0,.592,2.5,2.019,2.019,0,0,0,1.582,1.06c1.283.05,2.4-1.448,2.482-3.353a4.395,4.395,0,0,0-.592-2.5,2.019,2.019,0,0,0-1.582-1.06h-.07ZM40.96,71.7Z" transform="translate(-32.592 -67.955)" fill="#e04b3e"/>
        <path id="Trazado_168756" data-name="Trazado 168756" d="M39.973,75.642c-1.716,0-3.129-1.686-3.159-3.786a4.252,4.252,0,0,1,.871-2.706,2.767,2.767,0,0,1,4.467-.06,4.266,4.266,0,0,1,.945,2.681c.03,2.109-1.353,3.85-3.089,3.875h-.035Zm-2.826-3.791c.025,1.91,1.288,3.452,2.826,3.452h.035c1.547-.02,2.786-1.607,2.756-3.532a3.95,3.95,0,0,0-.871-2.472,2.432,2.432,0,0,0-3.945.06,3.933,3.933,0,0,0-.8,2.492Z" transform="translate(-36.814 -67.985)" fill="#e04b3e"/>
      </g>
      <path id="Trazado_168757" data-name="Trazado 168757" d="M41.218,74.369a6.664,6.664,0,0,1-2.244-.448.071.071,0,1,1,.045-.134c2.706.975,4.025.114,4.781-.617a.07.07,0,0,1,.1.1,3.7,3.7,0,0,1-2.686,1.1Z" transform="translate(3.994 -45.881)" fill="#2b2b2b"/>
      <path id="Trazado_168758" data-name="Trazado 168758" d="M37.312,69.2c-.328.214-.438-.07-.259-.348,1.308-2.055,5.139-1.826,4.816-.861a.424.424,0,0,1-.468.313,4.962,4.962,0,0,0-4.084.89Z" transform="translate(1.911 -52.127)" fill="#2b2b2b"/>
      <path id="Trazado_168759" data-name="Trazado 168759" d="M44.365,67.746a2.976,2.976,0,0,0-2.771-.234c-.458.164-.343,1.05.1.861a2.887,2.887,0,0,1,2.666.109Z" transform="translate(6.519 -52.118)" fill="#2b2b2b"/>
      <path id="Trazado_168760" data-name="Trazado 168760" d="M40.234,75.306H40.2a.071.071,0,0,1-.07-.07.068.068,0,0,1,.07-.07h.03c.915,0,1.98-.289,2.189-.925a2.646,2.646,0,0,0-.323-1.114,9.26,9.26,0,0,1-.861-3.577.068.068,0,0,1,.07-.07h0a.071.071,0,0,1,.07.07,9.157,9.157,0,0,0,.851,3.522c.239.592.4.985.328,1.209-.229.706-1.358,1.025-2.323,1.025Z" transform="translate(5.278 -49.783)" fill="#2b2b2b"/>
      <path id="Trazado_168761" data-name="Trazado 168761" d="M36.564,86.063c5.98,7.691,7.119,34.311,10.845,37.211,1.418,1.1,3.537,1.806,8.532,2.144a7.278,7.278,0,0,1,3.94,1.746c2.841.647,4.184.642,5.542.985,5.452,1.383-.691,6.86-.691,6.86s-20.979,9.815-29.177,1.428c-13.686-14.009-13.676-35.813-12.706-44.091.667-5.656,6.82-15.148,13.715-6.278Z" transform="translate(-13.488 -36.004)" fill="#f85316"/>
      <path id="Trazado_168762" data-name="Trazado 168762" d="M58.722,124.7h-.015l-3.2-.463a.11.11,0,0,1-.08-.06,4.846,4.846,0,0,0-1.159-1.527,16.987,16.987,0,0,0-3.756-.587c-3.074-.323-6.9-.726-8.084-1.642-.239-.184-.174-.473-.1-.776a1.381,1.381,0,0,0-.05-1.04,2.132,2.132,0,0,0-.771-.512c-.448-.229-.91-.463-1.06-.8-1.134-2.522-2.388-6.134-3.716-9.959-2.776-8-5.92-17.068-9.691-21.68a.106.106,0,1,1,.164-.134c3.791,4.641,6.945,13.73,9.726,21.745,1.323,3.821,2.577,7.427,3.706,9.94.119.264.567.492.965.7a2.131,2.131,0,0,1,.856.6,1.565,1.565,0,0,1,.07,1.189c-.065.294-.1.463.025.562,1.129.876,5.084,1.293,7.975,1.6,2.269.239,3.567.388,3.87.632a4.98,4.98,0,0,1,1.194,1.547l3.144.453a.1.1,0,0,1-.015.209Z" transform="translate(-8.669 -32.771)" fill="#2b2b2b"/>
      <path id="Trazado_168763" data-name="Trazado 168763" d="M43.709,120.3c-4.567,0-8.457-.836-10.158-2.731A51.3,51.3,0,0,1,23.909,100.4a.105.105,0,1,1,.2-.07,51.179,51.179,0,0,0,9.6,17.1c1.746,1.945,6.124,2.89,12.009,2.6a44.006,44.006,0,0,0,15.7-3.617.112.112,0,0,1,.144.05.113.113,0,0,1-.05.144,45.281,45.281,0,0,1-17.8,3.691Z" transform="translate(-11.978 -17.067)" fill="#2b2b2b"/>
      <path id="Trazado_168764" data-name="Trazado 168764" d="M50.369,105.191c5.98-.532,7.92-1.03,11.75-.473a20.667,20.667,0,0,1,11.119,5.487l-19.461.134c-4.263.473-9.024,1.065-11.482,1.393-1.313-.7-.144-6.636,1.035-7.278a58.392,58.392,0,0,0,7.044.741Z" transform="translate(6.958 -12.603)" fill="#fe928d"/>
      <path id="Trazado_168765" data-name="Trazado 168765" d="M44.422,112.649a.16.16,0,0,1-.04,0,.1.1,0,0,1-.06-.139c2.771-7.139,3.224-13.5,1.3-18.387-1.254-3.189-1.244-8.144-1.244-8.193a.105.105,0,0,1,.1-.1h0a.106.106,0,0,1,.1.109c0,.05-.01,4.965,1.229,8.114,1.94,4.94,1.492,11.352-1.3,18.541a.108.108,0,0,1-.1.07Z" transform="translate(9.72 -32.413)" fill="#2b2b2b"/>
      <path id="Trazado_168766" data-name="Trazado 168766" d="M30.967,104.211a.1.1,0,0,1-.075-.03.108.108,0,0,1,0-.149,7.549,7.549,0,0,1,7.139-1.408.108.108,0,0,1,.075.129.111.111,0,0,1-.134.075,7.353,7.353,0,0,0-6.93,1.358.11.11,0,0,1-.075.03Z" transform="translate(-4.579 -14.906)" fill="#2b2b2b"/>
      <path id="Trazado_168767" data-name="Trazado 168767" d="M40.038,113.367a.1.1,0,0,1-.09-.05,5.026,5.026,0,0,1-.393-3.875c.522-2.378,1.985-4.746,2.577-5.124a.108.108,0,0,1,.114.184,10.964,10.964,0,0,0-2.482,4.99,4.83,4.83,0,0,0,.368,3.716.111.111,0,0,1-.03.149.133.133,0,0,1-.06.015Z" transform="translate(4.454 -12.765)" fill="#2b2b2b"/>
      <path id="Trazado_168768" data-name="Trazado 168768" d="M50.15,101.278a.114.114,0,0,1-.1-.065.1.1,0,0,1,.055-.139c1.706-.721,4.129-1.507,6-1.169a.106.106,0,0,1-.04.209c-1.91-.348-4.5.577-5.875,1.159a.153.153,0,0,1-.04.01Z" transform="translate(15.808 -17.525)" fill="#2b2b2b"/>
      <path id="Trazado_168769" data-name="Trazado 168769" d="M55.035,99.384a.133.133,0,0,1-.05-.01c-1.124-.562-3.373-.4-4.721-.3h-.02a.106.106,0,0,1-.114-.1.11.11,0,0,1,.1-.114h.02c1.458-.1,3.656-.264,4.831.323a.107.107,0,0,1,.05.144A.1.1,0,0,1,55.035,99.384Z" transform="translate(15.903 -18.661)" fill="#2b2b2b"/>
      <path id="Trazado_168770" data-name="Trazado 168770" d="M40.416,116.345H40.4a.1.1,0,0,1-.085-.124c2.925-16,.9-21.222-.308-24.337l-.075-.194-1.542-1.94a.106.106,0,1,1,.164-.134L40.1,91.57l.015.03.08.209c1.219,3.139,3.258,8.392.318,24.451a.111.111,0,0,1-.1.09Z" transform="translate(3.394 -28.418)" fill="#2b2b2b"/>
      <path id="Trazado_168771" data-name="Trazado 168771" d="M33.48,80.087A.116.116,0,0,1,33.371,80c-.617-2.567.647-7.616,3.194-10.278.448-.468.97-.95,1.527-1.458,2.154-1.98,4.6-4.229,3.865-6.89a.113.113,0,0,1,.219-.06c.771,2.8-1.726,5.089-3.925,7.114-.552.507-1.07.985-1.512,1.448C34.241,72.5,33,77.441,33.6,79.953a.113.113,0,0,1-.085.134H33.49Z" transform="translate(-2.077 -58.549)" fill="#525252"/>
      <path id="Trazado_168772" data-name="Trazado 168772" d="M30,88.371h-.015a.111.111,0,0,1-.095-.124c.438-3.194,2.015-6.054,3.413-8.576,1.368-2.477,2.662-4.821,2.582-6.975a.112.112,0,0,1,.224,0c.085,2.219-1.224,4.587-2.607,7.094s-2.955,5.348-3.383,8.5a.112.112,0,0,1-.109.095Z" transform="translate(-5.618 -46.486)" fill="#525252"/>
      <path id="Trazado_168773" data-name="Trazado 168773" d="M27.743,101.819a.12.12,0,0,1-.05-.01.115.115,0,0,1-.055-.149,43.581,43.581,0,0,1,3.2-5.308c2.254-3.373,4.806-7.193,5.96-12.442a12.144,12.144,0,0,0,.075-2.259,27.855,27.855,0,0,1,.955-8.82c.841-2.821,3.612-5.169,6.059-7.238,2.03-1.721,3.786-3.209,3.885-4.517A.112.112,0,1,1,48,61.09c-.109,1.4-1.9,2.915-3.965,4.671-2.423,2.05-5.164,4.378-5.99,7.134a27.68,27.68,0,0,0-.945,8.756,11.492,11.492,0,0,1-.08,2.313c-1.164,5.283-3.731,9.124-5.995,12.516a43.255,43.255,0,0,0-3.184,5.278.114.114,0,0,1-.1.065Z" transform="translate(-8.016 -58.829)" fill="#525252"/>
      <path id="Trazado_168774" data-name="Trazado 168774" d="M63.218,108.579s-.045-.01-.055-.03c-1.249-1.686-6.263-3.2-6.313-3.219a.072.072,0,0,1,.04-.139c.209.065,5.109,1.547,6.388,3.268a.072.072,0,0,1-.015.1.079.079,0,0,1-.04.015Z" transform="translate(22.992 -11.822)" fill="#2b2b2b"/>
      <path id="Trazado_168775" data-name="Trazado 168775" d="M61.443,108.065a.154.154,0,0,1-.055-.025c-1.736-1.995-5.9-2.06-5.94-2.06a.071.071,0,0,1-.07-.07.068.068,0,0,1,.07-.07h0c.045,0,4.268.07,6.044,2.109a.071.071,0,0,1,0,.1.089.089,0,0,1-.045.02Z" transform="translate(21.483 -11.129)" fill="#2b2b2b"/>
      <path id="Trazado_168776" data-name="Trazado 168776" d="M48.938,69.107a.112.112,0,0,1-.1-.075c-.691-2-2.686-2.7-4.288-3.263-.443-.154-.866-.3-1.2-.463a25.647,25.647,0,0,1-5.91-4.144A.113.113,0,0,1,37.591,61a25.576,25.576,0,0,0,5.85,4.1c.328.154.746.3,1.184.453,1.562.547,3.7,1.293,4.428,3.4a.113.113,0,0,1-.07.144c-.01,0-.025,0-.035,0Z" transform="translate(2.369 -58.831)" fill="#525252"/>
      <path id="Trazado_168777" data-name="Trazado 168777" d="M47.329,99.756a.117.117,0,0,1-.08-.035c-.055-.06-5.557-6.238-10.034-12.034a.145.145,0,0,0-.1-.055c-.493,0-1.771,1.517-2.7,2.632-.507.607-.985,1.179-1.323,1.5A.111.111,0,0,1,33,91.8a.1.1,0,0,1-.08-.05c-2.542-3.935-2.91-10.039-2.786-11.328a.1.1,0,0,1,.114-.095.105.105,0,0,1,.095.114c-.119,1.209.269,7.243,2.681,11.079.323-.328.756-.846,1.214-1.393,1.323-1.582,2.308-2.706,2.86-2.706h.01a.332.332,0,0,1,.269.134c4.1,5.3,9.059,10.93,9.9,11.885.363-1.154,2.383-7.651,3.492-12.626a.193.193,0,0,1,.124-.149c.249-.085.781.333,1.841,1.244a9.336,9.336,0,0,0,1.288,1,13.748,13.748,0,0,0-2.433-7.835.106.106,0,1,1,.159-.139,13.975,13.975,0,0,1,2.482,8.039.158.158,0,0,1-.1.149c-.189.08-.572-.224-1.537-1.05a7.514,7.514,0,0,0-1.622-1.2c-1.224,5.467-3.527,12.74-3.552,12.815a.1.1,0,0,1-.08.07h-.02Z" transform="translate(-5.374 -38.256)" fill="#2b2b2b"/>
      <path id="Trazado_168778" data-name="Trazado 168778" d="M39.853,70.025a.174.174,0,0,1-.139-.07.168.168,0,0,1,.04-.234,2.6,2.6,0,0,1,1.95-.488.828.828,0,0,1,.562.468.166.166,0,1,1-.3.134.5.5,0,0,0-.343-.279,2.277,2.277,0,0,0-1.667.438.176.176,0,0,1-.095.03Z" transform="translate(4.797 -50.098)" fill="#e04b3e"/>
      <path id="Trazado_168779" data-name="Trazado 168779" d="M40.1,70.237h-.01L33.1,69.879a.164.164,0,0,1-.159-.174.17.17,0,0,1,.174-.159l6.97.358,1-.09a.17.17,0,0,1,.03.338l-1.015.09H40.09Z" transform="translate(-2.369 -49.714)" fill="#e04b3e"/>
      <path id="Trazado_168780" data-name="Trazado 168780" d="M39.379,73.851s-.05-.01-.06-.035a.072.072,0,0,1,.025-.1c.045-.025,1.08-.652,1.547-.473a2.588,2.588,0,0,1,.348.179,1.861,1.861,0,0,0,.323.159c.07-.065.552-.522.771-.537.343-.025.7.413.716.428a.071.071,0,1,1-.109.09c-.09-.109-.373-.388-.6-.378a2.3,2.3,0,0,0-.691.5c-.085.085-.244,0-.488-.144a2.6,2.6,0,0,0-.328-.169c-.333-.129-1.139.289-1.418.463a.092.092,0,0,1-.035.01Z" transform="translate(4.401 -45.994)" fill="#2b2b2b"/>
      <path id="Trazado_168781" data-name="Trazado 168781" d="M41.243,75.2a2.834,2.834,0,0,1-1.99-.945.071.071,0,0,1,.109-.09,2.741,2.741,0,0,0,1.885.9h.045a1.713,1.713,0,0,0,1.562-1.463.063.063,0,0,1,.075-.065.066.066,0,0,1,.065.075,1.873,1.873,0,0,1-1.7,1.6h-.045Z" transform="translate(4.323 -45.48)" fill="#2b2b2b"/>
      <path id="Trazado_168782" data-name="Trazado 168782" d="M37.671,81.7a4.732,4.732,0,0,1-2.055-.612.073.073,0,1,1,.075-.124c.02.01,1.811,1.035,2.885.358a.076.076,0,0,1,.1.02.077.077,0,0,1-.02.1,1.8,1.8,0,0,1-.98.259Z" transform="translate(0.438 -37.591)" fill="#2b2b2b"/>
      <path id="Trazado_168783" data-name="Trazado 168783" d="M39.755,91.728a.8.8,0,1,1-.955-.716A.845.845,0,0,1,39.755,91.728Z" transform="translate(3.189 -26.909)" fill="#2b2b2b"/>
      <path id="Trazado_168784" data-name="Trazado 168784" d="M40.465,95.969a.8.8,0,1,1-.871-.816A.848.848,0,0,1,40.465,95.969Z" transform="translate(3.933 -22.494)" fill="#2b2b2b"/>
      <path id="Trazado_168785" data-name="Trazado 168785" d="M40.171,100.346a.8.8,0,1,1-.8-.885A.844.844,0,0,1,40.171,100.346Z" transform="translate(3.614 -17.912)" fill="#2b2b2b"/>
      <path id="Trazado_168786" data-name="Trazado 168786" d="M37.035,71.905s-2.8-3.492-4.726-2.482c-2,1.045-.114,6.89,3.3,7.746,5.049,1.264,1.612-5.029,1.433-5.263Z" transform="translate(-3.911 -50.039)" fill="#f9b7b7"/>
      <path id="Trazado_168787" data-name="Trazado 168787" d="M55.622,108.315a.123.123,0,0,1-.085-.04c-1.3-1.582-5.288-1.88-5.328-1.88a.1.1,0,0,1-.1-.114.107.107,0,0,1,.114-.1c.169.01,4.114.308,5.477,1.96a.1.1,0,0,1-.015.149.119.119,0,0,1-.07.025Z" transform="translate(15.882 -10.768)" fill="#2b2b2b"/>
      <path id="Trazado_168788" data-name="Trazado 168788" d="M56.361,108.693a.114.114,0,0,1-.1-.065c-.89-2.06-4.651-2.985-4.691-2.995a.108.108,0,0,1-.08-.129.113.113,0,0,1,.129-.08,12.222,12.222,0,0,1,2.055.736,5.212,5.212,0,0,1,2.781,2.383.1.1,0,0,1-.055.139.145.145,0,0,1-.045.01Z" transform="translate(17.347 -11.573)" fill="#2b2b2b"/>
      <g id="Grupo_114344" data-name="Grupo 114344" transform="translate(39.263 66.321)">
        <g id="Grupo_114343" data-name="Grupo 114343">
          <path id="Trazado_168789" data-name="Trazado 168789" d="M84.479,125.5H52.63L74.36,92.393a.694.694,0,0,1,.577-.313h30.192a.692.692,0,0,1,.577,1.075L84.479,125.5Z" transform="translate(-20.702 -92.08)" fill="#485bc9"/>
          <path id="Trazado_168790" data-name="Trazado 168790" d="M102.684,92.08H74.934a.687.687,0,0,0-.577.313L52.628,125.5S97.087,95.189,102.684,92.08Z" transform="translate(-20.704 -92.08)" fill="#5a6bc9"/>
          <path id="Trazado_168791" data-name="Trazado 168791" d="M84.961,107.92H53.212l-.582.741H84.479Z" transform="translate(-20.702 -75.241)" fill="#2b2b2b"/>
          <path id="Trazado_168792" data-name="Trazado 168792" d="M91.389,92.08a.687.687,0,0,0-.577.313L70.565,123.246H38.278a1.127,1.127,0,0,0,0,2.254H70.256L91.812,92.393c.129-.194,1.214-.313,1.448-.313H91.394Z" transform="translate(-37.154 -92.08)" fill="#2b2b2b"/>
        </g>
        <ellipse id="Elipse_5891" data-name="Elipse 5891" cx="3.865" cy="2.07" rx="3.865" ry="2.07" transform="matrix(0.56, -0.828, 0.828, 0.56, 56.999, 19.056)" fill="#fff"/>
      </g>
    </g>
    <g id="Grupo_114350" data-name="Grupo 114350" transform="translate(140.253 107.593)">
      <g id="Grupo_114346" data-name="Grupo 114346" transform="translate(31.854 47.278)">
        <path id="Trazado_168793" data-name="Trazado 168793" d="M125.557,105.12l-9.069-13.571s-1.94-7.238-2.676-7.935a55.625,55.625,0,0,1-3.348-4.627s-1.328-4.348-1.841-3.885a5.014,5.014,0,0,0-.965,4.806c.468,1.333,2.587,2.826,1.925,4.428-.07.164-3.472-.507-6.96-1.846-4.845-1.861-9.522-5.039-11.188-3.433-.572.547,9.283,6.069,9.283,6.069s.109.637-.517.517-9.447-5.1-12.228-3.189c-.552.378,9.437,5.358,10.357,5.741-.776-.473-8.537-4.552-9.636-2.7-.353.592,9.5,5.94,8.965,5.661-.313-.159.995-.04.035-.488-1.955-.91-6.442-3.184-6.955-1.8-.249.672,8.711,5.02,8.711,5.02l9.959,4.238,7.4,14.526,8.751-7.537Z" transform="translate(-87.95 -75.068)" fill="#f9b7b7"/>
        <path id="Trazado_168794" data-name="Trazado 168794" d="M96.852,82.9a.087.087,0,0,1-.03,0c-.692-.294-5.636-2.273-5.686-2.293a.073.073,0,1,1,.055-.134c.05.02,5,2,5.686,2.293a.075.075,0,0,1,.04.095A.077.077,0,0,1,96.852,82.9Z" transform="translate(-84.612 -69.328)" fill="#f9b7b7"/>
        <path id="Trazado_168795" data-name="Trazado 168795" d="M96.761,83.909h-.025l-5.985-2.094a.071.071,0,1,1,.045-.134l5.985,2.094a.077.077,0,0,1,.045.09.074.074,0,0,1-.065.05Z" transform="translate(-85.023 -68.04)" fill="#f9b7b7"/>
        <path id="Trazado_168796" data-name="Trazado 168796" d="M98.152,85.715a.073.073,0,0,1-.07-.055A6.494,6.494,0,0,1,99.1,79.909a.07.07,0,1,1,.1.095,6.345,6.345,0,0,0-.98,5.621.07.07,0,0,1-.05.085h-.015Z" transform="translate(-77.435 -69.945)" fill="#f9b7b7"/>
      </g>
      <g id="Grupo_114348" data-name="Grupo 114348" transform="translate(0 55.026)">
        <path id="Trazado_168797" data-name="Trazado 168797" d="M114.585,103.73,102.416,92.845s-3.681-6.527-4.572-7.014a55.178,55.178,0,0,1-4.393-3.646s-2.373-3.875-2.751-3.3a5.031,5.031,0,0,0,.264,4.9c.786,1.174,3.209,2.089,2.965,3.811-.025.174-3.487.373-7.2-.055-5.159-.6-10.477-2.507-11.691-.537-.418.672,10.5,3.562,10.5,3.562s.264.587-.373.632-10.417-2.587-12.641-.04c-.438.5,10.477,2.836,11.462,2.975-.871-.264-9.4-2.283-10-.209-.194.662,10.681,3.383,10.094,3.249-.343-.08.95-.289-.09-.483-2.119-.393-7.029-1.477-7.184-.01-.075.711,9.686,2.686,9.686,2.686l10.7,1.622,10.79,12.218,6.6-9.477Z" transform="translate(-72.51 -78.823)" fill="#f9b7b7"/>
        <g id="Grupo_114347" data-name="Grupo 114347" transform="translate(5.349 14.074)">
          <path id="Trazado_168798" data-name="Trazado 168798" d="M83,87.194h0c-1.055-.095-7.567-1.353-7.84-1.408A.069.069,0,0,1,75.1,85.7a.067.067,0,0,1,.085-.055c.07.015,6.781,1.313,7.83,1.4a.068.068,0,0,1,.065.075.07.07,0,0,1-.07.065Z" transform="translate(-75.103 -85.645)" fill="#f9b7b7"/>
          <path id="Trazado_168799" data-name="Trazado 168799" d="M81.73,88.244h-.01c-.582-.09-3.074-.6-4.726-.935-.756-.154-1.353-.279-1.418-.284a.07.07,0,0,1,.02-.139c.065.01.637.124,1.423.289,1.647.338,4.139.846,4.716.93a.069.069,0,0,1,.06.08.07.07,0,0,1-.07.06Z" transform="translate(-74.664 -84.327)" fill="#f9b7b7"/>
        </g>
      </g>
      <path id="Trazado_168800" data-name="Trazado 168800" d="M111.788,70.13c2.074,7.656,4.632,18.476,5.418,21.526l18.571-8.87c-2.836-5.308-5.348-14-7.228-20.814L111.783,70.13Z" transform="translate(-30.761 -41.712)" fill="#f9b7b7"/>
      <path id="Trazado_168801" data-name="Trazado 168801" d="M118.17,64.25,111.7,67.4c.786,2.9,1.642,6.248,2.443,9.462,5.875-2.8,4.025-12.611,4.025-12.611Z" transform="translate(-30.845 -39.289)" fill="#2b2b2b"/>
      <path id="Trazado_168802" data-name="Trazado 168802" d="M126.918,53.985l-12.85,1.821s-3.273,7.283-3.343,9.532c-.01.413.2,1.89.294,2.512a5.12,5.12,0,0,1,.04,1.025c-.527,2.632-4.676,3.87-4.418,5,.1.428,1.279.851,2.134,1.2a1.24,1.24,0,0,1,.751,1.418c-.124.542-.527,1.3-.234,1.736a5.078,5.078,0,0,1,.4,1.821c-.065.5.194.672.284,1.089.428,2-.6,3.393.5,5.039,1.109.786,4.826.7,7.9-.458,2.622-.388,6.4-3.985,6.044-8.82-.239-3.229,6.562-2.448,7.82-4.124,4.288-5.716-5.318-18.79-5.318-18.79Z" transform="translate(-36.24 -50.202)" fill="#f9b7b7"/>
      <path id="Trazado_168803" data-name="Trazado 168803" d="M98.983,91.21l5.537,12.322,9.3-8.094-7.407-11.263a29.555,29.555,0,0,1-7.432,7.034Z" transform="translate(-44.367 -18.108)" fill="#fff"/>
      <path id="Trazado_168804" data-name="Trazado 168804" d="M99.468,105.752c5.816,13.939,11.422,33.823,21,35.052,15.352-2.463,29.943-27.968,42.907-46.778L149.4,75.47l-28.933,40.708L107.9,95.628c-1.746,2.721-6.865,8.029-8.432,10.129Z" transform="translate(-43.852 -27.362)" fill="#3d46c2"/>
      <path id="Trazado_168805" data-name="Trazado 168805" d="M89.968,86.027a33.42,33.42,0,0,0-4.821,9.7l9.591,10.089,6.815-9.82L89.963,86.027Z" transform="translate(-59.076 -16.139)" fill="#fff"/>
      <path id="Trazado_168806" data-name="Trazado 168806" d="M138.225,75.507c-.706-.473-3.472-6.482-4.184-6.547-3.91-.363-11.671,4.343-18.456,9.1-.443.308-2.657,6.661-3.059,6.99-6.427,5.228,32.779-5.408,25.7-9.547Z" transform="translate(-30.732 -34.303)" fill="#fff"/>
      <path id="Trazado_168807" data-name="Trazado 168807" d="M174.494,153.559c-3.224-18.1-9.6-47.419-18.829-65.712-2-3.98-9.4-11.541-11.442-14.1-1.219-1.532-1.244-2.5-2.661-3.328-.706-.473-7.318-1.2-21.854,10.959-6.427,5.228-11.646,8.965-12.72,12.337,3.04,24.968,9.581,46.613,13.034,59.841h54.469Z" transform="translate(-35.859 -32.958)" fill="#3d46c2"/>
      <path id="Trazado_168808" data-name="Trazado 168808" d="M133.3,122.3c-4.5,1.8-13.934,5.686-17.914,14.785h50.176c-2.472-13.875-6.8-34.341-12.835-51.379,1.612,10.721.871,19.66-4.358,26.928C146.848,114.747,137.565,120.592,133.3,122.3Z" transform="translate(-26.928 -16.483)" fill="#3d46c2"/>
      <path id="Trazado_168809" data-name="Trazado 168809" d="M115.974,68.955h-.02a.071.071,0,0,1-.07-.07.068.068,0,0,1,.07-.07h.02c1.6,0,3.512-2.5,3.791-4.98a3.309,3.309,0,0,0-2.771-3.955.071.071,0,0,1,.03-.139,3.456,3.456,0,0,1,2.885,4.109c-.289,2.542-2.268,5.109-3.935,5.109Z" transform="translate(-26.4 -44.084)" fill="#2b2b2b"/>
      <path id="Trazado_168810" data-name="Trazado 168810" d="M115.561,64.09h-.025a.07.07,0,0,1-.04-.09c.119-.318.224-.647.328-.96.358-1.109.7-2.154,1.612-2.472a.065.065,0,0,1,.09.045.067.067,0,0,1-.045.09c-.851.3-1.159,1.264-1.522,2.383-.1.318-.209.642-.328.965a.069.069,0,0,1-.065.045Z" transform="translate(-26.818 -43.209)" fill="#2b2b2b"/>
      <path id="Trazado_168811" data-name="Trazado 168811" d="M113.067,80.7a.111.111,0,0,1-.09-.05.1.1,0,0,1,.035-.144c9.477-5.741,19.566-9.532,23.466-8.815a.1.1,0,0,1,.085.124.107.107,0,0,1-.124.085c-3.86-.706-13.885,3.069-23.317,8.785a.1.1,0,0,1-.055.015Z" transform="translate(-29.507 -31.477)" fill="#2b2b2b"/>
      <path id="Trazado_168812" data-name="Trazado 168812" d="M109.07,59.255c.955-.363,3.418.736,4.084,1.269.358.308.214.995-.2.766a30.115,30.115,0,0,0-3.855-.7c-.313.02-.308-1.229-.025-1.333Z" transform="translate(-33.864 -44.676)" fill="#2b2b2b"/>
      <path id="Trazado_168813" data-name="Trazado 168813" d="M100.012,107.81H100a.207.207,0,0,1-.189-.224c.532-6.671,2.378-9.124,2.453-9.228a.206.206,0,0,1,.289-.035.211.211,0,0,1,.04.289h0a8.493,8.493,0,0,0-.985,2.025,26.362,26.362,0,0,0-1.383,6.98.205.205,0,0,1-.2.189Z" transform="translate(-43.491 -3.114)" fill="#600b47"/>
      <path id="Trazado_168814" data-name="Trazado 168814" d="M98.236,104.235a.169.169,0,0,1-.095-.025.211.211,0,0,1-.09-.279c2.8-5.388,5.552-5.756,5.671-5.766a.21.21,0,0,1,.229.184.207.207,0,0,1-.179.229c-.03,0-2.671.388-5.353,5.547A.206.206,0,0,1,98.236,104.235Z" transform="translate(-45.381 -3.235)" fill="#600b47"/>
      <path id="Trazado_168815" data-name="Trazado 168815" d="M114.522,100.258a.1.1,0,0,1-.08-.035.108.108,0,0,1,.005-.149,34.121,34.121,0,0,0,7.388-9.969.106.106,0,1,1,.194.085,34.55,34.55,0,0,1-7.437,10.039.1.1,0,0,1-.07.03Z" transform="translate(-27.963 -11.873)" fill="#2b2b2b"/>
      <path id="Trazado_168816" data-name="Trazado 168816" d="M111.423,61.808a.109.109,0,0,1-.05-.02c-.01-.01-.99-.94-1.741-.881a.07.07,0,0,1-.01-.139c.821-.07,1.811.876,1.851.915a.066.066,0,0,1,0,.1.071.071,0,0,1-.05.02Z" transform="translate(-33.127 -42.995)" fill="#2b2b2b"/>
      <path id="Trazado_168817" data-name="Trazado 168817" d="M135.318,78.9c-6.8-1.333-14.765,26.152-22.431,33.9-.458.463-12.014-9.313-21.541-17.133C87.152,102,86.1,109.317,86.441,109.959c7.248,10.805,20.277,26.864,28.222,28.774,17.964.194,30.585-34.4,30.849-39.186.169-3.025-5.86-19.8-10.193-20.645Z" transform="translate(-57.763 -23.764)" fill="#3d46c2"/>
      <path id="Trazado_168818" data-name="Trazado 168818" d="M106.3,132.344a.107.107,0,0,1-.055-.2c1.443-.915,8.233-9.029,10.581-13.138a58.338,58.338,0,0,0,7.094-18.208,26.614,26.614,0,0,0-.468-12.835c-1.249-3.91-3.681-6.95-6.671-8.333a.1.1,0,1,1,.09-.189c3.045,1.413,5.517,4.5,6.786,8.462a26.891,26.891,0,0,1,.478,12.934,58.5,58.5,0,0,1-7.119,18.272c-2.353,4.124-9.2,12.288-10.651,13.213a.13.13,0,0,1-.055.015Z" transform="translate(-36.7 -23.15)" fill="#2b2b2b"/>
      <ellipse id="Elipse_5892" data-name="Elipse 5892" cx="0.497" cy="0.881" rx="0.497" ry="0.881" transform="translate(76.599 17.937)" fill="#2b2b2b"/>
      <path id="Trazado_168819" data-name="Trazado 168819" d="M137.307,58.5c.05-3.94-1.9-4.99-3.791-5.437-7.039-1.667-12.442-.677-16.566.1-3.686.7-6.1.507-7.417-.532-1.209.682-1.144,1.93-1.333,2.363-.622,1.458.393,4.447,5.427,6.447,1.458.577,5.089.726,5.089,4.124,0,1.274,1.557,2.716,1.7,3.577a14.727,14.727,0,0,1-.338,4.572l2.154-.6a9.653,9.653,0,0,0,.3-1.547c.607-3.089,2.074-3.89,3.756-3.154,1.811.791,2.278,2.512,2.607,4.5l1.224,5.129a6.99,6.99,0,0,0,1.149,1.741c2.766,3.045,4.318,2.681,5.572,1.557.413-5.781,3.358-11.367,3.656-14.561.254-2.711.642-7.671-3.194-8.283Z" transform="translate(-34.744 -52.151)" fill="#2b2b2b"/>
      <g id="Grupo_114349" data-name="Grupo 114349" transform="translate(74.813 1.987)">
        <path id="Trazado_168820" data-name="Trazado 168820" d="M116.32,58.279h-.015c-2.348-.284-6.84-2.746-7.527-5.02a.112.112,0,0,1,.214-.065c.642,2.124,5.049,4.582,7.338,4.86a.116.116,0,0,1,.1.124A.112.112,0,0,1,116.32,58.279Z" transform="translate(-108.773 -53.114)" fill="#525252"/>
        <path id="Trazado_168821" data-name="Trazado 168821" d="M113.974,54.636a7.028,7.028,0,0,1-4.408-1.293.117.117,0,0,1-.02-.159.112.112,0,0,1,.159-.02c2.95,2.308,7.984.821,10.134.189.323-.095.577-.169.746-.209a.112.112,0,0,1,.05.219c-.164.04-.418.114-.736.2a21.522,21.522,0,0,1-5.925,1.065Z" transform="translate(-107.974 -53.088)" fill="#525252"/>
      </g>
      <path id="Trazado_168822" data-name="Trazado 168822" d="M107.917,66.3a27.008,27.008,0,0,1,3.791-1.065,43.158,43.158,0,0,1-3.393,2.861Z" transform="translate(-34.87 -38.27)" fill="#fff"/>
      <path id="Trazado_168823" data-name="Trazado 168823" d="M97.378,103.071h-.01a.1.1,0,0,1-.1-.114,11.862,11.862,0,0,1,2.109-5.039,27.459,27.459,0,0,1,1.905-2.607.106.106,0,1,1,.159.139c-.035.045-3.706,4.4-3.965,7.522a.1.1,0,0,1-.1.1Z" transform="translate(-46.19 -6.31)" fill="#2b2b2b"/>
      <path id="Trazado_168824" data-name="Trazado 168824" d="M96.668,98.608a.1.1,0,0,1-.08-.035.108.108,0,0,1,0-.149,36.567,36.567,0,0,1,3.751-3.074.108.108,0,1,1,.095.194,38.2,38.2,0,0,0-3.7,3.045.1.1,0,0,1-.07.03Z" transform="translate(-46.942 -6.24)" fill="#2b2b2b"/>
      <path id="Trazado_168825" data-name="Trazado 168825" d="M114.083,113.067a.11.11,0,0,1-.1-.08l-3.6-12.8a.106.106,0,1,1,.2-.055l3.6,12.8a.1.1,0,0,1-.075.129h-.03Z" transform="translate(-32.26 -1.222)" fill="#2b2b2b"/>
      <path id="Trazado_168826" data-name="Trazado 168826" d="M100.695,101.181a.119.119,0,0,1-.07-.025.1.1,0,0,1-.01-.149c.647-.741,8.159-14.626,8.233-14.765a.107.107,0,1,1,.189.1c-.308.572-7.6,14.049-8.258,14.8a.1.1,0,0,1-.08.035Z" transform="translate(-42.661 -15.97)" fill="#2b2b2b"/>
    </g>
  </g>
</svg>
