<svg xmlns="http://www.w3.org/2000/svg" width="150" height="150" viewBox="0 0 150 150">
  <g id="Grupo_115956" data-name="Grupo 115956" transform="translate(9901 9308.854)">
    <circle id="Elipse_5682" data-name="Elipse 5682" cx="75" cy="75" r="75" transform="translate(-9901 -9308.854)" fill="#fff"/>
    <g id="reunion" transform="translate(-9876 -9283)">
      <g id="Grupo_114818" data-name="Grupo 114818" transform="translate(1.953 1.953)">
        <path id="Trazado_169826" data-name="Trazado 169826" d="M223.813,25.626a7.811,7.811,0,0,0,7.812-7.812,7.812,7.812,0,1,0-12.5,6.25A7.778,7.778,0,0,0,223.813,25.626Z" transform="translate(-175.766 -10.001)" fill="#6d91ac" fill-rule="evenodd"/>
        <path id="Trazado_169827" data-name="Trazado 169827" d="M186.937,49.815A7.824,7.824,0,0,1,183.969,42h-4.063A3.918,3.918,0,0,0,176,45.908v3.907h10.937Z" transform="translate(-143.578 -35.752)" fill="#a7bdcd" fill-rule="evenodd"/>
        <path id="Trazado_169828" data-name="Trazado 169828" d="M283.125,43.563A7.8,7.8,0,0,1,280,49.814h10.938V45.907A3.918,3.918,0,0,0,287.031,42h-4.063A7.83,7.83,0,0,1,283.125,43.563Z" transform="translate(-227.266 -35.751)" fill="#a7bdcd" fill-rule="evenodd"/>
        <path id="Trazado_169829" data-name="Trazado 169829" d="M117.228,127.057a5.055,5.055,0,1,0-10.111,0v2.528a5.055,5.055,0,0,0,10.111,0Z" transform="translate(-88.149 -100.127)" fill="#ffdcd5" fill-rule="evenodd"/>
        <path id="Trazado_169830" data-name="Trazado 169830" d="M100.31,178.088a5.037,5.037,0,0,1-7.517,0,8.874,8.874,0,0,0-5.088,8v2.527H105.4v-2.527A8.874,8.874,0,0,0,100.31,178.088Z" transform="translate(-72.528 -145.259)" fill="#ffc144" fill-rule="evenodd"/>
        <path id="Trazado_169831" data-name="Trazado 169831" d="M117.228,277.057a5.055,5.055,0,0,0-10.111,0v2.528a5.055,5.055,0,0,0,10.111,0Z" transform="translate(-88.149 -220.83)" fill="#ffdcd5" fill-rule="evenodd"/>
        <path id="Trazado_169832" data-name="Trazado 169832" d="M100.31,328.087a5.037,5.037,0,0,1-7.517,0,8.874,8.874,0,0,0-5.088,8v2.527H105.4V336.09A8.874,8.874,0,0,0,100.31,328.087Z" transform="translate(-72.528 -265.961)" fill="#00ccf2" fill-rule="evenodd"/>
        <path id="Trazado_169833" data-name="Trazado 169833" d="M363.229,127.057a5.055,5.055,0,1,0-10.111,0v2.528a5.055,5.055,0,0,0,10.111,0Z" transform="translate(-286.103 -100.127)" fill="#ffdcd5" fill-rule="evenodd"/>
        <path id="Trazado_169834" data-name="Trazado 169834" d="M346.312,178.088a5.037,5.037,0,0,1-7.517,0,8.875,8.875,0,0,0-5.088,8v2.527H351.4v-2.527A8.875,8.875,0,0,0,346.312,178.088Z" transform="translate(-270.483 -145.259)" fill="#88df8e" fill-rule="evenodd"/>
        <path id="Trazado_169835" data-name="Trazado 169835" d="M363.229,277.057a5.055,5.055,0,0,0-10.111,0v2.528a5.055,5.055,0,0,0,10.111,0Z" transform="translate(-286.103 -220.83)" fill="#ffdcd5" fill-rule="evenodd"/>
        <path id="Trazado_169836" data-name="Trazado 169836" d="M346.312,328.087a5.037,5.037,0,0,1-7.517,0,8.875,8.875,0,0,0-5.088,8v2.527H351.4V336.09A8.875,8.875,0,0,0,346.312,328.087Z" transform="translate(-270.483 -265.961)" fill="#ff5d7d" fill-rule="evenodd"/>
        <path id="Trazado_169837" data-name="Trazado 169837" d="M58.048,382H10v3.906a3.918,3.918,0,0,0,3.906,3.906H90.918V382H58.048Z" transform="translate(-10.001 -309.346)" fill="#8481e2" fill-rule="evenodd"/>
        <path id="Trazado_169838" data-name="Trazado 169838" d="M424.3,382v7.813h11.27a3.918,3.918,0,0,0,3.906-3.906V382H424.3Z" transform="translate(-343.38 -309.346)" fill="#b5b3ee" fill-rule="evenodd"/>
        <path id="Trazado_169839" data-name="Trazado 169839" d="M42.869,111.3H58.046V83.565A7.777,7.777,0,0,1,53.359,82H13.905A3.918,3.918,0,0,0,10,85.909V111.3H25.176v-2.527a8.874,8.874,0,0,1,5.088-8,5.033,5.033,0,0,1-1.3-3.371V94.871a5.055,5.055,0,0,1,10.111,0V97.4a5.032,5.032,0,0,1-1.3,3.371,8.874,8.874,0,0,1,5.088,8V111.3Z" transform="translate(-9.999 -67.94)" fill="#ff9eb1" fill-rule="evenodd"/>
        <path id="Trazado_169840" data-name="Trazado 169840" d="M58.048,232H10v29.3H25.178v-2.527a8.874,8.874,0,0,1,5.088-8,5.033,5.033,0,0,1-1.3-3.371V244.87a5.055,5.055,0,1,1,10.111,0V247.4a5.032,5.032,0,0,1-1.3,3.371,8.874,8.874,0,0,1,5.088,8V261.3H58.048V232Z" transform="translate(-10.001 -188.643)" fill="#b8ecbb" fill-rule="evenodd"/>
        <path id="Trazado_169841" data-name="Trazado 169841" d="M256,83.564V111.3h15.177v-2.527a8.874,8.874,0,0,1,5.088-8,5.033,5.033,0,0,1-1.3-3.371V94.87a5.055,5.055,0,1,1,10.111,0V97.4a5.032,5.032,0,0,1-1.3,3.371,8.874,8.874,0,0,1,5.088,8V111.3h15.177V85.908A3.918,3.918,0,0,0,300.142,82H260.689A7.776,7.776,0,0,1,256,83.564Z" transform="translate(-207.954 -67.939)" fill="#66e0f7" fill-rule="evenodd"/>
        <path id="Trazado_169842" data-name="Trazado 169842" d="M271.178,232H256v29.3h15.177v-2.527a8.874,8.874,0,0,1,5.088-8,5.033,5.033,0,0,1-1.3-3.371V244.87a5.055,5.055,0,1,1,10.11,0V247.4a5.032,5.032,0,0,1-1.3,3.371,8.874,8.874,0,0,1,5.088,8V261.3h15.177V232h-32.87Z" transform="translate(-207.954 -188.643)" fill="#ffda8f" fill-rule="evenodd"/>
        <path id="Trazado_169843" data-name="Trazado 169843" d="M189.4,422h19.786l3.87,15.625H185.521Z" transform="translate(-151.239 -341.534)" fill="#b5b3ee" fill-rule="evenodd"/>
      </g>
      <g id="Grupo_114819" data-name="Grupo 114819" transform="translate(0)">
        <path id="Trazado_169844" data-name="Trazado 169844" d="M94.141,14.063H67.578V12.11A5.866,5.866,0,0,0,61.719,6.25h-2.61a9.762,9.762,0,0,0-18.217,0H38.281a5.866,5.866,0,0,0-5.859,5.859v1.953H5.859A5.866,5.866,0,0,0,0,19.922V78.516a5.866,5.866,0,0,0,5.859,5.859H37.617L34.71,96.094H32.422a1.953,1.953,0,1,0,0,3.906H67.578a1.953,1.953,0,0,0,0-3.906H65.3L62.384,84.375H94.14A5.866,5.866,0,0,0,100,78.516V19.922a5.866,5.866,0,0,0-5.859-5.859ZM77.126,60.708a3.1,3.1,0,0,1-6.2,0V58.18a3.1,3.1,0,0,1,6.2,0Zm-7.084,5.763a6.987,6.987,0,0,0,7.966,0,6.854,6.854,0,0,1,2.909,5.613v.574H67.13v-.574a6.957,6.957,0,0,1,2.912-5.611Zm10.438-3.038a6.969,6.969,0,0,0,.551-2.725V58.18a7.008,7.008,0,0,0-14.017,0v2.528a6.972,6.972,0,0,0,.551,2.725,10.733,10.733,0,0,0-4.343,8.649v.574H51.953V62.891a1.953,1.953,0,1,0-3.906,0v9.765H36.776v-.574a10.736,10.736,0,0,0-4.343-8.649,6.969,6.969,0,0,0,.551-2.725V58.18a7.008,7.008,0,0,0-14.017,0v2.528a6.972,6.972,0,0,0,.551,2.725,10.733,10.733,0,0,0-4.343,8.649v.574H3.906V47.266H96.094V72.656H84.823v-.574A10.736,10.736,0,0,0,80.481,63.433Zm-51.4-2.725a3.1,3.1,0,1,1-6.2,0V58.18a3.1,3.1,0,0,1,6.2,0ZM22,66.471a6.987,6.987,0,0,0,7.966,0,6.854,6.854,0,0,1,2.909,5.613v.574H19.083v-.574A6.957,6.957,0,0,1,22,66.471Zm7.084-35.06a3.1,3.1,0,1,1-6.2,0V28.884a3.1,3.1,0,0,1,6.2,0ZM22,37.174a6.987,6.987,0,0,0,7.966,0,6.854,6.854,0,0,1,2.909,5.613v.574H19.083v-.574A6.957,6.957,0,0,1,22,37.174Zm55.13-5.763a3.1,3.1,0,0,1-6.2,0V28.884a3.1,3.1,0,0,1,6.2,0Zm-7.084,5.763a6.987,6.987,0,0,0,7.966,0,6.854,6.854,0,0,1,2.909,5.613v.574H67.13v-.574A6.957,6.957,0,0,1,70.042,37.174ZM96.094,19.922V43.36H84.823v-.574a10.736,10.736,0,0,0-4.343-8.649,6.969,6.969,0,0,0,.551-2.725V28.884a7.008,7.008,0,0,0-14.017,0v2.528a6.971,6.971,0,0,0,.551,2.725,10.733,10.733,0,0,0-4.343,8.649v.574H51.953V19.335a9.708,9.708,0,0,0,3.335-1.366H94.141A1.955,1.955,0,0,1,96.094,19.922ZM63.672,12.11v1.953H58.767a9.7,9.7,0,0,0,.989-3.906h1.963A1.955,1.955,0,0,1,63.672,12.11ZM50,3.906a5.859,5.859,0,1,1-5.859,5.859A5.866,5.866,0,0,1,50,3.906ZM36.328,14.063V12.11a1.955,1.955,0,0,1,1.953-1.953h1.963a9.694,9.694,0,0,0,.989,3.906ZM3.906,19.922a1.955,1.955,0,0,1,1.953-1.953H44.712a9.707,9.707,0,0,0,3.335,1.366V43.36H36.776v-.574a10.736,10.736,0,0,0-4.343-8.649,6.969,6.969,0,0,0,.551-2.725V28.884a7.008,7.008,0,0,0-14.017,0v2.528a6.972,6.972,0,0,0,.551,2.725,10.733,10.733,0,0,0-4.343,8.649v.574H3.906Zm0,58.594V76.563H80.917v3.906H5.859a1.955,1.955,0,0,1-1.953-1.953ZM61.271,96.094H38.735l2.907-11.719H58.359Zm32.87-15.625H84.823V76.563H96.094v1.953A1.955,1.955,0,0,1,94.141,80.469Z" transform="translate(0)"/>
        <path id="Trazado_169845" data-name="Trazado 169845" d="M247.955,43.906a1.953,1.953,0,1,0,0-3.906h0a1.953,1.953,0,0,0,0,3.906Z" transform="translate(-197.954 -32.188)"/>
        <path id="Trazado_169846" data-name="Trazado 169846" d="M247.954,267a1.953,1.953,0,1,0,1.953,1.954h0A1.953,1.953,0,0,0,247.954,267Z" transform="translate(-197.954 -214.853)"/>
      </g>
    </g>
  </g>
</svg>
