<svg xmlns="http://www.w3.org/2000/svg" width="150" height="150" viewBox="0 0 150 150">
  <g id="Grupo_115956" data-name="Grupo 115956" transform="translate(-725.315 -5114)">
    <g id="Elipse_5924" data-name="Elipse 5924" transform="translate(725.315 5114)" fill="#fff" stroke="#77b43a" stroke-width="4">
      <circle cx="75" cy="75" r="75" stroke="none"/>
      <circle cx="75" cy="75" r="73" fill="none"/>
    </g>
    <g id="Grupo_114479" data-name="Grupo 114479" transform="translate(733.562 5129.313)">
      <g id="Grupo_114475" data-name="Grupo 114475" transform="translate(28.957 67.577)">
        <path id="Trazado_169134" data-name="Trazado 169134" d="M69.2,129.539c-11.464,0-21.986-6.614-28.151-17.7a1.433,1.433,0,0,1-.136-1.015,1.263,1.263,0,0,1,.561-.8c4.247-2.538,10.549-4.365,18.068-5.279a81.686,81.686,0,0,1,9.658-.553,83.955,83.955,0,0,1,10.264.627c6.915.84,13.217,2.667,17.462,5.205a1.255,1.255,0,0,1,.561.8,1.43,1.43,0,0,1-.136,1.015C91.188,122.924,80.663,129.539,69.2,129.539ZM43.626,111.664c5.828,9.618,15.3,15.318,25.574,15.318s19.745-5.7,25.574-15.318c-5.919-3.092-15.336-4.918-25.574-4.918S49.545,108.569,43.626,111.664Z" transform="translate(-31.709 -99.435)"/>
        <path id="Trazado_169135" data-name="Trazado 169135" d="M30.621,132.655v-2.9a7.019,7.019,0,0,1,3.343-5.98l6.2-3.815a7.462,7.462,0,0,1,3.908-1.106h0a7.463,7.463,0,0,1,3.908,1.106l6.2,3.815a7.022,7.022,0,0,1,3.343,5.98v2.9Z" transform="translate(-29.341 -102.821)" fill="#dbe636"/>
        <path id="Trazado_169136" data-name="Trazado 169136" d="M57.136,133.547h-26.9a1.279,1.279,0,0,1-1.279-1.279v-2.9a8.356,8.356,0,0,1,3.952-7.07l6.2-3.815a8.743,8.743,0,0,1,9.157,0l6.2,3.812a8.356,8.356,0,0,1,3.952,7.07v2.9a1.279,1.279,0,0,1-1.279,1.279Zm-25.623-2.556H55.86v-1.619a5.786,5.786,0,0,0-2.735-4.892l-6.2-3.812a6.183,6.183,0,0,0-6.48,0l-6.2,3.815a5.783,5.783,0,0,0-2.735,4.892v1.619Z" transform="translate(-28.957 -102.436)"/>
        <path id="Trazado_169137" data-name="Trazado 169137" d="M65.511,132.655v-2.9a7.019,7.019,0,0,1,3.343-5.98l6.2-3.815a7.462,7.462,0,0,1,3.908-1.106h0a7.463,7.463,0,0,1,3.908,1.106l6.2,3.815a7.022,7.022,0,0,1,3.343,5.98v2.9Z" transform="translate(-41.482 -102.821)" fill="#f75316"/>
        <path id="Trazado_169138" data-name="Trazado 169138" d="M92.029,133.547h-26.9a1.279,1.279,0,0,1-1.279-1.279v-2.9A8.356,8.356,0,0,1,67.8,122.3l6.2-3.815a8.743,8.743,0,0,1,9.157,0l6.2,3.815a8.356,8.356,0,0,1,3.952,7.07v2.9A1.279,1.279,0,0,1,92.029,133.547Zm-25.623-2.556H90.753v-1.619a5.786,5.786,0,0,0-2.735-4.892l-6.2-3.812a6.183,6.183,0,0,0-6.48,0l-6.2,3.815a5.783,5.783,0,0,0-2.735,4.892v1.619Z" transform="translate(-41.098 -102.436)"/>
        <path id="Trazado_169139" data-name="Trazado 169139" d="M100.4,132.655v-2.9a7.019,7.019,0,0,1,3.343-5.98l6.2-3.815a7.463,7.463,0,0,1,3.908-1.106h0a7.463,7.463,0,0,1,3.908,1.106l6.2,3.815a7.022,7.022,0,0,1,3.343,5.98v2.9Z" transform="translate(-53.623 -102.821)" fill="#3d46c1"/>
        <path id="Trazado_169140" data-name="Trazado 169140" d="M126.92,133.547h-26.9a1.279,1.279,0,0,1-1.279-1.279v-2.9a8.356,8.356,0,0,1,3.952-7.07l6.2-3.815a8.743,8.743,0,0,1,9.157,0l6.2,3.812a8.356,8.356,0,0,1,3.952,7.07v2.9a1.279,1.279,0,0,1-1.279,1.279ZM101.3,130.991h24.346v-1.619a5.786,5.786,0,0,0-2.735-4.892l-6.2-3.812a6.183,6.183,0,0,0-6.48,0l-6.2,3.815a5.783,5.783,0,0,0-2.735,4.892v1.619Z" transform="translate(-53.238 -102.436)"/>
        <path id="Trazado_169141" data-name="Trazado 169141" d="M46.115,117.473h0a6.635,6.635,0,0,1-6.635-6.635v-4.532a6.635,6.635,0,0,1,6.635-6.635h0a6.635,6.635,0,0,1,6.635,6.635v4.532A6.635,6.635,0,0,1,46.115,117.473Z" transform="translate(-31.387 -98.391)" fill="#ffd4a2"/>
        <path id="Trazado_169142" data-name="Trazado 169142" d="M45.731,118.368a7.924,7.924,0,0,1-7.914-7.914v-4.532a7.913,7.913,0,1,1,15.826,0v4.532A7.923,7.923,0,0,1,45.731,118.368Zm0-17.8a5.363,5.363,0,0,0-5.358,5.356v4.532a5.357,5.357,0,0,0,10.714,0v-4.532A5.361,5.361,0,0,0,45.731,100.566Z" transform="translate(-31.003 -98.007)"/>
        <path id="Trazado_169143" data-name="Trazado 169143" d="M81.008,117.473h0a6.635,6.635,0,0,1-6.635-6.635v-4.532a6.635,6.635,0,0,1,6.635-6.635h0a6.635,6.635,0,0,1,6.635,6.635v4.532A6.635,6.635,0,0,1,81.008,117.473Z" transform="translate(-43.528 -98.391)" fill="#ffd4a2"/>
        <path id="Trazado_169144" data-name="Trazado 169144" d="M80.625,118.368a7.921,7.921,0,0,1-7.912-7.914v-4.532a7.913,7.913,0,1,1,15.826,0v4.532A7.924,7.924,0,0,1,80.625,118.368Zm0-17.8a5.361,5.361,0,0,0-5.356,5.356v4.532a5.357,5.357,0,0,0,10.714,0v-4.532A5.362,5.362,0,0,0,80.625,100.566Z" transform="translate(-43.145 -98.007)"/>
        <path id="Trazado_169145" data-name="Trazado 169145" d="M115.9,117.473h0a6.635,6.635,0,0,1-6.635-6.635v-4.532a6.635,6.635,0,0,1,6.635-6.635h0a6.635,6.635,0,0,1,6.635,6.635v4.532A6.635,6.635,0,0,1,115.9,117.473Z" transform="translate(-55.669 -98.391)" fill="#ffd4a2"/>
        <path id="Trazado_169146" data-name="Trazado 169146" d="M115.518,118.368a7.924,7.924,0,0,1-7.914-7.914v-4.532a7.913,7.913,0,1,1,15.826,0v4.532A7.923,7.923,0,0,1,115.518,118.368Zm0-17.8a5.363,5.363,0,0,0-5.358,5.356v4.532a5.357,5.357,0,0,0,10.714,0v-4.532A5.361,5.361,0,0,0,115.518,100.566Z" transform="translate(-55.285 -98.007)"/>
      </g>
      <g id="Grupo_114477" data-name="Grupo 114477" transform="translate(53.759 30.188)">
        <line id="Línea_540" data-name="Línea 540" y2="16.082" transform="translate(12.123)" fill="none" stroke="#000" stroke-linecap="round" stroke-miterlimit="10" stroke-width="3.367"/>
        <g id="Grupo_114476" data-name="Grupo 114476" transform="translate(0 16.823)">
          <line id="Línea_541" data-name="Línea 541" x1="2.722" y2="31.667" fill="none" stroke="#000" stroke-linecap="round" stroke-miterlimit="10" stroke-width="3.367"/>
          <line id="Línea_542" data-name="Línea 542" x2="2.846" y2="31.419" transform="translate(22.513)" fill="none" stroke="#000" stroke-linecap="round" stroke-miterlimit="10" stroke-width="3.367"/>
          <line id="Línea_543" data-name="Línea 543" x1="19.296" transform="translate(3.216)" fill="none" stroke="#000" stroke-linecap="round" stroke-miterlimit="10" stroke-width="3.367"/>
        </g>
      </g>
      <g id="Grupo_114478" data-name="Grupo 114478" transform="translate(50.977 8.687)">
        <path id="Trazado_169147" data-name="Trazado 169147" d="M64.217,45.451V42.338a7.545,7.545,0,0,1,3.589-6.425l8.588-5.286h4.532l8.588,5.286A7.545,7.545,0,0,1,93.1,42.338v3.113H64.215Z" transform="translate(-63.202 -13.753)" fill="#75b52f"/>
        <path id="Trazado_169148" data-name="Trazado 169148" d="M92.8,46.164H63.916A1.018,1.018,0,0,1,62.9,45.146V42.033a8.619,8.619,0,0,1,4.074-7.293l8.588-5.286a1.019,1.019,0,0,1,.533-.15h4.532a1.019,1.019,0,0,1,.533.15l8.588,5.286a8.619,8.619,0,0,1,4.074,7.293v3.113A1.018,1.018,0,0,1,92.8,46.164ZM64.931,44.128H91.787v-2.1a6.571,6.571,0,0,0-3.105-5.56l-8.344-5.135H76.38l-8.344,5.135a6.568,6.568,0,0,0-3.105,5.56Z" transform="translate(-62.898 -13.447)" fill="#030303"/>
        <path id="Trazado_169149" data-name="Trazado 169149" d="M80.861,29.138h0a7.127,7.127,0,0,1-7.124-7.13V17.14a7.128,7.128,0,0,1,7.124-7.13h0a7.127,7.127,0,0,1,7.124,7.13v4.869a7.128,7.128,0,0,1-7.124,7.13Z" transform="translate(-65.401 -8.993)" fill="#ffd4a2"/>
        <path id="Trazado_169150" data-name="Trazado 169150" d="M80.556,29.851A8.153,8.153,0,0,1,72.414,21.7V16.835a8.142,8.142,0,1,1,16.284,0V21.7A8.153,8.153,0,0,1,80.556,29.851Zm0-19.128a6.119,6.119,0,0,0-6.109,6.112V21.7a6.109,6.109,0,1,0,12.218,0V16.835A6.118,6.118,0,0,0,80.556,10.723Z" transform="translate(-65.095 -8.687)"/>
      </g>
    </g>
  </g>
</svg>
