<svg xmlns="http://www.w3.org/2000/svg" width="150" height="150" viewBox="0 0 150 150">
  <g id="Grupo_115955" data-name="Grupo 115955" transform="translate(-725 -2538.686)">
    <circle id="Elipse_5677" data-name="Elipse 5677" cx="75" cy="75" r="75" transform="translate(725 2538.686)" fill="#fff"/>
    <g id="salud-mental" transform="translate(752 2552.193)">
      <g id="Grupo_114799" data-name="Grupo 114799" transform="translate(1.953 21.205)">
        <g id="Grupo_114786" data-name="Grupo 114786" transform="translate(22.502 0)">
          <path id="Trazado_169661" data-name="Trazado 169661" d="M150.756,70.548c0,3.982-1.23,7.118-5.191,7.063a6.913,6.913,0,0,1-6.423-4.1.8.8,0,0,0-.743-.491h-.021c-4.93,0-7.844-2.718-7.844-7.672a9.045,9.045,0,0,1,.163-1.71.8.8,0,0,0-.381-.844c-3.686-2.122-5.1-4.79-5.1-9.365s1.419-7.244,5.1-9.365a.8.8,0,0,0,.381-.844,9.043,9.043,0,0,1-.163-1.71c0-4.954,2.914-7.672,7.844-7.672h.021a.8.8,0,0,0,.743-.491,6.913,6.913,0,0,1,6.423-4.1c3.961-.055,5.191,3.081,5.191,7.063" transform="translate(-125.211 -29.252)" fill="#f85316"/>
        </g>
        <g id="Grupo_114787" data-name="Grupo 114787" transform="translate(48.047 0)">
          <path id="Trazado_169662" data-name="Trazado 169662" d="M256,36.316c0-3.982,1.23-7.118,5.191-7.063a6.913,6.913,0,0,1,6.423,4.1.8.8,0,0,0,.743.491h.021c4.93,0,7.844,2.718,7.844,7.672a9.043,9.043,0,0,1-.163,1.71.8.8,0,0,0,.381.844c3.686,2.122,5.1,4.79,5.1,9.365s-1.419,7.244-5.1,9.365a.8.8,0,0,0-.381.844,9.04,9.04,0,0,1,.163,1.71c0,4.954-2.914,7.672-7.844,7.672h-.021a.8.8,0,0,0-.743.491,6.913,6.913,0,0,1-6.423,4.1c-3.962.055-5.191-3.081-5.191-7.063" transform="translate(-256 -29.252)" fill="#fc9d7b"/>
        </g>
        <g id="Grupo_114789" data-name="Grupo 114789" transform="translate(81.064 18.779)">
          <g id="Grupo_114788" data-name="Grupo 114788">
            <path id="Trazado_169663" data-name="Trazado 169663" d="M425.048,144.1V129.364a3.965,3.965,0,0,1,3.965-3.965l.138,0a3.965,3.965,0,0,1,3.828,3.963V146.39" transform="translate(-425.048 -125.399)" fill="#ffdcd5"/>
          </g>
        </g>
        <g id="Grupo_114796" data-name="Grupo 114796" transform="translate(0 11.427)">
          <g id="Grupo_114795" data-name="Grupo 114795">
            <g id="Grupo_114794" data-name="Grupo 114794">
              <g id="Grupo_114791" data-name="Grupo 114791" transform="translate(7.099 7.352)">
                <g id="Grupo_114790" data-name="Grupo 114790">
                  <path id="Trazado_169664" data-name="Trazado 169664" d="M54.277,144.1V129.364a3.965,3.965,0,0,0-3.965-3.965l-.138,0a3.965,3.965,0,0,0-3.828,3.963V146.39" transform="translate(-46.346 -125.399)" fill="#ffdcd5"/>
                </g>
              </g>
              <g id="Grupo_114793" data-name="Grupo 114793">
                <g id="Grupo_114792" data-name="Grupo 114792">
                  <path id="Trazado_169665" data-name="Trazado 169665" d="M32.707,135.014l-13.766-14.4a4.372,4.372,0,0,1,.007-6.144c.013-.013.351-.318.352-.319a4.373,4.373,0,0,1,5.872.326l14.057,13.851a18.953,18.953,0,0,1,5.65,13.5V164.9H31.15V148.463L15.193,135.592A15.882,15.882,0,0,1,10,124.242q0-.214,0-.431c.018-6.61.047-28.118.047-32.791,0-1.945,2.06-3.355,4.1-3.259a4.039,4.039,0,0,1,3.774,4.073V116.1" transform="translate(-10.001 -87.756)" fill="#ffdcd5"/>
                </g>
              </g>
            </g>
          </g>
        </g>
        <g id="Grupo_114798" data-name="Grupo 114798" transform="translate(61.215 11.427)">
          <g id="Grupo_114797" data-name="Grupo 114797">
            <path id="Trazado_169666" data-name="Trazado 169666" d="M342.422,127.829l6.938-7.216a4.373,4.373,0,0,0-.007-6.144c-.013-.013-.351-.318-.352-.319a4.373,4.373,0,0,0-5.872.326l-14.057,13.851a18.953,18.953,0,0,0-5.65,13.5V164.9h13.729V148.463l15.957-12.871a15.881,15.881,0,0,0,5.189-11.349q0-.214,0-.431c-.018-6.61-.047-28.118-.047-32.791,0-1.945-2.06-3.355-4.1-3.259a4.039,4.039,0,0,0-3.774,4.073V116.1" transform="translate(-323.422 -87.756)" fill="#ffdcd5"/>
          </g>
        </g>
      </g>
      <g id="Grupo_114802" data-name="Grupo 114802" transform="translate(0 19.252)">
        <g id="Grupo_114801" data-name="Grupo 114801" transform="translate(0 0)">
          <g id="Grupo_114800" data-name="Grupo 114800">
            <path id="Trazado_169667" data-name="Trazado 169667" d="M155.791,66.911c5.628-.278,9.091-3.906,9.091-9.608a11.027,11.027,0,0,0-.074-1.277c3.774-2.411,5.4-5.639,5.4-10.642s-1.623-8.23-5.4-10.642a11.03,11.03,0,0,0,.074-1.277c0-5.7-3.463-9.33-9.091-9.608a8.9,8.9,0,0,0-7.865-4.605,6.494,6.494,0,0,0-4.843,1.782q-.2.193-.375.406-.18-.212-.375-.406a6.5,6.5,0,0,0-4.843-1.782,8.9,8.9,0,0,0-7.866,4.605c-5.628.278-9.091,3.906-9.091,9.608a11.071,11.071,0,0,0,.074,1.277c-3.774,2.411-5.4,5.639-5.4,10.642s1.623,8.23,5.4,10.642a11.03,11.03,0,0,0-.074,1.277c0,5.7,3.463,9.33,9.091,9.608a8.9,8.9,0,0,0,7.865,4.605h.131a6.45,6.45,0,0,0,4.712-1.783q.2-.193.375-.406.18.212.375.406a6.449,6.449,0,0,0,4.712,1.783h.131A8.9,8.9,0,0,0,155.791,66.911ZM140.754,62.5c0,2.161-.4,3.7-1.165,4.452a2.721,2.721,0,0,1-2.046.657,5.022,5.022,0,0,1-4.563-2.713,3.127,3.127,0,0,1,1.2-1.236,3.094,3.094,0,0,1,2.367-.312,1.953,1.953,0,0,0,1.013-3.773A7.041,7.041,0,0,0,129.567,63c-3.4-.241-5.128-2.153-5.128-5.693a7.119,7.119,0,0,1,.128-1.342,2.751,2.751,0,0,0-1.325-2.9c-3.046-1.754-4.126-3.762-4.126-7.672s1.08-5.919,4.125-7.672a2.752,2.752,0,0,0,1.326-2.907,7.1,7.1,0,0,1-.128-1.34c0-3.795,1.982-5.719,5.891-5.719h.023c.057,0,.114,0,.17-.005a2.225,2.225,0,0,1,1.275,2.621,1.953,1.953,0,1,0,3.775,1,6.146,6.146,0,0,0-2.059-6.34,5.169,5.169,0,0,1,4.03-1.868,2.72,2.72,0,0,1,2.046.657c.762.751,1.165,2.291,1.165,4.452Zm12.862-2.094a1.953,1.953,0,0,0-3.775-1,6.146,6.146,0,0,0,2.059,6.34,5.169,5.169,0,0,1-4.029,1.868,2.709,2.709,0,0,1-2.046-.657c-.762-.751-1.165-2.291-1.165-4.452V28.268c0-2.161.4-3.7,1.165-4.452a2.718,2.718,0,0,1,2.046-.657,5.022,5.022,0,0,1,4.563,2.713,3.127,3.127,0,0,1-1.2,1.236,3.094,3.094,0,0,1-2.367.312,1.953,1.953,0,1,0-1.013,3.772,7.056,7.056,0,0,0,1.831.243,7.058,7.058,0,0,0,6.16-3.663c3.4.241,5.128,2.153,5.128,5.693a7.12,7.12,0,0,1-.128,1.342,2.751,2.751,0,0,0,1.325,2.9c3.046,1.754,4.126,3.762,4.126,7.672s-1.08,5.919-4.125,7.672a2.753,2.753,0,0,0-1.326,2.907,7.1,7.1,0,0,1,.128,1.34c0,3.795-1.982,5.719-5.891,5.719h-.015c-.06,0-.12,0-.179.005a2.225,2.225,0,0,1-1.274-2.621Z" transform="translate(-92.707 -19.252)"/>
            <path id="Trazado_169668" data-name="Trazado 169668" d="M175.682,132.583a5.706,5.706,0,0,0-4.192,9.583q.113.121.231.239a1.953,1.953,0,0,0,2.76-2.764c-.046-.046-.09-.092-.134-.138a1.749,1.749,0,0,1-.325-1.921,1.782,1.782,0,0,1,1.66-1.092,1.953,1.953,0,1,0,0-3.906Z" transform="translate(-136.76 -110.448)"/>
            <path id="Trazado_169669" data-name="Trazado 169669" d="M305.876,139.642a1.953,1.953,0,0,0,2.76,2.764q.118-.118.231-.239a5.707,5.707,0,0,0-4.193-9.583,1.953,1.953,0,0,0,0,3.906,1.782,1.782,0,0,1,1.66,1.092,1.748,1.748,0,0,1-.324,1.921Q305.945,139.573,305.876,139.642Z" transform="translate(-243.596 -110.449)"/>
            <path id="Trazado_169670" data-name="Trazado 169670" d="M32.552,118.889,18.936,105.472V91.027a5.925,5.925,0,0,0-5.919-5.919l-.2,0a5.882,5.882,0,0,0-.99.119V83.787a5.968,5.968,0,0,0-5.635-6.024,6.3,6.3,0,0,0-4.575,1.678A4.867,4.867,0,0,0,.047,82.973c0,4.607-.028,26.068-.047,32.786,0,.159,0,.316,0,.473a17.9,17.9,0,0,0,5.82,12.75q.046.043.1.082l15.23,12.285v15.507a1.953,1.953,0,0,0,1.953,1.953H36.831a1.953,1.953,0,0,0,1.953-1.953V133.78A21.034,21.034,0,0,0,32.552,118.889ZM12.935,89.016l.082,0a2.015,2.015,0,0,1,2.012,2.012v12.218a6.285,6.285,0,0,0-3.208.311V89.408A1.989,1.989,0,0,1,12.935,89.016ZM34.878,154.9H25.055V140.415a1.953,1.953,0,0,0-.727-1.52L8.423,126.065a13.975,13.975,0,0,1-4.513-9.906q0-.193,0-.389c.019-6.72.047-28.189.047-32.8a.985.985,0,0,1,.355-.706,2.4,2.4,0,0,1,1.7-.6,2.094,2.094,0,0,1,1.913,2.122v24.007a6.341,6.341,0,0,0,1.575,6.131l13.757,14.391a1.953,1.953,0,1,0,2.824-2.7l-13.766-14.4-.02-.021a2.419,2.419,0,0,1-.023-3.373l.256-.232a2.407,2.407,0,0,1,3.214.208l.021.021L29.81,121.671a17.1,17.1,0,0,1,5.068,12.109V154.9Z" transform="translate(0 -66.33)"/>
            <path id="Trazado_169671" data-name="Trazado 169671" d="M352.16,82.973a4.868,4.868,0,0,0-1.565-3.532,6.308,6.308,0,0,0-4.575-1.678,5.968,5.968,0,0,0-5.635,6.024v1.444a5.856,5.856,0,0,0-.988-.119l-.208,0a5.925,5.925,0,0,0-5.919,5.919v14.445l-13.616,13.417a21.035,21.035,0,0,0-6.233,14.891v23.076a1.953,1.953,0,0,0,1.953,1.953H329.1a1.953,1.953,0,0,0,1.953-1.953V141.349l15.23-12.285q.049-.04.1-.082a17.9,17.9,0,0,0,5.82-12.751q0-.235,0-.473c-.018-6.718-.046-28.179-.046-32.786Zm-12.983,6.041.1,0a1.986,1.986,0,0,1,1.112.391v14.147a6.286,6.286,0,0,0-3.208-.31V91.027A2.012,2.012,0,0,1,339.177,89.015Zm9.121,27.144a13.976,13.976,0,0,1-4.513,9.907L327.878,138.9a1.954,1.954,0,0,0-.727,1.52V154.9h-9.823V133.78a17.1,17.1,0,0,1,5.068-12.109l14.057-13.851.021-.021a2.406,2.406,0,0,1,3.214-.209l.257.233a2.42,2.42,0,0,1-.024,3.372l-.016.017-6.938,7.216a1.953,1.953,0,0,0,2.816,2.708l6.932-7.209a6.34,6.34,0,0,0,1.577-6.133V83.787a2.094,2.094,0,0,1,1.913-2.122,2.4,2.4,0,0,1,1.7.6.985.985,0,0,1,.355.706c0,4.608.028,26.076.047,32.8,0,.13,0,.26,0,.388Z" transform="translate(-252.207 -66.33)"/>
            <path id="Trazado_169672" data-name="Trazado 169672" d="M383.068,316.912a1.952,1.952,0,1,0-.692,2.353A1.968,1.968,0,0,0,383.068,316.912Z" transform="translate(-305.23 -257.804)"/>
          </g>
        </g>
      </g>
    </g>
  </g>
</svg>
