<svg xmlns="http://www.w3.org/2000/svg" width="150" height="150" viewBox="0 0 150 150">
  <g id="Grupo_115956" data-name="Grupo 115956" transform="translate(-1080 -2538.686)">
    <circle id="Elipse_5678" data-name="Elipse 5678" cx="75" cy="75" r="75" transform="translate(1080 2538.686)" fill="#fff"/>
    <g id="comunicacion" transform="translate(1104 2558)">
      <g id="Grupo_114815" data-name="Grupo 114815" transform="translate(2.613 2.613)">
        <g id="Grupo_114803" data-name="Grupo 114803" transform="translate(3.226 64.516)">
          <path id="Trazado_169673" data-name="Trazado 169673" d="M36.258,64.581v9.677H22.839A18.833,18.833,0,0,1,4,55.419,14.158,14.158,0,0,1,13.677,42,19.326,19.326,0,0,1,33.032,61.355v3.226Z" transform="translate(-4 -42)" fill="#75b62f"/>
        </g>
        <g id="Grupo_114804" data-name="Grupo 114804" transform="translate(58.065 64.516)">
          <path id="Trazado_169674" data-name="Trazado 169674" d="M47.677,54.9l.1-.387A16.608,16.608,0,0,1,63.806,42a14.158,14.158,0,0,1,9.677,13.419v1.1a17.742,17.742,0,1,1-35.484,0V54.9Z" transform="translate(-38 -42)" fill="#f85316"/>
        </g>
        <g id="Grupo_114805" data-name="Grupo 114805" transform="translate(61.29 19.355)">
          <path id="Trazado_169675" data-name="Trazado 169675" d="M58.532,25.823l-.129.129a3.154,3.154,0,0,1-2.274.952H46.452a6.452,6.452,0,1,1,0-12.9h8.774A20.251,20.251,0,0,1,75.484,34.258V49a6.94,6.94,0,0,1-6.935,6.935H62.581V39.806a3.226,3.226,0,0,0,0-6.452,9.043,9.043,0,0,0-4.032-7.516Z" transform="translate(-40 -14)" fill="#656d78"/>
        </g>
        <g id="Grupo_114806" data-name="Grupo 114806" transform="translate(0 17.742)">
          <path id="Trazado_169676" data-name="Trazado 169676" d="M34.258,13v7.581a6.935,6.935,0,0,1-3.1,5.774L31.1,26.4a.122.122,0,0,1-.065.032,6.65,6.65,0,0,1-3.645,1.081H23.161A8.521,8.521,0,0,0,14.9,33.968a3.226,3.226,0,0,0,0,6.452V50.1A19.873,19.873,0,0,1,2,31.484v-1.71A15.187,15.187,0,0,1,17.177,14.613h7.145A31.571,31.571,0,0,0,34.258,13Z" transform="translate(-2 -13)" fill="#b27946"/>
        </g>
        <g id="Grupo_114807" data-name="Grupo 114807" transform="translate(32.258)">
          <path id="Trazado_169677" data-name="Trazado 169677" d="M51.032,5.226v12.9a3.235,3.235,0,0,1-3.226,3.226H41.355L38.677,26.71a1.994,1.994,0,0,1-3.774-.9V21.355H25.226A3.235,3.235,0,0,1,22,18.129V5.226A3.235,3.235,0,0,1,25.226,2H47.806A3.235,3.235,0,0,1,51.032,5.226Z" transform="translate(-22 -2)" fill="#dce736"/>
        </g>
        <g id="Grupo_114808" data-name="Grupo 114808" transform="translate(38.71 41.935)">
          <path id="Trazado_169678" data-name="Trazado 169678" d="M26,50.581v-12.9a3.235,3.235,0,0,1,3.226-3.226h6.452L38.355,29.1a1.994,1.994,0,0,1,3.774.9v4.452h9.677a3.235,3.235,0,0,1,3.226,3.226v12.9a3.235,3.235,0,0,1-3.226,3.226H29.226A3.235,3.235,0,0,1,26,50.581Z" transform="translate(-26 -28)" fill="#dce736"/>
        </g>
        <g id="Grupo_114809" data-name="Grupo 114809" transform="translate(64.516 31.177)">
          <path id="Trazado_169679" data-name="Trazado 169679" d="M63.629,29.814a3.154,3.154,0,0,0-2.274-.952,9.043,9.043,0,0,0-4.032-7.516l-.016-.016-.129.129a3.154,3.154,0,0,1-2.274.952H45.226v3.774a6.458,6.458,0,0,1-1.887,4.565l-.677.677a2.281,2.281,0,0,0,1.613,3.887h.952v9.677l.565-.016a5.693,5.693,0,0,0,5.145,3.242,3.844,3.844,0,0,0,.742-.065V57.8l.016.016a16.36,16.36,0,0,1,9.661-3.145V35.314a3.216,3.216,0,0,0,2.274-5.5Z" transform="translate(-42 -21.33)" fill="#f0d0b4"/>
        </g>
        <g id="Grupo_114810" data-name="Grupo 114810" transform="translate(58.065 67.742)">
          <path id="Trazado_169680" data-name="Trazado 169680" d="M47.677,48.839v4.839H38V48.839a4.839,4.839,0,0,1,9.677,0Z" transform="translate(-38 -44)" fill="#f0d0b4"/>
        </g>
        <g id="Grupo_114811" data-name="Grupo 114811" transform="translate(35.484 83.871)">
          <path id="Trazado_169681" data-name="Trazado 169681" d="M38.71,58.645A4.836,4.836,0,0,1,35.29,66.9H24V57.226h3.226a3.226,3.226,0,0,1,6.452,0H35.29A4.827,4.827,0,0,1,38.71,58.645Z" transform="translate(-24 -54)" fill="#f0d0b4"/>
        </g>
        <g id="Grupo_114812" data-name="Grupo 114812" transform="translate(9.677 31.177)">
          <path id="Trazado_169682" data-name="Trazado 169682" d="M29.919,31.427l-.677-.677a6.458,6.458,0,0,1-1.887-4.565V21.33a6.65,6.65,0,0,1-3.645,1.081H19.484a8.521,8.521,0,0,0-8.258,6.452,3.226,3.226,0,0,0,0,6.452V54.669A19.235,19.235,0,0,1,20.9,57.249v-9.1l.742.065a5.693,5.693,0,0,0,5.145-3.242l.565.016V35.314h.952a2.281,2.281,0,0,0,1.613-3.887Z" transform="translate(-8 -21.33)" fill="#f0d0b4"/>
        </g>
        <g id="Grupo_114813" data-name="Grupo 114813" transform="translate(67.742 48.387)">
          <path id="Trazado_169683" data-name="Trazado 169683" d="M44,32h6.452a6.416,6.416,0,0,1-1.71,4.371,6.489,6.489,0,0,1-4.177,2.065A5.716,5.716,0,0,1,44,35.968V32Z" transform="translate(-44 -32)" fill="#ff826e"/>
        </g>
        <g id="Grupo_114814" data-name="Grupo 114814" transform="translate(22.581 48.387)">
          <path id="Trazado_169684" data-name="Trazado 169684" d="M22.452,32v3.968a5.716,5.716,0,0,1-.565,2.468,6.489,6.489,0,0,1-4.177-2.065A6.416,6.416,0,0,1,16,32Z" transform="translate(-16 -32)" fill="#ff826e"/>
        </g>
      </g>
      <g id="Grupo_114816" data-name="Grupo 114816" transform="translate(1 1)">
        <path id="Trazado_169685" data-name="Trazado 169685" d="M49.387,88.1h-.276a4.84,4.84,0,0,0-9.126,0h-3.5V86.484a20.955,20.955,0,0,0-9.677-17.64V62.2a7.3,7.3,0,0,0,6.452-7.227V49.331a3.895,3.895,0,0,0,2.085-6.59l-.668-.668a4.816,4.816,0,0,1-1.418-3.423V34.6a8.524,8.524,0,0,0,3.227-6.676V23.284a4.775,4.775,0,0,0,1.611.3h8.065v2.845a3.607,3.607,0,0,0,6.832,1.613l2.229-4.458h5.455a4.845,4.845,0,0,0,4.839-4.839V5.839A4.845,4.845,0,0,0,60.677,1H38.1a4.845,4.845,0,0,0-4.839,4.839v12.9c0,.134.029.26.039.39a29.784,29.784,0,0,1-8.365,1.223h-7.15A16.781,16.781,0,0,0,1,37.137v1.7a21.609,21.609,0,0,0,12.9,19.7v7.476A15.746,15.746,0,0,0,4.226,80.556,20.469,20.469,0,0,0,24.671,101H49.387a6.452,6.452,0,0,0,0-12.9ZM29.976,55.532a4.894,4.894,0,0,1-2.889-2.919h2.945v2.363A3.966,3.966,0,0,1,29.976,55.532Zm2.615-9.371H30.032v3.226H23.581V51A8.1,8.1,0,0,0,28.3,58.308a4.067,4.067,0,0,1-5.244-.44L21.5,56.311l-2.281,2.281,1.556,1.556a7.262,7.262,0,0,0,2.81,1.723v5.265A20.8,20.8,0,0,0,17.129,65.6V46.161H15.516a1.613,1.613,0,0,1,0-3.226h1.258l.3-1.223a6.894,6.894,0,0,1,6.7-5.227h0l4.229,0a8.227,8.227,0,0,0,2.024-.273V38.65a8.014,8.014,0,0,0,2.363,5.7l.668.668a.667.667,0,0,1-.471,1.14ZM36.484,5.839A1.613,1.613,0,0,1,38.1,4.226H60.677A1.613,1.613,0,0,1,62.29,5.839v12.9a1.613,1.613,0,0,1-1.613,1.613H53.229L50.11,26.594a.4.4,0,0,1-.723-.168V20.355H38.1a1.613,1.613,0,0,1-1.613-1.613V5.839ZM4.226,38.832v-1.7A13.556,13.556,0,0,1,17.782,23.581h7.15a32.97,32.97,0,0,0,8.326-1.066l0,5.415a5.358,5.358,0,0,1-2.445,4.481,5.045,5.045,0,0,1-2.806.85l-4.229,0h0a10.114,10.114,0,0,0-9.5,6.611,4.84,4.84,0,0,0-.374,9.242v5.844A18.371,18.371,0,0,1,4.226,38.832ZM7.452,80.555a12.513,12.513,0,0,1,8.345-11.8A17.755,17.755,0,0,1,33.258,86.484V88.1H26.426a9.308,9.308,0,0,1-9.3-9.3,4.816,4.816,0,0,0-2.674-4.329l-1.444-.721-1.444,2.885,1.444.721A1.605,1.605,0,0,1,13.9,78.8,12.535,12.535,0,0,0,26.426,91.323H36.484v6.452H24.671A17.238,17.238,0,0,1,7.452,80.555ZM49.387,97.774H39.71V91.323h3.226V89.71a1.613,1.613,0,1,1,3.226,0v1.613h3.226a3.226,3.226,0,0,1,0,6.452Z" transform="translate(-1 -1)"/>
        <circle id="Elipse_5954" data-name="Elipse 5954" cx="1.613" cy="1.613" r="1.613" transform="translate(22.581 38.71)"/>
        <circle id="Elipse_5955" data-name="Elipse 5955" cx="1.613" cy="1.613" r="1.613" transform="translate(74.194 38.71)"/>
        <path id="Trazado_169686" data-name="Trazado 169686" d="M64.416,13H55.645a8.065,8.065,0,0,0-1.613,15.966V31.3a4.811,4.811,0,0,1-1.418,3.423l-.668.668a3.895,3.895,0,0,0,2.085,6.59v.353a4.784,4.784,0,0,0-1.613-.3H44.355V39.187a3.607,3.607,0,0,0-6.832-1.613l-2.229,4.458H29.839A4.845,4.845,0,0,0,25,46.871v12.9a4.845,4.845,0,0,0,4.839,4.839H45.252a6.385,6.385,0,0,0-.9,3.226V74.29a19.355,19.355,0,1,0,38.71,0V73.2a15.746,15.746,0,0,0-9.677-14.544v-.5h4.35a8.554,8.554,0,0,0,8.553-8.553V34.874A21.9,21.9,0,0,0,64.416,13ZM54.227,37.666,54.9,37a8.014,8.014,0,0,0,2.363-5.7V29.129h8.065a4.777,4.777,0,0,0,2.394-.66,7.408,7.408,0,0,1,2.445,5.5v1.613h1.613a1.613,1.613,0,1,1,0,3.226H70.161V58.235a18.056,18.056,0,0,0-6.452,1.827V54.516a7.243,7.243,0,0,0,2.81-1.723l1.556-1.556L65.8,48.956l-1.556,1.556a4.069,4.069,0,0,1-5.245.44,8.106,8.106,0,0,0,4.716-7.308V42.032H57.258V38.806H54.7a.668.668,0,0,1-.473-1.14Zm2.7,28.229a6.419,6.419,0,0,0-1.41-2.435,4.8,4.8,0,0,0,1.742-3.685v-6.09a7.265,7.265,0,0,0,3.226,1.165V62.1A18.116,18.116,0,0,0,56.926,65.9Zm.389-17.718a3.965,3.965,0,0,1-.056-.556V45.258H60.2A4.894,4.894,0,0,1,57.315,48.177Zm-29.089,11.6v-12.9a1.613,1.613,0,0,1,1.613-1.613h7.448l3.119-6.239a.4.4,0,0,1,.723.168v6.071h11.29a1.613,1.613,0,0,1,1.613,1.613v12.9a1.613,1.613,0,0,1-1.613,1.613H29.839a1.613,1.613,0,0,1-1.613-1.613Zm25.806,8.065v3.226H47.581V67.839a3.226,3.226,0,0,1,6.452,0ZM79.839,73.2v1.09a16.129,16.129,0,1,1-32.258,0h6.452V75.9a8.065,8.065,0,0,0,16.129,0V69.832a1.6,1.6,0,0,1,.892-1.444l1.444-.721-1.444-2.885L69.61,65.5a4.818,4.818,0,0,0-2.674,4.329V75.9a4.839,4.839,0,0,1-9.677,0V72.874l.047-.192A14.887,14.887,0,0,1,71.489,61.4,12.512,12.512,0,0,1,79.839,73.2Zm3.226-23.592a5.329,5.329,0,0,1-5.327,5.327h-4.35V41.756A4.841,4.841,0,0,0,73.3,32.6a10.6,10.6,0,0,0-3.476-6.571,4.767,4.767,0,0,0,.337-1.739,4.845,4.845,0,0,0-4.839-4.839H63.71v3.226h1.613a1.613,1.613,0,0,1,0,3.226H55.645a4.839,4.839,0,0,1,0-9.677h8.771a18.67,18.67,0,0,1,18.648,18.65Z" transform="translate(13.71 6.355)"/>
        <path id="Trazado_169687" data-name="Trazado 169687" d="M25,5H44.355V8.226H25Z" transform="translate(13.71 1.452)"/>
        <path id="Trazado_169688" data-name="Trazado 169688" d="M35,9h3.226v3.226H35Z" transform="translate(19.839 3.903)"/>
        <path id="Trazado_169689" data-name="Trazado 169689" d="M29,35H48.355v3.226H29Z" transform="translate(16.161 19.839)"/>
        <path id="Trazado_169690" data-name="Trazado 169690" d="M29,39H41.9v3.226H29Z" transform="translate(16.161 22.29)"/>
        <path id="Trazado_169691" data-name="Trazado 169691" d="M39,39h3.226v3.226H39Z" transform="translate(22.29 22.29)"/>
        <path id="Trazado_169692" data-name="Trazado 169692" d="M25,9H37.9v3.226H25Z" transform="translate(13.71 3.903)"/>
      </g>
    </g>
  </g>
</svg>
