<svg xmlns="http://www.w3.org/2000/svg" xmlns:xlink="http://www.w3.org/1999/xlink" width="83" height="83" viewBox="0 0 83 83">
  <defs>
    <clipPath id="clip-path">
      <rect id="Rectángulo_42512" data-name="Rectángulo 42512" width="83" height="83" fill="none"/>
    </clipPath>
  </defs>
  <g id="Grupo_114612" data-name="Grupo 114612" transform="translate(-32 -21)">
    <g id="Grupo_114611" data-name="Grupo 114611" transform="translate(32 21)" clip-path="url(#clip-path)">
      <path id="Trazado_169330" data-name="Trazado 169330" d="M48.108,32.587V31a4.707,4.707,0,0,1-.292,1.587Z" transform="translate(28.055 18.189)" fill="#f0f0f0"/>
      <path id="Trazado_169331" data-name="Trazado 169331" d="M0,14V61.6a6.347,6.347,0,0,0,6.347,6.347H50.775V42.561h3.465a4.707,4.707,0,0,1-.292-1.587V34.627A4.74,4.74,0,0,1,61.882,31.1a4.687,4.687,0,0,1,6.347,0,4.74,4.74,0,0,1,7.934,3.523V14Z" transform="translate(0 8.214)" fill="#f0f0f0"/>
      <path id="Trazado_169332" data-name="Trazado 169332" d="M76.163,19.867H0v-9.52A6.347,6.347,0,0,1,6.347,4H69.816a6.347,6.347,0,0,1,6.347,6.347Z" transform="translate(0 2.347)" fill="#64c8f0"/>
      <path id="Trazado_169333" data-name="Trazado 169333" d="M12.694,4H6.347A6.347,6.347,0,0,0,0,10.347v9.52H6.347v-9.52A6.347,6.347,0,0,1,12.694,4" transform="translate(0 2.347)" fill="#46aad2"/>
      <path id="Trazado_169334" data-name="Trazado 169334" d="M6.347,61.6V14H0V61.6a6.347,6.347,0,0,0,6.347,6.347h6.347A6.347,6.347,0,0,1,6.347,61.6" transform="translate(0 8.214)" fill="#d2d2d2"/>
      <path id="Trazado_169335" data-name="Trazado 169335" d="M15.173,12.694h0A3.173,3.173,0,0,1,12,9.52V3.173a3.173,3.173,0,1,1,6.347,0V9.52a3.173,3.173,0,0,1-3.173,3.173" transform="translate(7.041)" fill="#fa6450"/>
      <path id="Trazado_169336" data-name="Trazado 169336" d="M25.173,12.694h0A3.173,3.173,0,0,1,22,9.52V3.173a3.173,3.173,0,1,1,6.347,0V9.52a3.173,3.173,0,0,1-3.173,3.173" transform="translate(12.908)" fill="#fa6450"/>
      <path id="Trazado_169337" data-name="Trazado 169337" d="M35.173,12.694h0A3.173,3.173,0,0,1,32,9.52V3.173a3.173,3.173,0,0,1,6.347,0V9.52a3.173,3.173,0,0,1-3.173,3.173" transform="translate(18.775)" fill="#fa6450"/>
      <rect id="Rectángulo_42501" data-name="Rectángulo 42501" width="7" height="6" transform="translate(22 29)" fill="#505050"/>
      <rect id="Rectángulo_42502" data-name="Rectángulo 42502" width="6" height="6" transform="translate(35 29)" fill="#505050"/>
      <rect id="Rectángulo_42503" data-name="Rectángulo 42503" width="6" height="6" transform="translate(48 29)" fill="#505050"/>
      <rect id="Rectángulo_42504" data-name="Rectángulo 42504" width="7" height="6" transform="translate(60 29)" fill="#505050"/>
      <rect id="Rectángulo_42505" data-name="Rectángulo 42505" width="6" height="7" transform="translate(10 41)" fill="#505050"/>
      <rect id="Rectángulo_42506" data-name="Rectángulo 42506" width="7" height="7" transform="translate(22 41)" fill="#fa6450"/>
      <rect id="Rectángulo_42507" data-name="Rectángulo 42507" width="6" height="7" transform="translate(35 41)" fill="#505050"/>
      <rect id="Rectángulo_42508" data-name="Rectángulo 42508" width="6" height="7" transform="translate(48 41)" fill="#505050"/>
      <rect id="Rectángulo_42509" data-name="Rectángulo 42509" width="6" height="6" transform="translate(10 54)" fill="#505050"/>
      <rect id="Rectángulo_42510" data-name="Rectángulo 42510" width="7" height="6" transform="translate(22 54)" fill="#505050"/>
      <rect id="Rectángulo_42511" data-name="Rectángulo 42511" width="6" height="6" transform="translate(35 54)" fill="#505050"/>
      <path id="Trazado_169338" data-name="Trazado 169338" d="M53.041,62.561H37.173A3.173,3.173,0,0,1,34,59.388V34H56.214V59.388a3.173,3.173,0,0,1-3.173,3.173" transform="translate(19.949 19.949)" fill="#3cc8b4"/>
      <path id="Trazado_169339" data-name="Trazado 169339" d="M37.173,59.388V34H34V59.388a3.173,3.173,0,0,0,3.173,3.173h3.173a3.173,3.173,0,0,1-3.173-3.173" transform="translate(19.949 19.949)" fill="#1eaa96"/>
      <path id="Trazado_169340" data-name="Trazado 169340" d="M48,36v3.173h3.173v9.52H48v3.173h3.173a3.173,3.173,0,0,0,3.173-3.173v-9.52A3.173,3.173,0,0,0,51.173,36Z" transform="translate(28.163 21.122)" fill="#3cc8b4"/>
      <path id="Trazado_169341" data-name="Trazado 169341" d="M51.867,41.173l-9.52,9.52L36,44.347l3.173-3.173,3.173,3.173L48.694,38Z" transform="translate(21.122 22.296)" fill="#f0f0f0"/>
      <path id="Trazado_169342" data-name="Trazado 169342" d="M37.587,35.52h0A1.587,1.587,0,0,1,36,33.934V27.587a1.587,1.587,0,1,1,3.173,0v6.347a1.587,1.587,0,0,1-1.587,1.587" transform="translate(21.122 15.255)" fill="#f0f0f0"/>
      <path id="Trazado_169343" data-name="Trazado 169343" d="M41.587,35.52h0A1.587,1.587,0,0,1,40,33.934V27.587a1.587,1.587,0,1,1,3.173,0v6.347a1.587,1.587,0,0,1-1.587,1.587" transform="translate(23.469 15.255)" fill="#f0f0f0"/>
      <path id="Trazado_169344" data-name="Trazado 169344" d="M45.587,35.52h0A1.587,1.587,0,0,1,44,33.934V27.587a1.587,1.587,0,1,1,3.173,0v6.347a1.587,1.587,0,0,1-1.587,1.587" transform="translate(25.816 15.255)" fill="#f0f0f0"/>
    </g>
  </g>
</svg>
