<svg xmlns="http://www.w3.org/2000/svg" width="82.813" height="100" viewBox="0 0 82.813 100">
  <g id="aprobado" transform="translate(-44)">
    <path id="Trazado_169991" data-name="Trazado 169991" d="M129,106.094H57.906A3.906,3.906,0,0,1,54,102.188V13.906A3.906,3.906,0,0,1,57.906,10H129a3.906,3.906,0,0,1,3.906,3.906v88.281A3.906,3.906,0,0,1,129,106.094Z" transform="translate(-8.047 -8.047)" fill="#f3f9ff"/>
    <circle id="Elipse_5962" data-name="Elipse 5962" cx="24.023" cy="24.023" r="24.023" transform="translate(61.383 9.766)" fill="#a5ddff"/>
    <path id="Trazado_169992" data-name="Trazado 169992" d="M45.953,170.906a1.955,1.955,0,1,1,1.381-.572A1.967,1.967,0,0,1,45.953,170.906Z" transform="translate(0 -134.383)"/>
    <path id="Trazado_169993" data-name="Trazado 169993" d="M120.953,100H49.859A5.866,5.866,0,0,1,44,94.141V41.862a1.953,1.953,0,0,1,3.906,0V94.141a1.955,1.955,0,0,0,1.953,1.953h71.094a1.955,1.955,0,0,0,1.953-1.953V5.859a1.955,1.955,0,0,0-1.953-1.953H81.435a1.953,1.953,0,0,1,0-3.906h39.518a5.866,5.866,0,0,1,5.859,5.859V94.141A5.866,5.866,0,0,1,120.953,100Z"/>
    <path id="Trazado_169994" data-name="Trazado 169994" d="M232.234,125.868v1.9a7.617,7.617,0,0,1-7.617,7.617h0A7.617,7.617,0,0,1,217,127.772v-1.9a7.617,7.617,0,0,1,7.617-7.617h0A7.617,7.617,0,0,1,232.234,125.868Z" transform="translate(-139.211 -95.155)" fill="#ffcdac"/>
    <path id="Trazado_169995" data-name="Trazado 169995" d="M188.608,206h0a17.58,17.58,0,0,0-16.357,11.143,24,24,0,0,0,32.714,0A17.58,17.58,0,0,0,188.608,206Z" transform="translate(-103.202 -165.766)" fill="#75b62f"/>
    <path id="Trazado_169996" data-name="Trazado 169996" d="M150.341,40a26.289,26.289,0,0,0-3.97.3,1.953,1.953,0,0,0,.592,3.861,22.34,22.34,0,0,1,3.378-.256,22.058,22.058,0,0,1,16.88,36.272,19.569,19.569,0,0,0-10.2-8.533,9.541,9.541,0,0,0,2.886-6.84V62.9a9.57,9.57,0,1,0-19.141,0v1.9a9.54,9.54,0,0,0,2.886,6.84,19.573,19.573,0,0,0-10.217,8.567,22,22,0,0,1-4.864-10.557,1.953,1.953,0,0,0-3.853.646A25.979,25.979,0,1,0,150.341,40Zm-5.664,24.8V62.9a5.664,5.664,0,1,1,11.328,0v1.9a5.664,5.664,0,0,1-11.328,0ZM136.338,83.07a15.622,15.622,0,0,1,27.989-.033,22.106,22.106,0,0,1-27.989.033Z" transform="translate(-64.935 -32.188)"/>
    <path id="Trazado_169997" data-name="Trazado 169997" d="M226.044,401.908H198.31a1.953,1.953,0,0,1,0-3.906h27.734a1.953,1.953,0,0,1,0,3.906Z" transform="translate(-122.6 -320.267)"/>
    <path id="Trazado_169998" data-name="Trazado 169998" d="M155.593,345.906a1.954,1.954,0,1,1,1.381-.572A1.967,1.967,0,0,1,155.593,345.906Z" transform="translate(-88.226 -275.203)"/>
    <path id="Trazado_169999" data-name="Trazado 169999" d="M155.593,401.906a1.954,1.954,0,1,1,1.381-.572A1.967,1.967,0,0,1,155.593,401.906Z" transform="translate(-88.226 -320.266)"/>
    <path id="Trazado_170000" data-name="Trazado 170000" d="M226.044,345.908H198.31a1.953,1.953,0,0,1,0-3.906h27.734a1.953,1.953,0,0,1,0,3.906Z" transform="translate(-122.6 -275.205)"/>
    <path id="Trazado_170003" data-name="Trazado 170003" d="M14.063,0A14.063,14.063,0,1,1,0,14.063,14.063,14.063,0,0,1,14.063,0Z" transform="translate(45.953 1.953)" fill="#f85316"/>
    <path id="Trazado_170001" data-name="Trazado 170001" d="M92.224,66.349a1.947,1.947,0,0,1-1.381-.572l-3.555-3.555a1.953,1.953,0,0,1,2.762-2.762l2.174,2.174,6.361-6.361a1.953,1.953,0,1,1,2.762,2.762l-7.742,7.742A1.949,1.949,0,0,1,92.224,66.349Z" transform="translate(-34.373 -44.017)"/>
    <path id="Trazado_170002" data-name="Trazado 170002" d="M60.016,32.031A16.016,16.016,0,1,1,76.031,16.016,16.034,16.034,0,0,1,60.016,32.031Zm0-28.125A12.109,12.109,0,1,0,72.125,16.016,12.123,12.123,0,0,0,60.016,3.906Z"/>
  </g>
</svg>
