<svg id="equipo" xmlns="http://www.w3.org/2000/svg" width="100" height="100" viewBox="0 0 100 100">
  <path id="Trazado_170039" data-name="Trazado 170039" d="M173.726,20.4l-6.844-6.844-4.779,3.11a25.577,25.577,0,0,0-7.452-3.09L153.474,8H143.8l-1.179,5.573a25.577,25.577,0,0,0-7.452,3.09l-4.779-3.11L123.543,20.4l2.478,5.91.235,12.339h3.024a19.355,19.355,0,1,1,38.71,0h3.226L171.2,26.307Zm0,0" transform="translate(-98.635 -6.387)" fill="#f85316"/>
  <path id="Trazado_170042" data-name="Trazado 170042" d="M323.484,136.324v-7.866A6.453,6.453,0,0,0,318.6,122.2l-8.016-2,0-2.916a9.666,9.666,0,0,0,4.842-8.374v-2.819a9.948,9.948,0,0,0-9.379-10.079,9.678,9.678,0,0,0-9.976,9.673V108.9a9.664,9.664,0,0,0,4.839,8.372v2.918l-8.016,2.005A6.45,6.45,0,0,0,288,128.458v7.866Zm0,0" transform="translate(-229.935 -76.646)" fill="#dce736"/>
  <path id="Trazado_170044" data-name="Trazado 170044" d="M67.484,136.324v-7.866A6.453,6.453,0,0,0,62.6,122.2l-8.016-2,0-2.916a9.666,9.666,0,0,0,4.842-8.374v-2.819A9.948,9.948,0,0,0,50.04,96.006a9.678,9.678,0,0,0-9.976,9.673V108.9a9.664,9.664,0,0,0,4.839,8.372v2.918L36.887,122.2A6.45,6.45,0,0,0,32,128.458v7.866Zm0,0" transform="translate(-25.548 -76.646)" fill="#dce736"/>
  <path id="Trazado_170046" data-name="Trazado 170046" d="M195.484,136.324v-7.866A6.453,6.453,0,0,0,190.6,122.2l-8.016-2,0-2.916a9.666,9.666,0,0,0,4.842-8.374v-2.819a9.948,9.948,0,0,0-9.379-10.079,9.678,9.678,0,0,0-9.976,9.673V108.9a9.664,9.664,0,0,0,4.839,8.372v2.918l-8.016,2.005A6.45,6.45,0,0,0,160,128.458v7.866Zm0,0" transform="translate(-127.742 -76.646)" fill="#3d46c2"/>
  <path id="Trazado_170050" data-name="Trazado 170050" d="M125.731,288.809,112.1,276.543l-2.593-9.318-7.384-2.361a18.2,18.2,0,0,0-9.495-.431l-19.016,4.4L72,281.742l11.371,7.145,20.686,17.25,2.493,2.2a3.3,3.3,0,0,0,2.181.825h.3a3.3,3.3,0,0,0,2.11-5.827,4.262,4.262,0,0,0,2.729.988,3.3,3.3,0,0,0,2.11-5.827l-6.181-5.151,6.448,5.374a3.3,3.3,0,0,0,2.111.765h.35a3.3,3.3,0,0,0,2.11-5.827l.254.213a3.346,3.346,0,0,0,2.142.776h.279a3.348,3.348,0,0,0,2.241-5.836Zm0,0" transform="translate(-57.484 -210.774)" fill="#ecc19c"/>
  <path id="Trazado_170051" data-name="Trazado 170051" d="M215.15,250.487l-13.629-12.266a4.883,4.883,0,0,0-5.777-.558l-6,3.6A3.789,3.789,0,0,1,184,238.018V237.7a3.788,3.788,0,0,1,2.095-3.389l9-4.5a8.56,8.56,0,0,1,6.19-.576l10.136,2.9h1.613L243.677,216h1.613v20.968l-29.032,14.516Zm0,0" transform="translate(-146.903 -172.452)" fill="#f5e0cd"/>
  <path id="Trazado_170052" data-name="Trazado 170052" d="M239.121,400l-2.242,2.332,8.939,7.449a6.528,6.528,0,0,0,2.619,1.3,3.255,3.255,0,0,0,.361-1.471,3.3,3.3,0,0,0-1.185-2.532Zm0,0" transform="translate(-189.121 -319.355)" fill="#dfb28b"/>
  <path id="Trazado_170053" data-name="Trazado 170053" d="M200,438.256a3.421,3.421,0,0,0,5.84,2.419l2.834-2.834a3.421,3.421,0,1,0-4.837-4.84L201,435.835A3.421,3.421,0,0,0,200,438.256Zm0,0" transform="translate(-159.677 -344.903)" fill="#f5e0cd"/>
  <path id="Trazado_170054" data-name="Trazado 170054" d="M176,414.256a3.421,3.421,0,0,0,5.84,2.419l2.834-2.834a3.421,3.421,0,1,0-4.837-4.84L177,411.835A3.421,3.421,0,0,0,176,414.256Zm0,0" transform="translate(-140.516 -325.742)" fill="#f5e0cd"/>
  <path id="Trazado_170055" data-name="Trazado 170055" d="M152,390.256a3.421,3.421,0,0,0,5.84,2.419l2.834-2.834a3.421,3.421,0,1,0-4.837-4.84L153,387.835A3.421,3.421,0,0,0,152,390.256Zm0,0" transform="translate(-121.355 -306.581)" fill="#f5e0cd"/>
  <path id="Trazado_170056" data-name="Trazado 170056" d="M158.118,387.283a6.66,6.66,0,0,0,1.666-2.907,3.383,3.383,0,0,0-1.528-.376,3.42,3.42,0,0,0-2.419,1L153,387.835a3.425,3.425,0,0,0-1,2.421,3.383,3.383,0,0,0,.376,1.528,6.652,6.652,0,0,0,2.907-1.666Zm0,0" transform="translate(-121.355 -306.581)" fill="#f0d0b4"/>
  <path id="Trazado_170057" data-name="Trazado 170057" d="M182.118,411.283a6.66,6.66,0,0,0,1.666-2.907,3.383,3.383,0,0,0-1.528-.376,3.42,3.42,0,0,0-2.419,1L177,411.835a3.425,3.425,0,0,0-1,2.421,3.383,3.383,0,0,0,.376,1.528,6.651,6.651,0,0,0,2.907-1.666Zm0,0" transform="translate(-140.516 -325.742)" fill="#f0d0b4"/>
  <path id="Trazado_170058" data-name="Trazado 170058" d="M206.118,435.283a6.661,6.661,0,0,0,1.666-2.907,3.383,3.383,0,0,0-1.528-.376,3.42,3.42,0,0,0-2.419,1L201,435.835a3.425,3.425,0,0,0-1,2.421,3.383,3.383,0,0,0,.376,1.528,6.652,6.652,0,0,0,2.907-1.666Zm0,0" transform="translate(-159.677 -344.903)" fill="#f0d0b4"/>
  <path id="Trazado_170059" data-name="Trazado 170059" d="M128,366.256a3.421,3.421,0,0,0,5.84,2.419l2.834-2.834a3.421,3.421,0,1,0-4.837-4.84L129,363.835A3.421,3.421,0,0,0,128,366.256Zm0,0" transform="translate(-102.194 -287.419)" fill="#f5e0cd"/>
  <path id="Trazado_170060" data-name="Trazado 170060" d="M84.361,275.648l-10.748,2.49L72,291.042l6.752,4.242Zm0,0" transform="translate(-57.484 -220.074)" fill="#dfb28b"/>
  <path id="Trazado_170061" data-name="Trazado 170061" d="M30.581,212.9l-6.452,22.581H22.516L8,230.645V200h3.226l19.355,11.29Zm0,0" transform="translate(-6.387 -159.677)" fill="#e6e9ed"/>
  <path id="Trazado_170062" data-name="Trazado 170062" d="M24.235,207.589,11.226,200H8v30.645l9.677,3.226,6.452-25.806Zm0,0" transform="translate(-6.387 -159.677)" fill="#75b62f"/>
  <path id="Trazado_170063" data-name="Trazado 170063" d="M263.121,376l-2.242,2.332,8.939,7.449a6.528,6.528,0,0,0,2.619,1.3,3.255,3.255,0,0,0,.361-1.471,3.3,3.3,0,0,0-1.185-2.532Zm0,0" transform="translate(-208.282 -300.194)" fill="#dfb28b"/>
  <path id="Trazado_170064" data-name="Trazado 170064" d="M100,41.935H96.376l-5.4,2.842a8.018,8.018,0,0,0-1.922-.791l-6.795-1.7v-.773a11.327,11.327,0,0,0,4.84-9.256V29.439A11.588,11.588,0,0,0,76.153,17.747c-.306-.008-.608,0-.911.018L77,13.64,68.463,5.1,63.428,8.379a27.282,27.282,0,0,0-6.037-2.5L56.147,0H43.855L42.611,5.876a27.251,27.251,0,0,0-6.037,2.5L31.539,5.1l-8.534,8.534,1.732,4.128c-.066,0-.129-.015-.2-.017A11.295,11.295,0,0,0,12.9,29.032v3.226a11.322,11.322,0,0,0,4.839,9.255v.774L13.31,43.395,5.276,38.71H0V72.131l15.868,5.288h3.09l.386-1.351,4.864,2.919a5.022,5.022,0,0,0,4.843,4.865,5.021,5.021,0,0,0,4.839,4.839,5.021,5.021,0,0,0,4.839,4.839,5.016,5.016,0,0,0,7.843,3.983L48,98.775A4.911,4.911,0,0,0,51.245,100h.3a4.911,4.911,0,0,0,4.9-4.845,4.906,4.906,0,0,0,4.839-4.839,4.906,4.906,0,0,0,4.839-4.843,4.96,4.96,0,0,0,4.845-4.949,4.722,4.722,0,0,0-.024-.484L100,65.513Zm-16.129-12.5v2.819a8.1,8.1,0,0,1-4.037,6.979l-.806.466.006,5.1,8.058,2.013L69.355,56.156V51.811a8.025,8.025,0,0,0-2.31-5.621l5.536-1.383V39.7l-.8-.465a8.087,8.087,0,0,1-4.034-6.976V29.032a8.064,8.064,0,0,1,8.314-8.06A8.339,8.339,0,0,1,83.871,29.439ZM52.432,54.888l-7.3-2.334A19.918,19.918,0,0,0,34.8,52.084l-.925.2v-.477a4.835,4.835,0,0,1,3.664-4.7l9.239-2.308V39.7l-.8-.465a8.087,8.087,0,0,1-4.034-6.976V29.032a8.064,8.064,0,0,1,8.314-8.06,8.339,8.339,0,0,1,7.815,8.466v2.819a8.1,8.1,0,0,1-4.037,6.979l-.806.466.006,5.1,9.237,2.308a4.835,4.835,0,0,1,3.664,4.7v6.044l-.4.209h-.988l-9.916-2.834A10.167,10.167,0,0,0,52.432,54.888ZM34.232,24.14A17.73,17.73,0,0,1,65.7,24.01a11.217,11.217,0,0,0-1.185,5.022v3.226a11.322,11.322,0,0,0,4.839,9.255v.774L62.9,43.9,56.45,42.287v-.773a11.327,11.327,0,0,0,4.84-9.256V29.439A11.588,11.588,0,0,0,50.347,17.747,11.292,11.292,0,0,0,38.71,29.032v3.226a11.322,11.322,0,0,0,4.839,9.255v.774L37.1,43.9l-6.453-1.615v-.773a11.327,11.327,0,0,0,4.84-9.256V29.439A11.888,11.888,0,0,0,34.232,24.14Zm-7.418-9.755,5.153-5.153L36.5,12.184l.868-.532a24.068,24.068,0,0,1,6.984-2.9l.992-.238,1.122-5.292h7.063l1.119,5.29.992.237a24.092,24.092,0,0,1,6.984,2.9l.868.532,4.536-2.952,5.147,5.148-1.829,4.283a11.274,11.274,0,0,0-3.4,2.263c-.066.065-.123.134-.187.2a20.946,20.946,0,0,0-35.574.1A11.377,11.377,0,0,0,28.624,18.7ZM20.968,44.808V39.7l-.8-.465a8.087,8.087,0,0,1-4.034-6.976V29.032a8.064,8.064,0,0,1,8.314-8.06,8.339,8.339,0,0,1,7.815,8.466v2.819a8.1,8.1,0,0,1-4.037,6.979l-.806.466.006,5.1,5.534,1.383a8.025,8.025,0,0,0-2.31,5.621v1.195l-5.031,1.118.131-.457.061-2.981L17.3,45.724ZM3.226,41.935H4.4L16,48.7,10.148,72.113,3.226,69.8ZM16.39,74.194l-3.175-1.058L18.9,50.394l3.679,2.145V53L16.526,74.194Zm11.029,4.643a1.821,1.821,0,0,1,.529-1.279l2.835-2.835a1.809,1.809,0,0,1,2.558,2.558l-2.835,2.835a1.809,1.809,0,0,1-3.087-1.279Zm4.839,4.839a1.821,1.821,0,0,1,.529-1.279l2.835-2.835a1.809,1.809,0,0,1,2.558,2.558l-2.835,2.835a1.809,1.809,0,0,1-3.087-1.279ZM37.1,88.514a1.821,1.821,0,0,1,.529-1.279L40.461,84.4a1.809,1.809,0,0,1,2.558,2.558l-2.835,2.835A1.809,1.809,0,0,1,37.1,88.514Zm6.647,6.647a1.809,1.809,0,0,1-1.279-3.087L45.3,89.239A1.809,1.809,0,0,1,47.858,91.8l-2.835,2.835A1.821,1.821,0,0,1,43.744,95.161Zm7.8,1.613h-.3a1.671,1.671,0,0,1-1.111-.421l-1.207-1.064,1.211-1.211a5.015,5.015,0,0,0,1.016-1.5L52.621,93.8a1.683,1.683,0,0,1-1.077,2.975ZM66.008,82.258h-.279a1.73,1.73,0,0,1-1.11-.4l-8.747-7.289-2.067,2.479L62.3,84.122A1.683,1.683,0,0,1,61.221,87.1h-.352a1.682,1.682,0,0,1-1.076-.391l-8.761-7.3-2.067,2.479,8.494,7.078a1.681,1.681,0,0,1-1.077,2.972,2.664,2.664,0,0,1-1.7-.614l-3.6-3A5.017,5.017,0,0,0,46.755,85.5a5.021,5.021,0,0,0-4.839-4.839,5.021,5.021,0,0,0-4.839-4.839A5.022,5.022,0,0,0,28.5,72.442l-2.835,2.835a4.97,4.97,0,0,0-.452.552l-4.954-2.973,4.343-15.2,10.889-2.421a16.616,16.616,0,0,1,8.654.391l2.376.76-8.055,4.028a5.376,5.376,0,0,0-2.984,4.832v.319A5.4,5.4,0,0,0,43.667,70.2l6.006-3.6a3.329,3.329,0,0,1,3.868.373L67.168,79.232a1.736,1.736,0,0,1-1.16,3.026ZM96.774,63.519,69.6,77.107c-.088-.094-.18-.183-.277-.269L55.7,64.573a6.491,6.491,0,0,0-7.687-.743L42,67.432a2.175,2.175,0,0,1-3.294-1.868v-.319a2.164,2.164,0,0,1,1.2-1.947l9-4.5a7.01,7.01,0,0,1,5.027-.466l10.136,2.9,2.455.061,30.247-15.92Zm0,0"/>
</svg>
