<svg xmlns="http://www.w3.org/2000/svg" width="100" height="99.996" viewBox="0 0 100 99.996">
  <g id="reclutamiento" transform="translate(0 -0.009)">
    <path id="Trazado_170024" data-name="Trazado 170024" d="M48.3,345.454l-22.9,22.9a5.366,5.366,0,0,1-7.589,0h0a5.366,5.366,0,0,1,0-7.589l22.9-22.9Z" transform="translate(-13.069 -271.869)" fill="#3d46c2"/>
    <path id="Trazado_170025" data-name="Trazado 170025" d="M406.471,211.19v1.566a6.266,6.266,0,0,1-6.266,6.266h0a6.266,6.266,0,0,1-6.266-6.266V211.19a6.266,6.266,0,0,1,6.266-6.266h0A6.266,6.266,0,0,1,406.471,211.19Z" transform="translate(-316.998 -164.893)" fill="#ffcdac"/>
    <path id="Trazado_170026" data-name="Trazado 170026" d="M369.107,277.106h-8.45a10.614,10.614,0,0,0-10.614,10.614v3.932h29.679V287.72A10.614,10.614,0,0,0,369.107,277.106Z" transform="translate(-281.674 -222.976)" fill="#dce736"/>
    <path id="Trazado_170027" data-name="Trazado 170027" d="M53.9,211.19v1.566a6.266,6.266,0,0,0,6.266,6.266h0a6.266,6.266,0,0,0,6.266-6.266V211.19a6.266,6.266,0,0,0-6.266-6.266h0A6.266,6.266,0,0,0,53.9,211.19Z" transform="translate(-43.372 -164.893)" fill="#ffcdac"/>
    <path id="Trazado_170028" data-name="Trazado 170028" d="M20.614,277.106h8.45A10.614,10.614,0,0,1,39.679,287.72v3.932H10V287.72A10.614,10.614,0,0,1,20.614,277.106Z" transform="translate(-8.047 -222.976)" fill="#75b62f"/>
    <path id="Trazado_170038" data-name="Trazado 170038" d="M26.953,0A26.953,26.953,0,1,1,0,26.953,26.953,26.953,0,0,1,26.953,0Z" transform="translate(23.047 22.718)" fill="#3d46c2"/>
    <circle id="Elipse_5965" data-name="Elipse 5965" cx="19.135" cy="19.135" r="19.135" transform="translate(30.865 30.537)" fill="#fff"/>
    <path id="Trazado_170029" data-name="Trazado 170029" d="M237.065,216.723v1.517A6.069,6.069,0,0,1,231,224.309h0a6.069,6.069,0,0,1-6.069-6.069v-1.517A6.069,6.069,0,0,1,231,210.654h0A6.069,6.069,0,0,1,237.065,216.723Z" transform="translate(-180.996 -169.503)" fill="#ffcdac"/>
    <path id="Trazado_170030" data-name="Trazado 170030" d="M202.306,280.568h0a14.007,14.007,0,0,0-13.032,8.878,19.126,19.126,0,0,0,26.065,0A14.007,14.007,0,0,0,202.306,280.568Z" transform="translate(-152.306 -225.762)" fill="#f85316"/>
    <path id="Trazado_170031" data-name="Trazado 170031" d="M90.026,137.958a8.171,8.171,0,0,0,1.4-4.583v-1.567a8.215,8.215,0,0,0-14.018-5.818,28.909,28.909,0,0,0-54.816,0,8.215,8.215,0,0,0-14.018,5.818v1.567a8.171,8.171,0,0,0,1.4,4.583A12.589,12.589,0,0,0,0,150.255v3.932a1.953,1.953,0,0,0,1.953,1.953H12.109a1.953,1.953,0,0,0,0-3.906h-8.2v-1.979a8.671,8.671,0,0,1,8.662-8.662h9.244a28.743,28.743,0,0,0,3.836,9.147L3.363,173.025a7.319,7.319,0,0,0,10.351,10.351L26,171.09a1.953,1.953,0,1,0-2.762-2.762L10.952,180.614a3.413,3.413,0,1,1-4.827-4.827L28,153.911a28.893,28.893,0,0,0,50.187-12.317h9.244a8.671,8.671,0,0,1,8.662,8.662v1.979H77.734a1.953,1.953,0,0,0,0,3.906H98.047A1.953,1.953,0,0,0,100,154.187v-3.932A12.589,12.589,0,0,0,90.026,137.958Zm-11.132-6.15a4.313,4.313,0,0,1,8.625,0v1.567a4.313,4.313,0,0,1-8.625,0Zm-66.414,0a4.313,4.313,0,0,1,8.625,0v1.567a4.313,4.313,0,0,1-8.625,0S12.48,131.808,12.48,131.808ZM50,160.181a25,25,0,1,1,25-25A25.028,25.028,0,0,1,50,160.181Z" transform="translate(0 -85.511)"/>
    <path id="Trazado_170032" data-name="Trazado 170032" d="M169.094,146.275a21.083,21.083,0,0,0-14.465,36.432,1.953,1.953,0,0,0,.227.211,21.054,21.054,0,0,0,28.477,0,1.938,1.938,0,0,0,.227-.211,21.083,21.083,0,0,0-14.465-36.432ZM158.45,180.854a12.054,12.054,0,0,1,21.288,0,17.153,17.153,0,0,1-21.288,0Zm6.528-14.419v-1.517a4.116,4.116,0,1,1,8.232,0v1.517a4.116,4.116,0,1,1-8.232,0Zm17.617,11.558a15.82,15.82,0,0,0-7.473-6.273,7.987,7.987,0,0,0,1.995-5.285v-1.517a8.022,8.022,0,0,0-16.044,0v1.517a7.986,7.986,0,0,0,1.995,5.285,15.822,15.822,0,0,0-7.473,6.273,17.188,17.188,0,1,1,27,0Z" transform="translate(-119.094 -117.698)"/>
    <path id="Trazado_170033" data-name="Trazado 170033" d="M144.753,394.309a1.954,1.954,0,1,0,1.381.572A1.968,1.968,0,0,0,144.753,394.309Z" transform="translate(-114.909 -317.288)"/>
    <path id="Trazado_170034" data-name="Trazado 170034" d="M248.156,10.561a1.953,1.953,0,0,0,1.953-1.953V1.962a1.953,1.953,0,0,0-3.906,0V8.607A1.953,1.953,0,0,0,248.156,10.561Z" transform="translate(-198.116)"/>
    <path id="Trazado_170035" data-name="Trazado 170035" d="M248.153,70.915a1.954,1.954,0,1,0-1.381-.572A1.963,1.963,0,0,0,248.153,70.915Z" transform="translate(-198.114 -53.914)"/>
    <path id="Trazado_170036" data-name="Trazado 170036" d="M308.285,43.646a1.947,1.947,0,0,0,1.381-.572l3.433-3.433a1.953,1.953,0,0,0-2.762-2.762L306.9,40.312a1.953,1.953,0,0,0,1.381,3.334Z" transform="translate(-246.501 -29.209)"/>
    <path id="Trazado_170037" data-name="Trazado 170037" d="M172.129,43.059a1.953,1.953,0,1,0,2.762-2.762l-3.466-3.466a1.953,1.953,0,1,0-2.762,2.762Z" transform="translate(-135.261 -29.17)"/>
  </g>
</svg>
