<svg xmlns="http://www.w3.org/2000/svg" width="1242.5" height="760.778" viewBox="0 0 1242.5 760.778">
  <g id="Grupo_115954" data-name="Grupo 115954" transform="translate(-178.5 -320.553)">
    <line id="Línea_555" data-name="Línea 555" y2="543.58" transform="translate(301.929 511.212)" fill="none" stroke="#3e4bbf" stroke-miterlimit="10" stroke-width="2"/>
    <g id="Grupo_114566" data-name="Grupo 114566" transform="translate(301.929 562.441)">
      <line id="Línea_556" data-name="Línea 556" x2="29.898" transform="translate(0 5.348)" fill="none" stroke="#3e4bbf" stroke-miterlimit="10" stroke-width="2"/>
      <path id="Trazado_158597" data-name="Trazado 158597" d="M178.67,300.207V288.59l5.809,5.809Z" transform="translate(-151.681 -288.59)" fill="#3e4bbf"/>
    </g>
    <g id="Grupo_114567" data-name="Grupo 114567" transform="translate(301.929 809.651)">
      <line id="Línea_557" data-name="Línea 557" x2="29.898" transform="translate(0 5.356)" fill="none" stroke="#3e4bbf" stroke-miterlimit="10" stroke-width="2"/>
      <path id="Trazado_158597-2" data-name="Trazado 158597" d="M178.67,595.147V583.53l5.809,5.809Z" transform="translate(-151.681 -583.53)" fill="#3e4bbf"/>
    </g>
    <g id="Grupo_114568" data-name="Grupo 114568" transform="translate(301.929 640.936)">
      <line id="Línea_558" data-name="Línea 558" x2="29.898" transform="translate(0 5.348)" fill="none" stroke="#3e4bbf" stroke-miterlimit="10" stroke-width="2"/>
      <path id="Trazado_158597-3" data-name="Trazado 158597" d="M178.67,393.857V382.24l5.809,5.809Z" transform="translate(-151.681 -382.24)" fill="#3e4bbf"/>
    </g>
    <g id="Grupo_114569" data-name="Grupo 114569" transform="translate(301.929 727.569)">
      <line id="Línea_559" data-name="Línea 559" x2="29.898" transform="translate(0 5.348)" fill="none" stroke="#3e4bbf" stroke-miterlimit="10" stroke-width="2"/>
      <path id="Trazado_158597-4" data-name="Trazado 158597" d="M178.67,497.217V485.6l5.809,5.808Z" transform="translate(-151.681 -485.6)" fill="#3e4bbf"/>
    </g>
    <g id="Grupo_114570" data-name="Grupo 114570" transform="translate(301.929 973.824)">
      <line id="Línea_560" data-name="Línea 560" x2="29.898" transform="translate(0 5.348)" fill="none" stroke="#3e4bbf" stroke-miterlimit="10" stroke-width="2"/>
      <path id="Trazado_158597-5" data-name="Trazado 158597" d="M178.67,791.017V779.4l5.809,5.809Z" transform="translate(-151.681 -779.4)" fill="#3e4bbf"/>
    </g>
    <g id="Grupo_114571" data-name="Grupo 114571" transform="translate(301.929 891.742)">
      <line id="Línea_561" data-name="Línea 561" x2="29.898" transform="translate(0 5.347)" fill="none" stroke="#3e4bbf" stroke-miterlimit="10" stroke-width="2"/>
      <path id="Trazado_158597-6" data-name="Trazado 158597" d="M178.67,693.087V681.47l5.809,5.809Z" transform="translate(-151.681 -681.47)" fill="#3e4bbf"/>
    </g>
    <g id="Grupo_114573" data-name="Grupo 114573" transform="translate(300.479 1049.444)">
      <line id="Línea_562" data-name="Línea 562" x2="29.898" transform="translate(0 5.348)" fill="none" stroke="#3e4bbf" stroke-miterlimit="10" stroke-width="2"/>
      <path id="Trazado_158597-7" data-name="Trazado 158597" d="M176.94,881.237V869.62l5.809,5.809Z" transform="translate(-149.951 -869.62)" fill="#3e4bbf"/>
    </g>
    <path id="Rectángulo_40621" data-name="Rectángulo 40621" d="M193.215,846.62H387.78c3.646,0,6.6,1.877,6.6,4.191v41.783c0,2.313-2.959,4.191-6.6,4.191H193.215c-3.646,0-6.6-1.877-6.6-4.191V850.811C186.61,848.5,189.569,846.62,193.215,846.62Z" transform="translate(148.963 183.546)" fill="#d1d5fc" stroke="#3e4bbf" stroke-width="2"/>
    <text id="Contratación" transform="translate(390 1059.586)" fill="#14263e" font-size="16" font-family="Roboto-Regular, Roboto"><tspan x="0" y="0">Contratación</tspan></text>
    <path id="Rectángulo_40621-2" data-name="Rectángulo 40621" d="M193.215,749.6H387.78c3.646,0,6.6,2.274,6.6,5.077V805.29c0,2.8-2.959,5.077-6.6,5.077H193.215c-3.646,0-6.6-2.274-6.6-5.077V754.677C186.61,751.874,189.569,749.6,193.215,749.6Z" transform="translate(148.963 193.946)" fill="#d1d5fc" stroke="#3e4bbf" stroke-width="2"/>
    <text id="_Reclutamiento_y_selección" data-name=" Reclutamiento
y selección" transform="translate(436 969.93)" fill="#14263e" font-size="16" font-family="Roboto-Regular, Roboto"><tspan x="-53.352" y="0" xml:space="preserve"> Reclutamiento</tspan><tspan x="-39.602" y="21">y selección</tspan></text>
    <path id="Rectángulo_40621-3" data-name="Rectángulo 40621" d="M193.215,264.48H387.78c3.646,0,6.6,1.877,6.6,4.191v41.783c0,2.313-2.959,4.191-6.6,4.191H193.215c-3.646,0-6.6-1.878-6.6-4.191V268.671C186.61,266.357,189.569,264.48,193.215,264.48Z" transform="translate(148.963 277.752)" fill="#d1d5fc" stroke="#3e4bbf" stroke-width="2"/>
    <text id="Análisis_de_necesidades" data-name="Análisis de necesidades" transform="translate(353.96 570.652)" fill="#14263e" font-size="16" font-family="Roboto-Regular, Roboto"><tspan x="0" y="0">Análisis de necesidades</tspan></text>
    <path id="Rectángulo_40621-4" data-name="Rectángulo 40621" d="M193.215,361.51H387.78c3.646,0,6.6,2.586,6.6,5.771v57.539c0,3.186-2.959,5.771-6.6,5.771H193.215c-3.646,0-6.6-2.585-6.6-5.771V367.281C186.61,364.1,189.569,361.51,193.215,361.51Z" transform="translate(148.963 252.592)" fill="#d1d5fc" stroke="#3e4bbf" stroke-width="2"/>
    <path id="Rectángulo_40621-5" data-name="Rectángulo 40621" d="M193.215,555.55H387.78c3.646,0,6.6,1.878,6.6,4.191v41.783c0,2.313-2.959,4.191-6.6,4.191H193.215c-3.646,0-6.6-1.878-6.6-4.191V559.741C186.61,557.428,189.569,555.55,193.215,555.55Z" transform="translate(148.963 230.649)" fill="#d1d5fc" stroke="#3e4bbf" stroke-width="2"/>
    <text id="Perfil_laboral" data-name="Perfil laboral" transform="translate(395.821 814.694)" fill="#14263e" font-size="16" font-family="Roboto-Regular, Roboto"><tspan x="0" y="0">Perfil laboral</tspan></text>
    <path id="Rectángulo_40621-6" data-name="Rectángulo 40621" d="M193.215,652.57H387.78c3.646,0,6.6,1.878,6.6,4.191v41.783c0,2.313-2.959,4.191-6.6,4.191H193.215c-3.646,0-6.6-1.878-6.6-4.191V656.761C186.61,654.448,189.569,652.57,193.215,652.57Z" transform="translate(148.963 214.948)" fill="#d1d5fc" stroke="#3e4bbf" stroke-width="2"/>
    <text id="Funciones" transform="translate(404.295 895.838)" fill="#14263e" font-size="16" font-family="Roboto-Regular, Roboto"><tspan x="0" y="0">Funciones</tspan></text>
    <path id="Rectángulo_40621-7" data-name="Rectángulo 40621" d="M193.215,457.81H387.78c3.646,0,6.6,1.878,6.6,4.191v41.783c0,2.313-2.959,4.191-6.6,4.191H193.215c-3.646,0-6.6-1.878-6.6-4.191V462C186.61,459.688,189.569,457.81,193.215,457.81Z" transform="translate(148.963 246.467)" fill="#d1d5fc" stroke="#3e4bbf" stroke-width="2"/>
    <text id="Descripción_de_cargos" data-name="Descripción de cargos" transform="translate(360.46 734.151)" fill="#14263e" font-size="16" font-family="Roboto-Regular, Roboto"><tspan x="0" y="0">Descripción de cargos</tspan></text>
    <line id="Línea_563" data-name="Línea 563" y2="386.825" transform="translate(1177.844 505.864)" fill="none" stroke="#3e4bbf" stroke-miterlimit="10" stroke-width="2"/>
    <g id="Grupo_114582" data-name="Grupo 114582" transform="translate(1177.844 557.094)">
      <line id="Línea_564" data-name="Línea 564" x2="29.889" transform="translate(0 5.348)" fill="none" stroke="#3e4bbf" stroke-miterlimit="10" stroke-width="2"/>
      <path id="Trazado_158597-8" data-name="Trazado 158597" d="M1223.7,293.827V282.21l5.809,5.809Z" transform="translate(-1196.711 -282.21)" fill="#3d46c2"/>
    </g>
    <g id="Grupo_114583" data-name="Grupo 114583" transform="translate(1177.844 804.304)">
      <line id="Línea_565" data-name="Línea 565" x2="29.889" transform="translate(0 5.348)" fill="none" stroke="#3e4bbf" stroke-miterlimit="10" stroke-width="2"/>
      <path id="Trazado_158597-9" data-name="Trazado 158597" d="M1223.7,588.767V577.15l5.809,5.809Z" transform="translate(-1196.711 -577.15)" fill="#3d46c2"/>
    </g>
    <g id="Grupo_114584" data-name="Grupo 114584" transform="translate(1177.844 635.58)">
      <line id="Línea_566" data-name="Línea 566" x2="29.889" transform="translate(0 5.348)" fill="none" stroke="#3e4bbf" stroke-miterlimit="10" stroke-width="2"/>
      <path id="Trazado_158597-10" data-name="Trazado 158597" d="M1223.7,387.467V375.85l5.809,5.809Z" transform="translate(-1196.711 -375.85)" fill="#3d46c2"/>
    </g>
    <g id="Grupo_114585" data-name="Grupo 114585" transform="translate(1177.844 722.213)">
      <line id="Línea_567" data-name="Línea 567" x2="29.889" transform="translate(0 5.356)" fill="none" stroke="#3e4bbf" stroke-miterlimit="10" stroke-width="2"/>
      <path id="Trazado_158597-11" data-name="Trazado 158597" d="M1223.7,490.827V479.21l5.809,5.809Z" transform="translate(-1196.711 -479.21)" fill="#3d46c2"/>
    </g>
    <g id="Grupo_114586" data-name="Grupo 114586" transform="translate(1177.844 886.386)">
      <line id="Línea_568" data-name="Línea 568" x2="29.889" transform="translate(0 5.348)" fill="none" stroke="#3e4bbf" stroke-miterlimit="10" stroke-width="2"/>
      <path id="Trazado_158597-12" data-name="Trazado 158597" d="M1223.7,686.7V675.08l5.809,5.809Z" transform="translate(-1196.711 -675.08)" fill="#3d46c2"/>
    </g>
    <path id="Rectángulo_40598" data-name="Rectángulo 40598" d="M379.206,0H867.833c4.519,0,8.187,2.758,8.187,6.152V55.21c0,3.395-3.667,6.152-8.187,6.152H379.206c-4.519,0-8.186-2.758-8.186-6.152V6.152C371.02,2.758,374.687,0,379.206,0Z" transform="translate(123.98 320.553)" fill="#3d46c2"/>
    <text id="Generalidades_de_la_gestión_del_talento_humano" data-name="Generalidades de la gestión del talento humano" transform="translate(534 357.734)" fill="#fff" font-size="20" font-family="Roboto-Bold, Roboto" font-weight="700"><tspan x="0" y="0">Generalidades de la gestión del talento humano</tspan></text>
    <line id="Línea_569" data-name="Línea 569" x1="880.692" transform="translate(301.535 415.216)" fill="none" stroke="#3e4bbf" stroke-miterlimit="10" stroke-width="2"/>
    <line id="Línea_570" data-name="Línea 570" y2="384.553" transform="translate(738.046 588.424)" fill="none" stroke="#3e4bbf" stroke-miterlimit="10" stroke-width="2"/>
    <line id="Línea_571" data-name="Línea 571" x2="29.889" transform="translate(738.046 646.736)" fill="none" stroke="#3e4bbf" stroke-miterlimit="10" stroke-width="2"/>
    <path id="Trazado_158597-13" data-name="Trazado 158597" d="M698.99,394.4V382.78l5.809,5.809Z" transform="translate(66.045 258.608)" fill="#3d46c2"/>
    <line id="Línea_572" data-name="Línea 572" x2="29.889" transform="translate(738.046 728.474)" fill="none" stroke="#3e4bbf" stroke-miterlimit="10" stroke-width="2"/>
    <path id="Trazado_158597-14" data-name="Trazado 158597" d="M698.99,498.747V487.13l5.809,5.809Z" transform="translate(66.045 235.988)" fill="#3d46c2"/>
    <line id="Línea_573" data-name="Línea 573" x2="29.889" transform="translate(738.046 891.397)" fill="none" stroke="#3e4bbf" stroke-miterlimit="10" stroke-width="2"/>
    <path id="Trazado_158597-15" data-name="Trazado 158597" d="M698.99,686.287V674.67l5.809,5.809Z" transform="translate(66.045 211.372)" fill="#3d46c2"/>
    <line id="Línea_574" data-name="Línea 574" x2="29.889" transform="translate(738.046 972.089)" fill="none" stroke="#3e4bbf" stroke-miterlimit="10" stroke-width="2"/>
    <path id="Trazado_158597-16" data-name="Trazado 158597" d="M698.99,782.567V770.95l5.809,5.808Z" transform="translate(66.045 195.791)" fill="#3d46c2"/>
    <line id="Línea_575" data-name="Línea 575" x2="29.889" transform="translate(738.046 815.427)" fill="none" stroke="#3e4bbf" stroke-miterlimit="10" stroke-width="2"/>
    <path id="Trazado_158597-17" data-name="Trazado 158597" d="M698.99,595.657V584.04l5.809,5.809Z" transform="translate(66.045 226.039)" fill="#3d46c2"/>
    <g id="Grupo_114594" data-name="Grupo 114594" transform="translate(733.168 381.915)">
      <line id="Línea_576" data-name="Línea 576" y2="49.243" transform="translate(4.878)" fill="none" stroke="#3e4bbf" stroke-miterlimit="10" stroke-width="2"/>
      <path id="Trazado_158597-18" data-name="Trazado 158597" d="M660.97,131.96h9.756l-4.878,5.809Z" transform="translate(-660.97 -82.717)" fill="#3d46c2"/>
    </g>
    <path id="Rectángulo_40599" data-name="Rectángulo 40599" d="M529.518,140.24H757.124c4.266,0,7.728,2.716,7.728,6.06v60.432c0,3.344-3.462,6.06-7.728,6.06H529.518c-4.266,0-7.728-2.716-7.728-6.06V146.3C521.79,142.956,525.252,140.24,529.518,140.24Z" transform="translate(94.722 297.858)" fill="#bae887" stroke="#77b43a" stroke-width="3"/>
    <text id="Estructura_organizacional" data-name="Estructura
organizacional" transform="translate(737 466.895)" fill="#14263e" font-size="16" font-family="Roboto-Bold, Roboto" font-weight="700"><tspan x="-37.152" y="0">Estructura</tspan><tspan x="-52.965" y="21">organizacional</tspan></text>
    <g id="Grupo_114595" data-name="Grupo 114595" transform="translate(180 414.395)">
      <line id="Línea_577" data-name="Línea 577" y2="16.763" transform="translate(121.535)" fill="none" stroke="#3e4bbf" stroke-miterlimit="10" stroke-width="3"/>
      <path id="Trazado_158597-19" data-name="Trazado 158597" d="M139.07,131.96h11.617l-5.809,5.809-5.809-5.809Z" transform="translate(-23.344 -115.197)" fill="#3d46c2"/>
      <path id="Rectángulo_40599-2" data-name="Rectángulo 40599" d="M8.728,140.01H236.342c4.266,0,7.728,2.741,7.728,6.127V207.2c0,3.386-3.462,6.127-7.728,6.127H8.728C4.462,213.325,1,210.584,1,207.2V146.137c0-3.386,3.462-6.127,7.728-6.127Z" transform="translate(-1 -116.499)" fill="#bae887" stroke="#77b43a" stroke-width="3"/>
    </g>
    <line id="Línea_578" data-name="Línea 578" y2="28.598" transform="translate(738.046 511.556)" fill="none" stroke="#3e4bbf" stroke-miterlimit="10" stroke-width="2"/>
    <path id="Rectángulo_40621-8" data-name="Rectángulo 40621" d="M549.445,262.9H744.01c3.646,0,6.6,1.878,6.6,4.191v41.783c0,2.313-2.959,4.191-6.6,4.191H549.445c-3.646,0-6.6-1.878-6.6-4.191V267.091C542.84,264.777,545.8,262.9,549.445,262.9Z" transform="translate(91.315 278.008)" fill="#d1d5fc" stroke="#3e4bbf" stroke-width="2"/>
    <path id="Rectángulo_40621-9" data-name="Rectángulo 40621" d="M1239.125,262.9H1433.69c3.646,0,6.6,1.878,6.6,4.191v41.783c0,2.313-2.959,4.191-6.6,4.191H1239.125c-3.646,0-6.6-1.878-6.6-4.191V267.091C1232.52,264.777,1235.479,262.9,1239.125,262.9Z" transform="translate(-20.295 278.008)" fill="#d1d5fc" stroke="#3e4bbf" stroke-width="2"/>
    <path id="Rectángulo_40621-10" data-name="Rectángulo 40621" d="M1239.125,553.61H1433.69c3.646,0,6.6,1.878,6.6,4.191v41.783c0,2.313-2.959,4.191-6.6,4.191H1239.125c-3.646,0-6.6-1.877-6.6-4.191V557.8C1232.52,555.488,1235.479,553.61,1239.125,553.61Z" transform="translate(-20.295 230.963)" fill="#d1d5fc" stroke="#3e4bbf" stroke-width="2"/>
    <path id="Rectángulo_40621-11" data-name="Rectángulo 40621" d="M1239.125,360.46H1433.69c3.646,0,6.6,1.878,6.6,4.191v41.783c0,2.313-2.959,4.191-6.6,4.191H1239.125c-3.646,0-6.6-1.877-6.6-4.191V364.651C1232.52,362.338,1235.479,360.46,1239.125,360.46Z" transform="translate(-20.295 262.22)" fill="#d1d5fc" stroke="#3e4bbf" stroke-width="2"/>
    <path id="Rectángulo_40621-12" data-name="Rectángulo 40621" d="M1239.125,651.54H1433.69c3.646,0,6.6,1.878,6.6,4.191v41.783c0,2.313-2.959,4.191-6.6,4.191H1239.125c-3.646,0-6.6-1.878-6.6-4.191V655.731C1232.52,653.418,1235.479,651.54,1239.125,651.54Z" transform="translate(-20.295 215.115)" fill="#d1d5fc" stroke="#3e4bbf" stroke-width="2"/>
    <path id="Rectángulo_40621-13" data-name="Rectángulo 40621" d="M1239.125,456.24H1433.69c3.646,0,6.6,1.878,6.6,4.191v41.783c0,2.313-2.959,4.191-6.6,4.191H1239.125c-3.646,0-6.6-1.878-6.6-4.191V460.431C1232.52,458.117,1235.479,456.24,1239.125,456.24Z" transform="translate(-20.295 246.72)" fill="#d1d5fc" stroke="#3e4bbf" stroke-width="2"/>
    <path id="Rectángulo_40621-14" data-name="Rectángulo 40621" d="M713.678,358.93H896.253a6.1,6.1,0,0,1,6.2,6.011V424.9a6.107,6.107,0,0,1-6.2,6.011H713.678a6.1,6.1,0,0,1-6.2-6.011v-59.96A6.108,6.108,0,0,1,713.678,358.93Z" transform="translate(64.672 252.271)" fill="#f9f69d" stroke="#dbe636" stroke-miterlimit="10" stroke-width="2"/>
    <path id="Rectángulo_40621-15" data-name="Rectángulo 40621" d="M713.678,358.93H896.253a6.1,6.1,0,0,1,6.2,6.011V424.9a6.107,6.107,0,0,1-6.2,6.011H713.678a6.1,6.1,0,0,1-6.2-6.011v-59.96A6.108,6.108,0,0,1,713.678,358.93Z" transform="translate(64.672 336.286)" fill="#f9f69d" stroke="#dbe636" stroke-miterlimit="10" stroke-width="2"/>
    <path id="Rectángulo_40621-16" data-name="Rectángulo 40621" d="M713.678,358.93H896.253a6.1,6.1,0,0,1,6.2,6.011V424.9a6.107,6.107,0,0,1-6.2,6.011H713.678a6.1,6.1,0,0,1-6.2-6.011v-59.96A6.108,6.108,0,0,1,713.678,358.93Z" transform="translate(64.672 419.967)" fill="#f9f69d" stroke="#dbe636" stroke-miterlimit="10" stroke-width="2"/>
    <path id="Rectángulo_40621-17" data-name="Rectángulo 40621" d="M713.678,358.93H896.253a6.1,6.1,0,0,1,6.2,6.011V424.9a6.107,6.107,0,0,1-6.2,6.011H713.678a6.1,6.1,0,0,1-6.2-6.011v-59.96A6.108,6.108,0,0,1,713.678,358.93Z" transform="translate(64.672 503.647)" fill="#f9f69d" stroke="#dbe636" stroke-miterlimit="10" stroke-width="2"/>
    <path id="Rectángulo_40621-18" data-name="Rectángulo 40621" d="M713.678,358.93H896.253a6.1,6.1,0,0,1,6.2,6.011V424.9a6.107,6.107,0,0,1-6.2,6.011H713.678a6.1,6.1,0,0,1-6.2-6.011v-59.96A6.108,6.108,0,0,1,713.678,358.93Z" transform="translate(64.672 587.328)" fill="#f9f69d" stroke="#dbe636" stroke-miterlimit="10" stroke-width="2"/>
    <text id="Identificación_de_las_necesidades_del_talento_humano" data-name="Identificación de las
necesidades del
talento humano" transform="translate(304.535 458.807)" fill="#14263e" font-size="16" font-family="Roboto-Bold, Roboto" font-weight="700"><tspan x="-72.434" y="0">Identificación de las</tspan><tspan x="-58.223" y="21">necesidades del</tspan><tspan x="-56.191" y="42">talento humano</tspan></text>
    <g id="Grupo_114604" data-name="Grupo 114604" transform="translate(1175.329 415.526)">
      <line id="Línea_579" data-name="Línea 579" y2="16.763" transform="translate(5.809)" fill="none" stroke="#3e4bbf" stroke-miterlimit="10" stroke-width="2"/>
      <path id="Trazado_158597-20" data-name="Trazado 158597" d="M1188.5,133.31h11.617l-5.808,5.809-5.809-5.809Z" transform="translate(-1188.5 -116.547)" fill="#3d46c2"/>
    </g>
    <path id="Rectángulo_40599-3" data-name="Rectángulo 40599" d="M1058.158,140.24h227.606c4.266,0,7.728,2.724,7.728,6.094v60.734c0,3.361-3.462,6.094-7.728,6.094H1058.158c-4.266,0-7.728-2.724-7.728-6.094V146.334C1050.43,142.972,1053.892,140.24,1058.158,140.24Z" transform="translate(9.173 297.858)" fill="#bae887" stroke="#77b43a" stroke-width="3"/>
    <text id="Gestión_del_talento_humano_" data-name="Gestión del
talento humano " transform="translate(1183 466.895)" fill="#14263e" font-size="16" font-family="Roboto-Bold, Roboto" font-weight="700"><tspan x="-40.66" y="0">Gestión del</tspan><tspan x="-58.184" y="21">talento humano </tspan></text>
    <text id="Instrumentos_de_recolección_de_información" data-name="Instrumentos de
recolección
de información" transform="translate(437 635.143)" fill="#14263e" font-size="16" font-family="Roboto-Regular, Roboto"><tspan x="-58.063" y="0">Instrumentos de</tspan><tspan x="-41.168" y="21">recolección</tspan><tspan x="-53.602" y="42">de información</tspan></text>
    <text id="Modelos_de_estructuras_organizacionales" data-name="Modelos de estructuras
organizacionales" transform="translate(738.047 561.99)" fill="#14263e" font-size="16" font-family="Roboto-Regular, Roboto"><tspan x="-83.969" y="0">Modelos de estructuras</tspan><tspan x="-60.543" y="21">organizacionales</tspan></text>
    <text id="Estructuras_organizacionales_planas" data-name="Estructuras
organizacionales
planas" transform="translate(870 634.263)" fill="#14263e" font-size="16" font-family="Roboto-Regular, Roboto"><tspan x="-40.641" y="0">Estructuras</tspan><tspan x="-60.543" y="21">organizacionales</tspan><tspan x="-23.672" y="42">planas</tspan></text>
    <text id="Estructuras_organizacionales_horizontales" data-name="Estructuras
organizacionales
horizontales" transform="translate(870 718.277)" fill="#14263e" font-size="16" font-family="Roboto-Regular, Roboto"><tspan x="-40.641" y="0">Estructuras</tspan><tspan x="-60.543" y="21">organizacionales</tspan><tspan x="-43.766" y="42">horizontales</tspan></text>
    <text id="Estructuras_organizacionales_internacionales" data-name="Estructuras
organizacionales
internacionales" transform="translate(870 801.958)" fill="#14263e" font-size="16" font-family="Roboto-Regular, Roboto"><tspan x="-40.641" y="0">Estructuras</tspan><tspan x="-60.543" y="21">organizacionales</tspan><tspan x="-54.441" y="42">internacionales</tspan></text>
    <text id="Estructuras_organizacionales_modulares" data-name="Estructuras
organizacionales
modulares" transform="translate(870 885.639)" fill="#14263e" font-size="16" font-family="Roboto-Regular, Roboto"><tspan x="-40.641" y="0">Estructuras</tspan><tspan x="-60.543" y="21">organizacionales</tspan><tspan x="-37.859" y="42">modulares</tspan></text>
    <text id="Estructuras_organizacionales_virtual" data-name="Estructuras
organizacionales
virtual" transform="translate(870 969.319)" fill="#14263e" font-size="16" font-family="Roboto-Regular, Roboto"><tspan x="-40.641" y="0">Estructuras</tspan><tspan x="-60.543" y="21">organizacionales</tspan><tspan x="-22.035" y="42">virtual</tspan></text>
    <text id="Fases_o_procesos" data-name="Fases o procesos" transform="translate(1253.613 568.402)" fill="#14263e" font-size="16" font-family="Roboto-Regular, Roboto"><tspan x="0" y="0">Fases o procesos</tspan></text>
    <text id="Acciones" transform="translate(1284.979 652.697)" fill="#14263e" font-size="16" font-family="Roboto-Regular, Roboto"><tspan x="0" y="0">Acciones</tspan></text>
    <text id="Características" transform="translate(1264.479 733.521)" fill="#14263e" font-size="16" font-family="Roboto-Regular, Roboto"><tspan x="0" y="0">Características</tspan></text>
    <text id="Objetivos" transform="translate(1280.582 815.155)" fill="#14263e" font-size="16" font-family="Roboto-Regular, Roboto"><tspan x="0" y="0">Objetivos</tspan></text>
    <text id="Marco_legal" data-name="Marco legal" transform="translate(1269.626 894.575)" fill="#14263e" font-size="16" font-family="Roboto-Regular, Roboto"><tspan x="0" y="0">Marco legal</tspan></text>
  </g>
</svg>
